<svg width="57" height="50" viewBox="0 0 57 50" fill="none" xmlns="http://www.w3.org/2000/svg">
<path fill-rule="evenodd" clip-rule="evenodd" d="M43.4786 30.2933C43.1634 30.247 42.8476 30.1765 42.5344 30.0806C39.1721 29.0509 37.4661 25.3737 36.677 21.9716C36.513 21.2652 36.2842 20.5708 35.9908 19.8974C34.8448 17.267 32.7897 15.129 30.1958 13.8684C27.6019 12.608 24.6395 12.3079 21.8423 13.0223C19.0452 13.7366 16.5971 15.4185 14.9389 17.7651C13.2809 20.1115 12.5216 22.9682 12.7981 25.8207C13.0747 28.6734 14.3689 31.3342 16.4473 33.324C18.5259 35.3137 21.2523 36.5018 24.1354 36.6742C24.8734 36.7182 25.6093 36.695 26.3345 36.6072C29.8272 36.1836 33.8931 36.5215 36.0148 39.3066C36.1612 39.4988 36.295 39.6971 36.4161 39.9001L36.4451 39.9119C36.4451 39.9119 36.4716 39.9761 36.5233 40.0873C36.6021 40.2306 36.6749 40.3761 36.7415 40.5232C36.9667 40.9447 37.3158 41.5218 37.7728 42.048C38.4673 42.8477 39.7191 43.9396 39.7191 43.9396C39.7191 43.9396 43.3607 41.1315 44.962 38.7378C46.5468 36.3685 47.7422 31.9991 47.7422 31.9991C47.7422 31.9991 46.1656 31.1547 45.1094 30.7697C44.5318 30.5591 43.9209 30.3977 43.4786 30.2933ZM49.6441 26.3235C49.6758 26.1322 49.6964 25.9352 49.7052 25.733C49.8658 22.0376 49.1881 18.3259 47.6874 14.8813C45.3366 9.48557 41.1213 5.1 35.8005 2.5145C30.4798 -0.0710078 24.4034 -0.686514 18.6658 0.778846C12.9282 2.24421 7.90665 5.69412 4.50541 10.5072C1.10421 15.3203 -0.452996 21.18 0.114282 27.0313C0.681546 32.8825 3.336 38.3404 7.59955 42.422C11.8631 46.5035 17.4554 48.9404 23.3693 49.2938C27.1447 49.5195 30.8928 48.8864 34.3395 47.477C34.3636 47.4671 34.3875 47.457 34.4113 47.4469L39.5999 45.4372C39.5999 45.4372 41.3327 47.4676 42.8966 48.3927C44.0484 49.0741 49.7679 52.0321 54.0973 47.644C59.6182 42.048 55.5669 36.3733 55.5669 36.3733C55.5669 36.3733 54.6533 34.5762 53.0646 33.4178C51.7508 32.4597 49.2914 31.6444 49.2914 31.6444L49.6441 26.3235Z" fill="#007A33"/>
</svg>
