<svg viewBox="0 0 191 42" fill="none" xmlns="http://www.w3.org/2000/svg">
<path d="M163.456 27.432C164.112 27.432 164.576 27.368 164.848 27.24C165.12 27.112 165.257 26.864 165.257 26.496C165.257 26.208 165.081 25.96 164.729 25.752C164.377 25.528 163.84 25.28 163.12 25.008C162.56 24.8 162.049 24.584 161.585 24.36C161.137 24.136 160.752 23.872 160.432 23.568C160.112 23.248 159.865 22.872 159.689 22.44C159.513 22.008 159.424 21.488 159.424 20.88C159.424 19.696 159.865 18.76 160.745 18.072C161.625 17.384 162.832 17.04 164.368 17.04C165.136 17.04 165.873 17.112 166.577 17.256C167.281 17.384 167.84 17.528 168.257 17.688L167.633 20.472C167.217 20.328 166.76 20.2 166.264 20.088C165.784 19.976 165.241 19.92 164.633 19.92C163.513 19.92 162.952 20.232 162.952 20.856C162.952 21 162.977 21.128 163.025 21.24C163.073 21.352 163.169 21.464 163.312 21.576C163.457 21.672 163.649 21.784 163.889 21.912C164.145 22.024 164.464 22.152 164.848 22.296C165.632 22.584 166.28 22.872 166.792 23.16C167.304 23.432 167.705 23.736 167.993 24.072C168.297 24.392 168.505 24.752 168.617 25.152C168.745 25.552 168.809 26.016 168.809 26.544C168.809 27.792 168.337 28.736 167.393 29.376C166.465 30.016 165.144 30.336 163.432 30.336C162.312 30.336 161.376 30.24 160.624 30.048C159.888 29.856 159.377 29.696 159.089 29.568L159.689 26.664C160.297 26.904 160.921 27.096 161.561 27.24C162.201 27.368 162.832 27.432 163.456 27.432Z" fill="#333333"/>
<path d="M144.737 23.784C144.737 22.664 144.905 21.688 145.241 20.856C145.593 20.008 146.049 19.304 146.609 18.744C147.169 18.184 147.809 17.76 148.529 17.472C149.265 17.184 150.017 17.04 150.785 17.04C152.577 17.04 153.993 17.592 155.033 18.696C156.073 19.784 156.593 21.392 156.593 23.52C156.593 23.728 156.585 23.96 156.569 24.216C156.553 24.456 156.537 24.672 156.521 24.864H148.409C148.489 25.6 148.833 26.184 149.441 26.616C150.049 27.048 150.865 27.264 151.889 27.264C152.545 27.264 153.185 27.208 153.809 27.096C154.449 26.968 154.969 26.816 155.369 26.64L155.849 29.544C155.657 29.64 155.401 29.736 155.081 29.832C154.761 29.928 154.401 30.008 154.001 30.072C153.617 30.152 153.201 30.216 152.753 30.264C152.305 30.312 151.857 30.336 151.409 30.336C150.273 30.336 149.281 30.168 148.433 29.832C147.601 29.496 146.905 29.04 146.345 28.464C145.801 27.872 145.393 27.176 145.121 26.376C144.865 25.576 144.737 24.712 144.737 23.784ZM153.137 22.416C153.121 22.112 153.065 21.816 152.969 21.528C152.889 21.24 152.753 20.984 152.561 20.76C152.385 20.536 152.153 20.352 151.865 20.208C151.593 20.064 151.249 19.992 150.833 19.992C150.433 19.992 150.089 20.064 149.801 20.208C149.513 20.336 149.273 20.512 149.081 20.736C148.889 20.96 148.737 21.224 148.625 21.528C148.529 21.816 148.457 22.112 148.409 22.416H153.137Z" fill="#333333"/>
<path d="M141.495 30H137.919V17.376H141.495V30ZM141.831 13.728C141.831 14.384 141.615 14.904 141.183 15.288C140.767 15.656 140.271 15.84 139.695 15.84C139.119 15.84 138.615 15.656 138.183 15.288C137.767 14.904 137.559 14.384 137.559 13.728C137.559 13.072 137.767 12.56 138.183 12.192C138.615 11.808 139.119 11.616 139.695 11.616C140.271 11.616 140.767 11.808 141.183 12.192C141.615 12.56 141.831 13.072 141.831 13.728Z" fill="#333333"/>
<path d="M134.922 20.544C134.602 20.464 134.226 20.384 133.794 20.304C133.362 20.208 132.898 20.16 132.402 20.16C132.178 20.16 131.906 20.184 131.586 20.232C131.282 20.264 131.05 20.304 130.89 20.352V30H127.314V18.048C127.954 17.824 128.706 17.616 129.57 17.424C130.45 17.216 131.426 17.112 132.498 17.112C132.69 17.112 132.922 17.128 133.194 17.16C133.466 17.176 133.738 17.208 134.01 17.256C134.282 17.288 134.554 17.336 134.826 17.4C135.098 17.448 135.33 17.512 135.522 17.592L134.922 20.544Z" fill="#333333"/>
<path d="M124.064 23.664C124.064 24.656 123.92 25.568 123.632 26.4C123.344 27.216 122.928 27.92 122.384 28.512C121.84 29.088 121.184 29.536 120.416 29.856C119.664 30.176 118.816 30.336 117.872 30.336C116.944 30.336 116.096 30.176 115.328 29.856C114.576 29.536 113.928 29.088 113.384 28.512C112.84 27.92 112.416 27.216 112.112 26.4C111.808 25.568 111.656 24.656 111.656 23.664C111.656 22.672 111.808 21.768 112.112 20.952C112.432 20.136 112.864 19.44 113.408 18.864C113.968 18.288 114.624 17.84 115.376 17.52C116.144 17.2 116.976 17.04 117.872 17.04C118.784 17.04 119.616 17.2 120.368 17.52C121.136 17.84 121.792 18.288 122.336 18.864C122.88 19.44 123.304 20.136 123.608 20.952C123.912 21.768 124.064 22.672 124.064 23.664ZM120.416 23.664C120.416 22.56 120.192 21.696 119.744 21.072C119.312 20.432 118.688 20.112 117.872 20.112C117.056 20.112 116.424 20.432 115.976 21.072C115.528 21.696 115.304 22.56 115.304 23.664C115.304 24.768 115.528 25.648 115.976 26.304C116.424 26.944 117.056 27.264 117.872 27.264C118.688 27.264 119.312 26.944 119.744 26.304C120.192 25.648 120.416 24.768 120.416 23.664Z" fill="#333333"/>
<path d="M101.461 14.232L105.037 13.656V17.376H109.333V20.352H105.037V24.792C105.037 25.544 105.165 26.144 105.421 26.592C105.693 27.04 106.229 27.264 107.029 27.264C107.413 27.264 107.805 27.232 108.205 27.168C108.621 27.088 108.997 26.984 109.333 26.856L109.837 29.64C109.405 29.816 108.925 29.968 108.397 30.096C107.869 30.224 107.221 30.288 106.453 30.288C105.477 30.288 104.669 30.16 104.029 29.904C103.389 29.632 102.877 29.264 102.493 28.8C102.109 28.32 101.837 27.744 101.677 27.072C101.533 26.4 101.461 25.656 101.461 24.84V14.232Z" fill="#333333"/>
<path d="M88.5009 23.688C88.5009 22.776 88.6449 21.92 88.9329 21.12C89.2369 20.304 89.6689 19.6 90.2289 19.008C90.7889 18.4 91.4689 17.92 92.2689 17.568C93.0689 17.216 93.9809 17.04 95.0049 17.04C95.6769 17.04 96.2929 17.104 96.8529 17.232C97.4129 17.344 97.9569 17.512 98.4849 17.736L97.7409 20.592C97.4049 20.464 97.0369 20.352 96.6369 20.256C96.2369 20.16 95.7889 20.112 95.2929 20.112C94.2369 20.112 93.4449 20.44 92.9169 21.096C92.4049 21.752 92.1489 22.616 92.1489 23.688C92.1489 24.824 92.3889 25.704 92.8689 26.328C93.3649 26.952 94.2209 27.264 95.4369 27.264C95.8689 27.264 96.3329 27.224 96.8289 27.144C97.3249 27.064 97.7809 26.936 98.1969 26.76L98.7009 29.688C98.2849 29.864 97.7649 30.016 97.1409 30.144C96.5169 30.272 95.8289 30.336 95.0769 30.336C93.9249 30.336 92.9329 30.168 92.1009 29.832C91.2689 29.48 90.5809 29.008 90.0369 28.416C89.5089 27.824 89.1169 27.128 88.8609 26.328C88.6209 25.512 88.5009 24.632 88.5009 23.688Z" fill="#333333"/>
<path d="M80.1793 27.504C80.5313 27.504 80.8673 27.496 81.1873 27.48C81.5073 27.464 81.7633 27.44 81.9553 27.408V24.696C81.8113 24.664 81.5953 24.632 81.3073 24.6C81.0193 24.568 80.7553 24.552 80.5153 24.552C80.1793 24.552 79.8593 24.576 79.5553 24.624C79.2673 24.656 79.0113 24.728 78.7873 24.84C78.5633 24.952 78.3873 25.104 78.2593 25.296C78.1313 25.488 78.0673 25.728 78.0673 26.016C78.0673 26.576 78.2513 26.968 78.6193 27.192C79.0033 27.4 79.5233 27.504 80.1793 27.504ZM79.8913 17.04C80.9473 17.04 81.8273 17.16 82.5313 17.4C83.2353 17.64 83.7953 17.984 84.2113 18.432C84.6433 18.88 84.9473 19.424 85.1233 20.064C85.2993 20.704 85.3873 21.416 85.3873 22.2V29.64C84.8753 29.752 84.1633 29.88 83.2513 30.024C82.3393 30.184 81.2353 30.264 79.9393 30.264C79.1233 30.264 78.3793 30.192 77.7073 30.048C77.0513 29.904 76.4833 29.672 76.0033 29.352C75.5233 29.016 75.1553 28.584 74.8993 28.056C74.6433 27.528 74.5153 26.88 74.5153 26.112C74.5153 25.376 74.6593 24.752 74.9473 24.24C75.2513 23.728 75.6513 23.32 76.1473 23.016C76.6433 22.712 77.2113 22.496 77.8513 22.368C78.4913 22.224 79.1553 22.152 79.8433 22.152C80.3073 22.152 80.7153 22.176 81.0673 22.224C81.4353 22.256 81.7313 22.304 81.9553 22.368V22.032C81.9553 21.424 81.7713 20.936 81.4033 20.568C81.0353 20.2 80.3953 20.016 79.4833 20.016C78.8753 20.016 78.2753 20.064 77.6833 20.16C77.0913 20.24 76.5793 20.36 76.1473 20.52L75.6913 17.64C75.8993 17.576 76.1553 17.512 76.4593 17.448C76.7793 17.368 77.1233 17.304 77.4913 17.256C77.8593 17.192 78.2433 17.144 78.6433 17.112C79.0593 17.064 79.4753 17.04 79.8913 17.04Z" fill="#333333"/>
<path d="M61.92 30V13.368H73.056V16.512H65.664V19.992H72.24V23.136H65.664V30H61.92Z" fill="#333333"/>
<path d="M178.064 21.672C178.064 22.488 178.16 23.224 178.352 23.88C178.56 24.536 178.848 25.104 179.216 25.584C179.6 26.048 180.064 26.408 180.608 26.664C181.152 26.92 181.776 27.048 182.48 27.048C183.168 27.048 183.784 26.92 184.328 26.664C184.888 26.408 185.352 26.048 185.72 25.584C186.104 25.104 186.392 24.536 186.584 23.88C186.792 23.224 186.896 22.488 186.896 21.672C186.896 20.856 186.792 20.12 186.584 19.464C186.392 18.792 186.104 18.224 185.72 17.76C185.352 17.28 184.888 16.912 184.328 16.656C183.784 16.4 183.168 16.272 182.48 16.272C181.776 16.272 181.152 16.408 180.608 16.68C180.064 16.936 179.6 17.304 179.216 17.784C178.848 18.248 178.56 18.816 178.352 19.488C178.16 20.144 178.064 20.872 178.064 21.672ZM190.76 21.672C190.76 22.84 190.616 23.896 190.328 24.84C190.04 25.768 189.632 26.584 189.104 27.288C188.592 27.992 187.976 28.576 187.256 29.04C186.536 29.504 185.744 29.84 184.88 30.048C184.96 30.368 185.136 30.624 185.408 30.816C185.68 31.024 186.024 31.192 186.44 31.32C186.856 31.448 187.336 31.544 187.88 31.608C188.44 31.672 189.04 31.728 189.68 31.776L188.912 34.512C187.664 34.464 186.592 34.336 185.696 34.128C184.816 33.936 184.064 33.664 183.44 33.312C182.832 32.96 182.344 32.528 181.976 32.016C181.624 31.504 181.352 30.912 181.16 30.24C180.168 30.112 179.248 29.84 178.4 29.424C177.552 28.992 176.816 28.416 176.192 27.696C175.568 26.976 175.08 26.112 174.728 25.104C174.376 24.096 174.2 22.952 174.2 21.672C174.2 20.248 174.424 19 174.872 17.928C175.32 16.84 175.92 15.928 176.672 15.192C177.44 14.456 178.32 13.904 179.312 13.536C180.32 13.168 181.376 12.984 182.48 12.984C183.616 12.984 184.688 13.168 185.696 13.536C186.704 13.904 187.584 14.456 188.336 15.192C189.088 15.928 189.68 16.84 190.112 17.928C190.544 19 190.76 20.248 190.76 21.672Z" fill="#BD7ACC"/>
<path d="M178.064 21.672C178.064 22.488 178.16 23.224 178.352 23.88C178.56 24.536 178.848 25.104 179.216 25.584C179.6 26.048 180.064 26.408 180.608 26.664C181.152 26.92 181.776 27.048 182.48 27.048C183.168 27.048 183.784 26.92 184.328 26.664C184.888 26.408 185.352 26.048 185.72 25.584C186.104 25.104 186.392 24.536 186.584 23.88C186.792 23.224 186.896 22.488 186.896 21.672C186.896 20.856 186.792 20.12 186.584 19.464C186.392 18.792 186.104 18.224 185.72 17.76C185.352 17.28 184.888 16.912 184.328 16.656C183.784 16.4 183.168 16.272 182.48 16.272C181.776 16.272 181.152 16.408 180.608 16.68C180.064 16.936 179.6 17.304 179.216 17.784C178.848 18.248 178.56 18.816 178.352 19.488C178.16 20.144 178.064 20.872 178.064 21.672ZM190.76 21.672C190.76 22.84 190.616 23.896 190.328 24.84C190.04 25.768 189.632 26.584 189.104 27.288C188.592 27.992 187.976 28.576 187.256 29.04C186.536 29.504 185.744 29.84 184.88 30.048C184.96 30.368 185.136 30.624 185.408 30.816C185.68 31.024 186.024 31.192 186.44 31.32C186.856 31.448 187.336 31.544 187.88 31.608C188.44 31.672 189.04 31.728 189.68 31.776L188.912 34.512C187.664 34.464 186.592 34.336 185.696 34.128C184.816 33.936 184.064 33.664 183.44 33.312C182.832 32.96 182.344 32.528 181.976 32.016C181.624 31.504 181.352 30.912 181.16 30.24C180.168 30.112 179.248 29.84 178.4 29.424C177.552 28.992 176.816 28.416 176.192 27.696C175.568 26.976 175.08 26.112 174.728 25.104C174.376 24.096 174.2 22.952 174.2 21.672C174.2 20.248 174.424 19 174.872 17.928C175.32 16.84 175.92 15.928 176.672 15.192C177.44 14.456 178.32 13.904 179.312 13.536C180.32 13.168 181.376 12.984 182.48 12.984C183.616 12.984 184.688 13.168 185.696 13.536C186.704 13.904 187.584 14.456 188.336 15.192C189.088 15.928 189.68 16.84 190.112 17.928C190.544 19 190.76 20.248 190.76 21.672Z" fill="url(#paint0_linear_77_19)"/>
<path d="M178.064 21.672C178.064 22.488 178.16 23.224 178.352 23.88C178.56 24.536 178.848 25.104 179.216 25.584C179.6 26.048 180.064 26.408 180.608 26.664C181.152 26.92 181.776 27.048 182.48 27.048C183.168 27.048 183.784 26.92 184.328 26.664C184.888 26.408 185.352 26.048 185.72 25.584C186.104 25.104 186.392 24.536 186.584 23.88C186.792 23.224 186.896 22.488 186.896 21.672C186.896 20.856 186.792 20.12 186.584 19.464C186.392 18.792 186.104 18.224 185.72 17.76C185.352 17.28 184.888 16.912 184.328 16.656C183.784 16.4 183.168 16.272 182.48 16.272C181.776 16.272 181.152 16.408 180.608 16.68C180.064 16.936 179.6 17.304 179.216 17.784C178.848 18.248 178.56 18.816 178.352 19.488C178.16 20.144 178.064 20.872 178.064 21.672ZM190.76 21.672C190.76 22.84 190.616 23.896 190.328 24.84C190.04 25.768 189.632 26.584 189.104 27.288C188.592 27.992 187.976 28.576 187.256 29.04C186.536 29.504 185.744 29.84 184.88 30.048C184.96 30.368 185.136 30.624 185.408 30.816C185.68 31.024 186.024 31.192 186.44 31.32C186.856 31.448 187.336 31.544 187.88 31.608C188.44 31.672 189.04 31.728 189.68 31.776L188.912 34.512C187.664 34.464 186.592 34.336 185.696 34.128C184.816 33.936 184.064 33.664 183.44 33.312C182.832 32.96 182.344 32.528 181.976 32.016C181.624 31.504 181.352 30.912 181.16 30.24C180.168 30.112 179.248 29.84 178.4 29.424C177.552 28.992 176.816 28.416 176.192 27.696C175.568 26.976 175.08 26.112 174.728 25.104C174.376 24.096 174.2 22.952 174.2 21.672C174.2 20.248 174.424 19 174.872 17.928C175.32 16.84 175.92 15.928 176.672 15.192C177.44 14.456 178.32 13.904 179.312 13.536C180.32 13.168 181.376 12.984 182.48 12.984C183.616 12.984 184.688 13.168 185.696 13.536C186.704 13.904 187.584 14.456 188.336 15.192C189.088 15.928 189.68 16.84 190.112 17.928C190.544 19 190.76 20.248 190.76 21.672Z" fill="#017931"/>
<path fill-rule="evenodd" clip-rule="evenodd" d="M41.3183 22.9729C41.3266 22.9175 41.3337 22.8614 41.3394 22.8047C41.6922 19.3123 41.1539 15.7635 39.7434 12.5003C37.7843 7.96787 34.2711 4.284 29.8367 2.11218C25.4024 -0.0596468 20.3382 -0.576671 15.5564 0.654231C10.7746 1.88513 6.5895 4.78305 3.75488 8.82602C0.920269 12.869 -0.37753 17.7913 0.0952426 22.7063C0.568016 27.6213 2.78029 32.2059 6.33358 35.6344C9.88688 39.0629 14.5476 41.11 19.4764 41.4068C22.6469 41.5978 25.7943 41.0564 28.6848 39.8534L33.0039 38.1671C33.0039 38.1671 34.4482 39.8726 35.7514 40.6498C36.7114 41.2223 41.4782 43.7069 45.0863 40.0209C49.6876 35.3203 46.3111 30.5536 46.3111 30.5536C46.3111 30.5536 45.5498 29.044 44.2257 28.0709C43.1307 27.2661 41.0809 26.5813 41.0809 26.5813L41.3183 22.9729ZM37.0151 25.7266C37.1114 25.7454 37.2076 25.7607 37.3038 25.7724C37.396 25.7906 37.4925 25.8139 37.5957 25.8465C38.4989 26.1313 39.7899 26.8792 39.7899 26.8792C39.7899 26.8792 38.7936 30.5495 37.4728 32.5397C36.1383 34.5504 33.1032 36.9092 33.1032 36.9092C33.1032 36.9092 31.9299 36.0852 31.4812 35.3203C31.4286 35.2306 31.377 35.1453 31.3262 35.0639C31.1898 34.6809 30.9925 34.3104 30.7342 33.9686C29.3629 32.1544 26.7804 31.8752 24.6199 32.5851C23.1337 33.0734 21.5574 33.2819 19.9715 33.1864C17.0015 33.0075 14.193 31.774 12.0518 29.708C9.91068 27.6421 8.5776 24.8794 8.29271 21.9177C8.00783 18.9561 8.78986 15.99 10.498 13.5537C12.206 11.1175 14.7279 9.37126 17.6094 8.62954C20.4908 7.88782 23.5424 8.19937 26.2145 9.50808C28.8866 10.8168 31.0035 13.0366 32.1841 15.7678C32.8145 17.2262 33.1557 18.7792 33.2032 20.3428C33.2594 22.1916 34.026 24.08 35.4794 25.0813C35.6775 25.228 35.9533 25.4177 36.185 25.523C36.4755 25.655 36.7158 25.6869 36.967 25.7202C36.983 25.7223 36.999 25.7245 37.0151 25.7266Z" fill="#017931"/>
<defs>
<linearGradient id="paint0_linear_77_19" x1="256.817" y1="15.5904" x2="50.8661" y2="121.665" gradientUnits="userSpaceOnUse">
<stop stop-color="#BF7BCC"/>
<stop offset="1" stop-color="#1306E2"/>
</linearGradient>
</defs>
</svg>
