<svg width="23" height="35" fill="none" xmlns="http://www.w3.org/2000/svg"><path d="M1.583 35h19.834c.644 0 1.166-.522 1.166-1.167v-1.75a7.008 7.008 0 00-7-7h-.927a4.475 4.475 0 01-.93-3.024c.394-.195.774-.414 1.14-.657.835 1.708 2.751 2.648 5.43 2.648.244 0 .495-.008.753-.024a1.15 1.15 0 00.92-.577A1.18 1.18 0 0022 22.336c-.427-.872-.318-2.062-.18-3.568.21-2.29.473-5.14-1.024-8.506a7.854 7.854 0 00-2.563-3.171l1.135-3.687a1.737 1.737 0 00-.916-2.09A16.333 16.333 0 0011.5 0a16.323 16.323 0 00-6.946 1.314 1.738 1.738 0 00-.92 2.09l1.139 3.701a7.817 7.817 0 00-2.545 3.158C.732 13.628.994 16.48 1.205 18.768c.138 1.507.247 2.696-.178 3.564-.179.354-.168.773.028 1.118.192.335.54.552.924.576.257.016.508.024.752.024 2.676 0 4.592-.94 5.425-2.65.358.238.73.454 1.115.646a4.506 4.506 0 01-.927 3.037h-.927a7.008 7.008 0 00-7 7v1.75A1.167 1.167 0 001.583 35zm15.214-8.621l-3.23 4.32a.546.546 0 01-.825.058l-.502-.507 2.5-4h.843c.408 0 .815.044 1.214.129zM6.56 17.867a.583.583 0 00-.681-.386.916.916 0 01-.2.02 1.167 1.167 0 010-2.333.583.583 0 00.584-.583V12.86c1.553-.059 3.725-.35 4.92-1.451.12-.113.23-.236.33-.368.1.132.21.255.33.368 1.195 1.1 3.368 1.392 4.92 1.45v1.724c0 .322.261.584.583.584a1.167 1.167 0 110 2.333.91.91 0 01-.199-.021.583.583 0 00-.68.386c-.72 2.177-4.055 3.718-4.954 3.718-.9 0-4.233-1.54-4.953-3.716zm13.168-7.13c1.374 3.088 1.127 5.771.93 7.924-.149 1.622-.277 3.023.315 4.2-1.596.098-4.309-.074-5.148-2.188a6.14 6.14 0 001.577-2.006 2.333 2.333 0 00.525-4.592v-1.21c.358-.01.592-.028.632-.032a.583.583 0 10-.097-1.162c-1.175.095-4.521.085-5.833-1.122a1.575 1.575 0 01-.533-1.205c1.539.017 3.062.31 4.497.867h.006c.148.06.293.129.433.205a.583.583 0 00.599-1.002 6.101 6.101 0 00-.102-.058l.335-1.085a6.737 6.737 0 011.864 2.466zM5.045 2.372A15.295 15.295 0 0111.5 1.167a15.31 15.31 0 016.459 1.206.576.576 0 01.291.687l-1.8 5.846a15.267 15.267 0 00-4.95-.74 15.267 15.267 0 00-4.95.74L4.747 3.06a.576.576 0 01.297-.688zM2.07 22.847c.57-1.167.443-2.567.292-4.187-.195-2.152-.44-4.835.933-7.923A6.691 6.691 0 015.138 8.29l.33 1.07a.857.857 0 00-.102.059.583.583 0 00.599 1.001c.017-.01 1.691-.971 4.964-1.074a1.57 1.57 0 01-.535 1.205c-1.31 1.207-4.657 1.218-5.833 1.121a.583.583 0 00-.097 1.161c.04.004.275.022.632.032v1.21a2.333 2.333 0 00.528 4.592A6.14 6.14 0 007.2 20.67c-.837 2.117-3.55 2.29-5.127 2.178l-.002-.002zm9.443-.097a3.75 3.75 0 001.057-.214 5.453 5.453 0 001.113 3.201L11.5 29.233l-2.184-3.495a5.475 5.475 0 001.114-3.208c.348.126.713.2 1.083.22zm-3.253 3.5l2.5 4-.5.505a.546.546 0 01-.824-.054L6.203 26.38a5.82 5.82 0 011.214-.129h.843zm-6.677 5.833a5.838 5.838 0 013.45-5.318l3.47 4.638a1.713 1.713 0 002.583.175l.414-.418.416.419c.322.322.758.504 1.214.504.039 0 .079 0 .116-.004a1.715 1.715 0 001.252-.68l3.467-4.636a5.838 5.838 0 013.452 5.32v1.75H1.583v-1.75z" fill="#303030"/><path d="M9.75 5.25h1.167v1.167a.583.583 0 001.166 0V5.25h1.167a.583.583 0 100-1.167h-1.167V2.917a.583.583 0 00-1.166 0v1.166H9.75a.583.583 0 100 1.167zm9.917 25.083h-.584v-.583a.583.583 0 10-1.166 0v.583h-.584a.583.583 0 100 1.167h.584v.583a.583.583 0 101.166 0V31.5h.584a.583.583 0 000-1.167z" fill="#303030"/></svg>