<svg width="35" height="35" fill="none" xmlns="http://www.w3.org/2000/svg"><g clip-path="url(#clip0)" fill="#303030"><path d="M28.354 12.249c-3.334 0-6.708 1.002-6.708 2.917v6.417c.002.672.296 1.311.806 1.75a2.319 2.319 0 00-.806 1.75v5.25a29.69 29.69 0 01-6.968-.645 4.674 4.674 0 002.3-4.022c0-2.683-1.907-4.083-3.791-4.083s-3.792 1.4-3.792 4.083a4.566 4.566 0 002.328 4.062c-1.33.366-2.7.57-4.078.605-2.882 0-4.929-.734-5.615-2.015a2.508 2.508 0 01.136-2.365 2.887 2.887 0 002.013.384 2.897 2.897 0 001.883-1.196l3.803-5.425 4.35-6.208c.005-.007.006-.016.01-.023a.568.568 0 00.072-.164l.012-.04c.003-.014.005-.015.005-.022l.434-2.914 4.276-6.106a.106.106 0 01.148-.025l1.132.79 2.255 1.586c.325.23.711.353 1.109.356.116 0 .232-.011.347-.033a1.926 1.926 0 001.276-.803c.62-.889.405-2.11-.48-2.734l-2.256-1.584L20.86.603a3.348 3.348 0 00-4.653.817L11.54 8.083l-2.59 1.4c-.008.004-.014.011-.022.016l-.034.025a.548.548 0 00-.125.119c-.006.007-.014.011-.02.018l-1.643 2.345-.087-.058a.584.584 0 10-.67.955l.088.061-5.847 8.34a2.917 2.917 0 00.614 3.976 3.684 3.684 0 00-.201 3.59c.908 1.696 3.268 2.63 6.643 2.63a16.898 16.898 0 005.56-1.05c2.61.972 5.981 1.043 8.44 1.05v1.166A2.333 2.333 0 0023.98 35h8.75a2.333 2.333 0 002.334-2.334v-7.583a2.317 2.317 0 00-.806-1.75c.51-.439.804-1.078.806-1.75v-6.417c0-1.915-3.375-2.917-6.709-2.917zM5.35 16.545a2.158 2.158 0 011.78-.926 2.176 2.176 0 11-1.785.928l.005-.002zm3.698-1.489a3.318 3.318 0 00-2.253-.573l2.573-3.671 3.559 2.496-2.573 3.67a3.304 3.304 0 00-1.308-1.922h.002zm2.85-5.84l1.667 1.166-.26 1.763-2.97-2.082 1.562-.848zm12.57-4.376a.788.788 0 01-.652.918.757.757 0 01-.584-.13l-.792-.554c.235-.14.439-.329.597-.553.156-.225.264-.48.315-.75l.792.556c.173.121.29.307.324.516V4.84zm-7.306-2.748a2.177 2.177 0 013.03-.533l1.69 1.188a.795.795 0 11-.912 1.302l-1.127-.792a1.277 1.277 0 00-1.773.312l-4.02 5.733-1.303-.913 4.413-6.297zM1.545 21.974l2.352-3.357a3.33 3.33 0 003.228 2.515 3.1 3.1 0 00.333-.02L5.105 24.47a1.75 1.75 0 01-2.436.429l-.695-.486a1.748 1.748 0 01-.429-2.438zm11.646 7.21c-1.769-.776-2.63-1.931-2.63-3.518 0-2.004 1.362-2.917 2.626-2.917a2.568 2.568 0 011.8.71 2.98 2.98 0 01.825 2.207c0 1.517-.882 2.7-2.621 3.517zm20.302-14.602H23.215c.773-.59 2.615-1.166 5.14-1.166 2.524 0 4.366.576 5.138 1.166zm-10.68 12.25h2.916c.322 0 .583.262.583.584v2.917a.583.583 0 01-.583.584h-2.917v-4.084zm11.083 4.084H30.98a.583.583 0 01-.584-.583v-2.917c0-.322.261-.583.584-.583h2.916v4.084zm0-5.833v.583H30.98a1.75 1.75 0 00-1.75 1.75v2.917c0 .967.783 1.75 1.75 1.75h2.916v.584c0 .644-.522 1.166-1.167 1.166h-8.75a1.167 1.167 0 01-1.167-1.166v-.584h2.917a1.75 1.75 0 001.75-1.75v-2.917a1.75 1.75 0 00-1.75-1.75h-2.917v-.583c0-.645.523-1.167 1.167-1.167h8.75c.645 0 1.167.522 1.167 1.167zm-9.917-2.334a1.167 1.167 0 01-1.167-1.166v-5.834h11.084v5.834c0 .644-.522 1.166-1.167 1.166h-8.75z"/><path d="M25.146 16.916h-.584a.583.583 0 100 1.166h.584a.583.583 0 100-1.166zm5.834 0h-3.5a.583.583 0 100 1.166h3.5a.583.583 0 000-1.166zM25.73 28a.583.583 0 00-1.168 0v1.75a.583.583 0 101.167 0V28zm5.25 1.75a.583.583 0 001.166 0V28a.583.583 0 00-1.166 0v1.75zM25.407 7.643a.578.578 0 00-.768.251.592.592 0 00.233.786c.035.02.857.513.857 2.402a.583.583 0 101.167 0c0-2.618-1.337-3.362-1.49-3.439zm4.789-4.09a.583.583 0 00-.825 0c-1.318 1.318-2.242 1.112-2.304 1.092a.584.584 0 00-.355 1.109c.186.055.38.082.575.078.623 0 1.683-.23 2.909-1.459a.583.583 0 000-.82zm-.757 5.301a.584.584 0 00.262-1.106l-2.544-1.271a.583.583 0 10-.522 1.044l2.543 1.27a.59.59 0 00.26.063z"/></g><defs><clipPath id="clip0"><path fill="#fff" d="M0 0h35v35H0z"/></clipPath></defs></svg>