<svg width="35" height="35" fill="none" xmlns="http://www.w3.org/2000/svg"><path d="M32.882 14.64H25.95a.636.636 0 100 1.272h5.79l1.844 17.177H1.443l2.165-17.177h5.8a.635.635 0 100-1.272H2.486L0 34.361h35l-2.118-19.72z" fill="#303030"/><path d="M16.956 24.79c-.093.056-.193.105-.283.162-.14.09-.276.185-.41.283a.637.637 0 00.753 1.027 6.864 6.864 0 01.993-.611.632.632 0 00.294-.807c.005-.006.012-.01.016-.014 1.15-1.22 5.029-5.787 6.635-13.397.325-1.543.398-3.024.217-4.401-.547-4.183-3.146-6.395-7.515-6.395-4.368 0-6.966 2.212-7.515 6.395-.18 1.377-.107 2.858.218 4.401 1.59 7.536 5.407 12.086 6.597 13.357zM11.403 7.198c.466-3.558 2.512-5.288 6.254-5.288 3.742 0 5.788 1.73 6.253 5.288.163 1.234.095 2.572-.2 3.974-1.444 6.84-4.886 11.181-6.053 12.498-1.169-1.318-4.61-5.66-6.053-12.498-.295-1.402-.363-2.74-.201-3.974z" fill="#303030"/><path d="M17.657 12.676a4.678 4.678 0 004.673-4.674 4.678 4.678 0 00-4.673-4.673 4.678 4.678 0 00-4.674 4.673 4.678 4.678 0 004.674 4.674zm0-8.074a3.405 3.405 0 013.4 3.401c0 1.875-1.525 3.4-3.4 3.4a3.405 3.405 0 01-3.401-3.4 3.405 3.405 0 013.4-3.401zm2.337 19.044a.636.636 0 10.265 1.245c.373-.08.777-.146 1.2-.2a.635.635 0 00.553-.709.63.63 0 00-.71-.553c-.46.057-.9.13-1.308.217zm3.289.259a.636.636 0 00.635.608h.028l1.273-.053a.636.636 0 00.606-.664.652.652 0 00-.664-.607l-1.27.053a.635.635 0 00-.608.663zm-9.012 2.927a17.46 17.46 0 01-1.005.704.636.636 0 00.693 1.067 18.67 18.67 0 001.079-.755.637.637 0 00-.767-1.016zm14.179-4.195c-.216.15-.495.26-.857.334a.636.636 0 10.258 1.247c.535-.111.97-.288 1.333-.543l.085-.062a.637.637 0 00-.767-1.015l-.053.039zM5.636 27.61a.635.635 0 10-1.227-.331 4.254 4.254 0 00-.13 1.492.636.636 0 001.266-.13 2.54 2.54 0 01-.008-.406c.01-.206.043-.417.1-.624zm22.799-9.918a3.74 3.74 0 00-1.517.115.636.636 0 00.345 1.224 2.49 2.49 0 011.002-.078.636.636 0 00.17-1.261zm1.266 3.151a.636.636 0 001.215.376 2.714 2.714 0 00.122-.772 2.54 2.54 0 00-.162-.886.637.637 0 00-1.193.443c.055.147.083.297.083.442l-.002.075a1.437 1.437 0 01-.063.322zM11.12 28.732c-.372.175-.752.337-1.128.483a.636.636 0 10.459 1.187c.404-.156.811-.33 1.21-.517a.636.636 0 10-.54-1.153zm-4.63-2.648a.636.636 0 00.304-.078c.183-.1.378-.162.58-.184.085-.01.173-.01.257.001a.636.636 0 10.167-1.26 2.35 2.35 0 00-.567-.006c-.365.04-.717.152-1.047.332a.635.635 0 00.306 1.195zm-.133 4.988c.138.035.278.062.416.079.163.02.326.03.49.03.199 0 .398-.015.597-.04a.636.636 0 10-.159-1.262c-.257.033-.516.04-.773.01a2.117 2.117 0 01-.25-.048.637.637 0 00-.32 1.231z" fill="#303030"/></svg>