<svg width="35" height="35" fill="none" xmlns="http://www.w3.org/2000/svg"><path d="M34.903 9.02a.583.583 0 00-.561-.261 3.65 3.65 0 01-.439.027 5.984 5.984 0 01-2.93-.856 24.689 24.689 0 01-2.933-1.884l-.424-.305a15.354 15.354 0 00-2.139-1.375c-.364-.182-1.22-.608-1.98-.188-.36.23-.636.571-.788.97l-.027.057a7.46 7.46 0 01-.546.931 10.27 10.27 0 01-2.886 2.747V7.771a4.083 4.083 0 10-3.5 0v1.112a10.27 10.27 0 01-2.886-2.748 7.414 7.414 0 01-.546-.93l-.027-.056c-.152-.4-.428-.74-.788-.971-.76-.419-1.615.006-1.98.188-.751.399-1.467.86-2.14 1.376l-.422.304a24.72 24.72 0 01-2.934 1.883 6.34 6.34 0 01-2.914.857 4.59 4.59 0 01-.455-.027.583.583 0 00-.572.879c.03.05 2.47 4.016 6.634 4.016a7.532 7.532 0 003.167-.739c.754.399 2.805 1.138 5.863-.29v5.182l-2.026-.543.028-.017a1.753 1.753 0 00-1.836-2.988l-1.185.73a2.91 2.91 0 00.206 5.08 2.91 2.91 0 00.187 5.49 2.915 2.915 0 00.17 5.34l4.745 1.9.94 1.879c.098.197.3.322.52.322h.001a.584.584 0 00.522-.323l.932-1.87L23.71 30.9a2.914 2.914 0 00.172-5.34 2.91 2.91 0 00.187-5.491 2.911 2.911 0 00.205-5.08l-1.19-.733a1.753 1.753 0 00-1.828 2.993l.025.015-2.031.545v-5.184c3.058 1.429 5.108.688 5.863.29.989.474 2.07.726 3.167.739 4.164 0 6.604-3.966 6.634-4.016a.583.583 0 00-.011-.619zm-23.89 3.1a2.37 2.37 0 00.655-1.616.583.583 0 10-1.167 0 1.583 1.583 0 01-.845 1.228c-3.955 1.979-6.727-.41-7.92-1.815a8.188 8.188 0 002.829-.952 25.818 25.818 0 003.073-1.97l.429-.308a14.546 14.546 0 011.975-1.277c.167-.082.675-.332.9-.21.133.128.236.285.3.46l.029.058c.184.374.395.734.631 1.077a11.79 11.79 0 003.848 3.46v1.064c-2.265 1.207-3.872 1.067-4.737.802zm-.768 10.646c0-.788.531-1.478 1.294-1.679l1.46-.391 2.253.603-3.408.913a.583.583 0 00-.008 1.125l3.516.99-2.16.608-1.673-.47a1.74 1.74 0 01-1.274-1.699zm7.261-.863l3.307.886-3.309.931-3.304-.931 3.306-.886zm5.394-3.866a.583.583 0 00.152-1.062l-1.186-.72a.587.587 0 01.612-1.002l1.183.728a1.753 1.753 0 01-.457 3.187l-1.192.32-2.258-.608 3.146-.843zm-1.08 2.607l.007.002 1.638.44a1.74 1.74 0 011.296 1.68 1.74 1.74 0 01-1.271 1.7l-11.275 3.166a.583.583 0 00-.058 1.103l5.13 2.052c.008.003.015.002.022.004a.58.58 0 00.197.038h.006a.57.57 0 00.066-.014.57.57 0 00.145-.028l5.126-2.052a.584.584 0 00-.059-1.103l-3.13-.88 2.158-.606 1.287.364a1.748 1.748 0 01.173 3.306l-4.915 1.972c-.01.003-.019.01-.029.014a.577.577 0 00-.124.061c-.014.01-.026.022-.04.033a.574.574 0 00-.089.087c-.01.012-.018.026-.027.04a.556.556 0 00-.044.063l-.51 1.025-.516-1.031a.562.562 0 00-.054-.068.377.377 0 00-.177-.164.556.556 0 00-.075-.05l-4.954-1.983a1.748 1.748 0 01.178-3.306l5.786-1.629h.004l5.478-1.543a.584.584 0 00-.007-1.125l-11.36-3.044a1.753 1.753 0 01-.46-3.186l1.179-.726a.587.587 0 11.621.996l-1.19.723a.583.583 0 00.152 1.062l5.245 1.406a.604.604 0 00.037.008l4.432 1.193zm-4.317 6.714l3.317.933-3.314 1.327-3.32-1.329 3.317-.93zm-.586-9.239V8.124c.386.062.78.062 1.166 0v9.997l-.58.155-.586-.157zM17.5 7.005a2.916 2.916 0 110-5.832 2.916 2.916 0 010 5.832zm7.845 4.728a1.587 1.587 0 01-.846-1.23.583.583 0 10-1.167 0 2.37 2.37 0 00.655 1.618c-.867.266-2.473.404-4.737-.802v-1.064a11.79 11.79 0 003.847-3.459c.237-.343.448-.704.632-1.078l.03-.058c.063-.175.166-.332.3-.46.226-.121.733.127.899.21.691.371 1.352.798 1.974 1.275l.43.31a25.788 25.788 0 003.073 1.97 8.192 8.192 0 002.832.952c-1.186 1.408-3.952 3.8-7.922 1.816z" fill="#303030"/></svg>