<svg width="575" height="3600" viewBox="0 0 575 3600" fill="none" xmlns="http://www.w3.org/2000/svg">
<g clip-path="url(#clip0_374_3690)">
<rect width="575" height="3600" fill="#EDE2D9"/>
<path style="mix-blend-mode:color-dodge" d="M-478.522 2850.67C242.93 2309.67 1661.33 3207.66 2357.5 2365.57L2487.67 2623.52L32.2297 3862.72L-478.522 2850.67Z" fill="url(#paint0_radial_374_3690)"/>
<g style="mix-blend-mode:color-dodge">
<path d="M-45.7143 2682.19C2.26589 2677.59 50.0773 2672.23 98.0385 2669.69C145.989 2666.98 193.926 2666.13 241.804 2666.53C337.559 2667.4 432.91 2673.33 527.928 2681.26C717.974 2697.22 906.843 2721.25 1097.17 2736.04C1192.32 2743.44 1287.89 2748.56 1383.8 2748.74C1479.69 2748.87 1576.04 2744.05 1671.77 2730.5C1767.39 2716.95 1862.51 2694.46 1953.34 2659.3C1998.77 2641.83 2042.92 2620.85 2085.28 2596.88C2127.53 2572.69 2167.9 2545.29 2205.46 2514.63C2128.19 2573.28 2042.45 2620.78 1951.97 2655.63C1861.49 2690.64 1766.73 2713.12 1671.36 2726.65C1575.88 2740.21 1479.72 2745.03 1383.99 2744.93C1288.21 2744.79 1192.75 2739.67 1097.66 2732.32C907.444 2717.6 718.589 2693.6 528.427 2677.7C433.351 2669.79 337.886 2663.86 242 2663.02C194.079 2662.61 146.056 2663.5 97.9904 2666.2C49.9785 2669.07 1.81728 2672.8 -45.7434 2682.2L-45.7143 2682.19Z" fill="url(#paint1_linear_374_3690)"/>
</g>
<path style="mix-blend-mode:multiply" opacity="0.5" d="M-56.1089 3359.56L-111.963 3248.89C-111.963 3248.89 226.957 2776.07 1073.37 2841.34C753.667 2878.6 403.594 2983.07 -56.1089 3359.56Z" fill="url(#paint2_linear_374_3690)" fill-opacity="0.9"/>
<g style="mix-blend-mode:color-dodge">
<path d="M39.2747 3103.24C45.3227 3099.33 51.2593 3095.28 57.2097 3091.25C63.076 3087.13 69.0675 3083.19 75.0452 3079.21L92.838 3067.16L110.825 3055.42L119.818 3049.56L128.964 3043.92L147.255 3032.64C159.64 3025.4 172.051 3018.21 184.573 3011.25C234.867 2983.65 287.062 2959.52 340.497 2938.87C393.92 2918.12 448.494 2900.3 503.997 2886.41C510.889 2884.47 517.859 2882.9 524.815 2881.3L545.699 2876.45C552.669 2874.88 559.615 2873.12 566.609 2871.74L587.619 2867.65C615.578 2861.66 643.835 2858.28 671.798 2851.51C643.353 2853.71 615.085 2858.15 587.005 2863.83L565.911 2867.82C558.874 2869.19 551.914 2870.93 544.917 2872.45L523.949 2877.2C516.936 2878.76 509.953 2880.3 503.046 2882.22L461.421 2893.19L420.136 2905.57C406.413 2909.87 392.88 2914.68 379.238 2919.21C372.411 2921.43 365.677 2923.98 358.942 2926.52L338.74 2934.16C285.112 2955.08 232.783 2979.44 182.367 3007.31C169.815 3014.36 157.359 3021.6 144.96 3028.88L126.608 3040.26L117.447 3045.94L108.452 3051.88L90.49 3063.81C84.5534 3067.86 78.7831 3072.18 72.9579 3076.38C61.251 3084.74 50.2414 3093.98 39.2473 3103.18L39.2747 3103.24Z" fill="url(#paint3_linear_374_3690)"/>
</g>
<path style="mix-blend-mode:color-dodge" d="M2688.06 2350.57C1586.16 3239.05 1131.97 2377.64 -70.8357 3374.36L141.449 3795L2757.28 2474.86L2688.08 2350.59L2688.06 2350.57Z" fill="url(#paint4_radial_374_3690)"/>
<g style="mix-blend-mode:color-dodge">
<path d="M1707.68 2795.3C1644.68 2801.91 1581.68 2807.09 1518.63 2811.21C1455.56 2815.3 1392.49 2818.16 1329.42 2821.47C1203.32 2827.99 1076.78 2837.13 951.554 2859.32C888.954 2870.34 826.786 2884.45 765.498 2902.04C704.197 2919.6 643.806 2940.63 584.635 2964.72C525.478 2988.85 467.556 3016.07 410.983 3045.74C354.532 3075.73 299.446 3108.14 245.456 3142.21C299.599 3108.37 354.808 3076.21 411.34 3046.45C468.009 3016.96 526.051 2990.13 585.162 2966.13C644.302 2942.12 704.648 2921.22 765.918 2903.74C827.146 2886.24 889.284 2872.22 951.794 2861.31C1076.91 2839.32 1203.31 2830.35 1329.4 2824.04C1392.48 2820.83 1455.56 2818.06 1518.67 2814.05C1581.76 2810.05 1644.9 2804.66 1707.69 2795.25L1707.68 2795.3Z" fill="url(#paint5_linear_374_3690)"/>
</g>
<path style="mix-blend-mode:color-dodge" d="M2651.77 2445.21C1581.94 3202.15 1281.04 2641.96 110.142 3487.26L248.733 3761.88L2698.4 2525.6L2651.76 2445.18L2651.77 2445.21Z" fill="url(#paint6_radial_374_3690)"/>
<g style="mix-blend-mode:color-dodge">
<path d="M988.556 3134.43C978.285 3137.19 968 3139.99 957.781 3143L942.432 3147.47L934.757 3149.74L927.19 3152.3L896.905 3162.64L881.795 3167.94L866.847 3173.71L836.966 3185.21C827.014 3189.11 817.238 3193.43 807.382 3197.51L792.624 3203.73L785.231 3206.85L777.947 3210.18L748.813 3223.52C739.037 3227.84 729.55 3232.73 719.938 3237.45C710.409 3242.26 700.728 3246.83 691.268 3251.78C672.472 3261.91 653.413 3271.6 634.988 3282.47C597.725 3303.39 561.593 3326.26 526.269 3350.23C490.875 3374.13 456.747 3399.75 423.638 3426.59C390.559 3453.42 358.61 3481.62 328.052 3511.13C297.507 3540.67 268.494 3571.66 241.033 3603.84C227.393 3620 214.036 3636.36 201.342 3653.25C188.634 3670.1 176.394 3687.23 165.283 3705.15C164.821 3705.9 165.043 3706.84 165.794 3707.25C166.545 3707.65 167.542 3707.39 168.004 3706.64L168.033 3706.63C179.052 3688.96 191.392 3671.88 204.097 3655.16C216.817 3638.41 230.199 3622.17 243.851 3606.1C271.337 3574.11 300.501 3543.43 330.914 3513.99C361.356 3484.53 393.173 3456.43 426.165 3429.65C459.142 3402.91 493.169 3377.31 528.448 3353.47C563.656 3329.56 599.671 3306.74 636.833 3285.84C655.201 3275 674.187 3265.31 692.926 3255.21C702.343 3250.25 711.995 3245.69 721.494 3240.89C731.035 3236.18 740.522 3231.29 750.268 3226.98L779.331 3213.65L786.585 3210.33L793.95 3207.23L808.679 3201.02C818.506 3196.95 828.267 3192.6 838.162 3188.73L867.971 3177.24L882.89 3171.48L897.971 3166.19L928.036 3155.42C948.139 3148.38 968.401 3141.87 988.439 3134.49L988.556 3134.43Z" fill="url(#paint7_linear_374_3690)"/>
</g>
<g style="mix-blend-mode:color-dodge">
<path d="M891.975 2997.05C881.704 2999.81 871.419 3002.61 861.2 3005.62L845.851 3010.09L838.176 3012.36L830.609 3014.92L800.324 3025.26L785.214 3030.56L770.266 3036.33L740.385 3047.83C730.433 3051.73 720.657 3056.04 710.801 3060.13L696.043 3066.35L688.65 3069.47L681.366 3072.8L652.232 3086.14C642.456 3090.46 632.969 3095.35 623.357 3100.07C613.828 3104.87 604.147 3109.45 594.687 3114.4C575.891 3124.53 556.833 3134.22 538.407 3145.09C501.144 3166.01 465.012 3188.88 429.688 3212.85C394.294 3236.75 360.166 3262.37 327.057 3289.21C293.978 3316.04 262.029 3344.24 231.471 3373.75C200.927 3403.29 171.914 3434.28 144.452 3466.46C130.812 3482.62 117.455 3498.98 104.761 3515.86C92.0533 3532.72 79.8126 3549.85 68.7019 3567.77C68.2396 3568.52 68.4616 3569.46 69.213 3569.87C69.9644 3570.27 70.9611 3570.01 71.4234 3569.26L71.4524 3569.25C82.4712 3551.58 94.8112 3534.5 107.516 3517.78C120.236 3501.03 133.619 3484.79 147.27 3468.72C174.756 3436.73 203.92 3406.05 234.333 3376.61C264.775 3347.15 296.592 3319.05 329.584 3292.27C362.561 3265.53 396.588 3239.93 431.867 3216.08C467.075 3192.17 503.09 3169.36 540.252 3148.45C558.62 3137.62 577.606 3127.93 596.345 3117.83C605.762 3112.87 615.414 3108.31 624.913 3103.51C634.454 3098.8 643.941 3093.91 653.688 3089.6L682.75 3076.27L690.005 3072.95L697.369 3069.84L712.098 3063.64C721.925 3059.57 731.687 3055.22 741.581 3051.35L771.39 3039.86L786.309 3034.1L801.39 3028.81L831.455 3018.04C851.558 3011 871.82 3004.49 891.859 2997.11L891.975 2997.05Z" fill="url(#paint8_linear_374_3690)"/>
</g>
<path style="mix-blend-mode:color-dodge" d="M-725.326 670.197C-215.857 -73.8562 1415.81 320.994 1804.63 -700.074L2010.76 -497.604L83.4154 1464.58L-725.326 670.197Z" fill="url(#paint9_radial_374_3690)"/>
<g style="mix-blend-mode:color-dodge">
<path d="M-369.562 371.634C-325.6 351.871 -282.045 331.435 -237.44 313.625C-192.899 295.663 -147.777 279.457 -102.306 264.46C-11.3434 234.532 80.8577 209.515 173.389 186.51C358.493 140.587 545.072 102.681 730.072 55.5608C822.549 32.0015 914.703 6.16336 1005.59 -24.4737C1096.44 -55.1534 1186.14 -90.6591 1272.44 -134.235C1358.64 -177.784 1441.5 -229.629 1516.23 -292.104C1553.64 -323.232 1588.71 -357.289 1621.13 -393.594C1653.37 -430.069 1682.8 -468.986 1708.52 -510.084C1654.18 -429.725 1588.24 -357.203 1513.75 -295.138C1439.31 -232.92 1356.79 -181.201 1270.82 -137.75C1184.75 -94.2512 1095.24 -58.7976 1004.55 -28.1467C913.791 2.48475 821.749 28.296 729.337 51.8748C544.47 99.0342 357.913 136.961 172.717 182.977C80.1409 206.029 -12.1722 231.072 -103.248 261.072C-148.763 276.07 -193.953 292.346 -238.606 310.336C-283.152 328.477 -327.563 347.48 -369.585 371.657L-369.562 371.634Z" fill="url(#paint10_linear_374_3690)"/>
</g>
<path style="mix-blend-mode:multiply" opacity="0.5" d="M-161.846 1016.46L-250.286 929.589C-250.286 929.589 -81.1842 372.967 741.345 162.924C450.548 300.889 152.58 512.268 -161.846 1016.46Z" fill="url(#paint11_linear_374_3690)" fill-opacity="0.9"/>
<g style="mix-blend-mode:color-dodge">
<path d="M-153.843 743.076C-149.37 737.435 -145.05 731.689 -140.708 725.965C-136.476 720.178 -132.069 714.518 -127.684 708.836L-114.704 691.71L-101.441 674.816L-94.8089 666.37L-87.9589 658.092L-74.2587 641.536C-64.8559 630.703 -55.4096 619.912 -45.7894 609.292C-7.02417 567.001 34.6571 527.391 78.6268 490.668C122.554 453.858 168.514 419.455 216.616 388.478C222.52 384.424 228.615 380.696 234.689 376.947L252.911 365.654C259.007 361.926 265.018 358.023 271.198 354.47L289.782 343.851C314.336 329.199 340.011 316.926 364.316 301.527C338.087 312.755 312.744 326.039 287.974 340.433L269.28 350.989C263.055 354.545 257.022 358.426 250.883 362.111L232.551 373.342C226.411 377.072 220.294 380.779 214.369 384.811L178.474 408.575L143.351 433.554C131.736 442.032 120.467 450.941 109.003 459.613C103.249 463.905 97.6899 468.479 92.1301 473.052L75.4508 486.773C31.3845 523.812 -10.3477 563.69 -49.1422 606.272C-58.7645 616.981 -68.2347 627.84 -77.6386 638.718L-91.3636 655.386L-98.2149 663.708L-104.826 672.221L-118.005 689.289C-122.325 695.035 -126.405 700.971 -130.571 706.821C-138.972 718.503 -146.43 730.79 -153.887 743.033L-153.843 743.076Z" fill="url(#paint12_linear_374_3690)"/>
</g>
<path style="mix-blend-mode:color-dodge" d="M2112.86 -820.457C1354.7 374.859 647.912 -295.027 -171.039 1035.2L165.1 1365.37L2218.34 -724.977L2112.89 -820.436L2112.86 -820.457Z" fill="url(#paint13_radial_374_3690)"/>
<g style="mix-blend-mode:color-dodge">
<path d="M1327.26 -84.4081C1269.72 -57.9096 1211.73 -32.7718 1153.33 -8.61882C1094.92 15.5128 1036.11 38.4814 977.448 61.8667C860.124 108.548 743.227 157.838 631.759 219.075C576.015 249.615 521.673 282.946 469.282 319.289C416.869 355.61 366.431 394.919 318.135 436.743C269.86 478.588 223.749 522.968 179.705 569.243C135.877 615.775 94.1182 664.157 53.9312 713.764C94.3365 664.326 136.291 616.136 180.27 569.798C224.466 523.673 270.814 479.616 319.085 437.905C367.38 396.17 417.815 356.994 470.225 320.762C522.591 284.532 576.931 251.291 632.627 220.886C744.046 159.874 860.871 110.787 978.257 64.3033C1036.96 41.0052 1095.81 18.1238 1154.29 -5.94384C1212.75 -29.9882 1270.82 -55.3738 1327.26 -84.4527L1327.26 -84.4081Z" fill="url(#paint14_linear_374_3690)"/>
</g>
<path style="mix-blend-mode:color-dodge" d="M2108.89 -719.175C1338.85 341.275 873.973 -92.5907 36.611 1084L256.061 1299.55L2178.87 -658.014L2108.87 -719.196L2108.89 -719.175Z" fill="url(#paint15_radial_374_3690)"/>
<g style="mix-blend-mode:color-dodge">
<path d="M755.162 467.728C746.323 473.641 737.482 479.599 728.771 485.729L715.671 494.893L709.132 499.508L702.787 504.359L677.426 523.875L664.821 533.753L652.518 544.018L627.913 564.504C619.739 571.39 611.869 578.62 603.848 585.657L591.87 596.287L585.869 601.613L580.042 607.111L556.736 629.1C548.865 636.33 541.451 644.008 533.863 651.561C526.383 659.175 518.686 666.62 511.315 674.341C496.77 689.976 481.832 705.27 467.874 721.481C439.304 753.262 412.434 786.529 386.68 820.573C360.837 854.576 336.745 889.797 314.012 925.851C291.301 961.881 270.103 998.85 250.643 1036.61C231.205 1074.4 213.68 1113.06 198.009 1152.36C190.284 1172.04 182.89 1191.83 176.29 1211.89C169.669 1231.93 163.578 1252.09 158.813 1272.63C158.614 1273.48 159.128 1274.31 159.97 1274.45C160.812 1274.59 161.671 1274.02 161.87 1273.17L161.892 1273.15C166.651 1252.87 172.852 1232.74 179.515 1212.83C186.179 1192.87 193.637 1173.19 201.405 1153.59C217.161 1114.47 234.924 1076.04 254.27 1038.4C273.639 1000.73 294.745 963.895 317.387 927.935C340.028 892.018 364.03 856.846 389.781 822.936C415.445 788.984 442.223 755.81 470.703 724.077C484.616 707.913 499.486 692.644 513.986 677.056C521.312 669.337 528.987 661.914 536.443 654.323C543.965 646.796 551.379 639.118 559.226 631.911L582.465 609.947L588.269 604.473L594.247 599.169L606.202 588.562C614.201 581.549 622.05 574.298 630.177 567.458L654.715 546.997L666.995 536.755L679.578 526.901L704.59 507.043C721.367 493.919 738.465 481.249 755.071 467.821L755.162 467.728Z" fill="url(#paint16_linear_374_3690)"/>
</g>
<g style="mix-blend-mode:color-dodge">
<path d="M619.574 368.644C610.734 374.557 601.894 380.515 593.182 386.645L580.083 395.809L573.543 400.424L567.198 405.275L541.838 424.791L529.233 434.669L516.93 444.934L492.324 465.42C484.151 472.306 476.281 479.536 468.259 486.573L456.281 497.203L450.281 502.529L444.454 508.027L421.147 530.016C413.277 537.246 405.863 544.924 398.274 552.477C390.795 560.091 383.098 567.536 375.727 575.257C361.182 590.892 346.244 606.186 332.285 622.397C303.716 654.178 276.846 687.445 251.091 721.489C225.249 755.492 201.156 790.713 178.423 826.767C155.713 862.797 134.515 899.766 115.055 937.529C95.6162 975.314 78.092 1013.98 62.421 1053.27C54.6957 1072.96 47.3018 1092.74 40.7019 1112.81C34.0803 1132.85 27.9898 1153 23.2246 1173.55C23.0261 1174.4 23.54 1175.22 24.3819 1175.37C25.2237 1175.51 26.0827 1174.94 26.2812 1174.09L26.304 1174.06C31.0628 1153.79 37.2641 1133.65 43.927 1113.74C50.591 1093.79 58.049 1074.11 65.8167 1054.51C81.5725 1015.39 99.3358 976.961 118.682 939.313C138.051 901.643 159.157 864.811 181.799 828.851C204.439 792.934 228.442 757.762 254.193 723.852C279.856 689.9 306.635 656.726 335.114 624.993C349.027 608.829 363.898 593.56 378.398 577.972C385.724 570.253 393.398 562.83 400.855 555.239C408.376 547.712 415.79 540.034 423.638 532.827L446.877 510.863L452.681 505.389L458.659 500.085L470.614 489.478C478.613 482.465 486.461 475.214 494.589 468.374L519.127 447.913L531.407 437.671L543.989 427.817L569.002 407.959C585.778 394.835 602.877 382.165 619.482 368.737L619.574 368.644Z" fill="url(#paint17_linear_374_3690)"/>
</g>
</g>
<defs>
<radialGradient id="paint0_radial_374_3690" cx="0" cy="0" r="1" gradientUnits="userSpaceOnUse" gradientTransform="translate(1438.12 2638.01) rotate(-87.4812) scale(406.919 1459.54)">
<stop stop-color="#3B3B3B"/>
<stop offset="0.07" stop-color="#303030"/>
<stop offset="0.25" stop-color="#1B1B1B"/>
<stop offset="0.44" stop-color="#0B0B0B"/>
<stop offset="0.67" stop-color="#020202"/>
<stop offset="1"/>
</radialGradient>
<linearGradient id="paint1_linear_374_3690" x1="2017.19" y1="2136.8" x2="151.782" y2="3078.22" gradientUnits="userSpaceOnUse">
<stop/>
<stop offset="0.26" stop-color="#DBDBDB"/>
<stop offset="0.5" stop-color="#595959"/>
<stop offset="0.7" stop-color="#E0E0E0"/>
<stop offset="1"/>
</linearGradient>
<linearGradient id="paint2_linear_374_3690" x1="1752.71" y1="2370.08" x2="-185.546" y2="3322.87" gradientUnits="userSpaceOnUse">
<stop stop-color="#CABDB3"/>
<stop offset="0.18" stop-color="#CABDB3"/>
<stop offset="0.39" stop-color="#CABDB3"/>
<stop offset="0.59" stop-color="#CABDB3"/>
<stop offset="0.77" stop-color="#E5E0E9"/>
<stop offset="0.91" stop-color="#F8F6F9"/>
<stop offset="1" stop-color="white"/>
</linearGradient>
<linearGradient id="paint3_linear_374_3690" x1="655.305" y1="2813.77" x2="45.8885" y2="3121.33" gradientUnits="userSpaceOnUse">
<stop/>
<stop offset="0.26" stop-color="#DBDBDB"/>
<stop offset="0.5" stop-color="#595959"/>
<stop offset="0.7" stop-color="#E0E0E0"/>
<stop offset="1"/>
</linearGradient>
<radialGradient id="paint4_radial_374_3690" cx="0" cy="0" r="1" gradientUnits="userSpaceOnUse" gradientTransform="translate(1252.83 1871.04) rotate(-82.0473) scale(552.225 2624.06)">
<stop stop-color="#3B3B3B"/>
<stop offset="0.23" stop-color="#222222"/>
<stop offset="0.5"/>
</radialGradient>
<linearGradient id="paint5_linear_374_3690" x1="1627.74" y1="2633.52" x2="320.018" y2="3293.49" gradientUnits="userSpaceOnUse">
<stop/>
<stop offset="0.26" stop-color="#DBDBDB"/>
<stop offset="0.5" stop-color="#595959"/>
<stop offset="0.7" stop-color="#E0E0E0"/>
<stop offset="1"/>
</linearGradient>
<radialGradient id="paint6_radial_374_3690" cx="0" cy="0" r="1" gradientUnits="userSpaceOnUse" gradientTransform="translate(1736.2 2494.54) rotate(-113.628) scale(253.778 1984.38)">
<stop stop-color="#3B3B3B"/>
<stop offset="0.13" stop-color="#373737"/>
<stop offset="0.26" stop-color="#2B2B2B"/>
<stop offset="0.39" stop-color="#171717"/>
<stop offset="0.5"/>
</radialGradient>
<linearGradient id="paint7_linear_374_3690" x1="1015.59" y1="3183.6" x2="127.206" y2="3631.94" gradientUnits="userSpaceOnUse">
<stop/>
<stop offset="0.26" stop-color="#DBDBDB"/>
<stop offset="0.5" stop-color="#595959"/>
<stop offset="0.7" stop-color="#E0E0E0"/>
<stop offset="1"/>
</linearGradient>
<linearGradient id="paint8_linear_374_3690" x1="919.011" y1="3046.22" x2="30.6251" y2="3494.56" gradientUnits="userSpaceOnUse">
<stop/>
<stop offset="0.26" stop-color="#DBDBDB"/>
<stop offset="0.5" stop-color="#595959"/>
<stop offset="0.7" stop-color="#E0E0E0"/>
<stop offset="1"/>
</linearGradient>
<radialGradient id="paint9_radial_374_3690" cx="0" cy="0" r="1" gradientUnits="userSpaceOnUse" gradientTransform="translate(1021.46 -146.787) rotate(-106.216) scale(406.919 1459.54)">
<stop stop-color="#3B3B3B"/>
<stop offset="0.07" stop-color="#303030"/>
<stop offset="0.25" stop-color="#1B1B1B"/>
<stop offset="0.44" stop-color="#0B0B0B"/>
<stop offset="0.67" stop-color="#020202"/>
<stop offset="1"/>
</radialGradient>
<linearGradient id="paint10_linear_374_3690" x1="1408.87" y1="-807.423" x2="-55.331" y2="683.25" gradientUnits="userSpaceOnUse">
<stop/>
<stop offset="0.26" stop-color="#DBDBDB"/>
<stop offset="0.5" stop-color="#595959"/>
<stop offset="0.7" stop-color="#E0E0E0"/>
<stop offset="1"/>
</linearGradient>
<linearGradient id="paint11_linear_374_3690" x1="1233.33" y1="-501.562" x2="-296.21" y2="1023.28" gradientUnits="userSpaceOnUse">
<stop stop-color="#CABDB3"/>
<stop offset="0.18" stop-color="#CABDB3"/>
<stop offset="0.39" stop-color="#CABDB3"/>
<stop offset="0.59" stop-color="#CABDB3"/>
<stop offset="0.77" stop-color="#E5E0E9"/>
<stop offset="0.91" stop-color="#F8F6F9"/>
<stop offset="1" stop-color="white"/>
</linearGradient>
<linearGradient id="paint12_linear_374_3690" x1="336.577" y1="271.087" x2="-141.77" y2="758.081" gradientUnits="userSpaceOnUse">
<stop/>
<stop offset="0.26" stop-color="#DBDBDB"/>
<stop offset="0.5" stop-color="#595959"/>
<stop offset="0.7" stop-color="#E0E0E0"/>
<stop offset="1"/>
</linearGradient>
<radialGradient id="paint13_radial_374_3690" cx="0" cy="0" r="1" gradientUnits="userSpaceOnUse" gradientTransform="translate(599.653 -813.602) rotate(-100.782) scale(552.225 2624.06)">
<stop stop-color="#3B3B3B"/>
<stop offset="0.23" stop-color="#222222"/>
<stop offset="0.5"/>
</radialGradient>
<linearGradient id="paint14_linear_374_3690" x1="1199.6" y1="-211.941" x2="173.132" y2="833.083" gradientUnits="userSpaceOnUse">
<stop/>
<stop offset="0.26" stop-color="#DBDBDB"/>
<stop offset="0.5" stop-color="#595959"/>
<stop offset="0.7" stop-color="#E0E0E0"/>
<stop offset="1"/>
</linearGradient>
<radialGradient id="paint15_radial_374_3690" cx="0" cy="0" r="1" gradientUnits="userSpaceOnUse" gradientTransform="translate(1257.68 -378.393) rotate(-132.362) scale(253.778 1984.38)">
<stop stop-color="#3B3B3B"/>
<stop offset="0.13" stop-color="#373737"/>
<stop offset="0.26" stop-color="#2B2B2B"/>
<stop offset="0.39" stop-color="#171717"/>
<stop offset="0.5"/>
</radialGradient>
<linearGradient id="paint16_linear_374_3690" x1="796.558" y1="505.606" x2="99.2399" y2="1215.53" gradientUnits="userSpaceOnUse">
<stop/>
<stop offset="0.26" stop-color="#DBDBDB"/>
<stop offset="0.5" stop-color="#595959"/>
<stop offset="0.7" stop-color="#E0E0E0"/>
<stop offset="1"/>
</linearGradient>
<linearGradient id="paint17_linear_374_3690" x1="660.969" y1="406.522" x2="-36.3484" y2="1116.45" gradientUnits="userSpaceOnUse">
<stop/>
<stop offset="0.26" stop-color="#DBDBDB"/>
<stop offset="0.5" stop-color="#595959"/>
<stop offset="0.7" stop-color="#E0E0E0"/>
<stop offset="1"/>
</linearGradient>
<clipPath id="clip0_374_3690">
<rect width="575" height="3600" fill="white"/>
</clipPath>
</defs>
</svg>
