<svg width="1920" height="2273" viewBox="0 0 1920 2273" fill="none" xmlns="http://www.w3.org/2000/svg">
<g clip-path="url(#clip0_291_3924)">
<rect width="1920" height="2273" fill="#EDE2D9"/>
<path style="mix-blend-mode:color-dodge" d="M-479.029 1843.3C312.687 1467.45 1470.67 2422.38 2299.66 1783.34L2370.27 2022.55L-201.98 2781.85L-479.029 1843.3Z" fill="url(#paint0_radial_291_3924)"/>
<g style="mix-blend-mode:color-dodge">
<path d="M-35.7804 1752.6C10.4964 1754.7 56.7695 1756.12 102.61 1759.99C148.475 1763.73 193.95 1769.06 239.115 1775.46C329.43 1788.33 418.336 1805.52 506.518 1824.39C682.875 1862.23 856.48 1906.88 1033.34 1943.74C1121.76 1962.16 1211.03 1978.69 1301.64 1990.98C1392.23 2003.22 1484.26 2011.26 1577.48 2011.68C1670.6 2012.07 1765.06 2004.69 1858.04 1985.83C1904.52 1976.49 1950.51 1963.96 1995.41 1948.62C2040.25 1933.08 2083.97 1914.53 2125.7 1892.81C2040.76 1933.67 1950.08 1963.84 1857.49 1982.48C1764.87 2001.27 1670.75 2008.68 1577.87 2008.3C1484.89 2007.92 1393.04 1999.91 1302.59 1987.71C1212.1 1975.47 1122.93 1958.97 1034.56 1940.58C857.789 1903.8 684.192 1859.18 507.714 1821.38C419.47 1802.52 330.458 1785.32 240.014 1772.45C194.811 1766.03 149.245 1760.73 103.274 1756.97C57.3177 1753.38 11.0454 1750.51 -35.8108 1752.6L-35.7804 1752.6Z" fill="url(#paint1_linear_291_3924)"/>
</g>
<path style="mix-blend-mode:multiply" opacity="0.5" d="M-183.232 2336.2L-213.529 2233.56C-213.529 2233.56 202.828 1868.17 989.452 2031.65C679.755 2023.36 327.697 2069.27 -183.232 2336.2Z" fill="url(#paint2_linear_291_3924)" fill-opacity="0.9"/>
<g style="mix-blend-mode:color-dodge">
<path d="M-41.0111 2126.93C-34.5022 2124.32 -28.0682 2121.57 -21.6269 2118.85C-15.2457 2116.03 -8.78209 2113.38 -2.32586 2110.71L16.9373 2102.56L36.3202 2094.7L46.0118 2090.77L55.8005 2087.06L75.3784 2079.63C88.5527 2074.95 101.742 2070.31 114.991 2065.88C168.128 2048.41 222.355 2034.19 277.05 2023.12C331.752 2011.96 386.948 2003.48 442.221 1998.51C449.129 1997.71 456.035 1997.23 462.934 1996.73L483.654 1995.19C490.56 1994.72 497.483 1994.07 504.373 1993.76L525.059 1992.89C552.698 1991.26 580.087 1991.92 607.89 1989.61C580.559 1987.91 552.944 1988.17 525.253 1989.52L504.508 1990.3C497.58 1990.59 490.65 1991.21 483.729 1991.63L462.948 1993.08C456.004 1993.54 449.09 1993.99 442.175 1994.77L400.607 1998.98L359.077 2004.44C345.236 2006.42 331.467 2008.86 317.654 2011.05C310.752 2012.1 303.871 2013.44 296.99 2014.79L276.346 2018.83C221.415 2030.11 167.012 2044.52 113.706 2062.2C100.412 2066.7 87.169 2071.38 73.9717 2076.1L54.3176 2083.6L44.5056 2087.35L34.7987 2091.34L15.3995 2099.37C8.9656 2102.11 2.6366 2105.11 -3.7222 2108C-16.4851 2113.74 -28.7671 2120.33 -41.026 2126.88L-41.0111 2126.93Z" fill="url(#paint3_linear_291_3924)"/>
</g>
<path style="mix-blend-mode:color-dodge" d="M2615.11 1812.22C1393.25 2439.97 1139.05 1638.66 -200.157 2347.11L-85.0065 2737.2L2655.26 1928.31L2615.11 1812.24L2615.11 1812.22Z" fill="url(#paint4_radial_291_3924)"/>
<g style="mix-blend-mode:color-dodge">
<path d="M1598.25 2072.17C1537.37 2069.91 1476.78 2066.41 1416.36 2061.98C1355.92 2057.53 1295.74 2052.02 1235.47 2046.9C1114.97 2036.57 993.536 2028.44 870.68 2031.76C809.283 2033.35 747.665 2037.67 686.172 2045.1C624.672 2052.51 563.328 2063.02 502.515 2076.34C441.708 2089.68 381.439 2105.86 321.946 2124.32C262.505 2143.07 203.863 2164.09 145.917 2186.67C203.96 2164.3 262.669 2143.52 322.14 2124.98C381.685 2106.69 441.99 2090.86 502.727 2077.62C563.495 2064.37 624.77 2053.96 686.224 2046.62C747.64 2039.26 809.213 2035.02 870.503 2033.51C993.205 2030.35 1114.48 2038.61 1234.93 2049.11C1295.19 2054.32 1355.37 2059.92 1415.83 2064.44C1476.25 2068.97 1537.02 2072.31 1598.27 2072.13L1598.25 2072.17Z" fill="url(#paint5_linear_291_3924)"/>
</g>
<path style="mix-blend-mode:color-dodge" d="M2561.58 1889.35C1396.76 2407.58 1226.21 1885.77 -52.0665 2467.51L23.1099 2722.18L2589.31 1964.67L2561.57 1889.32L2561.58 1889.35Z" fill="url(#paint6_radial_291_3924)"/>
<g style="mix-blend-mode:color-dodge">
<path d="M2098.52 2057.97C1999.56 2085.08 1899.18 2106.68 1798.14 2121.37C1697.12 2136.33 1595.65 2144.16 1494.51 2148.08C1393.34 2152.12 1292.42 2152.63 1191.23 2155.93L1115.28 2159L1039.25 2163.59L963.185 2170.06C937.824 2172.92 912.486 2175.85 887.202 2179.85C912.579 2178.18 937.9 2175.42 963.2 2172.58L1039.18 2166.16L1115.13 2161.62L1191 2158.63C1292.11 2155.41 1393.06 2154.97 1494.31 2150.99C1595.53 2147.13 1697.18 2139.35 1798.39 2124.45C1899.61 2109.59 2000.14 2087.7 2099.17 2060.39C2099.96 2060.15 2100.48 2059.45 2100.31 2058.76C2100.12 2058.11 2099.31 2057.74 2098.52 2057.95L2098.52 2057.97Z" fill="url(#paint7_linear_291_3924)"/>
</g>
<g style="mix-blend-mode:color-dodge">
<path d="M849.751 2274.01C839.484 2275.09 829.194 2276.21 818.926 2277.51L803.513 2279.43L795.798 2280.42L788.128 2281.67L757.407 2286.76L742.05 2289.43L726.751 2292.52L696.177 2298.67C685.98 2300.77 675.864 2303.27 665.719 2305.55L650.509 2309.05L642.889 2310.81L635.328 2312.76L605.085 2320.59C594.969 2323.09 585.009 2326.11 574.967 2328.96C564.986 2331.91 554.907 2334.64 544.962 2337.71C525.14 2344.08 505.161 2350.04 485.54 2357.09C446.074 2370.44 407.281 2385.62 369.029 2401.84C330.724 2418 293.267 2435.81 256.524 2454.79C219.812 2473.77 183.89 2494.08 149.015 2515.7C114.148 2537.34 80.4342 2560.42 47.9434 2584.74C31.7697 2596.97 15.8226 2609.41 0.396341 2622.38C-15.0374 2635.32 -30.0856 2648.56 -44.2274 2662.64C-44.8156 2663.22 -44.798 2664.06 -44.1703 2664.51C-43.5426 2664.96 -42.5471 2664.85 -41.9588 2664.27L-41.9283 2664.26C-27.9245 2650.39 -12.7931 2637.21 2.60957 2624.38C18.0352 2611.52 33.9815 2599.19 50.1471 2587.05C82.6217 2562.9 116.418 2540.1 151.14 2518.53C185.893 2496.94 221.671 2476.71 258.291 2457.75C294.889 2438.84 332.247 2421.04 370.431 2404.91C408.561 2388.72 447.233 2373.58 486.599 2360.23C506.16 2353.2 526.07 2347.24 545.832 2340.88C555.738 2337.79 565.787 2335.07 575.738 2332.14C585.712 2329.27 595.672 2326.25 605.757 2323.77L635.931 2315.93L643.462 2313.98L651.052 2312.23L666.232 2308.74C676.346 2306.47 686.454 2303.95 696.59 2301.86L727.097 2295.71L742.365 2292.63L757.692 2289.97L788.293 2284.47C808.721 2280.94 829.192 2277.88 849.629 2274.04L849.751 2274.01Z" fill="url(#paint8_linear_291_3924)"/>
</g>
<g style="mix-blend-mode:color-dodge">
<path d="M786.392 2143.15C776.125 2144.24 765.835 2145.35 755.567 2146.66L740.154 2148.58L732.439 2149.56L724.769 2150.81L694.048 2155.91L678.691 2158.58L663.393 2161.67L632.818 2167.81C622.621 2169.92 612.505 2172.41 602.36 2174.69L587.15 2178.2L579.53 2179.95L571.969 2181.91L541.726 2189.74C531.61 2192.23 521.651 2195.26 511.609 2198.11C501.627 2201.06 491.548 2203.79 481.603 2206.86C461.781 2213.23 441.802 2219.18 422.181 2226.24C382.715 2239.59 343.922 2254.77 305.67 2270.99C267.365 2287.15 229.908 2304.95 193.166 2323.94C156.454 2342.92 120.531 2363.23 85.6562 2384.85C50.789 2406.49 17.0753 2429.57 -15.4155 2453.88C-31.5892 2466.11 -47.5363 2478.55 -62.9625 2491.52C-78.3963 2504.47 -93.4445 2517.71 -107.586 2531.78C-108.175 2532.37 -108.157 2533.21 -107.529 2533.66C-106.901 2534.1 -105.906 2534 -105.318 2533.41L-105.287 2533.41C-91.2834 2519.54 -76.1519 2506.36 -60.7493 2493.53C-45.3237 2480.67 -29.3774 2468.34 -13.2118 2456.19C19.2629 2432.05 53.0586 2409.24 87.7811 2387.67C122.534 2366.09 158.312 2345.85 194.932 2326.9C231.53 2307.98 268.888 2290.18 307.072 2274.06C345.202 2257.87 383.874 2242.73 423.24 2229.38C442.801 2222.34 462.711 2216.38 482.473 2210.03C492.379 2206.94 502.428 2204.22 512.38 2201.28C522.353 2198.42 532.313 2195.4 542.398 2192.91L572.573 2185.08L580.103 2183.13L587.693 2181.38L602.873 2177.89C612.987 2175.61 623.095 2173.1 633.232 2171.01L663.738 2164.86L679.006 2161.77L694.333 2159.11L724.934 2153.62C745.362 2150.08 765.833 2147.03 786.27 2143.19L786.392 2143.15Z" fill="url(#paint9_linear_291_3924)"/>
</g>
<path style="mix-blend-mode:multiply" opacity="0.65" d="M2242.74 1590.5L2299.66 1783.34C2039.2 1984.11 1746.29 2027.53 1442.45 2004.33C1547.5 2007.61 2010.01 1948.97 2242.74 1590.5Z" fill="url(#paint10_linear_291_3924)" fill-opacity="0.9"/>
<path style="mix-blend-mode:multiply" opacity="0.7" d="M2217.31 1281.54C2452.29 1350.92 2610.07 1456.68 2715.79 1571.25C2738.21 1587.34 2760.47 1604.1 2782.58 1621.61L3139.19 1553.72C2402.22 810.758 1351.82 1162.23 1109.82 1257.78C1452.63 1207.72 1812.74 1162.1 2217.27 1281.53L2217.31 1281.54Z" fill="url(#paint11_linear_291_3924)" fill-opacity="0.9"/>
<g style="mix-blend-mode:color-dodge">
<path d="M-16.788 1167.32C33.6294 1156.43 84.1507 1146.34 133.811 1133.49C183.519 1120.8 232.549 1106.35 281.069 1090.71C378.083 1059.37 472.874 1023.31 566.603 985.441C754.041 909.598 937.386 826.403 1125.53 751.589C1219.59 714.194 1314.88 678.831 1412.31 648.101C1509.73 617.432 1609.38 591.349 1711.55 573.827C1813.6 556.351 1918.35 547.586 2023.3 552.334C2075.73 554.594 2128.15 560.633 2179.8 570.102C2231.43 579.814 2282.29 593.205 2331.47 610.61C2231.89 579.041 2127.69 560.849 2023.21 556.29C1918.69 551.57 1814.31 560.23 1712.51 577.648C1610.61 595.082 1511.14 621.098 1413.87 651.695C1316.56 682.348 1221.38 717.665 1127.37 755.003C939.306 829.706 755.965 912.871 568.389 988.694C474.59 1026.56 379.686 1062.66 282.529 1094.01C233.97 1109.68 184.836 1124.12 135.014 1136.85C85.1834 1149.39 34.8921 1161.16 -16.8229 1167.31L-16.788 1167.32Z" fill="url(#paint12_linear_291_3924)"/>
</g>
<path style="mix-blend-mode:multiply" opacity="0.5" d="M-226.421 1335.77L-231.1 1428.98C-231.1 1428.98 173.06 1656 773.248 1359.88C526.22 1428.85 234.815 1460.26 -226.421 1335.77Z" fill="url(#paint13_linear_291_3924)" fill-opacity="0.9"/>
<path style="mix-blend-mode:color-dodge" d="M-400.347 1552.76C338.033 1785.56 928.515 1180.45 1821.93 1303.47C2643.61 1416.58 2653.17 2074.12 2653.17 2074.12L-35.3461 1699.59L-400.342 1552.73L-400.347 1552.76Z" fill="url(#paint14_radial_291_3924)"/>
<g style="mix-blend-mode:color-dodge">
<path d="M-837.155 1684.66C-89.9833 1853.36 481.464 1476.33 1374.88 1599.35C2196.52 1712.49 2223.16 2156.71 2223.16 2156.71L-465.657 1784.3L-837.155 1684.66Z" fill="url(#paint15_radial_291_3924)"/>
</g>
<g style="mix-blend-mode:color-dodge">
<path d="M792.164 1548.17C830.405 1544.12 868.842 1542 907.341 1540.87C945.839 1539.8 984.333 1539.28 1022.85 1540.05C1099.86 1541.1 1176.87 1546.02 1253.1 1556.16C1329.22 1566.39 1404.78 1581.4 1477.39 1604.22C1495.68 1609.59 1513.47 1616.15 1531.37 1622.41C1548.97 1629.31 1566.73 1635.93 1583.84 1643.75L1596.78 1649.41C1601.09 1651.32 1605.25 1653.47 1609.48 1655.47L1622.15 1661.59L1628.48 1664.65L1634.67 1667.93C1642.88 1672.32 1651.21 1676.66 1659.21 1681.33C1667.14 1686.16 1674.97 1691.1 1682.55 1696.29C1674.16 1692.11 1665.97 1687.68 1657.9 1683.13L1633.24 1670.07L1627.09 1666.79L1620.79 1663.73L1608.17 1657.64C1603.93 1655.64 1599.81 1653.49 1595.5 1651.61L1582.59 1645.98C1565.55 1638.19 1547.83 1631.6 1530.29 1624.73C1512.43 1618.51 1494.72 1611.98 1476.46 1606.64C1404.06 1583.88 1328.67 1568.96 1252.69 1558.77C1176.63 1548.66 1099.76 1543.8 1022.86 1542.75C984.416 1541.98 945.957 1542.5 907.494 1543.6C869.065 1544.77 830.666 1546.61 792.2 1548.14L792.164 1548.17Z" fill="url(#paint16_linear_291_3924)"/>
</g>
<g style="mix-blend-mode:color-dodge">
<path d="M92.2084 1599.35L163.211 1589.31L198.483 1583.38L216.12 1580.42L224.938 1578.93L233.681 1577.22L268.67 1570.26C280.304 1567.89 292.043 1565.79 303.562 1562.97L338.229 1555.01C349.792 1552.38 361.355 1549.76 372.798 1546.72C464.702 1523.91 555.081 1496.98 645.24 1469.59C735.4 1442.2 825.488 1414.55 916.532 1389.23C939.353 1383.11 962.082 1376.63 985.044 1370.77C1008.03 1365 1030.91 1358.98 1054 1353.48C1077.16 1348.2 1100.25 1342.73 1123.43 1337.59C1146.76 1332.92 1169.96 1327.69 1193.8 1324.71C1170.99 1331.24 1147.57 1335.52 1124.33 1340.34C1101.18 1345.5 1078.12 1351 1054.99 1356.31C1031.96 1361.85 1009.11 1367.94 986.163 1373.71C963.266 1379.61 940.568 1386.13 917.777 1392.29C826.83 1417.68 736.908 1445.66 646.692 1472.95C556.484 1500.18 465.978 1526.99 373.878 1549.69C362.439 1552.7 350.845 1555.29 339.243 1557.94L304.511 1565.86C292.997 1568.65 281.222 1570.75 269.554 1573.11L234.499 1580.03L225.721 1581.74L216.877 1583.16L199.157 1585.95L163.756 1591.53C139.984 1594.52 116.114 1596.93 92.2432 1599.35L92.2084 1599.35Z" fill="url(#paint17_linear_291_3924)"/>
</g>
<g style="mix-blend-mode:color-dodge">
<path d="M2099.16 1569.99C2022.18 1542.1 1944.93 1515.12 1865.72 1493.36L1806.04 1478.05C1801.09 1476.68 1796.05 1475.65 1791.03 1474.55L1775.96 1471.27L1745.84 1464.74L1730.76 1461.45C1725.73 1460.42 1720.63 1459.59 1715.58 1458.68L1685.21 1453.26C1675.06 1451.52 1664.99 1449.51 1654.81 1447.99L1624.24 1443.68C1542.77 1432.16 1460.55 1425.83 1378.44 1424.63C1296.34 1423.39 1214.35 1427.2 1133.08 1435.14C1051.8 1443.04 971.215 1454.98 891.349 1469.41C811.483 1483.83 732.307 1500.7 653.273 1518.09C574.243 1535.45 495.377 1553.42 415.796 1569.13C375.961 1576.79 336.033 1584.34 295.755 1590.33C255.57 1596.67 214.979 1601.83 173.966 1603.63C214.332 1597.78 254.921 1593.91 295.036 1587.31C335.279 1581.32 375.132 1573.79 414.933 1566.12C494.445 1550.41 573.276 1532.44 652.31 1515.05C731.348 1497.63 810.567 1480.7 890.503 1466.28C970.443 1451.84 1051.11 1439.85 1132.52 1431.93C1213.91 1423.98 1296.04 1420.13 1378.33 1421.35C1460.62 1422.55 1543.01 1428.87 1624.66 1440.42C1787.95 1463.47 1948.58 1506.88 2099.08 1570.02L2099.16 1569.99Z" fill="url(#paint18_linear_291_3924)"/>
</g>
<path style="mix-blend-mode:color-dodge" fill-rule="evenodd" clip-rule="evenodd" d="M2484.58 1642.15C2484.36 1642.32 2484.04 1642.27 2483.88 1642.05L2484.28 1641.75L2484.68 1641.46C2484.85 1641.68 2484.8 1641.99 2484.58 1642.15ZM2484.28 1641.75C2484.68 1641.46 2484.68 1641.45 2484.68 1641.45L2484.67 1641.44L2484.63 1641.39C2484.6 1641.34 2484.55 1641.28 2484.48 1641.19C2484.35 1641.02 2484.16 1640.76 2483.9 1640.42C2483.38 1639.74 2482.59 1638.73 2481.54 1637.42C2479.45 1634.79 2476.29 1630.94 2472.06 1626.05C2463.6 1616.25 2450.81 1602.26 2433.54 1585.49C2398.98 1551.95 2346.46 1507.27 2274.54 1462.69C2130.72 1373.53 1909.36 1284.79 1599.21 1286.41C1598.94 1286.41 1598.72 1286.64 1598.72 1286.91C1598.72 1287.19 1598.94 1287.41 1599.22 1287.41C1909.16 1285.79 2130.33 1374.47 2274.02 1463.54C2345.86 1508.08 2398.33 1552.71 2432.84 1586.21C2450.09 1602.96 2462.86 1616.92 2471.3 1626.7C2475.53 1631.59 2478.67 1635.43 2480.76 1638.04C2481.81 1639.35 2482.59 1640.36 2483.1 1641.03C2483.36 1641.37 2483.56 1641.62 2483.69 1641.79C2483.75 1641.88 2483.8 1641.94 2483.83 1641.99L2483.87 1642.03L2483.88 1642.05C2483.88 1642.05 2483.88 1642.05 2484.28 1641.75Z" fill="url(#paint19_linear_291_3924)"/>
<g style="mix-blend-mode:color-dodge">
<path d="M2920.22 1290.12C2401.56 545.981 1645.15 827.416 989.594 1172.46C334.035 1517.51 -69.4588 1549.84 -69.4588 1549.84C-69.4588 1549.84 294.678 1556.45 1142.46 1203.49C2084.97 811.126 2574.76 1129.09 2844.24 1635.73L2920.22 1290.12Z" fill="url(#paint20_linear_291_3924)" style="mix-blend-mode:color-dodge"/>
<path d="M2920.22 1290.12C2401.56 545.981 1645.15 827.416 989.594 1172.46C334.035 1517.51 -69.4588 1549.84 -69.4588 1549.84C-69.4588 1549.84 294.678 1556.45 1142.46 1203.49C2084.97 811.126 2574.76 1129.09 2844.24 1635.73L2920.22 1290.12Z" fill="#0A0A0A"/>
</g>
<path d="M1159.99 1144.7C1201.33 1125.23 1243.63 1107.8 1286.39 1091.43C1329.16 1075.13 1372.14 1059.44 1415.65 1045.15C1502.44 1016.05 1590.72 991.199 1680.14 972.382C1769.47 953.708 1860.02 940.512 1950.26 937.049C1972.85 935.76 1995.33 935.98 2017.81 935.821C2040.22 936.48 2062.68 936.78 2084.89 938.643L2101.59 939.776C2107.16 940.181 2112.65 940.911 2118.17 941.444L2134.74 943.192L2143.02 944.067L2151.22 945.232C2162.13 946.832 2173.14 948.325 2183.92 950.311C2194.68 952.493 2205.36 954.851 2215.86 957.574C2204.83 956.278 2193.95 954.63 2183.14 952.806L2150.45 948.139L2142.29 946.961L2134.04 946.073L2117.53 944.344C2112.01 943.811 2106.56 943.068 2101 942.697L2084.35 941.584C2062.24 939.729 2039.82 939.448 2017.5 938.796C1995.07 938.976 1972.68 938.763 1950.15 940.072C1860.16 943.522 1769.85 956.751 1680.69 975.406C1591.48 994.189 1503.38 1019.05 1416.7 1048.11C1373.28 1062.37 1330.33 1078.05 1287.61 1094.37C1244.95 1110.75 1202.58 1127.86 1160.02 1144.65L1159.99 1144.7Z" fill="white"/>
<path style="mix-blend-mode:color-dodge" d="M-630 1124.59C328.134 1283.83 1258.07 -168.834 2338.24 272.914V-18.411L-630 -18.411V1124.59Z" fill="url(#paint21_radial_291_3924)"/>
<path style="mix-blend-mode:multiply" opacity="0.5" d="M-470.462 474.623V599.617C-470.462 599.617 85.968 871.257 869.711 428.003C543.578 539.7 155.5 604.684 -470.462 474.623Z" fill="url(#paint22_linear_291_3924)" fill-opacity="0.9"/>
<g style="mix-blend-mode:color-dodge">
<path d="M-253.933 662.022C-246.207 662.79 -238.516 663.742 -230.826 664.664C-223.17 665.708 -215.48 666.537 -207.789 667.397L-184.787 670.161L-161.75 672.556L-150.232 673.754L-138.679 674.675L-115.571 676.518C-100.12 677.409 -84.6684 678.238 -69.2169 678.821C-7.34064 680.818 54.6761 678.821 116.201 673.14C177.761 667.55 239.006 658.798 299.231 646.083C306.817 644.701 314.296 642.951 321.776 641.231L344.251 636.102C351.731 634.352 359.282 632.785 366.691 630.851L388.92 624.985C418.77 617.676 447.636 607.879 477.872 601.276C449.392 612.209 419.999 621.054 390.185 628.701L367.92 634.689C360.475 636.655 352.925 638.252 345.445 640.064L322.935 645.316C315.42 647.097 307.94 648.878 300.355 650.291L254.914 659.32L209.121 666.936C193.81 669.301 178.429 671.113 163.082 673.232C155.427 674.338 147.701 675.105 139.975 675.873L116.798 678.176C54.9569 683.704 -7.30552 685.547 -69.4276 683.367C-84.9494 682.722 -100.471 681.862 -115.958 680.94L-139.17 679.036L-150.759 678.084L-162.312 676.825L-185.419 674.245C-193.11 673.293 -200.765 672.034 -208.421 670.898C-223.767 668.687 -238.868 665.37 -253.933 662.084V662.022Z" fill="url(#paint23_linear_291_3924)"/>
</g>
<path style="mix-blend-mode:color-dodge" d="M2664.02 136.247C1170.38 -162.94 1151.63 818.771 -491.849 467.989V-7.08136L2670.27 -7.08136L2664.02 136.217V136.247Z" fill="url(#paint24_radial_291_3924)"/>
<g style="mix-blend-mode:color-dodge">
<path d="M1503.22 181.298C1439.31 203.963 1376.1 227.918 1313.35 252.855C1250.59 277.823 1188.43 303.897 1126.07 329.572C1001.4 380.982 875.049 430.243 743.606 467.157C677.937 485.676 611.18 501.216 543.579 513.224C475.979 525.263 407.571 533.77 338.847 538.96C270.123 544.119 201.082 545.931 132.147 544.918C63.1775 543.567 -5.65171 539.42 -74.2354 533.278C-5.61659 539.144 63.2127 543.014 132.147 544.119C201.082 544.918 270.052 542.707 338.671 537.455C407.325 532.203 475.628 523.604 543.158 511.504C610.653 499.435 677.34 483.833 742.869 465.253C874.101 428.216 1000.24 378.863 1124.8 327.268C1187.13 301.502 1249.26 275.336 1312.01 250.276C1374.73 225.215 1438.19 201.383 1503.26 181.329L1503.22 181.298Z" fill="url(#paint25_linear_291_3924)"/>
</g>
<path style="mix-blend-mode:color-dodge" d="M2583.03 67.5461C1184.25 -127.807 1166.73 513.133 -372.382 284.151V-26L2588.86 -26L2583.03 67.5768V67.5461Z" fill="url(#paint26_radial_291_3924)"/>
<g style="mix-blend-mode:color-dodge">
<path d="M2038.69 31.7667C1925.15 34.1314 1811.83 43.1299 1699.98 60.0824C1588.06 76.7278 1477.9 101.512 1369.32 130.564C1260.67 159.494 1153.38 192.294 1044.94 222.053L963.367 243.735L881.228 263.728L798.457 281.632C770.644 286.822 742.831 291.92 714.738 295.79C742.199 289.279 769.942 283.997 797.684 278.807L880.35 260.871L962.383 240.848L1043.85 219.104C1152.19 189.284 1259.47 156.392 1368.2 127.37C1476.85 98.2255 1587.19 73.3188 1699.28 56.5506C1811.37 39.7209 1924.94 30.9991 2038.62 28.8493C2039.53 28.8493 2040.3 29.4634 2040.34 30.2926C2040.34 31.0911 2039.6 31.7667 2038.69 31.7974V31.7667Z" fill="url(#paint27_linear_291_3924)"/>
</g>
<g style="mix-blend-mode:color-dodge">
<path d="M810.694 193.331C799.457 195.512 788.184 197.661 776.876 199.596L759.915 202.545L751.416 203.988L742.883 205.124L708.679 209.577L691.542 211.666L674.334 213.263L639.955 216.487C628.471 217.501 616.953 218.054 605.47 218.852L588.227 219.958L579.589 220.51L570.95 220.818L536.394 222.046C524.876 222.599 513.358 222.507 501.804 222.63C490.286 222.63 478.732 222.906 467.214 222.752C444.177 222.169 421.105 222.107 398.068 220.695C351.995 218.791 306.062 214.614 260.374 209.086C214.652 203.65 169.316 196.095 124.366 186.974C79.4513 177.853 34.9577 166.981 -8.83325 154.297C-52.6242 141.583 -95.6425 126.872 -137.748 110.381C-158.748 102.027 -179.572 93.3666 -200.01 83.9383C-220.449 74.5407 -240.571 64.6824 -259.99 53.5957C-260.798 53.1351 -261.044 52.183 -260.517 51.4767C-259.99 50.7703 -258.902 50.5552 -258.094 51.0159H-258.059C-238.85 61.9184 -218.658 71.6845 -198.29 80.9592C-177.887 90.2647 -157.098 98.8024 -136.133 107.064C-94.0975 123.371 -51.079 137.744 -7.46362 150.428C36.1869 163.111 80.5046 173.952 125.314 183.074C170.088 192.164 215.319 199.75 260.901 205.186C306.448 210.714 352.241 214.89 398.209 216.825C421.175 218.238 444.177 218.33 467.144 218.914C478.627 219.098 490.145 218.821 501.629 218.821C513.112 218.729 524.63 218.821 536.114 218.269L570.598 217.071L579.202 216.764L587.806 216.211L605.013 215.105C616.462 214.307 627.98 213.785 639.393 212.771L673.702 209.577L690.874 207.98L707.977 205.892L742.181 201.93C764.972 199.136 787.657 195.788 810.553 193.331H810.694Z" fill="url(#paint28_linear_291_3924)"/>
</g>
<g style="mix-blend-mode:color-dodge">
<path d="M706.6 272.364C696.247 276.963 685.852 281.539 675.367 285.907L659.653 292.505L651.77 295.777L643.776 298.75L611.704 310.564L595.599 316.34L579.3 321.64L546.743 332.263C535.853 335.747 524.811 338.779 513.865 342.048L497.406 346.864L489.16 349.276L480.85 351.442L447.613 360.106C436.57 363.138 425.363 365.524 414.176 368.133C402.992 370.612 391.845 373.374 380.622 375.699C358.105 380.073 335.687 384.976 312.958 388.52C267.735 396.531 222.067 402.238 176.292 406.541C130.507 410.943 84.5546 413.143 38.5765 413.694C-7.3676 414.237 -53.3506 412.939 -99.115 409.678C-144.887 406.386 -190.42 400.931 -235.522 393.498C-258.049 389.663 -280.485 385.483 -302.742 380.452C-324.991 375.452 -347.051 369.923 -368.743 363.014C-369.645 362.727 -370.128 361.828 -369.797 361.009C-369.466 360.189 -368.464 359.739 -367.562 360.026L-367.528 360.019C-346.087 366.788 -323.983 372.21 -301.833 377.103C-279.642 382.018 -257.272 386.083 -234.802 389.834C-189.816 397.097 -144.369 402.214 -98.7752 405.513C-53.1472 408.805 -7.34277 410.11 38.499 409.589C84.2988 409.046 130.157 406.899 175.806 402.527C221.445 398.254 266.976 392.577 312.104 384.62C334.765 381.091 357.123 376.234 379.572 371.875C390.769 369.588 401.882 366.833 413.032 364.362C424.158 361.799 435.365 359.413 446.374 356.389L479.551 347.77L487.826 345.612L496.038 343.208L512.463 338.399C523.375 335.137 534.425 332.137 545.247 328.667L577.743 318.09L594.008 312.798L610.079 307.029L642.276 295.707C663.69 288.008 684.861 279.779 706.464 272.395L706.6 272.364Z" fill="url(#paint29_linear_291_3924)"/>
</g>
<path style="mix-blend-mode:multiply" opacity="0.65" d="M2338.24 507.76V272.912C1998.86 134.129 1674.35 182.345 1359.1 308.813C1469.58 270.394 1978.88 183.143 2338.24 507.76Z" fill="url(#paint30_linear_291_3924)" fill-opacity="0.9"/>
</g>
<defs>
<radialGradient id="paint0_radial_291_3924" cx="0" cy="0" r="1" gradientUnits="userSpaceOnUse" gradientTransform="translate(1375.46 1902.23) rotate(-74.0776) scale(362.69 1378.4)">
<stop stop-color="#3B3B3B"/>
<stop offset="0.07" stop-color="#303030"/>
<stop offset="0.25" stop-color="#1B1B1B"/>
<stop offset="0.44" stop-color="#0B0B0B"/>
<stop offset="0.67" stop-color="#020202"/>
<stop offset="1"/>
</radialGradient>
<linearGradient id="paint1_linear_291_3924" x1="2024.54" y1="1542.73" x2="70.3945" y2="2119.57" gradientUnits="userSpaceOnUse">
<stop/>
<stop offset="0.26" stop-color="#DBDBDB"/>
<stop offset="0.5" stop-color="#595959"/>
<stop offset="0.7" stop-color="#E0E0E0"/>
<stop offset="1"/>
</linearGradient>
<linearGradient id="paint2_linear_291_3924" x1="1727.2" y1="1710.69" x2="-299.566" y2="2282.93" gradientUnits="userSpaceOnUse">
<stop stop-color="#CABDB3"/>
<stop offset="0.18" stop-color="#CABDB3"/>
<stop offset="0.39" stop-color="#CABDB3"/>
<stop offset="0.59" stop-color="#CABDB3"/>
<stop offset="0.77" stop-color="#E5E0E9"/>
<stop offset="0.91" stop-color="#F8F6F9"/>
<stop offset="1" stop-color="white"/>
</linearGradient>
<linearGradient id="paint3_linear_291_3924" x1="599.971" y1="1954.93" x2="-38.4362" y2="2143.38" gradientUnits="userSpaceOnUse">
<stop/>
<stop offset="0.26" stop-color="#DBDBDB"/>
<stop offset="0.5" stop-color="#595959"/>
<stop offset="0.7" stop-color="#E0E0E0"/>
<stop offset="1"/>
</linearGradient>
<radialGradient id="paint4_radial_291_3924" cx="0" cy="0" r="1" gradientUnits="userSpaceOnUse" gradientTransform="translate(1356.19 1216.51) rotate(-68.3816) scale(497.597 2451.31)">
<stop stop-color="#3B3B3B"/>
<stop offset="0.23" stop-color="#222222"/>
<stop offset="0.5"/>
</radialGradient>
<linearGradient id="paint5_linear_291_3924" x1="1555.58" y1="1922.36" x2="185.643" y2="2326.74" gradientUnits="userSpaceOnUse">
<stop/>
<stop offset="0.26" stop-color="#DBDBDB"/>
<stop offset="0.5" stop-color="#595959"/>
<stop offset="0.7" stop-color="#E0E0E0"/>
<stop offset="1"/>
</linearGradient>
<radialGradient id="paint6_radial_291_3924" cx="0" cy="0" r="1" gradientUnits="userSpaceOnUse" gradientTransform="translate(1686.32 1816.07) rotate(-102.887) scale(219.162 1934.2)">
<stop stop-color="#3B3B3B"/>
<stop offset="0.13" stop-color="#373737"/>
<stop offset="0.26" stop-color="#2B2B2B"/>
<stop offset="0.39" stop-color="#171717"/>
<stop offset="0.5"/>
</radialGradient>
<linearGradient id="paint7_linear_291_3924" x1="2068.31" y1="1950.35" x2="918.093" y2="2289.88" gradientUnits="userSpaceOnUse">
<stop/>
<stop offset="0.26" stop-color="#DBDBDB"/>
<stop offset="0.5" stop-color="#595959"/>
<stop offset="0.7" stop-color="#E0E0E0"/>
<stop offset="1"/>
</linearGradient>
<linearGradient id="paint8_linear_291_3924" x1="865.312" y1="2319.88" x2="-65.3364" y2="2594.6" gradientUnits="userSpaceOnUse">
<stop/>
<stop offset="0.26" stop-color="#DBDBDB"/>
<stop offset="0.5" stop-color="#595959"/>
<stop offset="0.7" stop-color="#E0E0E0"/>
<stop offset="1"/>
</linearGradient>
<linearGradient id="paint9_linear_291_3924" x1="801.953" y1="2189.03" x2="-128.695" y2="2463.75" gradientUnits="userSpaceOnUse">
<stop/>
<stop offset="0.26" stop-color="#DBDBDB"/>
<stop offset="0.5" stop-color="#595959"/>
<stop offset="0.7" stop-color="#E0E0E0"/>
<stop offset="1"/>
</linearGradient>
<linearGradient id="paint10_linear_291_3924" x1="1067.03" y1="2404.07" x2="2093.53" y2="1577.16" gradientUnits="userSpaceOnUse">
<stop stop-color="#CABDB3"/>
<stop offset="0.18" stop-color="#CABDB3"/>
<stop offset="0.39" stop-color="#CABDB3"/>
<stop offset="0.59" stop-color="#CABDB3"/>
<stop offset="0.77" stop-color="#E5E0E9"/>
<stop offset="0.91" stop-color="#F8F6F9"/>
<stop offset="1" stop-color="white"/>
</linearGradient>
<linearGradient id="paint11_linear_291_3924" x1="998.163" y1="1934.96" x2="2278.48" y2="1109.14" gradientUnits="userSpaceOnUse">
<stop stop-color="#CABDB3"/>
<stop offset="0.18" stop-color="#CABDB3"/>
<stop offset="0.39" stop-color="#CABDB3"/>
<stop offset="0.59" stop-color="#CABDB3"/>
<stop offset="0.77" stop-color="#E5E0E9"/>
<stop offset="0.91" stop-color="#F8F6F9"/>
<stop offset="1" stop-color="white"/>
</linearGradient>
<linearGradient id="paint12_linear_291_3924" x1="2275.71" y1="1032.57" x2="41.8167" y2="724.973" gradientUnits="userSpaceOnUse">
<stop/>
<stop offset="0.26" stop-color="#DBDBDB"/>
<stop offset="0.5" stop-color="#595959"/>
<stop offset="0.7" stop-color="#E0E0E0"/>
<stop offset="1"/>
</linearGradient>
<linearGradient id="paint13_linear_291_3924" x1="1426.91" y1="1484.9" x2="-310.121" y2="1417.22" gradientUnits="userSpaceOnUse">
<stop stop-color="#CABDB3"/>
<stop offset="0.18" stop-color="#CABDB3"/>
<stop offset="0.39" stop-color="#CABDB3"/>
<stop offset="0.59" stop-color="#CABDB3"/>
<stop offset="0.77" stop-color="#E5E0E9"/>
<stop offset="0.91" stop-color="#F8F6F9"/>
<stop offset="1" stop-color="white"/>
</linearGradient>
<radialGradient id="paint14_radial_291_3924" cx="0" cy="0" r="1" gradientUnits="userSpaceOnUse" gradientTransform="translate(1355.87 1209.04) rotate(86.1576) scale(423.31 1658.63)">
<stop stop-color="#3B3B3B"/>
<stop offset="0.07" stop-color="#303030"/>
<stop offset="0.25" stop-color="#1B1B1B"/>
<stop offset="0.44" stop-color="#0B0B0B"/>
<stop offset="0.67" stop-color="#020202"/>
<stop offset="1"/>
</radialGradient>
<radialGradient id="paint15_radial_291_3924" cx="0" cy="0" r="1" gradientUnits="userSpaceOnUse" gradientTransform="translate(1132.17 1014.07) rotate(89.8936) scale(207.891 2551.05)">
<stop stop-color="#3B3B3B"/>
<stop offset="0.61" stop-color="#141414"/>
<stop offset="1"/>
</radialGradient>
<linearGradient id="paint16_linear_291_3924" x1="1684.74" y1="1620.82" x2="790.056" y2="1613.6" gradientUnits="userSpaceOnUse">
<stop/>
<stop offset="0.26" stop-color="#DBDBDB"/>
<stop offset="0.5" stop-color="#595959"/>
<stop offset="0.7" stop-color="#E0E0E0"/>
<stop offset="1"/>
</linearGradient>
<linearGradient id="paint17_linear_291_3924" x1="1166.52" y1="1534.14" x2="119.375" y2="1389.96" gradientUnits="userSpaceOnUse">
<stop/>
<stop offset="0.26" stop-color="#DBDBDB"/>
<stop offset="0.5" stop-color="#595959"/>
<stop offset="0.7" stop-color="#E0E0E0"/>
<stop offset="1"/>
</linearGradient>
<linearGradient id="paint18_linear_291_3924" x1="2085.23" y1="1685.29" x2="196.616" y2="1425.24" gradientUnits="userSpaceOnUse">
<stop/>
<stop offset="0.26" stop-color="#DBDBDB"/>
<stop offset="0.5" stop-color="#595959"/>
<stop offset="0.7" stop-color="#E0E0E0"/>
<stop offset="1"/>
</linearGradient>
<linearGradient id="paint19_linear_291_3924" x1="2502.81" y1="1520.08" x2="1582.82" y2="1393.4" gradientUnits="userSpaceOnUse">
<stop/>
<stop offset="0.26" stop-color="#DBDBDB"/>
<stop offset="0.5" stop-color="#595959"/>
<stop offset="0.7" stop-color="#E0E0E0"/>
<stop offset="1"/>
</linearGradient>
<linearGradient id="paint20_linear_291_3924" x1="448.778" y1="2012.77" x2="2814.92" y2="571.322" gradientUnits="userSpaceOnUse">
<stop offset="0.09"/>
<stop offset="0.37" stop-color="#3B3B3B"/>
<stop offset="0.39" stop-color="#363636"/>
<stop offset="0.53" stop-color="#181818"/>
<stop offset="0.64" stop-color="#060606"/>
<stop offset="0.73"/>
</linearGradient>
<radialGradient id="paint21_radial_291_3924" cx="0" cy="0" r="1" gradientUnits="userSpaceOnUse" gradientTransform="translate(1319.99 445.338) rotate(59.0115) scale(417.378 1548.36)">
<stop stop-color="#3B3B3B"/>
<stop offset="0.07" stop-color="#303030"/>
<stop offset="0.25" stop-color="#1B1B1B"/>
<stop offset="0.44" stop-color="#0B0B0B"/>
<stop offset="0.67" stop-color="#020202"/>
<stop offset="1"/>
</radialGradient>
<linearGradient id="paint22_linear_291_3924" x1="1753.36" y1="543.6" x2="-577.289" y2="569.78" gradientUnits="userSpaceOnUse">
<stop stop-color="#CABDB3"/>
<stop offset="0.18" stop-color="#CABDB3"/>
<stop offset="0.39" stop-color="#CABDB3"/>
<stop offset="0.59" stop-color="#CABDB3"/>
<stop offset="0.77" stop-color="#E5E0E9"/>
<stop offset="0.91" stop-color="#F8F6F9"/>
<stop offset="1" stop-color="white"/>
</linearGradient>
<linearGradient id="paint23_linear_291_3924" x1="480.33" y1="642.736" x2="-256.356" y2="642.736" gradientUnits="userSpaceOnUse">
<stop/>
<stop offset="0.26" stop-color="#DBDBDB"/>
<stop offset="0.5" stop-color="#595959"/>
<stop offset="0.7" stop-color="#E0E0E0"/>
<stop offset="1"/>
</linearGradient>
<radialGradient id="paint24_radial_291_3924" cx="0" cy="0" r="1" gradientUnits="userSpaceOnUse" gradientTransform="translate(1514.39 1219.88) rotate(53.4243) scale(569.802 2767.22)">
<stop stop-color="#3B3B3B"/>
<stop offset="0.23" stop-color="#222222"/>
<stop offset="0.5"/>
</radialGradient>
<linearGradient id="paint25_linear_291_3924" x1="1504.87" y1="363.231" x2="-75.9561" y2="363.231" gradientUnits="userSpaceOnUse">
<stop/>
<stop offset="0.26" stop-color="#DBDBDB"/>
<stop offset="0.5" stop-color="#595959"/>
<stop offset="0.7" stop-color="#E0E0E0"/>
<stop offset="1"/>
</linearGradient>
<radialGradient id="paint26_radial_291_3924" cx="0" cy="0" r="1" gradientUnits="userSpaceOnUse" gradientTransform="translate(1676.94 439.062) rotate(86.6277) scale(255.934 2141.06)">
<stop stop-color="#3B3B3B"/>
<stop offset="0.13" stop-color="#373737"/>
<stop offset="0.26" stop-color="#2B2B2B"/>
<stop offset="0.39" stop-color="#171717"/>
<stop offset="0.5"/>
</radialGradient>
<linearGradient id="paint27_linear_291_3924" x1="2040.34" y1="162.32" x2="713.052" y2="162.32" gradientUnits="userSpaceOnUse">
<stop/>
<stop offset="0.26" stop-color="#DBDBDB"/>
<stop offset="0.5" stop-color="#595959"/>
<stop offset="0.7" stop-color="#E0E0E0"/>
<stop offset="1"/>
</linearGradient>
<linearGradient id="paint28_linear_291_3924" x1="812.836" y1="136.792" x2="-261.079" y2="136.792" gradientUnits="userSpaceOnUse">
<stop/>
<stop offset="0.26" stop-color="#DBDBDB"/>
<stop offset="0.5" stop-color="#595959"/>
<stop offset="0.7" stop-color="#E0E0E0"/>
<stop offset="1"/>
</linearGradient>
<linearGradient id="paint29_linear_291_3924" x1="694.215" y1="215.36" x2="-339.949" y2="479.933" gradientUnits="userSpaceOnUse">
<stop/>
<stop offset="0.26" stop-color="#DBDBDB"/>
<stop offset="0.5" stop-color="#595959"/>
<stop offset="0.7" stop-color="#E0E0E0"/>
<stop offset="1"/>
</linearGradient>
<linearGradient id="paint30_linear_291_3924" x1="835.365" y1="-14.8509" x2="2204.36" y2="520.008" gradientUnits="userSpaceOnUse">
<stop stop-color="#CABDB3"/>
<stop offset="0.18" stop-color="#CABDB3"/>
<stop offset="0.39" stop-color="#CABDB3"/>
<stop offset="0.59" stop-color="#CABDB3"/>
<stop offset="0.77" stop-color="#E5E0E9"/>
<stop offset="0.91" stop-color="#F8F6F9"/>
<stop offset="1" stop-color="white"/>
</linearGradient>
<clipPath id="clip0_291_3924">
<rect width="1920" height="2273" fill="white"/>
</clipPath>
</defs>
</svg>
