<svg viewBox="0 0 40 29" fill="none" xmlns="http://www.w3.org/2000/svg">
<path d="M39.6016 6.5C39.6016 6.5 39.2109 3.74219 38.0078 2.53125C36.4844 0.9375 34.7813 0.929687 34 0.835937C28.4063 0.429687 20.0078 0.429688 20.0078 0.429688H19.9922C19.9922 0.429688 11.5937 0.429687 6 0.835937C5.21875 0.929687 3.51562 0.9375 1.99219 2.53125C0.789063 3.74219 0.40625 6.5 0.40625 6.5C0.40625 6.5 0 9.74219 0 12.9766V16.0078C0 19.2422 0.398437 22.4844 0.398437 22.4844C0.398437 22.4844 0.789062 25.2422 1.98437 26.4531C3.50781 28.0469 5.50781 27.9922 6.39844 28.1641C9.60156 28.4688 20 28.5625 20 28.5625C20 28.5625 28.4063 28.5469 34 28.1484C34.7813 28.0547 36.4844 28.0469 38.0078 26.4531C39.2109 25.2422 39.6016 22.4844 39.6016 22.4844C39.6016 22.4844 40 19.25 40 16.0078V12.9766C40 9.74219 39.6016 6.5 39.6016 6.5ZM15.8672 19.6875V8.44531L26.6719 14.0859L15.8672 19.6875Z" fill="currentColor"/>
</svg>
