<svg viewBox="0 0 10 16" fill="none" xmlns="http://www.w3.org/2000/svg">
<path fill-rule="evenodd" clip-rule="evenodd" d="M5 0.999996C4.60603 0.999996 4.21593 1.07759 3.85195 1.22836C3.48797 1.37912 3.15726 1.6001 2.87868 1.87868C2.6001 2.15725 2.37913 2.48797 2.22836 2.85195C2.0776 3.21592 2 3.60603 2 4C2 4.39396 2.0776 4.78407 2.22836 5.14805C2.37913 5.51202 2.6001 5.84274 2.87868 6.12132C3.15726 6.39989 3.48797 6.62087 3.85195 6.77163C4.21593 6.9224 4.60603 7 5 7C5.79565 7 6.55871 6.68393 7.12132 6.12132C7.68393 5.55871 8 4.79564 8 4C8 3.20435 7.68393 2.44128 7.12132 1.87868C6.55871 1.31607 5.79565 0.999996 5 0.999996ZM1 4C1.00007 3.23022 1.22226 2.47682 1.63989 1.83019C2.05753 1.18356 2.65288 0.671167 3.3545 0.354502C4.05613 0.0378371 4.83422 -0.0696522 5.59542 0.0449322C6.35662 0.159517 7.06858 0.491307 7.64589 1.00049C8.2232 1.50968 8.64132 2.17463 8.85009 2.91555C9.05885 3.65647 9.0494 4.4419 8.82285 5.17758C8.5963 5.91326 8.16229 6.56795 7.57289 7.06309C6.98349 7.55822 6.26374 7.87277 5.5 7.969V13.5C5.5 13.6326 5.44732 13.7598 5.35355 13.8535C5.25979 13.9473 5.13261 14 5 14C4.86739 14 4.74021 13.9473 4.64645 13.8535C4.55268 13.7598 4.5 13.6326 4.5 13.5V7.97C3.53296 7.84816 2.64369 7.37743 1.99921 6.64623C1.35474 5.91503 0.999422 4.97468 1 4ZM3.493 12.574C3.51469 12.7047 3.48358 12.8387 3.40651 12.9466C3.32944 13.0544 3.21272 13.1272 3.082 13.149C2.37 13.267 1.802 13.444 1.427 13.642C1.28904 13.7079 1.16379 13.7976 1.057 13.907C1.03278 13.9334 1.01348 13.9638 1 13.997V14L1.002 14.008L1.018 14.041C1.0572 14.0991 1.10628 14.1498 1.163 14.191C1.328 14.321 1.598 14.461 1.976 14.586C2.727 14.836 3.796 15 5 15C6.204 15 7.273 14.837 8.024 14.586C8.402 14.46 8.672 14.321 8.837 14.191C8.89408 14.1499 8.9435 14.0992 8.983 14.041L8.998 14.008L9 14V13.996C8.98652 13.9628 8.96722 13.9324 8.943 13.906C8.83613 13.797 8.71088 13.7076 8.573 13.642C8.197 13.444 7.63 13.267 6.918 13.149C6.85168 13.14 6.78783 13.1178 6.73025 13.0837C6.67267 13.0496 6.62253 13.0042 6.58279 12.9504C6.54306 12.8965 6.51454 12.8352 6.49893 12.7701C6.48332 12.7051 6.48093 12.6375 6.49191 12.5715C6.5029 12.5055 6.52702 12.4423 6.56286 12.3858C6.5987 12.3293 6.64552 12.2805 6.70055 12.2424C6.75558 12.2043 6.81769 12.1777 6.88322 12.164C6.94874 12.1504 7.01634 12.15 7.082 12.163C7.852 12.29 8.534 12.491 9.039 12.757C9.5 13 10 13.4 10 14C10 14.426 9.74 14.752 9.456 14.977C9.166 15.205 8.776 15.39 8.34 15.535C7.462 15.828 6.281 16 5 16C3.719 16 2.538 15.828 1.66 15.535C1.224 15.39 0.834 15.205 0.544 14.977C0.26 14.752 0 14.426 0 14C0 13.401 0.5 13 0.961 12.757C1.466 12.491 2.148 12.29 2.918 12.163C3.04874 12.1413 3.18275 12.1724 3.29057 12.2495C3.39838 12.3266 3.4712 12.4433 3.493 12.574Z" fill="currentColor"/>
</svg>
