<svg viewBox="0 0 12 14" fill="none" xmlns="http://www.w3.org/2000/svg">
<path fill-rule="evenodd" clip-rule="evenodd" d="M5.99996 3C4.91931 3.00042 3.86789 3.35093 3.00316 3.99904C2.13844 4.64715 1.50697 5.55797 1.20332 6.59508C0.899678 7.63219 0.940209 8.73976 1.31884 9.7519C1.69748 10.764 2.39384 11.6263 3.30362 12.2094C4.2134 12.7926 5.28763 13.0653 6.36542 12.9868C7.4432 12.9082 8.46653 12.4826 9.28211 11.7736C10.0977 11.0647 10.6616 10.1105 10.8895 9.0542C11.1173 7.99784 10.9968 6.89611 10.546 5.914C10.4969 5.7946 10.4959 5.66084 10.5432 5.54072C10.5905 5.42061 10.6824 5.32344 10.7998 5.26957C10.9171 5.21569 11.0507 5.20927 11.1726 5.25167C11.2945 5.29406 11.3954 5.38197 11.454 5.497C11.9949 6.67559 12.1395 7.99773 11.866 9.26538C11.5925 10.533 10.9157 11.678 9.93688 12.5286C8.95808 13.3793 7.73 13.89 6.4366 13.9842C5.1432 14.0783 3.85411 13.7509 2.76243 13.0509C1.67074 12.3509 0.835217 11.3161 0.381018 10.1014C-0.0731802 8.88676 -0.121607 7.55762 0.242991 6.31311C0.607589 5.0686 1.36559 3.97571 2.40344 3.19815C3.44129 2.42059 4.70314 2.00022 5.99996 2V3Z" fill="currentColor"/>
<path d="M6 4.46609V0.534086C6.00002 0.486583 6.01357 0.440067 6.03907 0.399987C6.06457 0.359907 6.10096 0.327921 6.14398 0.307775C6.187 0.287629 6.23487 0.280157 6.28198 0.286234C6.32909 0.29231 6.3735 0.311684 6.41 0.342086L8.77 2.30809C8.89 2.40809 8.89 2.59209 8.77 2.69209L6.41 4.65809C6.3735 4.68849 6.32909 4.70786 6.28198 4.71394C6.23487 4.72002 6.187 4.71254 6.14398 4.6924C6.10096 4.67225 6.06457 4.64027 6.03907 4.60019C6.01357 4.56011 6.00002 4.51359 6 4.46609Z" fill="currentColor"/>
</svg>
