<svg viewBox="0 0 28 20" fill="none" xmlns="http://www.w3.org/2000/svg">
<path d="M14.0837 1H14.2283C15.5642 1.0048 22.3327 1.05285 24.1577 1.53652C24.7094 1.68414 25.2121 1.97187 25.6157 2.37095C26.0192 2.77004 26.3094 3.26651 26.4572 3.81075C26.6214 4.41934 26.7367 5.22493 26.8147 6.05614L26.831 6.22271L26.8667 6.63911L26.8797 6.80568C26.9854 8.26951 26.9984 9.64045 27 9.93994V10.0601C26.9984 10.3708 26.9837 11.8346 26.8667 13.3593L26.8537 13.5274L26.8391 13.694C26.7579 14.6101 26.6376 15.5198 26.4572 16.1893C26.3094 16.7335 26.0192 17.23 25.6157 17.629C25.2121 18.0281 24.7094 18.3159 24.1577 18.4635C22.2726 18.9632 15.1075 18.9984 14.1146 19H13.8838C13.3816 19 11.3048 18.9904 9.12713 18.9167L8.85087 18.9071L8.70948 18.9007L8.43159 18.8895L8.1537 18.8783C6.34983 18.7998 4.6321 18.6733 3.84068 18.4619C3.28916 18.3144 2.78655 18.0269 2.38304 17.6281C1.97953 17.2293 1.68924 16.7332 1.54116 16.1893C1.36077 15.5214 1.24052 14.6101 1.15926 13.694L1.14626 13.5258L1.13326 13.3593C1.05259 12.2741 1.00815 11.1866 1 10.0985L1 9.9015C1.00325 9.55717 1.01625 8.3672 1.10401 7.05392L1.11538 6.88896L1.12026 6.80568L1.13326 6.63911L1.16901 6.22271L1.18526 6.05614C1.26327 5.22493 1.37865 4.41774 1.54278 3.81075C1.69062 3.26651 1.9808 2.77004 2.38433 2.37095C2.78785 1.97187 3.29059 1.68414 3.8423 1.53652C4.63373 1.32832 6.35146 1.2002 8.15532 1.12012L8.43159 1.10891L8.71111 1.0993L8.85087 1.09449L9.12876 1.08328C10.6754 1.03428 12.2226 1.00705 13.77 1.0016L14.0837 1ZM11.4007 6.14103V13.8574L18.1562 10.0008L11.4007 6.14103Z" stroke="currentColor" stroke-width="2"/>
</svg>
