<svg width="50" height="50" fill="none" xmlns="http://www.w3.org/2000/svg"><g clip-path="url(#clip0)" fill="#E31E24"><path d="M49.392 6c-.763-1.47-2.052-2.503-3.629-2.908a5.667 5.667 0 00-4.549.765L35.72 7.521a2.613 2.613 0 01-.72.336 2.273 2.273 0 00-.806-1.655c-7.697-6.595-10.79-6.598-18.39.004a2.296 2.296 0 00-.802 1.65 2.629 2.629 0 01-.72-.334L8.969 3.98c-2.274-1.517-5.697-1.173-7.474.752A5.634 5.634 0 000 8.56v2.426c0 1.468.56 2.86 1.578 3.918.286.297.593.585.93.873.068 1.883 2.07 3.798 4.913 4.598 2.344.658 4.665.381 5.966-.675.357.035.686.053 1 .053 1.387 0 2.776-.272 4.031-.778l.462 1.477a10.058 10.058 0 00-.545 3.293c0 2.633.535 4.664 1.593 6.045-.063.432-.018.829.022 1.19.024.215.051.437.051.681a7.5 7.5 0 00.671 3.133c.053.115-.008.227-.038.272A3.607 3.607 0 0020 37.078c0 .525.122 1.042.364 1.536a.289.289 0 010 .26A3.48 3.48 0 0020 40.412c0 .526.122 1.042.364 1.537a.289.289 0 010 .26A3.479 3.479 0 0020 43.746v5h1.667v-5c0-.27.066-.54.195-.808a1.95 1.95 0 000-1.719 1.845 1.845 0 01-.195-.806c0-.27.066-.541.195-.808a1.95 1.95 0 000-1.719 1.845 1.845 0 01-.195-.807c0-.373.117-.737.348-1.081a1.93 1.93 0 00.169-1.904 5.824 5.824 0 01-.517-2.431c0-.273-.027-.521-.054-.762l.515.258a.838.838 0 001.118-.374.834.834 0 00-.372-1.118l-1.503-.75c-.894-1.062-1.37-2.84-1.37-5.17 0-1.035.181-2.037.538-2.98l.101-.268-1.181-3.78-1.039.432a9.186 9.186 0 01-4.032.937c-.353 0-.738-.027-1.176-.086l-.427-.056-.293.316c-.66.713-2.46 1.118-4.62.508-2.399-.675-3.843-2.221-3.687-3.243l.073-.475-.375-.3A11.558 11.558 0 012.78 13.75a3.97 3.97 0 01-1.113-2.763V8.56c0-1.003.374-1.962 1.054-2.698 1.23-1.334 3.72-1.565 5.324-.495l5.31 3.541a4.302 4.302 0 002.835.694l1.008-.109-.52-1.667a.65.65 0 01.22-.363c6.995-6.076 9.115-6.076 16.211.004a.633.633 0 01.216.358l-.521 1.668 1.008.11a4.27 4.27 0 002.832-.695l5.495-3.663a3.995 3.995 0 013.21-.538 3.988 3.988 0 012.565 2.061c.275.529.42 1.179.42 1.882v2.337c0 1.017-.363 1.964-1.022 2.667a11.647 11.647 0 01-1.685 1.47l-.229.163-.082.27c-.324 1.064-1.403 2.219-2.814 3.011-2.281 1.278-4.451 1.14-4.97.217a1.13 1.13 0 01-.078-.185l-.212-.637-.668.072a9.123 9.123 0 01-5.041-.906l-.99-.413-1.183 3.782.101.27c.358.94.539 1.942.539 2.977 0 2.33-.476 4.11-1.37 5.17l-1.503.751a.833.833 0 00.746 1.492l.515-.258c-.027.242-.054.49-.054.762a5.82 5.82 0 01-.518 2.432 1.93 1.93 0 00.169 1.902c.231.345.349.71.349 1.082 0 .27-.066.541-.195.808a1.95 1.95 0 000 1.72c.129.264.195.536.195.806s-.066.54-.195.807a1.95 1.95 0 000 1.72c.129.264.195.536.195.806v5H30v-5c0-.526-.121-1.042-.363-1.536a.288.288 0 010-.26A3.48 3.48 0 0030 40.41c0-.526-.121-1.043-.363-1.537a.288.288 0 010-.26A3.48 3.48 0 0030 37.077c0-.7-.219-1.397-.633-2.013-.03-.044-.09-.156-.038-.27A7.508 7.508 0 0030 31.66c0-.244.027-.467.052-.68.04-.362.086-.759.022-1.19 1.058-1.382 1.593-3.413 1.593-6.046a10.06 10.06 0 00-.546-3.293l.463-1.478c1.444.578 2.992.846 4.579.764 1.147 1.78 4.241 1.915 7.154.283 1.687-.948 2.975-2.315 3.5-3.705a13.09 13.09 0 001.711-1.524c.95-1.013 1.473-2.364 1.473-3.805V8.648C50 7.666 49.796 6.774 49.393 6z"/><path d="M12.431 10.295L6.938 6.632a2.321 2.321 0 00-2.926.29 2.308 2.308 0 00-.678 1.638v2.426c0 .601.23 1.171.645 1.605a9.782 9.782 0 001.839 1.478l.248.157.293-.032c.846-.098 1.79-.008 2.73.258 1.094.308 2.082.831 2.782 1.475l.164.152.746.165a7.473 7.473 0 004.944-.608l1.233-.515-1.284-4.108-.74.153a5.91 5.91 0 01-4.502-.871zm.711 4.321l-.316-.07c-.873-.746-2.031-1.345-3.287-1.699a9.04 9.04 0 00-3.06-.337 7.905 7.905 0 01-1.297-1.073.648.648 0 01-.182-.45V8.56a.653.653 0 011.012-.542l5.495 3.663a7.53 7.53 0 005.016 1.234l.393 1.26a5.787 5.787 0 01-3.774.441zm22.469 1.804c.538 0 1.078-.058 1.608-.176l1.383-.308.167-.158a7.73 7.73 0 011.539-1.124c1.34-.752 2.786-1.078 3.87-.868l.365.07.295-.224c.45-.34.838-.68 1.184-1.041a2.31 2.31 0 00.645-1.605V8.559c0-.617-.241-1.2-.68-1.64a2.326 2.326 0 00-2.924-.29l-5.495 3.664a5.904 5.904 0 01-4.501.871l-.74-.153-1.283 4.106 1.232.516a7.441 7.441 0 003.335.787zm-2.132-3.504a7.553 7.553 0 005.014-1.235l5.496-3.664A.651.651 0 0145 8.561v2.426a.65.65 0 01-.182.452 7.708 7.708 0 01-.713.652c-1.404-.154-3.059.24-4.612 1.11-.62.348-1.19.754-1.696 1.208l-.94.21a5.807 5.807 0 01-3.772-.443l.394-1.26zM27.5 23.745a5.89 5.89 0 00-.375-2.095 3.353 3.353 0 01-.064-2.173l.823-2.634c.14-.443.365-.846.669-1.196l.239-.276-.04-.363a3.312 3.312 0 01.132-1.362l.831-2.66c.14-.445.365-.85.673-1.2l.24-.275-.04-.365a3.027 3.027 0 01-.016-.195l-.018-.37-.288-.234c-2.49-2.03-4.126-2.935-5.303-2.935-1.17 0-2.783.902-5.232 2.924l-.285.235-.017.368a2.74 2.74 0 01-.018.205l-.04.365.241.277c.306.35.533.754.673 1.2l.83 2.658c.14.446.185.905.133 1.363l-.04.364.24.275c.303.35.528.752.668 1.195l.823 2.635c.22.709.197 1.48-.064 2.173a5.912 5.912 0 00-.375 2.096c0 2.42.555 3.314.795 3.586l1.273-1.073c-.004-.006-.402-.593-.402-2.513 0-.53.09-1.036.268-1.507a5.013 5.013 0 00.095-3.258l-.824-2.636a4.97 4.97 0 00-.774-1.51 4.98 4.98 0 00-.226-1.685l-.831-2.66a4.988 4.988 0 00-.598-1.263C23.602 7.37 24.579 7.08 24.96 7.08c.389 0 1.38.293 3.753 2.16a4.938 4.938 0 00-.59 1.25l-.833 2.662a5.014 5.014 0 00-.225 1.683 4.976 4.976 0 00-.774 1.512l-.823 2.634a5.026 5.026 0 00.095 3.259c.177.47.267.977.267 1.506 0 1.887-.385 2.487-.38 2.487l1.252 1.1c.242-.272.797-1.166.797-3.587z"/></g><defs><clipPath id="clip0"><path fill="#fff" d="M0 0h50v50H0z"/></clipPath></defs></svg>