<svg width="50" height="50" fill="none" xmlns="http://www.w3.org/2000/svg"><g clip-path="url(#clip0)" fill="#E31E24"><path d="M45.203.03a.732.732 0 00-.911.494l-1.678 5.644a.732.732 0 101.405.418L45.696.94a.732.732 0 00-.493-.91zM29.245 20.794a.483.483 0 01-.672-.001.732.732 0 10-1.023 1.048c.376.367.869.55 1.361.55.493 0 .986-.184 1.36-.552a.732.732 0 00-1.026-1.044zm-7.823 0a.482.482 0 01-.671-.001.732.732 0 10-1.024 1.048c.376.367.869.55 1.361.55.493 0 .986-.184 1.361-.552a.732.732 0 10-1.027-1.044z"/><path d="M42.529 9.028a.733.733 0 00-.911.493l-.96 3.227c-.187.629-.353 1.14-.5 1.59-.436 1.347-.7 2.162-.77 3.762-.033.411-.045.813-.057 1.201-.053 1.682-.095 3.01-1.65 4.264a.826.826 0 00-.04.035l-4.605 4.297a.586.586 0 01-.453.154.78.78 0 01-.549-.297c-.334-.42.038-1.007.213-1.239l2.566-3.39a2.279 2.279 0 001.236-.557c.46-.407.734-.967.77-1.575l.217-3.352a.732.732 0 00-1.462-.094l-.216 3.354a.821.821 0 01-.279.569.823.823 0 01-1.37-.672l.136-2.35c.124-2.162.683-3.51 1.87-4.51.093-.08.185-.15.281-.224.457-.35.93-.712 1.307-1.76l.147-.405a.866.866 0 00.014-.041L40.603.94a.732.732 0 10-1.404-.417L36.066 11.07l-.14.385a2.98 2.98 0 01-.196.444c-.61-1.13-1.507-2.121-2.644-2.916-.091-1.287-.582-2.489-1.404-3.42a5.174 5.174 0 00-.852-.771c-.246-1.764-1.327-3.168-3.075-3.98-2.713-1.26-6.466-.79-9.127 1.141-2.807 2.038-4.111 5.341-3.69 9.319-.145.324-.276.655-.391.992-.183-.178-.323-.393-.474-.81l-.14-.384L10.802.524a.732.732 0 10-1.404.417l3.139 10.566a.644.644 0 00.014.042l.146.402c.379 1.051.851 1.413 1.308 1.763.096.074.188.144.281.223 1.187 1.002 1.746 2.351 1.87 4.51l.136 2.35a.83.83 0 01-.773.88.833.833 0 01-.88-.777l-.212-3.352a.732.732 0 10-1.462.092l.213 3.353a2.301 2.301 0 002.01 2.13l2.563 3.392c.176.233.55.819.217 1.238a.786.786 0 01-.552.298.59.59 0 01-.455-.155l-4.6-4.296a.723.723 0 00-.041-.035c-1.557-1.254-1.598-2.58-1.65-4.261-.012-.39-.024-.792-.058-1.204-.069-1.596-.333-2.409-.77-3.753a66.936 66.936 0 01-.502-1.598L5.708.524a.733.733 0 00-1.404.417l3.631 12.225c.194.65.364 1.173.514 1.634.413 1.27.64 1.97.7 3.376l.001.028c.031.381.043.77.055 1.145.056 1.804.113 3.668 2.174 5.34l4.582 4.278a2.039 2.039 0 001.562.545l.067-.007a15.061 15.061 0 002.805 2.604v1.747l-.167.043c-3.785.967-10.828 2.767-11.148 8.104l-.327 6.391c-.022.375-.004.85.329 1.203.334.355.804.403 1.22.403h29.397c.415 0 .885-.048 1.22-.403.332-.352.35-.828.328-1.197l-.327-6.404c-.324-5.332-7.37-7.131-11.155-8.098l-.16-.04v-1.751a15.088 15.088 0 002.804-2.602l.066.007a2.032 2.032 0 001.561-.545l4.585-4.279c2.059-1.671 2.117-3.537 2.173-5.341a22.91 22.91 0 01.057-1.171c.06-1.409.274-2.07.701-3.386.149-.459.317-.978.51-1.624l.96-3.228a.732.732 0 00-.493-.91zm-9.561 1.721a6.583 6.583 0 011.652 2.2c-1.246 1.118-1.794 2.482-2.044 3.774a10.523 10.523 0 00-2.554-1.884c.35-.17.681-.382.989-.636 1.005-.83 1.685-2.049 1.957-3.454zm-13.48-7.61c2.251-1.635 5.397-2.045 7.65-.999.694.323 1.498.882 1.942 1.83a5.737 5.737 0 00-1.322-.185c-3.373-.079-6.464.848-8.935 2.68a12.401 12.401 0 00-2.452 2.409c.224-2.42 1.292-4.41 3.117-5.736zm-3.733 10.176c.068-.247.144-.49.228-.728a.735.735 0 00.144-.082c2.497-1.87 7.364-2.623 10.85-1.681a.732.732 0 10.382-1.414c-3.168-.857-7.236-.474-10.193.827 2.15-3.182 6.024-5.095 10.557-4.988.788.019 1.461.23 2.016.57.013.01.026.018.039.025 1.214.768 1.848 2.167 1.858 3.54-.008 1.534-.576 2.878-1.558 3.69-.829.685-1.866.936-2.998.724a.77.77 0 00-.06-.008A10.838 10.838 0 0025 13.6h-.001a10.69 10.69 0 00-7.575 3.122c-.224-1.154-.686-2.365-1.67-3.407zm23.702 28.762l.327 6.403.003.054-.088.001h-3.49v-4.228c0-.7-.569-1.27-1.269-1.27h-8.323a.732.732 0 100 1.465h8.128v4.033h-19.49v-4.033h7.982a.732.732 0 100-1.464h-8.18a1.27 1.27 0 00-1.267 1.269v4.228h-3.489l-.088-.001.003-.06.326-6.39c.256-4.263 6.386-5.83 10.048-6.765l.21-.054c.922-.233 1.06-.904 1.06-1.283v-.964c1.028.54 2.061.873 2.982.873.053 0 .105-.001.158-.004.052.002.105.004.158.004.92 0 1.953-.333 2.982-.874v.965c0 .379.137 1.049 1.055 1.282l.208.054c3.664.935 9.796 2.501 10.054 6.76zm-8.38-16.445c-.78 1.037-.853 2.2-.19 3.034.05.063.104.123.16.18-1.81 2.073-4.43 3.662-6.008 3.577a.738.738 0 00-.078 0c-1.58.084-4.2-1.504-6.01-3.576a2.28 2.28 0 00.162-.181c.664-.836.59-2-.194-3.035l-2.176-2.878a2.301 2.301 0 001.01-2.04l-.115-2.005c1.726-2.319 4.394-3.644 7.36-3.644H25c.597 0 1.182.055 1.75.16l.062.014c.034.007.069.012.104.018a8.961 8.961 0 015.446 3.454l-.115 2.003a2.302 2.302 0 001.01 2.04l-2.18 2.88z"/><path d="M25.98 26.837c-.514.314-1.448.314-1.96 0a.732.732 0 10-.765 1.25c.489.3 1.116.449 1.744.449.627 0 1.255-.15 1.744-.449a.732.732 0 10-.763-1.25z"/></g><defs><clipPath id="clip0"><path fill="#fff" d="M0 0h50v50H0z"/></clipPath></defs></svg>