<svg width="50" height="50" fill="none" xmlns="http://www.w3.org/2000/svg"><g clip-path="url(#clip0)"><path d="M38.216 1.746c-4.014 0-8.47 3.303-8.67 8.638-.062 1.659.681 3.372 1.468 5.186.279.644.559 1.296.81 1.953-2.318-.972-4.057-4.854-4.057-7.51a.888.888 0 10-1.779 0c0 3.616 2.586 8.876 6.247 9.46.066.08.147.143.237.195.018.083.037.167.052.25a9.795 9.795 0 00-7.425 5.61 9.797 9.797 0 00-7.618-5.639c.025-.139.06-.276.09-.415 3.72-.59 6.638-5.913 6.638-9.461a.888.888 0 10-1.778 0c0 2.714-1.961 6.308-4.212 7.402.24-.62.503-1.236.767-1.845.787-1.814 1.53-3.527 1.468-5.186-.2-5.335-4.656-8.638-8.67-8.638C5.286 1.746 0 10.523 0 21.31 0 32.1 5.286 40.876 11.784 40.876c2.394 0 6.852 0 8.62-5.041.7-1.995-.19-4.357-1.22-7.093-.823-2.187-1.742-4.65-1.826-7.075 3.868.562 6.85 3.89 6.85 7.911v17.787a.889.889 0 101.78 0V29.578c0-3.952 2.88-7.235 6.651-7.88-.091 2.415-1.005 4.867-1.825 7.045-1.03 2.735-1.919 5.097-1.219 7.093 1.77 5.041 6.226 5.041 8.62 5.041C44.713 40.877 50 32.1 50 21.312c0-10.789-5.286-19.566-11.783-19.566zm-19.49 33.5c-1.246 3.555-4.112 3.852-6.942 3.852-5.517 0-10.005-7.98-10.005-17.787 0-9.807 4.488-17.787 10.005-17.787 3.204 0 6.737 2.783 6.893 6.926.047 1.255-.618 2.79-1.323 4.413l-.215.5c-1.25-3.078-4.156-5.35-7.355-5.35a.888.888 0 100 1.779c3.198 0 6.111 3.15 6.215 6.66a12.2 12.2 0 00-.308 1.397h-5.019a.889.889 0 100 1.779h4.894c-.026 3.422-2.342 7.061-5.783 7.061a.888.888 0 100 1.779c2.966 0 5.287-1.98 6.538-4.554.356 1.203.787 2.363 1.199 3.455.87 2.31 1.692 4.491 1.207 5.877zm19.49 3.852c-2.829 0-5.694-.297-6.943-3.852-.485-1.386.337-3.567 1.206-5.877.412-1.093.844-2.253 1.2-3.457 1.396 2.666 4.068 4.556 6.986 4.556a.888.888 0 100-1.779c-3.258 0-6.226-3.266-6.226-6.851 0-.039-.017-.07-.021-.108l.007-.156h5.351a.889.889 0 100-1.778h-5.474a13.01 13.01 0 00-.433-1.806c.439-3.044 2.966-6.198 6.15-6.198a.889.889 0 100-1.779c-3.258 0-5.924 2.38-7.195 5.263l-.178-.413c-.705-1.623-1.37-3.158-1.323-4.413.156-4.143 3.69-6.926 6.893-6.926 5.517 0 10.005 7.98 10.005 17.787 0 9.808-4.488 17.787-10.005 17.787z" fill="#E31E24"/></g><defs><clipPath id="clip0"><path fill="#fff" d="M0 0h50v50H0z"/></clipPath></defs></svg>