<svg width="50" height="50" fill="none" xmlns="http://www.w3.org/2000/svg"><g clip-path="url(#clip0)" fill="#E31E24"><path d="M47.5 0h-45A2.583 2.583 0 000 2.652v36.363a2.583 2.583 0 002.5 2.652h14.485L15.32 45H12.5a2.5 2.5 0 000 5h25a2.5 2.5 0 000-5h-2.818l-1.667-3.333H47.5a2.583 2.583 0 002.5-2.652V2.652A2.583 2.583 0 0047.5 0zm-9.166 47.5c0 .46-.373.833-.834.833h-25a.833.833 0 010-1.666h25c.46 0 .834.373.834.833zM32.819 45H17.182l1.667-3.333h12.303L32.819 45zM47.5 40h-45a.93.93 0 01-.833-.985v-2.348H5A.833.833 0 005 35H1.667V2.652a.93.93 0 01.833-.985h45a.93.93 0 01.834.985V35h-40a.833.833 0 100 1.667h40v2.348A.93.93 0 0147.5 40z"/><path d="M4.167 8.333c.46 0 .833-.373.833-.833V5h2.5a.833.833 0 000-1.667H4.167a.833.833 0 00-.834.834V7.5c0 .46.373.833.834.833zM8.333 32.5a.833.833 0 00-.833-.833H5v-2.5a.833.833 0 00-1.667 0V32.5c0 .46.373.833.834.833H7.5c.46 0 .833-.373.833-.833zm37.5-4.167a.833.833 0 00-.833.834v2.5h-2.5a.833.833 0 000 1.666h3.333c.46 0 .834-.373.834-.833v-3.333a.833.833 0 00-.834-.834zM42.5 5H45v2.5a.833.833 0 001.667 0V4.167a.833.833 0 00-.834-.834H42.5A.833.833 0 0042.5 5zM6.673 21.704c.035.45.253.867.604 1.152 10.317 8.414 25.129 8.414 35.446 0 .35-.285.569-.702.605-1.152a1.702 1.702 0 00-.411-1.255L32.86 8.917a1.675 1.675 0 00-2.258-.25A9.452 9.452 0 0125 10.833a9.456 9.456 0 01-5.603-2.173 1.674 1.674 0 00-2.257.25L7.083 20.45a1.7 1.7 0 00-.41 1.254zm11.724-11.71c4.433 3.326 8.773 3.31 13.206.015L41.66 21.545l.008.02A26.417 26.417 0 0125 27.5a26.28 26.28 0 01-16.66-5.955L18.397 9.993z"/></g><defs><clipPath id="clip0"><path fill="#fff" d="M0 0h50v50H0z"/></clipPath></defs></svg>