<svg width="50" height="50" fill="none" xmlns="http://www.w3.org/2000/svg"><g clip-path="url(#clip0)" fill="#E31E24"><path d="M46.667 41.667a.833.833 0 000-1.667h-2.5V29.167a4.174 4.174 0 00-3.334-4.084v-2.5a.8.8 0 000-.166V12.5a.833.833 0 00-1.666 0v12.583a4.174 4.174 0 00-3.334 4.084V40h-2.5a.833.833 0 100 1.667h3.334V45a2.5 2.5 0 100 5h6.666a2.5 2.5 0 000-5v-3.333h3.334zm-9.167-12.5a2.5 2.5 0 015 0V30h-1.667a.833.833 0 100 1.667H42.5v1.666h-1.667a.833.833 0 100 1.667H42.5v1.667h-1.667a.833.833 0 100 1.666H42.5V40h-5V29.167zm5 17.5h.833a.833.833 0 010 1.666h-6.666a.833.833 0 010-1.666h.833c.46 0 .833-.373.833-.834v-4.166h3.334v4.166c0 .46.373.834.833.834zm-23.333.833a2.5 2.5 0 002.5 2.5h6.666a2.5 2.5 0 002.5-2.5V33.935c.514-.295.832-.842.834-1.435V30c0-.92-.747-1.667-1.667-1.667H20c-.92 0-1.667.747-1.667 1.667v2.5c.002.593.32 1.14.834 1.435V47.5zm10 0c0 .46-.373.833-.834.833h-6.666a.833.833 0 01-.834-.833V45H22.5a.833.833 0 100-1.667h-1.667v-1.666H22.5a.833.833 0 100-1.667h-1.667v-1.667H22.5a.833.833 0 100-1.666h-1.667v-2.5h8.334V47.5zM20 30h10v2.5H20V30zm5.833-13.333v-3.334a.833.833 0 00-1.666 0v3.334a.833.833 0 001.666 0zm8.627 6.6a.833.833 0 00-.33-1.592c-.015 0-1.534-.06-4.59-1.588l-.102-.05a10 10 0 00-8.877 0l-.1.05c-3.057 1.529-4.576 1.584-4.583 1.588a.833.833 0 00-.339 1.592 6.89 6.89 0 013.378 2.97.834.834 0 101.476-.775 7.79 7.79 0 00-2.26-2.597 22.388 22.388 0 003.073-1.282l.099-.05a8.328 8.328 0 017.39 0l.1.051c.989.504 2.015.934 3.068 1.286a7.79 7.79 0 00-2.26 2.597.834.834 0 001.477.775 6.889 6.889 0 013.38-2.975z"/><path d="M4.355 28.28c1.01 2.27 3.913 7.553 9.053 7.553a8.686 8.686 0 003.225-.6.833.833 0 10-.616-1.549 7.04 7.04 0 01-2.609.483c-4.158 0-6.653-4.59-7.53-6.565-2.558-5.732-2.243-11.645.842-15.815a7.93 7.93 0 016.852-3.432c1.191.1 2.638.727 3 1.867a3.274 3.274 0 01-1.23 3.316.833.833 0 00.539 1.47c.304 0 7.449-.065 7.449-5.008V1.667h3.333V10c0 4.943 7.145 5.008 7.45 5.008a.833.833 0 00.538-1.47 3.272 3.272 0 01-1.228-3.318c.363-1.138 1.81-1.764 3-1.865a7.942 7.942 0 016.854 3.432c2.679 3.625 3.278 8.619 1.642 13.699a.834.834 0 001.588.51c1.801-5.597 1.111-11.137-1.89-15.2-.174-.235-.367-.448-.556-.666a4.167 4.167 0 00-2.402-6.713c0-.029.008-.055.008-.084a3.333 3.333 0 10-6.667 0c0 .014 0 .028.004.042a3.73 3.73 0 00-2.822 5.6 3.463 3.463 0 00-.341.736 4.38 4.38 0 00.395 3.434c-1.69-.312-3.903-1.103-3.903-3.145V1.667c0-.92-.746-1.667-1.666-1.667h-3.334c-.92 0-1.666.746-1.666 1.667V10c0 2.042-2.213 2.833-3.902 3.145a4.38 4.38 0 00.396-3.432 3.464 3.464 0 00-.343-.737A3.73 3.73 0 0015 3.375v-.042a3.333 3.333 0 00-6.667 0c0 .029.007.055.008.084a4.167 4.167 0 00-2.406 6.712c-.188.219-.38.432-.555.667-3.448 4.66-3.83 11.197-1.025 17.484zM43.333 7.5a2.472 2.472 0 01-.464 1.433 9.77 9.77 0 00-3.707-1.945 3.696 3.696 0 00-.2-1.115 2.43 2.43 0 011.75-.865c.04 0 .08-.003.121-.008a2.5 2.5 0 012.5 2.5zm-5-5.833c.92 0 1.667.746 1.667 1.666 0 .033-.006.062-.008.093a4.094 4.094 0 00-1.962 1 3.713 3.713 0 00-1.34-.849 1.612 1.612 0 01-.023-.244c0-.92.746-1.666 1.666-1.666zM35.417 5a2.1 2.1 0 011.823 1.064 1 1 0 00.047.118 2 2 0 01.167.5 8.003 8.003 0 00-1.166.01 6.115 6.115 0 00-2.856 1 2.057 2.057 0 01-.099-.609c0-1.15.933-2.083 2.084-2.083zm-18.75 2.083a2.055 2.055 0 01-.1.608 6.118 6.118 0 00-2.856-1 7.994 7.994 0 00-1.167-.012 2 2 0 01.167-.5c.01-.022.026-.059.037-.09a2.127 2.127 0 011.434-1.054A1.87 1.87 0 0114.583 5a2.083 2.083 0 012.084 2.083zm-5-5.416c.92 0 1.666.746 1.666 1.666a1.595 1.595 0 01-.022.246 3.735 3.735 0 00-1.34.85 4.098 4.098 0 00-1.963-1c-.002-.034-.008-.063-.008-.096 0-.92.746-1.666 1.667-1.666zM9.182 5c.035.005.069.008.104.01a2.433 2.433 0 011.75.865c-.123.359-.19.735-.2 1.114a9.773 9.773 0 00-3.709 1.946 2.47 2.47 0 01-.46-1.435A2.51 2.51 0 019.182 5z"/><path d="M8.057 12.777a11.257 11.257 0 00-1.951 4.424.833.833 0 101.63.337 9.635 9.635 0 011.66-3.775 4.883 4.883 0 013.663-2.096.833.833 0 000-1.667 6.495 6.495 0 00-5.002 2.777z"/></g><defs><clipPath id="clip0"><path fill="#fff" d="M0 0h50v50H0z"/></clipPath></defs></svg>