<svg width="50" height="50" fill="none" xmlns="http://www.w3.org/2000/svg"><g clip-path="url(#clip0)" fill="#E31E24"><path d="M22.5 31.733h-.281c-.458-.87-.895-1.589-.925-1.639a.834.834 0 00-.711-.4h-.006a.833.833 0 00-.71.41c-.19.321-.557.96-.918 1.683C14.808 31.926 0 32.697 0 36.733v8.333c0 3.955 14.718 5 22.5 5 7.783 0 22.5-1.045 22.5-5v-8.333c0-3.955-14.717-5-22.5-5zm20.834 9.166c-.147 1.131-7.632 3.334-20.834 3.334S1.815 42.03 1.667 40.899v-2.092c4.067 2.259 14.641 2.926 20.833 2.926 6.192 0 16.767-.667 20.834-2.926v2.092zm-22.74-8.667c.362.644.676 1.312.94 2 .07.166.115.342.133.52.002.193-.044.382-.132.552a1.096 1.096 0 01-.507.5.93.93 0 01-.408.094l-.088.001a1.064 1.064 0 01-.887-.682 1.235 1.235 0 01-.083-.351v-.095a9.213 9.213 0 011.032-2.539zm-2.4 1.26c-.17.42-.273.863-.301 1.315a2.897 2.897 0 00.207 1.03 2.718 2.718 0 002.515 1.732h.019a2.583 2.583 0 001.13-.266 2.74 2.74 0 001.256-1.241c.21-.41.318-.863.314-1.323a3.344 3.344 0 00-.228-1.063c-.03-.084-.07-.18-.107-.272 12.885.056 20.19 2.213 20.335 3.329-.147 1.13-7.632 3.333-20.834 3.333S1.814 37.863 1.667 36.733c.109-.8 5.048-2.8 16.527-3.245v.004zM22.5 48.399c-13.2 0-20.685-2.202-20.833-3.333v-2.092C5.734 45.233 16.308 45.9 22.5 45.9c6.192 0 16.767-.667 20.834-2.926v2.092c-.147 1.13-7.632 3.333-20.834 3.333z"/><path d="M44.31 1.042l-4.234 4.233a2.483 2.483 0 00-3.316 3.326l-14.157 14.15a3.32 3.32 0 00-.926 2.858c-.54.06-1.043.298-1.433.677a.833.833 0 101.179 1.18.852.852 0 011.178 0 .832.832 0 010 1.178.833.833 0 101.178 1.179c.385-.387.63-.89.7-1.43a3.187 3.187 0 002.833-.93L41.476 13.31a2.485 2.485 0 003.314-3.32l4.234-4.235a3.333 3.333 0 000-4.713 3.41 3.41 0 00-4.714 0zM40.188 12.24l-3.568 3.566a19.383 19.383 0 01-6.786 2.076l8-8 2.354 2.358zM26.136 26.285a1.667 1.667 0 01-2.355-2.354l4.455-4.449a6.99 6.99 0 001.1.084 14.435 14.435 0 004.304-.777l-7.504 7.496zm16.996-14.636a.833.833 0 01-1.179 0l-3.53-3.53-.006-.006a.833.833 0 011.178-1.177l3.536 3.534a.834.834 0 01.001 1.179zm4.714-7.07l-4.124 4.124-1.18-1.18-1.178-1.178 4.125-4.125a1.706 1.706 0 012.357 0c.65.651.65 1.706 0 2.357v.001z"/></g><defs><clipPath id="clip0"><path fill="#fff" d="M0 0h50v50H0z"/></clipPath></defs></svg>