<svg width="50" height="50" fill="none" xmlns="http://www.w3.org/2000/svg"><g clip-path="url(#clip0)" fill="#E31E24"><path d="M43.456 21.86l-.294-.069.206-.22a2.052 2.052 0 00-.1-2.894l-.67-.624a2.015 2.015 0 00-1.466-.549 2.035 2.035 0 00-1.427.648l-2.037 2.183c-1.226-1.748-2.856-3.343-5.083-4.704.801-.143 1.452-.315 2.011-.634h4.598a3.343 3.343 0 003.34-3.34 3.343 3.343 0 00-3.34-3.34h-5.01c-.601-.286-1.321-.43-2.306-.44a.418.418 0 01-.387-.29c-.135-.393-.29-.778-.462-1.15l.769-.768a3.342 3.342 0 000-4.723c-1.262-1.262-3.461-1.263-4.724 0l-.9.901c-1.682-.495-3.45-.23-5.035.764-.134.086-.332.033-.442-.112-.402-.537-.888-1.138-1.566-1.483-.984-.5-2.447-.032-3.172.46-.662.451-.676 1.426-.492 2.753.067.484.226.979.377 1.458.096.3.236.741.293 1.035l.004.19c.002.054 0 .085.002.093-.019.025-.048.05-.072.076-.027.028-.05.056-.084.083-.031.026-.072.05-.11.074-.04.027-.078.055-.124.08-.044.025-.095.046-.143.069-.05.024-.097.048-.151.071-.057.023-.119.043-.18.065-.052.018-.102.04-.158.056-.071.022-.147.04-.222.06-.049.012-.096.027-.147.038a4.367 4.367 0 01-.263.047c-.04.007-.08.016-.12.022-.1.013-.2.02-.3.028-.027.001-.056.006-.082.007a3.215 3.215 0 01-.371-.003 7.871 7.871 0 00-.553-.017l-3.96-3.96c-.774-.773-2.124-.77-2.895 0l-.649.649a2.05 2.05 0 000 2.894l4.032 4.03c-.005.087-.01.174-.012.265-.061 2.612-.124 5.313-.994 7.6-.16.419-.309.85-.452 1.294-.122.37-.23.737-.333 1.104-.012.041-.026.079-.037.12l-.073.261c-.032.119-.07.24-.1.358l-.21.755.045-.011c-1.495 6.798.19 12.873 5.06 18.098 5.495 5.895 12.665 8.784 21.85 8.784 1.06 0 2.148-.039 3.263-.116 3.03-.21 4.871-2.156 4.928-5.208.041-2.211-.107-4.605-.438-7.112-.132-1-.245-2.008-.358-3.018-.31-2.777-.63-5.589-1.36-8.261l1.95.453a2.035 2.035 0 001.545-.255 2.04 2.04 0 00.911-1.275l.208-.891a2.048 2.048 0 00-1.528-2.46zM33.35 9.988h2.969a3.305 3.305 0 00-.464 1.67c0 .611.177 1.176.464 1.67h-2.97c-.92 0-1.67-.75-1.67-1.67 0-.921.75-1.67 1.67-1.67zm7.515 1.67c0 .92-.75 1.67-1.67 1.67-.921 0-1.67-.75-1.67-1.67 0-.921.749-1.67 1.67-1.67.92 0 1.67.749 1.67 1.67zM6.74 6.164a.37.37 0 01-.086-.139.374.374 0 01-.025-.128c0-.044.01-.087.025-.129a.372.372 0 01.086-.137l.649-.649a.375.375 0 01.531.001l4.483 4.483.377-.024c.22-.015.463-.015.73.003.142.009.295.01.456.005.096-.003.2-.013.3-.021.07-.006.136-.01.207-.018.105-.013.21-.03.318-.05.076-.012.15-.023.227-.039.1-.02.2-.046.301-.072.085-.022.17-.043.255-.069.093-.028.184-.06.276-.093a4.966 4.966 0 00.515-.216 3.788 3.788 0 00.474-.276 3.29 3.29 0 00.237-.181c.06-.051.12-.101.174-.156.025-.025.056-.046.08-.072 1.403 1.139 2.585 2.785 1.868 4.869-.813 2.361-5.136 6.098-9.365 7.662.101-.294.197-.588.311-.887.972-2.555 1.041-5.529 1.103-8.155a6.83 6.83 0 01.037-.542l.036-.39-4.58-4.58zm33.331 28.568c.114 1.022.227 2.041.362 3.051.321 2.425.464 4.734.424 6.862-.04 2.157-1.237 3.427-3.373 3.573-10.24.708-18.012-1.956-23.777-8.14C8.983 35.01 7.509 29.29 9.238 22.66c4.78-1.351 10.39-5.716 11.541-9.06.904-2.625-.168-5.157-3.01-7.17-.07-.409-.2-.831-.333-1.249-.131-.411-.266-.838-.315-1.18-.1-.734-.092-1.08-.075-1.233.48-.26 1.14-.356 1.329-.261.358.182.696.608.986.996.628.836 1.798 1.069 2.666.524 1.309-.82 2.714-.974 4.063-.443l.51.2 1.655-1.655a1.672 1.672 0 012.362 0c.65.65.65 1.71 0 2.36l-1.63 1.63.29.546c.246.462.46.955.634 1.464.182.534.566.958 1.047 1.2-.072.075-.13.161-.195.242-.063.079-.134.152-.191.237-.067.1-.116.208-.171.315-.044.084-.096.162-.132.248-.054.128-.087.264-.125.4-.02.075-.052.145-.067.222a3.306 3.306 0 00-.068.666c0 .248.032.488.084.721.016.076.046.146.068.22.045.154.094.305.16.447.038.082.083.156.126.233.071.127.146.248.23.364a3.954 3.954 0 00.472.508c.039.034.07.078.11.11a1.447 1.447 0 00-.686.996 1.463 1.463 0 00.72 1.548c2.243 1.293 3.86 2.826 5.052 4.535l.217.336c.023.035.044.072.068.107a16.46 16.46 0 011.73 3.63l.15.439h.005c.877 2.768 1.213 5.786 1.557 8.88zm3.287-10.793l-.207.892a.379.379 0 01-.453.282l-2.913-.68a18.558 18.558 0 00-1.192-2.642l2.334-2.498a.377.377 0 01.261-.12c.059.004.172.008.27.102l.67.623c.153.142.16.382.018.534l-2.175 2.331 3.105.722a.38.38 0 01.282.454z"/><path d="M36.226 36.847l-2.09 1.394a30.69 30.69 0 01-3.827-2.369h3.04a.834.834 0 100-1.67h-5.01c-.018 0-.033.01-.052.01-2.169-2.02-3.572-4.243-4.188-6.65a11.363 11.363 0 01-.324-3.516c.01-.007.023-.008.033-.015 1.467-1.025 3.178-1.022 5.092.005.677.362 1.362.85 2.038 1.437a.83.83 0 00-.093.378v3.34a.834.834 0 101.67 0v-2.138c.482.55.953 1.142 1.398 1.78a.835.835 0 101.37-.956 21.65 21.65 0 00-1.85-2.3l2.087-1.564a.833.833 0 10-1.001-1.335l-2.288 1.716c-.836-.75-1.693-1.375-2.543-1.831-1.992-1.07-3.909-1.24-5.623-.546.544-2.413 1.607-4.02 1.625-4.046a.836.836 0 00-1.38-.942c-.133.196-3.19 4.766-1.917 10.526a.814.814 0 00-.361.179c-3.695 3.315-3.83 9.238-.36 13.344l-.013 2.301a.835.835 0 00.83.84h.005c.46 0 .833-.37.835-.83l.01-1.675h1.66a.834.834 0 100-1.67h-2.004c-2.841-3.316-2.875-8.034-.113-10.802.863 2.361 2.405 4.538 4.622 6.513v4.29a.834.834 0 101.67 0V37.11a32.214 32.214 0 004.175 2.606v1.998a.834.834 0 101.67 0v-2.058l2.133-1.422a.834.834 0 10-.926-1.388z"/></g><defs><clipPath id="clip0"><path fill="#fff" d="M0 0h50v50H0z"/></clipPath></defs></svg>