<svg width="50" height="50" fill="none" xmlns="http://www.w3.org/2000/svg"><g clip-path="url(#clip0)" fill="#E31E24"><path d="M34.167 0c-8.745 0-15.834 7.089-15.834 15.833 0 8.745 7.09 15.834 15.834 15.834S50 24.577 50 15.833C49.99 7.093 42.907.01 34.167 0zm0 30C26.343 30 20 23.657 20 15.833S26.343 1.667 34.167 1.667s14.166 6.342 14.166 14.166c-.008 7.82-6.346 14.158-14.166 14.167z"/><path d="M3.538 39.777a5.417 5.417 0 004.67 6.863 6.243 6.243 0 0010.959.215 6.243 6.243 0 0010.958-.215 5.417 5.417 0 004.67-6.863A5.018 5.018 0 0038.334 35a4.622 4.622 0 00-.195-1.363.834.834 0 00-1.593.493c.084.282.125.575.122.87a3.34 3.34 0 01-3.078 3.32.834.834 0 00-.674 1.222c.277.527.42 1.113.418 1.708a3.754 3.754 0 01-3.75 3.75.833.833 0 00-.769.512 4.583 4.583 0 11-4.23-6.345.833.833 0 100-1.667A6.227 6.227 0 0020 39.515V26.35a.833.833 0 10-1.667 0v17.4a4.583 4.583 0 01-8.814 1.762A.833.833 0 008.75 45 3.754 3.754 0 015 41.25c-.003-.595.14-1.18.417-1.708a.833.833 0 00-.675-1.223A3.34 3.34 0 011.667 35c0-.778.275-1.532.778-2.127a6.211 6.211 0 003.805 1.295.833.833 0 100-1.667 4.583 4.583 0 01-3.018-8.032.942.942 0 00.255-.847 4.167 4.167 0 118.18-1.12.833.833 0 001.666-.001 5.833 5.833 0 00-5.546-5.82 2.917 2.917 0 011.661-4.013 2.917 2.917 0 013.885 2.75.833.833 0 101.667 0 4.588 4.588 0 00-3.135-4.345c2.972-1.795 4.476-1.788 5.157-1.57a.833.833 0 10.506-1.585c-2.028-.65-4.91.416-8.8 3.255a4.547 4.547 0 00-2.659 5.681 5.745 5.745 0 00-4.292 6.711 6.222 6.222 0 00-.507 8.12A4.954 4.954 0 000 35a5.018 5.018 0 003.538 4.777z"/><path d="M15.667 25.324a.833.833 0 00-1.179 0 4.583 4.583 0 01-7.821-3.24.833.833 0 00-1.667 0 6.257 6.257 0 004.79 6.07 2.926 2.926 0 01-2.383 1.829.833.833 0 10.185 1.656 4.61 4.61 0 003.908-3.318 6.195 6.195 0 004.167-1.821.833.833 0 000-1.176zM15 34.167a.833.833 0 000-1.667 5.84 5.84 0 00-5.833 5.833c0 .023.004.045.004.068a5.799 5.799 0 00-.838-.068.833.833 0 000 1.667 4.172 4.172 0 014.167 4.167.833.833 0 001.667 0 5.833 5.833 0 00-3.285-5.24 4.063 4.063 0 01-.049-.594A4.172 4.172 0 0115 34.167zm9.167-.834a.833.833 0 100 1.667 4.172 4.172 0 014.166 4.167 4.063 4.063 0 01-.048.594A5.833 5.833 0 0025 45a.833.833 0 001.667 0 4.172 4.172 0 014.166-4.167.833.833 0 100-1.666 5.8 5.8 0 00-.837.067c0-.022.004-.045.004-.067a5.84 5.84 0 00-5.833-5.834zM40.833 15h-1.871l-1.495-5.23a.82.82 0 00-.82-.603.833.833 0 00-.792.642L33.399 20.25 30.817 7.333a.833.833 0 00-1.634 0L27.65 15H22.5a.833.833 0 000 1.667h5.833A.833.833 0 0029.15 16l.85-4.25 2.517 12.583c.078.383.411.66.802.667h.014a.833.833 0 00.812-.642l2.6-11.051.788 2.755a.833.833 0 00.8.605h2.5a.833.833 0 100-1.667zm2.5.833c0 .46.373.834.834.834h1.666a.833.833 0 100-1.667h-1.666a.833.833 0 00-.834.833z"/></g><defs><clipPath id="clip0"><path fill="#fff" d="M0 0h50v50H0z"/></clipPath></defs></svg>