<svg width="50" height="50" fill="none" xmlns="http://www.w3.org/2000/svg"><path d="M25 0C11.2.016.016 11.2 0 25v22.5A2.5 2.5 0 002.5 50h45a2.5 2.5 0 002.5-2.5V25C49.984 11.2 38.8.016 25 0zM13.333 48.333v-9.166h23.334v9.166H13.333zM25 15a11.674 11.674 0 0110.09 17.5H14.91A11.673 11.673 0 0125 15zm14.167 19.167V37.5H10.833v-3.333h28.334zM48.333 47.5c0 .46-.373.833-.833.833h-9.167v-9.166h.834c.92 0 1.666-.747 1.666-1.667v-3.333c0-.92-.746-1.667-1.666-1.667h-2.189a13.327 13.327 0 10-23.956 0h-2.189c-.92 0-1.666.746-1.666 1.667V37.5c0 .92.746 1.667 1.666 1.667h.834v9.166H2.5a.833.833 0 01-.833-.833V25C1.667 12.113 12.113 1.667 25 1.667c12.887 0 23.333 10.446 23.333 23.333v22.5z" fill="#E31E24"/><path d="M4.167 44.167a.833.833 0 00-.834.833v.833a.833.833 0 001.667 0V45a.833.833 0 00-.833-.833zm0-20.834a.833.833 0 00-.834.834v17.5a.833.833 0 001.667 0v-17.5a.833.833 0 00-.833-.834z" fill="#E31E24"/></svg>