<?xml version="1.0" encoding="utf-8"?><svg viewBox="0 0 40 41" xmlns="http://www.w3.org/2000/svg" xmlns:xlink="http://www.w3.org/1999/xlink"><style>:root>svg{display:none}:root>svg:target{display:block}</style><svg viewBox="0 0 13 13" fill="none" id="arrow" xmlns="http://www.w3.org/2000/svg"><path d="M1.4 13 0 11.6 9.6 2H1V0h12v12h-2V3.4L1.4 13Z" fill="currentColor"/></svg><svg viewBox="0 0 40 41" fill="none" id="instagram" xmlns="http://www.w3.org/2000/svg"><path d="M20 4.102c5.344 0 5.977.023 8.078.117 1.953.086 3.008.414 3.711.687.93.36 1.602.797 2.297 1.492.703.704 1.133 1.368 1.492 2.297.274.703.602 1.766.688 3.711.093 2.11.117 2.742.117 8.078 0 5.344-.024 5.977-.117 8.078-.086 1.954-.414 3.008-.688 3.711a6.183 6.183 0 0 1-1.492 2.297c-.703.703-1.367 1.133-2.297 1.492-.703.274-1.766.602-3.71.688-2.11.094-2.743.117-8.079.117-5.344 0-5.977-.023-8.078-.117-1.953-.086-3.008-.414-3.711-.688a6.186 6.186 0 0 1-2.297-1.492c-.703-.703-1.133-1.367-1.492-2.297-.274-.703-.602-1.765-.688-3.71-.093-2.11-.117-2.743-.117-8.079 0-5.343.024-5.976.117-8.078.086-1.953.414-3.008.688-3.71.36-.93.797-1.602 1.492-2.298.703-.703 1.367-1.132 2.297-1.492.703-.273 1.766-.601 3.71-.687 2.102-.094 2.735-.117 8.079-.117ZM20 .5c-5.43 0-6.11.023-8.242.117-2.125.094-3.586.438-4.852.93-1.32.516-2.437 1.195-3.547 2.312C2.242 4.97 1.563 6.086 1.047 7.4.555 8.671.21 10.124.117 12.25.023 14.39 0 15.07 0 20.5s.023 6.11.117 8.242c.094 2.125.438 3.586.93 4.852.516 1.32 1.195 2.437 2.312 3.547a9.776 9.776 0 0 0 3.54 2.304c1.273.492 2.726.836 4.851.93 2.133.094 2.813.117 8.242.117 5.43 0 6.11-.023 8.242-.117 2.125-.094 3.586-.438 4.852-.93a9.776 9.776 0 0 0 3.539-2.304 9.775 9.775 0 0 0 2.305-3.54c.492-1.273.836-2.726.93-4.851.093-2.133.117-2.813.117-8.242 0-5.43-.024-6.11-.118-8.242-.093-2.125-.437-3.586-.93-4.852a9.368 9.368 0 0 0-2.288-3.555 9.775 9.775 0 0 0-3.54-2.304c-1.273-.492-2.726-.836-4.851-.93C26.11.523 25.43.5 20 .5Z" fill="currentColor"/><path d="M20 10.227c-5.672 0-10.273 4.601-10.273 10.273S14.328 30.773 20 30.773 30.273 26.172 30.273 20.5 25.672 10.227 20 10.227Zm0 16.937a6.665 6.665 0 0 1 0-13.328 6.665 6.665 0 0 1 0 13.328ZM33.078 9.82a2.399 2.399 0 1 1-2.398-2.398 2.404 2.404 0 0 1 2.398 2.398Z" fill="currentColor"/></svg><svg viewBox="0 0 24 28" fill="none" id="play" xmlns="http://www.w3.org/2000/svg"><path d="M24 14 0 27.856V.144L24 14Z" fill="#fff"/></svg><svg viewBox="0 0 38 38" fill="none" id="telegram" xmlns="http://www.w3.org/2000/svg"><path fill-rule="evenodd" clip-rule="evenodd" d="M38 19c0 10.493-8.507 19-19 19S0 29.493 0 19 8.507 0 19 0s19 8.507 19 19Zm-18.32-4.973c-1.847.768-5.54 2.36-11.08 4.772-.899.358-1.37.708-1.413 1.05-.072.578.652.806 1.638 1.116l.415.132c.97.316 2.275.685 2.954.7.615.012 1.302-.241 2.06-.762 5.175-3.493 7.847-5.259 8.014-5.297.119-.027.283-.06.394.038.111.099.1.286.088.336-.071.306-2.914 2.948-4.385 4.316-.458.426-.784.729-.85.798-.149.154-.3.3-.447.441-.901.87-1.577 1.52.038 2.585.776.51 1.396.934 2.016 1.356.676.46 1.351.92 2.224 1.492.222.146.435.297.642.444.787.562 1.494 1.066 2.368.985.507-.046 1.032-.524 1.298-1.947.63-3.365 1.867-10.656 2.153-13.66.025-.264-.007-.6-.032-.748-.025-.148-.078-.359-.27-.515-.228-.185-.58-.224-.737-.22-.714.012-1.81.393-7.087 2.588Z" fill="currentColor"/></svg><svg viewBox="0 0 40 41" fill="none" id="whatsapp" xmlns="http://www.w3.org/2000/svg"><path d="m0 40.5 2.812-10.272a19.779 19.779 0 0 1-2.645-9.91C.172 9.392 9.063.5 19.988.5A19.694 19.694 0 0 1 34.01 6.313a19.706 19.706 0 0 1 5.8 14.024c-.005 10.928-8.897 19.82-19.822 19.82a19.834 19.834 0 0 1-9.48-2.414L0 40.5Zm10.995-6.345c2.793 1.658 5.46 2.652 8.987 2.653 9.08 0 16.476-7.39 16.481-16.475.004-9.103-7.358-16.483-16.468-16.486-9.087 0-16.478 7.39-16.482 16.473-.001 3.708 1.085 6.485 2.91 9.39l-1.665 6.08 6.237-1.635Zm18.978-9.107c-.123-.206-.453-.33-.95-.578-.495-.248-2.93-1.447-3.385-1.612-.453-.165-.783-.248-1.115.249-.33.495-1.28 1.611-1.568 1.941-.288.33-.578.372-1.073.124-.495-.249-2.092-.77-3.984-2.459-1.471-1.313-2.466-2.935-2.755-3.431-.288-.495-.03-.764.217-1.01.223-.222.495-.579.743-.869.252-.286.334-.493.5-.825.165-.33.084-.62-.041-.868-.125-.247-1.115-2.685-1.527-3.677-.403-.965-.812-.835-1.115-.85l-.95-.016c-.33 0-.867.123-1.32.62-.453.496-1.733 1.693-1.733 4.131 0 2.439 1.775 4.794 2.021 5.124.249.33 3.492 5.333 8.46 7.478 1.182.51 2.105.815 2.824 1.043 1.186.377 2.266.324 3.12.197.951-.142 2.93-1.198 3.343-2.355.413-1.158.413-2.15.288-2.357Z" fill="currentColor"/></svg><svg viewBox="0 0 40 29" fill="none" id="youtube" xmlns="http://www.w3.org/2000/svg"><path d="M39.602 6.5s-.391-2.758-1.594-3.969C36.484.937 34.78.93 34 .836 28.406.43 20.008.43 20.008.43h-.016S11.594.43 6 .836C5.219.93 3.516.938 1.992 2.53.79 3.742.406 6.5.406 6.5S0 9.742 0 12.977v3.03c0 3.235.398 6.477.398 6.477s.391 2.758 1.586 3.97c1.524 1.593 3.524 1.538 4.414 1.71 3.204.305 13.602.398 13.602.398s8.406-.015 14-.414c.781-.093 2.484-.101 4.008-1.695 1.203-1.21 1.594-3.969 1.594-3.969S40 19.25 40 16.008v-3.031c0-3.235-.398-6.477-.398-6.477ZM15.867 19.688V8.444l10.805 5.64-10.805 5.602Z" fill="currentColor"/></svg></svg>