<svg viewBox="0 0 61 60" fill="none" xmlns="http://www.w3.org/2000/svg">
  <path fill-rule="evenodd" clip-rule="evenodd" d="M30.5001 0.0737305L30.756 0.166564L60.4317 10.935L60.4397 10.938L60.9302 11.116V11.6242C60.9305 11.6358 60.9305 11.6475 60.9302 11.6591V48.3586V48.8845L60.4357 49.0637L30.7745 59.8105L30.7646 59.8143C30.7554 59.8178 30.7461 59.8211 30.7368 59.8242L30.5001 59.9099L30.2613 59.8234C30.2502 59.8196 30.2392 59.8156 30.2283 59.8114L0.564542 49.0637L0.0700284 48.8845V48.3586V11.659C0.0697568 11.6475 0.0697555 11.6358 0.0700284 11.6242V11.116L0.560566 10.938L0.568573 10.9351L30.2443 0.166564L30.5001 0.0737305ZM31.2502 58.0427L59.4302 47.8326V12.7111L31.2502 22.9212V58.0427ZM29.7502 22.9213V58.0428L1.57003 47.8326V12.7111L29.7502 22.9213ZM30.5001 1.66943L42.0821 5.87221L15.142 15.6393C14.9949 15.6926 14.8746 15.7873 14.7895 15.9053L3.02022 11.6411L30.5001 1.66943ZM57.9801 11.6411L44.2816 6.67033L16.7999 16.6338L30.5001 21.5976L57.9801 11.6411ZM8.19471 33.1982C8.19471 31.3201 8.94874 29.8354 10.1199 28.9146C11.2928 27.9924 12.949 27.5852 14.8456 27.9954C18.6807 28.8249 21.8135 32.728 21.8135 36.6348C21.8135 38.5684 21.0551 40.0707 19.8889 40.9859C18.7219 41.9016 17.0721 42.288 15.1763 41.8407C11.323 40.9315 8.19471 37.0162 8.19471 33.1982ZM15.1627 26.5293C12.8778 26.0351 10.7543 26.5077 9.19281 27.7354C7.62967 28.9644 6.69471 30.8999 6.69471 33.1982C6.69471 37.7333 10.3224 42.2366 14.8319 43.3006C17.1176 43.8399 19.2475 43.3959 20.8149 42.1659C22.383 40.9353 23.3135 38.9763 23.3135 36.6348C23.3135 32.0242 19.6904 27.5086 15.1627 26.5293Z" fill="currentColor"/>
</svg>
