<svg viewBox="0 0 57 58" fill="none" xmlns="http://www.w3.org/2000/svg">
  <path d="M55.9205 28.9919C55.9205 31.3205 51.9182 33.0831 51.3623 35.2339C50.7747 37.4493 53.3635 41.0069 52.2517 42.9636C51.1241 44.9364 46.8042 44.4351 45.2318 46.036C43.6595 47.637 44.1518 52.0355 42.2142 53.1836C40.3083 54.3156 36.8143 51.6797 34.6225 52.278C32.5102 52.844 30.779 56.9191 28.492 56.9191C26.205 56.9191 24.4738 52.844 22.3615 52.278C20.1856 51.6797 16.6915 54.3156 14.7698 53.1836C12.8322 52.0355 13.3245 47.637 11.7522 46.036C10.1798 44.4351 5.8599 44.9364 4.73226 42.9636C3.62051 41.0231 6.2093 37.4654 5.62166 35.2339C5.06579 33.0831 1.06348 31.3205 1.06348 28.9919C1.06348 26.6633 5.06579 24.9006 5.62166 22.7499C6.2093 20.5345 3.62051 16.9769 4.73226 15.0202C5.8599 13.0473 10.1798 13.5486 11.7522 11.9477C13.3245 10.3468 12.8322 5.94827 14.7698 4.80013C16.6757 3.66816 20.1697 6.30403 22.3615 5.7057C24.4738 5.15589 26.205 1.08081 28.492 1.08081C30.779 1.08081 32.5102 5.15589 34.6225 5.72187C36.7984 6.3202 40.2925 3.68433 42.2142 4.8163C44.1518 5.96444 43.6595 10.3629 45.2318 11.9639C46.8042 13.5648 51.1241 13.0635 52.2517 15.0363C53.3635 16.9769 50.7747 20.5345 51.3623 22.7661C51.9182 24.9168 55.9205 26.6794 55.9205 29.008V28.9919Z" stroke="currentColor" stroke-width="1.5" stroke-miterlimit="10" stroke-linecap="round"/>
  <path d="M21.3452 26.8412C24.1258 26.8412 26.3798 24.5462 26.3798 21.7151C26.3798 18.8839 24.1258 16.5889 21.3452 16.5889C18.5646 16.5889 16.3105 18.8839 16.3105 21.7151C16.3105 24.5462 18.5646 26.8412 21.3452 26.8412Z" stroke="currentColor" stroke-width="1.5" stroke-miterlimit="10" stroke-linecap="round"/>
  <path d="M35.6548 41.4113C38.4353 41.4113 40.6894 39.1162 40.6894 36.2851C40.6894 33.454 38.4353 31.1589 35.6548 31.1589C32.8742 31.1589 30.6201 33.454 30.6201 36.2851C30.6201 39.1162 32.8742 41.4113 35.6548 41.4113Z" stroke="currentColor" stroke-width="1.5" stroke-miterlimit="10" stroke-linecap="round"/>
  <path d="M18.4546 39.5193L38.6885 18.9175" stroke="currentColor" stroke-width="1.5" stroke-miterlimit="10" stroke-linecap="round"/>
</svg>
