<svg width="56" height="54" viewBox="0 0 56 54" fill="none" xmlns="http://www.w3.org/2000/svg">
  <path d="M55.0224 8.41016L53.2527 17.8821C53.1684 18.3371 52.6965 18.6068 52.2583 18.4382L43.2246 14.9663" stroke="currentColor" stroke-width="1.5" stroke-miterlimit="10" stroke-linecap="round"/>
  <path d="M3.55054 18.2191C7.15728 8.17416 16.764 0.977539 28.0561 0.977539C39.3483 0.977539 48.955 8.17416 52.5617 18.2191" stroke="currentColor" stroke-width="1.5" stroke-miterlimit="10" stroke-linecap="round"/>
  <path d="M1.08984 45.5899L2.85951 36.118C2.94378 35.6629 3.41569 35.3933 3.85389 35.5618L12.8876 39.0337" stroke="currentColor" stroke-width="1.5" stroke-miterlimit="10" stroke-linecap="round"/>
  <path d="M52.5615 35.781C48.9548 45.8259 39.348 53.0226 28.0559 53.0226C16.7638 53.0226 7.15703 45.8259 3.55029 35.781" stroke="currentColor" stroke-width="1.5" stroke-miterlimit="10" stroke-linecap="round"/>
  <path d="M20.5562 34.3821H35.4887" stroke="currentColor" stroke-width="1.5" stroke-miterlimit="10" stroke-linecap="round"/>
  <path d="M20.5562 27.6236H26.6236C31.5112 27.6236 35.4887 23.663 35.4887 18.7585C35.4887 13.854 31.5281 9.89331 26.6236 9.89331V44.0899" stroke="currentColor" stroke-width="1.5" stroke-miterlimit="10" stroke-linecap="round"/>
</svg>
