<svg viewBox="0 0 77 46" fill="none" xmlns="http://www.w3.org/2000/svg">
  <path fill-rule="evenodd" clip-rule="evenodd" d="M3.31809 0.881104C2.39055 0.881104 1.63357 1.63808 1.63357 2.56562V31.0093H1.55438C0.705813 31.0093 0.0146484 31.7005 0.0146484 32.549V36.3397C0.0146484 37.1883 0.705813 37.8795 1.55438 37.8795H7.9512C8.36542 37.8795 8.7012 37.5437 8.7012 37.1295C8.7012 36.7153 8.36542 36.3795 7.9512 36.3795H1.55438C1.54579 36.3795 1.53644 36.3766 1.52696 36.3672C1.51749 36.3577 1.51465 36.3483 1.51465 36.3397V32.549C1.51465 32.5404 1.51749 32.5311 1.52696 32.5216C1.53644 32.5121 1.54579 32.5093 1.55438 32.5093H2.37421L2.38357 32.5094L2.39293 32.5093H9.41221C9.82642 32.5093 10.1622 32.1735 10.1622 31.7593C10.1622 31.3451 9.82642 31.0093 9.41221 31.0093H3.13357V2.56562C3.13357 2.46651 3.21898 2.3811 3.31809 2.3811H46.9244C47.0231 2.3811 47.1081 2.46571 47.1089 2.56421L47.1089 2.56562L46.9166 31.0093H27.4444C27.0302 31.0093 26.6944 31.3451 26.6944 31.7593C26.6944 32.1735 27.0302 32.5093 27.4444 32.5093H47.6522C47.6536 32.5093 47.655 32.5093 47.6564 32.5093C47.6613 32.5094 47.6662 32.5094 47.671 32.5093H53.4002C53.8144 32.5093 54.1502 32.1735 54.1502 31.7593C54.1502 31.3451 53.8144 31.0093 53.4002 31.0093H48.4166L48.5545 10.6206H57.0859V20.374C57.0859 21.9465 58.3562 23.2168 59.9287 23.2168H73.3269C73.3883 23.4744 73.4202 23.7396 73.4202 24.0068V31.0093H71.2218C70.8076 31.0093 70.4718 31.3451 70.4718 31.7593C70.4718 32.1735 70.8076 32.5093 71.2218 32.5093L73.4202 32.5093H74.1702H74.9862C75.2696 32.5093 75.4998 32.7395 75.4998 33.0229V35.8791C75.4998 36.1625 75.2696 36.3927 74.9862 36.3927H72.8013C72.3871 36.3927 72.0513 36.7284 72.0513 37.1427C72.0513 37.5569 72.3871 37.8927 72.8013 37.8927H74.9862C76.098 37.8927 76.9998 36.9909 76.9998 35.8791V33.0229C76.9998 31.9111 76.098 31.0093 74.9862 31.0093H74.9202V24.0068C74.9202 22.841 74.5012 21.7095 73.7567 20.8254L73.7566 20.8254L65.1091 10.5588L65.1049 10.5539C64.334 9.65457 63.2064 9.1206 62.0083 9.1206H57.9767C57.9311 9.11193 57.884 9.1074 57.8359 9.1074C57.7877 9.1074 57.7407 9.11193 57.695 9.1206H48.5646L48.6089 2.57069L48.6089 2.56562C48.6089 1.63808 47.852 0.881104 46.9244 0.881104H3.31809ZM58.5859 20.374V10.6206H62.0083C62.7572 10.6206 63.4714 10.9544 63.964 11.5278L63.966 11.5301L72.5463 21.7168H59.9287C59.1846 21.7168 58.5859 21.118 58.5859 20.374ZM18.3362 30.6666C14.7596 30.6666 11.8601 33.566 11.8601 37.1426C11.8601 40.7193 14.7596 43.6187 18.3362 43.6187C21.9128 43.6187 24.8122 40.7193 24.8122 37.1426C24.8122 33.566 21.9128 30.6666 18.3362 30.6666ZM10.3601 37.1426C10.3601 32.7376 13.9311 29.1666 18.3362 29.1666C22.7412 29.1666 26.3122 32.7376 26.3122 37.1426C26.3122 41.5477 22.7412 45.1187 18.3362 45.1187C13.9311 45.1187 10.3601 41.5477 10.3601 37.1426ZM62.4163 30.6666C58.8397 30.6666 55.9403 33.566 55.9403 37.1426C55.9403 40.7193 58.8397 43.6187 62.4163 43.6187C65.9929 43.6187 68.8924 40.7193 68.8924 37.1426C68.8924 33.566 65.9929 30.6666 62.4163 30.6666ZM54.4403 37.1426C54.4403 32.7376 58.0113 29.1666 62.4163 29.1666C66.8214 29.1666 70.3924 32.7376 70.3924 37.1426C70.3924 41.5477 66.8214 45.1187 62.4163 45.1187C58.0113 45.1187 54.4403 41.5477 54.4403 37.1426ZM27.9712 37.1426C27.9712 36.7284 28.3069 36.3926 28.7212 36.3926H52.0314C52.4456 36.3926 52.7814 36.7284 52.7814 37.1426C52.7814 37.5568 52.4456 37.8926 52.0314 37.8926H28.7212C28.3069 37.8926 27.9712 37.5568 27.9712 37.1426ZM62.4163 34.5099C60.9623 34.5099 59.7836 35.6886 59.7836 37.1426C59.7836 38.5966 60.9623 39.7753 62.4163 39.7753C63.8703 39.7753 65.049 38.5966 65.049 37.1426C65.049 35.6886 63.8703 34.5099 62.4163 34.5099ZM58.2836 37.1426C58.2836 34.8602 60.1339 33.0099 62.4163 33.0099C64.6987 33.0099 66.549 34.8602 66.549 37.1426C66.549 39.425 64.6987 41.2753 62.4163 41.2753C60.1339 41.2753 58.2836 39.425 58.2836 37.1426ZM15.7035 37.1426C15.7035 35.6886 16.8822 34.5099 18.3362 34.5099C19.7902 34.5099 20.9688 35.6886 20.9688 37.1426C20.9688 38.5966 19.7902 39.7753 18.3362 39.7753C16.8822 39.7753 15.7035 38.5966 15.7035 37.1426ZM18.3362 33.0099C16.0537 33.0099 14.2035 34.8602 14.2035 37.1426C14.2035 39.425 16.0537 41.2753 18.3362 41.2753C20.6186 41.2753 22.4688 39.425 22.4688 37.1426C22.4688 34.8602 20.6186 33.0099 18.3362 33.0099Z" fill="currentColor"/>
</svg>
