<svg width="1920" height="1091" viewBox="0 0 1920 1091" fill="none" xmlns="http://www.w3.org/2000/svg">
<mask id="mask0_1602_2899" style="mask-type:alpha" maskUnits="userSpaceOnUse" x="0" y="0" width="1920" height="1091">
<rect width="1920" height="1091" fill="#D9D9D9"/>
</mask>
<g mask="url(#mask0_1602_2899)">
<rect opacity="0.05" x="-171.437" y="307.144" width="2142.19" height="705.189" transform="rotate(-10.4262 -171.437 307.144)" fill="url(#paint0_linear_1602_2899)"/>
<path opacity="0.1" d="M-661.177 820.172L-664.217 865.786C-61.167 4.96994 666.282 1197.83 1293.16 842.351C662.849 1162.15 -59.1431 -7.20514 -661.177 820.172Z" fill="url(#paint1_linear_1602_2899)"/>
<rect opacity="0.1" x="821.952" y="621.305" width="1139.6" height="366.732" transform="rotate(-10.1091 821.952 621.305)" fill="url(#paint2_linear_1602_2899)"/>
<path opacity="0.1" d="M1916.53 304.235L1920 258.651C1285.93 1115.28 543.562 -90.9146 -111.675 258.091C546.326 -54.7984 1283.78 1127.29 1916.53 304.235Z" fill="url(#paint3_linear_1602_2899)"/>
</g>
<defs>
<linearGradient id="paint0_linear_1602_2899" x1="1751.35" y1="428.375" x2="-317.815" y2="639.746" gradientUnits="userSpaceOnUse">
<stop stop-color="#5A4499"/>
<stop offset="1" stop-color="#8996FF"/>
</linearGradient>
<linearGradient id="paint1_linear_1602_2899" x1="-732.707" y1="774.45" x2="1374.13" y2="777.214" gradientUnits="userSpaceOnUse">
<stop stop-color="#1F7AFF"/>
<stop offset="1" stop-color="#1F37FF" stop-opacity="0.15"/>
</linearGradient>
<linearGradient id="paint2_linear_1602_2899" x1="1722.63" y1="639.369" x2="793.292" y2="757.832" gradientUnits="userSpaceOnUse">
<stop stop-color="#4581F7" stop-opacity="0.61"/>
<stop offset="0.862691" stop-color="#4581F7" stop-opacity="0"/>
</linearGradient>
<linearGradient id="paint3_linear_1602_2899" x1="1990.46" y1="350.84" x2="-196.239" y2="332.887" gradientUnits="userSpaceOnUse">
<stop stop-color="#1F7AFF"/>
<stop offset="1" stop-color="#1F37FF" stop-opacity="0.15"/>
</linearGradient>
</defs>
</svg>
