<svg width="16" height="16" viewBox="0 0 16 16" fill="none" xmlns="http://www.w3.org/2000/svg">
<path d="M2.66666 0H4.66666C6.13941 0 7.33331 1.19391 7.33331 2.66666V4.66666C7.33331 6.13941 6.13941 7.33331 4.66666 7.33331H2.66666C1.19391 7.33334 0 6.13944 0 4.66666V2.66666C0 1.19391 1.19391 0 2.66666 0Z" fill="currentColor"/>
<path d="M11.3327 0H13.3327C14.8054 0 15.9993 1.19391 15.9993 2.66666V4.66666C15.9993 6.13941 14.8054 7.33331 13.3327 7.33331H11.3327C9.85992 7.33331 8.66602 6.13941 8.66602 4.66666V2.66666C8.66598 1.19391 9.85989 0 11.3327 0Z" fill="currentColor"/>
<path d="M2.66666 8.66675H4.66666C6.13941 8.66675 7.33331 9.86065 7.33331 11.3334V13.3334C7.33331 14.8062 6.13941 16.0001 4.66666 16.0001H2.66666C1.19391 16.0001 0 14.8062 0 13.3334V11.3334C0 9.86065 1.19391 8.66675 2.66666 8.66675Z" fill="currentColor"/>
<path d="M11.3327 8.66675H13.3327C14.8054 8.66675 15.9993 9.86065 15.9993 11.3334V13.3334C15.9993 14.8062 14.8054 16.0001 13.3327 16.0001H11.3327C9.85992 16.0001 8.66602 14.8062 8.66602 13.3334V11.3334C8.66598 9.86065 9.85989 8.66675 11.3327 8.66675Z" fill="currentColor"/>
</svg>
