<svg width="16" height="16" viewBox="0 0 16 16" fill="none" xmlns="http://www.w3.org/2000/svg">
<path d="M14.7296 3.83675L10.5665 7.99992L14.7296 12.1631C15.4395 12.873 15.4395 14.0205 14.7296 14.7304C14.3756 15.0844 13.9108 15.2623 13.446 15.2623C12.9812 15.2623 12.5164 15.0844 12.1624 14.7304L7.99919 10.5672L3.83602 14.7304C3.48197 15.0844 3.01718 15.2623 2.55238 15.2623C2.08759 15.2623 1.6228 15.0844 1.26875 14.7304C0.558853 14.0205 0.558853 12.873 1.26875 12.1631L5.43193 7.99992L1.26875 3.83675C0.558853 3.12685 0.558853 1.97939 1.26875 1.26949C1.97865 0.559585 3.12612 0.559585 3.83602 1.26949L7.99919 5.43266L12.1624 1.26949C12.8723 0.559585 14.0197 0.559585 14.7296 1.26949C15.4395 1.97939 15.4395 3.12685 14.7296 3.83675Z" fill="currentColor"/>
</svg>
