<svg width="26" height="20" viewBox="0 0 26 20" fill="none" xmlns="http://www.w3.org/2000/svg">
<path d="M23 0H3C1.3 0 0 1.3 0 3V17C0 18.7 1.3 20 3 20H23C24.7 20 26 18.7 26 17V3C26 1.3 24.7 0 23 0ZM21.7 14.2C22.1 14.6 22.2 15.2 21.8 15.6C21.6 15.9 21.3 16 21 16C20.8 16 20.5 15.9 20.3 15.8L15.2 11.4L13.6 12.8C13.5 12.9 13.2 13 13 13C12.8 13 12.5 12.9 12.3 12.8L10.7 11.4L5.6 15.8C5.5 15.9 5.2 16 5 16C4.7 16 4.4 15.9 4.2 15.7C3.8 15.3 3.9 14.7 4.3 14.3L9.2 10.1L4.3 5.9C3.9 5.5 3.8 4.9 4.2 4.5C4.6 4.1 5.2 4 5.6 4.4L12.9 10.8L20.2 4.4C20.6 4 21.2 4.1 21.6 4.5C22 4.9 21.9 5.5 21.5 5.9L16.8 10L21.7 14.2Z" fill="currentColor"/>
</svg>
