<svg width="24" height="24" viewBox="0 0 24 24" fill="none" xmlns="http://www.w3.org/2000/svg">
  <g clip-path="url(#clip0_3_304)">
    <path d="M17.25 0H6.75C3 0 0 3 0 6.75V17.25C0 21 3 24 6.75 24H12V15H9C8.55 15 8.25 14.7 8.25 14.25V12C8.25 11.55 8.55 11.25 9 11.25H12V9C12 6.525 13.275 4.5 15.75 4.5H18.75C19.2 4.5 19.5 4.8 19.5 5.25V7.5C19.5 7.95 19.2 8.25 18.75 8.25H15.9C15.825 8.25 15.75 8.325 15.75 8.4V11.25H19.5C19.725 11.25 19.95 11.4 20.1 11.55C20.25 11.7 20.25 12 20.175 12.225L18.675 14.475C18.6 14.85 18.3 15 18 15H15.75V24H17.25C21 24 24 21 24 17.25V6.75C24 3 21 0 17.25 0Z" fill="currentColor"/>
  </g>
  <defs>
    <clipPath id="clip0_3_304">
      <rect width="24" height="24" fill="white"/>
    </clipPath>
  </defs>
</svg>
