<svg width="24" height="28" viewBox="0 0 24 28" fill="none" xmlns="http://www.w3.org/2000/svg">
<path fill-rule="evenodd" clip-rule="evenodd" d="M12.6823 27.1684C15.2246 25.8785 24 20.8168 24 12.405C24 5.92206 18.6274 0.666626 12 0.666626C5.37259 0.666626 0 5.92206 0 12.405C0 20.8168 8.77543 25.8785 11.3177 27.1684C11.7511 27.3883 12.2489 27.3883 12.6823 27.1684ZM12 17.4357C14.8404 17.4357 17.1429 15.1834 17.1429 12.405C17.1429 9.62657 14.8404 7.37424 12 7.37424C9.1596 7.37424 6.85714 9.62657 6.85714 12.405C6.85714 15.1834 9.1596 17.4357 12 17.4357Z" fill="currentColor"/>
</svg>
