<svg width="20" height="20" viewBox="0 0 20 20" fill="none" xmlns="http://www.w3.org/2000/svg">
  <path d="M0.00588592 2.54166C-0.0950041 1.11236 1.11531 0 2.54522 0H5.60606C6.34006 0 7.00207 0.44226 7.28438 1.1212L8.5643 4.19946C8.8761 4.94932 8.6548 5.81544 8.0218 6.32292L7.22394 6.96254C6.86788 7.24798 6.74683 7.74018 6.95794 8.1448C8.0429 10.2241 9.6464 11.9888 11.5964 13.2667C12.008 13.5364 12.5517 13.4291 12.8588 13.0445L13.6902 12.003C14.1966 11.3687 15.0609 11.147 15.8092 11.4594L18.8811 12.742C19.5587 13.0249 20 13.6883 20 14.4238V17.5C20 18.9329 18.8489 20.0955 17.4226 19.9941C8.3021 19.3452 0.652466 11.7017 0.00588592 2.54166Z" fill="currentColor"/>
</svg>
