<svg width="24" height="24" viewBox="0 0 24 24" fill="none" xmlns="http://www.w3.org/2000/svg">
<path fill-rule="evenodd" clip-rule="evenodd" d="M24 12L23.9982 12L23.9928 12.0001L23.9838 12.0003L23.9712 12.0007L23.9551 12.0015L23.9353 12.0025L23.9121 12.0041L23.8852 12.0061L23.8549 12.0087L23.821 12.0119L23.7837 12.0158L23.743 12.0205L23.6988 12.0261L23.6512 12.0326L23.6003 12.04L23.546 12.0485L23.4885 12.0581L23.4277 12.0688L23.3637 12.0808L23.2966 12.0941L23.2264 12.1087L23.1531 12.1247L23.0767 12.1421L22.9975 12.1611L22.9153 12.1817L22.8302 12.2038L22.7424 12.2277L22.6519 12.2532L22.5587 12.2805L22.4629 12.3097L22.3645 12.3406L22.2637 12.3735L22.1604 12.4083L22.0549 12.445L21.9471 12.4838L21.8371 12.5246L21.7249 12.5674L21.6108 12.6123L21.4946 12.6594L21.3766 12.7086L21.2568 12.76L21.1352 12.8135L21.012 12.8693L20.8873 12.9273L20.761 12.9875L20.6334 13.0499L20.5044 13.1146L20.3742 13.1816L20.2429 13.2508L20.1104 13.3223L19.977 13.3961L19.8428 13.4721L19.7076 13.5503L19.5718 13.6308L19.4354 13.7136L19.2983 13.7985L19.1608 13.8857L19.023 13.975L18.8848 14.0665L18.7464 14.1602L18.6079 14.256L18.4693 14.3539L18.3308 14.4538L18.1924 14.5558L18.0542 14.6598L17.9163 14.7657L17.7787 14.8736L17.6416 14.9833L17.505 15.0949L17.369 15.2083L17.2337 15.3234L17.0991 15.4403L16.9654 15.5588L16.8325 15.6789L16.7007 15.8005L16.5698 15.9236L16.4401 16.0482L16.3115 16.1741L16.1842 16.3013L16.0582 16.4298L15.9335 16.5594L15.8103 16.6902L15.6885 16.822L15.5683 16.9548L15.4497 17.0885L15.3327 17.223L15.2174 17.3582L15.1039 17.4942L14.9922 17.6307L14.8823 17.7678L14.7742 17.9053L14.6681 18.0432L14.564 18.1814L14.4619 18.3198L14.3618 18.4583L14.2637 18.5969L14.1678 18.7354L14.0739 18.8738L13.9822 19.012L13.8927 19.1499L13.8054 19.2874L13.7203 19.4245L13.6373 19.561L13.5567 19.6969L13.4782 19.832L13.402 19.9664L13.3281 20.0999L13.2564 20.2324L13.187 20.3638L13.1199 20.4941L13.055 20.6232L12.9924 20.7509L12.932 20.8773L12.8738 21.0022L12.8179 21.1255L12.7642 21.2472L12.7126 21.3671L12.6633 21.4853L12.616 21.6016L12.5709 21.7159L12.5279 21.8282L12.487 21.9384L12.448 22.0464L12.4111 22.1521L12.3762 22.2555L12.3432 22.3566L12.3121 22.4551L12.2828 22.5511L12.2554 22.6446L12.2297 22.7353L12.2057 22.8234L12.1834 22.9086L12.1627 22.991L12.1436 23.0705L12.126 23.1471L12.1099 23.2206L12.0952 23.2911L12.0818 23.3585L12.0697 23.4228L12.0589 23.4838L12.0492 23.5416L12.0407 23.5961L12.0331 23.6473L12.0266 23.6951L12.021 23.7396L12.0162 23.7806L12.0122 23.8182L12.0089 23.8523L12.0063 23.883L12.0042 23.9101L12.0027 23.9336L12.0015 23.9536L12.0008 23.9701L12.0003 23.983L12.0001 23.9922L12 23.9979L11.9999 23.9934L11.9997 23.9847L11.9993 23.9724L11.9985 23.9565L11.9975 23.937L11.996 23.914L11.994 23.8875L11.9915 23.8574L11.9883 23.8239L11.9844 23.7868L11.9798 23.7464L11.9743 23.7024L11.9679 23.6551L11.9606 23.6045L11.9522 23.5505L11.9427 23.4932L11.932 23.4327L11.9201 23.369L11.907 23.3021L11.8925 23.2321L11.8766 23.159L11.8592 23.0829L11.8404 23.0039L11.82 22.9219L11.7979 22.8371L11.7742 22.7495L11.7488 22.6592L11.7216 22.5662L11.6927 22.4706L11.6618 22.3724L11.6291 22.2718L11.5945 22.1688L11.5579 22.0634L11.5193 21.9557L11.4787 21.8459L11.436 21.7339L11.3912 21.6199L11.3444 21.504L11.2953 21.3861L11.2441 21.2664L11.1907 21.145L11.1352 21.0219L11.0774 20.8973L11.0173 20.7711L10.9551 20.6436L10.8905 20.5147L10.8238 20.3846L10.7547 20.2534L10.6834 20.121L10.6098 19.9877L10.534 19.8535L10.4559 19.7184L10.3756 19.5827L10.2931 19.4462L10.2083 19.3093L10.1213 19.1718L10.0321 19.0339L9.94076 18.8958L9.84727 18.7574L9.75165 18.6189L9.65394 18.4804L9.55416 18.3418L9.45234 18.2034L9.34853 18.0652L9.24274 17.9272L9.13503 17.7897L9.02543 17.6525L8.91398 17.5159L8.80073 17.3798L8.68573 17.2445L8.56902 17.1098L8.45066 16.976L8.3307 16.8431L8.20918 16.7111L8.08618 16.5802L7.96174 16.4504L7.83592 16.3217L7.7088 16.1943L7.58043 16.0681L7.45087 15.9434L7.3202 15.82L7.18848 15.6981L7.05578 15.5778L6.92217 15.459L6.78773 15.3419L6.65252 15.2265L6.51663 15.1129L6.38013 15.001L6.2431 14.8909L6.10561 14.7828L5.96774 14.6765L5.82958 14.5722L5.6912 14.4699L5.55269 14.3696L5.41413 14.2714L5.2756 14.1753L5.13719 14.0813L4.99898 13.9895L4.86105 13.8998L4.7235 13.8122L4.58639 13.7269L4.44983 13.6438L4.31389 13.563L4.17867 13.4844L4.04424 13.408L3.91069 13.3339L3.77811 13.2621L3.64658 13.1925L3.51619 13.1251L3.38702 13.0601L3.25915 12.9973L3.13268 12.9367L3.00767 12.8784L2.88422 12.8223L2.7624 12.7684L2.6423 12.7166L2.52399 12.6671L2.40756 12.6197L2.29308 12.5744L2.18062 12.5312L2.07027 12.4901L1.96209 12.4511L1.85617 12.414L1.75256 12.3789L1.65135 12.3457L1.5526 12.3145L1.45637 12.2851L1.36274 12.2575L1.27176 12.2316L1.18351 12.2075L1.09803 12.1851L1.01539 12.1643L0.93565 12.1451L0.858857 12.1274L0.785067 12.1111L0.71433 12.0963L0.646697 12.0828L0.582212 12.0706L0.520923 12.0597L0.462869 12.0499L0.408093 12.0413L0.356632 12.0337L0.308521 12.0271L0.263795 12.0214L0.222485 12.0165L0.184619 12.0125L0.150223 12.0091L0.119323 12.0065L0.0919382 12.0043L0.0680893 12.0028L0.0477925 12.0016L0.0310621 12.0008L0.0179096 12.0003L0.00834444 12.0001L0.00237317 12L0 12L0.00122659 11.9999L0.0060521 11.9999L0.0144731 11.9997L0.0264838 11.9993L0.0420757 11.9986L0.0612379 11.9976L0.083957 11.9961L0.110217 11.9942L0.14 11.9917L0.173285 11.9886L0.210048 11.9848L0.250265 11.9802L0.293906 11.9748L0.340942 11.9684L0.391339 11.9612L0.445064 11.9529L0.502078 11.9434L0.562341 11.9329L0.625812 11.9211L0.692448 11.9081L0.762201 11.8937L0.835024 11.8779L0.910866 11.8607L0.989675 11.8419L1.0714 11.8216L1.15598 11.7997L1.24335 11.7761L1.33347 11.7509L1.42626 11.7238L1.52167 11.695L1.61962 11.6643L1.72006 11.6318L1.82291 11.5973L1.9281 11.5609L2.03557 11.5224L2.14524 11.482L2.25703 11.4395L2.37088 11.3949L2.4867 11.3481L2.60442 11.2993L2.72396 11.2483L2.84524 11.1951L2.96818 11.1396L3.0927 11.082L3.21871 11.0222L3.34615 10.9601L3.47491 10.8957L3.60492 10.8291L3.73609 10.7603L3.86835 10.6891L4.0016 10.6158L4.13576 10.5401L4.27074 10.4622L4.40646 10.3821L4.54283 10.2997L4.67977 10.2151L4.81719 10.1283L4.95501 10.0393L5.09314 9.94809L5.2315 9.85476L5.37 9.75932L5.50856 9.66177L5.64709 9.56215L5.78552 9.4605L5.92376 9.35684L6.06173 9.25121L6.19935 9.14365L6.33654 9.03419L6.47322 8.92289L6.60931 8.80978L6.74474 8.69492L6.87943 8.57835L7.01332 8.46011L7.14631 8.34027L7.27835 8.21888L7.40937 8.09599L7.53929 7.97166L7.66804 7.84596L7.79557 7.71894L7.92181 7.59066L8.04669 7.46119L8.17016 7.33061L8.29216 7.19897L8.41262 7.06634L8.5315 6.93281L8.64874 6.79843L8.76429 6.66328L8.8781 6.52744L8.99013 6.39098L9.10032 6.25399L9.20864 6.11653L9.31504 5.97869L9.41949 5.84055L9.52195 5.70219L9.62238 5.56368L9.72076 5.42512L9.81704 5.28659L9.91122 5.14817L10.0032 5.00993L10.0931 4.87198L10.1808 4.73439L10.2663 4.59725L10.3496 4.46064L10.4306 4.32465L10.5094 4.18936L10.5859 4.05487L10.6602 3.92124L10.7322 3.78858L10.802 3.65697L10.8695 3.52648L10.9347 3.39721L10.9977 3.26924L11.0585 3.14265L11.117 3.01752L11.1733 2.89394L11.2274 2.77199L11.2793 2.65175L11.329 2.5333L11.3765 2.41671L11.422 2.30207L11.4653 2.18945L11.5066 2.07892L11.5458 1.97057L11.5831 1.86446L11.6183 1.76067L11.6516 1.65927L11.683 1.56031L11.7126 1.46389L11.7403 1.37004L11.7663 1.27886L11.7906 1.19038L11.8131 1.10468L11.834 1.02181L11.8534 0.941838L11.8712 0.864808L11.8876 0.790777L11.9025 0.719795L11.9161 0.651912L11.9284 0.587176L11.9394 0.52563L11.9493 0.467317L11.958 0.412278L11.9657 0.360551L11.9724 0.312173L11.9781 0.267176L11.983 0.225592L11.9872 0.187451L11.9906 0.152778L11.9933 0.121598L11.9954 0.0939328L11.9971 0.0698016L11.9983 0.0492214L11.9991 0.0322064L11.9996 0.0187686L11.9998 0.00891747L12 0.0026598L12 0L12 0.00547895L12.0002 0.0136139L12.0006 0.025339L12.0013 0.0406461L12.0023 0.0595245L12.0037 0.081961L12.0056 0.10794L12.008 0.137443L12.0111 0.17045L12.0148 0.206937L12.0194 0.24688L12.0247 0.29025L12.031 0.337016L12.0382 0.387148L12.0464 0.440609L12.0557 0.497362L12.0662 0.557369L12.0778 0.620586L12.0908 0.686972L12.1051 0.756478L12.1207 0.829059L12.1379 0.904663L12.1565 0.983238L12.1766 1.06473L12.1984 1.14908L12.2219 1.23624L12.247 1.32614L12.2739 1.41872L12.3026 1.51392L12.3331 1.61168L12.3655 1.71192L12.3998 1.81458L12.4361 1.91959L12.4743 2.02688L12.5146 2.13637L12.557 2.248L12.6014 2.36169L12.648 2.47736L12.6967 2.59493L12.7475 2.71432L12.8006 2.83547L12.8558 2.95828L12.9132 3.08268L12.9729 3.20858L13.0348 3.3359L13.099 3.46456L13.1654 3.59448L13.2341 3.72556L13.305 3.85773L13.3782 3.99091L13.4537 4.125L13.5314 4.25992L13.6114 4.39558L13.6936 4.53191L13.778 4.6688L13.8647 4.80619L13.9535 4.94398L14.0445 5.08209L14.1377 5.22043L14.2329 5.35893L14.3303 5.49748L14.4298 5.63602L14.5313 5.77446L14.6348 5.91272L14.7402 6.05071L14.8476 6.18836L14.9569 6.32559L15.0681 6.46231L15.1811 6.59846L15.2958 6.73394L15.4122 6.8687L15.5303 7.00265L15.65 7.13572L15.7713 7.26784L15.8941 7.39894L16.0183 7.52895L16.1439 7.6578L16.2708 7.78543L16.399 7.91177L16.5284 8.03676L16.6589 8.16035L16.7904 8.28246L16.923 8.40305L17.0564 8.52206L17.1908 8.63943L17.3258 8.75512L17.4616 8.86907L17.598 8.98124L17.735 9.09158L17.8724 9.20005L18.0102 9.30661L18.1484 9.41122L18.2867 9.51383L18.4252 9.61443L18.5638 9.71297L18.7023 9.80942L18.8407 9.90377L18.979 9.99597L19.117 10.086L19.2546 10.1739L19.3918 10.2595L19.5284 10.343L19.6645 10.4242L19.7998 10.5032L19.9344 10.5799L20.0681 10.6544L20.2008 10.7266L20.3325 10.7965L20.4631 10.8642L20.5924 10.9296L20.7205 10.9928L20.8472 11.0537L20.9725 11.1124L21.0962 11.1689L21.2183 11.2231L21.3386 11.2752L21.4572 11.3251L21.574 11.3728L21.6888 11.4184L21.8016 11.4619L21.9123 11.5034L22.0208 11.5428L22.1271 11.5802L22.2311 11.6156L22.3326 11.649L22.4318 11.6806L22.5284 11.7103L22.6225 11.7382L22.7139 11.7643L22.8026 11.7887L22.8885 11.8114L22.9716 11.8324L23.0518 11.8519L23.1291 11.8698L23.2033 11.8863L23.2746 11.9014L23.3427 11.915L23.4077 11.9274L23.4695 11.9386L23.5281 11.9485L23.5834 11.9573L23.6353 11.9651L23.684 11.9719L23.7293 11.9777L23.7711 11.9827L23.8095 11.9868L23.8445 11.9903L23.8759 11.9931L23.9039 11.9953L23.9283 11.9969L23.9492 11.9982L23.9665 11.999L23.9802 11.9995L23.9903 11.9998L23.9969 11.9999L24 12Z" fill="currentColor"/>
</svg>
