<svg width="427" height="250" viewBox="0 0 427 250" fill="none" xmlns="http://www.w3.org/2000/svg">
<path d="M0.539154 234.445V177.715H38.4661V188.439H13.2905V200.309H35.687V211.033H13.2905V234.445H0.539154ZM62.7266 225.931C63.9255 225.931 65.0698 225.904 66.1597 225.85C67.2495 225.795 68.1214 225.713 68.7753 225.604V216.354C68.2849 216.244 67.5492 216.135 66.5684 216.026C65.5875 215.917 64.6884 215.862 63.871 215.862C62.7266 215.862 61.6368 215.944 60.6014 216.108C59.6205 216.217 58.7487 216.463 57.9858 216.845C57.2229 217.227 56.6234 217.745 56.1875 218.4C55.7516 219.055 55.5336 219.874 55.5336 220.856C55.5336 222.766 56.1603 224.103 57.4136 224.867C58.7214 225.577 60.4924 225.931 62.7266 225.931ZM61.7458 190.24C65.3423 190.24 68.3394 190.649 70.7371 191.467C73.1347 192.286 75.042 193.459 76.4588 194.988C77.9301 196.516 78.9655 198.371 79.5649 200.554C80.1643 202.737 80.464 205.166 80.464 207.84V233.217C78.7203 233.599 76.2953 234.036 73.1892 234.527C70.0832 235.073 66.3232 235.346 61.9092 235.346C59.1301 235.346 56.5962 235.1 54.3075 234.609C52.0733 234.118 50.1388 233.326 48.504 232.235C46.8692 231.089 45.6159 229.615 44.744 227.814C43.8721 226.013 43.4362 223.803 43.4362 221.183C43.4362 218.673 43.9266 216.545 44.9075 214.798C45.9429 213.052 47.3052 211.66 48.9945 210.623C50.6837 209.586 52.6182 208.849 54.7979 208.413C56.9776 207.922 59.2391 207.676 61.5823 207.676C63.1626 207.676 64.5521 207.758 65.751 207.922C67.0043 208.031 68.0124 208.195 68.7753 208.413V207.267C68.7753 205.193 68.1487 203.529 66.8953 202.273C65.642 201.018 63.4623 200.39 60.3562 200.39C58.2855 200.39 56.242 200.554 54.2258 200.882C52.2095 201.155 50.4658 201.564 48.9945 202.11L47.4414 192.286C48.1498 192.068 49.0217 191.85 50.0571 191.631C51.1469 191.358 52.3185 191.14 53.5718 190.976C54.8252 190.758 56.133 190.594 57.4953 190.485C58.9121 190.321 60.3289 190.24 61.7458 190.24ZM91.0683 212.915C91.0683 209.805 91.5587 206.885 92.5396 204.156C93.575 201.373 95.0463 198.972 96.9535 196.952C98.8608 194.878 101.177 193.241 103.901 192.041C106.626 190.84 109.732 190.24 113.22 190.24C115.508 190.24 117.606 190.458 119.514 190.894C121.421 191.276 123.274 191.85 125.072 192.614L122.538 202.355C121.394 201.919 120.14 201.537 118.778 201.209C117.416 200.882 115.89 200.718 114.2 200.718C110.604 200.718 107.907 201.837 106.108 204.074C104.365 206.312 103.493 209.259 103.493 212.915C103.493 216.79 104.31 219.792 105.945 221.92C107.634 224.049 110.549 225.113 114.691 225.113C116.162 225.113 117.743 224.976 119.432 224.703C121.121 224.431 122.674 223.994 124.091 223.394L125.807 233.381C124.391 233.981 122.62 234.5 120.494 234.936C118.369 235.373 116.026 235.591 113.465 235.591C109.541 235.591 106.163 235.018 103.329 233.872C100.496 232.671 98.1524 231.061 96.2996 229.042C94.5014 227.023 93.1663 224.649 92.2944 221.92C91.477 219.137 91.0683 216.135 91.0683 212.915ZM135.207 180.662L147.387 178.697V191.386H162.018V201.537H147.387V216.681C147.387 219.246 147.823 221.293 148.694 222.821C149.621 224.349 151.446 225.113 154.171 225.113C155.479 225.113 156.814 225.004 158.176 224.785C159.593 224.512 160.874 224.158 162.018 223.721L163.734 233.217C162.263 233.817 160.628 234.336 158.83 234.772C157.032 235.209 154.825 235.427 152.209 235.427C148.885 235.427 146.133 234.991 143.954 234.118C141.774 233.19 140.03 231.935 138.722 230.352C137.414 228.715 136.488 226.75 135.943 224.458C135.453 222.166 135.207 219.628 135.207 216.845V180.662ZM212.19 212.833C212.19 216.217 211.699 219.328 210.718 222.166C209.738 224.949 208.321 227.35 206.468 229.37C204.615 231.334 202.381 232.862 199.765 233.954C197.204 235.045 194.316 235.591 191.101 235.591C187.94 235.591 185.052 235.045 182.437 233.954C179.876 232.862 177.669 231.334 175.816 229.37C173.963 227.35 172.519 224.949 171.484 222.166C170.448 219.328 169.931 216.217 169.931 212.833C169.931 209.45 170.448 206.366 171.484 203.583C172.573 200.8 174.045 198.426 175.898 196.461C177.805 194.496 180.039 192.968 182.6 191.877C185.216 190.785 188.049 190.24 191.101 190.24C194.207 190.24 197.041 190.785 199.602 191.877C202.218 192.968 204.452 194.496 206.304 196.461C208.157 198.426 209.601 200.8 210.637 203.583C211.672 206.366 212.19 209.45 212.19 212.833ZM199.765 212.833C199.765 209.068 199.002 206.121 197.477 203.992C196.005 201.809 193.88 200.718 191.101 200.718C188.322 200.718 186.169 201.809 184.644 203.992C183.118 206.121 182.355 209.068 182.355 212.833C182.355 216.599 183.118 219.601 184.644 221.838C186.169 224.021 188.322 225.113 191.101 225.113C193.88 225.113 196.005 224.021 197.477 221.838C199.002 219.601 199.765 216.599 199.765 212.833ZM249.171 202.191C248.081 201.919 246.8 201.646 245.329 201.373C243.857 201.045 242.277 200.882 240.588 200.882C239.825 200.882 238.899 200.963 237.809 201.127C236.773 201.236 235.983 201.373 235.438 201.537V234.445H223.259V193.678C225.439 192.914 228 192.204 230.943 191.549C233.94 190.84 237.264 190.485 240.915 190.485C241.569 190.485 242.359 190.54 243.285 190.649C244.212 190.703 245.138 190.813 246.064 190.976C246.991 191.085 247.917 191.249 248.844 191.467C249.77 191.631 250.56 191.85 251.214 192.122L249.171 202.191ZM271.557 234.445H259.378V191.386H271.557V234.445ZM272.701 178.943C272.701 181.18 271.966 182.954 270.494 184.264C269.077 185.519 267.388 186.146 265.426 186.146C263.465 186.146 261.748 185.519 260.277 184.264C258.86 182.954 258.152 181.18 258.152 178.943C258.152 176.705 258.86 174.959 260.277 173.703C261.748 172.394 263.465 171.739 265.426 171.739C267.388 171.739 269.077 172.394 270.494 173.703C271.966 174.959 272.701 176.705 272.701 178.943ZM282.597 213.243C282.597 209.423 283.169 206.094 284.313 203.256C285.512 200.363 287.065 197.962 288.972 196.052C290.88 194.142 293.059 192.695 295.512 191.713C298.018 190.731 300.579 190.24 303.195 190.24C309.298 190.24 314.121 192.122 317.663 195.888C321.205 199.599 322.976 205.084 322.976 212.342C322.976 213.052 322.949 213.843 322.894 214.716C322.84 215.535 322.785 216.272 322.731 216.927H295.103C295.375 219.437 296.547 221.429 298.618 222.902C300.688 224.376 303.467 225.113 306.955 225.113C309.189 225.113 311.369 224.922 313.494 224.54C315.674 224.103 317.445 223.585 318.807 222.984L320.442 232.89C319.788 233.217 318.916 233.545 317.826 233.872C316.736 234.199 315.51 234.472 314.148 234.691C312.84 234.963 311.423 235.182 309.898 235.346C308.372 235.509 306.846 235.591 305.32 235.591C301.451 235.591 298.073 235.018 295.185 233.872C292.351 232.726 289.98 231.171 288.073 229.206C286.221 227.187 284.831 224.813 283.905 222.084C283.033 219.355 282.597 216.408 282.597 213.243ZM311.205 208.577C311.151 207.54 310.96 206.53 310.633 205.548C310.361 204.565 309.898 203.692 309.244 202.928C308.644 202.164 307.854 201.537 306.873 201.045C305.947 200.554 304.775 200.309 303.358 200.309C301.996 200.309 300.825 200.554 299.844 201.045C298.863 201.482 298.045 202.082 297.392 202.846C296.738 203.61 296.22 204.511 295.838 205.548C295.512 206.53 295.266 207.54 295.103 208.577H311.205ZM346.35 225.686C348.584 225.686 350.165 225.467 351.091 225.031C352.017 224.594 352.481 223.748 352.481 222.493C352.481 221.511 351.881 220.665 350.682 219.955C349.484 219.191 347.658 218.346 345.206 217.418C343.299 216.708 341.555 215.972 339.975 215.207C338.449 214.443 337.141 213.543 336.051 212.506C334.961 211.415 334.118 210.132 333.519 208.659C332.919 207.185 332.62 205.411 332.62 203.337C332.62 199.299 334.118 196.106 337.114 193.76C340.111 191.413 344.225 190.24 349.456 190.24C352.072 190.24 354.579 190.485 356.976 190.976C359.374 191.413 361.281 191.904 362.698 192.45L360.573 201.946C359.156 201.455 357.603 201.018 355.914 200.636C354.279 200.254 352.426 200.063 350.355 200.063C346.541 200.063 344.634 201.127 344.634 203.256C344.634 203.747 344.715 204.183 344.879 204.565C345.042 204.947 345.369 205.329 345.86 205.711C346.35 206.039 347.004 206.421 347.822 206.858C348.693 207.24 349.783 207.676 351.091 208.167C353.761 209.15 355.968 210.132 357.712 211.114C359.456 212.042 360.818 213.079 361.799 214.225C362.834 215.317 363.543 216.545 363.924 217.909C364.36 219.273 364.578 220.856 364.578 222.657C364.578 226.914 362.97 230.134 359.755 232.317C356.595 234.5 352.099 235.591 346.268 235.591C342.454 235.591 339.266 235.264 336.705 234.609C334.2 233.954 332.456 233.408 331.475 232.972L333.519 223.066C335.588 223.885 337.713 224.54 339.893 225.031C342.073 225.467 344.225 225.686 346.35 225.686Z" fill="#333333"/>
<path d="M383.102 206.039C383.102 208.822 383.429 211.333 384.083 213.57C384.791 215.808 385.772 217.745 387.026 219.382C388.333 220.965 389.914 222.193 391.766 223.066C393.619 223.939 395.744 224.376 398.142 224.376C400.485 224.376 402.583 223.939 404.436 223.066C406.343 222.193 407.923 220.965 409.177 219.382C410.485 217.745 411.466 215.808 412.119 213.57C412.828 211.333 413.182 208.822 413.182 206.039C413.182 203.255 412.828 200.745 412.119 198.507C411.466 196.215 410.485 194.278 409.177 192.695C407.923 191.058 406.343 189.803 404.436 188.93C402.583 188.056 400.485 187.62 398.142 187.62C395.744 187.62 393.619 188.084 391.766 189.012C389.914 189.885 388.333 191.14 387.026 192.777C385.772 194.36 384.791 196.297 384.083 198.589C383.429 200.827 383.102 203.31 383.102 206.039ZM426.342 206.039C426.342 210.023 425.852 213.625 424.871 216.845C423.89 220.01 422.5 222.793 420.702 225.195C418.958 227.596 416.86 229.588 414.408 231.17C411.956 232.753 409.259 233.899 406.316 234.609C406.588 235.7 407.188 236.573 408.114 237.228C409.041 237.938 410.212 238.511 411.629 238.947C413.046 239.384 414.681 239.711 416.533 239.93C418.441 240.148 420.484 240.339 422.664 240.503L420.048 249.835C415.798 249.671 412.147 249.235 409.095 248.525C406.098 247.87 403.537 246.942 401.412 245.742C399.341 244.541 397.679 243.068 396.426 241.321C395.227 239.575 394.3 237.556 393.646 235.264C390.268 234.827 387.134 233.899 384.246 232.48C381.358 231.007 378.852 229.042 376.726 226.586C374.601 224.13 372.939 221.183 371.74 217.745C370.541 214.307 369.942 210.405 369.942 206.039C369.942 201.182 370.705 196.925 372.231 193.268C373.757 189.557 375.8 186.447 378.361 183.936C380.977 181.426 383.974 179.543 387.352 178.288C390.785 177.032 394.382 176.405 398.142 176.405C402.011 176.405 405.662 177.032 409.095 178.288C412.528 179.543 415.525 181.426 418.086 183.936C420.648 186.447 422.664 189.557 424.135 193.268C425.606 196.925 426.342 201.182 426.342 206.039Z" fill="url(#paint0_linear_77_25)"/>
<path d="M383.102 206.039C383.102 208.822 383.429 211.333 384.083 213.57C384.791 215.808 385.772 217.745 387.026 219.382C388.333 220.965 389.914 222.193 391.766 223.066C393.619 223.939 395.744 224.376 398.142 224.376C400.485 224.376 402.583 223.939 404.436 223.066C406.343 222.193 407.923 220.965 409.177 219.382C410.485 217.745 411.466 215.808 412.119 213.57C412.828 211.333 413.182 208.822 413.182 206.039C413.182 203.255 412.828 200.745 412.119 198.507C411.466 196.215 410.485 194.278 409.177 192.695C407.923 191.058 406.343 189.803 404.436 188.93C402.583 188.056 400.485 187.62 398.142 187.62C395.744 187.62 393.619 188.084 391.766 189.012C389.914 189.885 388.333 191.14 387.026 192.777C385.772 194.36 384.791 196.297 384.083 198.589C383.429 200.827 383.102 203.31 383.102 206.039ZM426.342 206.039C426.342 210.023 425.852 213.625 424.871 216.845C423.89 220.01 422.5 222.793 420.702 225.195C418.958 227.596 416.86 229.588 414.408 231.17C411.956 232.753 409.259 233.899 406.316 234.609C406.588 235.7 407.188 236.573 408.114 237.228C409.041 237.938 410.212 238.511 411.629 238.947C413.046 239.384 414.681 239.711 416.533 239.93C418.441 240.148 420.484 240.339 422.664 240.503L420.048 249.835C415.798 249.671 412.147 249.235 409.095 248.525C406.098 247.87 403.537 246.942 401.412 245.742C399.341 244.541 397.679 243.068 396.426 241.321C395.227 239.575 394.3 237.556 393.646 235.264C390.268 234.827 387.134 233.899 384.246 232.48C381.358 231.007 378.852 229.042 376.726 226.586C374.601 224.13 372.939 221.183 371.74 217.745C370.541 214.307 369.942 210.405 369.942 206.039C369.942 201.182 370.705 196.925 372.231 193.268C373.757 189.557 375.8 186.447 378.361 183.936C380.977 181.426 383.974 179.543 387.352 178.288C390.785 177.032 394.382 176.405 398.142 176.405C402.011 176.405 405.662 177.032 409.095 178.288C412.528 179.543 415.525 181.426 418.086 183.936C420.648 186.447 422.664 189.557 424.135 193.268C425.606 196.925 426.342 201.182 426.342 206.039Z" fill="#017931"/>
<path fill-rule="evenodd" clip-rule="evenodd" d="M287.983 78.3586C288.011 78.1696 288.035 77.9783 288.054 77.7849C289.256 65.8726 287.423 53.768 282.619 42.6375C275.947 27.1777 263.981 14.6124 248.879 7.20446C233.776 -0.203451 216.529 -1.96698 200.243 2.23153C183.957 6.43002 169.703 16.3146 160.049 30.1048C150.395 43.8951 145.975 60.6846 147.585 77.4492C149.195 94.2139 156.73 109.852 168.832 121.546C180.934 133.24 196.807 140.223 213.594 141.235C224.392 141.887 235.111 140.04 244.955 135.937L259.665 130.185C259.665 130.185 264.584 136.002 269.023 138.653C272.292 140.606 288.527 149.081 300.816 136.508C316.487 120.475 304.987 104.216 304.987 104.216C304.987 104.216 302.394 99.0666 297.885 95.7474C294.155 93.0023 287.174 90.6665 287.174 90.6665L287.983 78.3586ZM273.327 87.7512C273.655 87.8154 273.982 87.8675 274.31 87.9075C274.624 87.9695 274.953 88.049 275.304 88.1602C278.38 89.1316 282.777 91.6827 282.777 91.6827C282.777 91.6827 279.384 104.202 274.886 110.99C270.341 117.848 260.004 125.894 260.004 125.894C260.004 125.894 256.008 123.084 254.479 120.475C254.3 120.169 254.125 119.878 253.952 119.6C253.487 118.294 252.815 117.03 251.935 115.864C247.265 109.676 238.469 108.724 231.111 111.145C226.05 112.811 220.681 113.522 215.28 113.196C205.164 112.586 195.599 108.378 188.307 101.331C181.015 94.2848 176.474 84.8615 175.504 74.7594C174.534 64.6576 177.197 54.5405 183.015 46.2305C188.832 37.9208 197.421 31.9646 207.235 29.4346C217.048 26.9047 227.441 27.9673 236.542 32.4312C245.643 36.8952 252.852 44.4667 256.873 53.7826C259.02 58.7571 260.182 64.0542 260.344 69.3876C260.536 75.6936 263.147 82.1348 268.096 85.5502C268.771 86.0506 269.71 86.6976 270.5 87.0568C271.489 87.507 272.307 87.6158 273.163 87.7294C273.217 87.7366 273.272 87.7441 273.327 87.7512Z" fill="url(#paint1_linear_77_25)"/>
<path fill-rule="evenodd" clip-rule="evenodd" d="M287.983 78.3586C288.011 78.1696 288.035 77.9783 288.054 77.7849C289.256 65.8726 287.423 53.768 282.619 42.6375C275.947 27.1777 263.981 14.6124 248.879 7.20446C233.776 -0.203451 216.529 -1.96698 200.243 2.23153C183.957 6.43002 169.703 16.3146 160.049 30.1048C150.395 43.8951 145.975 60.6846 147.585 77.4492C149.195 94.2139 156.73 109.852 168.832 121.546C180.934 133.24 196.807 140.223 213.594 141.235C224.392 141.887 235.111 140.04 244.955 135.937L259.665 130.185C259.665 130.185 264.584 136.002 269.023 138.653C272.292 140.606 288.527 149.081 300.816 136.508C316.487 120.475 304.987 104.216 304.987 104.216C304.987 104.216 302.394 99.0666 297.885 95.7474C294.155 93.0023 287.174 90.6665 287.174 90.6665L287.983 78.3586ZM273.327 87.7512C273.655 87.8154 273.982 87.8675 274.31 87.9075C274.624 87.9695 274.953 88.049 275.304 88.1602C278.38 89.1316 282.777 91.6827 282.777 91.6827C282.777 91.6827 279.384 104.202 274.886 110.99C270.341 117.848 260.004 125.894 260.004 125.894C260.004 125.894 256.008 123.084 254.479 120.475C254.3 120.169 254.125 119.878 253.952 119.6C253.487 118.294 252.815 117.03 251.935 115.864C247.265 109.676 238.469 108.724 231.111 111.145C226.05 112.811 220.681 113.522 215.28 113.196C205.164 112.586 195.599 108.378 188.307 101.331C181.015 94.2848 176.474 84.8615 175.504 74.7594C174.534 64.6576 177.197 54.5405 183.015 46.2305C188.832 37.9208 197.421 31.9646 207.235 29.4346C217.048 26.9047 227.441 27.9673 236.542 32.4312C245.643 36.8952 252.852 44.4667 256.873 53.7826C259.02 58.7571 260.182 64.0542 260.344 69.3876C260.536 75.6936 263.147 82.1348 268.096 85.5502C268.771 86.0506 269.71 86.6976 270.5 87.0568C271.489 87.507 272.307 87.6158 273.163 87.7294C273.217 87.7366 273.272 87.7441 273.327 87.7512Z" fill="white"/>
<path fill-rule="evenodd" clip-rule="evenodd" d="M287.983 78.3586C288.011 78.1696 288.035 77.9783 288.054 77.7849C289.256 65.8726 287.423 53.768 282.619 42.6375C275.947 27.1777 263.981 14.6124 248.879 7.20446C233.776 -0.203451 216.529 -1.96698 200.243 2.23153C183.957 6.43002 169.703 16.3146 160.049 30.1048C150.395 43.8951 145.975 60.6846 147.585 77.4492C149.195 94.2139 156.73 109.852 168.832 121.546C180.934 133.24 196.807 140.223 213.594 141.235C224.392 141.887 235.111 140.04 244.955 135.937L259.665 130.185C259.665 130.185 264.584 136.002 269.023 138.653C272.292 140.606 288.527 149.081 300.816 136.508C316.487 120.475 304.987 104.216 304.987 104.216C304.987 104.216 302.394 99.0666 297.885 95.7474C294.155 93.0023 287.174 90.6665 287.174 90.6665L287.983 78.3586ZM273.327 87.7512C273.655 87.8154 273.982 87.8675 274.31 87.9075C274.624 87.9695 274.953 88.049 275.304 88.1602C278.38 89.1316 282.777 91.6827 282.777 91.6827C282.777 91.6827 279.384 104.202 274.886 110.99C270.341 117.848 260.004 125.894 260.004 125.894C260.004 125.894 256.008 123.084 254.479 120.475C254.3 120.169 254.125 119.878 253.952 119.6C253.487 118.294 252.815 117.03 251.935 115.864C247.265 109.676 238.469 108.724 231.111 111.145C226.05 112.811 220.681 113.522 215.28 113.196C205.164 112.586 195.599 108.378 188.307 101.331C181.015 94.2848 176.474 84.8615 175.504 74.7594C174.534 64.6576 177.197 54.5405 183.015 46.2305C188.832 37.9208 197.421 31.9646 207.235 29.4346C217.048 26.9047 227.441 27.9673 236.542 32.4312C245.643 36.8952 252.852 44.4667 256.873 53.7826C259.02 58.7571 260.182 64.0542 260.344 69.3876C260.536 75.6936 263.147 82.1348 268.096 85.5502C268.771 86.0506 269.71 86.6976 270.5 87.0568C271.489 87.507 272.307 87.6158 273.163 87.7294C273.217 87.7366 273.272 87.7441 273.327 87.7512Z" fill="url(#paint2_linear_77_25)"/>
<path fill-rule="evenodd" clip-rule="evenodd" d="M287.983 78.3586C288.011 78.1696 288.035 77.9783 288.054 77.7849C289.256 65.8726 287.423 53.768 282.619 42.6375C275.947 27.1777 263.981 14.6124 248.879 7.20446C233.776 -0.203451 216.529 -1.96698 200.243 2.23153C183.957 6.43002 169.703 16.3146 160.049 30.1048C150.395 43.8951 145.975 60.6846 147.585 77.4492C149.195 94.2139 156.73 109.852 168.832 121.546C180.934 133.24 196.807 140.223 213.594 141.235C224.392 141.887 235.111 140.04 244.955 135.937L259.665 130.185C259.665 130.185 264.584 136.002 269.023 138.653C272.292 140.606 288.527 149.081 300.816 136.508C316.487 120.475 304.987 104.216 304.987 104.216C304.987 104.216 302.394 99.0666 297.885 95.7474C294.155 93.0023 287.174 90.6665 287.174 90.6665L287.983 78.3586ZM273.327 87.7512C273.655 87.8154 273.982 87.8675 274.31 87.9075C274.624 87.9695 274.953 88.049 275.304 88.1602C278.38 89.1316 282.777 91.6827 282.777 91.6827C282.777 91.6827 279.384 104.202 274.886 110.99C270.341 117.848 260.004 125.894 260.004 125.894C260.004 125.894 256.008 123.084 254.479 120.475C254.3 120.169 254.125 119.878 253.952 119.6C253.487 118.294 252.815 117.03 251.935 115.864C247.265 109.676 238.469 108.724 231.111 111.145C226.05 112.811 220.681 113.522 215.28 113.196C205.164 112.586 195.599 108.378 188.307 101.331C181.015 94.2848 176.474 84.8615 175.504 74.7594C174.534 64.6576 177.197 54.5405 183.015 46.2305C188.832 37.9208 197.421 31.9646 207.235 29.4346C217.048 26.9047 227.441 27.9673 236.542 32.4312C245.643 36.8952 252.852 44.4667 256.873 53.7826C259.02 58.7571 260.182 64.0542 260.344 69.3876C260.536 75.6936 263.147 82.1348 268.096 85.5502C268.771 86.0506 269.71 86.6976 270.5 87.0568C271.489 87.507 272.307 87.6158 273.163 87.7294C273.217 87.7366 273.272 87.7441 273.327 87.7512Z" fill="#017931"/>
<defs>
<linearGradient id="paint0_linear_77_25" x1="573.779" y1="92.7388" x2="13.081" y2="201.11" gradientUnits="userSpaceOnUse">
<stop stop-color="#BF7BCC"/>
<stop offset="1" stop-color="#1306E2"/>
</linearGradient>
<linearGradient id="paint1_linear_77_25" x1="400.699" y1="124.77" x2="38.0309" y2="215.351" gradientUnits="userSpaceOnUse">
<stop stop-color="#BF7BCC"/>
<stop offset="1" stop-color="#1306E2"/>
</linearGradient>
<linearGradient id="paint2_linear_77_25" x1="299.311" y1="71.5446" x2="156.814" y2="95.1289" gradientUnits="userSpaceOnUse">
<stop stop-color="#BF7BCC"/>
<stop offset="1" stop-color="#1306E2"/>
</linearGradient>
</defs>
</svg>
