<svg width="64" height="64" viewBox="0 0 64 64" fill="none" xmlns="http://www.w3.org/2000/svg">
<path d="M52 35.52V10C52 4.486 47.514 0 42 0C36.486 0 32 4.486 32 10V35.518C27.36 39.226 25.176 45.076 26.282 51.042C27.46 57.38 32.492 62.462 38.812 63.69C39.8537 63.8936 40.9126 63.9961 41.974 63.996C45.6942 64.0041 49.301 62.7156 52.174 60.352C53.9979 58.852 55.4665 56.9661 56.4739 54.8302C57.4814 52.6943 58.0026 50.3616 58 48C57.9975 45.6034 57.4571 43.2379 56.4186 41.078C55.3802 38.918 53.8702 37.0187 52 35.52ZM49.626 57.266C46.848 59.556 43.184 60.462 39.572 59.764C34.856 58.846 31.094 55.048 30.214 50.31C29.334 45.554 31.222 40.898 35.144 38.16C35.4085 37.9761 35.6246 37.7309 35.7737 37.4453C35.9227 37.1597 36.0004 36.8422 36 36.52V10C36 6.692 38.692 4 42 4C45.308 4 48 6.692 48 10V36.52C48 37.172 48.318 37.786 48.856 38.158C50.4411 39.2645 51.7362 40.7367 52.6316 42.4499C53.527 44.1631 53.9964 46.0669 54 48C54.0022 49.772 53.611 51.5223 52.8546 53.1247C52.0982 54.7271 50.9954 56.1416 49.626 57.266Z" fill="#00AE27"/>
<path d="M44 40.284V18C44 17.4696 43.7893 16.9609 43.4142 16.5858C43.0391 16.2107 42.5304 16 42 16C41.4696 16 40.9609 16.2107 40.5858 16.5858C40.2107 16.9609 40 17.4696 40 18V40.284C36.558 41.178 34 44.282 34 48C34 52.412 37.588 56 42 56C46.412 56 50 52.412 50 48C50 44.282 47.442 41.178 44 40.284ZM42 52C39.794 52 38 50.206 38 48C38 45.794 39.794 44 42 44C44.206 44 46 45.794 46 48C46 50.206 44.206 52 42 52ZM58 12H62C62.5304 12 63.0391 11.7893 63.4142 11.4142C63.7893 11.0391 64 10.5304 64 10C64 9.46957 63.7893 8.96086 63.4142 8.58579C63.0391 8.21071 62.5304 8 62 8H58C57.4696 8 56.9609 8.21071 56.5858 8.58579C56.2107 8.96086 56 9.46957 56 10C56 10.5304 56.2107 11.0391 56.5858 11.4142C56.9609 11.7893 57.4696 12 58 12ZM58 20H60C60.5304 20 61.0391 19.7893 61.4142 19.4142C61.7893 19.0391 62 18.5304 62 18C62 17.4696 61.7893 16.9609 61.4142 16.5858C61.0391 16.2107 60.5304 16 60 16H58C57.4696 16 56.9609 16.2107 56.5858 16.5858C56.2107 16.9609 56 17.4696 56 18C56 18.5304 56.2107 19.0391 56.5858 19.4142C56.9609 19.7893 57.4696 20 58 20ZM62 24H58C57.4696 24 56.9609 24.2107 56.5858 24.5858C56.2107 24.9609 56 25.4696 56 26C56 26.5304 56.2107 27.0391 56.5858 27.4142C56.9609 27.7893 57.4696 28 58 28H62C62.5304 28 63.0391 27.7893 63.4142 27.4142C63.7893 27.0391 64 26.5304 64 26C64 25.4696 63.7893 24.9609 63.4142 24.5858C63.0391 24.2107 62.5304 24 62 24ZM28 26C28 25.4696 27.7893 24.9609 27.4142 24.5858C27.0391 24.2107 26.5304 24 26 24H22C18.692 24 16 21.308 16 18C16 14.692 18.692 12 22 12H26C26.5304 12 27.0391 11.7893 27.4142 11.4142C27.7893 11.0391 28 10.5304 28 10C28 9.46957 27.7893 8.96086 27.4142 8.58579C27.0391 8.21071 26.5304 8 26 8H22C16.486 8 12 12.486 12 18C12 23.514 16.486 28 22 28H26C26.5304 28 27.0391 27.7893 27.4142 27.4142C27.7893 27.0391 28 26.5304 28 26ZM6 0C2.692 0 0 2.692 0 6C0 9.308 2.692 12 6 12C9.308 12 12 9.308 12 6C12 2.692 9.308 0 6 0ZM6 8C5.46957 8 4.96086 7.78929 4.58579 7.41421C4.21071 7.03914 4 6.53043 4 6C4 5.46957 4.21071 4.96086 4.58579 4.58579C4.96086 4.21071 5.46957 4 6 4C6.53043 4 7.03914 4.21071 7.41421 4.58579C7.78929 4.96086 8 5.46957 8 6C8 6.53043 7.78929 7.03914 7.41421 7.41421C7.03914 7.78929 6.53043 8 6 8Z" fill="#00AE27"/>
</svg>
