<svg width="52" height="64" viewBox="0 0 52 64" fill="none" xmlns="http://www.w3.org/2000/svg">
<path d="M49.58 51.106L47.957 49.482C50.229 40.9066 50.2978 31.8962 48.157 23.2871C49.2521 22.7939 50.145 21.9402 50.6868 20.8683C51.2285 19.7964 51.3864 18.5712 51.1341 17.397C50.8817 16.2228 50.2344 15.1706 49.3001 14.4159C48.3658 13.6613 47.201 13.2498 46 13.25H45.745C45.745 13.167 45.75 13.084 45.75 13C45.7482 11.2376 45.0578 9.54561 43.8261 8.28497C42.5944 7.02433 40.9189 6.29483 39.157 6.25205C38.6286 5.06034 37.7654 4.04775 36.6724 3.3373C35.5794 2.62686 34.3036 2.24914 33 2.25005C32.3389 2.25143 31.6819 2.35257 31.051 2.55005C30.4221 1.82876 29.646 1.25056 28.7749 0.854365C27.9038 0.45817 26.9579 0.253174 26.001 0.253174C25.044 0.253174 24.0982 0.45817 23.2271 0.854365C22.356 1.25056 21.5799 1.82876 20.951 2.55005C20.3195 2.35237 19.6617 2.25123 19 2.25005C17.6966 2.24897 16.4209 2.62639 15.328 3.33646C14.235 4.04654 13.3717 5.05871 12.843 6.25005C11.0807 6.29283 9.40491 7.02262 8.17318 8.28368C6.94144 9.54475 6.25129 11.2372 6.24998 13C6.24998 13.084 6.24998 13.167 6.25498 13.25H5.99998C4.79914 13.2502 3.63464 13.662 2.70069 14.4169C1.76673 15.1717 1.11977 16.2239 0.867684 17.398C0.615601 18.572 0.773635 19.7971 1.31543 20.8687C1.85723 21.9404 2.75004 22.794 3.84498 23.2871C1.70327 31.8978 1.77207 40.91 4.04498 49.487L2.41998 51.105C1.38397 52.1409 0.678396 53.4607 0.392487 54.8975C0.106578 56.3344 0.253179 57.8237 0.813749 59.1772C1.37432 60.5308 2.32368 61.6877 3.54177 62.5016C4.75986 63.3156 6.19197 63.75 7.65698 63.75H44.343C45.808 63.7503 47.2402 63.3161 48.4584 62.5022C49.6766 61.6884 50.626 60.5316 51.1866 59.1781C51.7472 57.8245 51.8938 56.3352 51.6078 54.8983C51.3219 53.4615 50.6161 52.1417 49.58 51.106ZM13 9.75005C13.2384 9.75234 13.4758 9.78084 13.708 9.83505C13.9381 9.88589 14.1762 9.88971 14.4079 9.84628C14.6395 9.80286 14.8601 9.71308 15.0562 9.58233C15.2523 9.45158 15.42 9.28257 15.5492 9.08542C15.6784 8.88827 15.7664 8.66706 15.808 8.43505C15.9381 7.68302 16.3298 7.00117 16.9139 6.50988C17.4979 6.0186 18.2368 5.74948 19 5.75005C19.5885 5.75311 20.1648 5.91889 20.665 6.22905C20.8705 6.35267 21.0991 6.43276 21.3368 6.46437C21.5746 6.49597 21.8162 6.47841 22.0469 6.41279C22.2775 6.34716 22.4922 6.23485 22.6777 6.08283C22.8631 5.93082 23.0154 5.74233 23.125 5.52905C23.3913 4.99441 23.8015 4.54463 24.3093 4.23024C24.8172 3.91584 25.4027 3.74929 26 3.74929C26.5973 3.74929 27.1828 3.91584 27.6906 4.23024C28.1985 4.54463 28.6086 4.99441 28.875 5.52905C28.9846 5.74233 29.1369 5.93082 29.3223 6.08283C29.5078 6.23485 29.7225 6.34716 29.9531 6.41279C30.1838 6.47841 30.4254 6.49597 30.6631 6.46437C30.9008 6.43276 31.1295 6.35267 31.335 6.22905C31.8352 5.91889 32.4114 5.75311 33 5.75005C33.7621 5.7503 34.4996 6.01942 35.0828 6.51003C35.666 7.00063 36.0573 7.68125 36.188 8.43205C36.2296 8.66406 36.3176 8.88527 36.4468 9.08242C36.576 9.27957 36.7437 9.44858 36.9398 9.57933C37.1359 9.71008 37.3564 9.79986 37.5881 9.84328C37.8198 9.88671 38.0578 9.88289 38.288 9.83205C38.7637 9.71977 39.2587 9.71719 39.7355 9.82449C40.2124 9.9318 40.6586 10.1462 41.0403 10.4514C41.422 10.7567 41.7293 11.1447 41.9389 11.5863C42.1485 12.0279 42.2549 12.5113 42.25 13C42.25 13.084 42.25 13.167 42.24 13.25H9.75998C9.75314 13.1669 9.7498 13.0835 9.74998 13C9.75104 12.1384 10.0938 11.3124 10.7031 10.7031C11.3123 10.0939 12.1384 9.75111 13 9.75005ZM5.99998 16.75H46C46.4641 16.7485 46.9099 16.9313 47.2392 17.2584C47.5685 17.5854 47.7544 18.0299 47.756 18.494C47.7576 18.9582 47.5747 19.4039 47.2477 19.7332C46.9206 20.0626 46.4761 20.2485 46.012 20.25H5.99998C5.53586 20.25 5.09074 20.0657 4.76255 19.7375C4.43436 19.4093 4.24998 18.9642 4.24998 18.5C4.24998 18.0359 4.43436 17.5908 4.76255 17.2626C5.09074 16.9344 5.53586 16.75 5.99998 16.75ZM44.343 60.25H7.65698C6.88466 60.2493 6.1299 60.0196 5.4881 59.5899C4.84629 59.1603 4.34626 58.5501 4.0512 57.8363C3.75613 57.1226 3.67928 56.3374 3.83036 55.58C3.98144 54.8226 4.35366 54.127 4.89998 53.5811L7.24198 51.237C7.46276 51.0165 7.62054 50.7409 7.69896 50.4388C7.77738 50.1367 7.77359 49.8192 7.68798 49.5191C5.28415 41.1128 5.16506 32.2176 7.34299 23.75H44.662C46.8399 32.2176 46.7208 41.1128 44.317 49.5191C44.2314 49.8192 44.2276 50.1367 44.306 50.4388C44.3844 50.7409 44.5422 51.0165 44.763 51.237L47.105 53.5811C47.6516 54.1273 48.0239 54.8233 48.1749 55.5812C48.3258 56.3391 48.2485 57.1247 47.9528 57.8386C47.6571 58.5526 47.1563 59.1628 46.5138 59.592C45.8712 60.0213 45.1157 60.2503 44.343 60.25Z" fill="#00AE27"/>
<path d="M24.25 42.6671V45.0001C24.25 45.4643 24.4344 45.9094 24.7626 46.2376C25.0908 46.5658 25.5359 46.7501 26 46.7501C26.4641 46.7501 26.9092 46.5658 27.2374 46.2376C27.5656 45.9094 27.75 45.4643 27.75 45.0001V42.6671C30.0682 42.4904 32.2616 41.5468 33.984 39.9851C36.984 36.9851 36.753 32.1151 36.741 31.9091C36.7171 31.4792 36.5356 31.0732 36.2312 30.7686C35.9268 30.4641 35.5209 30.2823 35.091 30.2581C34.884 30.2511 30.017 30.0161 27.016 33.0151C26.6354 33.3974 26.295 33.8176 26 34.2691C25.705 33.8176 25.3646 33.3974 24.984 33.0151C21.984 30.0151 17.12 30.2511 16.909 30.2581C16.4791 30.2823 16.0732 30.4641 15.7688 30.7686C15.4644 31.0732 15.2829 31.4792 15.259 31.9091C15.247 32.1151 15.015 36.9841 18.016 39.9851C19.7384 41.5468 21.9318 42.4904 24.25 42.6671ZM29.49 35.4911C30.5064 34.5916 31.7753 34.0273 33.124 33.8751C32.9738 35.224 32.41 36.4933 31.51 37.5091C30.4936 38.4087 29.2247 38.9729 27.876 39.1251C28.0262 37.7763 28.59 36.507 29.49 35.4911ZM22.51 35.4911C23.409 36.5068 23.9727 37.7752 24.124 39.1231C22.7757 38.9711 21.5069 38.4075 20.49 37.5091C19.591 36.4935 19.0273 35.2251 18.876 33.8771C20.2243 34.0292 21.4931 34.5928 22.51 35.4911ZM36 50.2501H16C15.5359 50.2501 15.0908 50.4345 14.7626 50.7627C14.4344 51.0909 14.25 51.536 14.25 52.0001C14.25 52.4643 14.4344 52.9094 14.7626 53.2376C15.0908 53.5658 15.5359 53.7501 16 53.7501H36C36.4641 53.7501 36.9092 53.5658 37.2374 53.2376C37.5656 52.9094 37.75 52.4643 37.75 52.0001C37.75 51.536 37.5656 51.0909 37.2374 50.7627C36.9092 50.4345 36.4641 50.2501 36 50.2501Z" fill="#00AE27"/>
</svg>
