<svg width="64" height="64" viewBox="0 0 64 64" fill="none" xmlns="http://www.w3.org/2000/svg">
<path d="M32 0C14.5649 0 0 14.5168 0 32C0 49.4351 14.5168 64 32 64C49.4351 64 64 49.4832 64 32C64 14.5649 49.4832 0 32 0ZM12.1126 51.8874C1.40687 41.1818 0.980625 24.6531 10.8299 13.4815L20.0713 22.723C18.1283 22.9975 16.2555 23.8797 14.7642 25.371C14.032 26.1033 14.032 27.2904 14.7642 28.0226C15.4964 28.7549 16.6836 28.7549 17.4159 28.0226C19.0399 26.3986 21.4176 25.9785 23.4331 26.7596L19.4048 30.7881C19.1642 31.0293 18.9369 31.2832 18.7237 31.5489C15.559 31.4138 12.4129 32.5894 10.1213 34.8092L8.81925 36.0706C8.0755 36.7911 8.05663 37.9782 8.77725 38.7219C9.49775 39.4656 10.6846 39.4845 11.4285 38.7639L12.7305 37.5025C13.8752 36.3936 15.3354 35.672 16.8827 35.4048C16.2241 38.4226 17.063 41.7045 19.4046 44.0462C21.2323 45.874 23.633 46.7878 26.0338 46.7878C26.7041 46.7869 27.3725 46.7147 28.0276 46.5723C27.75 48.5644 26.8351 50.4231 25.3709 51.8875C24.6386 52.6198 24.6386 53.8069 25.3709 54.5391C26.103 55.2714 27.2904 55.2714 28.0225 54.5391C30.6371 51.9245 32.002 48.4128 31.8582 44.7611C32.1399 44.5384 32.4085 44.2997 32.6629 44.0462L36.8866 39.8225C38.1089 41.9694 37.8068 44.7549 35.9775 46.5843C35.2453 47.3165 35.2453 48.5036 35.9775 49.2359C36.7096 49.9681 37.897 49.9681 38.6291 49.2359C40.1204 47.7446 41.0026 45.8719 41.2771 43.9289L50.5185 53.1702C39.3469 63.0192 22.8184 62.593 12.1126 51.8874ZM37.9656 30.7874L37.9663 30.788L37.9665 30.7882C38.6973 31.5194 38.6971 32.7086 37.9663 33.4396L37.0288 34.3771L29.0737 26.4221L30.0112 25.4846C30.185 25.31 30.3916 25.1715 30.6192 25.0772C30.8468 24.9829 31.0908 24.9347 31.3371 24.9354C31.8379 24.9354 32.3088 25.1305 32.6629 25.4846L37.9656 30.7874ZM36.6405 24.1588L37.9664 22.8329C38.699 22.1003 39.8849 22.1001 40.6179 22.833C41.3489 23.5641 41.3489 24.7536 40.6179 25.4846L39.2921 26.8104L36.6405 24.1588ZM31.7254 34.377L34.3771 37.0286L30.0112 41.3945C28.2829 43.1229 25.7006 43.4881 23.6101 42.4922L31.7254 34.377ZM20.9585 39.8406C19.9626 37.7501 20.3279 35.168 22.0562 33.4396L26.4221 29.0737L29.0737 31.7254L20.9585 39.8406ZM53.1701 50.5186L39.6804 37.0286L40.6179 36.0911C40.8144 35.8945 40.9962 35.6836 41.1616 35.4601C44.1322 35.9152 47.0868 34.9256 49.1981 32.8143L51.2244 30.788C51.9566 30.0557 51.9566 28.8686 51.2244 28.1364C50.4923 27.4041 49.305 27.4041 48.5728 28.1364L46.5465 30.1626C45.3898 31.3193 43.8314 31.8958 42.2536 31.8059C42.2141 31.0723 42.0313 30.3536 41.7156 29.6903L43.2695 28.1362C44.7374 26.6684 45.2213 24.5849 44.7243 22.7095C47.113 22.3277 49.5898 22.7487 51.7298 23.9345C52.6361 24.4368 53.777 24.1084 54.2786 23.2031C54.7805 22.2974 54.4531 21.1562 53.5472 20.6542C50.8154 19.1405 47.6754 18.553 44.6157 18.9371C45.1285 15.954 44.618 12.8494 43.1351 10.1733C42.6332 9.2675 41.4921 8.93988 40.5863 9.44188C39.6805 9.94375 39.353 11.085 39.8549 11.9908C40.9967 14.0516 41.3374 16.4656 40.8322 18.7477C38.9339 18.2102 36.8149 18.6809 35.3145 20.1812L33.763 21.7327C33.1006 21.4161 32.3823 21.2332 31.6491 21.1945C31.557 19.618 32.132 18.0606 33.2882 16.9041L35.3145 14.8779C36.0467 14.1456 36.0467 12.9585 35.3145 12.2262C34.5824 11.494 33.3951 11.494 32.6629 12.2262L30.6366 14.2525C28.4939 16.3954 27.5449 19.3642 27.9949 22.2846C27.7699 22.4515 27.5576 22.6348 27.3596 22.8329L26.4221 23.7704L13.4815 10.8299C18.8346 6.1105 25.4167 3.74875 32 3.74875C39.1558 3.74875 46.3115 6.53675 51.8874 12.1126C62.5931 22.8184 63.0192 39.3469 53.1701 50.5186Z" fill="#00AE27"/>
</svg>
