<svg width="64" height="62" viewBox="0 0 64 62" fill="none" xmlns="http://www.w3.org/2000/svg">
<path d="M24.2625 61.9237C23.9054 61.9236 23.5501 61.8738 23.2068 61.7757C22.472 61.566 21.745 61.33 21.0271 61.068C20.2707 60.7927 19.6201 60.2861 19.1678 59.6202C18.7155 58.9542 18.4845 58.1627 18.5074 57.358L18.6208 53.2649C18.6199 53.2507 18.6155 53.237 18.6077 53.2251C18.6 53.2131 18.5894 53.2034 18.5768 53.1968C17.3292 52.4401 16.1473 51.5801 15.0435 50.6259C15.0333 50.6161 15.0208 50.609 15.0071 50.6052C14.9934 50.6015 14.9791 50.6013 14.9653 50.6045L11.1094 51.9764C10.3515 52.2465 9.52786 52.2713 8.7551 52.0473C7.98234 51.8233 7.29963 51.3619 6.80364 50.7284C6.33199 50.1265 5.88171 49.5082 5.45364 48.8745C5.00232 48.207 4.77288 47.4143 4.79792 46.6089C4.82297 45.8036 5.10122 45.0266 5.59314 44.3884L8.08751 41.149C8.09511 41.1368 8.09944 41.1228 8.1001 41.1084C8.10076 41.094 8.09771 41.0797 8.09126 41.0668C7.52465 39.7209 7.07303 38.3294 6.74126 36.9073C6.73894 36.8933 6.73301 36.8802 6.72407 36.8693C6.71512 36.8583 6.70347 36.8499 6.69026 36.8448L2.77001 35.69C1.99726 35.4631 1.31566 34.9985 0.821998 34.3621C0.328339 33.7258 0.0477257 32.9501 0.0200117 32.1452C-0.00695778 31.3818 -0.0068327 30.6178 0.0203867 29.8544C0.0481712 29.0496 0.328815 28.2739 0.822467 27.6376C1.31612 27.0013 1.99769 26.5367 2.77039 26.3098L6.69051 25.1549C6.92806 25.0836 7.17736 25.0599 7.42408 25.0852C7.67081 25.1106 7.9101 25.1844 8.1282 25.3025C8.3463 25.4206 8.53891 25.5806 8.69496 25.7734C8.85102 25.9662 8.96743 26.1879 9.03752 26.4258C9.10761 26.6637 9.12999 26.9132 9.10338 27.1597C9.07677 27.4063 9.00168 27.6452 8.88245 27.8627C8.76321 28.0802 8.60217 28.272 8.40858 28.427C8.21498 28.5821 7.99266 28.6973 7.75439 28.7662L3.83439 29.9212C3.81986 29.9255 3.80707 29.9343 3.79785 29.9463C3.78862 29.9584 3.78343 29.973 3.78301 29.9882C3.75919 30.6624 3.75919 31.3372 3.78301 32.0114C3.78338 32.0266 3.78855 32.0413 3.79778 32.0534C3.807 32.0655 3.81982 32.0743 3.83439 32.0787L7.75439 33.2337C8.40618 33.4275 8.99503 33.7905 9.46108 34.2856C9.92713 34.7808 10.2538 35.3906 10.4078 36.0529C10.6911 37.2675 11.0767 38.4558 11.5606 39.6053C11.825 40.2317 11.9189 40.9169 11.8329 41.5913C11.7468 42.2657 11.4839 42.9053 11.0708 43.4453L8.57714 46.6845C8.56797 46.6967 8.56287 46.7115 8.56255 46.7268C8.56224 46.742 8.56673 46.757 8.57539 46.7695C8.95039 47.326 9.35126 47.8763 9.76601 48.4052C9.77532 48.4172 9.78815 48.426 9.80272 48.4304C9.8173 48.4348 9.83287 48.4345 9.84726 48.4295L13.7023 47.0579C14.3434 46.8317 15.033 46.7792 15.7009 46.9057C16.3689 47.0322 16.9915 47.3333 17.5055 47.7783C18.4495 48.5946 19.4604 49.3302 20.5275 49.9774C21.1083 50.3291 21.5859 50.828 21.9118 51.4236C22.2377 52.0192 22.4004 52.6904 22.3834 53.3692L22.27 57.4624C22.2697 57.4776 22.2741 57.4924 22.2826 57.5049C22.2912 57.5174 22.3035 57.5268 22.3178 57.5319C22.9503 57.7629 23.591 57.9709 24.2386 58.1555C24.2533 58.1599 24.269 58.1595 24.2835 58.1545C24.298 58.1495 24.3106 58.1401 24.3195 58.1277L26.6353 54.747C27.0206 54.1876 27.547 53.74 28.1612 53.4497C28.7754 53.1594 29.4554 53.0367 30.1323 53.0942C31.3757 53.198 32.6257 53.198 33.8691 53.0942C34.5459 53.0374 35.2256 53.1604 35.8395 53.4506C36.4535 53.7408 36.9799 54.188 37.3656 54.7469L39.6816 58.1278C39.6906 58.1402 39.7031 58.1495 39.7176 58.1545C39.7321 58.1595 39.7477 58.1598 39.7624 58.1555C40.4099 57.9708 41.0505 57.7628 41.683 57.532C41.6973 57.527 41.7097 57.5175 41.7183 57.505C41.7269 57.4925 41.7314 57.4776 41.731 57.4624L41.6176 53.3694C41.6007 52.6907 41.7634 52.0195 42.0893 51.4239C42.4153 50.8283 42.8928 50.3294 43.4736 49.9778C44.5407 49.3305 45.5516 48.5949 46.4956 47.7787C47.0096 47.3335 47.6322 47.0324 48.3003 46.9059C48.9684 46.7794 49.658 46.832 50.2991 47.0584L54.1531 48.4298C54.1675 48.4349 54.1831 48.4353 54.1977 48.4309C54.2123 48.4265 54.2252 48.4177 54.2344 48.4055C54.6504 47.8743 55.0475 47.3285 55.425 46.7692C55.4337 46.7566 55.4383 46.7416 55.438 46.7263C55.4377 46.711 55.4326 46.6961 55.4234 46.6839L52.9309 43.4453C52.5178 42.9054 52.2548 42.2658 52.1688 41.5914C52.0827 40.917 52.1766 40.2319 52.4409 39.6055C52.9248 38.4561 53.3105 37.2677 53.5939 36.0532C53.7478 35.3908 54.0744 34.781 54.5405 34.2858C55.0066 33.7906 55.5954 33.4276 56.2473 33.2338L60.1663 32.0797C60.1808 32.0753 60.1936 32.0664 60.2028 32.0544C60.2121 32.0423 60.2172 32.0276 60.2176 32.0124C60.2415 31.3376 60.2415 30.6622 60.2176 29.9874C60.2173 29.9722 60.2121 29.9576 60.2029 29.9455C60.1936 29.9334 60.1808 29.9246 60.1663 29.9203L56.2474 28.7659C55.5955 28.5722 55.0065 28.2093 54.5405 27.714C54.0744 27.2188 53.7478 26.609 53.5939 25.9465C53.3105 24.732 52.9248 23.5437 52.4409 22.3943C52.1766 21.7679 52.0827 21.0828 52.1688 20.4084C52.2548 19.7341 52.5178 19.0945 52.9309 18.5545L55.4234 15.3159C55.4326 15.3037 55.4377 15.2889 55.438 15.2736C55.4384 15.2584 55.4338 15.2434 55.4251 15.2308C55.0501 14.6753 54.6501 14.1248 54.2346 13.5948C54.2255 13.5826 54.2127 13.5736 54.1981 13.5691C54.1836 13.5646 54.1679 13.5649 54.1535 13.5698L50.2988 14.942C49.6576 15.1683 48.968 15.2208 48.3 15.0942C47.632 14.9677 47.0094 14.6665 46.4955 14.2214C45.5514 13.4053 44.5405 12.6697 43.4735 12.0223C42.8928 11.6707 42.4153 11.1719 42.0893 10.5763C41.7634 9.9808 41.6007 9.30971 41.6176 8.63104L41.731 4.53792C41.7314 4.52275 41.727 4.50785 41.7184 4.49534C41.7098 4.48284 41.6974 4.47337 41.6831 4.46829C41.0506 4.23746 40.4099 4.02945 39.7624 3.84467C39.7477 3.84021 39.732 3.84051 39.7174 3.84552C39.7029 3.85052 39.6903 3.85998 39.6815 3.87254L37.3656 7.25304C36.9803 7.81245 36.4539 8.26 35.8397 8.5503C35.2256 8.84061 34.5456 8.96334 33.8688 8.90604C32.6254 8.80204 31.3756 8.80204 30.1323 8.90604C29.4554 8.9634 28.7754 8.84071 28.1613 8.55043C27.5471 8.26014 27.0207 7.81259 26.6354 7.25317L24.3194 3.87242C24.3105 3.85989 24.2979 3.85047 24.2834 3.84549C24.2689 3.84051 24.2532 3.84022 24.2385 3.84467C23.591 4.02943 22.9503 4.2374 22.3176 4.46817C22.3034 4.47328 22.2911 4.48275 22.2826 4.49522C22.274 4.5077 22.2696 4.52255 22.27 4.53767L22.3834 8.63092C22.4004 9.3096 22.2377 9.98071 21.9118 10.5763C21.5859 11.1718 21.1084 11.6707 20.5276 12.0223C19.4605 12.6697 18.4496 13.4054 17.5053 14.2215C16.9914 14.6667 16.3688 14.9678 15.7009 15.0943C15.0329 15.2209 14.3433 15.1683 13.7023 14.942L9.84714 13.5703C9.83276 13.5654 9.81721 13.5651 9.80266 13.5695C9.78811 13.5738 9.7753 13.5826 9.76601 13.5947C9.34985 14.1255 8.95277 14.6711 8.57551 15.2303C8.56681 15.2429 8.56228 15.2578 8.56257 15.2731C8.56286 15.2884 8.56796 15.3032 8.57714 15.3154L11.0704 18.5545C11.225 18.75 11.3393 18.9743 11.4066 19.2144C11.4739 19.4544 11.4928 19.7054 11.4623 19.9528C11.4318 20.2002 11.3524 20.4391 11.2288 20.6556C11.1053 20.8721 10.9399 21.0619 10.7424 21.214C10.5448 21.366 10.3191 21.4773 10.0782 21.5414C9.83727 21.6056 9.58604 21.6212 9.33905 21.5874C9.09207 21.5536 8.85425 21.4711 8.6394 21.3447C8.42456 21.2183 8.23696 21.0504 8.08751 20.8509L5.59376 17.6117C5.1017 16.9734 4.82337 16.1963 4.79832 15.3909C4.77328 14.5854 5.0028 13.7925 5.45426 13.1249C5.88185 12.4909 6.33215 11.8726 6.80426 11.271C7.30018 10.6375 7.98289 10.176 8.75568 9.95199C9.52847 9.728 10.3521 9.75286 11.11 10.023L14.965 11.3949C14.9788 11.3984 14.9933 11.3983 15.007 11.3946C15.0208 11.3908 15.0333 11.3836 15.0434 11.3735C16.1473 10.4194 17.3293 9.55938 18.5768 8.80254C18.5893 8.79596 18.5999 8.78627 18.6076 8.77441C18.6153 8.76255 18.6198 8.74891 18.6208 8.73479L18.5074 4.64142C18.4845 3.83671 18.7156 3.04522 19.1679 2.37927C19.6202 1.71333 20.2708 1.20674 21.0273 0.931417C21.745 0.669577 22.4719 0.433592 23.2066 0.223917C23.9804 0.00267583 24.8042 0.0304932 25.5613 0.303429C26.3184 0.576365 26.9704 1.08058 27.425 1.74467L29.7411 5.12492C29.7504 5.1358 29.7622 5.14417 29.7756 5.14926C29.7889 5.15435 29.8034 5.156 29.8175 5.15404C31.2703 5.03261 32.7307 5.03261 34.1835 5.15404C34.1977 5.15605 34.2121 5.15442 34.2255 5.14931C34.2388 5.14419 34.2507 5.13575 34.2599 5.12479L36.5758 1.74429C37.0305 1.08014 37.6827 0.575968 38.44 0.30326C39.1973 0.0305514 40.0213 0.00314198 40.795 0.224917C41.5296 0.434621 42.2565 0.670606 42.9741 0.932417C43.7307 1.20775 44.3813 1.71436 44.8337 2.38035C45.286 3.04635 45.5172 3.83789 45.4943 4.64267L45.3809 8.73567C45.3818 8.74978 45.3863 8.76342 45.394 8.77529C45.4017 8.78715 45.4124 8.79683 45.4249 8.80342C46.6723 9.56031 47.8541 10.4203 48.958 11.3744C48.9683 11.3843 48.9809 11.3914 48.9947 11.3952C49.0084 11.3989 49.0229 11.3992 49.0368 11.3959L52.8911 10.0237C53.6491 9.7533 54.473 9.72842 55.2459 9.95255C56.0189 10.1767 56.7016 10.6385 57.1974 11.2724C57.6683 11.8724 58.1224 12.4974 58.5474 13.1268C58.9984 13.7943 59.2276 14.587 59.2025 15.3922C59.1773 16.1974 58.899 16.9743 58.4071 17.6123L55.9146 20.8508C55.9071 20.863 55.9028 20.877 55.9021 20.8913C55.9014 20.9057 55.9043 20.92 55.9106 20.9329C56.4773 22.2788 56.9289 23.6703 57.2606 25.0924C57.2629 25.1063 57.2688 25.1194 57.2776 25.1304C57.2865 25.1414 57.2981 25.1498 57.3113 25.1549L61.2303 26.3092C62.003 26.5361 62.6846 27.0007 63.1782 27.637C63.6719 28.2734 63.9525 29.049 63.9803 29.8539C64.0074 30.6179 64.0074 31.3826 63.9803 32.1465C63.9525 32.9514 63.6718 33.727 63.1782 34.3633C62.6845 34.9996 62.003 35.4642 61.2303 35.6912L57.3113 36.8453C57.2981 36.8504 57.2865 36.8589 57.2776 36.8698C57.2687 36.8808 57.2628 36.8939 57.2605 36.9078C56.9288 38.3299 56.4772 39.7213 55.9105 41.0672C55.9042 41.0801 55.9012 41.0944 55.9019 41.1088C55.9026 41.1232 55.9069 41.1372 55.9145 41.1494L58.407 44.388C58.8989 45.026 59.1772 45.8028 59.2023 46.608C59.2275 47.4132 58.9983 48.2058 58.5473 48.8733C58.1195 49.5074 57.6692 50.126 57.1973 50.7279C56.7014 51.3617 56.0187 51.8233 55.2459 52.0474C54.473 52.2716 53.6492 52.2468 52.8913 51.9767L49.0368 50.6049C49.023 50.6014 49.0085 50.6015 48.9947 50.6052C48.981 50.609 48.9684 50.6162 48.9583 50.6262C47.8544 51.5803 46.6725 52.4402 45.425 53.1969C45.4124 53.2035 45.4017 53.2132 45.394 53.2252C45.3863 53.2371 45.3818 53.2508 45.381 53.265L45.4944 57.3579C45.5173 58.1627 45.2862 58.9542 44.8338 59.6201C44.3815 60.2861 43.7309 60.7927 42.9744 61.068C42.2567 61.3298 41.5298 61.5658 40.7951 61.7755C40.0213 61.997 39.1973 61.9693 38.4401 61.6964C37.6828 61.4235 37.0307 60.9193 36.576 60.255L34.2598 56.8749C34.2507 56.8639 34.2388 56.8554 34.2255 56.8503C34.2121 56.8452 34.1976 56.8437 34.1835 56.8459C32.7307 56.9672 31.2703 56.9672 29.8175 56.8459C29.8033 56.8438 29.7888 56.8453 29.7754 56.8505C29.762 56.8556 29.7502 56.8641 29.741 56.8752L27.425 60.2552C27.0732 60.7694 26.6013 61.19 26.0502 61.4808C25.4992 61.7715 24.8856 61.9235 24.2625 61.9237Z" fill="#00AE27"/>
<path d="M32.0355 47.8422C31.3541 47.8421 30.6732 47.8013 29.9967 47.72C20.7773 46.6143 14.1763 38.2143 15.2818 28.995C16.3873 19.7756 24.7875 13.175 34.007 14.28C36.2434 14.544 38.4035 15.2565 40.358 16.375C40.5728 16.4976 40.7613 16.6613 40.9128 16.8568C41.0643 17.0523 41.1757 17.2757 41.2408 17.5143C41.3059 17.7529 41.3233 18.002 41.2921 18.2474C41.2609 18.4927 41.1816 18.7295 41.0589 18.9442C40.9361 19.1589 40.7722 19.3472 40.5766 19.4986C40.381 19.6499 40.1575 19.7612 39.9188 19.8261C39.6802 19.891 39.4311 19.9083 39.1858 19.8769C38.9405 19.8455 38.7037 19.766 38.4891 19.6431C36.05 18.249 33.2267 17.6774 30.4373 18.0131C27.6479 18.3487 25.0408 19.5738 23.002 21.5068C20.9632 23.4398 19.6012 25.978 19.1175 28.7456C18.6338 31.5131 19.0543 34.3628 20.3166 36.8728C21.579 39.3827 23.6161 41.4194 26.1263 42.6812C28.6364 43.943 31.4863 44.3629 34.2537 43.8787C37.0211 43.3945 39.5591 42.0319 41.4917 39.9927C43.4243 37.9535 44.6488 35.3462 44.9839 32.5567C45.0352 32.1282 45.0659 31.6942 45.0753 31.2651C45.0859 30.7732 45.2888 30.305 45.6404 29.9608C45.992 29.6165 46.4644 29.4237 46.9564 29.4235H46.9978C47.2449 29.4288 47.4886 29.4827 47.7149 29.5822C47.9412 29.6817 48.1456 29.8248 48.3166 30.0033C48.4876 30.1819 48.6217 30.3923 48.7114 30.6227C48.801 30.8531 48.8444 31.0988 48.839 31.346C48.8271 31.896 48.7878 32.4546 48.7219 33.0043C48.2316 37.0883 46.264 40.8517 43.1902 43.5849C40.1164 46.3181 36.1488 47.8323 32.0355 47.8418V47.8422Z" fill="#00AE27"/>
<path d="M32.2884 37.7589L24.78 30.2507C24.4269 29.8976 24.2286 29.4187 24.2286 28.9194C24.2286 28.4201 24.4269 27.9412 24.78 27.5882C25.1331 27.2351 25.6119 27.0368 26.1112 27.0368C26.6106 27.0368 27.0894 27.2351 27.4425 27.5882L32.2889 32.4344L44.3389 20.3844C44.5137 20.2096 44.7212 20.0709 44.9497 19.9763C45.1781 19.8817 45.4229 19.833 45.6701 19.833C45.9174 19.833 46.1622 19.8817 46.3906 19.9763C46.619 20.0709 46.8265 20.2096 47.0014 20.3844C47.1762 20.5593 47.3149 20.7668 47.4095 20.9952C47.5041 21.2236 47.5528 21.4684 47.5528 21.7157C47.5528 21.9629 47.5041 22.2077 47.4095 22.4361C47.3149 22.6646 47.1762 22.8721 47.0014 23.0469L32.2884 37.7589Z" fill="#00AE27"/>
</svg>
