<svg width="64" height="64" viewBox="0 0 64 64" fill="none" xmlns="http://www.w3.org/2000/svg">
<path d="M37.1855 63.9988C36.9165 63.999 36.6502 63.9461 36.4017 63.8433C36.1532 63.7404 35.9273 63.5896 35.7372 63.3994C35.547 63.2092 35.3961 62.9834 35.2933 62.7349C35.1904 62.4864 35.1375 62.22 35.1377 61.951C35.1377 50.1079 37.8988 42.7265 45.3257 34.715C47.8206 32.0216 51.062 32.2057 52.9778 33.7787C54.8326 35.3029 55.6623 38.2915 53.6556 41.0559L49.7031 46.4239C49.3753 46.8457 48.8958 47.1228 48.3667 47.1963C47.8376 47.2697 47.3008 47.1336 46.8706 46.8169C46.4403 46.5003 46.1508 46.0281 46.0637 45.5011C45.9765 44.9741 46.0986 44.4339 46.404 43.9956L50.3476 38.6398C50.8335 37.9698 50.8479 37.3319 50.3764 36.9459C49.956 36.5986 49.1972 36.562 48.3275 37.5005C41.696 44.6523 39.2322 51.2805 39.2322 61.9521C39.2325 62.221 39.1797 62.4873 39.077 62.7357C38.9742 62.9842 38.8235 63.2099 38.6334 63.4C38.4433 63.5901 38.2175 63.7409 37.9691 63.8436C37.7206 63.9464 37.4544 63.9991 37.1855 63.9988Z" fill="#00AE27"/>
<path d="M48.4671 63.9989C48.1981 63.999 47.9317 63.9461 47.6831 63.8433C47.4346 63.7405 47.2087 63.5896 47.0184 63.3995C46.8281 63.2093 46.6772 62.9835 46.5742 62.735C46.4712 62.4865 46.4182 62.2201 46.4182 61.9511C46.4182 55.9419 48.5193 52.2789 52.1445 47.9825C57.8731 41.2001 59.9031 36.1882 59.9031 28.8334C59.9031 27.4146 59.2519 26.7778 58.6063 26.7778C57.8298 26.7778 57.3284 27.5976 57.3284 28.8678C57.3284 30.1003 57.1509 31.7642 57.1431 31.8341C57.1155 32.1019 57.0351 32.3615 56.9066 32.598C56.7782 32.8346 56.6041 33.0433 56.3946 33.2122C56.185 33.3812 55.9441 33.5069 55.6857 33.5823C55.4273 33.6576 55.1565 33.681 54.889 33.6512C54.349 33.5934 53.854 33.3234 53.5131 32.9007C53.1721 32.4779 53.013 31.9371 53.0708 31.3971C53.073 31.3815 53.2328 29.8806 53.2328 28.8689C53.2328 24.8088 55.9362 22.6833 58.6074 22.6833C61.2875 22.6833 63.9998 24.7966 63.9998 28.8345C63.9998 37.1888 61.6348 43.0948 55.275 50.6271C52.1179 54.3655 50.5149 57.1444 50.5149 61.9522C50.5149 62.221 50.462 62.4873 50.359 62.7357C50.2561 62.984 50.1052 63.2097 49.9151 63.3998C49.7249 63.5899 49.4992 63.7406 49.2507 63.8434C49.0023 63.9462 48.736 63.999 48.4671 63.9989ZM26.8121 63.9989C26.5431 63.999 26.2768 63.9461 26.0283 63.8433C25.7797 63.7404 25.5539 63.5896 25.3638 63.3994C25.1736 63.2092 25.0227 62.9834 24.9199 62.7349C24.817 62.4864 24.7641 62.22 24.7643 61.9511C24.7643 51.2794 22.2994 44.6512 15.669 37.4994C14.8015 36.5632 14.0416 36.5976 13.6212 36.9448C13.1497 37.3319 13.1641 37.9687 13.6589 38.6509L17.5925 43.9945C17.752 44.2111 17.8672 44.457 17.9316 44.7182C17.996 44.9793 18.0084 45.2506 17.9679 45.5165C17.9275 45.7824 17.8351 46.0378 17.696 46.268C17.5568 46.4982 17.3737 46.6988 17.1571 46.8582C16.9405 47.0176 16.6946 47.1329 16.4334 47.1973C16.1723 47.2617 15.901 47.274 15.6351 47.2336C15.3692 47.1932 15.1138 47.1008 14.8836 46.9616C14.6534 46.8225 14.4529 46.6394 14.2934 46.4228L10.3509 41.067C8.33637 38.2915 9.16503 35.303 11.0209 33.7788C12.9356 32.2058 16.1782 32.0227 18.6719 34.715C26.0977 42.7265 28.8599 50.108 28.8599 61.9511C28.86 62.22 28.8072 62.4864 28.7043 62.7349C28.6015 62.9834 28.4506 63.2092 28.2604 63.3994C28.0702 63.5896 27.8444 63.7404 27.5959 63.8433C27.3474 63.9461 27.0811 63.999 26.8121 63.9989Z" fill="#00AE27"/>
<path d="M15.5316 63.9989C15.2626 63.999 14.9963 63.9461 14.7478 63.8433C14.4992 63.7404 14.2734 63.5896 14.0832 63.3994C13.8931 63.2092 13.7422 62.9834 13.6394 62.7349C13.5365 62.4864 13.4836 62.22 13.4838 61.9511C13.4838 57.1422 11.8808 54.3633 8.72369 50.626C2.36396 43.096 0 37.1888 0 28.8345C0 24.7966 2.71229 22.6834 5.39241 22.6834C8.06254 22.6834 10.766 24.8088 10.766 28.8689C10.766 29.8806 10.9257 31.3826 10.9279 31.3971C10.9567 31.6644 10.9325 31.9348 10.8568 32.1928C10.781 32.4507 10.6552 32.6913 10.4864 32.9006C10.3177 33.1099 10.1093 33.284 9.87331 33.4128C9.63729 33.5416 9.3782 33.6226 9.11085 33.6512C8.84325 33.6812 8.57236 33.6579 8.31383 33.5826C8.05529 33.5073 7.81422 33.3816 7.60454 33.2127C7.39486 33.0437 7.22072 32.8349 7.09218 32.5983C6.96363 32.3617 6.88322 32.102 6.8556 31.8341C6.84783 31.7642 6.67034 30.1003 6.67034 28.8678C6.67034 27.5976 6.16893 26.7779 5.39241 26.7779C4.74678 26.7779 4.09672 27.4135 4.09672 28.8334C4.09672 36.1893 6.12677 41.2001 11.8542 47.9825C15.4806 52.2767 17.5805 55.9397 17.5805 61.9511C17.5805 63.0826 16.6631 63.9989 15.5316 63.9989ZM31.7321 28.0258C27.7463 28.0258 25.0185 25.43 24.0634 22.791C23.9719 22.5381 23.9311 22.2696 23.9434 22.001C23.9556 21.7323 24.0207 21.4687 24.1348 21.2252C24.2489 20.9817 24.4099 20.763 24.6086 20.5817C24.8072 20.4004 25.0396 20.26 25.2925 20.1685C25.5454 20.077 25.8138 20.0363 26.0825 20.0485C26.3511 20.0608 26.6148 20.1258 26.8583 20.24C27.1018 20.3541 27.3204 20.5151 27.5017 20.7137C27.683 20.9124 27.8234 21.1448 27.9149 21.3976C28.3908 22.7111 29.7997 24.0112 31.9251 23.9258C33.0245 23.8603 34.0051 24.7644 34.0472 25.8959C34.0573 26.1647 34.0144 26.4328 33.9208 26.6849C33.8272 26.937 33.6849 27.1682 33.5019 27.3653C33.319 27.5624 33.099 27.7215 32.8545 27.8335C32.61 27.9455 32.3458 28.0082 32.0771 28.0181C31.9622 28.0234 31.8471 28.026 31.7321 28.0258Z" fill="#00AE27"/>
<path d="M31.999 44.5491C31.73 44.5493 31.4637 44.4964 31.2151 44.3936C30.9666 44.2907 30.7408 44.1399 30.5506 43.9497C30.3605 43.7595 30.2096 43.5337 30.1068 43.2852C30.0039 43.0366 29.951 42.7703 29.9512 42.5013V14.8249C29.9512 14.2818 30.1669 13.7609 30.551 13.3769C30.935 12.9928 31.4559 12.7771 31.999 12.7771C32.5421 12.7771 33.063 12.9928 33.447 13.3769C33.831 13.7609 34.0468 14.2818 34.0468 14.8249V42.5013C34.0465 43.0444 33.8306 43.565 33.4467 43.949C33.0627 44.333 32.542 44.5488 31.999 44.5491Z" fill="#00AE27"/>
<path d="M32.0019 23.7971C31.4588 23.7971 30.9379 23.5813 30.5539 23.1973C30.1699 22.8133 29.9541 22.2924 29.9541 21.7493C29.9541 21.2062 30.1699 20.6853 30.5539 20.3013C30.9379 19.9172 31.4588 19.7015 32.0019 19.7015C33.7091 19.7015 35.1047 19.1901 35.9333 18.2638C36.4891 17.6415 36.7465 16.876 36.6599 16.1095C36.6104 15.5754 36.7722 15.0432 37.1107 14.6271C37.4492 14.211 37.9374 13.9443 38.4704 13.8841C39.0034 13.824 39.5387 13.9753 39.9614 14.3055C40.3841 14.6357 40.6605 15.1185 40.7311 15.6502C40.9452 17.5649 40.3107 19.5118 38.9873 20.9927C37.371 22.802 34.8895 23.7971 32.0019 23.7971Z" fill="#00AE27"/>
<path d="M24.3065 34.8593C22.7742 34.8569 21.2765 34.4036 20.0001 33.5558C17.7515 32.0627 16.5424 29.5489 16.6633 26.7013C13.6326 22.8864 12.9437 18.0586 14.895 13.9031C16.5146 10.452 19.6307 8.18566 23.3003 7.67205C23.561 5.38796 24.565 3.81383 25.4713 2.82986C27.0986 1.05828 29.5392 0.00109863 31.9996 0.00109863C34.4612 0.00109863 36.9017 1.05828 38.5302 2.82986C39.4354 3.81605 40.4404 5.39018 40.7011 7.67205C44.3719 8.18566 47.4857 10.452 49.1053 13.902C51.0555 18.0586 50.3666 22.8864 47.3338 26.7013C47.4558 29.56 46.2389 32.0826 43.9736 33.5713C41.4887 35.2054 38.2983 35.2897 35.8479 33.7854C35.3899 33.499 35.0636 33.0431 34.9402 32.5173C34.8168 31.9914 34.9061 31.438 35.1888 30.9777C35.4715 30.5173 35.9246 30.1874 36.4495 30.0596C36.9743 29.9318 37.5284 30.0166 37.9911 30.2955C39.0771 30.9622 40.5769 30.9045 41.7239 30.1491C42.912 29.367 43.4334 28.0081 43.1904 26.3253C43.1478 26.0275 43.1711 25.7241 43.2587 25.4363C43.3463 25.1486 43.496 24.8836 43.6974 24.6602C46.575 21.4731 46.4618 17.9122 45.3969 15.6414C44.1722 13.0301 41.7017 11.5436 38.7676 11.6623C38.4773 11.6743 38.1877 11.6245 37.9181 11.5159C37.6486 11.4074 37.4052 11.2427 37.2042 11.0328C37.0033 10.8229 36.8493 10.5727 36.7526 10.2986C36.6558 10.0246 36.6186 9.73317 36.6432 9.44363C36.7764 7.85508 36.397 6.56162 35.5128 5.60095C34.6476 4.65802 33.333 4.0956 31.9985 4.0956C30.664 4.0956 29.3517 4.65802 28.4853 5.59984C27.6023 6.56051 27.2218 7.85398 27.356 9.44363C27.3803 9.73324 27.3429 10.0247 27.2461 10.2988C27.1494 10.5728 26.9955 10.8232 26.7947 11.0333C26.5931 11.2422 26.3496 11.4062 26.0803 11.5146C25.811 11.623 25.5218 11.6733 25.2317 11.6623C22.3053 11.538 19.8282 13.029 18.6013 15.6425C17.5363 17.9122 17.422 21.4742 20.2996 24.6602C20.7067 25.1117 20.8931 25.7218 20.8066 26.3242C20.5648 28.0026 21.0828 29.3581 22.2631 30.1413C23.4035 30.8979 24.9022 30.9655 25.9915 30.3077C26.2219 30.1689 26.4773 30.0768 26.7432 30.0367C27.0091 29.9965 27.2803 30.0092 27.5413 30.0739C27.8024 30.1386 28.0481 30.254 28.2645 30.4137C28.4809 30.5733 28.6637 30.7741 28.8026 31.0044C28.9414 31.2347 29.0335 31.4901 29.0736 31.756C29.1138 32.0219 29.1011 32.2931 29.0364 32.5542C28.9717 32.8152 28.8563 33.0609 28.6966 33.2773C28.5369 33.4937 28.3362 33.6766 28.1059 33.8154C26.9583 34.5033 25.6445 34.8643 24.3065 34.8593Z" fill="#00AE27"/>
</svg>
