<svg width="60" height="60" viewBox="0 0 60 60" fill="none" xmlns="http://www.w3.org/2000/svg">
<path d="M34.4602 55.8079C33.0162 56.0679 31.5162 56.2 30.0002 56.2C27.5681 56.1945 25.1487 55.8492 22.8122 55.174C22.2842 52.6839 22.3722 50.504 23.1502 48.72C23.8822 47.04 25.0002 46.0219 26.1842 44.944C27.6842 43.58 29.3822 42.034 29.5462 39.296C29.7542 35.836 28.3342 32.5439 28.2782 32.4179L28.1022 32.0299C27.2802 30.2739 24.9282 26.1299 20.8602 25.594C17.7022 25.1719 15.4862 27.042 13.5342 28.688C11.9842 29.996 10.6462 31.1339 9.0942 31.0079C7.0802 30.858 5.2822 28.672 4.0362 26.662C5.68619 13.788 16.6882 3.79995 30.0002 3.79995C30.4722 3.79995 30.9342 3.84195 31.4002 3.86795C29.8982 8.32995 29.8822 12.56 31.4402 15.486C32.5982 17.73 34.2022 19.144 36.0842 19.576C36.4862 19.666 36.8742 19.708 37.2422 19.708C39.0522 19.708 40.4922 18.7299 41.7902 17.85C43.1322 16.94 44.2782 16.16 45.8542 16.256C46.5602 16.298 46.8262 16.4699 47.4082 16.8479C48.1302 17.316 49.1202 17.9599 50.9842 18.3239C51.7822 18.4839 52.6562 18.5459 53.5322 18.5599C54.9407 21.4135 55.8067 24.504 56.0862 27.674C56.1023 27.9126 56.1659 28.1457 56.2732 28.3595C56.3804 28.5733 56.5292 28.7636 56.7108 28.9192C56.8925 29.0749 57.1033 29.1927 57.331 29.266C57.5588 29.3392 57.7988 29.3663 58.0371 29.3457C58.2754 29.3251 58.5072 29.2572 58.719 29.146C58.9308 29.0348 59.1183 28.8824 59.2705 28.6979C59.4227 28.5134 59.5367 28.3004 59.6056 28.0714C59.6746 27.8423 59.6972 27.6018 59.6722 27.364C58.3542 12.132 45.3182 0.199951 30.0002 0.199951C13.5682 0.199951 0.200195 13.568 0.200195 30C0.200195 46.4319 13.5682 59.7999 30.0002 59.7999C31.7282 59.7999 33.4442 59.65 35.0982 59.352C35.5522 59.2508 35.9495 58.9781 36.2071 58.5908C36.4646 58.2034 36.5624 57.7315 36.48 57.2738C36.3976 56.816 36.1413 56.4078 35.7649 56.1346C35.3885 55.8614 34.921 55.7444 34.4602 55.8079ZM51.1702 14.664C50.5259 14.4927 49.9167 14.2097 49.3702 13.828C48.6362 13.352 47.7242 12.76 46.0782 12.664C43.3322 12.482 41.3422 13.806 39.7702 14.872C38.4662 15.754 37.6862 16.24 36.8862 16.068C36.0862 15.884 35.2882 15.092 34.6302 13.818C33.4842 11.662 33.6762 8.03195 35.0642 4.30995C41.6022 5.61595 47.3302 9.40795 51.1702 14.664ZM3.9122 32.2179C5.4602 33.6539 7.1002 34.466 8.8242 34.594C11.8362 34.826 13.9742 33.0219 15.8582 31.4339C17.6922 29.8859 18.9322 28.96 20.3902 29.158C22.7602 29.472 24.3982 32.6019 24.8442 33.5499L24.9762 33.8419C24.9882 33.868 26.1102 36.502 25.9562 39.08C25.8822 40.3 25.1542 41.0159 23.7642 42.2799C22.4842 43.444 20.8922 44.8939 19.8522 47.2799C19.0182 49.1919 18.7482 51.36 18.9602 53.7239C10.6582 49.846 4.7182 41.7619 3.9122 32.2179Z" fill="#00AE27"/>
<path d="M47.2798 30.4139C43.9603 30.4176 40.7777 31.7378 38.4302 34.0849C36.0828 36.432 34.762 39.6144 34.7578 42.9339C34.7578 50.5299 43.0278 57.3239 45.5598 59.2239C46.0551 59.5954 46.6574 59.7963 47.2765 59.7967C47.8956 59.797 48.4981 59.5968 48.9938 59.2259C51.5298 57.3239 59.7978 50.5299 59.7978 42.9339C59.7952 39.6146 58.4755 36.4319 56.1286 34.0846C53.7816 31.7373 50.5992 30.4171 47.2798 30.4139ZM47.2798 56.0079C42.8858 52.6039 38.3598 47.4899 38.3598 42.9339C38.3598 38.0159 42.3618 34.0139 47.2798 34.0139C52.1978 34.0139 56.1998 38.0159 56.1998 42.9339C56.1998 47.4899 51.6738 52.6039 47.2798 56.0079Z" fill="#00AE27"/>
<path d="M47.2807 39.936C46.9017 39.9217 46.5237 39.984 46.1693 40.1192C45.815 40.2544 45.4915 40.4596 45.2184 40.7227C44.9452 40.9858 44.7279 41.3013 44.5794 41.6503C44.431 41.9993 44.3545 42.3747 44.3545 42.754C44.3545 43.1332 44.431 43.5086 44.5794 43.8576C44.7279 44.2066 44.9452 44.5221 45.2184 44.7852C45.4915 45.0483 45.815 45.2536 46.1693 45.3887C46.5237 45.5239 46.9017 45.5862 47.2807 45.572C48.0097 45.5445 48.6997 45.2356 49.2057 44.7101C49.7118 44.1846 49.9945 43.4835 49.9945 42.754C49.9945 42.0244 49.7118 41.3233 49.2057 40.7978C48.6997 40.2723 48.0097 39.9634 47.2807 39.936Z" fill="#00AE27"/>
</svg>
