<svg width="64" height="64" viewBox="0 0 64 64" fill="none" xmlns="http://www.w3.org/2000/svg">
<path fill-rule="evenodd" clip-rule="evenodd" d="M33.0175 9.92528L31.9997 11.5L30.982 9.92528C31.6014 9.52491 32.3981 9.52491 33.0175 9.92528ZM33.8747 36.4732C34.0468 36.3462 34.2404 36.2001 34.451 36.036C35.2812 35.3891 36.3927 34.4498 37.5107 33.2816C39.6769 31.0179 42.1872 27.5626 42.1872 23.5C42.1872 19.4374 39.6769 15.9821 37.5107 13.7184C36.3927 12.5502 35.2812 11.6109 34.451 10.964C34.0345 10.6394 33.6849 10.3854 33.4355 10.2101C33.3108 10.1224 33.2109 10.0541 33.1399 10.0064C33.1044 9.98247 33.0761 9.96369 33.0555 9.95014C33.0453 9.94336 33.0369 9.93789 33.0306 9.93375L33.0225 9.92852L33.0185 9.9259C33.018 9.92558 33.0175 9.92528 31.9997 11.5C30.982 9.92528 30.9815 9.92558 30.981 9.9259L30.977 9.92852L30.9689 9.93375L30.9633 9.93745C30.9579 9.94098 30.9514 9.94522 30.944 9.95014C30.9234 9.96369 30.8951 9.98247 30.8596 10.0064C30.7886 10.0541 30.6887 10.1224 30.564 10.2101C30.3146 10.3854 29.965 10.6394 29.5485 10.964C28.7183 11.6109 27.6068 12.5502 26.4888 13.7184C24.3226 15.9821 21.8122 19.4374 21.8122 23.5C21.8122 27.5626 24.3226 31.0179 26.4888 33.2816C27.6068 34.4498 28.7183 35.3891 29.5485 36.036C29.7591 36.2001 29.9527 36.3462 30.1247 36.4732V51.5002C25.0508 52.1813 20.7313 55.5817 19.8072 60.25H14.2497C13.2142 60.25 12.3747 61.0895 12.3747 62.125C12.3747 63.1605 13.2142 64 14.2497 64H49.7497C50.7853 64 51.6247 63.1605 51.6247 62.125C51.6247 61.0895 50.7853 60.25 49.7497 60.25H44.1923C43.2682 55.5817 38.9487 52.1813 33.8747 51.5002V36.4732ZM33.8747 31.6032C34.1787 31.3194 34.4904 31.0139 34.8013 30.6889C36.7913 28.6094 38.4372 26.0647 38.4372 23.5C38.4372 20.9353 36.7913 18.3906 34.8013 16.3111C33.8412 15.3077 32.8746 14.4897 32.1461 13.922C32.0961 13.8831 32.0473 13.8453 31.9997 13.8089C31.9522 13.8453 31.9034 13.8831 31.8534 13.922C31.1249 14.4897 30.1583 15.3077 29.1982 16.3111C27.2082 18.3906 25.5622 20.9353 25.5622 23.5C25.5622 26.0647 27.2082 28.6094 29.1982 30.6889C29.5091 31.0139 29.8207 31.3194 30.1247 31.6032V23.5C30.1247 22.4645 30.9642 21.625 31.9997 21.625C33.0353 21.625 33.8747 22.4645 33.8747 23.5V31.6032ZM40.2999 60.25C39.3147 57.4363 36.1705 55.125 31.9997 55.125C27.829 55.125 24.6848 57.4363 23.6996 60.25H40.2999ZM8.488 29.878C6.63881 29.5679 6.63872 29.5685 6.63862 29.5691L6.63839 29.5704L6.63787 29.5736L6.6365 29.582C6.63545 29.5884 6.63413 29.5966 6.63257 29.6065C6.62945 29.6263 6.62534 29.6529 6.62045 29.6861C6.61067 29.7525 6.59771 29.8451 6.58315 29.9615C6.55403 30.1941 6.51831 30.5227 6.48857 30.927C6.42928 31.7327 6.39255 32.8546 6.4839 34.1259C6.66256 36.6124 7.35105 39.9514 9.62124 42.5131C11.8914 45.0748 15.1234 46.1597 17.5703 46.6361C18.8214 46.8797 19.9395 46.9781 20.7465 47.0161C21.1515 47.0352 21.482 47.0393 21.7164 47.0384C21.8337 47.0379 21.9272 47.0362 21.9943 47.0344C22.0278 47.0336 22.0547 47.0327 22.0748 47.032C22.0848 47.0316 22.0931 47.0313 22.0996 47.031L22.108 47.0307L22.1113 47.0305L22.1126 47.0305C22.1132 47.0305 22.1138 47.0304 22.0284 45.1574L22.1138 47.0304C22.9966 46.9902 23.7314 46.339 23.8776 45.4674L22.0284 45.1574C23.8776 45.4674 23.8777 45.4669 23.8778 45.4663L23.878 45.4649L23.8785 45.4618L23.8799 45.4534C23.8809 45.447 23.8822 45.4388 23.8838 45.4289C23.8869 45.4091 23.891 45.3824 23.8959 45.3492C23.9057 45.2829 23.9187 45.1902 23.9332 45.0738C23.9623 44.8413 23.9981 44.5127 24.0278 44.1084C24.0871 43.3026 24.1238 42.1808 24.0325 40.9095C23.8538 38.423 23.1653 35.084 20.8951 32.5223C18.625 29.9605 15.393 28.8756 12.946 28.3992C11.695 28.1557 10.5768 28.0572 9.7698 28.0192C9.36484 28.0001 9.03434 27.9961 8.79996 27.997C8.68267 27.9975 8.58915 27.9992 8.52209 28.0009C8.48854 28.0018 8.46159 28.0027 8.44156 28.0034C8.43155 28.0037 8.42326 28.0041 8.41674 28.0043L8.40829 28.0047L8.40507 28.0048L8.40372 28.0049C8.40311 28.0049 8.40253 28.0049 8.488 29.878ZM10.1942 31.8034C10.1705 32.3886 10.1693 33.0925 10.2243 33.8572C10.3791 36.0116 10.9588 38.3684 12.4278 40.0259C13.8967 41.6835 16.1667 42.5424 18.2869 42.9552C19.0393 43.1017 19.7383 43.1852 20.3221 43.232C20.3459 42.6467 20.3471 41.9428 20.2921 41.1782C20.1373 39.0238 19.5575 36.667 18.0886 35.0095C16.6197 33.3518 14.3497 32.4929 12.2295 32.0801C11.477 31.9336 10.7781 31.8501 10.1942 31.8034ZM8.488 29.878L8.40253 28.0049C7.51976 28.0452 6.78495 28.6964 6.63881 29.5679L8.488 29.878Z" fill="#00AE27"/>
<path fill-rule="evenodd" clip-rule="evenodd" d="M55.5961 28.0048C55.5967 28.0049 55.5973 28.0049 55.5118 29.8779C57.361 29.5679 57.3611 29.5684 57.3612 29.569L57.3614 29.5704L57.3619 29.5736L57.3633 29.5819C57.3644 29.5883 57.3657 29.5965 57.3672 29.6064C57.3704 29.6262 57.3745 29.6529 57.3794 29.6861C57.3891 29.7524 57.4021 29.8451 57.4167 29.9615C57.4458 30.194 57.4815 30.5226 57.5112 30.9269C57.5705 31.7327 57.6073 32.8546 57.5159 34.1258C57.3372 36.6123 56.6488 39.9513 54.3786 42.513C52.1084 45.0747 48.8764 46.1597 46.4295 46.636C45.1784 46.8796 44.0603 46.978 43.2533 47.0161C43.0276 47.0267 42.825 47.0327 42.6494 47.0357L33.1803 54.7068C32.4922 55.2643 31.5079 55.2643 30.8198 54.7068L20.9448 46.7068C20.1402 46.055 20.0163 44.8743 20.6682 44.0697C21.32 43.265 22.5007 43.1412 23.3053 43.793L32.0001 50.8369L39.9922 44.3622C39.9853 44.2813 39.9785 44.1966 39.972 44.1083C39.9127 43.3026 39.876 42.1807 39.9673 40.9094C40.146 38.4229 40.8345 35.0839 43.1047 32.5222C45.3748 29.9605 48.6068 28.8755 51.0538 28.3992C52.3048 28.1556 53.423 28.0572 54.23 28.0191C54.635 28.0001 54.9655 27.996 55.1998 27.997C55.3171 27.9974 55.4107 27.9991 55.4777 28.0009C55.5113 28.0017 55.5382 28.0026 55.5582 28.0033C55.5683 28.0037 55.5765 28.004 55.5831 28.0043L55.5915 28.0046L55.5961 28.0048ZM43.6777 43.2319C44.2616 43.1851 44.9605 43.1016 45.7129 42.9551C47.8331 42.5424 50.1031 41.6834 51.5721 40.0259C53.041 38.3683 53.6208 36.0115 53.7756 33.8571C53.8305 33.0925 53.8293 32.3886 53.8056 31.8033C53.2217 31.8501 52.5228 31.9336 51.7703 32.0801C49.6501 32.4928 47.3802 33.3518 45.9112 35.0094C44.4423 36.6669 43.8625 39.0237 43.7077 41.1782C43.6528 41.9428 43.6539 42.6466 43.6777 43.2319ZM55.5118 29.8779L57.361 29.5679C57.2149 28.6964 56.48 28.0452 55.5973 28.0049L55.5118 29.8779Z" fill="#00AE27"/>
<path fill-rule="evenodd" clip-rule="evenodd" d="M5.625 3.75C4.58947 3.75 3.75 4.58947 3.75 5.625C3.75 6.66053 4.58947 7.5 5.625 7.5C6.66053 7.5 7.5 6.66053 7.5 5.625C7.5 4.58947 6.66053 3.75 5.625 3.75ZM0 5.625C0 2.5184 2.5184 0 5.625 0C8.7316 0 11.25 2.5184 11.25 5.625C11.25 8.7316 8.7316 11.25 5.625 11.25C2.5184 11.25 0 8.7316 0 5.625Z" fill="#00AE27"/>
<path fill-rule="evenodd" clip-rule="evenodd" d="M23.875 0C24.9105 0 25.75 0.839466 25.75 1.875V8.405C25.75 9.44053 24.9105 10.28 23.875 10.28C22.8395 10.28 22 9.44053 22 8.405V1.875C22 0.839466 22.8395 0 23.875 0ZM7.5 5.625C7.5 4.58947 8.33947 3.75 9.375 3.75H16.375C17.4105 3.75 18.25 4.58947 18.25 5.625V21.11C18.25 22.1455 17.4105 22.985 16.375 22.985C15.3395 22.985 14.5 22.1455 14.5 21.11V7.5H9.375C8.33947 7.5 7.5 6.66053 7.5 5.625Z" fill="#00AE27"/>
<path fill-rule="evenodd" clip-rule="evenodd" d="M58.375 3.75C57.3395 3.75 56.5 4.58947 56.5 5.625C56.5 6.66053 57.3395 7.5 58.375 7.5C59.4105 7.5 60.25 6.66053 60.25 5.625C60.25 4.58947 59.4105 3.75 58.375 3.75ZM52.75 5.625C52.75 2.5184 55.2684 0 58.375 0C61.4816 0 64 2.5184 64 5.625C64 8.7316 61.4816 11.25 58.375 11.25C55.2684 11.25 52.75 8.7316 52.75 5.625Z" fill="#00AE27"/>
<path fill-rule="evenodd" clip-rule="evenodd" d="M40.125 0C41.1605 0 42 0.839466 42 1.875V8.405C42 9.44053 41.1605 10.28 40.125 10.28C39.0895 10.28 38.25 9.44053 38.25 8.405V1.875C38.25 0.839466 39.0895 0 40.125 0ZM45.75 5.625C45.75 4.58947 46.5895 3.75 47.625 3.75H54.625C55.6605 3.75 56.5 4.58947 56.5 5.625C56.5 6.66053 55.6605 7.5 54.625 7.5H49.5V21.1075C49.5 22.143 48.6605 22.9825 47.625 22.9825C46.5895 22.9825 45.75 22.143 45.75 21.1075V5.625Z" fill="#00AE27"/>
</svg>
