<svg width="276" height="63" viewBox="0 0 276 63" fill="none" xmlns="http://www.w3.org/2000/svg">
  <path d="M117.665 2.06628H115.198V35.4539L91.7188 2.21326L91.5955 2.06628H89.3018V39.4222H91.7681V6.03458L95.4676 11.2767V39.4222H97.934V14.755L115.371 39.4222H117.665V2.06628Z" fill="#FFFFFF"/>
  <path d="M215.949 35.4539L192.445 2.21325L192.346 2.06628H190.053V39.4222H192.519V6.03458L196.219 11.2767V39.4222H198.685V14.755L216.023 39.2752L216.122 39.4222H218.416V2.06628H215.949V35.4539Z" fill="#FFFFFF"/>
  <path d="M139.517 39.4222V4.51584H153.255V2.06628H123.313V4.51584H137.051V39.4222H139.517Z" fill="#FFFFFF"/>
  <path d="M158.878 39.4222H183.961V36.9726H167.51V21.5403H183.961V19.0908H167.51V4.49135H183.961V2.04179H158.878V39.4222ZM165.044 4.51585V36.9971H161.344V4.51585H165.044Z" fill="#FFFFFF"/>
  <path d="M224.532 39.4222H249.591V36.9726H233.14V21.5403H249.591V19.0908H233.14V4.49135H249.591V2.04179H224.508V39.4222H224.532ZM230.698 4.51585V36.9971H226.999V4.51585H230.698Z" fill="#FFFFFF"/>
  <path d="M258.198 36.9726V2.06628H255.731V39.4222H276.178V36.9726H258.198Z" fill="#FFFFFF"/>
  <path d="M18.2713 38.1239L16.4215 34.0086L30.6771 2.06628H28.1367L15.1637 31.1672L2.19069 2.06628H-0.152344V39.4222H2.31401V8.04323L16.2982 39.4222H20.2197L34.2286 8.04323V39.4222H36.695V2.06628H34.3519L18.2713 38.1239Z" fill="#FFFFFF"/>
  <path d="M63.0107 0.694523C51.8874 0.694523 42.8359 9.68444 42.8359 20.732C42.8359 31.7795 51.8874 40.7694 63.0107 40.7694C74.1339 40.7694 83.1855 31.7795 83.1855 20.732C83.1855 9.68444 74.1339 0.694523 63.0107 0.694523ZM63.0107 3.14409C67.2528 3.14409 71.347 4.66282 74.5532 7.40634V34.0576C71.347 36.8256 67.2282 38.3199 63.0107 38.3199C53.2439 38.3199 45.3023 30.4323 45.3023 20.732C45.2776 11.0317 53.2193 3.14409 63.0107 3.14409ZM80.7191 20.7565C80.7191 24.6513 79.4119 28.4236 77.0196 31.5101V10.0274C79.4119 13.0893 80.7191 16.8617 80.7191 20.7565Z" fill="#FFFFFF"/>
  <path d="M88.7843 52.3069L84.7148 63.3055H86.8112L87.8471 60.3905H91.4973L92.5332 63.3055H94.6296L90.5601 52.3069H88.7843ZM89.6969 55.2709L90.8561 58.5533H88.513L89.6969 55.2709Z" fill="#FFFFFF"/>
  <path d="M108.861 52.7968C108.293 52.4784 107.553 52.3069 106.69 52.3069H102.843V63.3055H104.841V59.5576H106.74C107.603 59.5576 108.343 59.3862 108.91 59.0677C109.477 58.7493 109.921 58.2839 110.192 57.745C110.464 57.2061 110.612 56.5937 110.612 55.9323C110.612 55.2709 110.464 54.6585 110.192 54.1196C109.872 53.5562 109.428 53.1153 108.861 52.7968ZM104.816 54.1441H106.641C107.134 54.1441 107.529 54.2176 107.825 54.389C108.096 54.536 108.293 54.732 108.417 54.9769C108.54 55.2464 108.614 55.5648 108.614 55.9323C108.614 56.2752 108.54 56.6182 108.417 56.8876C108.293 57.1326 108.096 57.353 107.825 57.5C107.554 57.647 107.159 57.745 106.666 57.745H104.816V54.1441Z" fill="#FFFFFF"/>
  <path d="M121.266 52.3069L117.196 63.3055H119.293L120.329 60.3905H123.979L125.015 63.3055H127.111L123.066 52.3069H121.266ZM122.154 55.2709L123.313 58.5533H120.97L122.154 55.2709Z" fill="#FFFFFF"/>
  <path d="M141.318 58.8473C141.91 58.5533 142.329 58.1369 142.625 57.598C142.896 57.0836 143.044 56.4712 143.044 55.8098C143.044 55.1484 142.896 54.536 142.625 54.0216C142.354 53.4827 141.91 53.0418 141.318 52.7478C140.75 52.4539 140.011 52.3069 139.147 52.3069H135.3V63.3055H137.298V59.2882H139.197C139.221 59.2882 139.221 59.2882 139.246 59.2882L141.416 63.3055H143.71L141.268 58.8963C141.268 58.8718 141.293 58.8473 141.318 58.8473ZM137.298 54.1441H139.123C139.616 54.1441 140.011 54.2176 140.307 54.3646C140.578 54.487 140.775 54.683 140.874 54.9035C140.997 55.1484 141.071 55.4669 141.071 55.8098C141.071 56.1527 140.997 56.4467 140.874 56.6916C140.75 56.9121 140.578 57.0836 140.307 57.2061C140.011 57.353 139.616 57.402 139.123 57.402H137.273V54.1441H137.298Z" fill="#FFFFFF"/>
  <path d="M151.257 54.1441H154.512V63.3055H156.486V54.1441H159.741V52.3069H151.257V54.1441Z" fill="#FFFFFF"/>
  <path d="M170.372 58.7003H175.033V56.8631H170.372V54.1441H175.354V52.3069H168.398V63.3055H175.452V61.4683H170.372V58.7003Z" fill="#FFFFFF"/>
  <path d="M186.329 52.3069H184.331V63.3055H191.138V61.4683H186.329V52.3069Z" fill="#FFFFFF"/>
</svg>
