<svg width="62" height="62" viewBox="0 0 62 62" fill="none" xmlns="http://www.w3.org/2000/svg">
<g clip-path="url(#clip0_32_1301)">
<path d="M17.142 19.8904L29.3109 47.3448H32.7076L44.859 19.8904V47.3448H46.9951V14.6552H44.859V14.9178L31.0092 46.2067L29.4159 42.5998L41.7774 14.6552H39.5887L28.3128 40.1135L17.142 14.9178V14.6552H15.0059V47.3448H17.142V19.8904Z" fill="#00365D"/>
<path d="M31.0263 62.0175C37.1585 62.0141 43.152 60.1925 48.249 56.7831C53.3461 53.3737 57.3178 48.5296 59.6621 42.8632C62.0064 37.1968 62.618 30.9625 61.4196 24.9485C60.2211 18.9346 57.2664 13.411 52.9291 9.07608C48.5917 4.74118 43.0665 1.78962 37.0518 0.594558C31.0372 -0.600503 24.8033 0.0145976 19.1382 2.36209C13.4731 4.70958 8.63122 8.68406 5.22471 13.783C1.81819 18.882 9.77574e-07 24.8766 0 31.0088C0.0139003 39.2316 3.28775 47.1133 9.10379 52.9261C14.9198 58.7389 22.8035 62.0083 31.0263 62.0175ZM31.0263 2.15364C36.7325 2.1571 42.3096 3.85237 47.0525 7.02511C51.7954 10.1979 55.4911 14.7056 57.6724 19.9785C59.8537 25.2514 60.4227 31.0527 59.3073 36.6488C58.192 42.245 55.4424 47.3849 51.4062 51.4186C47.3701 55.4523 42.2285 58.1988 36.6317 59.3107C31.0348 60.4227 25.2339 59.8502 19.9623 57.6657C14.6908 55.4813 10.1853 51.7828 7.01538 47.038C3.84551 42.2932 2.15363 36.715 2.15363 31.0088C2.15827 23.3543 5.20225 16.0149 10.6164 10.604C16.0306 5.19316 23.3718 2.15364 31.0263 2.15364Z" fill="#00365D"/>
</g>
<defs>
<clipPath id="clip0_32_1301">
<rect width="62" height="62" fill="white"/>
</clipPath>
</defs>
</svg>
