<svg width="575" height="1600" viewBox="0 0 575 1600" fill="none" xmlns="http://www.w3.org/2000/svg">
<g clip-path="url(#clip0_352_3743)">
<rect width="575" height="1600" fill="#EDE2D9"/>
<path style="mix-blend-mode:multiply" opacity="0.5" d="M239.389 440.867C24.7564 360.887 -115.522 252.013 -206.673 138.322C-226.532 121.856 -246.202 104.787 -265.683 87.0219L-602.652 127.09C36.3885 867.733 1038.76 608.451 1270.64 535.137C947.696 559.481 608.912 578.566 239.42 440.879L239.389 440.867Z" fill="url(#paint0_linear_352_3743)" fill-opacity="0.9"/>
<path style="mix-blend-mode:color-dodge" d="M2317.65 666.67C1691.44 303.764 1029.42 735.231 239.4 440.839C-487.198 170.111 -361.936 -431.543 -361.936 -431.543L2014.57 458.323L2317.64 666.696L2317.65 666.67Z" fill="url(#paint1_radial_352_3743)"/>
<g style="mix-blend-mode:color-dodge">
<path d="M2743.04 635.448C2095.75 329.219 1497.57 556.544 707.553 262.152C-19.0043 -8.59185 47.2124 -419.17 47.2124 -419.17L2424.42 468.814L2743.04 635.448Z" fill="url(#paint2_radial_352_3743)"/>
</g>
<g style="mix-blend-mode:color-dodge">
<path d="M900.502 325.292C865.609 316.638 831.163 306.222 796.976 294.922C762.809 283.568 728.822 271.731 695.226 258.752C627.903 233.236 561.812 204.32 498.071 171.073C434.453 137.78 372.859 100.463 316.343 57.2283C301.989 46.6725 288.455 35.2283 274.73 24.0187C261.461 12.336 247.979 0.849563 235.441 -11.4794L225.873 -20.5886C222.7 -23.6392 219.731 -26.8589 216.65 -29.9672L207.478 -39.3881L202.892 -44.0985L198.499 -48.9514C192.683 -55.4373 186.755 -61.9037 181.213 -68.5629C175.783 -75.3336 170.486 -82.1775 165.484 -89.1562C171.524 -82.8013 177.3 -76.3 182.943 -69.7255L200.431 -50.3754L204.793 -45.534L209.349 -40.835L218.5 -31.4525C221.581 -28.3442 224.519 -25.1359 227.702 -22.1123L237.249 -13.0414C249.736 -0.762262 263.197 10.6858 276.414 22.3187C290.119 33.49 303.601 44.8843 317.935 55.4018C374.286 98.5138 435.756 135.693 499.262 168.913C562.859 202.076 628.846 230.892 696.077 256.374C729.612 269.33 763.568 281.156 797.714 292.471C831.85 303.721 866.175 314.368 900.461 325.307L900.502 325.292Z" fill="url(#paint3_linear_352_3743)"/>
</g>
<g style="mix-blend-mode:color-dodge">
<path d="M40.7838 141.222C105.331 182.365 170.312 222.72 238.144 258.717L289.468 284.856C293.709 287.11 298.09 289.079 302.451 291.103L315.534 297.172L341.68 309.274L354.763 315.344C359.144 317.313 363.626 319.106 368.048 320.968L394.657 332.108C403.56 335.763 412.342 339.648 421.316 343.114L448.326 353.272C520.303 380.399 594.025 402.94 668.692 420.779C743.35 438.645 818.924 451.891 894.692 461.228C970.451 470.592 1046.41 476.14 1122.21 479.272C1198.01 482.405 1273.69 483.161 1349.34 483.418C1424.97 483.702 1500.59 483.395 1576.39 485.302C1614.3 486.441 1652.26 487.694 1690.23 490.448C1728.18 492.861 1766.27 496.425 1804.05 503.154C1766.03 500.258 1728.21 495.506 1690.27 493.343C1652.34 490.6 1614.44 489.343 1576.57 488.216C1500.83 486.331 1425.24 486.65 1349.59 486.393C1273.93 486.163 1198.21 485.449 1122.35 482.293C1046.47 479.165 970.434 473.648 894.542 464.266C818.67 454.921 742.954 441.683 668.132 423.786C593.301 405.917 519.416 383.346 447.285 356.161C303.003 301.844 165.302 229.49 40.8554 141.218L40.7838 141.222Z" fill="url(#paint4_linear_352_3743)"/>
</g>
<path style="mix-blend-mode:color-dodge" d="M-295.954 -2.76172C-295.954 -2.76172 -127.174 377.866 439.212 501.359" stroke="url(#paint5_linear_352_3743)" stroke-linecap="round" stroke-linejoin="round"/>
<path style="mix-blend-mode:color-dodge" d="M-765.33 229.041C-443.771 1013.49 303.671 911.068 972.069 730.063C1640.47 549.057 2015.18 601.858 2015.18 601.858C2015.18 601.858 1684.31 521.566 838.924 670.586C-100.909 836.233 -482.967 446.359 -625.581 -70.6749L-765.33 229.041Z" fill="url(#paint6_linear_352_3743)"/>
<path style="mix-blend-mode:multiply" opacity="0.7" d="M604.455 1602.31C793.967 1757.61 898.206 1916.4 951.053 2063.06C965.446 2086.6 979.438 2110.7 992.997 2135.43L1347.94 2211.56C957.886 1240.49 -146.516 1155.84 -406.628 1149.75C-71.3268 1236.95 278.182 1334.95 604.428 1602.29L604.455 1602.31Z" fill="url(#paint7_linear_352_3743)" fill-opacity="0.9"/>
<g style="mix-blend-mode:color-dodge">
<path d="M-1409.39 628.317C-1358.7 637.896 -1308.23 648.242 -1257.49 655.717C-1206.76 663.359 -1155.97 669.11 -1105.18 673.569C-1003.62 682.416 -902.266 686.061 -801.185 687.617C-599.008 690.631 -397.742 685.28 -195.31 689.517C-94.1178 691.64 7.43157 696.118 109.139 705.692C210.815 715.318 312.771 730.041 413.708 753.626C514.524 777.21 614.439 809.869 709.281 855.053C756.711 877.526 802.649 903.471 846.558 932.282C890.341 961.304 931.998 993.421 970.54 1028.58C891.066 960.77 802.146 903.493 707.665 858.666C613.201 813.671 513.666 781.059 413.109 757.521C312.446 733.956 210.688 719.244 109.18 709.61C7.60986 700.011 -93.8175 695.534 -194.949 693.376C-397.257 689.069 -598.507 694.394 -800.806 691.308C-901.946 689.716 -1003.42 686.07 -1105.12 677.177C-1155.95 672.727 -1206.83 666.923 -1257.68 659.279C-1308.47 651.46 -1359.38 642.746 -1409.42 628.299L-1409.39 628.317Z" fill="url(#paint8_linear_352_3743)"/>
</g>
<path style="mix-blend-mode:color-dodge" d="M-1912.64 834.272C-1322.91 1335.88 -543.589 1008.01 231.669 1468.77C944.694 1892.5 697.812 2502.01 697.812 2502.01L-1633.46 1111.48L-1912.62 834.246L-1912.64 834.272Z" fill="url(#paint9_radial_352_3743)"/>
<g style="mix-blend-mode:color-dodge">
<path d="M-2366.36 785.932C-1743.6 1231.9 -1070.51 1106.76 -295.255 1567.52C417.725 1991.26 269.524 2410.87 269.524 2410.87L-2062.85 1022.19L-2366.36 785.932Z" fill="url(#paint10_radial_352_3743)"/>
</g>
<g style="mix-blend-mode:color-dodge">
<path d="M-812.202 1293.77C-775.395 1304.9 -739.16 1317.9 -703.251 1331.83C-667.366 1345.81 -631.701 1360.3 -596.514 1375.99C-525.978 1406.91 -456.943 1441.39 -390.654 1480.37C-324.498 1519.39 -260.725 1562.61 -202.699 1611.87C-187.938 1623.93 -174.102 1636.89 -160.049 1649.61C-146.508 1662.82 -132.73 1675.82 -120.006 1689.68L-110.279 1699.93C-107.056 1703.36 -104.059 1706.96 -100.937 1710.45L-91.6503 1721.01L-87.0072 1726.3L-82.5783 1731.72C-76.7175 1738.97 -70.7356 1746.2 -65.1778 1753.61C-59.7453 1761.14 -54.4582 1768.74 -49.4941 1776.47C-55.6014 1769.35 -61.4178 1762.09 -67.0888 1754.76L-84.7199 1733.14L-89.1166 1727.73L-93.7275 1722.46L-102.994 1711.94C-106.116 1708.45 -109.081 1704.86 -112.316 1701.46L-122.023 1691.25C-134.694 1677.45 -148.453 1664.49 -161.941 1651.34C-175.974 1638.66 -189.757 1625.75 -204.499 1613.74C-262.356 1564.61 -326.004 1521.55 -392.043 1482.61C-458.183 1443.73 -527.113 1409.36 -597.553 1378.49C-632.675 1362.83 -668.309 1348.35 -704.173 1334.41C-740.03 1320.54 -776.122 1307.3 -812.157 1293.75L-812.202 1293.77Z" fill="url(#paint11_linear_352_3743)"/>
</g>
<g style="mix-blend-mode:color-dodge">
<path d="M383.437 1822.12C323.364 1766.48 262.684 1711.59 198.169 1660.74L149.145 1623.43C145.112 1620.24 140.878 1617.33 136.674 1614.37L124.064 1605.48L98.8574 1587.75L86.247 1578.86C82.0121 1575.95 77.6373 1573.21 73.3397 1570.41L47.4622 1553.6C38.7897 1548.05 30.2887 1542.28 21.5063 1536.92L-4.98189 1521.07C-75.5555 1478.77 -148.842 1440.97 -224.024 1407.93C-299.189 1374.87 -376.203 1346.5 -454.169 1322.2C-532.119 1297.88 -611.006 1277.54 -690.195 1259.77C-769.384 1242 -848.89 1226.76 -928.466 1212.05C-1008.03 1197.31 -1087.67 1183.2 -1167.1 1166.72C-1206.78 1158.29 -1246.5 1149.72 -1285.93 1139.57C-1325.42 1129.79 -1364.83 1118.76 -1403.31 1104.47C-1363.85 1114.77 -1324.95 1127 -1285.43 1136.52C-1246.02 1146.65 -1206.37 1155.2 -1166.73 1163.62C-1087.36 1180.06 -1007.74 1194.16 -928.169 1208.87C-848.577 1223.56 -769.009 1238.76 -689.76 1256.57C-610.495 1274.35 -531.516 1294.67 -453.429 1319.03C-375.357 1343.36 -298.191 1371.75 -222.859 1404.87C-147.511 1437.97 -74.0577 1475.84 -3.33323 1518.23C138.147 1602.96 269.252 1705.42 383.361 1822.11L383.437 1822.12Z" fill="url(#paint12_linear_352_3743)"/>
</g>
<path style="mix-blend-mode:color-dodge" fill-rule="evenodd" clip-rule="evenodd" d="M710.462 2038.48C710.194 2038.54 709.924 2038.38 709.859 2038.11L710.345 2037.99L710.831 2037.87C710.896 2038.14 710.731 2038.41 710.462 2038.48ZM710.345 2037.99C710.831 2037.87 710.83 2037.87 710.829 2037.87L710.826 2037.85L710.811 2037.79C710.798 2037.74 710.778 2037.66 710.751 2037.55C710.698 2037.34 710.618 2037.03 710.51 2036.61C710.293 2035.79 709.963 2034.55 709.508 2032.93C708.599 2029.7 707.191 2024.93 705.196 2018.77C701.206 2006.45 694.867 1988.6 685.472 1966.43C666.682 1922.09 635.664 1860.5 586.747 1791.46C488.911 1653.39 319.484 1485.55 33.1169 1366.45C32.862 1366.34 32.5693 1366.46 32.4633 1366.72C32.3573 1366.97 32.478 1367.26 32.7329 1367.37C318.911 1486.4 488.194 1654.1 585.931 1792.04C634.801 1861.01 665.786 1922.54 684.552 1966.82C693.935 1988.96 700.263 2006.79 704.244 2019.08C706.235 2025.22 707.64 2029.98 708.546 2033.21C708.999 2034.82 709.327 2036.04 709.543 2036.87C709.65 2037.28 709.729 2037.59 709.782 2037.8C709.808 2037.9 709.827 2037.98 709.84 2038.03L709.854 2038.09L709.858 2038.1C709.858 2038.11 709.859 2038.11 710.345 2037.99Z" fill="url(#paint13_linear_352_3743)"/>
<g style="mix-blend-mode:color-dodge">
<path d="M1248.71 1883.55C1060.24 996.291 253.927 961.437 -484.212 1024.4C-1222.35 1087.37 -1606.66 960.249 -1606.66 960.249C-1606.66 960.249 -1273.75 1107.94 -355.44 1112.44C665.464 1117.46 993.06 1600.85 1044.31 2172.41L1248.71 1883.55Z" fill="url(#paint14_linear_352_3743)" style="mix-blend-mode:color-dodge"/>
<path d="M1248.71 1883.55C1060.24 996.291 253.927 961.437 -484.212 1024.4C-1222.35 1087.37 -1606.66 960.249 -1606.66 960.249C-1606.66 960.249 -1273.75 1107.94 -355.44 1112.44C665.464 1117.46 993.06 1600.85 1044.31 2172.41L1248.71 1883.55Z" fill="#0A0A0A"/>
</g>
<path d="M-316.427 1065.09C-270.769 1063.22 -225.02 1063.62 -179.268 1065.16C-133.521 1066.78 -87.8192 1069.03 -42.1814 1072.79C49.0928 1079.73 140.092 1091.16 229.789 1108.6C319.353 1126.13 407.901 1149.18 492.393 1181.09C513.7 1188.68 534.325 1197.63 555.101 1206.22C575.491 1215.54 596.07 1224.56 615.802 1234.91L630.752 1242.45C635.72 1244.98 640.501 1247.79 645.378 1250.43L659.958 1258.48L667.248 1262.51L674.353 1266.77C683.783 1272.49 693.343 1278.15 702.501 1284.17C711.563 1290.36 720.489 1296.69 729.104 1303.28C719.449 1297.8 710.063 1292.05 700.812 1286.16L672.512 1269.15L665.448 1264.89L658.2 1260.87L643.659 1252.85C638.782 1250.22 634.043 1247.41 629.072 1244.91L614.161 1237.41C594.51 1227.1 573.97 1218.13 553.661 1208.85C532.924 1200.29 512.379 1191.38 491.111 1183.83C406.864 1152.01 318.517 1129.08 229.117 1111.6C139.626 1094.21 48.7881 1082.86 -42.3612 1075.93C-87.9157 1072.18 -133.576 1069.92 -179.284 1068.35C-224.955 1066.85 -270.64 1066.13 -316.383 1065.06L-316.427 1065.09Z" fill="white"/>
</g>
<defs>
<linearGradient id="paint0_linear_352_3743" x1="1418.72" y1="-88.9178" x2="171.391" y2="598.056" gradientUnits="userSpaceOnUse">
<stop stop-color="#CABDB3"/>
<stop offset="0.18" stop-color="#CABDB3"/>
<stop offset="0.39" stop-color="#CABDB3"/>
<stop offset="0.59" stop-color="#CABDB3"/>
<stop offset="0.77" stop-color="#E5E0E9"/>
<stop offset="0.91" stop-color="#F8F6F9"/>
<stop offset="1" stop-color="white"/>
</linearGradient>
<radialGradient id="paint1_radial_352_3743" cx="0" cy="0" r="1" gradientUnits="userSpaceOnUse" gradientTransform="translate(645.358 622.008) rotate(-81.2493) scale(395.596 1550.55)">
<stop stop-color="#3B3B3B"/>
<stop offset="0.07" stop-color="#303030"/>
<stop offset="0.25" stop-color="#1B1B1B"/>
<stop offset="0.44" stop-color="#0B0B0B"/>
<stop offset="0.67" stop-color="#020202"/>
<stop offset="1"/>
</radialGradient>
<radialGradient id="paint2_radial_352_3743" cx="0" cy="0" r="1" gradientUnits="userSpaceOnUse" gradientTransform="translate(809.721 845.446) rotate(-77.512) scale(194.278 2384.85)">
<stop stop-color="#3B3B3B"/>
<stop offset="0.61" stop-color="#141414"/>
<stop offset="1"/>
</radialGradient>
<linearGradient id="paint3_linear_352_3743" x1="139.467" y1="-23.5679" x2="923.243" y2="268.498" gradientUnits="userSpaceOnUse">
<stop/>
<stop offset="0.26" stop-color="#DBDBDB"/>
<stop offset="0.5" stop-color="#595959"/>
<stop offset="0.7" stop-color="#E0E0E0"/>
<stop offset="1"/>
</linearGradient>
<linearGradient id="paint4_linear_352_3743" x1="76.9834" y1="38.9069" x2="1747.04" y2="661.234" gradientUnits="userSpaceOnUse">
<stop/>
<stop offset="0.26" stop-color="#DBDBDB"/>
<stop offset="0.5" stop-color="#595959"/>
<stop offset="0.7" stop-color="#E0E0E0"/>
<stop offset="1"/>
</linearGradient>
<linearGradient id="paint5_linear_352_3743" x1="-337.649" y1="104.427" x2="475.875" y2="407.578" gradientUnits="userSpaceOnUse">
<stop/>
<stop offset="0.26" stop-color="#DBDBDB"/>
<stop offset="0.5" stop-color="#595959"/>
<stop offset="0.7" stop-color="#E0E0E0"/>
<stop offset="1"/>
</linearGradient>
<linearGradient id="paint6_linear_352_3743" x1="1636.7" y1="73.9585" x2="-815.441" y2="906.95" gradientUnits="userSpaceOnUse">
<stop offset="0.09"/>
<stop offset="0.37" stop-color="#3B3B3B"/>
<stop offset="0.39" stop-color="#363636"/>
<stop offset="0.53" stop-color="#181818"/>
<stop offset="0.64" stop-color="#060606"/>
<stop offset="0.73"/>
</linearGradient>
<linearGradient id="paint7_linear_352_3743" x1="-772.824" y1="1730.22" x2="727.859" y2="1467.27" gradientUnits="userSpaceOnUse">
<stop stop-color="#CABDB3"/>
<stop offset="0.18" stop-color="#CABDB3"/>
<stop offset="0.39" stop-color="#CABDB3"/>
<stop offset="0.59" stop-color="#CABDB3"/>
<stop offset="0.77" stop-color="#E5E0E9"/>
<stop offset="0.91" stop-color="#F8F6F9"/>
<stop offset="1" stop-color="white"/>
</linearGradient>
<linearGradient id="paint8_linear_352_3743" x1="755.079" y1="1395.65" x2="-1183.38" y2="243.579" gradientUnits="userSpaceOnUse">
<stop/>
<stop offset="0.26" stop-color="#DBDBDB"/>
<stop offset="0.5" stop-color="#595959"/>
<stop offset="0.7" stop-color="#E0E0E0"/>
<stop offset="1"/>
</linearGradient>
<radialGradient id="paint9_radial_352_3743" cx="0" cy="0" r="1" gradientUnits="userSpaceOnUse" gradientTransform="translate(-160.988 1200.53) rotate(109.041) scale(423.31 1658.63)">
<stop stop-color="#3B3B3B"/>
<stop offset="0.07" stop-color="#303030"/>
<stop offset="0.25" stop-color="#1B1B1B"/>
<stop offset="0.44" stop-color="#0B0B0B"/>
<stop offset="0.67" stop-color="#020202"/>
<stop offset="1"/>
</radialGradient>
<radialGradient id="paint10_radial_352_3743" cx="0" cy="0" r="1" gradientUnits="userSpaceOnUse" gradientTransform="translate(-291.268 933.917) rotate(112.777) scale(207.891 2551.05)">
<stop stop-color="#3B3B3B"/>
<stop offset="0.61" stop-color="#141414"/>
<stop offset="1"/>
</radialGradient>
<linearGradient id="paint11_linear_352_3743" x1="-18.1284" y1="1707.79" x2="-839.588" y2="1353.23" gradientUnits="userSpaceOnUse">
<stop/>
<stop offset="0.26" stop-color="#DBDBDB"/>
<stop offset="0.5" stop-color="#595959"/>
<stop offset="0.7" stop-color="#E0E0E0"/>
<stop offset="1"/>
</linearGradient>
<linearGradient id="paint12_linear_352_3743" x1="325.773" y1="1922.93" x2="-1313.07" y2="948.924" gradientUnits="userSpaceOnUse">
<stop/>
<stop offset="0.26" stop-color="#DBDBDB"/>
<stop offset="0.5" stop-color="#595959"/>
<stop offset="0.7" stop-color="#E0E0E0"/>
<stop offset="1"/>
</linearGradient>
<linearGradient id="paint13_linear_352_3743" x1="774.725" y1="1933.1" x2="-23.5961" y2="1458.64" gradientUnits="userSpaceOnUse">
<stop/>
<stop offset="0.26" stop-color="#DBDBDB"/>
<stop offset="0.5" stop-color="#595959"/>
<stop offset="0.7" stop-color="#E0E0E0"/>
<stop offset="1"/>
</linearGradient>
<linearGradient id="paint14_linear_352_3743" x1="-1309.23" y1="1588.27" x2="1431.22" y2="1180.38" gradientUnits="userSpaceOnUse">
<stop offset="0.09"/>
<stop offset="0.37" stop-color="#3B3B3B"/>
<stop offset="0.39" stop-color="#363636"/>
<stop offset="0.53" stop-color="#181818"/>
<stop offset="0.64" stop-color="#060606"/>
<stop offset="0.73"/>
</linearGradient>
<clipPath id="clip0_352_3743">
<rect width="575" height="1600" fill="white"/>
</clipPath>
</defs>
</svg>
