<svg width="1920" height="1119" viewBox="0 0 1920 1119" fill="none" xmlns="http://www.w3.org/2000/svg">
<g clip-path="url(#clip0_295_4195)">
<rect width="1920" height="1119" fill="#EDE2D9"/>
<path style="mix-blend-mode:color-dodge" d="M2599 298.807C1250.8 252.083 772.247 1457.02 -351.27 953.999L-384.461 1238.07H2599V298.807Z" fill="url(#paint0_radial_295_4195)"/>
<path style="mix-blend-mode:color-dodge" d="M2458.75 215.463C1563.04 66.6534 693.687 1424.19 -316.11 1011.37V1283.62H2458.75V215.463Z" fill="url(#paint1_radial_295_4195)"/>
<g style="mix-blend-mode:color-dodge">
<path d="M1992.35 257.48C1947.04 273.983 1901.54 289.768 1857.19 307.992C1812.77 326.073 1769.21 345.704 1726.27 366.368C1640.42 407.754 1557.23 453.214 1475.25 500.225C1311.34 594.332 1152.15 694.725 987.444 787.971C905.108 834.58 821.36 879.467 735.052 920.336C648.744 961.147 559.776 997.998 467.395 1027.24C375.111 1056.43 279.217 1077.9 181.418 1086.88C132.568 1091.47 83.2589 1092.56 34.2119 1090.38C-14.8351 1087.97 -63.6523 1082.06 -111.419 1072.22C-15.1634 1088.75 83.6528 1092.31 180.992 1083.21C278.396 1074.25 373.962 1052.93 466.016 1023.83C558.168 994.697 646.971 957.933 733.148 917.207C819.358 876.425 903.007 831.595 985.31 785.044C1149.95 691.912 1309.14 591.548 1473.19 497.441C1555.23 450.431 1638.51 404.912 1724.49 363.498C1767.47 342.806 1811.13 323.175 1855.65 305.036C1900.2 287.07 1945.27 269.764 1992.38 257.48H1992.35Z" fill="url(#paint2_linear_295_4195)"/>
</g>
<path style="mix-blend-mode:multiply" opacity="0.5" d="M2309.61 822.868V706.059C2309.61 706.059 1789.43 452.207 1056.75 866.434C1361.63 762.052 1724.43 701.323 2309.61 822.868Z" fill="url(#paint3_linear_295_4195)" fill-opacity="0.9"/>
<g style="mix-blend-mode:color-dodge">
<path d="M2107.19 647.742C2099.96 647.025 2092.77 646.135 2085.58 645.274C2078.43 644.298 2071.24 643.523 2064.05 642.72L2042.55 640.137L2021.01 637.898L2010.24 636.779L1999.44 635.918L1977.84 634.196C1963.39 633.363 1948.95 632.588 1934.5 632.043C1876.66 630.178 1818.68 632.043 1761.17 637.353C1703.62 642.576 1646.36 650.756 1590.06 662.637C1582.97 663.929 1575.98 665.565 1568.98 667.172L1547.97 671.965C1540.98 673.601 1533.92 675.065 1526.99 676.873L1506.21 682.354C1478.31 689.185 1451.32 698.34 1423.06 704.511C1449.68 694.293 1477.16 686.028 1505.03 678.882L1525.85 673.285C1532.81 671.448 1539.86 669.956 1546.86 668.263L1567.9 663.355C1574.93 661.69 1581.92 660.026 1589.01 658.706L1631.49 650.268L1674.3 643.15C1688.61 640.94 1702.99 639.247 1717.34 637.267C1724.5 636.233 1731.72 635.516 1738.94 634.798L1760.61 632.646C1818.42 627.48 1876.63 625.758 1934.7 627.796C1949.21 628.398 1963.72 629.202 1978.2 630.063L1999.9 631.842L2010.73 632.732L2021.53 633.909L2043.14 636.32C2050.33 637.209 2057.48 638.386 2064.64 639.448C2078.99 641.514 2093.1 644.614 2107.19 647.685V647.742Z" fill="url(#paint4_linear_295_4195)"/>
</g>
<path style="mix-blend-mode:color-dodge" d="M-620.668 1139.09C775.661 1418.68 793.192 501.258 2329.6 829.07V1273.03H-626.512L-620.668 1139.12V1139.09Z" fill="url(#paint5_radial_295_4195)"/>
<g style="mix-blend-mode:color-dodge">
<path d="M464.506 1096.99C524.256 1075.81 583.349 1053.42 642.015 1030.11C700.681 1006.78 758.788 982.415 817.093 958.422C933.637 910.378 1051.76 864.344 1174.64 829.846C1236.03 812.54 1298.44 798.018 1361.63 786.796C1424.83 775.546 1488.78 767.596 1553.03 762.746C1617.27 757.924 1681.82 756.231 1746.26 757.178C1810.74 758.441 1875.08 762.315 1939.2 768.055C1875.05 762.573 1810.71 758.957 1746.26 757.924C1681.82 757.178 1617.34 759.244 1553.19 764.152C1489.01 769.06 1425.16 777.096 1362.03 788.403C1298.93 799.683 1236.59 814.262 1175.33 831.626C1052.64 866.238 934.721 912.359 818.275 960.575C760.003 984.654 701.928 1009.11 643.262 1032.53C584.629 1055.94 525.306 1078.22 464.474 1096.96L464.506 1096.99Z" fill="url(#paint6_linear_295_4195)"/>
</g>
<path style="mix-blend-mode:color-dodge" d="M-544.963 1203.29C762.694 1385.85 779.076 786.88 2217.92 1000.87V1290.71H-550.413L-544.963 1203.26V1203.29Z" fill="url(#paint7_radial_295_4195)"/>
<g style="mix-blend-mode:color-dodge">
<path d="M-36.0767 1236.73C70.0605 1234.52 176.001 1226.11 280.562 1210.26C385.189 1194.71 488.175 1171.55 589.683 1144.4C691.257 1117.36 791.55 1086.71 892.927 1058.9L969.19 1038.64L1045.98 1019.95L1123.36 1003.22C1149.36 998.373 1175.36 993.608 1201.62 989.992C1175.95 996.077 1150.01 1001.01 1124.08 1005.86L1046.8 1022.62L970.109 1041.34L893.945 1061.66C792.666 1089.52 692.373 1120.26 590.733 1147.38C489.159 1174.62 386.01 1197.9 281.219 1213.57C176.427 1229.29 70.2574 1237.44 -36.011 1239.45C-36.8646 1239.45 -37.5868 1238.88 -37.6196 1238.1C-37.6196 1237.36 -36.9303 1236.73 -36.0767 1236.7V1236.73Z" fill="url(#paint8_linear_295_4195)"/>
</g>
<g style="mix-blend-mode:color-dodge">
<path d="M1266.36 1076.98C1276.87 1074.94 1287.41 1072.93 1297.98 1071.12L1313.83 1068.37L1321.78 1067.02L1329.76 1065.96L1361.73 1061.8L1377.75 1059.85L1393.84 1058.35L1425.98 1055.34C1436.71 1054.39 1447.48 1053.88 1458.22 1053.13L1474.34 1052.1L1482.41 1051.58L1490.49 1051.29L1522.79 1050.14C1533.56 1049.63 1544.33 1049.71 1555.13 1049.6C1565.9 1049.6 1576.7 1049.34 1587.47 1049.48C1609 1050.03 1630.57 1050.09 1652.11 1051.41C1695.18 1053.19 1738.12 1057.09 1780.83 1062.26C1823.57 1067.34 1865.96 1074.4 1907.98 1082.92C1949.97 1091.44 1991.56 1101.6 2032.5 1113.46C2073.44 1125.34 2113.65 1139.09 2153.02 1154.5C2172.65 1162.3 2192.12 1170.4 2211.22 1179.21C2230.33 1187.99 2249.14 1197.2 2267.29 1207.56C2268.05 1207.99 2268.28 1208.88 2267.79 1209.54C2267.29 1210.2 2266.28 1210.41 2265.52 1209.98H2265.49C2247.53 1199.79 2228.65 1190.66 2209.61 1181.99C2190.54 1173.3 2171.11 1165.32 2151.51 1157.6C2112.21 1142.36 2071.99 1128.93 2031.22 1117.07C1990.41 1105.22 1948.98 1095.09 1907.09 1086.57C1865.23 1078.07 1822.95 1070.98 1780.34 1065.9C1737.76 1060.74 1694.95 1056.83 1651.98 1055.02C1630.5 1053.7 1609 1053.62 1587.53 1053.07C1576.8 1052.9 1566.03 1053.16 1555.29 1053.16C1544.56 1053.24 1533.79 1053.16 1523.05 1053.67L1490.82 1054.79L1482.77 1055.08L1474.73 1055.6L1458.64 1056.63C1447.94 1057.38 1437.17 1057.87 1426.5 1058.81L1394.43 1061.8L1378.38 1063.29L1362.39 1065.24L1330.41 1068.94C1309.11 1071.56 1287.9 1074.68 1266.49 1076.98H1266.36Z" fill="url(#paint9_linear_295_4195)"/>
</g>
<path style="mix-blend-mode:color-dodge" d="M2010.9 1096.35C2012.31 1088.09 1936.77 1071.33 1842.15 1058.93C1747.54 1046.53 1669.7 1043.2 1668.29 1051.46C1666.88 1059.73 1742.42 1076.49 1837 1088.89C1931.61 1101.29 2009.45 1104.62 2010.86 1096.35H2010.9Z" fill="url(#paint10_radial_295_4195)"/>
<path style="mix-blend-mode:color-dodge" d="M1926.89 1085.33C1927.61 1081.11 1889.1 1072.56 1840.91 1066.24C1792.68 1059.93 1753.02 1058.24 1752.3 1062.46C1751.58 1066.67 1790.09 1075.23 1838.28 1081.54C1886.51 1087.85 1926.16 1089.55 1926.89 1085.33Z" fill="url(#paint11_radial_295_4195)"/>
<path style="mix-blend-mode:color-dodge" d="M2010.9 1096.35C2012.31 1088.09 1936.77 1071.33 1842.15 1058.93C1747.54 1046.53 1669.7 1043.2 1668.29 1051.46C1666.88 1059.73 1742.42 1076.49 1837 1088.89C1931.61 1101.29 2009.45 1104.62 2010.86 1096.35H2010.9Z" fill="url(#paint12_radial_295_4195)"/>
<path style="mix-blend-mode:color-dodge" d="M1926.89 1085.33C1927.61 1081.11 1889.1 1072.56 1840.91 1066.24C1792.68 1059.93 1753.02 1058.24 1752.3 1062.46C1751.58 1066.67 1790.09 1075.23 1838.28 1081.54C1886.51 1087.85 1926.16 1089.55 1926.89 1085.33Z" fill="url(#paint13_radial_295_4195)"/>
<path style="mix-blend-mode:multiply" opacity="0.65" d="M-316.11 791.902V1011.37C1.15259 1141.07 304.528 1096.01 599.237 977.821C495.956 1013.72 19.8324 1095.26 -316.11 791.902Z" fill="url(#paint14_linear_295_4195)" fill-opacity="0.9"/>
<path style="mix-blend-mode:multiply" opacity="0.5" d="M152.078 273.771C-72.6197 229.331 -228.574 144.422 -336.815 46.8614C-359.063 33.8014 -381.221 20.1157 -403.304 5.71341L-729.451 99.4254C20.3327 727.717 967.988 310.684 1185.07 201.049C870.241 276.987 538.93 350.281 152.11 273.777L152.078 273.771Z" fill="url(#paint15_linear_295_4195)" fill-opacity="0.9"/>
<path style="mix-blend-mode:color-dodge" d="M2239.61 162.573C1563.21 -94.9554 979.154 437.317 152.085 273.742C-608.582 123.329 -581.66 -490.636 -581.66 -490.636L1906.98 5.65421L2239.61 162.601L2239.61 162.573Z" fill="url(#paint16_radial_295_4195)"/>
<g style="mix-blend-mode:color-dodge">
<path d="M2654.45 63.3798C1966.35 -134.821 1412.5 185.702 585.427 22.1269C-175.202 -128.308 -175.844 -544.19 -175.844 -544.19L2313.19 -49.8713L2654.45 63.3798Z" fill="url(#paint17_radial_295_4195)"/>
</g>
<g style="mix-blend-mode:color-dodge">
<path d="M786.017 53.4307C750.187 50.4986 714.514 45.7546 678.955 40.0969C643.408 34.3829 607.96 28.1622 572.714 20.7525C502.165 6.39007 432.286 -11.5262 364.03 -34.095C295.887 -56.7292 229.096 -83.66 166.365 -117.248C150.5 -125.359 135.304 -134.479 119.955 -143.337C104.981 -152.735 89.8274 -161.904 75.471 -172.058L64.5628 -179.511C60.9412 -182.011 57.493 -184.712 53.9525 -187.285L43.3855 -195.109L38.102 -199.021L32.9863 -203.104C26.2031 -208.571 19.3122 -214 12.7724 -219.682C6.32487 -225.492 -0.00381936 -231.395 -6.0625 -237.479C0.920662 -232.178 7.66605 -226.69 14.2925 -221.108L34.6643 -204.82L39.7478 -200.743L44.9991 -196.838L55.5394 -189.048C59.0799 -186.475 62.496 -183.781 66.1232 -181.308L77.0047 -173.89C91.3023 -163.778 106.429 -154.642 121.344 -145.285C136.667 -136.462 151.804 -127.383 167.642 -119.307C230.191 -85.8132 296.838 -58.9987 364.857 -36.4182C432.958 -13.9093 502.72 3.9252 573.172 18.2685C608.354 25.6654 643.769 31.8798 679.29 37.5593C714.79 43.1761 750.38 48.1671 785.98 53.4524L786.017 53.4307Z" fill="url(#paint18_linear_295_4195)"/>
</g>
<g style="mix-blend-mode:color-dodge">
<path d="M1782.47 92.2034L1715.66 97.6845L1682.42 101.291L1665.8 103.095L1657.49 103.996L1649.24 105.114L1616.21 109.698C1605.22 111.27 1594.15 112.591 1583.25 114.589L1550.46 120.129C1539.52 121.945 1528.59 123.761 1517.74 125.976C1430.73 142.235 1344.92 162.418 1259.28 183.046C1173.65 203.675 1088.07 224.547 1001.72 243.191C980.088 247.66 958.523 252.465 936.774 256.677C915.01 260.798 893.33 265.17 871.481 269.041C849.575 272.695 827.732 276.537 805.816 280.073C783.79 283.147 761.857 286.767 739.444 288.244C761.085 283.396 783.173 280.685 805.13 277.45C827.014 273.908 848.83 270.032 870.71 266.343C892.499 262.431 914.158 257.997 935.89 253.869C957.58 249.616 979.119 244.777 1000.72 240.273C1086.99 221.554 1172.43 200.362 1258.11 179.831C1343.78 159.356 1429.71 139.283 1516.9 123.146C1527.74 120.96 1538.7 119.178 1549.67 117.34L1582.52 111.841C1593.42 109.872 1604.52 108.557 1615.54 106.991L1648.63 102.448L1656.91 101.337L1665.25 100.498L1681.93 98.8541L1715.28 95.589C1737.62 94.0992 1760.03 93.1481 1782.44 92.197L1782.47 92.2034Z" fill="url(#paint19_linear_295_4195)"/>
</g>
<g style="mix-blend-mode:color-dodge">
<path d="M-92.11 9.94754C-21.7886 40.1803 48.8342 69.5656 121.57 94.1906L176.429 111.74C180.976 113.283 185.617 114.523 190.247 115.819L204.135 119.706L231.886 127.448L245.775 131.336C250.416 132.575 255.128 133.624 259.791 134.751L287.845 141.47C297.22 143.646 306.512 146.069 315.926 148.048L344.218 153.731C419.62 168.936 496.006 179.333 572.57 184.938C649.129 190.572 725.849 191.497 802.133 188.534C878.412 185.598 954.271 178.864 1029.59 169.771C1104.91 160.678 1179.72 149.261 1254.43 137.354C1329.13 125.476 1403.71 113.019 1478.84 102.717C1516.43 97.7474 1554.11 92.8817 1592.02 89.4974C1629.87 85.7779 1668.03 83.1739 1706.41 83.7417C1668.42 86.9943 1630.33 88.3839 1592.53 92.3477C1554.65 95.7384 1517.04 100.589 1479.48 105.564C1404.42 115.879 1329.87 128.343 1255.16 140.249C1180.45 152.184 1105.6 163.651 1030.21 172.732C954.82 181.84 878.886 188.618 802.473 191.556C726.086 194.528 649.226 193.634 572.501 187.997C495.77 182.388 419.217 171.987 343.655 156.75C192.518 126.332 44.9774 77.053 -92.04 9.9321L-92.11 9.94754Z" fill="url(#paint20_linear_295_4195)"/>
</g>
<path style="mix-blend-mode:color-dodge" d="M-447.613 -78.0361C-447.613 -78.0361 -219.845 270.512 359.026 301.356" stroke="url(#paint21_linear_295_4195)" stroke-linecap="round" stroke-linejoin="round"/>
<path style="mix-blend-mode:color-dodge" d="M-873.625 226.201C-430.153 948.763 291.106 727.526 921.717 441.434C1552.33 155.342 1930.65 147.225 1930.65 147.225C1930.65 147.225 1591.18 121.161 780.743 404.132C-120.243 718.696 -560.002 395.305 -783.871 -92.0811L-873.625 226.201Z" fill="url(#paint22_linear_295_4195)"/>
</g>
<defs>
<radialGradient id="paint0_radial_295_4195" cx="0" cy="0" r="1" gradientUnits="userSpaceOnUse" gradientTransform="translate(1760.41 1196.47) rotate(-116.488) scale(427.735 1436.3)">
<stop stop-color="#3B3B3B"/>
<stop offset="0.07" stop-color="#303030"/>
<stop offset="0.25" stop-color="#1B1B1B"/>
<stop offset="0.44" stop-color="#0B0B0B"/>
<stop offset="0.67" stop-color="#020202"/>
<stop offset="1"/>
</radialGradient>
<radialGradient id="paint1_radial_295_4195" cx="0" cy="0" r="1" gradientUnits="userSpaceOnUse" gradientTransform="translate(635.797 850.239) rotate(-120.998) scale(390.084 1447.35)">
<stop stop-color="#3B3B3B"/>
<stop offset="0.07" stop-color="#303030"/>
<stop offset="0.25" stop-color="#1B1B1B"/>
<stop offset="0.44" stop-color="#0B0B0B"/>
<stop offset="0.67" stop-color="#020202"/>
<stop offset="1"/>
</radialGradient>
<linearGradient id="paint2_linear_295_4195" x1="-113.586" y1="674.463" x2="1994.48" y2="674.463" gradientUnits="userSpaceOnUse">
<stop/>
<stop offset="0.26" stop-color="#DBDBDB"/>
<stop offset="0.5" stop-color="#595959"/>
<stop offset="0.7" stop-color="#E0E0E0"/>
<stop offset="1"/>
</linearGradient>
<linearGradient id="paint3_linear_295_4195" x1="230.663" y1="758.408" x2="2409.48" y2="733.924" gradientUnits="userSpaceOnUse">
<stop stop-color="#CABDB3"/>
<stop offset="0.18" stop-color="#CABDB3"/>
<stop offset="0.39" stop-color="#CABDB3"/>
<stop offset="0.59" stop-color="#CABDB3"/>
<stop offset="0.77" stop-color="#E5E0E9"/>
<stop offset="0.91" stop-color="#F8F6F9"/>
<stop offset="1" stop-color="white"/>
</linearGradient>
<linearGradient id="paint4_linear_295_4195" x1="1420.76" y1="665.766" x2="2109.45" y2="665.766" gradientUnits="userSpaceOnUse">
<stop/>
<stop offset="0.26" stop-color="#DBDBDB"/>
<stop offset="0.5" stop-color="#595959"/>
<stop offset="0.7" stop-color="#E0E0E0"/>
<stop offset="1"/>
</linearGradient>
<radialGradient id="paint5_radial_295_4195" cx="0" cy="0" r="1" gradientUnits="userSpaceOnUse" gradientTransform="translate(454.064 126.416) rotate(-126.586) scale(532.557 2586.62)">
<stop stop-color="#3B3B3B"/>
<stop offset="0.23" stop-color="#222222"/>
<stop offset="0.5"/>
</radialGradient>
<linearGradient id="paint6_linear_295_4195" x1="462.963" y1="926.967" x2="1940.81" y2="926.967" gradientUnits="userSpaceOnUse">
<stop/>
<stop offset="0.26" stop-color="#DBDBDB"/>
<stop offset="0.5" stop-color="#595959"/>
<stop offset="0.7" stop-color="#E0E0E0"/>
<stop offset="1"/>
</linearGradient>
<radialGradient id="paint7_radial_295_4195" cx="0" cy="0" r="1" gradientUnits="userSpaceOnUse" gradientTransform="translate(302.102 856.101) rotate(-93.3735) scale(239.175 2001.58)">
<stop stop-color="#3B3B3B"/>
<stop offset="0.13" stop-color="#373737"/>
<stop offset="0.26" stop-color="#2B2B2B"/>
<stop offset="0.39" stop-color="#171717"/>
<stop offset="0.5"/>
</radialGradient>
<linearGradient id="paint8_linear_295_4195" x1="-37.6196" y1="1114.72" x2="1203.2" y2="1114.72" gradientUnits="userSpaceOnUse">
<stop/>
<stop offset="0.26" stop-color="#DBDBDB"/>
<stop offset="0.5" stop-color="#595959"/>
<stop offset="0.7" stop-color="#E0E0E0"/>
<stop offset="1"/>
</linearGradient>
<linearGradient id="paint9_linear_295_4195" x1="1264.36" y1="1129.82" x2="2268.31" y2="1129.82" gradientUnits="userSpaceOnUse">
<stop/>
<stop offset="0.26" stop-color="#DBDBDB"/>
<stop offset="0.5" stop-color="#595959"/>
<stop offset="0.7" stop-color="#E0E0E0"/>
<stop offset="1"/>
</linearGradient>
<radialGradient id="paint10_radial_295_4195" cx="0" cy="0" r="1" gradientUnits="userSpaceOnUse" gradientTransform="translate(1825.7 1064.08) rotate(7.46127) scale(172.349 15.0617)">
<stop stop-color="#808080"/>
<stop offset="0.18" stop-color="#5E5E5E"/>
<stop offset="0.43" stop-color="#353535"/>
<stop offset="0.66" stop-color="#181818"/>
<stop offset="0.86" stop-color="#060606"/>
<stop offset="1"/>
</radialGradient>
<radialGradient id="paint11_radial_295_4195" cx="0" cy="0" r="1" gradientUnits="userSpaceOnUse" gradientTransform="translate(1825.7 1064.08) rotate(7.46129) scale(87.8339 7.67592)">
<stop stop-color="#DEDEDE"/>
<stop offset="0.12" stop-color="#B5B5B5"/>
<stop offset="0.29" stop-color="#7E7E7E"/>
<stop offset="0.45" stop-color="#515151"/>
<stop offset="0.61" stop-color="#2D2D2D"/>
<stop offset="0.76" stop-color="#141414"/>
<stop offset="0.89" stop-color="#050505"/>
<stop offset="1"/>
</radialGradient>
<radialGradient id="paint12_radial_295_4195" cx="0" cy="0" r="1" gradientUnits="userSpaceOnUse" gradientTransform="translate(1825.7 1064.08) rotate(7.46127) scale(172.349 15.0617)">
<stop stop-color="#808080"/>
<stop offset="0.18" stop-color="#5E5E5E"/>
<stop offset="0.43" stop-color="#353535"/>
<stop offset="0.66" stop-color="#181818"/>
<stop offset="0.86" stop-color="#060606"/>
<stop offset="1"/>
</radialGradient>
<radialGradient id="paint13_radial_295_4195" cx="0" cy="0" r="1" gradientUnits="userSpaceOnUse" gradientTransform="translate(1825.7 1064.08) rotate(7.46129) scale(87.8339 7.67592)">
<stop stop-color="#DEDEDE"/>
<stop offset="0.12" stop-color="#B5B5B5"/>
<stop offset="0.29" stop-color="#7E7E7E"/>
<stop offset="0.45" stop-color="#515151"/>
<stop offset="0.61" stop-color="#2D2D2D"/>
<stop offset="0.76" stop-color="#141414"/>
<stop offset="0.89" stop-color="#050505"/>
<stop offset="1"/>
</radialGradient>
<linearGradient id="paint14_linear_295_4195" x1="1088.85" y1="1280.29" x2="-190.835" y2="780.143" gradientUnits="userSpaceOnUse">
<stop stop-color="#CABDB3"/>
<stop offset="0.18" stop-color="#CABDB3"/>
<stop offset="0.39" stop-color="#CABDB3"/>
<stop offset="0.59" stop-color="#CABDB3"/>
<stop offset="0.77" stop-color="#E5E0E9"/>
<stop offset="0.91" stop-color="#F8F6F9"/>
<stop offset="1" stop-color="white"/>
</linearGradient>
<linearGradient id="paint15_linear_295_4195" x1="1230.92" y1="-438.694" x2="110.232" y2="439.846" gradientUnits="userSpaceOnUse">
<stop stop-color="#CABDB3"/>
<stop offset="0.18" stop-color="#CABDB3"/>
<stop offset="0.39" stop-color="#CABDB3"/>
<stop offset="0.59" stop-color="#CABDB3"/>
<stop offset="0.77" stop-color="#E5E0E9"/>
<stop offset="0.91" stop-color="#F8F6F9"/>
<stop offset="1" stop-color="white"/>
</linearGradient>
<radialGradient id="paint16_radial_295_4195" cx="0" cy="0" r="1" gradientUnits="userSpaceOnUse" gradientTransform="translate(581.886 387.301) rotate(-90.4993) scale(395.596 1550.55)">
<stop stop-color="#3B3B3B"/>
<stop offset="0.07" stop-color="#303030"/>
<stop offset="0.25" stop-color="#1B1B1B"/>
<stop offset="0.44" stop-color="#0B0B0B"/>
<stop offset="0.67" stop-color="#020202"/>
<stop offset="1"/>
</radialGradient>
<radialGradient id="paint17_radial_295_4195" cx="0" cy="0" r="1" gradientUnits="userSpaceOnUse" gradientTransform="translate(780.027 581.413) rotate(-86.762) scale(194.278 2384.85)">
<stop stop-color="#3B3B3B"/>
<stop offset="0.61" stop-color="#141414"/>
<stop offset="1"/>
</radialGradient>
<linearGradient id="paint18_linear_295_4195" x1="-21.1987" y1="-168.562" x2="799.333" y2="-6.28027" gradientUnits="userSpaceOnUse">
<stop/>
<stop offset="0.26" stop-color="#DBDBDB"/>
<stop offset="0.5" stop-color="#595959"/>
<stop offset="0.7" stop-color="#E0E0E0"/>
<stop offset="1"/>
</linearGradient>
<linearGradient id="paint19_linear_295_4195" x1="776.321" y1="94.3445" x2="1745.71" y2="286.066" gradientUnits="userSpaceOnUse">
<stop/>
<stop offset="0.26" stop-color="#DBDBDB"/>
<stop offset="0.5" stop-color="#595959"/>
<stop offset="0.7" stop-color="#E0E0E0"/>
<stop offset="1"/>
</linearGradient>
<linearGradient id="paint20_linear_295_4195" x1="-72.8274" y1="-96.8555" x2="1675.54" y2="248.931" gradientUnits="userSpaceOnUse">
<stop/>
<stop offset="0.26" stop-color="#DBDBDB"/>
<stop offset="0.5" stop-color="#595959"/>
<stop offset="0.7" stop-color="#E0E0E0"/>
<stop offset="1"/>
</linearGradient>
<linearGradient id="paint21_linear_295_4195" x1="-471.536" y1="34.4611" x2="380.138" y2="202.902" gradientUnits="userSpaceOnUse">
<stop/>
<stop offset="0.26" stop-color="#DBDBDB"/>
<stop offset="0.5" stop-color="#595959"/>
<stop offset="0.7" stop-color="#E0E0E0"/>
<stop offset="1"/>
</linearGradient>
<linearGradient id="paint22_linear_295_4195" x1="1472.25" y1="-312.973" x2="-814.115" y2="903.35" gradientUnits="userSpaceOnUse">
<stop offset="0.09"/>
<stop offset="0.37" stop-color="#3B3B3B"/>
<stop offset="0.39" stop-color="#363636"/>
<stop offset="0.53" stop-color="#181818"/>
<stop offset="0.64" stop-color="#060606"/>
<stop offset="0.73"/>
</linearGradient>
<clipPath id="clip0_295_4195">
<rect width="1920" height="1119" fill="white"/>
</clipPath>
</defs>
</svg>
