<?xml version="1.0" encoding="utf-8"?><svg viewBox="0 0 74 74" xmlns="http://www.w3.org/2000/svg" xmlns:xlink="http://www.w3.org/1999/xlink"><style>:root>svg{display:none}:root>svg:target{display:block}</style><svg viewBox="0 0 22 10" fill="none" id="arrow" xmlns="http://www.w3.org/2000/svg"><path fill-rule="evenodd" clip-rule="evenodd" d="M16.597.231a.752.752 0 0 1 1.085 0l4.093 4.21c.3.31.3.809 0 1.117l-4.093 4.21a.752.752 0 0 1-1.085 0 .806.806 0 0 1 0-1.116L19.38 5.79H.767A.779.779 0 0 1 0 5c0-.436.344-.79.767-.79H19.38l-2.783-2.862a.806.806 0 0 1 0-1.117Z" fill="currentColor"/></svg><svg viewBox="0 0 10 6" fill="none" id="arrow2" xmlns="http://www.w3.org/2000/svg"><path d="m1 1 4 4 4-4" stroke="currentColor" stroke-width="2" stroke-linecap="round" stroke-linejoin="round"/></svg><svg viewBox="0 0 16 16" fill="none" id="close" xmlns="http://www.w3.org/2000/svg"><path fill-rule="evenodd" clip-rule="evenodd" d="M.26.26a.889.889 0 0 1 1.257 0L8 6.743 14.483.26a.889.889 0 1 1 1.257 1.257L9.257 8l6.483 6.483a.889.889 0 1 1-1.257 1.257L8 9.257 1.517 15.74A.889.889 0 1 1 .26 14.483L6.743 8 .26 1.517A.889.889 0 0 1 .26.26Z" fill="currentColor"/></svg><svg viewBox="0 0 20 18" fill="none" id="handshake" xmlns="http://www.w3.org/2000/svg"><path fill-rule="evenodd" clip-rule="evenodd" d="M14.637 2.031a4.742 4.742 0 0 0-5.716.695L6.307 5.303a1.25 1.25 0 0 0 0 1.78 1.285 1.285 0 0 0 1.804 0l.819-.808a3.514 3.514 0 0 1 2.465-1.007c.925 0 1.811.362 2.466 1.006l3.61 3.56c.081.081.158.167.228.257h.84l-.708-7.676-.94.186h-.003a2.588 2.588 0 0 1-1.816-.314l-.435-.256Zm3.067-.994L17.677.75a.69.69 0 0 1 .632-.748.695.695 0 0 1 .758.623l.93 10.091a.682.682 0 0 1-.18.526.702.702 0 0 1-.515.224h-1.06a2.611 2.611 0 0 1-.772 2.092 2.69 2.69 0 0 1-2.488.705 2.602 2.602 0 0 1-.768 1.588 2.675 2.675 0 0 1-1.888.772 2.703 2.703 0 0 1-1.617-.537 2.626 2.626 0 0 1-.68 1.142 2.69 2.69 0 0 1-1.89.771 2.69 2.69 0 0 1-1.888-.771L.204 11.265a.683.683 0 0 1-.201-.549L.933.627a.695.695 0 0 1 .758-.624.69.69 0 0 1 .632.748l-.016.167h6.69A6.154 6.154 0 0 1 15.353.85l.441.259a1.177 1.177 0 0 0 .826.143l1.085-.215ZM7.385 2.294H2.18l-.758 8.227 5.816 5.735a1.285 1.285 0 0 0 1.804 0 1.25 1.25 0 0 0 0-1.78l-.466-.458a.681.681 0 0 1 0-.973.705.705 0 0 1 .987 0l1.86 1.835a1.276 1.276 0 0 0 .903.368 1.292 1.292 0 0 0 .902-.368 1.256 1.256 0 0 0 .373-.89 1.243 1.243 0 0 0-.373-.89l-1.86-1.834a.681.681 0 0 1 0-.973.705.705 0 0 1 .986 0l2.325 2.293a1.284 1.284 0 0 0 1.804 0 1.25 1.25 0 0 0 0-1.779l-3.609-3.559a2.108 2.108 0 0 0-1.479-.604c-.554 0-1.086.218-1.479.604l-.818.807a2.69 2.69 0 0 1-1.889.772 2.69 2.69 0 0 1-1.888-.772 2.616 2.616 0 0 1-.783-1.862c0-.699.282-1.369.783-1.863l2.064-2.036Z" fill="currentColor"/></svg><svg fill="none" viewBox="0 0 74 74" id="plus" xmlns="http://www.w3.org/2000/svg"><path d="M22.6 37h28.8M37 22.6v28.8M73 37c0 19.882-16.118 36-36 36S1 56.882 1 37 17.118 1 37 1s36 16.118 36 36Z" stroke="#A38062" stroke-width="2" stroke-linecap="round" stroke-linejoin="round"/></svg><svg viewBox="0 0 20 20" fill="none" id="star" xmlns="http://www.w3.org/2000/svg"><path d="M10 .05c-.683 0-1.29.44-1.5 1.09L6.797 5.945a.343.343 0 0 1-.309.25l-4.921.207A1.653 1.653 0 0 0 .114 7.554a1.645 1.645 0 0 0 .518 1.753l3.878 3.176c.119.1.17.27.123.425l-1.337 4.976a1.597 1.597 0 0 0 .569 1.73 1.604 1.604 0 0 0 1.839.072l4.12-2.873a.297.297 0 0 1 .346-.004l4.14 2.865c.61.36 1.328.311 1.848-.1a1.605 1.605 0 0 0 .572-1.604l-1.361-5.066a.41.41 0 0 1 .128-.427l3.864-3.153a1.646 1.646 0 0 0-.899-2.907l-4.957-.208a.333.333 0 0 1-.298-.233l-1.712-4.85A1.573 1.573 0 0 0 10 .05Z" fill="#FF9400"/></svg></svg>