<svg width="556" height="91" viewBox="0 0 556 91" fill="none" xmlns="http://www.w3.org/2000/svg">
<path fill-rule="evenodd" clip-rule="evenodd" d="M298.757 0.933011C298.224 1.0333 296.827 1.41562 295.653 1.78293C292.963 2.62427 291.248 2.86558 289.19 2.6924C288.077 2.59879 287.628 2.45848 287.76 2.24672C287.987 1.88298 286.752 1.42443 285.545 1.42443C284.904 1.42443 284.745 1.53448 284.892 1.87797C285.043 2.23314 284.841 2.35343 283.96 2.43299C282.652 2.55067 281.602 2.01971 282.732 1.81199C283.117 1.74124 282.001 1.71433 280.252 1.75196C278.416 1.79151 276.822 1.94801 276.48 2.12237C276.154 2.2884 275.268 2.51017 274.511 2.61498C273.342 2.77673 273.071 2.73266 272.712 2.32104C272.333 1.88584 272.037 1.8513 269.8 1.97945C267.411 2.11642 265.203 2.5602 266.553 2.6319C266.873 2.64905 266.712 2.73552 266.194 2.82437C265.676 2.91322 265.189 3.10426 265.11 3.24861C264.906 3.62426 266.909 3.88105 267.539 3.56019C267.827 3.41345 268.465 3.33437 268.957 3.38439C269.776 3.46752 269.736 3.5085 268.493 3.87081L267.135 4.26671L268.493 4.16047C270.934 3.9699 271.394 3.96919 272.085 4.15332C273.006 4.39891 275.288 4.11449 275.874 3.6812C276.135 3.48801 276.774 3.33008 277.293 3.33008C277.825 3.33008 278.134 3.22574 277.999 3.09187C277.867 2.96086 278.105 2.85367 278.527 2.85367C278.949 2.85367 279.526 2.8177 279.81 2.77363C280.095 2.72956 280.196 2.73861 280.036 2.7934C279.387 3.01636 279.798 3.56876 280.618 3.57472C281.416 3.58067 281.366 3.65285 280.042 4.40844C278.504 5.28599 278.743 5.25621 272.567 5.34602C269.068 5.39675 268.787 5.42629 269.075 5.71214C269.219 5.85506 268.723 5.95035 267.834 5.95035C266.749 5.95035 266.216 5.81647 265.844 5.45083C265.564 5.17594 265.391 4.92368 265.46 4.89033C265.527 4.85698 265.932 4.70977 266.359 4.56351C267.058 4.32387 267.01 4.29672 265.874 4.29005C265.181 4.28624 264.613 4.18238 264.613 4.05923C264.613 3.72622 261.202 3.46872 260.633 3.75861C260.301 3.9275 259.489 3.91106 258.017 3.70525C256.349 3.47181 256.063 3.37105 256.705 3.24313C257.577 3.06972 259.158 2.135 258.562 2.14477C258.369 2.1481 257.45 2.25839 256.519 2.39012C255.318 2.5602 254.675 2.55257 254.305 2.36392C253.718 2.06449 253.034 2.25005 252.244 2.9237C251.949 3.17501 251.08 3.54137 250.313 3.73813L248.918 4.09591L250.072 4.38557L251.225 4.67499L249.48 5.06636C247.546 5.50061 247.139 5.54301 245.31 5.50204C244.617 5.48656 244.049 5.35435 244.049 5.20786C244.049 5.05017 244.459 4.9899 245.055 5.06017C245.947 5.16474 246.041 5.11234 245.883 4.60329C245.785 4.28695 245.78 4.07495 245.873 4.13188C246.051 4.24122 249.96 3.44442 251.126 3.06138C252.205 2.70693 251.925 2.45277 250.548 2.53733C249.855 2.57973 249.506 2.55234 249.772 2.47611C250.039 2.39988 250.257 2.22742 250.257 2.0926C250.257 1.75911 247.461 2.08069 246.959 2.47182C246.746 2.63857 246.108 2.84557 245.541 2.93228C244.648 3.06853 244.538 3.02613 244.713 2.61427C244.963 2.02828 244.192 1.98588 243.21 2.53161C242.552 2.89726 242.298 2.88678 239.511 2.37892C237.866 2.07902 235.638 1.84868 234.561 1.86726C233.485 1.88584 232.254 1.90584 231.827 1.91204C231.401 1.91799 230.092 1.8482 228.918 1.75673C227.002 1.60761 226.837 1.62881 227.294 1.96706C227.742 2.29841 227.587 2.36344 226.002 2.50922C224.111 2.68335 222.084 2.3289 222.517 1.89989C222.977 1.44253 219.895 1.66287 217.714 2.24338C215.434 2.85009 211.493 3.43156 211.138 3.21336C211.025 3.1438 211.269 2.93061 211.68 2.73957C212.362 2.42275 212.207 2.38774 209.906 2.33843C205.464 2.24314 204.55 2.20956 201.993 2.04877C200.305 1.94253 199.398 1.97802 199.217 2.15763C199.039 2.3339 197.227 2.4168 193.854 2.40274C191.052 2.39107 186.839 2.42585 184.492 2.47992C182.144 2.53399 172.891 2.60284 163.928 2.63261C154.965 2.66263 148.418 2.76196 149.378 2.85367C150.963 3.00493 150.86 3.02351 148.263 3.05614C145.768 3.08735 145.464 3.13761 145.886 3.44918C146.291 3.74908 146.226 3.80649 145.479 3.80649C144.99 3.80649 144.298 3.64475 143.942 3.4468C143.445 3.17096 142.235 3.08401 138.746 3.07401C131.937 3.054 119.502 3.37534 119.3 3.57638C119.202 3.6731 119.38 3.88391 119.696 4.0447C120.011 4.20549 120.174 4.43202 120.057 4.54803C119.937 4.66689 122.019 4.7555 124.814 4.75098C129.613 4.74264 131.445 4.51658 131.502 3.92559C131.514 3.79458 132.878 3.65571 134.533 3.61664C138.249 3.52946 137.983 4.01945 134.169 4.28552C132.824 4.37914 131.898 4.47823 132.112 4.50515C132.325 4.53231 132.151 4.65522 131.724 4.77837C131.226 4.92225 134.003 4.96322 139.484 4.89319C148.09 4.78314 150.313 4.63926 149.314 4.25694C148.953 4.11902 149.188 4.0104 150.09 3.89892C150.802 3.81078 151.475 3.5933 151.587 3.41536C151.819 3.04423 153.258 2.97086 153.258 3.33008C153.258 3.46109 153.597 3.56829 154.011 3.56829C154.425 3.56829 154.887 3.69025 155.037 3.83936C155.232 4.03374 154.909 4.06447 153.896 3.94775C152.838 3.82602 152.482 3.8658 152.482 4.10544C152.482 5.08995 154.99 5.27193 158.209 4.52087C160.654 3.95037 161.018 3.93512 161.018 4.40201C161.018 4.66189 161.467 4.76217 162.667 4.7698C163.573 4.77551 165.06 4.86841 165.97 4.97656C166.88 5.08447 168.364 5.09018 169.268 4.98918C170.172 4.88819 173.356 4.73478 176.344 4.64831C180.458 4.52945 181.634 4.55755 181.194 4.76408C180.744 4.97465 181.096 5.00657 182.746 4.90414C184.251 4.81053 184.708 4.84245 184.298 5.01253C183.885 5.18308 184.168 5.20548 185.268 5.08899C189.058 4.68762 192.246 4.11402 192.155 3.84937C192.094 3.67476 192.535 3.57877 193.319 3.59592C194.029 3.6114 194.271 3.67262 193.872 3.73574C193.456 3.80197 193.251 3.98681 193.375 4.18452C193.512 4.40415 193.32 4.52111 192.822 4.52111C192.401 4.52111 192.058 4.64236 192.058 4.79076C192.058 4.97251 192.594 5.01134 193.707 4.90986C194.614 4.82697 196.447 4.69024 197.781 4.60567C199.115 4.52135 200.206 4.36056 200.206 4.24836C200.206 4.13641 199.867 4.0447 199.452 4.0447C199.038 4.0447 198.592 3.9375 198.46 3.80649C198.308 3.65618 199.239 3.56829 200.982 3.56829C202.728 3.56829 203.655 3.48039 203.503 3.3296C203.222 3.05066 204.886 2.61546 206.233 2.61546C206.902 2.61546 207.102 2.71622 206.942 2.97277C206.819 3.16929 206.912 3.33008 207.148 3.33008C208.175 3.33008 207.452 3.7679 206.185 3.91392C204.532 4.10425 202.922 4.52778 202.922 4.77218C202.922 4.96251 205.302 4.67809 206.971 4.28838C207.546 4.15451 208.809 4.0447 209.778 4.0447C211.265 4.0447 211.502 4.10687 211.292 4.4425C211.155 4.66141 211.263 4.92368 211.532 5.02587C212.415 5.36079 210.268 5.64759 208.444 5.43844C207.327 5.31029 206.45 5.33458 205.922 5.508C205.416 5.67426 203.909 5.72786 201.903 5.65116C200.138 5.58351 198.588 5.59351 198.458 5.67307C198.328 5.75287 196.942 5.78527 195.377 5.74525C193.626 5.70047 192.432 5.77169 192.272 5.93034C192.11 6.09089 192.424 6.19617 193.102 6.20904L194.192 6.22952L193.045 6.43962C192.126 6.60827 191.761 6.5592 191.204 6.19189C189.761 5.24144 186.188 5.27122 180.418 6.28169C177.633 6.76954 176.048 6.87411 170.234 6.95438C166.447 7.00679 163.537 6.97797 163.768 6.89031C163.999 6.80265 164.166 6.63566 164.14 6.51918C164.113 6.40294 164.447 6.27335 164.882 6.23143C165.657 6.15711 165.89 5.92438 165.456 5.65807C165.337 5.5847 164.769 5.66617 164.195 5.8391C163.055 6.18236 153.792 6.44391 154.554 6.11114C154.802 6.00299 154.364 5.97941 153.579 6.05897C152.758 6.1421 152.05 6.09922 151.907 5.95773C151.575 5.62734 146.423 5.64568 143.868 5.98631C142.737 6.1371 142.03 6.30694 142.297 6.3634C142.564 6.42009 142.782 6.61828 142.782 6.80384C142.782 7.20212 139.486 7.29097 139.096 6.90317C138.958 6.7662 139.315 6.66496 139.935 6.66496C140.948 6.66496 140.968 6.64662 140.249 6.36721C139.715 6.15949 137.667 6.07588 133.47 6.09041C127.962 6.10971 127.154 6.16973 123.865 6.80503C120.446 7.46557 120.067 7.49011 115.911 7.32075C113.512 7.22284 110.126 7.15067 108.388 7.16019C106.521 7.17044 105.123 7.07277 104.97 6.92127C104.678 6.63066 102.498 6.59326 98.9885 6.81837C96.7458 6.96224 96.6477 6.99369 97.4116 7.32218C97.9711 7.56276 98.7021 7.62565 99.7462 7.52322C100.762 7.42341 101.266 7.46343 101.266 7.64351C101.266 7.82574 100.514 7.87982 98.9516 7.8105C97.386 7.74094 96.5798 7.7993 96.4599 7.99058C96.3427 8.17853 95.4771 8.24903 93.8867 8.20044C91.5455 8.12874 90.0788 7.85599 92.0348 7.85599C93.8424 7.85599 95.446 7.56205 95.446 7.2307C95.446 6.81146 95.7134 6.79979 88.9777 7.50821C83.5496 8.07919 76.4768 8.41054 75.3345 8.14708C74.9031 8.04775 74.9031 7.99439 75.3345 7.82646C76.1722 7.50035 71.9671 7.58515 67.7042 7.9801C64.805 8.2488 63.5662 8.27428 62.8033 8.08062C62.2415 7.93818 61.1939 7.85623 60.4754 7.8984C59.4518 7.95842 59.195 8.07062 59.2908 8.4153C59.406 8.82788 59.1728 8.84527 55.6048 8.69281C53.51 8.60349 51.1327 8.4265 50.3222 8.29977C48.8183 8.0649 47.3342 8.19949 47.3342 8.57085C47.3342 8.68424 47.7273 8.8243 48.2072 8.88195C48.6872 8.93959 48.3818 8.92411 47.5282 8.84765C43.1733 8.45699 31.54 9.09324 30.4974 9.77903C30.1708 9.9939 30.3228 10.0246 31.1353 9.90695C31.7243 9.82167 32.2023 9.85335 32.2023 9.97793C32.2023 10.1018 32.5077 10.2521 32.8813 10.3121C33.2549 10.3719 32.1197 10.4334 30.3593 10.4486C27.0051 10.4777 26.5003 10.6768 28.1248 11.3305C29.1876 11.758 29.0863 12.1437 27.9114 12.1437C27.4971 12.1437 27.1583 12.2509 27.1583 12.3819C27.1583 12.5129 27.9002 12.6277 28.8073 12.6368C29.7145 12.6461 30.8055 12.7495 31.2323 12.8667C32.4002 13.1873 27.9627 12.8676 26.6733 12.5382C26.0863 12.3883 25.6063 12.1961 25.6063 12.1111C25.6063 11.9138 24.5487 11.652 23.1813 11.5108C22.0697 11.396 21.6709 11.8159 22.668 12.0508C22.9726 12.1227 23.1612 12.3755 23.0867 12.613C22.9431 13.0698 24.1707 13.3347 26.4308 13.3347C27.0443 13.3347 27.5463 13.4505 27.5463 13.5918C27.5463 13.7461 27.1191 13.7954 26.4793 13.7151C25.8923 13.6413 23.8697 13.5525 21.984 13.5174C18.7861 13.4581 18.5056 13.4917 17.813 14.0162C17.4044 14.3254 17.0704 14.7918 17.0704 15.0524C17.0704 15.8364 19.4717 17.1096 21.2868 17.2878C22.7899 17.4352 22.8903 17.4943 22.8903 18.2301C22.8903 18.7199 23.2551 19.2813 23.8603 19.7229C24.9479 20.5164 25.1268 21.1955 24.2483 21.1955C23.9282 21.1955 23.6663 21.3027 23.6663 21.4337C23.6663 21.5648 23.8409 21.6719 24.0543 21.6719C24.965 21.6719 24.2999 22.0743 22.3607 22.6965C20.2749 23.3656 19.2238 24.2122 19.6444 24.8849C19.8209 25.1676 19.5474 25.2458 18.3729 25.2486C17.2636 25.2515 17.0269 25.3122 17.4584 25.4832C17.8782 25.6498 17.5135 25.7153 16.15 25.7179C14.5953 25.7207 14.3377 25.7793 14.6997 26.0471C15.3605 26.5361 14.9096 26.6731 7.08097 28.3624C3.18741 29.2026 0.000776347 29.9575 3.50236e-07 30.0397C-0.00155164 30.1864 5.15533 30.7238 6.5626 30.7238C7.17603 30.7238 7.2482 30.8708 7.08136 31.78C6.85709 33.0015 7.73397 34.082 9.65805 34.9555C11.236 35.6718 12.0089 35.6344 10.725 34.9038C9.10904 33.9843 9.52652 33.7419 11.3474 34.5425C14.5907 35.9681 16.5702 37.3435 16.8333 38.3545C17.0219 39.0772 17.5329 39.5612 19.015 40.42C20.0793 41.0369 20.9504 41.6141 20.9504 41.7027C20.9504 41.7913 20.6012 41.9199 20.1744 41.9885C19.7476 42.0569 19.3984 42.2963 19.3984 42.5205C19.3984 42.8106 19.6219 42.8921 20.174 42.8034C20.6004 42.7348 21.0474 42.7761 21.1669 42.8947C21.2864 43.0133 21.1118 43.1105 20.7792 43.1105C20.4432 43.1105 20.1744 43.312 20.1744 43.5636C20.1744 44.0595 15.9339 46.134 14.4533 46.3622C13.9722 46.4363 13.5784 46.6424 13.5784 46.8201C13.5784 46.9978 13.2292 47.2579 12.8024 47.3982C11.6085 47.7905 11.853 48.0509 14.0603 48.7374C15.1785 49.0854 16.2699 49.5028 16.4853 49.6647C16.7002 49.8267 17.2256 50.0766 17.6524 50.2198C18.3535 50.4553 18.3605 50.4811 17.7265 50.4877C17.3404 50.4916 17.1325 50.6018 17.264 50.7326C17.3955 50.8634 17.2314 51.2088 16.8989 51.5004C16.5664 51.7917 16.2971 52.2474 16.3002 52.5132C16.3049 52.8717 16.3914 52.9136 16.637 52.6757C16.8779 52.4425 17.0393 52.5396 17.2314 53.033C17.3765 53.4058 17.5806 53.8881 17.6854 54.1047C17.8289 54.4031 17.2085 54.6875 15.1331 55.2747C12.4035 56.0472 9.69841 57.5217 9.69841 58.2373C9.69841 58.4333 9.52381 58.5939 9.31041 58.5939C9.09701 58.5939 8.92241 58.9905 8.92241 59.475C8.92241 60.2289 9.21341 60.5241 10.9381 61.5181C12.2099 62.2511 14.3226 63.0803 16.661 63.7646C21.4194 65.1567 21.4986 65.196 20.825 65.8332C19.9528 66.6586 19.7879 67.6433 20.5193 67.6598C21.0346 67.6712 21.014 67.7236 20.4025 67.9575C18.771 68.5814 18.2344 69.0819 18.2468 69.9682C18.2534 70.4594 18.5126 71.0671 18.8222 71.3184C19.2176 71.6392 19.2661 71.8634 18.9848 72.0714C18.5405 72.4001 19.138 72.775 19.7417 72.5459C20.1608 72.387 25.9086 73.9906 26.7319 74.496C27.6014 75.0299 27.5948 75.5103 26.7075 76.2752C25.7677 77.0856 25.6199 78.3964 26.4033 78.9765C27.2224 79.5827 29.2233 80.032 31.1229 80.036C33.5494 80.0415 34.2024 80.404 32.1484 80.6056C31.2304 80.6956 30.3803 80.8681 30.2588 80.9888C29.9678 81.278 28.0577 81.3466 26.4793 81.1246C24.6061 80.8614 24.951 81.163 26.8673 81.4643C29.5888 81.8919 29.7901 81.9626 28.9043 82.1777C27.9584 82.4078 35.4533 82.4555 36.8583 82.2285C37.7716 82.081 37.7491 82.0627 36.4703 81.9166C35.0141 81.7506 39.6569 81.8111 56.8096 82.1822C62.768 82.3111 67.715 82.4609 67.8031 82.515C67.8916 82.5691 66.9689 82.6896 65.7537 82.783C64.1668 82.9047 63.4606 82.8697 63.2484 82.6589C63.023 82.4347 62.7576 82.4295 62.1275 82.6365C61.2824 82.914 61.0038 83.3673 61.6782 83.3673C61.8846 83.3673 61.9532 83.5281 61.8306 83.7246C61.6758 83.9721 61.1136 84.0703 59.9997 84.0438C58.5687 84.0098 58.5307 83.9952 59.6532 83.9097C60.3465 83.8568 60.9142 83.7313 60.9142 83.6308C60.9142 83.2477 59.0572 82.8426 58.1474 83.0269L57.2282 83.2132L58.1982 83.3616L59.1682 83.5102L57.9072 83.8542C57.2135 84.0434 56.6462 84.267 56.6462 84.3514C56.6462 84.4354 55.8171 84.5805 54.8032 84.6736C52.5928 84.8766 52.1198 85.0259 52.8217 85.2992C53.1662 85.433 52.8062 85.5052 51.7799 85.5076C50.3606 85.5109 50.1527 85.5917 49.5846 86.3609C49.0259 87.1179 49.022 87.2255 49.5501 87.3499C50.3971 87.5495 57.7128 87.0219 59.5562 86.6284C62.0712 86.0912 61.2847 85.7282 56.8495 85.3794L54.9188 85.2277L56.0735 84.949C57.9495 84.4962 62.8848 84.5981 64.1734 85.1165C64.9715 85.4373 65.1496 85.6265 64.8357 85.8192C63.799 86.4557 65.2182 86.7239 66.8269 86.1953C67.7926 85.878 71.943 85.717 73.3301 85.943C74.1542 86.0771 74.0378 86.1229 72.5541 86.2468L70.8081 86.3925L72.8863 86.4283C75.1262 86.4669 79.5005 87.0774 80.1007 87.4352C80.3032 87.5562 81.3846 87.655 82.5036 87.655C84.0451 87.655 84.6608 87.5478 85.045 87.2127C85.3239 86.9695 85.9886 86.6827 86.5221 86.5752C87.4455 86.3892 87.4203 86.3704 86.0041 86.1832C85.1183 86.0662 84.2546 86.0802 83.8701 86.2182C83.2947 86.4242 83.3075 86.4504 83.9861 86.4569C84.6822 86.4633 84.695 86.4969 84.1324 86.842C83.5698 87.1874 83.3102 87.1846 81.1336 86.8096L78.7505 86.3992L79.8233 86.0431C80.5702 85.7951 82.0539 85.6882 84.7086 85.6903C87.6003 85.6929 88.5711 85.6141 88.7271 85.3642C88.8404 85.1829 89.351 85.0348 89.8616 85.0348C90.5313 85.0348 90.7901 85.1674 90.7901 85.5112C90.7901 85.7732 90.5371 85.9876 90.2282 85.9876C89.919 85.9876 89.195 86.2556 88.6192 86.5831C88.0438 86.9106 87.2364 87.1786 86.8251 87.1786C86.3223 87.1786 86.1193 87.3151 86.2062 87.5955C86.3079 87.9232 86.8034 88.0276 88.5226 88.0831C90.1231 88.1348 90.7043 88.0709 90.6888 87.8449C90.6131 86.7317 90.8327 86.5645 93.0917 86.0136C94.8342 85.5886 95.8007 85.4883 97.0686 85.6003C97.9901 85.6817 98.9737 85.6577 99.2542 85.5467C99.5348 85.4357 100.233 85.4021 100.806 85.4719L101.848 85.5991L100.878 85.7696C100.345 85.8635 99.3408 85.9507 98.647 85.9638C97.3899 85.9876 96.9503 86.3163 97.871 86.5445C98.138 86.6105 97.483 86.6817 96.416 86.7027C92.3669 86.7822 91.7569 86.828 91.6464 87.0595C91.4772 87.4135 93.8905 87.611 99.39 87.6929C102.092 87.7334 104.221 87.8485 104.12 87.949C104.019 88.0493 104.47 88.1314 105.123 88.1314C105.776 88.1314 106.31 88.0243 106.31 87.8932C106.31 87.5281 109.625 87.6102 112.002 88.0345C113.828 88.3604 114.576 88.3727 117.312 88.1229C121.038 87.7825 127.7 87.9009 128.526 88.322C128.979 88.5528 129.657 88.5028 131.864 88.0759C134.665 87.534 135.191 87.293 133.955 87.1167C133.581 87.0636 134.093 86.9376 135.091 86.8366C137.069 86.6367 138.2 86.8368 137.294 87.2263C136.772 87.4509 140.343 87.3516 145.886 86.9871L148.408 86.8213L147.448 86.4044C146.304 85.9073 146.788 85.8756 149.812 86.2484C151.485 86.4547 151.927 86.6043 151.927 86.963C151.927 87.3015 151.651 87.4168 150.838 87.4168C150.06 87.4168 149.626 87.5829 149.316 87.9997C149.017 88.4028 148.511 88.6059 147.676 88.6584C146.744 88.717 147.044 88.7999 148.99 89.0219C151.651 89.3253 155.846 89.115 158.046 88.5678C158.905 88.3544 159.217 88.3601 159.452 88.5945C159.685 88.8253 159.946 88.8322 160.58 88.6241C161.184 88.4256 161.62 88.4232 162.202 88.6145C162.64 88.7584 163.295 88.8299 163.657 88.7732C164.082 88.7067 163.858 88.605 163.023 88.4864C162.112 88.3565 161.883 88.2432 162.247 88.1014C162.571 87.9757 162.083 87.8992 160.944 87.8968C159.943 87.8949 159.016 87.786 158.884 87.655C158.623 87.3961 159.053 87.3411 160.78 87.413C161.395 87.4385 162.013 87.3468 162.151 87.2089C162.498 86.8644 164.122 87.1567 164.122 87.5638C164.122 87.7448 164.389 87.8932 164.716 87.8932C165.528 87.8932 165.866 88.5357 165.281 88.9683C164.874 89.2698 164.997 89.323 166.111 89.3256C166.831 89.3272 169.602 89.5402 172.27 89.7989C177.927 90.3475 178.621 90.372 178.257 90.0104C178.11 89.8649 178.231 89.6521 178.525 89.5378C179.36 89.2129 179.586 89.2829 179.366 89.7989C179.102 90.4177 179.75 90.4139 182.956 89.7782C185.687 89.2365 186.262 88.939 184.097 89.1884C182.557 89.3658 181.567 89.1491 182.413 88.8199C183.156 88.5312 185.366 88.5583 185.67 88.8601C185.809 88.9987 186.387 89.0528 186.953 88.9804C187.52 88.908 190.341 88.8034 193.222 88.7477C197.871 88.6581 198.321 88.6826 197.222 88.9671C196.452 89.1662 194.351 89.2936 191.662 89.3039C189.284 89.3129 187.047 89.4332 186.691 89.5709C186.209 89.7577 186.662 89.7996 188.469 89.7355C190.19 89.6743 190.894 89.7334 190.894 89.939C190.894 90.3496 199.031 90.6281 203.682 90.3765C205.717 90.2662 209.13 90.1712 211.264 90.165C213.791 90.1579 215.82 90.0164 217.083 89.7596C219.922 89.1824 223.673 89.03 226.686 89.3692C228.127 89.5314 229.305 89.7372 229.305 89.8268C229.305 90.3189 233.926 90.5357 245.407 90.5821L257.823 90.6326L260.435 89.73C262.951 88.8608 263.533 88.7841 266.941 88.8716C267.865 88.8954 268.021 88.9401 267.426 89.0121C266.446 89.1305 266.335 89.3313 267.019 89.7512C267.694 90.1655 269.407 90.1255 269.143 89.7017C268.858 89.2465 270.821 88.9366 271.255 89.3682C271.457 89.5683 271.331 89.7377 270.904 89.8415C270.538 89.9306 271.427 90.0111 272.878 90.0204C274.58 90.0311 275.94 89.9025 276.711 89.6576C277.953 89.2632 278.921 89.2863 282.849 89.8034C285.036 90.0916 288.663 89.9654 289.787 89.5621C290.318 89.372 290.325 89.3322 289.833 89.306C289.513 89.2889 289.675 89.2024 290.192 89.1136C290.71 89.0247 291.197 88.8344 291.276 88.6905C291.464 88.3439 289.38 88.1081 288.788 88.409C288.533 88.5385 287.922 88.5998 287.43 88.5454C286.609 88.4545 286.64 88.4213 287.816 88.1422C289.572 87.7255 289.178 87.611 286.891 87.8732C285.618 88.0192 284.822 88.0088 284.494 87.8418C283.949 87.564 279.009 87.7029 278.175 88.0192C277.78 88.1691 277.835 88.2598 278.413 88.4144C278.977 88.5652 278.899 88.5836 278.099 88.4883C277.515 88.4187 276.402 88.5242 275.627 88.7229C273.871 89.1734 273.925 89.1765 273.925 88.6252C273.925 88.373 273.621 88.1303 273.249 88.0864C272.725 88.0245 272.915 87.8458 274.082 87.2992L275.592 86.5922L281.168 86.6255C285.504 86.6517 286.866 86.5843 287.291 86.3232C288.124 85.812 289.95 85.904 290.543 86.4871C290.822 86.762 290.995 87.0143 290.927 87.0476C290.859 87.081 290.454 87.2282 290.027 87.3744C289.328 87.6141 289.377 87.6412 290.512 87.6479C291.206 87.6517 291.773 87.7556 291.773 87.8787C291.773 88.2117 295.184 88.4692 295.754 88.1793C296.086 88.0104 296.897 88.0269 298.369 88.2327C300.037 88.4661 300.323 88.5669 299.681 88.6948C298.81 88.8682 297.229 89.8029 297.824 89.7932C298.017 89.7898 298.937 89.6796 299.867 89.5478C301.028 89.3835 301.713 89.3866 302.048 89.5571C302.37 89.7212 302.852 89.7289 303.46 89.5795C303.968 89.4547 304.231 89.3458 304.045 89.3375C303.567 89.3163 304.582 88.6079 305.09 88.6079C305.362 88.6079 305.346 88.7074 305.043 88.8937C304.278 89.3634 304.5 89.4702 306.032 89.3699C307.436 89.2779 307.46 89.2884 306.711 89.6726C305.968 90.054 306 90.0633 307.487 89.8973C308.341 89.8017 309.737 89.73 310.591 89.7379C314.023 89.7691 324.691 90.0821 326.692 90.2105C328.578 90.3315 328.768 90.3051 328.332 89.9821C327.902 89.6638 328.115 89.5957 329.99 89.4521C332.955 89.2246 335.886 89.6114 334.785 90.0847C334.439 90.2336 335.138 90.2746 336.822 90.2043C338.607 90.13 339.902 89.9158 341.09 89.4995C342.784 88.9051 346.093 88.4749 346.093 88.8489C346.093 88.9566 345.875 89.0986 345.608 89.1648C345.341 89.2308 346.011 89.2934 347.095 89.3036C348.18 89.3139 349.199 89.4027 349.359 89.5011C349.519 89.5995 350.465 89.6826 351.46 89.6862C352.456 89.69 354.125 89.7848 355.169 89.897C356.558 90.0466 356.995 90.0288 356.795 89.831C356.599 89.636 357.692 89.5571 360.717 89.548C363.024 89.5411 366.57 89.4878 368.597 89.4294C371.589 89.3437 385.101 89.1319 408.133 88.8103C410.596 88.7758 410.628 88.7682 408.949 88.6079C407.363 88.4566 407.466 88.438 410.063 88.4054C412.558 88.3742 412.862 88.3239 412.441 88.0123C412.035 87.7124 412.1 87.655 412.848 87.655C413.337 87.655 414.064 87.8363 414.463 88.0581C415.135 88.4316 416.056 88.4402 427.056 88.1724C433.583 88.0135 439.088 87.8215 439.287 87.7458C439.491 87.6686 439.382 87.4256 439.043 87.1953C438.709 86.9683 438.552 86.711 438.694 86.6234C439.158 86.3387 429.213 86.4495 428.173 86.7406C427.098 87.0412 426.908 87.3196 427.67 87.478C427.937 87.5335 426.892 87.656 425.348 87.7501C421.963 87.9566 420.446 87.6398 422.666 87.1901C423.445 87.0321 424.597 86.9721 425.224 87.0567C426.206 87.1891 426.356 87.1429 426.305 86.7244C426.248 86.2665 426.052 86.2444 422.932 86.3468C421.11 86.4068 417.611 86.5145 415.157 86.5864C411.372 86.6974 406.909 87.0762 408.464 87.1543C409.229 87.1927 409.029 87.655 408.247 87.655C407.861 87.655 407.206 87.8125 406.792 88.0047C405.925 88.4073 404.681 88.4821 404.681 88.1314C404.681 88.0004 404.113 87.8763 403.42 87.8558C402.454 87.8272 402.592 87.7853 404.013 87.6772C405.846 87.5374 405.86 87.5302 405.251 87C404.477 86.3247 403.031 86.3068 400.413 86.9404C398.224 87.4699 397.054 87.5438 396.849 87.1655C396.774 87.0271 395.319 86.852 393.616 86.7763C389.751 86.6043 390.211 86.5964 384.893 86.9276C382.439 87.0802 378.947 87.2637 377.133 87.3351C374.086 87.4549 373.894 87.4364 374.611 87.0912C375.369 86.726 375.363 86.7172 374.345 86.7098C373.772 86.7055 372.812 86.8101 372.211 86.9418C371.192 87.1653 371.17 87.1572 371.872 86.8227C372.817 86.3728 372.569 86.3747 369.654 86.8382C367.506 87.1801 367.271 87.1796 366.955 86.8332C366.765 86.6248 366.464 86.5093 366.286 86.5767C366.108 86.6443 365.859 86.5338 365.732 86.3311C365.6 86.1203 365.665 86.025 365.885 86.1084C366.096 86.1884 366.269 86.1367 366.269 85.9933C366.269 85.8094 366.49 85.8054 367.019 85.9792C368.256 86.3856 370.697 86.2639 376.091 85.5269C380.21 84.9643 382.436 84.8063 387.512 84.7156C390.98 84.6539 393.729 84.691 393.621 84.7987C393.513 84.9061 393.643 85.0407 393.911 85.0979C394.18 85.1548 393.831 85.2796 393.138 85.3752C392.444 85.4709 391.877 85.6477 391.877 85.7682C391.877 86.0498 392.519 86.0483 393.381 85.7651C394.488 85.4014 402.808 85.1929 403.138 85.5205C403.349 85.7299 403.622 85.7315 404.243 85.5274C404.823 85.3368 405.292 85.3294 405.819 85.5028C406.839 85.838 412.191 85.7737 414.575 85.3976C415.642 85.2291 416.209 85.0786 415.836 85.0631C415.462 85.0474 415.157 84.8847 415.157 84.7015C415.157 84.4778 415.731 84.3401 416.903 84.2827C417.863 84.2361 418.649 84.2787 418.649 84.378C418.649 84.4771 418.289 84.5583 417.85 84.5583C417.411 84.5583 417.159 84.6655 417.291 84.7966C417.423 84.9276 417.88 85.0348 418.306 85.0348C418.733 85.0348 419.002 85.115 418.904 85.2134C418.805 85.3118 421.283 85.3787 424.41 85.3623C429.737 85.3344 430.351 85.282 434.169 84.5274L438.243 83.7222L445.615 83.9078C449.669 84.0098 453.248 84.1744 453.568 84.2732C454.369 84.5207 462.104 84.3273 462.104 84.0595C462.104 83.9409 461.857 83.8437 461.555 83.8437C461.252 83.8437 460.931 83.7099 460.84 83.546C460.707 83.3082 460.41 83.3078 459.368 83.5441C458.572 83.7246 457.923 83.7542 457.705 83.6201C457.241 83.3352 459.842 83.0279 461.091 83.2203C461.738 83.3199 462.095 83.2492 462.258 82.9893C462.43 82.7132 462.79 82.6548 463.625 82.7678C464.271 82.8547 465.639 82.7601 466.8 82.5484C469.121 82.1253 469.938 82.0774 469.088 82.4145C468.768 82.5415 468.07 82.6487 467.536 82.6527C466.856 82.6577 466.721 82.7201 467.084 82.8614C467.424 82.9938 466.982 83.1055 465.789 83.1882C464 83.3118 462.883 83.6863 463.384 83.994C463.526 84.0812 466.22 83.8506 469.372 83.4819C475.423 82.7737 484.521 82.3995 484.039 82.8785C483.664 83.2513 487.166 83.1925 491.701 82.7497C494.617 82.465 495.82 82.4355 496.518 82.6306C497.03 82.7737 498.052 82.8909 498.789 82.8909C499.844 82.8909 500.128 82.7954 500.128 82.44C500.128 81.7327 500.974 81.6825 506.369 82.0684C509.145 82.267 511.582 82.3661 511.786 82.2887C512.447 82.0377 512.178 81.6999 511.315 81.6999C510.853 81.6999 510.582 81.6341 510.712 81.5539C510.843 81.4736 511.823 81.5365 512.89 81.6937C515.055 82.0124 521.549 81.7123 526.069 81.0846C528.704 80.7187 530.737 80.1544 528.743 80.3421C528.156 80.3976 527.676 80.3578 527.676 80.2542C527.676 80.1503 527.283 80.0191 526.803 79.9624C526.323 79.9055 527.152 79.8428 528.646 79.8231C532.152 79.7764 533.15 79.4317 530.443 79.203C527.26 78.9343 527.567 78.5494 530.837 78.708C532.752 78.8009 533.435 78.7728 532.914 78.6225C532.487 78.4993 531.702 78.3862 531.168 78.3709C530.213 78.344 530.216 78.3383 531.362 78.006C532.497 77.6768 532.466 77.6692 530.091 77.7011C527.38 77.7376 526.137 77.3576 527.939 77.0432L529.034 76.8521L527.676 76.6771C526.63 76.5425 526.943 76.5053 529.034 76.5156C533.758 76.5384 537.816 76.2464 539.086 75.7921C540.612 75.2466 540.836 74.4698 539.61 73.9765C538.268 73.4367 534.334 72.648 532.983 72.648C532.34 72.648 531.894 72.5994 531.991 72.5399C532.088 72.4803 534.555 72.0594 537.472 71.6042C540.39 71.149 543.067 70.6771 543.42 70.5556C544.166 70.2993 542.548 70.1426 536.492 69.8849C532.962 69.7346 532.739 69.6953 533.291 69.3208C534.215 68.6936 534.004 68.2205 532.429 67.387C531.371 66.827 531.274 66.7301 532.075 67.0314C532.68 67.2591 533.291 67.3708 533.433 67.2796C533.575 67.1881 533.361 66.9921 532.958 66.8437C532.556 66.6953 531.578 66.1798 530.786 65.6982C529.9 65.1596 528.8 64.7596 527.929 64.6591C526.409 64.484 526.236 64.3377 526.997 63.8702C527.264 63.7065 527.49 63.4438 527.5 63.2866C527.509 63.1293 527.746 63.0314 528.026 63.0688C528.307 63.1062 529.346 62.6772 530.337 62.1153C531.328 61.5534 532.557 60.9274 533.069 60.7239C533.982 60.3611 533.988 60.3349 533.408 59.2954C533.083 58.713 532.621 58.2633 532.381 58.2961C532.14 58.3288 531.944 58.2073 531.944 58.0258C531.944 57.4276 530.242 56.996 527.191 56.8207C525.537 56.7254 524.184 56.5644 524.184 56.4627C524.184 56.3609 526.061 56.0894 528.355 55.8593C533.677 55.3252 535.088 55.1104 536.02 54.6921C536.73 54.3736 536.677 54.3374 535.135 54.0825C534.234 53.9334 533.496 53.7826 533.496 53.7474C533.496 53.7121 534.354 53.6833 535.404 53.6833C538.908 53.6833 539.346 52.6025 536.158 51.8195C535.09 51.557 534.038 51.4703 533.101 51.5675C531.377 51.7464 528.325 51.0413 528.641 50.5368C528.75 50.3613 528.84 49.5387 528.84 48.7091C528.84 47.3453 528.951 47.1364 529.991 46.5338C530.867 46.0257 531.091 45.7234 530.929 45.2629C530.774 44.8196 530.82 44.7486 531.102 44.9957C531.398 45.2548 531.599 45.1033 531.971 44.3399C532.492 43.272 532.305 42.8468 530.797 41.6813C530.373 41.3537 529.873 40.4697 529.686 39.7168C529.346 38.349 529.347 38.3471 530.645 37.7394C532.141 37.0389 532.287 36.5703 531.13 36.1899C530.337 35.9295 530.353 35.9014 531.712 35.137C534.255 33.7068 533.152 32.4715 528.379 31.4029C527.068 31.1094 526.155 30.8398 526.351 30.8038C526.546 30.7676 528.278 30.4794 530.198 30.1628C537.03 29.0373 544.821 27.6619 545.005 27.549C545.238 27.4056 532.638 23.3444 531.901 23.3256C531.092 23.3051 536.457 22.4271 539.122 22.1438C543.894 21.6367 556 19.8942 556 19.7144C556 19.6119 555.607 19.5276 555.127 19.5269C554.647 19.5262 548.841 19.2051 542.226 18.8135C528.837 18.021 527.72 17.9831 528.305 18.3418C528.523 18.4757 530.871 18.7394 533.523 18.9278L538.346 19.2706L534.466 19.1624C532.332 19.1029 529.539 19.0519 528.258 19.0493C526.659 19.046 526.11 18.9745 526.505 18.8213C526.884 18.6741 526.291 18.6339 524.759 18.7027L522.438 18.807L524.043 18.4759C526.779 17.9111 527.288 17.6653 527.288 16.9054C527.288 16.3711 527.017 16.1194 526.144 15.8421C525.514 15.6422 524.554 15.4786 524.01 15.4786C523.465 15.4786 523.02 15.3831 523.02 15.2661C523.02 14.9469 521.226 14.6708 518.364 14.5498C517.313 14.5053 517.174 14.4519 517.746 14.3142C518.152 14.2163 519.287 14.224 520.268 14.3316C522.241 14.5479 522.332 14.5639 523.99 14.9898C524.63 15.1542 525.853 15.338 526.706 15.3986C528.032 15.4924 528.15 15.4664 527.515 15.2211C526.796 14.9438 526.233 14.8373 522.05 14.1892L520.11 13.8886L522.05 13.7123C524.254 13.5117 525.736 13.0179 525.736 12.4839C525.736 12.284 525.02 11.9234 524.143 11.6825L522.551 11.245L525.792 11.0801C527.575 10.9894 529.558 10.8226 530.198 10.7097C530.838 10.5966 532.846 10.3824 534.66 10.2335C536.474 10.0849 538.831 9.84787 539.898 9.70733C541.634 9.47818 541.736 9.43173 540.868 9.26308C540.335 9.15946 537.366 8.82716 534.272 8.52488C528.838 7.99392 527.871 7.97581 505.948 7.99844C485.669 8.0194 483.498 7.98629 485.578 7.68758C487.231 7.45009 488.099 7.42484 488.57 7.60064C489.686 8.01702 490.504 7.65685 490.223 6.87292C489.986 6.20808 490.021 6.1895 491.465 6.22428C492.633 6.25239 492.723 6.28121 491.883 6.35911C490.482 6.48941 490.533 6.73309 492.037 7.08159C492.826 7.26453 493.477 7.28549 493.88 7.14114C494.372 6.96439 494.259 6.91032 493.338 6.88268C492.67 6.86268 492.463 6.80146 492.853 6.73905C493.227 6.67902 493.532 6.54324 493.532 6.437C493.532 6.331 493.925 6.17807 494.405 6.09732L495.278 5.95035L494.308 5.63806C493.617 5.41557 492.892 5.38604 491.786 5.53515C489.995 5.77693 488.339 5.62448 487.027 5.09733C486.281 4.79695 486.197 4.66213 486.578 4.38033C487.359 3.80244 486.664 3.71454 484.79 4.15403C482.734 4.63616 480.941 4.75574 479.564 4.50229L478.594 4.32387L479.532 4.30339C481.091 4.26933 480.23 4.05446 477.028 3.67834C475.357 3.48205 473.472 3.16262 472.838 2.96848C471.107 2.43847 468.097 2.50255 467.434 3.08377C467.14 3.34127 466.476 3.65118 465.957 3.77267L465.014 3.99348L466.081 4.16404C466.668 4.25789 467.628 4.25218 468.215 4.15141C469.019 4.01349 469.114 3.94417 468.599 3.86938C468.223 3.81507 468.015 3.67143 468.137 3.55018C468.443 3.24599 470.952 3.30626 472.525 3.65571L473.827 3.94513L472.719 4.26528C472.093 4.44607 469.966 4.61353 467.837 4.64974C464.946 4.69881 463.913 4.80577 463.422 5.10757C463.069 5.3241 462.527 5.44154 462.217 5.36865C461.907 5.29552 461.58 5.23573 461.491 5.23573C461.401 5.23573 461.328 5.07708 461.328 4.88294C461.328 4.68904 461.77 4.46227 462.309 4.37914C462.848 4.29601 463.457 4.03469 463.663 3.79839C463.869 3.56209 464.563 3.29792 465.205 3.21145C467.469 2.90607 466.023 2.13905 463.184 2.13905C461.536 2.13905 461.496 2.15715 461.509 2.91322C461.522 3.63617 461.361 3.73169 459.076 4.35794C457.298 4.84483 456.382 4.97513 455.728 4.83435C454.988 4.67475 454.885 4.54445 455.155 4.10425C455.454 3.6164 455.735 3.56829 458.29 3.56829C461.783 3.56829 461.443 3.05995 457.842 2.90012C456.104 2.82294 455.508 2.7055 455.508 2.4399C455.508 2.18645 455.256 2.12499 454.635 2.22718C454.156 2.30603 453.588 2.38488 453.374 2.40227C453.161 2.41942 453.51 2.50755 454.15 2.59807C454.831 2.69431 453.76 2.75672 451.57 2.74862C449.51 2.74076 447.893 2.66644 447.976 2.58306C448.3 2.2591 446.54 2.20027 446.023 2.51756C445.315 2.95276 442.813 2.94561 440.016 2.50088C438.394 2.24267 437.443 2.21075 436.471 2.38178C435.741 2.51017 432.673 2.61546 429.654 2.61546C425.076 2.61546 424.126 2.55472 423.935 2.24981C423.732 1.92538 423.564 1.9299 422.439 2.28983C421.741 2.51303 420.472 2.82746 419.619 2.98873C418.11 3.27386 418.093 3.28839 419.025 3.50945C419.903 3.71764 419.83 3.75075 418.153 3.90511C416.191 4.08591 415.073 3.8982 415.988 3.54208C416.903 3.18644 412.124 3.30578 409.642 3.70073C408.36 3.90439 406.807 4.00301 406.19 3.91988C404.921 3.74861 404.745 3.95489 405.748 4.43893C406.335 4.72239 406.088 4.74574 403.905 4.6121C402.518 4.5273 401.335 4.43393 401.276 4.40463C400.904 4.21668 401.823 3.53946 402.618 3.41702C403.143 3.33603 403.726 3.02303 403.913 2.72146C404.131 2.36892 404.641 2.14191 405.34 2.08545C405.998 2.03257 405.354 1.91776 403.711 1.79508C400.93 1.58736 395.565 1.95063 394.806 2.39822C394.306 2.69264 393.323 2.67525 393.623 2.37725C393.755 2.24624 393.513 2.13905 393.087 2.13905C392.66 2.13905 392.195 2.25363 392.054 2.39345C391.914 2.53352 391.583 2.59736 391.32 2.53542C391.057 2.47325 390.842 2.5733 390.842 2.75719C390.842 2.9985 391.366 3.09187 392.718 3.09187C393.749 3.09187 394.593 3.19907 394.593 3.33008C394.593 3.46109 393.807 3.56829 392.847 3.56829C391.886 3.56829 391.101 3.66547 391.101 3.7841C391.101 4.11211 389.442 3.79101 388.697 3.31912C388.336 3.08997 387.812 2.85176 387.533 2.79007C387.123 2.69907 387.119 2.5814 387.515 2.17025C387.985 1.68145 387.935 1.66264 386.157 1.66073C384.499 1.65883 380.785 1.45159 375.452 1.06307C373.696 0.935155 373.593 0.95707 373.829 1.41371C374.008 1.76006 373.909 1.90084 373.485 1.90084C373.14 1.90084 372.975 1.76364 373.093 1.57426C373.47 0.971124 372.088 0.954212 369.946 1.53591C368.777 1.8532 367.821 2.17359 367.821 2.24791C367.821 2.32223 368.563 2.31056 369.47 2.22194C371.008 2.07187 371.081 2.08903 370.559 2.47778C370.146 2.78506 369.688 2.85414 368.813 2.74076C368.161 2.65643 367.19 2.58831 366.657 2.5895C366.123 2.59069 364.814 2.59331 363.747 2.59545C361.076 2.60069 354.853 3.09592 354.197 3.35533C353.747 3.53327 353.745 3.60235 354.182 3.77552C354.551 3.92154 354.278 4.03207 353.259 4.14951C351.308 4.37414 350.594 3.94775 351.859 3.31317C352.482 3.0004 353.373 2.85367 354.647 2.85367C355.676 2.85367 357.01 2.72885 357.611 2.57663C358.211 2.42418 360.213 2.27411 362.057 2.24314C363.903 2.21218 365.78 2.11523 366.228 2.02781C367.212 1.83629 367.327 1.43515 366.366 1.55068C363.554 1.88893 363.165 1.88369 363.165 1.50709C363.165 1.19599 362.882 1.15311 361.636 1.27531C360.757 1.36178 360.006 1.32415 359.867 1.1867C359.728 1.0483 357.627 0.948018 354.862 0.948018C350.222 0.948018 350.087 0.962787 349.677 1.51423C349.446 1.82557 348.702 2.46873 348.023 2.94347L346.789 3.80649H340.556C333.658 3.80649 332.501 3.49087 339.039 3.39273C344.548 3.31007 344.542 3.31031 346.017 3.04161C347.485 2.77434 347.602 2.08355 346.19 2.01995C345.034 1.96778 344.564 1.66264 345.64 1.66264C346.759 1.66264 346.728 1.19099 345.608 1.16955C345.128 1.16026 343.6 1.12477 342.213 1.0907C340.529 1.04926 339.175 1.16145 338.139 1.428C335.128 2.20265 327.428 2.20432 325.723 1.4311C324.23 0.753642 315.923 0.50567 308.651 0.921101C306.944 1.01853 305.489 1.0109 305.418 0.904188C305.257 0.662647 300.076 0.685039 298.757 0.933011ZM326.409 0.874889C326.787 0.935393 327.311 0.931344 327.573 0.866075C327.836 0.800807 327.527 0.751498 326.887 0.756262C326.247 0.761026 326.032 0.814385 326.409 0.874889ZM330.627 0.91991C330.25 1.06831 330.472 1.1655 331.403 1.25912C332.12 1.33129 333.189 1.46445 333.777 1.55473C334.821 1.7148 337.169 1.30318 337.169 0.960167C337.169 0.712671 331.246 0.676225 330.627 0.91991ZM343.709 1.63643C344.532 1.95634 343.698 2.14072 340.774 2.28578C338.85 2.38083 338.296 2.34772 338.721 2.16215C339.041 2.02233 339.958 1.90656 340.758 1.90442C341.558 1.90251 342.213 1.79365 342.213 1.66264C342.213 1.37203 342.994 1.35845 343.709 1.63643ZM355.405 1.78174C355.405 1.97826 355.623 2.14977 355.89 2.16287C356.157 2.17597 355.938 2.26673 355.405 2.36487C354.871 2.46301 354.269 2.45229 354.066 2.34129C353.864 2.23004 353.383 2.13905 352.999 2.13905C352.294 2.13905 352.084 1.87488 352.56 1.58331C352.702 1.49589 353.4 1.42443 354.112 1.42443C355.003 1.42443 355.405 1.53567 355.405 1.78174ZM304.771 1.91633L307.875 1.88107L306.711 2.33319C305.836 2.67287 305.31 2.73123 304.595 2.56853C304.071 2.44943 301.801 2.41513 299.551 2.49231L295.459 2.63285L297.399 2.17049C298.53 1.90084 299.825 1.75887 300.503 1.82986C301.143 1.89679 303.064 1.93562 304.771 1.91633ZM317.769 2.13905C317.769 2.27006 317.692 2.37725 317.598 2.37725C317.504 2.37725 317.319 2.27006 317.187 2.13905C317.055 2.00804 317.132 1.90084 317.358 1.90084C317.584 1.90084 317.769 2.00804 317.769 2.13905ZM325.003 2.25815C325.323 2.45467 326.009 2.61546 326.527 2.61546C327.045 2.61546 327.469 2.73409 327.469 2.87916C327.469 3.03542 327.193 3.07448 326.79 2.97468C326.417 2.88225 325.456 2.74957 324.656 2.67978C322.924 2.52852 322.746 2.15334 324.296 1.91966C324.364 1.90942 324.682 2.06163 325.003 2.25815ZM382.105 2.39607C383.52 2.41465 383.524 2.41727 382.468 2.65405C381.35 2.90464 381.082 3.22527 381.858 3.38391C382.109 3.43537 379.883 3.45061 376.911 3.4175C369.265 3.33294 369.766 3.37367 371.064 2.94228C371.674 2.73933 372.526 2.63023 372.96 2.69979C373.392 2.7691 374.465 2.67954 375.343 2.50041C377.56 2.04805 378.73 1.9654 379.777 2.18717C380.271 2.29174 381.319 2.38583 382.105 2.39607ZM406.718 2.41894C405.506 2.87892 404.94 3.49921 405.942 3.27005C406.209 3.20907 407.075 3.0166 407.868 2.84247C408.989 2.59617 409.216 2.4561 408.888 2.21313C408.361 1.82319 408.263 1.83248 406.718 2.41894ZM312.481 2.39774C313.554 2.58068 314.102 2.58021 314.401 2.39631C315.012 2.02161 315.86 2.07854 317.55 2.60784C319.111 3.09616 319.91 3.04209 319.554 2.4723C319.304 2.07354 319.946 2.04853 321.56 2.39393C323.212 2.74767 323.522 3.33008 322.056 3.33008C321.441 3.33008 320.66 3.39511 320.323 3.47467C319.098 3.76314 319.753 4.0447 321.649 4.0447C322.81 4.0447 323.589 4.1507 323.589 4.30863C323.589 4.4618 323.956 4.51873 324.462 4.44417C324.942 4.37342 326.033 4.25337 326.887 4.17762L328.439 4.0397L326.906 4.40367C326.062 4.60377 325.271 4.86841 325.147 4.99157C325.013 5.12449 324.216 5.0635 323.188 4.84173C322.235 4.63592 319.927 4.4113 318.06 4.34222C315.09 4.23264 314.665 4.26575 314.665 4.6071C314.665 4.82196 314.414 4.99752 314.106 4.99752C313.257 4.99752 313.01 4.57209 313.787 4.44774C314.163 4.38748 312.958 4.32578 311.108 4.31054C309.259 4.29529 307.688 4.19119 307.616 4.079C307.545 3.96704 306.789 4.0092 305.935 4.17309L304.383 4.47109L306.323 4.50348C309.192 4.55112 307.707 4.90653 303.934 5.07565C301.26 5.19547 300.732 5.15879 300.532 4.83911C300.224 4.34555 300.884 3.87914 302.693 3.31269C304.3 2.80936 305.353 2.72194 305.353 3.09187C305.353 3.51517 307.066 3.34532 308.851 2.74504C310.914 2.05163 310.617 2.07997 312.481 2.39774ZM385.385 2.29531C385.122 2.36058 384.599 2.36463 384.221 2.30413C383.844 2.24362 384.059 2.19026 384.699 2.1855C385.339 2.18073 385.648 2.23004 385.385 2.29531ZM398.022 2.58664C398.355 2.71622 397.973 2.78864 396.955 2.78864C396.083 2.78864 395.369 2.69621 395.369 2.58306C395.369 2.31889 397.341 2.32175 398.022 2.58664ZM240.613 3.03089C240.865 3.18525 239.89 3.32389 237.77 3.4356C233.919 3.63808 230.948 3.99991 230.642 4.30387C230.433 4.51134 232.274 4.46823 237.259 4.14832C239.131 4.02826 239.084 4.04946 235.92 4.74883C232.71 5.45845 229.305 5.70904 229.305 5.23573C229.305 4.87413 226.025 4.95083 223.361 5.3746C220.791 5.78336 218.939 5.73143 215.919 5.16546C214.506 4.90057 214.243 4.79147 214.95 4.76384C215.826 4.72954 215.845 4.7081 215.15 4.54136C213.836 4.22621 219.508 4.05947 222.877 4.31411C224.57 4.44226 226.128 4.61234 226.338 4.69214C226.558 4.77551 226.622 4.6788 226.488 4.46465C226.197 3.9992 227.392 3.77457 229.072 3.97871C230.161 4.11116 230.225 4.08734 229.743 3.72765C229.258 3.36533 229.396 3.32841 231.295 3.31126C232.441 3.30102 233.142 3.23432 232.851 3.16334C232.404 3.05424 232.404 2.99945 232.851 2.81127C233.519 2.52947 240.1 2.71575 240.613 3.03089ZM332.884 3.25171C334.017 4.13617 333.42 4.41963 331.16 4.07042C330.175 3.91797 329.16 3.85913 328.904 3.93941C328.648 4.01969 329.009 3.75456 329.706 3.35033C331.258 2.45015 331.834 2.43228 332.884 3.25171ZM495.278 2.96372C491.841 3.35009 489.368 3.96537 489.911 4.2991C490.13 4.43297 491.563 4.60734 493.097 4.68619C495.831 4.82697 497.352 5.22858 495.204 5.24287C494.38 5.24835 494.258 5.30195 494.705 5.4625C495.332 5.68832 498.576 5.27122 498.576 4.96489C498.576 4.87008 498.183 4.74598 497.703 4.68928C497.223 4.63235 497.728 4.57137 498.826 4.55351C500.876 4.52016 501.515 4.20215 501.045 3.44918C500.922 3.25266 501.014 3.09187 501.251 3.09187C501.487 3.09187 501.68 2.98468 501.68 2.85367C501.68 2.53519 498.624 2.58783 495.278 2.96372ZM504.3 3.36795C504.403 3.60902 504.728 3.80649 505.024 3.80649C505.755 3.80649 505.703 4.19834 504.946 4.37652C504.609 4.45608 503.637 4.52111 502.787 4.52111C501.124 4.52111 499.592 4.89581 499.921 5.22215C500.032 5.33268 499.688 5.49013 499.156 5.57207C498.624 5.65426 498.188 5.84101 498.188 5.98774C498.188 6.17688 498.836 6.19522 500.419 6.05135C503.093 5.80837 508.687 5.67736 513.891 5.73596C514.738 5.74549 515.495 5.63687 515.573 5.49442C515.65 5.35221 516.058 5.23573 516.479 5.23573C516.901 5.23573 517.138 5.34292 517.006 5.47393C516.707 5.77169 516.726 5.77121 519.218 5.4332C521.012 5.19023 521.15 5.13235 520.304 4.98061C519.578 4.85055 519.846 4.80076 521.371 4.78314C524.649 4.74478 523.758 4.28314 520.401 4.28076C518.747 4.27981 516.521 4.21478 515.454 4.13664C513.731 4.01063 513.393 4.06399 512.427 4.6152C511.229 5.29909 509.44 5.45678 509.44 4.87842C509.44 4.6819 509.222 4.51658 508.955 4.51111C508.689 4.50563 509.051 4.31101 509.761 4.07876C511.565 3.48825 510.763 3.17882 507.068 3.04018C504.343 2.93799 504.128 2.96348 504.3 3.36795ZM387.512 3.32674C388.796 3.33151 388.574 3.73527 387.22 3.85747C386.394 3.93179 385.858 3.82507 385.377 3.48968C384.719 3.03137 384.728 3.02184 385.669 3.17024C386.202 3.25457 387.032 3.32508 387.512 3.32674ZM400.801 3.36033C401.121 3.38058 400.51 3.47729 399.443 3.57495C398.376 3.67286 397.11 3.83103 396.63 3.92655C396.111 4.02969 395.757 4.00182 395.757 3.85794C395.757 3.55233 398.408 3.09854 399.443 3.22717C399.87 3.28006 400.481 3.34008 400.801 3.36033ZM454.119 3.23646C455.188 3.48825 454.787 3.73979 453.083 3.88558C452.176 3.96323 450.482 4.19119 449.318 4.39224C448.116 4.59996 447.057 4.66808 446.864 4.54993C446.672 4.43178 447.457 4.27099 448.683 4.1769C451.007 3.99849 451.978 3.58829 450.196 3.53684C449.191 3.50802 449.212 3.49206 450.464 3.33008C452.308 3.09187 453.388 3.06424 454.119 3.23646ZM109.802 3.7124C109.802 4.01349 109.479 4.0759 108.283 4.00587C107.447 3.9568 106.846 3.9992 106.947 4.09996C107.049 4.20048 108.309 4.2829 109.747 4.2829C111.186 4.2829 112.533 4.38724 112.741 4.51492C113.203 4.79886 116.01 4.55017 116.01 4.22526C116.01 4.08781 115.457 4.05542 114.667 4.14641C113.612 4.2679 113.154 4.19691 112.533 3.81554C111.572 3.22551 109.802 3.15857 109.802 3.7124ZM216.113 3.56829C216.113 3.86938 215.321 3.86938 214.562 3.56829C214.108 3.38844 214.215 3.33651 215.047 3.33365C215.634 3.33175 216.113 3.43727 216.113 3.56829ZM275.372 3.47396C275.243 3.55304 274.908 3.56162 274.629 3.49277C274.319 3.41679 274.411 3.36033 274.863 3.3489C275.272 3.33865 275.501 3.39487 275.372 3.47396ZM196.714 3.78481C196.393 3.89606 195.695 4.05804 195.162 4.14498L194.192 4.30267L195.162 3.94394C195.695 3.7467 196.393 3.58472 196.714 3.58401C197.231 3.58282 197.231 3.60521 196.714 3.78481ZM95.5306 4.22335C95.3774 4.45274 95.0049 4.64021 94.7022 4.64021C94.4 4.64021 94.0799 4.77432 93.991 4.93797C93.8777 5.14664 94.3484 5.23573 95.5624 5.23573C97.2549 5.23573 97.7399 4.96084 97.7686 3.98515C97.7798 3.60949 95.7999 3.82031 95.5306 4.22335ZM415.157 4.1638C415.157 4.42749 414.707 4.52111 413.442 4.52111C412.5 4.52111 411.452 4.58614 411.114 4.6657C410.777 4.74526 410.501 4.69476 410.501 4.55351C410.501 4.26218 412.49 3.86009 414.09 3.82793C414.795 3.81388 415.157 3.9275 415.157 4.1638ZM91.1148 4.21883C88.7779 4.33316 88.2774 4.90152 90.5445 4.86698C91.4264 4.85364 92.6284 4.7586 93.215 4.65617C94.3891 4.45084 94.6836 4.01921 93.603 4.08757C93.2294 4.11116 92.11 4.17023 91.1148 4.21883ZM495.367 4.21859C494.562 4.27004 493.339 4.26933 492.651 4.21668C491.962 4.16404 492.62 4.12188 494.114 4.12283C495.608 4.12402 496.171 4.1669 495.367 4.21859ZM408.844 4.66499C408.715 4.74407 408.38 4.75265 408.1 4.6838C407.79 4.60782 407.882 4.55136 408.334 4.53993C408.743 4.52969 408.972 4.5859 408.844 4.66499ZM454.344 4.75932C454.344 4.89033 453.515 4.99585 452.501 4.99395C451.169 4.99133 450.819 4.9263 451.24 4.75932C452.008 4.45489 454.344 4.45489 454.344 4.75932ZM348.613 6.90317C348.418 7.10612 364.881 7.03395 365.396 6.82956C365.664 6.72309 365.881 6.73809 365.881 6.86339C365.881 6.98773 366.317 7.1571 366.851 7.23928C368.496 7.49273 367.924 7.85599 365.881 7.85599C364.814 7.85599 363.941 7.96319 363.941 8.0942C363.941 8.22807 362.878 8.33074 361.516 8.32883C360.182 8.32669 359.293 8.24594 359.541 8.14923C359.788 8.05252 358.741 7.95056 357.213 7.92245C355.333 7.88815 354.623 7.94485 355.017 8.09825C355.456 8.26952 355.298 8.32598 354.37 8.32883C353.695 8.33074 353.073 8.2064 352.99 8.05228C352.873 7.83741 352.307 7.83741 350.564 8.05228C347.578 8.4203 340.76 8.41054 338.468 8.03465C337.015 7.79644 336.62 7.79644 336.49 8.03465C336.389 8.2195 335.642 8.32598 334.518 8.31573C333.149 8.30311 332.896 8.24903 333.483 8.0942C334.103 7.93079 333.961 7.88601 332.781 7.87267C331.889 7.86266 331.398 7.95032 331.543 8.0942C331.996 8.54393 330.767 8.32979 329.603 7.75642L328.439 7.18282L329.582 7.00536C330.336 6.88864 330.777 6.92223 330.876 7.10374C331.099 7.51465 334.176 7.44128 339.303 6.90317C343.945 6.41604 345.911 6.31933 344.153 6.66496L343.183 6.85577L344.205 6.87935C344.768 6.89245 345.801 6.75524 346.502 6.57421C347.453 6.32862 347.897 6.31361 348.252 6.51466C348.514 6.66282 348.676 6.83766 348.613 6.90317ZM382.99 7.61779C383.635 7.61779 385.411 7.49869 386.938 7.35338C388.465 7.20784 389.764 7.18116 389.825 7.29383C389.886 7.4065 390.918 7.46129 392.118 7.41531C395.089 7.30193 398.771 7.59159 398.05 7.88172C397.749 8.00273 394.098 8.08134 389.937 8.05633C385.775 8.03131 379.403 8.08348 375.775 8.17209L369.179 8.33336L371.313 7.6902C373.034 7.17163 374.073 7.03657 376.686 6.99178C378.467 6.96105 380.025 6.87459 380.147 6.79931C380.269 6.72428 380.696 6.87768 381.094 7.14019C381.511 7.4146 382.318 7.61779 382.99 7.61779ZM489.369 7.05943C489.106 7.1247 488.582 7.12875 488.205 7.06825C487.827 7.00774 488.042 6.95438 488.682 6.94962C489.323 6.94486 489.631 6.99416 489.369 7.05943ZM161.794 7.48535C160.409 7.79954 159.854 7.76524 159.854 7.36553C159.854 7.24214 160.596 7.14948 161.503 7.15948L163.152 7.17758L161.794 7.48535ZM423.781 7.66162C423.899 7.87839 424.779 7.87982 427.58 7.66829C429.585 7.51655 431.321 7.48439 431.436 7.59683C431.552 7.70902 431.996 7.85433 432.423 7.91983C432.849 7.98534 429.11 8.05132 424.113 8.06657C414.856 8.09468 412.818 7.91769 418.933 7.61707C420.804 7.52513 422.626 7.43389 422.981 7.4146C423.337 7.3953 423.697 7.50655 423.781 7.66162ZM285.565 8.68972C283.111 9.63635 282.762 9.65826 279.378 9.07728L276.877 8.64803L278.408 8.49296C279.25 8.40744 281.161 8.32883 282.655 8.31835C284.149 8.30763 285.72 8.20687 286.147 8.0942C287.847 7.6459 287.589 7.90912 285.565 8.68972ZM316.993 8.2133C316.993 8.49558 316.483 8.56537 314.568 8.5456L312.143 8.52059L313.695 8.20663C315.826 7.77548 316.993 7.77786 316.993 8.2133ZM90.9841 8.57061C90.5573 8.68328 89.9462 8.78119 89.6261 8.78833C89.1089 8.80001 89.1089 8.77595 89.6261 8.57061C89.9462 8.44365 90.5573 8.34551 90.9841 8.35289L91.76 8.36599L90.9841 8.57061ZM240.46 9.92577C240.087 9.9858 239.476 9.9858 239.102 9.92577C238.729 9.86598 239.035 9.81691 239.781 9.81691C240.528 9.81691 240.834 9.86598 240.46 9.92577ZM19.3277 14.4067C18.9929 14.8581 18.9999 15.1558 19.3576 15.6377C19.7728 16.1973 19.7588 16.2375 19.2408 15.9736C18.267 15.4774 18.1017 14.7725 18.8416 14.2704C19.7429 13.6589 19.8585 13.6913 19.3277 14.4067ZM21.7264 14.0229C20.3556 14.2552 20.1546 15.5146 21.4028 16.0512C21.8893 16.2604 22.1283 16.4314 21.9347 16.4314C21.3473 16.4314 19.7864 15.4198 19.7864 15.0389C19.7864 14.4915 20.976 13.8083 21.8835 13.835C22.5854 13.8555 22.5637 13.8812 21.7264 14.0229ZM542.328 19.4535C541.957 19.5131 541.258 19.5152 540.776 19.4583C540.293 19.4014 540.596 19.3525 541.45 19.3499C542.304 19.3473 542.699 19.394 542.328 19.4535ZM548.617 19.757C548.931 19.879 549.052 20.0617 548.887 20.1634C548.721 20.2649 548.462 20.2246 548.31 20.0736C548.158 19.9226 547.251 19.7568 546.294 19.7053L544.554 19.6112L546.3 19.5734C547.26 19.5524 548.303 19.635 548.617 19.757ZM33.6961 21.3742C33.6495 22.0926 33.6065 22.1393 33.4765 21.6124C33.3876 21.252 33.1083 20.9557 32.8557 20.9538C32.4883 20.9507 33.2596 20.4995 33.6573 20.4845C33.7108 20.4826 33.7283 20.883 33.6961 21.3742ZM543.867 20.863C543.738 20.9421 543.403 20.9507 543.124 20.8818C542.814 20.8058 542.906 20.7494 543.358 20.7379C543.767 20.7277 543.996 20.7839 543.867 20.863ZM540.375 21.3394C540.246 21.4185 539.911 21.4271 539.632 21.3582C539.322 21.2822 539.414 21.2258 539.866 21.2144C540.275 21.2041 540.504 21.2603 540.375 21.3394ZM537.764 21.6719C537.231 21.7768 536.532 21.8718 536.212 21.8828C535.695 21.9006 535.695 21.8773 536.212 21.6719C536.532 21.545 537.231 21.4502 537.764 21.4611L538.734 21.4811L537.764 21.6719ZM31.9637 22.9056C30.0307 23.802 29.6287 23.897 31.0236 23.1276C31.7623 22.7201 32.5282 22.3866 32.7249 22.3866C32.922 22.3866 32.5794 22.6202 31.9637 22.9056ZM22.9978 23.333C22.3099 23.5905 21.6332 24.0802 21.4936 24.4213C21.3287 24.8251 21.1075 24.9604 20.8611 24.8091C20.6237 24.6633 20.6167 24.4285 20.8429 24.1803C21.2425 23.742 23.2516 22.8666 23.8603 22.8654C24.0737 22.8651 23.6857 23.0755 22.9978 23.333ZM525.639 23.7482C525.052 23.8027 524.092 23.8027 523.505 23.7482C522.918 23.6936 523.398 23.6491 524.572 23.6491C525.746 23.6491 526.226 23.6936 525.639 23.7482ZM533.295 24.5816C534.686 25.0028 535.824 25.4299 535.824 25.5309C535.824 25.6952 532.383 24.963 531.396 24.5888C531.179 24.5066 530.122 24.3082 529.048 24.1479L527.094 23.8563L528.93 23.8361C530.261 23.8213 531.461 24.0261 533.295 24.5816ZM21.4354 26.1174C21.1688 26.1836 20.7323 26.1836 20.4654 26.1174C20.1988 26.0514 20.4169 25.9973 20.9504 25.9973C21.4839 25.9973 21.7023 26.0514 21.4354 26.1174ZM34.365 26.1695C34.2486 26.2848 33.7015 26.4323 33.1486 26.497C32.0068 26.6312 32.3719 26.3051 33.5603 26.1295C33.9871 26.0664 34.3902 26.0025 34.4562 25.9873C34.5221 25.972 34.481 26.054 34.365 26.1695ZM17.8464 26.3122C17.8464 26.3749 17.148 26.6452 16.2944 26.9125C14.43 27.4963 14.2337 27.3341 16.0034 26.6717C17.2481 26.2057 17.8464 26.089 17.8464 26.3122ZM29.9787 27.0687C29.716 27.134 29.1922 27.1381 28.8147 27.0776C28.4372 27.0171 28.6521 26.9637 29.2923 26.9589C29.9325 26.9542 30.2414 27.0035 29.9787 27.0687ZM12.2386 28.9053C11.6085 29.185 10.6839 29.6549 10.1842 29.9496C9.68405 30.2443 9.06481 30.4822 8.80795 30.478C8.55071 30.4739 8.86421 30.1866 9.50441 29.8398C10.1446 29.493 10.6203 29.1133 10.5617 28.9958C10.5031 28.8786 10.6343 28.8505 10.8527 28.9337C11.0715 29.0166 11.2504 28.9873 11.2504 28.8686C11.2504 28.6133 12.9091 28.1099 13.1904 28.28C13.2971 28.3443 12.8687 28.6259 12.2386 28.9053ZM20.9504 28.6735C20.9504 28.725 20.6795 28.831 20.3482 28.9091C20.0029 28.9904 19.8473 28.9503 19.9831 28.8155C20.2108 28.589 20.9504 28.4806 20.9504 28.6735ZM8.99302 29.6519C8.35904 29.9794 7.429 30.2426 6.92655 30.2366C6.18431 30.2278 6.34106 30.1178 7.75841 29.6519C10.0189 28.9086 10.4317 28.9086 8.99302 29.6519ZM530.586 29.2972C529.602 29.5535 528.349 29.589 528.588 29.3541C528.687 29.256 529.352 29.1573 530.065 29.1352C531.095 29.1035 531.202 29.1369 530.586 29.2972ZM29.4863 30.1538C29.4863 30.2052 28.9187 30.2397 28.2253 30.2307C27.1983 30.2169 27.1083 30.179 27.7403 30.0254C28.4511 29.8527 29.4863 29.9289 29.4863 30.1538ZM523.612 30.633C523.266 30.8453 522.866 30.9465 522.722 30.8584C522.578 30.77 522.718 30.5982 523.031 30.4763C523.948 30.1204 524.294 30.214 523.612 30.633ZM521.565 30.8815C521.299 30.9477 520.862 30.9477 520.595 30.8815C520.329 30.8155 520.547 30.7614 521.08 30.7614C521.614 30.7614 521.832 30.8155 521.565 30.8815ZM8.81649 31.9563C8.81649 32.8541 8.76527 32.9074 8.28764 32.5063C7.99665 32.2619 7.75841 31.8145 7.75841 31.512C7.75841 31.2064 7.99354 30.962 8.28764 30.962C8.64965 30.962 8.81649 31.2755 8.81649 31.9563ZM528.484 32.153C528.893 32.153 529.228 32.2719 529.228 32.4169C529.228 32.7314 527.293 32.4891 526.706 32.1011C526.435 31.922 526.532 31.8912 527.029 31.9989C527.42 32.0837 528.075 32.153 528.484 32.153ZM20.1573 32.9932C20.3885 32.9055 20.5624 33.0499 20.5624 33.33C20.5624 33.5996 20.4316 33.8188 20.2714 33.8169C19.8473 33.8114 18.7539 33.3519 19.1547 33.3476C19.3409 33.3457 19.2536 33.1566 18.9607 32.9272C18.4811 32.5518 18.4939 32.542 19.0903 32.8286C19.4546 33.0037 19.9346 33.0777 20.1573 32.9932ZM530.78 33.8205C530.78 34.0503 530.49 34.3857 530.136 34.5656C529.546 34.8648 529.537 34.8469 530.035 34.3564C530.501 33.8969 530.501 33.744 530.035 33.2845C529.537 32.794 529.546 32.7762 530.136 33.0753C530.49 33.2552 530.78 33.5906 530.78 33.8205ZM14.4207 33.9765C15.3352 34.4843 15.3224 34.7733 14.3862 34.7733C13.1287 34.7733 12.4144 34.5053 12.4144 34.0332C12.4144 33.4727 13.4608 33.4431 14.4207 33.9765ZM21.3845 36.2025C22.2641 36.7266 22.7778 37.1553 22.5264 37.1553C22.2746 37.1553 22.1807 37.2668 22.3181 37.4033C22.4554 37.5396 22.902 37.586 23.3109 37.5062C23.8797 37.3955 24.0543 37.4772 24.0543 37.854C24.0543 38.5793 22.5745 38.485 21.0008 37.6592C19.8209 37.0398 19.7604 36.9498 20.3816 36.7363C21.0361 36.5115 21.0338 36.4765 20.3311 36.0265C19.9249 35.7661 19.3305 35.4934 19.0104 35.4202C18.5483 35.3147 18.5684 35.2835 19.107 35.2685C19.4802 35.2583 20.5049 35.6785 21.3845 36.2025ZM16.4985 35.9183C16.3794 35.9917 16.0662 35.9186 15.8028 35.7556C15.4225 35.5203 15.4672 35.4931 16.0201 35.6222C16.4026 35.7118 16.618 35.845 16.4985 35.9183ZM17.6625 36.633C17.5433 36.7063 17.2302 36.6332 16.9668 36.4703C16.5865 36.2349 16.6312 36.2078 17.1841 36.3369C17.5666 36.4264 17.782 36.5596 17.6625 36.633ZM19.7864 36.5343C19.7864 36.5858 19.5245 36.6897 19.2044 36.7652C18.8843 36.8404 18.6224 36.7983 18.6224 36.6715C18.6224 36.5446 18.8843 36.4407 19.2044 36.4407C19.5245 36.4407 19.7864 36.4829 19.7864 36.5343ZM19.3984 38.5846C19.3984 39.6937 18.7892 39.8668 18.5409 38.8283C18.4008 38.2425 18.7791 37.6318 19.282 37.6318C19.346 37.6318 19.3984 38.0605 19.3984 38.5846ZM527.88 40.4176C527.983 40.7053 528.766 41.4354 529.618 42.04C531.384 43.2925 531.366 43.2613 530.586 43.7401C530.069 44.0576 530.004 44.044 530.004 43.6179C530.004 43.3544 529.829 43.0721 529.615 42.9912C529.108 42.7987 527.11 40.3218 526.748 39.4371C526.558 38.9698 526.63 38.6863 526.975 38.5541C527.348 38.4109 527.51 38.5629 527.587 39.127C527.644 39.5493 527.776 40.1301 527.88 40.4176ZM32.3781 42.4342C33.4986 42.7475 33.5956 42.9354 32.8359 43.3225C32.2613 43.615 31.7693 43.3747 31.3049 42.5745C31.0185 42.0817 31.0864 42.0729 32.3781 42.4342ZM526.192 43.9092C525.84 44.3554 525.787 44.2991 525.774 43.4678C525.762 42.6751 525.83 42.5891 526.177 42.9564C526.469 43.2644 526.473 43.5519 526.192 43.9092ZM25.843 43.9244C25.6975 44.2808 25.7926 44.5462 26.0921 44.6202C26.3583 44.6862 26.1938 44.7489 25.7262 44.7591C25.2587 44.7694 24.7609 44.6634 24.62 44.5235C24.4792 44.3835 24.0951 44.3325 23.7661 44.4099C23.2776 44.525 23.2555 44.4864 23.645 44.1984C23.9069 44.0045 24.0086 43.7341 23.8708 43.5974C23.7172 43.4447 24.0947 43.3487 24.8494 43.3487C25.9555 43.3487 26.0549 43.4063 25.843 43.9244ZM21.8932 44.5669C21.5545 44.9032 20.5624 44.811 20.5624 44.443C20.5624 44.2258 20.834 44.1515 21.3341 44.2317C21.7586 44.2999 22.01 44.4506 21.8932 44.5669ZM527.674 50.1881C527.252 50.593 527.24 50.5923 527.453 50.1776C527.576 49.9377 527.69 49.6161 527.707 49.463C527.729 49.2622 527.791 49.265 527.928 49.4735C528.033 49.6323 527.919 49.9539 527.674 50.1881ZM23.0696 50.2419C23.1619 50.3336 22.7227 50.3622 22.0938 50.3057C21.4648 50.2491 20.9504 50.1223 20.9504 50.0244C20.9504 49.811 22.8298 50.0039 23.0696 50.2419ZM525.736 50.6338C525.736 50.9722 525.548 51.2107 525.319 51.1638C525.09 51.1168 524.915 51.0008 524.931 50.9058C524.947 50.8107 524.96 50.5723 524.96 50.3758C524.96 50.1793 525.135 50.0185 525.348 50.0185C525.562 50.0185 525.736 50.2953 525.736 50.6338ZM22.3417 51.6264C22.4864 52.1178 22.7899 52.734 23.0164 52.996C23.243 53.2581 23.4386 53.6816 23.4506 53.9372C23.4638 54.2233 23.8452 54.4658 24.4423 54.5684C25.3704 54.7278 25.3743 54.7361 24.5339 54.7588C23.5589 54.7852 22.0876 54.3476 21.61 53.8893C21.4392 53.7257 21.0505 53.5916 20.7459 53.5916C20.4413 53.5916 19.8993 53.3172 19.5415 52.9818C19.1159 52.583 18.7958 52.4665 18.6165 52.6447C18.4404 52.8193 18.2685 52.7445 18.137 52.436C17.9022 51.8848 18.8005 50.9713 19.5776 50.9713C19.9567 50.9713 20.0487 51.2169 19.9125 51.8646C19.758 52.5982 19.8756 52.8141 20.5693 53.072C21.6876 53.4882 22.029 53.2388 21.1537 52.6452C20.5589 52.2416 20.5414 52.1523 21.0342 52.0363C21.4063 51.9487 21.5467 51.6931 21.4295 51.3167C21.3283 50.9911 21.4315 50.7331 21.6635 50.7331C21.892 50.7331 22.1974 51.1352 22.3417 51.6264ZM534.167 51.8298C534.038 51.9089 533.703 51.9174 533.424 51.8486C533.114 51.7726 533.206 51.7162 533.658 51.7047C534.067 51.6945 534.296 51.7507 534.167 51.8298ZM532.541 52.1776C532.715 52.35 532.32 52.3779 531.303 52.265C529.322 52.0449 529.174 51.9241 530.886 51.9241C531.657 51.9241 532.401 52.0382 532.541 52.1776ZM527.959 53.9736C527.83 54.0527 527.495 54.0613 527.216 53.9925C526.906 53.9165 526.998 53.86 527.45 53.8486C527.859 53.8383 528.088 53.8946 527.959 53.9736ZM523.602 54.5444C523.175 54.6571 522.564 54.749 522.244 54.749C521.878 54.749 521.949 54.6735 522.438 54.5444C522.865 54.4317 523.476 54.3398 523.796 54.3398C524.163 54.3398 524.091 54.4153 523.602 54.5444ZM20.3684 55.0208C20.2364 55.1518 19.9206 55.2573 19.6665 55.2554C19.3887 55.2531 19.4368 55.1594 19.7864 55.0208C20.5317 54.7249 20.666 54.7249 20.3684 55.0208ZM521.363 54.9265C521.234 55.0056 520.899 55.0141 520.62 54.9453C520.31 54.8693 520.402 54.8128 520.854 54.8014C521.263 54.7912 521.492 54.8474 521.363 54.9265ZM529.228 55.0208C527.902 55.2816 526.882 55.2816 527.87 55.0208C528.297 54.9081 528.995 54.8193 529.422 54.8231C530.046 54.8288 530.008 54.8674 529.228 55.0208ZM23.1833 55.3186C23.0956 55.4824 22.6009 55.654 22.0841 55.6999C21.5673 55.7459 21.0571 55.8583 20.9504 55.9498C20.8437 56.041 20.0409 56.2442 19.1663 56.4007C17.3629 56.724 15.5184 57.6611 15.5184 58.2544C15.5184 58.5632 15.6367 58.592 16.0472 58.3828C16.4744 58.1651 16.5411 58.2249 16.3953 58.6939C16.2874 59.0401 16.0146 59.2278 15.7198 59.1582C15.3997 59.0827 15.1591 59.318 15.038 59.8252C14.8828 60.4733 15.059 60.7287 16.0577 61.3037L17.2644 61.9988L16.0608 61.6186C14.3505 61.0784 12.4144 59.6441 12.4144 58.9174C12.4144 58.4665 12.2584 58.3414 11.8235 58.4441C11.0653 58.6225 11.605 57.9488 12.7135 57.3333C13.4538 56.9217 13.4698 56.9319 13.3634 57.7528C13.3037 58.2154 13.3281 58.5939 13.4178 58.5939C13.507 58.5939 14.1879 58.1811 14.9302 57.6766C16.507 56.6053 20.5922 55.1897 21.4943 55.4022C21.8354 55.4824 22.1144 55.4296 22.1144 55.2845C22.1144 55.1394 22.3906 55.0208 22.7286 55.0208C23.0665 55.0208 23.271 55.1549 23.1833 55.3186ZM519.884 55.1063C519.795 55.1535 519.198 55.264 518.558 55.3519C517.708 55.4686 517.551 55.4465 517.976 55.27C518.5 55.0522 520.273 54.9003 519.884 55.1063ZM16.6824 55.8255C16.6824 55.8748 16.3766 56.0625 16.0034 56.2423C15.388 56.5384 15.3744 56.5301 15.8567 56.1523C16.3638 55.7554 16.6824 55.6294 16.6824 55.8255ZM516.258 56.2085C516.258 56.4881 516.115 56.5939 515.909 56.4674C515.718 56.3498 515.678 56.1368 515.821 55.9944C516.186 55.632 516.258 55.6671 516.258 56.2085ZM532.972 60.1549C532.94 60.1618 532.443 60.348 531.868 60.5689L530.822 60.9702L531.456 60.2914C531.934 59.7797 532.207 59.6775 532.561 59.8771C532.819 60.0229 533.004 60.1479 532.972 60.1549ZM528.84 59.8957C528.84 59.9564 528.447 60.1348 527.967 60.2921C527.176 60.551 527.144 60.5405 527.626 60.1813C528.122 59.8123 528.84 59.6434 528.84 59.8957ZM23.5309 62.8816C24.0039 62.8816 25.3041 63.2299 26.4204 63.6558L28.45 64.4299L27.3194 64.5805C26.6974 64.6631 26.4883 64.7437 26.8553 64.7591C27.6942 64.7946 27.3671 65.4266 26.1623 66.0974C25.0046 66.742 24.0543 67.9513 24.0543 68.7801C24.0543 69.2622 23.7117 69.6173 22.8845 69.9928C21.222 70.7474 20.9938 70.1752 22.2727 68.4601C23.482 66.8384 23.4917 66.7432 22.4969 66.2136L21.7155 65.7975L22.4973 65.6719C22.9276 65.6029 23.1817 65.6436 23.0618 65.7622C22.9423 65.8811 23.3765 65.9783 24.0268 65.9783C25.1012 65.9783 25.2005 65.9135 25.1151 65.2679C25.0406 64.7058 24.7007 64.4571 23.4859 64.0769C22.6413 63.8125 21.8125 63.5962 21.6445 63.5962C21.4761 63.5962 20.9892 63.3818 20.5624 63.1198C20.1356 62.8578 19.5245 62.6434 19.2044 62.6434C18.8843 62.6434 18.6224 62.5519 18.6224 62.44C18.6224 62.3282 19.5334 62.3818 20.6469 62.5591C21.7605 62.7365 23.0584 62.8816 23.5309 62.8816ZM524.184 62.4828C524.184 62.5255 523.704 62.8201 523.117 63.1379L522.05 63.7153L522.991 63.0603C523.87 62.4481 524.184 62.2958 524.184 62.4828ZM526.706 63.5962C526.574 63.7272 526.292 63.8344 526.078 63.8344C525.865 63.8344 525.798 63.7272 525.93 63.5962C526.062 63.4652 526.345 63.358 526.558 63.358C526.771 63.358 526.838 63.4652 526.706 63.5962ZM522.244 63.9245C522.244 63.9738 521.939 64.1615 521.565 64.3413C520.95 64.6374 520.936 64.6291 521.418 64.2513C521.926 63.8544 522.244 63.7284 522.244 63.9245ZM530.515 65.9771C530.689 66.0738 530.481 66.2091 530.052 66.2779C529.569 66.3554 529.01 66.2248 528.582 65.9347C527.907 65.4769 527.918 65.4699 529.045 65.6338C529.679 65.726 530.341 65.8806 530.515 65.9771ZM25.3309 69.3132C25.2191 69.5752 24.9735 69.7896 24.7849 69.7896C24.5968 69.7896 24.4423 69.5752 24.4423 69.3132C24.4423 69.0511 24.6879 68.8368 24.9879 68.8368C25.3425 68.8368 25.4628 69.0035 25.3309 69.3132ZM24.6918 71.5761C25.209 71.8936 25.1656 71.9334 24.2988 71.9334C22.8345 71.9334 22.6137 71.4444 23.9849 71.2376C24.0536 71.2274 24.3717 71.3796 24.6918 71.5761ZM22.6964 72.4098C22.8283 72.5409 22.7615 72.648 22.5481 72.648C22.3347 72.648 22.0523 72.5409 21.9204 72.4098C21.7884 72.2788 21.8552 72.1716 22.0686 72.1716C22.282 72.1716 22.5644 72.2788 22.6964 72.4098ZM532.825 73.0425C532.562 73.1078 532.038 73.1118 531.661 73.0513C531.283 72.9908 531.498 72.9375 532.138 72.9327C532.778 72.9279 533.087 72.9772 532.825 73.0425ZM19.3984 73.8391C19.3984 73.9701 19.5943 74.0773 19.8337 74.0773C20.1468 74.0773 20.1418 74.1719 19.8151 74.4134C19.2886 74.8029 19.616 74.9834 21.6425 75.4198C22.8019 75.6694 22.8721 75.6587 22.4185 75.3026C22.1446 75.0873 21.6585 74.7805 21.3384 74.6209C20.8212 74.3629 20.8212 74.3295 21.3384 74.3217C21.6585 74.3167 21.4202 74.1523 20.8091 73.9567C19.4942 73.5356 19.3984 73.5277 19.3984 73.8391ZM20.9504 76.5925C20.9504 76.7966 21.125 76.8976 21.3384 76.8167C21.5518 76.7357 21.7264 76.5687 21.7264 76.4453C21.7264 76.3219 21.5518 76.2211 21.3384 76.2211C21.125 76.2211 20.9504 76.3884 20.9504 76.5925ZM28.0053 76.7492C27.7271 76.92 27.5463 76.9341 27.5463 76.785C27.5463 76.467 28.0053 76.1852 28.2641 76.3443C28.3743 76.4119 28.2579 76.5942 28.0053 76.7492ZM520.886 76.6975C521.871 76.9572 521.434 77.0051 518.655 76.9422C517.251 76.9105 516.424 76.9884 516.424 77.152C516.424 77.2952 516.806 77.4122 517.274 77.4122C518.24 77.4122 522.247 77.8371 523.99 78.1244L525.154 78.3164L523.99 78.3402C522.917 78.3624 515.571 77.6082 513.32 77.2449C512.62 77.132 513.268 77.0101 515.648 76.8062C519.784 76.452 519.943 76.4489 520.886 76.6975ZM27.7066 77.9581C27.6542 78.2473 27.5941 78.5377 27.5731 78.6032C27.5521 78.6687 27.3038 78.4543 27.021 78.1268C26.4421 77.4555 26.5507 77.1373 27.2988 77.3133C27.5758 77.3786 27.7593 77.6687 27.7066 77.9581ZM20.6198 77.6235C20.2089 77.7833 20.2904 77.9115 20.9973 78.2154C22.2742 78.7647 22.8903 78.6971 22.8903 78.0077C22.8903 77.5479 22.6913 77.4129 22.0174 77.4157C21.5374 77.4179 20.9085 77.5113 20.6198 77.6235ZM21.2192 79.0641C21.5351 79.8054 22.819 80.4098 23.3653 80.0744C23.7148 79.8597 23.7129 79.7942 23.3559 79.7942C23.0999 79.7942 22.8903 79.672 22.8903 79.5227C22.8903 79.2556 21.776 78.6256 21.2778 78.6108C21.1378 78.6065 21.1114 78.8107 21.2192 79.0641ZM31.7092 81.1291C31.5803 81.2082 31.2455 81.2168 30.9658 81.148C30.6561 81.072 30.7481 81.0155 31.2001 81.0041C31.6091 80.9938 31.838 81.0501 31.7092 81.1291ZM276.253 82.7632L278.775 83.3425L274.653 83.3549C272.385 83.3618 269.941 83.4259 269.221 83.4979C268.037 83.6158 268.115 83.5598 270.045 82.9135C272.646 82.0422 273.069 82.0322 276.253 82.7632ZM138.409 82.7968C138.03 83.0291 129.805 83.292 129.564 83.0793C129.288 82.8359 123.389 82.9295 123.135 83.1815C123.032 83.2837 122.599 83.3673 122.172 83.3673C121.745 83.3673 121.495 83.2692 121.615 83.1494C121.736 83.0295 121.615 82.8773 121.347 82.8109C121.079 82.7447 124.861 82.6818 129.752 82.6715C134.642 82.6613 138.538 82.7175 138.409 82.7968ZM173.426 83.0486L184.865 83.207L182.167 83.7658C178.747 84.4743 173.821 84.4843 172.248 83.7863C171.34 83.3833 170.954 83.369 167.637 83.6165C164.958 83.8166 163.947 83.8171 163.747 83.6189C163.599 83.4717 163.182 83.4209 162.82 83.5062C162.458 83.5915 160.497 83.5846 158.463 83.491C155.149 83.3385 154.838 83.2851 155.466 82.9762C155.998 82.7154 156.873 82.6632 159.078 82.7611C160.678 82.8321 167.135 82.9617 173.426 83.0486ZM216.986 83.248C217.961 83.3628 218.441 83.3323 218.441 83.1551C218.441 82.9921 219.222 82.9 220.478 82.9147C222.081 82.9333 222.309 82.979 221.545 83.1291C220.685 83.2982 220.743 83.3225 222.053 83.3435C222.948 83.358 223.437 83.2732 223.291 83.1291C222.915 82.7551 223.565 82.8497 224.959 83.3718C225.664 83.6355 226.134 83.9566 226.004 84.0855C225.696 84.3916 223.988 84.389 223.679 84.0819C223.318 83.7232 220.704 83.8013 215.531 84.3249C210.513 84.8332 209.219 84.893 210.488 84.5583C211.171 84.378 211.134 84.3516 210.177 84.3368C209.58 84.3278 208.57 84.4855 207.934 84.6872C206.935 85.0047 206.703 85.0086 206.226 84.7156C205.923 84.5293 205.797 84.2973 205.947 84.1999C206.097 84.1024 205.783 84.1155 205.25 84.2289C204.716 84.3423 200.875 84.4359 196.714 84.4371C192.552 84.4383 188.93 84.526 188.663 84.632C188.395 84.7384 188.178 84.7234 188.178 84.5981C188.178 84.4738 187.741 84.3044 187.208 84.2222C185.493 83.9581 186.172 83.6055 188.395 83.6055C189.734 83.6055 190.461 83.5153 190.312 83.3673C190.162 83.2184 190.962 83.1291 192.446 83.1291C193.751 83.1291 194.738 83.2099 194.639 83.3085C194.539 83.4073 195.708 83.511 197.235 83.5391C199.156 83.5743 199.832 83.5181 199.43 83.3571C199.042 83.2018 199.935 83.1772 202.109 83.2832C204.615 83.4052 205.303 83.3752 205.08 83.1536C204.857 82.9314 206.021 82.8895 210.161 82.9709C213.115 83.0291 216.186 83.1536 216.986 83.248ZM241.915 83.1291C240.179 83.4004 237.841 83.4004 237.841 83.1291C237.841 82.991 238.943 82.9028 240.46 82.919C242.484 82.9409 242.815 82.9886 241.915 83.1291ZM64.3092 83.2932C63.9355 83.3533 63.3248 83.3533 62.9512 83.2932C62.5775 83.2335 62.8833 83.1844 63.6302 83.1844C64.3771 83.1844 64.6828 83.2335 64.3092 83.2932ZM37.0872 83.7966C36.466 83.844 35.5655 84.0405 35.0859 84.2334C34.5602 84.4452 34.1221 84.4926 33.9817 84.3535C33.854 84.2265 33.9689 84.0629 34.237 83.99C35.7731 83.5717 29.8801 84.2434 27.5463 84.7525C27.2262 84.8223 28.5357 84.9678 30.4563 85.0755C32.3769 85.1832 34.2381 85.3737 34.592 85.499C35.5053 85.8216 37.8682 85.534 38.6477 85.0052C39.4303 84.4743 41.5143 84.3947 41.5143 84.8959C41.5143 85.0815 41.7327 85.2796 41.9993 85.3366C42.2662 85.3933 41.919 85.5176 41.2275 85.6129C38.4025 86.0024 39.5669 86.565 43.7185 86.8166C46.417 86.9802 46.4981 86.9697 46.2921 86.4866C46.1753 86.2122 45.7947 85.9843 45.4459 85.98C44.9166 85.9738 44.9387 85.9137 45.5797 85.6162C46.1132 85.3687 46.8232 85.3037 47.9077 85.403C49.5532 85.5538 51.7986 85.1841 51.4342 84.8225C51.3163 84.7051 51.655 84.5422 52.1869 84.4602C52.7189 84.378 53.1542 84.191 53.1542 84.0443C53.1542 83.8576 52.4279 83.8294 50.7292 83.9504C49.3957 84.0455 47.5185 84.0931 46.5582 84.056C45.5979 84.0191 44.0266 84.0055 43.0663 84.026C39.4606 84.1027 39.0908 84.0924 38.659 83.9038C38.4153 83.7975 37.708 83.7492 37.0872 83.7966ZM397.697 84.201C398.116 84.5114 397.906 84.556 396.095 84.5403L394.011 84.5221L395.369 84.201C397.135 83.7835 397.132 83.7835 397.697 84.201ZM58.554 86.1389C58.8974 86.3235 55.6347 86.181 54.9002 85.9792C54.3935 85.8401 54.8645 85.8158 56.2582 85.9092C57.4319 85.9878 58.4651 86.0912 58.554 86.1389ZM105.695 85.9552C105.809 86.0683 105.03 86.2244 103.963 86.3018C101.436 86.4857 100.714 86.7634 102.236 86.9666C103.137 87.0871 102.911 87.1286 101.234 87.1505C100.042 87.166 98.9388 87.0998 98.7817 87.0033C98.6245 86.9068 99.8611 86.5933 101.53 86.3068C105.021 85.7072 105.413 85.6741 105.695 85.9552ZM461.813 85.9071C461.547 85.9733 461.328 86.347 461.328 86.7382C461.328 87.3637 461.433 87.4299 462.201 87.2896C462.681 87.2022 463.249 87.0007 463.462 86.842C463.676 86.6834 464.156 86.4833 464.529 86.3971C465.721 86.1229 465.259 85.7487 463.753 85.7682C462.953 85.7784 462.08 85.8411 461.813 85.9071ZM466.277 86.2094C464.512 86.6634 464.363 87.0562 466.033 86.8511C466.7 86.7691 467.816 86.7022 468.513 86.7022C469.287 86.7022 469.869 86.5619 470.006 86.342C470.185 86.0567 470.023 86.0138 469.23 86.136C468.68 86.2208 468.117 86.1879 467.98 86.0629C467.829 85.9252 467.157 85.9831 466.277 86.2094ZM236.91 87.0679C239.248 87.2082 239.701 87.175 239.905 86.8485C240.037 86.6369 240.543 86.4678 241.03 86.4723C241.915 86.4809 241.915 86.4811 240.95 86.8089C240.049 87.1153 240.191 87.146 243.084 87.2706C247.51 87.4614 248.821 87.4409 249.255 87.1748C249.505 87.0212 249.042 86.938 247.91 86.9333C244.771 86.9199 247.164 86.5286 251.121 86.4078C254.602 86.3018 254.914 86.3287 255.134 86.7537C255.265 87.0071 255.313 87.2467 255.24 87.2863C254.592 87.6381 251.563 88.3882 250.285 88.5138C249.406 88.6 248.578 88.7803 248.442 88.9147C248.276 89.0795 250.167 89.1145 254.271 89.0226C257.612 88.9478 260.345 88.9235 260.345 88.9685C260.345 89.0135 259.402 89.2188 258.249 89.4247C256.1 89.8082 250.899 89.9413 252.391 89.5747C252.82 89.4694 251.516 89.4325 249.481 89.4926L245.795 89.6009L247.153 89.045L248.511 88.4888L247.018 88.4135C246.129 88.3685 245.266 88.4742 244.884 88.675C243.841 89.2234 243.039 89.3067 241.534 89.0233C240.658 88.8582 240.012 88.8413 239.85 88.9795C239.705 89.1026 238.627 89.2188 237.453 89.2379C236.251 89.2574 235.707 89.2053 236.206 89.1188L237.093 88.9652L236.304 88.5509C235.551 88.1555 235.493 88.1584 235.033 88.6105C234.425 89.2079 233.528 89.2129 232.355 88.6255C231.345 88.1195 231.6 87.9754 233.738 87.8439C234.361 87.8056 234.943 87.6403 235.031 87.4764C235.144 87.2644 234.622 87.1786 233.218 87.1786C232.078 87.1786 231.245 87.0712 231.245 86.9245C231.245 86.7846 230.94 86.7215 230.566 86.7844C230.193 86.8473 229.189 86.968 228.335 87.0528L226.783 87.2067L228.529 86.6567C230.239 86.1184 230.317 86.115 232.215 86.5047C233.282 86.7236 235.395 86.9771 236.91 87.0679ZM339.485 86.2163C340.391 86.5679 336.235 87.6498 333.968 87.6526C332.143 87.655 331.494 87.3513 332.804 87.1083C333.177 87.039 334.443 86.7625 335.617 86.4935C338.016 85.9442 338.664 85.8975 339.485 86.2163ZM355.922 86.3544C356.526 86.4126 357.311 86.3663 357.668 86.2522C358.552 85.9683 365.2 86.2763 365.379 86.6093C365.473 86.7834 363.838 86.9823 360.596 87.191C355.997 87.4871 355.758 87.5271 356.993 87.7927C358.881 88.1993 357.706 88.4304 354.258 88.3301C352.182 88.2698 351.56 88.323 351.701 88.5483C351.804 88.7122 351.763 88.8475 351.61 88.8494C351.456 88.8511 350.911 88.9216 350.397 89.0059C349.742 89.1136 349.547 89.0769 349.741 88.8837C349.924 88.7015 349.648 88.5986 348.929 88.5802C348.273 88.5636 348.109 88.5092 348.518 88.4437C348.891 88.3837 349.197 88.2353 349.197 88.1141C349.197 87.9926 349.59 87.8909 350.07 87.888C350.55 87.8851 351.379 87.6624 351.913 87.3935L352.883 86.904L351.913 87.0219C351.379 87.0867 350.194 87.3101 349.278 87.5185C347.624 87.8951 345.505 87.808 345.935 87.3811C346.059 87.2582 345.961 87.0107 345.718 86.8308C345.091 86.3668 346.465 86.1348 348.149 86.4204C349.085 86.579 349.723 86.5536 350.394 86.3304C351.262 86.0419 352.729 86.0481 355.922 86.3544ZM51.8851 86.3697C51.7563 86.4488 51.4214 86.4573 51.1417 86.3885C50.8321 86.3125 50.924 86.2561 51.376 86.2446C51.785 86.2344 52.0139 86.2906 51.8851 86.3697ZM142.61 86.4416C142.332 86.7186 138.681 87.0319 138.137 86.8256C137.248 86.4883 138.281 86.2258 140.5 86.2258C141.792 86.2258 142.731 86.3218 142.61 86.4416ZM311.787 86.464C312.303 86.464 312.725 86.5738 312.725 86.7082C312.725 86.8556 311.994 86.9109 310.882 86.8473C308.22 86.6953 308.187 86.6886 309.039 86.464C309.466 86.3513 310.047 86.3051 310.332 86.3616C310.616 86.4178 311.271 86.464 311.787 86.464ZM444.839 86.464C444.707 86.595 444.162 86.7022 443.629 86.7022C443.061 86.7022 442.762 86.8042 442.906 86.9478C443.045 87.0862 443.701 87.1303 444.409 87.0486C445.3 86.9459 445.812 87.0131 446.172 87.2796C446.726 87.6893 449.3 87.8022 449.3 87.4168C449.3 87.2858 449.606 87.1717 449.979 87.1636C450.472 87.1527 450.404 87.0857 449.729 86.9202C449.218 86.7946 448.52 86.7465 448.177 86.8132C447.835 86.8797 447.054 86.7749 446.443 86.58C445.124 86.1596 445.143 86.161 444.839 86.464ZM157.269 87.1934C157.09 87.3027 156.158 87.4495 155.198 87.519L153.452 87.6455L154.875 87.3525C155.658 87.1912 156.424 86.9821 156.578 86.8873C156.732 86.7927 157.023 86.778 157.226 86.8547C157.428 86.9314 157.447 87.0838 157.269 87.1934ZM224.783 87.2517L226.241 87.2977L225.051 87.9528C223.569 88.7686 222.98 88.7746 221.967 87.9842C221.033 87.2558 221.234 86.8835 222.459 87.0721C222.936 87.1455 223.982 87.2263 224.783 87.2517ZM308.942 87.3442C309.529 87.4168 310.009 87.5466 310.009 87.6326C310.009 87.9299 307.768 88.3118 307.237 88.105C306.808 87.938 306.818 87.8963 307.293 87.878C307.613 87.8658 307.375 87.7439 306.764 87.6074C305.93 87.4209 305.785 87.3077 306.182 87.1522C306.473 87.0386 306.973 87.0054 307.293 87.0788C307.613 87.1519 308.355 87.2715 308.942 87.3442ZM327.857 87.2687C326.683 87.4223 324.675 87.4973 323.395 87.4356C321.121 87.3261 321.103 87.3199 322.619 87.1658C323.473 87.0791 325.481 87.0038 327.081 86.9985L329.991 86.9892L327.857 87.2687ZM342.353 87.2977C342.218 87.5133 341.646 87.6517 340.91 87.6467L339.691 87.6381L340.661 87.2977C341.932 86.8516 342.632 86.8516 342.353 87.2977ZM457.254 87.1786C457.114 87.318 457.517 87.4168 458.224 87.4168C458.932 87.4168 459.335 87.318 459.194 87.1786C459.063 87.0476 458.626 86.9404 458.224 86.9404C457.823 86.9404 457.386 87.0476 457.254 87.1786ZM167.824 87.4328C167.964 87.5724 167.987 87.7439 167.873 87.8137C167.522 88.0288 164.493 87.6267 164.725 87.3956C165.029 87.0933 167.512 87.1229 167.824 87.4328ZM203.31 87.4168C203.31 87.5478 202.83 87.6474 202.243 87.6384C201.297 87.6233 201.264 87.5983 201.952 87.4168C203.011 87.1372 203.31 87.1372 203.31 87.4168ZM173.24 87.655C173.377 87.7913 175.37 87.8932 177.896 87.8932C183.708 87.8932 184.428 88.4992 178.866 88.7091C177.692 88.7532 175.816 88.8694 174.697 88.9671C173.317 89.0874 172.485 89.0547 172.113 88.8651C171.769 88.6898 170.793 88.6317 169.492 88.7089L167.42 88.8322L169.138 88.6062C171.062 88.353 172.121 87.908 170.892 87.8694C170.287 87.8506 170.33 87.8075 171.106 87.655C172.487 87.3835 172.966 87.3835 173.24 87.655ZM219.509 87.6741C219.135 87.8075 217.477 87.8932 215.823 87.8644C214.169 87.8356 211.855 87.8804 210.682 87.964C208.387 88.1276 207.042 87.9938 207.401 87.6379C207.523 87.5162 210.447 87.4202 213.905 87.424C218.362 87.4292 219.99 87.5019 219.509 87.6741ZM363.359 87.9118C360.795 88.409 359.693 88.4949 360.274 88.1524C360.677 87.9149 363.674 87.4702 364.911 87.464C365.338 87.4621 364.639 87.6634 363.359 87.9118ZM145.013 87.9645C143.796 88.2596 143.704 88.4266 144.528 88.8461C144.891 89.0312 145.11 89.0481 145.11 88.8906C145.11 88.752 145.721 88.5031 146.468 88.3373C147.215 88.1715 147.826 87.9502 147.826 87.8454C147.826 87.5855 146.311 87.6498 145.013 87.9645ZM157.817 88.2956C157.444 88.3556 156.832 88.3556 156.459 88.2956C156.086 88.2358 156.391 88.1867 157.138 88.1867C157.885 88.1867 158.19 88.2358 157.817 88.2956ZM207.772 88.3697C207.64 88.5007 207.236 88.6062 206.876 88.6043C206.31 88.6009 206.3 88.5686 206.802 88.3697C207.561 88.0681 208.075 88.0681 207.772 88.3697ZM325.335 88.3697C325.203 88.5007 324.854 88.6079 324.559 88.6079C324.264 88.6079 323.915 88.5007 323.783 88.3697C323.646 88.2341 323.981 88.1314 324.559 88.1314C325.138 88.1314 325.472 88.2341 325.335 88.3697ZM343.481 88.2877C343.219 88.353 342.695 88.357 342.317 88.2965C341.94 88.236 342.155 88.1827 342.795 88.1779C343.435 88.1731 343.744 88.2224 343.481 88.2877ZM173.822 88.6079C172.903 88.7887 172.918 88.7999 174.113 88.8222C174.806 88.8353 175.374 88.7389 175.374 88.6079C175.374 88.3387 175.191 88.3387 173.822 88.6079ZM200.31 88.5259C200.047 88.5912 199.523 88.5952 199.146 88.5347C198.768 88.4742 198.983 88.4209 199.624 88.4161C200.264 88.4113 200.573 88.4606 200.31 88.5259ZM230.954 88.6052C231.87 88.6088 231.814 89.0083 230.852 89.3244C230.275 89.514 230.097 89.5088 230.173 89.3041C230.229 89.1517 229.577 88.8813 228.723 88.7029L227.171 88.3785L228.723 88.4904C229.577 88.5521 230.581 88.6038 230.954 88.6052ZM322.534 88.7067C323.177 89.0064 323.154 89.0397 322.203 89.1865C321.202 89.3406 318.542 89.2081 316.605 88.9078C315.743 88.7741 315.807 88.7396 317.187 88.5974C319.8 88.3277 321.809 88.3689 322.534 88.7067ZM201.973 89.54C201.829 89.6824 201.45 89.7989 201.13 89.7989C200.81 89.7989 200.656 89.6917 200.788 89.5607C200.919 89.4297 200.799 89.3148 200.519 89.3058C200.24 89.2965 200.361 89.2015 200.788 89.0945C201.658 88.8763 202.371 89.1443 201.973 89.54ZM207.358 89.0585C207.475 89.1753 206.962 89.3144 206.217 89.368C204.827 89.4675 204.829 89.2212 206.22 89.0159C206.646 88.9528 207.029 88.8889 207.07 88.8737C207.11 88.8584 207.24 88.9416 207.358 89.0585ZM215.97 89.1193C215.571 89.2615 214.568 89.372 213.739 89.3651C212.911 89.358 212.234 89.4528 212.234 89.5757C212.234 89.6984 211.87 89.7989 211.425 89.7989C210.952 89.7989 210.683 89.6755 210.777 89.5011C210.953 89.1741 212.738 88.922 215.144 88.8847C216.437 88.8646 216.574 88.9037 215.97 89.1193ZM218.344 89.9351C217.757 90.1307 217.277 90.3408 217.277 90.402C217.277 90.4632 219.034 90.5135 221.18 90.5135C223.683 90.5135 224.997 90.428 224.843 90.2753C224.712 90.1443 224.013 90.0371 223.291 90.0371C222.57 90.0371 221.871 89.9299 221.739 89.7989C221.39 89.4518 219.577 89.5247 218.344 89.9351ZM227.171 90.5135C227.303 90.6445 227.653 90.7517 227.947 90.7517C228.242 90.7517 228.592 90.6445 228.723 90.5135C228.86 90.378 228.526 90.2753 227.947 90.2753C227.369 90.2753 227.035 90.378 227.171 90.5135Z" fill="#FCC647"/>
</svg>
