<svg width="575" height="2200" viewBox="0 0 575 2200" fill="none" xmlns="http://www.w3.org/2000/svg">
<g clip-path="url(#clip0_365_3636)">
<rect width="575" height="2200" fill="#EDE2D9"/>
<path style="mix-blend-mode:color-dodge" d="M1606 -67.3889C1092.1 756.797 -612.627 494.261 -995.221 1596.77L-1213.81 1404.19L748.365 -822.983L1606 -67.3889Z" fill="url(#paint0_radial_365_3636)"/>
<path style="mix-blend-mode:multiply" opacity="0.5" d="M1012.84 -377.353L1106.63 -294.724C1106.63 -294.724 942.616 302.354 91.9277 597.406C391.33 426.536 696.633 178.306 1012.84 -377.353Z" fill="url(#paint1_linear_365_3636)" fill-opacity="0.9"/>
<g style="mix-blend-mode:color-dodge">
<path d="M1010.32 -90.9993C1005.78 -84.6949 1001.41 -78.295 997.022 -71.9154C992.745 -65.4809 988.283 -59.1622 983.844 -52.8232L970.713 -33.7371L957.281 -14.8683L950.566 -5.43382L943.619 3.84421L929.727 22.4004C920.181 34.5829 910.589 46.7249 900.812 58.7044C861.406 106.452 818.912 151.666 773.977 194.074C729.088 236.57 682.034 276.737 632.682 313.522C626.63 318.3 620.372 322.755 614.137 327.231L595.432 340.704C589.173 345.159 583.007 349.789 576.657 354.07L557.561 366.871C532.344 384.437 505.911 399.62 480.969 417.942C508 403.8 534.067 387.592 559.514 370.276L578.725 357.53C585.121 353.243 591.311 348.633 597.615 344.219L616.436 330.8C622.74 326.339 629.021 321.904 635.096 317.146L671.91 289.019L707.896 259.694C719.792 249.769 731.32 239.425 743.055 229.312C748.945 224.298 754.628 219.009 760.311 213.72L777.361 197.851C822.39 155.104 864.931 109.605 904.362 61.551C914.139 49.4781 923.754 37.2632 933.3 25.034L947.216 6.35827L954.163 -2.96656L960.856 -12.4679L974.195 -31.5113C978.565 -37.9112 982.681 -44.4877 986.889 -50.9831C995.374 -63.9595 1002.87 -77.4825 1010.36 -90.9587L1010.32 -90.9993Z" fill="url(#paint2_linear_365_3636)"/>
</g>
<path style="mix-blend-mode:color-dodge" d="M-1313.13 1750.87C-550.239 432.361 198.769 1067.26 1022 -397.787L665.54 -711.836L-1424.8 1660.81L-1313.15 1750.85L-1313.13 1750.87Z" fill="url(#paint3_radial_365_3636)"/>
<g style="mix-blend-mode:color-dodge">
<path d="M-511.972 909.668C-452.715 876.694 -392.955 845.101 -332.76 814.499C-272.541 783.918 -211.888 754.515 -151.394 724.691C-30.4081 665.135 90.0793 602.894 204.669 528.67C261.976 491.639 317.766 451.821 371.464 409.036C425.185 366.272 476.79 320.566 526.115 272.431C575.417 224.276 622.416 173.671 667.226 121.276C711.805 68.6327 754.194 14.247 794.923 -41.2741C753.964 14.0906 711.367 68.2936 666.627 120.749C621.656 173.001 574.404 223.289 525.102 271.305C475.777 319.346 424.173 364.912 370.452 407.583C316.778 450.248 260.988 489.973 203.728 526.858C89.1853 600.843 -31.232 662.865 -152.287 722.22C-212.826 751.957 -273.526 781.272 -333.813 811.792C-394.078 842.286 -453.908 874.146 -511.972 909.714L-511.972 909.668Z" fill="url(#paint4_linear_365_3636)"/>
</g>
<path style="mix-blend-mode:color-dodge" d="M-1311.14 1644.69C-533.046 465.994 -40.5422 876.545 805.087 -429.673L572.37 -634.701L-1385.19 1587.22L-1311.12 1644.71L-1311.14 1644.69Z" fill="url(#paint5_radial_365_3636)"/>
<g style="mix-blend-mode:color-dodge">
<path d="M-978.144 1212.59C-901.317 1128.97 -819.652 1049.89 -732.994 977.171C-646.52 904.199 -555.1 837.924 -461.522 775.657C-367.989 713.255 -272.459 654.44 -178.443 592.745L-108.247 545.868L-38.9474 497.453L29.2033 447.183C51.4835 429.746 73.6947 412.247 95.1697 393.725C72.1308 410.027 49.8279 427.351 27.5941 444.736L-40.5101 494.906L-109.764 543.222L-179.936 589.979C-273.928 651.554 -369.528 710.309 -463.176 772.702C-556.869 834.961 -648.498 901.286 -735.18 974.309C-821.908 1047.29 -903.528 1126.74 -980.286 1210.61C-980.89 1211.3 -980.94 1212.28 -980.341 1212.86C-979.742 1213.39 -978.747 1213.28 -978.121 1212.61L-978.144 1212.59Z" fill="url(#paint6_linear_365_3636)"/>
</g>
<g style="mix-blend-mode:color-dodge">
<path d="M-45.1411 397.993C-36.0764 391.002 -27.0115 383.965 -18.0847 376.76L-4.65987 365.982L2.04097 360.559L8.53474 354.908L34.487 332.187L47.3826 320.709L59.9559 308.853L85.1025 285.189C93.4541 277.242 101.483 268.965 109.673 260.877L121.901 248.67L128.027 242.554L133.968 236.275L157.733 211.159C165.762 202.881 173.307 194.178 181.037 185.59C188.651 176.947 196.496 168.461 203.995 159.717C218.786 142.046 233.992 124.694 248.16 106.475C277.189 70.6453 304.42 33.419 330.474 -4.51604C356.62 -42.4166 380.921 -81.428 403.792 -121.185C426.639 -160.916 447.895 -201.488 467.326 -242.73C486.735 -283.993 504.134 -325.996 519.594 -368.491C527.208 -389.77 534.476 -411.12 540.913 -432.688C547.372 -454.236 553.277 -475.851 557.796 -497.752C557.984 -498.662 557.432 -499.476 556.554 -499.548C555.676 -499.619 554.795 -498.945 554.607 -498.034L554.583 -498.008C550.066 -476.387 544.045 -454.78 537.54 -433.367C531.035 -411.906 523.698 -390.663 516.038 -369.471C500.486 -327.151 482.833 -285.371 463.517 -244.261C444.179 -203.123 423.016 -162.704 400.239 -123.052C377.461 -83.4471 353.253 -44.4942 327.199 -6.69904C301.238 31.1306 274.1 68.2514 245.164 104.022C231.042 122.188 215.906 139.508 201.161 157.127C193.708 165.865 185.887 174.325 178.295 182.941C170.635 191.496 163.09 200.2 155.084 208.451L131.389 233.534L125.471 239.787L119.369 245.877L107.164 258.058C98.9968 266.12 90.9907 274.417 82.6856 282.311L57.6085 305.943L45.0585 317.772L32.186 329.224L6.6025 352.269C-10.5606 367.523 -28.0688 382.332 -45.0481 397.887L-45.1411 397.993Z" fill="url(#paint7_linear_365_3636)"/>
</g>
<g style="mix-blend-mode:color-dodge">
<path d="M82.9723 372.133C93.267 367.405 103.572 362.63 113.78 357.651L129.12 350.221L136.786 346.47L144.301 342.436L174.367 326.181L189.347 317.916L204.098 309.189L233.591 291.784C243.404 285.916 252.979 279.634 262.668 273.583L277.162 264.417L284.422 259.823L291.541 255.02L320.014 235.809C329.588 229.527 338.787 222.696 348.14 216.027C357.393 209.273 366.835 202.735 375.999 195.851C394.165 181.847 412.664 168.268 430.349 153.556C466.254 124.919 500.725 94.4258 534.214 62.9237C567.784 31.4797 599.812 -1.54548 630.62 -35.6804C661.399 -69.7948 690.822 -105.156 718.628 -141.65C746.416 -178.171 772.423 -215.942 796.661 -254.696C808.676 -274.135 820.37 -293.732 831.309 -313.758C842.265 -333.758 852.699 -353.965 861.855 -374.808C862.236 -375.675 861.88 -376.631 861.047 -376.925C860.213 -377.219 859.213 -376.764 858.832 -375.897L858.804 -375.877C849.71 -355.314 839.166 -335.144 828.195 -315.29C817.213 -295.39 805.475 -275.918 793.436 -256.579C769.147 -218.022 742.943 -180.54 715.279 -144.148C687.586 -107.736 658.286 -72.5045 627.591 -38.4519C596.907 -4.44612 564.981 28.5437 531.524 59.9054C498.148 91.3251 463.789 121.736 427.987 150.338C410.358 165.008 391.934 178.572 373.824 192.535C364.706 199.425 355.292 205.942 346.068 212.675C336.789 219.329 327.59 226.161 318.044 232.422L289.645 251.618L282.555 256.401L275.322 260.973L260.856 270.119C251.196 276.15 241.639 282.457 231.882 288.284L202.464 305.675L187.741 314.381L172.789 322.626L143.009 339.3C123.076 350.278 102.906 360.723 83.0853 372.051L82.9723 372.133Z" fill="url(#paint8_linear_365_3636)"/>
</g>
<path style="mix-blend-mode:color-dodge" d="M-583.238 1750.37C363.153 1968.82 1381.53 576.731 2432.17 1084.73L2450.27 793.965L-512.233 609.573L-583.238 1750.37Z" fill="url(#paint9_radial_365_3636)"/>
<path style="mix-blend-mode:multiply" opacity="0.5" d="M-383.631 1111.57L-391.396 1236.32C-391.396 1236.32 147.084 1542 956.849 1148.29C624.408 1239.51 233.042 1280.26 -383.631 1111.57Z" fill="url(#paint10_linear_365_3636)" fill-opacity="0.9"/>
<g style="mix-blend-mode:color-dodge">
<path d="M-179.162 1312.06C-171.499 1313.3 -163.882 1314.73 -156.264 1316.13C-148.688 1317.64 -141.063 1318.95 -133.441 1320.29L-110.656 1324.47L-87.8121 1328.3L-76.3903 1330.21L-64.9164 1331.84L-41.9684 1335.12C-26.6021 1336.97 -11.2319 1338.75 4.15355 1340.3C65.7863 1346.13 127.807 1347.99 189.566 1346.14C251.355 1344.39 313.025 1339.46 373.924 1330.51C381.58 1329.6 389.155 1328.32 396.727 1327.07L419.477 1323.35C427.051 1322.06 434.684 1320.97 442.2 1319.5L464.75 1315.02C494.996 1309.58 524.415 1301.6 555.003 1296.89C525.899 1306.03 496.013 1313.03 465.781 1318.81L443.188 1323.41C435.635 1324.91 428.001 1326.03 420.423 1327.37L397.63 1331.22C390.019 1332.53 382.443 1333.84 374.784 1334.78L328.869 1340.97L282.692 1345.73C267.264 1347.13 251.8 1347.99 236.351 1349.15C228.642 1349.78 220.884 1350.06 213.125 1350.35L189.849 1351.21C127.784 1352.88 65.5276 1350.86 3.66091 1344.82C-11.7908 1343.21 -27.2291 1341.39 -42.6286 1339.51L-65.6778 1336.17L-77.1851 1334.5L-88.638 1332.52L-111.54 1328.51C-119.157 1327.08 -126.719 1325.35 -134.289 1323.74C-149.469 1320.58 -164.334 1316.33 -179.166 1312.12L-179.162 1312.06Z" fill="url(#paint11_linear_365_3636)"/>
</g>
<path style="mix-blend-mode:color-dodge" d="M2765.81 968.562C1293.65 577.166 1213.95 1555.82 -404.565 1103.62L-375.053 629.463L2780.96 825.899L2765.82 968.531L2765.81 968.562Z" fill="url(#paint12_radial_365_3636)"/>
<g style="mix-blend-mode:color-dodge">
<path d="M1604.46 941.417C1539.27 960.068 1474.69 980.049 1410.51 1001.04C1346.32 1022.06 1282.67 1044.22 1218.82 1065.97C1091.21 1109.54 962.038 1150.86 828.556 1179.54C761.863 1193.94 694.269 1205.3 626.053 1213.09C557.836 1220.9 489.031 1225.14 420.118 1226.05C351.206 1226.93 282.186 1224.45 213.447 1219.16C144.695 1213.53 76.2559 1205.11 8.18629 1194.72C76.3081 1204.84 144.764 1212.98 213.497 1218.36C282.249 1223.44 351.223 1225.52 420.036 1224.54C488.883 1223.57 557.588 1219.23 625.74 1211.34C693.854 1203.49 761.382 1192.06 827.938 1177.59C961.218 1148.78 1090.18 1107.35 1217.71 1063.6C1281.52 1041.75 1345.15 1019.5 1409.34 998.383C1473.49 977.267 1538.3 957.423 1604.5 941.45L1604.46 941.417Z" fill="url(#paint13_linear_365_3636)"/>
</g>
<path style="mix-blend-mode:color-dodge" d="M2689.26 894.964C1305.31 613.093 1248 1251.71 -273.909 927.556L-254.642 618.003L2700.89 801.961L2689.25 894.994L2689.26 894.964Z" fill="url(#paint14_radial_365_3636)"/>
<g style="mix-blend-mode:color-dodge">
<path d="M912.525 910.406C901.173 911.884 889.789 913.329 878.383 914.558L861.271 916.447L852.699 917.359L844.112 917.963L809.697 920.283L792.463 921.303L775.19 921.828L740.676 922.91C729.152 923.209 717.622 923.045 706.111 923.128L688.833 923.161L680.177 923.176L671.536 922.946L636.971 922.025C625.44 921.861 613.95 921.054 602.411 920.459C590.915 919.743 579.367 919.301 567.88 918.433C544.924 916.419 521.901 914.924 498.996 912.083C453.13 907.321 407.545 900.299 362.289 891.943C316.993 883.678 272.213 873.321 227.917 861.425C183.656 849.531 139.923 835.916 97.0049 820.537C54.0883 805.127 12.067 787.772 -28.9325 768.696C-49.3731 759.055 -69.6192 749.117 -89.4322 738.438C-109.247 727.788 -128.718 716.699 -147.411 704.427C-148.189 703.918 -148.375 702.952 -147.806 702.28C-147.236 701.608 -146.136 701.461 -145.359 701.97L-145.323 701.973C-126.829 714.047 -107.282 725.049 -87.5297 735.571C-67.7442 746.126 -47.5256 755.939 -27.1144 765.486C13.8265 784.374 55.869 801.391 98.6123 816.76C141.391 832.131 184.949 845.704 229.105 857.591C273.229 869.445 317.901 879.826 363.057 888.083C408.173 896.43 453.617 903.443 499.377 908.23C522.211 911.067 545.163 912.588 568.048 914.597C579.498 915.494 591.011 915.934 602.473 916.647C613.939 917.268 625.43 918.076 636.925 918.238L671.418 919.184L680.024 919.412L688.646 919.395L705.888 919.361C717.364 919.275 728.893 919.469 740.347 919.167L774.788 918.11L792.026 917.583L809.225 916.561L843.609 914.732C866.53 913.358 889.379 911.427 912.384 910.397L912.525 910.406Z" fill="url(#paint15_linear_365_3636)"/>
</g>
<g style="mix-blend-mode:color-dodge">
<path d="M803.722 982.82C793.103 986.767 782.444 990.688 771.708 994.396L755.614 1000.01L747.544 1002.78L739.38 1005.25L706.636 1015.05L690.203 1019.82L673.606 1024.09L640.453 1032.67C629.367 1035.47 618.158 1037.81 607.03 1040.4L590.304 1044.18L581.924 1046.08L573.496 1047.72L539.784 1054.3C528.575 1056.64 517.241 1058.33 505.914 1060.24C494.597 1062.02 483.3 1064.08 471.954 1065.71C449.209 1068.67 426.53 1072.17 403.624 1074.3C357.991 1079.48 312.057 1082.34 266.103 1083.79C220.133 1085.34 174.132 1084.68 128.209 1082.38C82.3198 1080.07 36.5063 1075.91 -8.96711 1069.82C-54.4465 1063.69 -99.5524 1055.41 -144.106 1045.19C-166.351 1039.97 -188.484 1034.4 -210.385 1028C-232.28 1021.62 -253.954 1014.74 -275.176 1006.49C-276.058 1006.15 -276.484 1005.22 -276.103 1004.43C-275.722 1003.63 -274.694 1003.24 -273.811 1003.58L-273.777 1003.58C-252.798 1011.67 -231.073 1018.45 -209.27 1024.71C-187.427 1031 -165.353 1036.44 -143.16 1041.58C-98.711 1051.63 -53.6702 1059.56 -8.36925 1065.68C36.9662 1071.8 82.601 1075.95 128.387 1078.28C174.132 1080.58 220.035 1081.29 265.867 1079.76C311.683 1078.33 357.479 1075.49 403.015 1070.35C425.851 1068.24 448.467 1064.78 471.143 1061.82C482.461 1060.24 493.724 1058.18 505.005 1056.4C516.269 1054.54 527.603 1052.85 538.778 1050.52L572.427 1043.98L580.82 1042.34L589.166 1040.45L605.858 1036.67C616.951 1034.09 628.166 1031.78 639.183 1028.99L672.273 1020.45L688.836 1016.18L705.234 1011.42L738.072 1002.12C759.923 995.768 781.564 988.87 803.584 982.842L803.722 982.82Z" fill="url(#paint16_linear_365_3636)"/>
</g>
<path style="mix-blend-mode:color-dodge" d="M1076.13 1711.2C312.975 1280.3 -909.638 2150.96 -1691.36 1454.89L-1778.71 1688.51L733.403 2627.81L1076.13 1711.2Z" fill="url(#paint17_radial_365_3636)"/>
<g style="mix-blend-mode:color-dodge">
<path d="M640.405 1589.38C594.096 1588.2 547.838 1586.35 501.838 1586.97C455.824 1587.45 410.086 1589.55 364.581 1592.75C273.582 1599.2 183.683 1610.05 94.387 1622.64C-84.2038 1647.91 -260.531 1680.18 -439.559 1704.44C-529.054 1716.56 -619.274 1726.73 -710.523 1732.59C-801.753 1738.39 -894.12 1739.9 -987.138 1733.73C-1080.05 1727.53 -1173.75 1713.5 -1265.17 1688.1C-1310.87 1675.5 -1355.86 1659.75 -1399.56 1641.27C-1443.19 1622.6 -1485.49 1601 -1525.57 1576.39C-1443.74 1623.16 -1355.42 1659.66 -1264.38 1684.8C-1173.32 1710.09 -1079.97 1724.14 -987.291 1730.33C-894.518 1736.52 -802.327 1735.04 -711.243 1729.26C-620.111 1723.45 -529.998 1713.29 -440.552 1701.2C-261.62 1677.02 -85.3019 1644.78 93.4078 1619.55C182.764 1606.98 272.77 1596.12 363.897 1589.68C409.441 1586.47 455.268 1584.41 501.389 1583.91C547.485 1583.58 593.844 1583.98 640.435 1589.39L640.405 1589.38Z" fill="url(#paint18_linear_365_3636)"/>
</g>
<path style="mix-blend-mode:multiply" opacity="0.5" d="M746.218 2181.94L783.697 2081.71C783.697 2081.71 394.222 1687.79 -401.994 1795.23C-92.4859 1808.86 255.444 1879.56 746.218 2181.94Z" fill="url(#paint19_linear_365_3636)" fill-opacity="0.9"/>
<g style="mix-blend-mode:color-dodge">
<path d="M619.151 1963.14C612.843 1960.08 606.62 1956.88 600.387 1953.71C594.221 1950.45 587.961 1947.35 581.71 1944.23L563.072 1934.73L544.293 1925.52L534.904 1920.92L525.402 1916.52L506.398 1907.73C493.588 1902.13 480.759 1896.57 467.857 1891.22C416.088 1870.03 363.002 1852.01 309.228 1837.1C255.452 1822.1 200.994 1809.74 146.211 1800.87C139.377 1799.58 132.521 1798.62 125.675 1797.63L105.116 1794.63C98.2604 1793.67 91.4007 1792.54 84.5495 1791.74L63.9774 1789.41C36.5231 1785.83 9.1552 1784.55 -18.4142 1780.28C8.96757 1780.52 36.4958 1782.73 64.0217 1786.03L84.6604 1788.27C91.5506 1789.05 98.4193 1790.16 105.293 1791.08L125.919 1793.99C132.813 1794.94 139.678 1795.88 146.521 1797.14L187.687 1804.28L228.727 1812.67C242.394 1815.62 255.955 1819.03 269.579 1822.19C276.389 1823.72 283.158 1825.55 289.927 1827.38L310.233 1832.87C364.229 1848.01 417.476 1866.23 469.398 1887.64C482.342 1893.07 495.22 1898.67 508.051 1904.31L527.125 1913.18L536.648 1917.61L546.048 1922.28L564.831 1931.66C571.055 1934.86 577.156 1938.29 583.295 1941.62C595.619 1948.25 607.405 1955.69 619.17 1963.09L619.151 1963.14Z" fill="url(#paint20_linear_365_3636)"/>
</g>
<path style="mix-blend-mode:color-dodge" d="M-2008.06 1461.39C-833.657 2173.98 -523.423 1392.65 762.328 2194.03L619.88 2575L-2056.33 1574.35L-2008.07 1461.41L-2008.06 1461.39Z" fill="url(#paint21_radial_365_3636)"/>
<g style="mix-blend-mode:color-dodge">
<path d="M-1012.13 1792.6C-951.243 1794.65 -890.563 1795.44 -829.975 1795.3C-769.377 1795.13 -708.953 1793.9 -648.471 1793.04C-527.547 1791.27 -405.841 1791.75 -283.527 1803.74C-222.397 1809.67 -161.238 1818.33 -100.425 1830.09C-39.6027 1841.83 20.8441 1856.66 80.5639 1874.24C140.274 1891.85 199.249 1912.25 257.287 1934.88C315.253 1957.79 372.263 1982.89 428.466 2009.52C372.15 1983.1 315.058 1958.22 257.047 1935.52C198.945 1913.06 139.91 1893.01 80.2614 1875.51C20.5826 1857.99 -39.8028 1843.27 -100.584 1831.61C-161.326 1819.93 -222.444 1811.34 -283.474 1805.5C-405.646 1793.67 -527.201 1793.33 -648.091 1795.29C-708.572 1796.23 -768.994 1797.55 -829.619 1797.79C-890.214 1798.04 -951.066 1797.07 -1012.15 1792.56L-1012.13 1792.6Z" fill="url(#paint22_linear_365_3636)"/>
</g>
<path style="mix-blend-mode:color-dodge" d="M-1960.12 1542.11C-834.862 2141.41 -627.848 1632.97 606.094 2303.65L513.097 2552.37L-1993.11 1615.28L-1960.11 1542.08L-1960.12 1542.11Z" fill="url(#paint23_radial_365_3636)"/>
<g style="mix-blend-mode:color-dodge">
<path d="M-279.781 2046.86C-269.617 2048.67 -259.432 2050.51 -249.282 2052.54L-234.043 2055.54L-226.417 2057.07L-218.855 2058.86L-188.571 2066.11L-173.441 2069.86L-158.399 2074.03L-128.336 2082.32C-118.313 2085.14 -108.399 2088.34 -98.4409 2091.34L-83.5164 2095.91L-76.0395 2098.2L-68.636 2100.68L-39.0224 2110.63C-29.1082 2113.84 -19.3875 2117.56 -9.5725 2121.11C0.175911 2124.76 10.0369 2128.19 19.7392 2131.96C39.0611 2139.72 58.5692 2147.07 77.6424 2155.49C116.065 2171.6 153.688 2189.48 190.697 2208.37C227.763 2227.2 263.867 2247.61 299.175 2269.15C334.453 2290.67 368.849 2313.47 402.108 2337.5C435.358 2361.56 467.354 2386.97 498.045 2413.51C513.313 2426.86 528.34 2440.39 542.811 2454.42C557.291 2468.43 571.365 2482.7 584.476 2497.74C585.021 2498.36 584.944 2499.2 584.286 2499.6C583.629 2500 582.643 2499.83 582.098 2499.2L582.068 2499.19C569.08 2484.37 554.918 2470.15 540.461 2456.27C525.984 2442.35 510.949 2428.92 495.683 2415.66C464.997 2389.28 432.899 2364.14 399.789 2340.17C366.649 2316.19 332.392 2293.47 297.203 2271.97C262.035 2250.52 226.029 2230.12 189.081 2211.34C152.191 2192.49 114.688 2174.65 76.3634 2158.55C57.3496 2150.15 37.9101 2142.8 18.6476 2135.06C8.98421 2131.28 -0.847101 2127.86 -10.5658 2124.22C-20.3121 2120.66 -30.0329 2116.94 -39.9174 2113.75L-69.4621 2103.8L-76.8359 2101.32L-84.2832 2099.04L-99.178 2094.49C-109.106 2091.5 -119.011 2088.28 -128.974 2085.48L-158.969 2077.18L-173.982 2073.03L-189.082 2069.29L-219.218 2061.64C-239.345 2056.67 -259.548 2052.18 -279.662 2046.9L-279.781 2046.86Z" fill="url(#paint24_linear_365_3636)"/>
</g>
<g style="mix-blend-mode:color-dodge">
<path d="M-207.328 1920.81C-197.163 1922.62 -186.978 1924.47 -176.828 1926.49L-161.589 1929.5L-153.963 1931.03L-146.401 1932.82L-116.117 1940.07L-100.987 1943.82L-85.9453 1947.98L-55.8817 1956.28C-45.8591 1959.1 -35.9451 1962.3 -25.987 1965.29L-11.0625 1969.86L-3.58555 1972.15L3.81791 1974.64L33.4316 1984.59C43.3457 1987.79 53.0665 1991.51 62.8814 1995.07C72.6298 1998.71 82.4908 2002.15 92.1931 2005.92C111.515 2013.67 131.023 2021.02 150.096 2029.45C188.519 2045.55 226.142 2063.44 263.151 2082.33C300.217 2101.16 336.321 2121.56 371.629 2143.1C406.907 2164.63 441.303 2187.43 474.562 2211.46C507.811 2235.51 539.808 2260.92 570.499 2287.47C585.767 2300.81 600.794 2314.35 615.265 2328.38C629.744 2342.38 643.819 2356.65 656.93 2371.69C657.475 2372.32 657.398 2373.16 656.74 2373.56C656.083 2373.96 655.097 2373.78 654.551 2373.16L654.522 2373.15C641.533 2358.33 627.372 2344.11 612.915 2330.22C598.438 2316.3 583.403 2302.88 568.137 2289.62C537.451 2263.24 505.353 2238.1 472.243 2214.13C439.103 2190.14 404.846 2167.42 369.657 2145.93C334.489 2124.47 298.483 2104.07 261.535 2085.29C224.645 2066.44 187.142 2048.6 148.817 2032.51C129.803 2024.1 110.364 2016.75 91.1016 2009.02C81.4381 2005.23 71.6068 2001.81 61.8881 1998.18C52.1418 1994.62 42.421 1990.9 32.5366 1987.71L2.99178 1977.76L-4.38194 1975.28L-11.8293 1973L-26.7241 1968.44C-36.6525 1965.46 -46.5574 1962.23 -56.5205 1959.43L-86.5154 1951.14L-101.528 1946.98L-116.628 1943.25L-146.764 1935.6C-166.891 1930.63 -187.094 1926.13 -207.209 1920.86L-207.328 1920.81Z" fill="url(#paint25_linear_365_3636)"/>
</g>
</g>
<defs>
<radialGradient id="paint0_radial_365_3636" cx="0" cy="0" r="1" gradientUnits="userSpaceOnUse" gradientTransform="translate(-192.728 946.729) rotate(72.3692) scale(417.378 1548.36)">
<stop stop-color="#3B3B3B"/>
<stop offset="0.07" stop-color="#303030"/>
<stop offset="0.25" stop-color="#1B1B1B"/>
<stop offset="0.44" stop-color="#0B0B0B"/>
<stop offset="0.67" stop-color="#020202"/>
<stop offset="1"/>
</radialGradient>
<linearGradient id="paint1_linear_365_3636" x1="-405.481" y1="1336.86" x2="1154.86" y2="-394.604" gradientUnits="userSpaceOnUse">
<stop stop-color="#CABDB3"/>
<stop offset="0.18" stop-color="#CABDB3"/>
<stop offset="0.39" stop-color="#CABDB3"/>
<stop offset="0.59" stop-color="#CABDB3"/>
<stop offset="0.77" stop-color="#E5E0E9"/>
<stop offset="0.91" stop-color="#F8F6F9"/>
<stop offset="1" stop-color="white"/>
</linearGradient>
<linearGradient id="paint2_linear_365_3636" x1="510.453" y1="447.194" x2="997.446" y2="-105.567" gradientUnits="userSpaceOnUse">
<stop/>
<stop offset="0.26" stop-color="#DBDBDB"/>
<stop offset="0.5" stop-color="#595959"/>
<stop offset="0.7" stop-color="#E0E0E0"/>
<stop offset="1"/>
</linearGradient>
<radialGradient id="paint3_radial_365_3636" cx="0" cy="0" r="1" gradientUnits="userSpaceOnUse" gradientTransform="translate(259.928 1604.61) rotate(77.9564) scale(569.802 2767.22)">
<stop stop-color="#3B3B3B"/>
<stop offset="0.23" stop-color="#222222"/>
<stop offset="0.5"/>
</radialGradient>
<linearGradient id="paint4_linear_365_3636" x1="-376.553" y1="1031.17" x2="668.469" y2="-154.976" gradientUnits="userSpaceOnUse">
<stop/>
<stop offset="0.26" stop-color="#DBDBDB"/>
<stop offset="0.5" stop-color="#595959"/>
<stop offset="0.7" stop-color="#E0E0E0"/>
<stop offset="1"/>
</linearGradient>
<radialGradient id="paint5_radial_365_3636" cx="0" cy="0" r="1" gradientUnits="userSpaceOnUse" gradientTransform="translate(-433.401 1210.41) rotate(44.753) scale(255.934 2141.06)">
<stop stop-color="#3B3B3B"/>
<stop offset="0.13" stop-color="#373737"/>
<stop offset="0.26" stop-color="#2B2B2B"/>
<stop offset="0.39" stop-color="#171717"/>
<stop offset="0.5"/>
</radialGradient>
<linearGradient id="paint6_linear_365_3636" x1="-881.276" y1="1300.14" x2="-3.86331" y2="304.229" gradientUnits="userSpaceOnUse">
<stop/>
<stop offset="0.26" stop-color="#DBDBDB"/>
<stop offset="0.5" stop-color="#595959"/>
<stop offset="0.7" stop-color="#E0E0E0"/>
<stop offset="1"/>
</linearGradient>
<linearGradient id="paint7_linear_365_3636" x1="-88.9804" y1="362.224" x2="620.941" y2="-443.571" gradientUnits="userSpaceOnUse">
<stop/>
<stop offset="0.26" stop-color="#DBDBDB"/>
<stop offset="0.5" stop-color="#595959"/>
<stop offset="0.7" stop-color="#E0E0E0"/>
<stop offset="1"/>
</linearGradient>
<linearGradient id="paint8_linear_365_3636" x1="48.3879" y1="325.157" x2="930.548" y2="-275.913" gradientUnits="userSpaceOnUse">
<stop/>
<stop offset="0.26" stop-color="#DBDBDB"/>
<stop offset="0.5" stop-color="#595959"/>
<stop offset="0.7" stop-color="#E0E0E0"/>
<stop offset="1"/>
</linearGradient>
<radialGradient id="paint9_radial_365_3636" cx="0" cy="0" r="1" gradientUnits="userSpaceOnUse" gradientTransform="translate(1405.18 1193.56) rotate(62.5731) scale(417.378 1548.36)">
<stop stop-color="#3B3B3B"/>
<stop offset="0.07" stop-color="#303030"/>
<stop offset="0.25" stop-color="#1B1B1B"/>
<stop offset="0.44" stop-color="#0B0B0B"/>
<stop offset="0.67" stop-color="#020202"/>
<stop offset="1"/>
</radialGradient>
<linearGradient id="paint10_linear_365_3636" x1="1831.61" y1="1318.56" x2="-496.164" y2="1199.9" gradientUnits="userSpaceOnUse">
<stop stop-color="#CABDB3"/>
<stop offset="0.18" stop-color="#CABDB3"/>
<stop offset="0.39" stop-color="#CABDB3"/>
<stop offset="0.59" stop-color="#CABDB3"/>
<stop offset="0.77" stop-color="#E5E0E9"/>
<stop offset="0.91" stop-color="#F8F6F9"/>
<stop offset="1" stop-color="white"/>
</linearGradient>
<linearGradient id="paint11_linear_365_3636" x1="554.881" y1="1338.42" x2="-180.382" y2="1292.66" gradientUnits="userSpaceOnUse">
<stop/>
<stop offset="0.26" stop-color="#DBDBDB"/>
<stop offset="0.5" stop-color="#595959"/>
<stop offset="0.7" stop-color="#E0E0E0"/>
<stop offset="1"/>
</linearGradient>
<radialGradient id="paint12_radial_365_3636" cx="0" cy="0" r="1" gradientUnits="userSpaceOnUse" gradientTransform="translate(1551.09 1978.68) rotate(56.9859) scale(569.802 2767.22)">
<stop stop-color="#3B3B3B"/>
<stop offset="0.23" stop-color="#222222"/>
<stop offset="0.5"/>
</radialGradient>
<linearGradient id="paint13_linear_365_3636" x1="1594.81" y1="1123.1" x2="17.0325" y2="1024.9" gradientUnits="userSpaceOnUse">
<stop/>
<stop offset="0.26" stop-color="#DBDBDB"/>
<stop offset="0.5" stop-color="#595959"/>
<stop offset="0.7" stop-color="#E0E0E0"/>
<stop offset="1"/>
</linearGradient>
<radialGradient id="paint14_radial_365_3636" cx="0" cy="0" r="1" gradientUnits="userSpaceOnUse" gradientTransform="translate(1761.83 1209.47) rotate(90.1893) scale(255.934 2141.06)">
<stop stop-color="#3B3B3B"/>
<stop offset="0.13" stop-color="#373737"/>
<stop offset="0.26" stop-color="#2B2B2B"/>
<stop offset="0.39" stop-color="#171717"/>
<stop offset="0.5"/>
</radialGradient>
<linearGradient id="paint15_linear_365_3636" x1="918.175" y1="854.109" x2="-153.666" y2="787.395" gradientUnits="userSpaceOnUse">
<stop/>
<stop offset="0.26" stop-color="#DBDBDB"/>
<stop offset="0.5" stop-color="#595959"/>
<stop offset="0.7" stop-color="#E0E0E0"/>
<stop offset="1"/>
</linearGradient>
<linearGradient id="paint16_linear_365_3636" x1="794.902" y1="925.157" x2="-253.7" y2="1124.97" gradientUnits="userSpaceOnUse">
<stop/>
<stop offset="0.26" stop-color="#DBDBDB"/>
<stop offset="0.5" stop-color="#595959"/>
<stop offset="0.7" stop-color="#E0E0E0"/>
<stop offset="1"/>
</linearGradient>
<radialGradient id="paint17_radial_365_3636" cx="0" cy="0" r="1" gradientUnits="userSpaceOnUse" gradientTransform="translate(-777.888 1638.84) rotate(-101.867) scale(362.69 1378.4)">
<stop stop-color="#3B3B3B"/>
<stop offset="0.07" stop-color="#303030"/>
<stop offset="0.25" stop-color="#1B1B1B"/>
<stop offset="0.44" stop-color="#0B0B0B"/>
<stop offset="0.67" stop-color="#020202"/>
<stop offset="1"/>
</radialGradient>
<linearGradient id="paint18_linear_365_3636" x1="-1399.91" y1="1234.33" x2="508.545" y2="1947.92" gradientUnits="userSpaceOnUse">
<stop/>
<stop offset="0.26" stop-color="#DBDBDB"/>
<stop offset="0.5" stop-color="#595959"/>
<stop offset="0.7" stop-color="#E0E0E0"/>
<stop offset="1"/>
</linearGradient>
<linearGradient id="paint19_linear_365_3636" x1="-1115.2" y1="1422.9" x2="866.027" y2="2137.04" gradientUnits="userSpaceOnUse">
<stop stop-color="#CABDB3"/>
<stop offset="0.18" stop-color="#CABDB3"/>
<stop offset="0.39" stop-color="#CABDB3"/>
<stop offset="0.59" stop-color="#CABDB3"/>
<stop offset="0.77" stop-color="#E5E0E9"/>
<stop offset="0.91" stop-color="#F8F6F9"/>
<stop offset="1" stop-color="white"/>
</linearGradient>
<linearGradient id="paint20_linear_365_3636" x1="-8.06306" y1="1746.25" x2="615.419" y2="1979.37" gradientUnits="userSpaceOnUse">
<stop/>
<stop offset="0.26" stop-color="#DBDBDB"/>
<stop offset="0.5" stop-color="#595959"/>
<stop offset="0.7" stop-color="#E0E0E0"/>
<stop offset="1"/>
</linearGradient>
<radialGradient id="paint21_radial_365_3636" cx="0" cy="0" r="1" gradientUnits="userSpaceOnUse" gradientTransform="translate(-710.169 956.194) rotate(-107.563) scale(497.597 2451.31)">
<stop stop-color="#3B3B3B"/>
<stop offset="0.23" stop-color="#222222"/>
<stop offset="0.5"/>
</radialGradient>
<linearGradient id="paint22_linear_365_3636" x1="-958.976" y1="1646.18" x2="378.934" y2="2146.43" gradientUnits="userSpaceOnUse">
<stop/>
<stop offset="0.26" stop-color="#DBDBDB"/>
<stop offset="0.5" stop-color="#595959"/>
<stop offset="0.7" stop-color="#E0E0E0"/>
<stop offset="1"/>
</linearGradient>
<radialGradient id="paint23_radial_365_3636" cx="0" cy="0" r="1" gradientUnits="userSpaceOnUse" gradientTransform="translate(-1081.87 1530.91) rotate(-73.0574) scale(219.162 1934.2)">
<stop stop-color="#3B3B3B"/>
<stop offset="0.13" stop-color="#373737"/>
<stop offset="0.26" stop-color="#2B2B2B"/>
<stop offset="0.39" stop-color="#171717"/>
<stop offset="0.5"/>
</radialGradient>
<linearGradient id="paint24_linear_365_3636" x1="-298.547" y1="2091.52" x2="610.343" y2="2431.36" gradientUnits="userSpaceOnUse">
<stop/>
<stop offset="0.26" stop-color="#DBDBDB"/>
<stop offset="0.5" stop-color="#595959"/>
<stop offset="0.7" stop-color="#E0E0E0"/>
<stop offset="1"/>
</linearGradient>
<linearGradient id="paint25_linear_365_3636" x1="-226.094" y1="1965.48" x2="682.797" y2="2305.32" gradientUnits="userSpaceOnUse">
<stop/>
<stop offset="0.26" stop-color="#DBDBDB"/>
<stop offset="0.5" stop-color="#595959"/>
<stop offset="0.7" stop-color="#E0E0E0"/>
<stop offset="1"/>
</linearGradient>
<clipPath id="clip0_365_3636">
<rect width="575" height="2200" fill="white"/>
</clipPath>
</defs>
</svg>
