<svg width="1920" height="1533" viewBox="0 0 1920 1533" fill="none" xmlns="http://www.w3.org/2000/svg">
<g clip-path="url(#clip0_295_5473)">
<rect width="1920" height="1533" fill="#EDE2D9"/>
<path style="mix-blend-mode:color-dodge" d="M2461.67 573.169C1600.32 411.442 723.86 1629.9 -240.593 1223.16L-247.927 1472.47L2432.89 1551.33L2461.67 573.169Z" fill="url(#paint0_radial_295_5473)"/>
<g style="mix-blend-mode:color-dodge">
<path d="M2009.94 598.392C1965.72 612.217 1921.34 625.379 1878 640.807C1834.6 656.103 1791.98 672.841 1749.94 690.544C1665.89 726.003 1584.29 765.269 1503.83 805.99C1342.93 887.51 1186.43 974.92 1024.8 1055.63C943.998 1095.97 861.879 1134.7 777.395 1169.67C692.913 1204.59 605.968 1235.81 515.929 1259.96C425.987 1284.07 332.765 1301 238.039 1306.45C190.721 1309.27 143.053 1308.86 95.7268 1305.47C48.407 1301.87 1.40359 1295.07 -44.479 1284.7C48.069 1302.57 143.44 1308.64 237.725 1303.07C332.07 1297.64 424.972 1280.83 514.689 1256.8C604.503 1232.74 691.287 1201.6 775.64 1166.75C860.026 1131.85 942.048 1093.18 1022.82 1052.89C1184.38 972.282 1340.88 884.898 1501.9 803.382C1582.43 762.663 1664.12 723.347 1748.3 687.866C1790.38 670.137 1833.09 653.401 1876.59 638.056C1920.11 622.87 1964.12 608.303 2009.97 598.393L2009.94 598.392Z" fill="url(#paint1_linear_295_5473)"/>
</g>
<path style="mix-blend-mode:multiply" opacity="0.5" d="M2301.22 1125.16L2304.36 1018.2C2304.36 1018.2 1808.65 770.948 1089.64 1129.45C1387 1042.53 1739.14 997.228 2301.22 1125.16Z" fill="url(#paint2_linear_295_5473)" fill-opacity="0.9"/>
<g style="mix-blend-mode:color-dodge">
<path d="M2110.37 959.037C2103.41 958.175 2096.49 957.156 2089.57 956.163C2082.68 955.066 2075.75 954.152 2068.83 953.212L2048.12 950.235L2027.38 947.573L2017.01 946.242L2006.59 945.147L1985.77 942.956C1971.84 941.783 1957.9 940.663 1943.96 939.753C1888.13 936.401 1832.07 936.462 1776.36 939.689C1720.62 942.837 1665.08 948.7 1610.37 957.981C1603.48 958.962 1596.68 960.262 1589.88 961.535L1569.46 965.327C1562.66 966.626 1555.8 967.766 1549.06 969.225L1528.83 973.654C1501.69 979.116 1475.37 986.733 1447.9 991.581C1473.89 982.981 1500.66 976.192 1527.78 970.44L1548.04 965.907C1554.82 964.423 1561.68 963.257 1568.48 961.905L1588.94 958.008C1595.77 956.684 1602.57 955.358 1609.46 954.351L1650.73 947.831L1692.28 942.53C1706.17 940.913 1720.1 939.771 1734.02 938.365C1740.96 937.622 1747.96 937.17 1754.95 936.719L1775.94 935.363C1831.94 932.275 1888.22 932.353 1944.27 935.869C1958.27 936.833 1972.27 937.982 1986.23 939.182L2007.15 941.428L2017.59 942.55L2027.99 943.935L2048.8 946.756C2055.72 947.776 2062.6 949.056 2069.49 950.232C2083.29 952.532 2096.85 955.772 2110.37 958.984L2110.37 959.037Z" fill="url(#paint3_linear_295_5473)"/>
</g>
<path style="mix-blend-mode:color-dodge" d="M-538.27 1331.46C803.204 1627.18 844.854 787.553 2320.36 1131.41L2308.41 1537.96L-547.524 1453.96L-538.271 1331.49L-538.27 1331.46Z" fill="url(#paint4_radial_295_5473)"/>
<g style="mix-blend-mode:color-dodge">
<path d="M511.26 1323.75C569.555 1306.05 627.248 1287.23 684.553 1267.56C741.86 1247.86 798.655 1227.19 855.63 1206.88C969.518 1166.19 1084.87 1127.4 1204.52 1099.3C1264.3 1085.19 1324.98 1073.67 1386.34 1065.19C1447.7 1056.68 1509.69 1051.22 1571.89 1048.6C1634.09 1046.01 1696.49 1046.3 1758.73 1049C1820.99 1051.98 1883.05 1057.36 1944.83 1064.44C1883.01 1057.6 1820.94 1052.46 1758.71 1049.68C1696.47 1047.16 1634.12 1047.22 1572.01 1049.9C1509.88 1052.57 1447.97 1058.11 1386.67 1066.67C1325.41 1075.21 1264.79 1086.79 1205.14 1100.95C1085.68 1129.16 970.511 1168.04 856.714 1208.88C799.768 1229.28 743.002 1250.02 685.694 1269.8C628.417 1289.58 570.505 1308.29 511.229 1323.72L511.26 1323.75Z" fill="url(#paint5_linear_295_5473)"/>
</g>
<path style="mix-blend-mode:color-dodge" d="M-466.86 1392.41C791.561 1596.75 823.522 1048.71 2207.84 1285.56L2200.03 1550.98L-474.48 1472.31L-466.859 1392.38L-466.86 1392.41Z" fill="url(#paint6_radial_295_5473)"/>
<g style="mix-blend-mode:color-dodge">
<path d="M23.8794 1437.49C126.479 1438.48 229.055 1433.79 330.5 1422.26C432 1410.99 532.119 1392.7 630.918 1370.72C729.778 1348.85 827.498 1323.63 926.188 1301.05L1000.41 1284.66L1075.1 1269.73L1150.31 1256.61C1175.56 1252.91 1200.81 1249.28 1226.28 1246.72C1201.31 1251.56 1176.12 1255.34 1150.93 1259.05L1075.82 1272.2L1001.23 1287.16L927.097 1303.6C828.501 1326.24 730.778 1351.54 631.853 1373.49C532.987 1395.54 432.707 1413.93 331.045 1425.3C229.382 1436.72 126.59 1441.17 23.8694 1439.99C23.0447 1439.96 22.3625 1439.42 22.3516 1438.71C22.3717 1438.02 23.0547 1437.47 23.8801 1437.46L23.8794 1437.49Z" fill="url(#paint7_linear_295_5473)"/>
</g>
<g style="mix-blend-mode:color-dodge">
<path d="M1286.48 1328.22C1296.68 1326.65 1306.92 1325.11 1317.18 1323.75L1332.57 1321.68L1340.29 1320.67L1348.02 1319.93L1379.03 1317.03L1394.56 1315.69L1410.14 1314.78L1441.27 1312.94C1451.67 1312.38 1462.08 1312.21 1472.47 1311.83L1488.08 1311.34L1495.89 1311.1L1503.7 1311.06L1534.94 1310.93C1545.36 1310.76 1555.76 1311.15 1566.2 1311.35C1576.6 1311.66 1587.04 1311.73 1597.44 1312.17C1618.23 1313.28 1639.07 1313.94 1659.84 1315.76C1701.4 1318.62 1742.78 1323.41 1783.91 1329.36C1825.07 1335.22 1865.82 1342.89 1906.19 1351.89C1946.53 1360.89 1986.44 1371.38 2025.67 1383.39C2064.9 1395.44 2103.38 1409.17 2141 1424.4C2159.75 1432.11 2178.34 1440.07 2196.56 1448.69C2214.79 1457.27 2232.71 1466.24 2249.97 1476.25C2250.69 1476.66 2250.89 1477.48 2250.39 1478.07C2249.9 1478.66 2248.91 1478.82 2248.19 1478.4L2248.16 1478.4C2231.09 1468.56 2213.1 1459.67 2194.93 1451.19C2176.74 1442.68 2158.18 1434.83 2139.45 1427.2C2101.9 1412.13 2063.41 1398.68 2024.34 1386.67C1985.23 1374.66 1945.48 1364.2 1905.24 1355.2C1865.03 1346.24 1824.37 1338.54 1783.33 1332.68C1742.34 1326.74 1701.08 1321.95 1659.62 1319.07C1638.91 1317.25 1618.14 1316.56 1597.41 1315.45C1587.04 1314.99 1576.63 1314.92 1566.26 1314.61C1555.89 1314.39 1545.49 1314 1535.1 1314.17L1503.92 1314.28L1496.15 1314.31L1488.36 1314.56L1472.79 1315.05C1462.43 1315.43 1452.02 1315.57 1441.68 1316.13L1410.62 1317.95L1395.07 1318.86L1379.57 1320.2L1348.58 1322.68C1327.92 1324.47 1307.35 1326.73 1286.61 1328.22L1286.48 1328.22Z" fill="url(#paint8_linear_295_5473)"/>
</g>
<g style="mix-blend-mode:color-dodge">
<path d="M1314.41 1185.54C1324.61 1183.97 1334.85 1182.43 1345.11 1181.08L1360.5 1179L1368.21 1177.99L1375.95 1177.25L1406.95 1174.35L1422.48 1173.01L1438.07 1172.1L1469.2 1170.26C1479.59 1169.7 1490.01 1169.53 1500.4 1169.15L1516 1168.66L1523.82 1168.42L1531.63 1168.39L1562.87 1168.25C1573.29 1168.08 1583.69 1168.47 1594.13 1168.67C1604.53 1168.98 1614.97 1169.05 1625.37 1169.49C1646.16 1170.6 1667 1171.26 1687.77 1173.08C1729.33 1175.94 1770.71 1180.73 1811.84 1186.68C1853 1192.54 1893.75 1200.21 1934.12 1209.21C1974.45 1218.21 2014.37 1228.7 2053.6 1240.72C2092.83 1252.76 2131.31 1266.49 2168.92 1281.72C2187.68 1289.43 2206.27 1297.39 2224.49 1306.01C2242.71 1314.59 2260.64 1323.56 2277.9 1333.57C2278.62 1333.98 2278.82 1334.8 2278.32 1335.39C2277.83 1335.98 2276.84 1336.14 2276.12 1335.72L2276.09 1335.72C2259.02 1325.88 2241.03 1316.99 2222.86 1308.51C2204.67 1300 2186.11 1292.15 2167.38 1284.52C2129.83 1269.45 2091.34 1256 2052.26 1243.99C2013.16 1231.98 1973.41 1221.52 1933.16 1212.53C1892.95 1203.56 1852.29 1195.86 1811.26 1190C1770.27 1184.06 1729.01 1179.27 1687.54 1176.39C1666.84 1174.57 1646.06 1173.88 1625.34 1172.77C1614.97 1172.31 1604.56 1172.24 1594.19 1171.94C1583.81 1171.71 1573.41 1171.32 1563.03 1171.49L1531.85 1171.6L1524.07 1171.64L1516.29 1171.88L1500.72 1172.37C1490.36 1172.75 1479.94 1172.89 1469.61 1173.45L1438.54 1175.27L1422.99 1176.18L1407.5 1177.52L1376.5 1180C1355.85 1181.79 1335.28 1184.05 1314.53 1185.54L1314.41 1185.54Z" fill="url(#paint9_linear_295_5473)"/>
</g>
<path style="mix-blend-mode:multiply" opacity="0.65" d="M-234.681 1022.19L-240.593 1223.16C62.4229 1350.95 356.731 1318.31 644.635 1218.45C543.887 1248.4 81.7036 1309.53 -234.681 1022.19Z" fill="url(#paint10_linear_295_5473)" fill-opacity="0.9"/>
<path style="mix-blend-mode:color-dodge" d="M-722.238 1008.37C224.153 1226.82 1242.53 -165.269 2293.17 342.728L2311.27 51.9648L-651.233 -132.427L-722.238 1008.37Z" fill="url(#paint11_radial_295_5473)"/>
<path style="mix-blend-mode:multiply" opacity="0.5" d="M-522.631 369.567L-530.396 494.319C-530.396 494.319 8.08439 800.001 817.849 406.291C485.408 497.512 94.0418 538.263 -522.631 369.567Z" fill="url(#paint12_linear_295_5473)" fill-opacity="0.9"/>
<g style="mix-blend-mode:color-dodge">
<path d="M-318.162 570.056C-310.499 571.302 -302.882 572.73 -295.264 574.127C-287.688 575.645 -280.063 576.95 -272.441 578.286L-249.656 582.474L-226.812 586.296L-215.39 588.207L-203.916 589.844L-180.968 593.119C-165.602 594.967 -150.232 596.755 -134.846 598.297C-73.2137 604.133 -11.1928 605.993 50.5665 604.145C112.355 602.391 174.025 597.459 234.924 588.511C242.58 587.603 250.155 586.32 257.727 585.068L280.477 581.346C288.051 580.063 295.684 578.969 303.2 577.498L325.75 573.025C355.996 567.584 385.415 559.599 416.003 554.887C386.899 564.03 357.013 571.032 326.781 576.812L304.188 581.406C296.635 582.905 289.001 584.03 281.423 585.374L258.63 589.217C251.019 590.528 243.442 591.841 235.784 592.78L189.869 598.969L143.692 603.726C128.264 605.135 112.8 605.988 97.3514 607.149C89.642 607.777 81.8836 608.063 74.1251 608.35L50.8493 609.209C-11.2158 610.884 -73.4724 608.856 -135.339 602.82C-150.791 601.212 -166.229 599.39 -181.629 597.508L-204.678 594.166L-216.185 592.496L-227.638 590.521L-250.54 586.511C-258.157 585.083 -265.719 583.351 -273.289 581.741C-288.469 578.581 -303.334 574.333 -318.166 570.117L-318.162 570.056Z" fill="url(#paint13_linear_295_5473)"/>
</g>
<path style="mix-blend-mode:color-dodge" d="M2626.81 226.562C1154.65 -164.834 1074.95 813.815 -543.565 361.615L-514.053 -112.537L2641.96 83.8986L2626.82 226.531L2626.81 226.562Z" fill="url(#paint14_radial_295_5473)"/>
<g style="mix-blend-mode:color-dodge">
<path d="M1465.46 199.417C1400.27 218.068 1335.69 238.049 1271.51 259.04C1207.32 280.062 1143.67 302.224 1079.82 323.974C952.206 367.541 823.038 408.857 689.556 437.535C622.863 451.939 555.269 463.301 487.053 471.087C418.836 478.903 350.031 483.144 281.118 484.055C212.206 484.935 143.186 482.455 74.4474 477.161C5.69473 471.527 -62.7441 463.114 -130.814 452.723C-62.6919 462.84 5.76417 470.978 74.497 476.364C143.249 481.443 212.223 483.521 281.036 482.542C349.883 481.565 418.588 477.226 486.74 469.344C554.854 461.491 622.382 450.063 688.938 435.589C822.218 406.775 951.18 365.354 1078.71 321.597C1142.52 299.752 1206.15 277.496 1270.34 256.383C1334.49 235.267 1399.3 215.423 1465.5 199.45L1465.46 199.417Z" fill="url(#paint15_linear_295_5473)"/>
</g>
<path style="mix-blend-mode:color-dodge" d="M2550.26 152.964C1166.31 -128.907 1109 509.707 -412.909 185.556L-393.642 -123.997L2561.89 59.9605L2550.25 152.994L2550.26 152.964Z" fill="url(#paint16_radial_295_5473)"/>
<g style="mix-blend-mode:color-dodge">
<path d="M2009.18 83.4368C1895.72 78.7441 1782.06 80.6854 1669.37 90.657C1556.64 100.318 1445.15 118.21 1334.97 140.462C1224.73 162.586 1115.62 188.657 1005.54 211.622L922.771 228.195L839.549 243.047L755.826 255.775C727.744 259.227 699.668 262.588 671.389 264.704C699.202 259.912 727.219 256.364 755.23 252.907L838.85 240.141L921.969 225.252L1004.63 208.612C1114.61 185.579 1223.73 159.416 1334.05 137.204C1444.3 114.865 1555.97 96.8608 1668.89 87.0883C1781.81 77.2546 1895.7 75.6047 2009.29 80.5207C2010.2 80.5774 2010.94 81.2383 2010.92 82.0681C2010.87 82.865 2010.09 83.4935 2009.18 83.4675L2009.18 83.4368Z" fill="url(#paint17_linear_295_5473)"/>
</g>
<g style="mix-blend-mode:color-dodge">
<path d="M773.525 168.406C762.173 169.884 750.789 171.329 739.383 172.558L722.271 174.447L713.699 175.359L705.112 175.963L670.697 178.283L653.463 179.303L636.19 179.828L601.676 180.91C590.152 181.209 578.622 181.045 567.111 181.128L549.833 181.161L541.177 181.176L532.536 180.946L497.971 180.025C486.44 179.861 474.95 179.054 463.411 178.459C451.915 177.743 440.367 177.301 428.88 176.433C405.924 174.419 382.901 172.924 359.996 170.083C314.13 165.321 268.545 158.299 223.289 149.943C177.993 141.678 133.213 131.321 88.917 119.425C44.6556 107.531 0.923412 93.9164 -41.9951 78.5369C-84.9116 63.1267 -126.933 45.7721 -167.933 26.6965C-188.373 17.0547 -208.619 7.11725 -228.432 -3.56248C-248.247 -14.2116 -267.718 -25.3008 -286.411 -37.5725C-287.189 -38.0825 -287.375 -39.0479 -286.806 -39.7202C-286.236 -40.3925 -285.136 -40.5395 -284.359 -40.0295L-284.323 -40.0274C-265.829 -27.9527 -246.282 -16.951 -226.53 -6.42892C-206.744 4.12604 -186.526 13.9387 -166.114 23.4864C-125.173 42.3738 -83.131 59.3912 -40.3877 74.7598C2.39055 90.1306 45.9492 103.704 90.1055 115.591C134.229 127.445 178.901 137.826 224.057 146.083C269.173 154.43 314.617 161.443 360.377 166.23C383.211 169.067 406.163 170.588 429.048 172.597C440.498 173.494 452.011 173.934 463.473 174.647C474.939 175.268 486.43 176.076 497.925 176.238L532.418 177.184L541.024 177.412L549.646 177.395L566.888 177.361C578.364 177.275 589.893 177.469 601.347 177.167L635.788 176.11L653.026 175.583L670.225 174.561L704.609 172.732C727.53 171.358 750.379 169.427 773.384 168.397L773.525 168.406Z" fill="url(#paint18_linear_295_5473)"/>
</g>
<g style="mix-blend-mode:color-dodge">
<path d="M664.722 240.82C654.103 244.767 643.444 248.688 632.708 252.396L616.614 258.006L608.544 260.782L600.38 263.252L567.636 273.051L551.203 277.815L534.606 282.092L501.453 290.672C490.367 293.473 479.158 295.813 468.03 298.396L451.304 302.18L442.924 304.075L434.496 305.721L400.784 312.304C389.575 314.643 378.241 316.329 366.914 318.238C355.597 320.017 344.3 322.082 332.954 323.705C310.209 326.671 287.53 330.173 264.624 332.298C218.991 337.484 173.057 340.343 127.103 341.794C81.1329 343.343 35.1325 342.685 -10.7911 340.378C-56.6801 338.066 -102.494 333.914 -147.967 327.816C-193.446 321.687 -238.552 313.414 -283.106 303.194C-305.351 297.967 -327.484 292.401 -349.385 285.997C-371.28 279.625 -392.954 272.736 -414.176 264.493C-415.058 264.151 -415.484 263.223 -415.103 262.426C-414.722 261.628 -413.694 261.242 -412.811 261.584L-412.777 261.579C-391.798 269.667 -370.073 276.452 -348.27 282.711C-326.427 288.995 -304.353 294.442 -282.16 299.581C-237.711 309.625 -192.67 317.555 -147.369 323.68C-102.034 329.8 -56.3989 333.948 -10.6134 336.277C35.1318 338.579 81.0348 339.285 126.867 337.757C172.683 336.328 218.479 333.491 264.015 328.353C286.851 326.238 309.467 322.779 332.143 319.823C343.461 318.236 354.724 316.177 366.005 314.404C377.269 312.536 388.603 310.851 399.778 308.517L433.427 301.976L441.82 300.336L450.166 298.446L466.858 294.667C477.951 292.09 489.166 289.781 500.183 286.991L533.273 278.453L549.836 274.181L566.234 269.422L599.072 260.122C620.923 253.768 642.564 246.87 664.584 240.842L664.722 240.82Z" fill="url(#paint19_linear_295_5473)"/>
</g>
<path style="mix-blend-mode:multiply" opacity="0.65" d="M2278.58 577.119L2293.17 342.725C1963.08 183.127 1636.19 211.091 1313.7 317.732C1426.35 286.249 1940.09 230.806 2278.58 577.119Z" fill="url(#paint20_linear_295_5473)" fill-opacity="0.9"/>
</g>
<defs>
<radialGradient id="paint0_radial_295_5473" cx="0" cy="0" r="1" gradientUnits="userSpaceOnUse" gradientTransform="translate(683.393 1102.66) rotate(-120.683) scale(362.69 1378.4)">
<stop stop-color="#3B3B3B"/>
<stop offset="0.07" stop-color="#303030"/>
<stop offset="0.25" stop-color="#1B1B1B"/>
<stop offset="0.44" stop-color="#0B0B0B"/>
<stop offset="0.67" stop-color="#020202"/>
<stop offset="1"/>
</radialGradient>
<linearGradient id="paint1_linear_295_5473" x1="-35.8579" y1="920.395" x2="2000.77" y2="980.304" gradientUnits="userSpaceOnUse">
<stop/>
<stop offset="0.26" stop-color="#DBDBDB"/>
<stop offset="0.5" stop-color="#595959"/>
<stop offset="0.7" stop-color="#E0E0E0"/>
<stop offset="1"/>
</linearGradient>
<linearGradient id="paint2_linear_295_5473" x1="294.463" y1="1007.05" x2="2400.14" y2="1044.02" gradientUnits="userSpaceOnUse">
<stop stop-color="#CABDB3"/>
<stop offset="0.18" stop-color="#CABDB3"/>
<stop offset="0.39" stop-color="#CABDB3"/>
<stop offset="0.59" stop-color="#CABDB3"/>
<stop offset="0.77" stop-color="#E5E0E9"/>
<stop offset="0.91" stop-color="#F8F6F9"/>
<stop offset="1" stop-color="white"/>
</linearGradient>
<linearGradient id="paint3_linear_295_5473" x1="1446.72" y1="956.035" x2="2112.07" y2="975.606" gradientUnits="userSpaceOnUse">
<stop/>
<stop offset="0.26" stop-color="#DBDBDB"/>
<stop offset="0.5" stop-color="#595959"/>
<stop offset="0.7" stop-color="#E0E0E0"/>
<stop offset="1"/>
</linearGradient>
<radialGradient id="paint4_radial_295_5473" cx="0" cy="0" r="1" gradientUnits="userSpaceOnUse" gradientTransform="translate(527.317 434.654) rotate(-126.379) scale(497.597 2451.31)">
<stop stop-color="#3B3B3B"/>
<stop offset="0.23" stop-color="#222222"/>
<stop offset="0.5"/>
</radialGradient>
<linearGradient id="paint5_linear_295_5473" x1="514.349" y1="1168.01" x2="1942.11" y2="1210.01" gradientUnits="userSpaceOnUse">
<stop/>
<stop offset="0.26" stop-color="#DBDBDB"/>
<stop offset="0.5" stop-color="#595959"/>
<stop offset="0.7" stop-color="#E0E0E0"/>
<stop offset="1"/>
</linearGradient>
<radialGradient id="paint6_radial_295_5473" cx="0" cy="0" r="1" gradientUnits="userSpaceOnUse" gradientTransform="translate(360.848 1098.55) rotate(-91.8737) scale(219.162 1934.2)">
<stop stop-color="#3B3B3B"/>
<stop offset="0.13" stop-color="#373737"/>
<stop offset="0.26" stop-color="#2B2B2B"/>
<stop offset="0.39" stop-color="#171717"/>
<stop offset="0.5"/>
</radialGradient>
<linearGradient id="paint7_linear_295_5473" x1="25.6752" y1="1325.72" x2="1224.44" y2="1360.98" gradientUnits="userSpaceOnUse">
<stop/>
<stop offset="0.26" stop-color="#DBDBDB"/>
<stop offset="0.5" stop-color="#595959"/>
<stop offset="0.7" stop-color="#E0E0E0"/>
<stop offset="1"/>
</linearGradient>
<linearGradient id="paint8_linear_295_5473" x1="1283.12" y1="1376.55" x2="2253.05" y2="1405.08" gradientUnits="userSpaceOnUse">
<stop/>
<stop offset="0.26" stop-color="#DBDBDB"/>
<stop offset="0.5" stop-color="#595959"/>
<stop offset="0.7" stop-color="#E0E0E0"/>
<stop offset="1"/>
</linearGradient>
<linearGradient id="paint9_linear_295_5473" x1="1311.05" y1="1233.87" x2="2280.98" y2="1262.4" gradientUnits="userSpaceOnUse">
<stop/>
<stop offset="0.26" stop-color="#DBDBDB"/>
<stop offset="0.5" stop-color="#595959"/>
<stop offset="0.7" stop-color="#E0E0E0"/>
<stop offset="1"/>
</linearGradient>
<linearGradient id="paint10_linear_295_5473" x1="1109.51" y1="1509.35" x2="-93.7937" y2="971.275" gradientUnits="userSpaceOnUse">
<stop stop-color="#CABDB3"/>
<stop offset="0.18" stop-color="#CABDB3"/>
<stop offset="0.39" stop-color="#CABDB3"/>
<stop offset="0.59" stop-color="#CABDB3"/>
<stop offset="0.77" stop-color="#E5E0E9"/>
<stop offset="0.91" stop-color="#F8F6F9"/>
<stop offset="1" stop-color="white"/>
</linearGradient>
<radialGradient id="paint11_radial_295_5473" cx="0" cy="0" r="1" gradientUnits="userSpaceOnUse" gradientTransform="translate(1266.18 451.563) rotate(62.5731) scale(417.378 1548.36)">
<stop stop-color="#3B3B3B"/>
<stop offset="0.07" stop-color="#303030"/>
<stop offset="0.25" stop-color="#1B1B1B"/>
<stop offset="0.44" stop-color="#0B0B0B"/>
<stop offset="0.67" stop-color="#020202"/>
<stop offset="1"/>
</radialGradient>
<linearGradient id="paint12_linear_295_5473" x1="1692.61" y1="576.558" x2="-635.164" y2="457.904" gradientUnits="userSpaceOnUse">
<stop stop-color="#CABDB3"/>
<stop offset="0.18" stop-color="#CABDB3"/>
<stop offset="0.39" stop-color="#CABDB3"/>
<stop offset="0.59" stop-color="#CABDB3"/>
<stop offset="0.77" stop-color="#E5E0E9"/>
<stop offset="0.91" stop-color="#F8F6F9"/>
<stop offset="1" stop-color="white"/>
</linearGradient>
<linearGradient id="paint13_linear_295_5473" x1="415.881" y1="596.42" x2="-319.382" y2="550.656" gradientUnits="userSpaceOnUse">
<stop/>
<stop offset="0.26" stop-color="#DBDBDB"/>
<stop offset="0.5" stop-color="#595959"/>
<stop offset="0.7" stop-color="#E0E0E0"/>
<stop offset="1"/>
</linearGradient>
<radialGradient id="paint14_radial_295_5473" cx="0" cy="0" r="1" gradientUnits="userSpaceOnUse" gradientTransform="translate(1412.09 1236.68) rotate(56.9859) scale(569.802 2767.22)">
<stop stop-color="#3B3B3B"/>
<stop offset="0.23" stop-color="#222222"/>
<stop offset="0.5"/>
</radialGradient>
<linearGradient id="paint15_linear_295_5473" x1="1455.81" y1="381.101" x2="-121.968" y2="282.897" gradientUnits="userSpaceOnUse">
<stop/>
<stop offset="0.26" stop-color="#DBDBDB"/>
<stop offset="0.5" stop-color="#595959"/>
<stop offset="0.7" stop-color="#E0E0E0"/>
<stop offset="1"/>
</linearGradient>
<radialGradient id="paint16_radial_295_5473" cx="0" cy="0" r="1" gradientUnits="userSpaceOnUse" gradientTransform="translate(1622.83 467.474) rotate(90.1893) scale(255.934 2141.06)">
<stop stop-color="#3B3B3B"/>
<stop offset="0.13" stop-color="#373737"/>
<stop offset="0.26" stop-color="#2B2B2B"/>
<stop offset="0.39" stop-color="#171717"/>
<stop offset="0.5"/>
</radialGradient>
<linearGradient id="paint17_linear_295_5473" x1="2002.72" y1="213.84" x2="677.998" y2="131.387" gradientUnits="userSpaceOnUse">
<stop/>
<stop offset="0.26" stop-color="#DBDBDB"/>
<stop offset="0.5" stop-color="#595959"/>
<stop offset="0.7" stop-color="#E0E0E0"/>
<stop offset="1"/>
</linearGradient>
<linearGradient id="paint18_linear_295_5473" x1="779.175" y1="112.109" x2="-292.666" y2="45.3955" gradientUnits="userSpaceOnUse">
<stop/>
<stop offset="0.26" stop-color="#DBDBDB"/>
<stop offset="0.5" stop-color="#595959"/>
<stop offset="0.7" stop-color="#E0E0E0"/>
<stop offset="1"/>
</linearGradient>
<linearGradient id="paint19_linear_295_5473" x1="655.902" y1="183.157" x2="-392.7" y2="382.974" gradientUnits="userSpaceOnUse">
<stop/>
<stop offset="0.26" stop-color="#DBDBDB"/>
<stop offset="0.5" stop-color="#595959"/>
<stop offset="0.7" stop-color="#E0E0E0"/>
<stop offset="1"/>
</linearGradient>
<linearGradient id="paint20_linear_295_5473" x1="811.081" y1="-37.8429" x2="2144.21" y2="581.027" gradientUnits="userSpaceOnUse">
<stop stop-color="#CABDB3"/>
<stop offset="0.18" stop-color="#CABDB3"/>
<stop offset="0.39" stop-color="#CABDB3"/>
<stop offset="0.59" stop-color="#CABDB3"/>
<stop offset="0.77" stop-color="#E5E0E9"/>
<stop offset="0.91" stop-color="#F8F6F9"/>
<stop offset="1" stop-color="white"/>
</linearGradient>
<clipPath id="clip0_295_5473">
<rect width="1920" height="1533" fill="white"/>
</clipPath>
</defs>
</svg>
