<svg xmlns="http://www.w3.org/2000/svg" viewBox="0 0 512 512">
  <defs>
    <linearGradient id="Gradient" x1="0.2" y1="0" x2="0" y2="1">
      <stop offset="0" stop-color="#00c6e0" />

      <stop offset="0" stop-color="#00c6e0">
        <animate id="an1" attributeName="offset" from="-0.6" to="1" begin="1s; pause1.end" dur="0.4s" repeatCount="1" />
        <animate id="pause1" attributeName="offset" values="" begin="an1.end" dur="3s" repeatCount="1" />
      </stop>

      <stop offset="0" stop-color="#FFDE17">
        <animate id="an2" attributeName="offset" from="-0.3" to="1.3" begin="1s; pause1.end" dur="0.4s" repeatCount="1" />
      </stop>

      <stop offset="0" stop-color="#00c6e0">
        <animate id="an3" attributeName="offset" from="0" to="1.6"  begin="1s; pause1.end" dur="0.4s" repeatCount="1" />
      </stop>

      <stop offset="1" stop-color="#00c6e0" />
    </linearGradient>
    <style>
      #svg__cloud { fill: url(#Gradient); }
    </style>
  </defs>

  <path id="svg__cloud" d="M0 224c0 53 43 96 96 96h47.2L290 202.5c17.6-14.1 42.6-14 60.2 .2s22.8 38.6 12.8 58.8L333.7 320H352h64c53 0 96-43 96-96s-43-96-96-96c-.5 0-1.1 0-1.6 0c1.1-5.2 1.6-10.5 1.6-16c0-44.2-35.8-80-80-80c-24.3 0-46.1 10.9-60.8 28C256.5 24.3 219.1 0 176 0C114.1 0 64 50.1 64 112c0 7.1 .7 14.1 1.9 20.8C27.6 145.4 0 181.5 0 224zm330.1 3.6c-5.8-4.7-14.2-4.7-20.1-.1l-160 128c-5.3 4.2-7.4 11.4-5.1 17.8s8.3 10.7 15.1 10.7h70.1L177.7 488.8c-3.4 6.7-1.6 14.9 4.3 19.6s14.2 4.7 20.1 .1l160-128c5.3-4.2 7.4-11.4 5.1-17.8s-8.3-10.7-15.1-10.7H281.9l52.4-104.8c3.4-6.7 1.6-14.9-4.2-19.6z"/>
</svg>