<svg width="34" height="30" viewBox="0 0 34 30" fill="none" xmlns="http://www.w3.org/2000/svg">
<path d="M28.4408 5.51275C25.459 2.49454 21.4419 0.774473 17.2379 0.715786C13.0339 0.657098 8.972 2.26438 5.91001 5.19822C2.84802 8.13207 1.0256 12.1628 0.827572 16.4393C0.629548 20.7158 2.07143 24.9033 4.84873 28.1175L4.86088 28.1312C4.88317 28.1553 4.9041 28.1801 4.92841 28.2034C4.97838 28.2612 5.0351 28.3265 5.10195 28.3946C5.36412 28.6783 5.68099 28.9039 6.03272 29.0573C6.38445 29.2106 6.76347 29.2883 7.14606 29.2856C7.52865 29.2829 7.90657 29.1998 8.25617 29.0415C8.60577 28.8832 8.91953 28.6532 9.17779 28.3657C10.1715 27.266 11.3785 26.3881 12.7225 25.7876C14.0664 25.1871 15.5181 24.8771 16.9858 24.8771C18.4534 24.8771 19.9051 25.1871 21.2491 25.7876C22.593 26.3881 23.8 27.266 24.7938 28.3657C25.0539 28.6547 25.3702 28.8855 25.7225 29.0435C26.0749 29.2015 26.4556 29.2833 26.8406 29.2836C27.2256 29.284 27.6064 29.203 27.9591 29.0457C28.3117 28.8884 28.6284 28.6583 28.8892 28.3698L29.1059 28.1292L29.1181 28.1154C31.8546 24.9689 33.3085 20.8774 33.183 16.6764C33.0575 12.4753 31.3621 8.48137 28.4428 5.51L28.4408 5.51275ZM15.9013 6.18316C15.9013 5.89138 16.0151 5.61155 16.2178 5.40523C16.4204 5.19891 16.6952 5.083 16.9817 5.083C17.2683 5.083 17.5431 5.19891 17.7457 5.40523C17.9483 5.61155 18.0621 5.89138 18.0621 6.18316V8.38347C18.0621 8.67525 17.9483 8.95508 17.7457 9.16139C17.5431 9.36771 17.2683 9.48362 16.9817 9.48362C16.6952 9.48362 16.4204 9.36771 16.2178 9.16139C16.0151 8.95508 15.9013 8.67525 15.9013 8.38347V6.18316ZM8.33845 18.2849H6.17763C5.89109 18.2849 5.61628 18.169 5.41367 17.9626C5.21105 17.7563 5.09722 17.4765 5.09722 17.1847C5.09722 16.8929 5.21105 16.6131 5.41367 16.4068C5.61628 16.2005 5.89109 16.0846 6.17763 16.0846H8.33845C8.62499 16.0846 8.8998 16.2005 9.10241 16.4068C9.30503 16.6131 9.41886 16.8929 9.41886 17.1847C9.41886 17.4765 9.30503 17.7563 9.10241 17.9626C8.8998 18.169 8.62499 18.2849 8.33845 18.2849ZM11.6337 11.7389C11.4311 11.9451 11.1564 12.0609 10.87 12.0609C10.5836 12.0609 10.3089 11.9451 10.1063 11.7389L8.57817 10.1836C8.37553 9.97725 8.26168 9.69739 8.26168 9.40558C8.26168 9.11377 8.37553 8.83391 8.57817 8.62756C8.7808 8.42122 9.05564 8.3053 9.34222 8.3053C9.62879 8.3053 9.90363 8.42122 10.1063 8.62756L11.6337 10.1836C11.8362 10.3899 11.9499 10.6696 11.9499 10.9613C11.9499 11.2529 11.8362 11.5326 11.6337 11.7389ZM21.7153 13.3273L18.5078 18.5186C18.3766 18.7038 18.217 18.8663 18.0351 19C17.5961 19.3118 17.054 19.4348 16.5264 19.3422C15.9989 19.2496 15.5285 18.9489 15.2173 18.5053C14.9062 18.0618 14.7794 17.5111 14.8645 16.973C14.9495 16.4348 15.2396 15.9525 15.6717 15.6307L20.7699 12.3647C20.8858 12.2824 21.0237 12.2383 21.1649 12.2383C21.3062 12.2383 21.4441 12.2824 21.56 12.3647C21.7055 12.4717 21.8035 12.633 21.8326 12.8133C21.8617 12.9937 21.8195 13.1785 21.7153 13.3273ZM23.8572 11.7389C23.6529 11.9365 23.3809 12.0451 23.0992 12.0414C22.8175 12.0377 22.5483 11.9221 22.3491 11.7193C22.1498 11.5164 22.0363 11.2423 22.0327 10.9554C22.0291 10.6686 22.1357 10.3916 22.3297 10.1836L23.8572 8.62756C24.0598 8.42122 24.3347 8.3053 24.6212 8.3053C24.9078 8.3053 25.1826 8.42122 25.3853 8.62756C25.5879 8.83391 25.7018 9.11377 25.7018 9.40558C25.7018 9.69739 25.5879 9.97725 25.3853 10.1836L23.8572 11.7389ZM27.7858 18.2849H25.625C25.3384 18.2849 25.0636 18.169 24.861 17.9626C24.6584 17.7563 24.5446 17.4765 24.5446 17.1847C24.5446 16.8929 24.6584 16.6131 24.861 16.4068C25.0636 16.2005 25.3384 16.0846 25.625 16.0846H27.7858C28.0724 16.0846 28.3472 16.2005 28.5498 16.4068C28.7524 16.6131 28.8662 16.8929 28.8662 17.1847C28.8662 17.4765 28.7524 17.7563 28.5498 17.9626C28.3472 18.169 28.0724 18.2849 27.7858 18.2849Z" fill="black"/>
</svg>
