<svg width="32" height="34" viewBox="0 0 32 34" fill="none" xmlns="http://www.w3.org/2000/svg">
<path d="M30.7639 27.703L22.0821 11.6409V2.0723C22.0821 1.17178 21.3288 0.453979 20.429 0.453979H11.5673C10.6668 0.453979 9.92581 1.17178 9.92581 2.0723V11.6409L1.23674 27.703C0.574042 28.9276 0.607395 30.4147 1.32012 31.6118C2.03285 32.8074 3.32563 33.5462 4.71773 33.5462H27.2778C28.6699 33.5462 29.9656 32.8074 30.6783 31.6118C31.3904 30.4147 31.4266 28.9276 30.7639 27.703ZM17.433 20.9832C18.211 20.9832 18.8411 21.6133 18.8411 22.3913C18.8411 23.1685 18.2096 23.7993 17.433 23.7993C16.6558 23.7993 16.025 23.1685 16.025 22.3913C16.025 21.6155 16.655 20.9832 17.433 20.9832ZM13.4735 12.5167C14.2515 12.5167 14.8816 13.1475 14.8816 13.9255C14.8816 14.7028 14.2515 15.3336 13.4735 15.3336C12.6955 15.3336 12.0654 14.7028 12.0654 13.9255C12.0662 13.1475 12.6955 12.5167 13.4735 12.5167ZM13.4735 17.4326C14.7337 17.4326 15.756 18.4549 15.756 19.7144C15.756 20.9745 14.7337 21.9961 13.4735 21.9961C12.2126 21.9961 11.191 20.9745 11.191 19.7144C11.191 18.4542 12.2126 17.4326 13.4735 17.4326ZM26.5811 29.1386C26.2881 29.6375 25.7523 29.9318 25.1759 29.9318H6.81967C6.24253 29.9318 5.70744 29.6375 5.41451 29.1386C5.12159 28.6398 5.11361 28.0307 5.39421 27.5247L7.60056 23.5586C7.91523 22.9916 8.53588 22.6668 9.18118 22.7284C12.1111 23.0076 15.4043 25.5141 18.3473 25.4024C19.9236 25.3422 21.3868 24.768 22.7803 24.0002C23.567 23.5651 24.5567 23.8501 24.9932 24.636L26.6021 27.5232C26.8812 28.03 26.874 28.6405 26.5811 29.1386Z" fill="black"/>
</svg>
