<svg width="34" height="34" viewBox="0 0 34 34" fill="none" xmlns="http://www.w3.org/2000/svg">
<path d="M33.567 26.8166C33.4817 27.0645 33.3392 27.2888 33.1509 27.4712C32.9627 27.6537 32.7341 27.7891 32.4837 27.8666L27.967 29.2L25.1503 32.9833C24.9968 33.1934 24.7963 33.3646 24.5648 33.4832C24.3333 33.6019 24.0772 33.6647 23.817 33.6666C23.5511 33.6635 23.2899 33.5968 23.055 33.4722C22.8202 33.3475 22.6185 33.1684 22.467 32.95L17.667 26.1C17.4946 25.8616 17.3884 25.5818 17.3591 25.2891C17.3298 24.9964 17.3785 24.7011 17.5003 24.4333C17.608 24.1751 17.779 23.9482 17.9974 23.7734C18.2159 23.5986 18.4748 23.4817 18.7503 23.4333C20.2151 23.1778 21.6035 22.5956 22.8125 21.73C24.0214 20.8644 25.0199 19.7376 25.7337 18.4333C25.8712 18.1878 26.0686 17.981 26.3076 17.8324C26.5466 17.6838 26.8193 17.5981 27.1003 17.5833C27.383 17.5698 27.6644 17.6286 27.9181 17.754C28.1718 17.8793 28.3894 18.0672 28.5503 18.3L33.367 25.3333C33.5137 25.5478 33.6082 25.7937 33.6429 26.0513C33.6776 26.3088 33.6516 26.5709 33.567 26.8166ZM15.2337 23.4833C13.7689 23.2278 12.3805 22.6456 11.1715 21.78C9.96259 20.9144 8.96414 19.7876 8.25033 18.4833C8.1116 18.2383 7.91305 18.0324 7.6732 17.8848C7.43336 17.7373 7.16005 17.6529 6.87878 17.6396C6.59751 17.6263 6.31745 17.6845 6.06474 17.8087C5.81203 17.9329 5.59492 18.1191 5.43366 18.35L0.63366 25.3333C0.483023 25.5502 0.386088 25.7998 0.350845 26.0616C0.315602 26.3233 0.34306 26.5896 0.430954 26.8387C0.518848 27.0877 0.664664 27.3123 0.856384 27.4939C1.0481 27.6755 1.28024 27.809 1.53366 27.8833L6.03366 29.2166L8.85033 33C9.00382 33.21 9.20436 33.3812 9.43588 33.4999C9.66741 33.6186 9.92351 33.6814 10.1837 33.6833C10.4495 33.6802 10.7108 33.6135 10.9457 33.4888C11.1805 33.3642 11.3821 33.1851 11.5337 32.9666L16.3337 26.1166C16.5061 25.8783 16.6123 25.5985 16.6416 25.3058C16.6709 25.013 16.6221 24.7178 16.5003 24.45C16.394 24.2112 16.233 24.0009 16.0303 23.8358C15.8276 23.6708 15.589 23.5558 15.3337 23.5L15.2337 23.4833Z" fill="black"/>
<path d="M29.3337 13.6667C29.3337 20.4782 23.8118 26 17.0003 26C10.1888 26 4.66699 20.4782 4.66699 13.6667C4.66699 6.85519 10.1888 1.33337 17.0003 1.33337C23.8118 1.33337 29.3337 6.85519 29.3337 13.6667Z" fill="black" stroke="#F3F3F3" stroke-width="2"/>
<path d="M22.1654 12.7727C22.069 12.4688 21.8874 12.1989 21.6422 11.995C21.397 11.7912 21.0985 11.662 20.7821 11.6227L19.3321 11.4227L18.6987 10.256C18.5559 9.99144 18.3442 9.77041 18.086 9.61636C17.8278 9.46231 17.5327 9.38098 17.2321 9.38098C16.9314 9.38098 16.6363 9.46231 16.3781 9.61636C16.1199 9.77041 15.9082 9.99144 15.7654 10.256L15.1321 11.4227L13.6821 11.6227C13.3678 11.6651 13.0721 11.7963 12.8297 12.0009C12.5874 12.2055 12.4085 12.475 12.314 12.7778C12.2195 13.0805 12.2133 13.404 12.2962 13.7101C12.3792 14.0162 12.5477 14.2923 12.7821 14.506L13.7487 15.3727L13.5321 16.5727C13.469 16.882 13.495 17.2028 13.6071 17.4978C13.7193 17.7929 13.9129 18.05 14.1654 18.2394C14.4022 18.4145 14.6812 18.5237 14.974 18.5559C15.2668 18.5881 15.5628 18.5421 15.8321 18.4227L17.1654 17.7727L18.4987 18.4227C18.7273 18.5334 18.9781 18.5904 19.2321 18.5894C19.5946 18.5846 19.9457 18.4617 20.2321 18.2394C20.4846 18.05 20.6782 17.7929 20.7903 17.4978C20.9025 17.2028 20.9285 16.882 20.8654 16.5727L20.6487 15.3727L21.6154 14.506C21.8651 14.3014 22.05 14.0287 22.1476 13.721C22.2453 13.4133 22.2514 13.0838 22.1654 12.7727Z" fill="white"/>
</svg>
