<svg width="40" height="30" viewBox="0 0 40 30" fill="none" xmlns="http://www.w3.org/2000/svg">
<path d="M21.6428 15.5276L19.5638 15.3024C19.2793 15.2716 19.0388 15.0846 18.9295 14.8202C18.9282 14.8171 18.9269 14.8139 18.9256 14.8108C18.816 14.5465 18.8538 14.2442 19.0331 14.0213L20.3441 12.392C20.5913 12.0848 20.5673 11.6408 20.2884 11.3619L17.8345 8.90794C17.5556 8.62911 17.1116 8.60513 16.8044 8.85232L15.1744 10.1638C14.952 10.3427 14.6506 10.3807 14.3867 10.2721C14.3838 10.2709 14.3809 10.2697 14.3781 10.2686C14.1127 10.1597 13.925 9.91872 13.8941 9.63357L13.6689 7.55357C13.6265 7.16153 13.2956 6.8645 12.9013 6.8645H9.43078C9.03649 6.8645 8.70555 7.16153 8.66313 7.55357L8.43789 9.63357C8.40703 9.91864 8.21922 10.1597 7.95391 10.2686C7.95102 10.2697 7.94813 10.2709 7.94532 10.2721C7.68141 10.3808 7.38 10.3427 7.15766 10.1638L5.5275 8.85232C5.22031 8.60513 4.77625 8.62911 4.4975 8.90794L2.04352 11.3619C1.76469 11.6408 1.7407 12.0848 1.98789 12.392L3.29883 14.0213C3.4782 14.2443 3.51594 14.5465 3.40633 14.8108C3.405 14.8139 3.40375 14.8171 3.40242 14.8202C3.29313 15.0846 3.05266 15.2716 2.7682 15.3024L0.689063 15.5276C0.297031 15.57 0 15.9009 0 16.2952V19.7657C0 20.16 0.297031 20.4909 0.689063 20.5333L2.76813 20.7584C3.05258 20.7892 3.29313 20.9762 3.40234 21.2406C3.40367 21.2437 3.40492 21.2469 3.40625 21.2501C3.51586 21.5144 3.47813 21.8166 3.29875 22.0396L1.98781 23.6689C1.74063 23.9761 1.76461 24.4201 2.04344 24.699L4.49742 27.153C4.77625 27.4318 5.22031 27.4558 5.5275 27.2086L7.1575 25.8971C7.37985 25.7181 7.68125 25.6801 7.94516 25.7888C7.94805 25.79 7.95094 25.7912 7.95383 25.7923C8.21914 25.9012 8.40688 26.1422 8.43774 26.4273L8.66297 28.5073C8.70539 28.8994 9.03633 29.1964 9.43063 29.1964H12.9011C13.2954 29.1964 13.6263 28.8994 13.6688 28.5073L13.894 26.4273C13.9248 26.1422 14.1126 25.9012 14.3779 25.7923C14.3808 25.7912 14.3837 25.79 14.3865 25.7888C14.6504 25.6801 14.9518 25.7181 15.1742 25.8971L16.8042 27.2086C17.1114 27.4558 17.5555 27.4318 17.8343 27.153L20.2883 24.699C20.5671 24.4201 20.591 23.9761 20.3439 23.6689L19.033 22.0396C18.8536 21.8167 18.8159 21.5144 18.9255 21.2501C18.9267 21.2469 18.9281 21.2438 18.9294 21.2406C19.0387 20.9762 19.2791 20.7892 19.5636 20.7584L21.6427 20.5333C22.0346 20.4908 22.3317 20.1599 22.3317 19.7657V16.2952C22.3319 15.9009 22.0349 15.57 21.6428 15.5276ZM11.1659 21.5116C9.24336 21.5116 7.68477 19.953 7.68477 18.0304C7.68477 16.1079 9.24336 14.5493 11.1659 14.5493C13.0885 14.5493 14.6471 16.1079 14.6471 18.0304C14.6471 19.953 13.0885 21.5116 11.1659 21.5116Z" fill="black"/>
<path d="M39.6456 12.0478L38.2184 10.9207C37.991 10.7412 37.8648 10.466 37.8646 10.1762C37.8646 10.1731 37.8646 10.1701 37.8646 10.167C37.8642 9.87658 37.9905 9.60064 38.2184 9.42072L39.6456 8.29353C39.9725 8.0354 40.0881 7.59157 39.9288 7.20681L39.3018 5.69322C39.1424 5.30837 38.7468 5.07634 38.3332 5.12493L36.527 5.33712C36.2385 5.37103 35.9541 5.26525 35.7492 5.05954C35.7471 5.05735 35.7449 5.05517 35.7427 5.05306C35.5378 4.84806 35.4325 4.56415 35.4664 4.27642L35.6785 2.47025C35.7271 2.05665 35.495 1.66103 35.1103 1.50165L33.5967 0.874776C33.2119 0.715401 32.7681 0.831026 32.5099 1.15782L31.3828 2.58501C31.2031 2.81243 30.9279 2.9386 30.6382 2.93876C30.6351 2.93876 30.6321 2.93876 30.629 2.93876C30.3387 2.93923 30.0628 2.8129 29.8828 2.58501L28.7556 1.15774C28.4974 0.83087 28.0535 0.715245 27.6688 0.87462L26.1552 1.50157C25.7704 1.66095 25.5383 2.05657 25.5869 2.47025L25.7991 4.2765C25.833 4.56486 25.7272 4.84931 25.5215 5.05431C25.5193 5.0565 25.5171 5.05868 25.5149 5.06087C25.3099 5.26572 25.0261 5.37103 24.7383 5.3372L22.9321 5.12501C22.5185 5.07642 22.1229 5.30853 21.9635 5.69329L21.3366 7.20689C21.1772 7.59165 21.2928 8.03556 21.6197 8.29368L23.0469 9.42079C23.2743 9.6004 23.4005 9.87556 23.4006 10.1653C23.4006 10.1685 23.4006 10.1715 23.4006 10.1745C23.4012 10.4649 23.2748 10.7409 23.0469 10.9208L21.6196 12.048C21.2928 12.3061 21.1771 12.7499 21.3366 13.1347L21.9635 14.6483C22.1228 15.0331 22.5185 15.2652 22.9321 15.2166L24.7384 15.0044C25.0267 14.9705 25.3112 15.0763 25.5162 15.282C25.5184 15.2842 25.5205 15.2863 25.5227 15.2885C25.7275 15.4935 25.8328 15.7773 25.799 16.0651L25.5868 17.8713C25.5382 18.285 25.7703 18.6806 26.1551 18.8399L27.6687 19.4669C28.0535 19.6263 28.4973 19.5106 28.7555 19.1838L29.8826 17.7566C30.0622 17.5292 30.3374 17.403 30.6271 17.4028C30.6302 17.4028 30.6332 17.4028 30.6364 17.4028C30.9267 17.4023 31.2027 17.5287 31.3826 17.7566L32.5098 19.1838C32.7679 19.5107 33.2117 19.6263 33.5966 19.467L35.1102 18.84C35.4949 18.6806 35.7271 18.285 35.6785 17.8714L35.4663 16.0652C35.4324 15.7768 35.5381 15.4923 35.7439 15.2874C35.746 15.2852 35.7482 15.283 35.7504 15.2809C35.9554 15.0761 36.2392 14.9707 36.5271 15.0045L38.3333 15.2167C38.747 15.2653 39.1425 15.0332 39.3019 14.6485L39.9289 13.1349C40.0881 12.7499 39.9725 12.306 39.6456 12.0478ZM31.5581 12.8673C30.1062 13.4687 28.4417 12.7792 27.8403 11.3273C27.2388 9.87533 27.9284 8.21087 29.3803 7.60947C30.8321 7.00806 32.4967 7.69751 33.0981 9.14947C33.6994 10.6013 33.0099 12.266 31.5581 12.8673Z" fill="black"/>
</svg>
