<?xml version="1.0" encoding="utf-8"?><svg viewBox="0 0 33 36" xmlns="http://www.w3.org/2000/svg" xmlns:xlink="http://www.w3.org/1999/xlink"><style>:root>svg{display:none}:root>svg:target{display:block}</style><svg viewBox="0 0 14 8" fill="none" id="arrow" xmlns="http://www.w3.org/2000/svg"><path fill-rule="evenodd" clip-rule="evenodd" d="M.646.646a.5.5 0 0 1 .708 0L7 6.293 12.646.646a.5.5 0 0 1 .708.708l-6 6a.5.5 0 0 1-.708 0l-6-6a.5.5 0 0 1 0-.708Z" fill="currentColor"/></svg><svg viewBox="0 0 16 12" fill="none" id="email" xmlns="http://www.w3.org/2000/svg"><path d="M0 2a2 2 0 0 1 2-2h12a2 2 0 0 1 2 2v8a2 2 0 0 1-2 2H2a2 2 0 0 1-2-2V2Zm2-1a1 1 0 0 0-1 1v.217l7 4.2 7-4.2V2a1 1 0 0 0-1-1H2Zm13 2.383-4.708 2.825L15 9.105V3.383Zm-.034 6.876-5.64-3.471L8 7.583l-1.326-.795-5.64 3.47A1 1 0 0 0 2 11h12a1 1 0 0 0 .966-.741ZM1 9.105l4.708-2.897L1 3.383v5.722Z" fill="currentColor"/></svg><svg viewBox="0 0 16 9" fill="none" id="filter" xmlns="http://www.w3.org/2000/svg"><path d="M5.5 8.125a.625.625 0 0 1 .625-.625h3.75a.625.625 0 1 1 0 1.25h-3.75a.625.625 0 0 1-.625-.625ZM3 4.375a.625.625 0 0 1 .625-.625h8.75a.625.625 0 1 1 0 1.25h-8.75A.625.625 0 0 1 3 4.375ZM.5.625A.625.625 0 0 1 1.125 0h13.75a.625.625 0 1 1 0 1.25H1.125A.625.625 0 0 1 .5.625Z" fill="currentColor"/><path d="M5.5 8.125a.625.625 0 0 1 .625-.625h3.75a.625.625 0 1 1 0 1.25h-3.75a.625.625 0 0 1-.625-.625ZM3 4.375a.625.625 0 0 1 .625-.625h8.75a.625.625 0 1 1 0 1.25h-8.75A.625.625 0 0 1 3 4.375ZM.5.625A.625.625 0 0 1 1.125 0h13.75a.625.625 0 1 1 0 1.25H1.125A.625.625 0 0 1 .5.625Z" fill="#currentColor"/></svg><svg viewBox="0 0 24 24" fill="none" id="instagram" xmlns="http://www.w3.org/2000/svg"><path d="M12 0C8.743 0 8.334.015 7.054.072 5.776.132 4.905.333 4.14.63a5.85 5.85 0 0 0-2.125 1.385A5.85 5.85 0 0 0 .63 4.14c-.297.762-.5 1.635-.558 2.91C.015 8.332 0 8.74 0 12.002c0 3.257.015 3.665.072 4.945.06 1.278.261 2.15.558 2.913a5.894 5.894 0 0 0 1.385 2.125 5.856 5.856 0 0 0 2.123 1.385c.766.297 1.636.5 2.913.558C8.332 23.985 8.742 24 12 24c3.26 0 3.666-.015 4.947-.072 1.277-.06 2.151-.261 2.915-.558a5.85 5.85 0 0 0 2.123-1.385 5.894 5.894 0 0 0 1.385-2.125c.296-.764.498-1.635.558-2.913.057-1.28.072-1.688.072-4.947 0-3.26-.015-3.668-.072-4.949-.06-1.276-.262-2.149-.558-2.911a5.85 5.85 0 0 0-1.385-2.125A5.85 5.85 0 0 0 19.86.63c-.765-.297-1.638-.5-2.915-.558C15.665.015 15.258 0 11.997 0H12Zm-1.075 2.163H12c3.205 0 3.584.01 4.848.069 1.17.052 1.806.249 2.23.412.559.218.96.479 1.38.899.42.42.679.819.896 1.38.165.421.36 1.058.413 2.228.058 1.264.07 1.643.07 4.846 0 3.203-.012 3.584-.07 4.848-.053 1.17-.249 1.805-.413 2.228-.193.52-.5.99-.898 1.378-.42.42-.819.68-1.38.897-.42.165-1.056.36-2.228.414-1.264.057-1.643.07-4.848.07-3.204 0-3.585-.013-4.849-.07-1.17-.054-1.804-.249-2.228-.414a3.75 3.75 0 0 1-1.38-.897 3.75 3.75 0 0 1-.9-1.38c-.163-.422-.36-1.058-.412-2.228-.057-1.264-.069-1.643-.069-4.849 0-3.205.012-3.582.069-4.846.054-1.17.249-1.806.414-2.23.218-.559.478-.96.899-1.38.42-.42.819-.679 1.38-.896.423-.165 1.057-.36 2.227-.414 1.107-.052 1.536-.067 3.772-.068v.003Zm7.482 1.992a1.44 1.44 0 1 0 0 2.88 1.44 1.44 0 0 0 0-2.88Zm-6.405 1.683a6.163 6.163 0 1 0-.193 12.325 6.163 6.163 0 0 0 .193-12.325Zm0 2.162a4 4 0 1 1 0 8 4 4 0 0 1 0-8Z" fill="currentColor"/></svg><svg viewBox="0 0 10 16" fill="none" id="location" xmlns="http://www.w3.org/2000/svg"><path fill-rule="evenodd" clip-rule="evenodd" d="M5 1a3 3 0 1 0 0 6 3 3 0 0 0 0-6ZM1 4a4 4 0 1 1 4.5 3.969V13.5a.5.5 0 1 1-1 0V7.97A4 4 0 0 1 1 4Zm2.493 8.574a.5.5 0 0 1-.411.575c-.712.118-1.28.295-1.655.493a1.3 1.3 0 0 0-.37.265.3.3 0 0 0-.057.09V14l.002.008.016.033a.6.6 0 0 0 .145.15c.165.13.435.27.813.395.751.25 1.82.414 3.024.414s2.273-.163 3.024-.414c.378-.126.648-.265.813-.395a.6.6 0 0 0 .146-.15l.015-.033L9 14v-.004a.3.3 0 0 0-.057-.09 1.301 1.301 0 0 0-.37-.264c-.376-.198-.943-.375-1.655-.493a.5.5 0 1 1 .164-.986c.77.127 1.452.328 1.957.594C9.5 13 10 13.4 10 14c0 .426-.26.752-.544.977-.29.228-.68.413-1.116.558C7.462 15.828 6.281 16 5 16c-1.281 0-2.462-.172-3.34-.465-.436-.145-.826-.33-1.116-.558C.26 14.752 0 14.426 0 14c0-.599.5-1 .961-1.243.505-.266 1.187-.467 1.957-.594a.5.5 0 0 1 .575.411Z" fill="currentColor"/></svg><svg viewBox="0 0 10 16" fill="none" id="phone" xmlns="http://www.w3.org/2000/svg"><path d="M8 1a1 1 0 0 1 1 1v12a1 1 0 0 1-1 1H2a1 1 0 0 1-1-1V2a1 1 0 0 1 1-1h6ZM2 0a2 2 0 0 0-2 2v12a2 2 0 0 0 2 2h6a2 2 0 0 0 2-2V2a2 2 0 0 0-2-2H2Z" fill="currentColor"/><path d="M5 14a1 1 0 1 0 0-2 1 1 0 0 0 0 2Z" fill="currentColor"/></svg><svg viewBox="0 0 33 36" fill="none" id="play" xmlns="http://www.w3.org/2000/svg"><path d="M30.5 13.67c3.333 1.924 3.333 6.736 0 8.66L8 35.32C4.667 37.245.5 34.84.5 30.99V5.01C.5 1.16 4.667-1.245 8 .68l22.5 12.99Z" fill="currentColor"/><path d="M30.5 13.67c3.333 1.924 3.333 6.736 0 8.66L8 35.32C4.667 37.245.5 34.84.5 30.99V5.01C.5 1.16 4.667-1.245 8 .68l22.5 12.99Z" fill="currentColor"/></svg><svg viewBox="0 0 12 14" fill="none" id="refresh" xmlns="http://www.w3.org/2000/svg"><path fill-rule="evenodd" clip-rule="evenodd" d="M6 3a5 5 0 1 0 4.546 2.914.5.5 0 0 1 .908-.417A6 6 0 1 1 6 2v1Z" fill="currentColor"/><path d="M6 4.466V.534a.25.25 0 0 1 .41-.192l2.36 1.966c.12.1.12.284 0 .384L6.41 4.658A.25.25 0 0 1 6 4.466Z" fill="currentColor"/></svg><svg viewBox="0 0 24 22" fill="none" id="twitter" xmlns="http://www.w3.org/2000/svg"><path d="M18.9.125h3.681l-8.04 9.213L24 21.875h-7.405l-5.801-7.605-6.638 7.605H.475l8.6-9.855L0 .125h7.595l5.242 6.95L18.9.124Zm-1.29 19.542h2.04L6.485 2.217H4.296l13.313 17.45Z" fill="currentColor"/></svg><svg viewBox="0 0 28 20" fill="none" id="youtube" xmlns="http://www.w3.org/2000/svg"><path d="M14.084 1h.144c1.336.005 8.105.053 9.93.537a3.278 3.278 0 0 1 1.458.834c.403.399.693.896.841 1.44.164.608.28 1.414.358 2.245l.016.167.036.416.013.167c.105 1.464.118 2.834.12 3.134v.12c-.002.31-.016 1.775-.133 3.3l-.013.167-.015.167c-.081.916-.201 1.826-.382 2.495a3.208 3.208 0 0 1-.841 1.44c-.404.4-.907.687-1.458.834-1.885.5-9.05.535-10.043.537h-.231c-.502 0-2.58-.01-4.757-.083l-.276-.01-.142-.006-.277-.011-.278-.012c-1.804-.078-3.522-.205-4.313-.416a3.278 3.278 0 0 1-1.458-.834 3.209 3.209 0 0 1-.842-1.439c-.18-.668-.3-1.579-.382-2.495l-.013-.168-.013-.167A48.93 48.93 0 0 1 1 10.1v-.197c.003-.345.016-1.535.104-2.848l.011-.165.005-.083.013-.167.036-.416.016-.167c.078-.831.194-1.638.358-2.245.148-.544.438-1.041.841-1.44.404-.4.907-.687 1.458-.834.792-.209 2.51-.337 4.313-.417l.277-.011.28-.01.139-.005.278-.01a164.91 164.91 0 0 1 4.641-.082L14.084 1ZM11.4 6.141v7.716l6.755-3.856-6.755-3.86Z" stroke="currentColor" stroke-width="2"/></svg></svg>