<?xml version="1.0" encoding="utf-8"?><svg viewBox="0 0 33 38" xmlns="http://www.w3.org/2000/svg" xmlns:xlink="http://www.w3.org/1999/xlink"><style>:root>svg{display:none}:root>svg:target{display:block}</style><svg fill="none" viewBox="0 0 18 16" id="arr-back" xmlns="http://www.w3.org/2000/svg"><path d="M.293 7.293a1 1 0 000 1.414l6.364 6.364a1 1 0 001.414-1.414L2.414 8l5.657-5.657A1 1 0 006.657.93L.293 7.293zM18 7H1v2h17V7z" fill="currentColor"/></svg><svg fill="none" viewBox="0 0 15 15" id="arr-diag" xmlns="http://www.w3.org/2000/svg"><path d="M14.521 1a1 1 0 00-1-1h-9a1 1 0 100 2h8v8a1 1 0 102 0V1zM1.707 14.228l12.521-12.52L12.814.292.293 12.813l1.414 1.415z" fill="currentColor"/></svg><svg fill="none" viewBox="0 0 22 38" id="arr-left" xmlns="http://www.w3.org/2000/svg"><path d="M19.527.311a1 1 0 011.389 1.439L19.526.31zm1.389 35.97a1 1 0 01-1.39 1.438l1.39-1.438zM1.594 19.015l-.694.72a1 1 0 010-1.44l.694.72zM20.916 1.75L2.289 19.735l-1.39-1.44L19.528.312l1.389 1.439zM2.289 18.296L20.916 36.28l-1.39 1.438L.9 19.735l1.389-1.44z" fill="currentColor"/></svg><svg fill="none" viewBox="0 0 21 38" id="arr-right" xmlns="http://www.w3.org/2000/svg"><path d="M2.068.311A1 1 0 00.678 1.75L2.068.31zm-1.39 35.97a1 1 0 001.39 1.438l-1.39-1.438zM20 19.015l.695.72a1 1 0 000-1.44l-.695.72zM.678 1.75l18.627 17.985 1.39-1.44L2.068.312.678 1.75zm18.627 16.546L.678 36.28l1.39 1.438 18.627-17.984-1.39-1.44z" fill="currentColor"/></svg><svg fill="none" viewBox="0 0 20 21" id="phone" xmlns="http://www.w3.org/2000/svg"><path d="M18.953 14.151l-2.012-1.649c-1.31-1.074-3.346-.973-4.542.224l-.08.08c-.2.2-.527.199-.724 0L7.707 8.919a.512.512 0 010-.724l-.011.01.01-.01c1.19-1.2 1.303-3.246.262-4.563L6.336 1.567C5.286.24 3.464.137 2.268 1.334l-.3.3C-.156 3.758-.656 7.587.937 10.134c0 0 .938 2.175 4.103 5.341 3.164 3.166 5.34 4.104 5.34 4.104 2.568 1.555 6.371 1.094 8.495-1.03l.285-.285c1.197-1.197 1.103-3.04-.207-4.113zm-1.239 2.667l-.285.285c-1.458 1.458-4.227 1.794-5.991.726l-.12-.072-.13-.056c-.157-.068-.554-.283-1.153-.685-1.064-.714-2.26-1.696-3.55-2.987-1.29-1.291-2.272-2.486-2.986-3.551-.402-.6-.617-.996-.685-1.154l-.061-.143-.083-.133c-1.073-1.714-.727-4.497.744-5.968l.3-.3c.332-.333.73-.31 1.018.056l1.632 2.063c.403.51.35 1.395-.114 1.86-.988 1-.983 2.61.011 3.605l3.888 3.889a2.558 2.558 0 003.616-.001l.08-.08c.453-.454 1.303-.496 1.8-.088l2.013 1.65c.375.307.397.743.056 1.084z" fill="currentColor"/></svg><svg fill="none" viewBox="0 0 33 24" id="quotes-cls" xmlns="http://www.w3.org/2000/svg"><path d="M33 .313l-10.523 23h-7.829l7.071-23H33zm-14.648 0l-10.523 23H0l7.071-23h11.281z" fill="currentColor"/></svg><svg fill="none" viewBox="0 0 33 24" id="quotes-opn" xmlns="http://www.w3.org/2000/svg"><path d="M0 23.313l10.523-23h7.829l-7.071 23H0zm14.648 0l10.523-23H33l-7.071 23H14.648z" fill="currentColor"/></svg></svg>