<svg width="157" height="15" fill="none" xmlns="http://www.w3.org/2000/svg"><path opacity=".75" d="M6.359 0H0v15h6.359V0zm82.202 0h-6.359v15h6.36V0z" fill="#3496AC"/><path opacity=".75" d="M6.359 0H0v10.792h6.359c2.967 0 5.373-2.416 5.373-5.396S9.326 0 6.359 0zm21.048 15H17.318V0l10.089 15z" fill="#3496AC"/><path opacity=".75" d="M22.034 0h-4.716v10.792h4.716a5.33 5.33 0 002.219-.482 5.397 5.397 0 003.154-4.914C27.407 2.416 25 0 22.034 0zm45.982 0l-7.823 15h15.646L68.016 0z" fill="#3496AC"/><path opacity=".75" d="M59.971 0l-7.823 15h15.646L59.971 0zM40.814 15c4.125 0 7.468-3.358 7.468-7.5 0-4.142-3.343-7.5-7.468-7.5-4.124 0-7.467 3.358-7.467 7.5 0 4.142 3.343 7.5 7.467 7.5zm107.85-15l-7.823 15h15.646l-7.823-15z" fill="#3496AC"/><path opacity=".75" d="M140.619 0l-7.823 15h15.646l-7.823-15zm-18.892 15c4.124 0 7.468-3.358 7.468-7.5 0-4.142-3.344-7.5-7.468-7.5-4.125 0-7.468 3.358-7.468 7.5 0 4.142 3.343 7.5 7.468 7.5zM107.584 2.481A7.434 7.434 0 00100.457.17a7.494 7.494 0 00-5.89 7.33 7.494 7.494 0 005.89 7.33 7.434 7.434 0 007.127-2.312L104.688 7.5l2.896-5.019z" fill="#3496AC"/><path opacity=".75" d="M107.584 2.481A7.434 7.434 0 00100.457.17l4.231 7.33 2.896-5.019zm-7.127 12.349a7.434 7.434 0 007.127-2.312L104.688 7.5l-4.231 7.33zm-64.923-2.027A7.429 7.429 0 0040.814 15c4.125 0 7.468-3.358 7.468-7.5a7.493 7.493 0 00-2.187-5.303L35.534 12.804zm80.912 0A7.43 7.43 0 00121.727 15c4.124 0 7.468-3.358 7.468-7.5a7.491 7.491 0 00-2.188-5.303l-10.561 10.607z" fill="#3496AC"/></svg>