<svg viewBox="0 0 28 28" fill="none" xmlns="http://www.w3.org/2000/svg">
<path d="M28 14C28 20.988 22.8802 26.7799 16.1875 27.8299V18.0469H19.4496L20.0703 14H16.1875V11.3739C16.1875 10.2665 16.73 9.1875 18.4691 9.1875H20.2344V5.74219C20.2344 5.74219 18.6321 5.46875 17.1003 5.46875C13.9027 5.46875 11.8125 7.40687 11.8125 10.9156V14H8.25784V18.0469H11.8125V27.8299C5.11987 26.7799 3.05176e-05 20.988 3.05176e-05 14C3.05176e-05 6.26828 6.26831 0 14 0C21.7318 0 28 6.26828 28 14Z" fill="#1877F2"/>
<path d="M19.4496 18.0469L20.0703 14H16.1875V11.3739C16.1875 10.2667 16.7299 9.1875 18.469 9.1875H20.2344V5.74219C20.2344 5.74219 18.6323 5.46875 17.1005 5.46875C13.9026 5.46875 11.8125 7.40688 11.8125 10.9156V14H8.25784V18.0469H11.8125V27.8299C12.5253 27.9417 13.2558 28 14 28C14.7442 28 15.4747 27.9417 16.1875 27.8299V18.0469H19.4496Z" fill="white"/>
</svg>
