<svg viewBox="0 0 98 98" fill="none" xmlns="http://www.w3.org/2000/svg">
<path fill-rule="evenodd" clip-rule="evenodd" d="M98 48.999C98 21.9817 76.0885 0 48.9997 0C21.9821 0 0 21.9817 0 48.999C0 76.0867 21.9821 98 48.9997 98C76.0885 98 98 76.0867 98 48.999Z" fill="#0070EF"/>
<path fill-rule="evenodd" clip-rule="evenodd" d="M97.9999 48.999C97.9999 48.0068 97.9999 47.0126 97.9294 46.0212L74.6009 24.4644C73.6068 24.4644 73.2524 25.1014 72.2602 25.1014C57.2256 25.1014 42.1917 25.1014 27.2289 25.1014C26.1661 25.1014 25.172 25.1014 24.1104 25.1014C24.1104 26.165 24.1104 27.1583 24.1104 28.2211C24.1104 29.9236 24.1104 31.6264 24.1104 33.3974C24.1104 44.6014 24.1104 55.8785 24.1104 67.0813L23.3999 69.563C28.4354 71.8332 53.8225 97.6417 54.9558 97.6417C79.2099 94.7366 97.9999 74.0317 97.9999 48.999Z" fill="#005DC7"/>
<path fill-rule="evenodd" clip-rule="evenodd" d="M26.5215 32.7603H71.5499V66.4444H26.5215V32.7603ZM74.6009 66.4444V69.563H71.5499H26.5215H23.3999V66.4444V32.7603V27.5135V24.4644H26.5215H71.5499H74.6009V27.5135V32.7603V66.4444Z" fill="#324A5E"/>
<path fill-rule="evenodd" clip-rule="evenodd" d="M61.8347 28.575C61.8347 29.7112 62.7587 30.6319 63.8918 30.6319C64.9563 30.6319 65.8761 29.7112 65.8761 28.575C65.8761 27.4411 64.9561 26.5212 63.8918 26.5212C62.7587 26.5212 61.8347 27.4411 61.8347 28.575Z" fill="#90DFAA"/>
<path fill-rule="evenodd" clip-rule="evenodd" d="M67.4382 28.575C67.4382 29.7112 68.36 30.6319 69.4951 30.6319C70.6283 30.6319 71.55 29.7112 71.55 28.575C71.55 27.4411 70.6283 26.5212 69.4951 26.5212C68.36 26.5212 67.4382 27.4411 67.4382 28.575Z" fill="#FFD05B"/>
<path fill-rule="evenodd" clip-rule="evenodd" d="M56.1633 28.575C56.1633 29.7112 57.0853 30.6319 58.2182 30.6319C59.3533 30.6319 60.2749 29.7112 60.2749 28.575C60.2749 27.4411 59.3533 26.5212 58.2182 26.5212C57.0853 26.5212 56.1633 27.4411 56.1633 28.575Z" fill="#FD8469"/>
<path d="M71.5499 32.7603H26.5215V66.4443H71.5499V32.7603Z" fill="white"/>
<path d="M64.6003 39.0005H41.7686V41.1982H64.6003V39.0005Z" fill="#E6E6E6"/>
<path d="M64.6003 48.5742H41.7686V50.772H64.6003V48.5742Z" fill="#E6E6E6"/>
<path d="M39.4268 46.6584H33.4714V52.544H39.4268V46.6584Z" fill="#90DFAA"/>
<path d="M64.6003 58.0737H41.7686V60.2736H64.6003V58.0737Z" fill="#E6E6E6"/>
<path d="M39.4268 56.1609H33.4714V62.0469H39.4268V56.1609Z" fill="#FFD05B"/>
<path d="M39.4268 37.158H33.4714V43.0429H39.4268V37.158Z" fill="#FD8469"/>
<path fill-rule="evenodd" clip-rule="evenodd" d="M68.0762 76.9379L61.8349 71.2664C58.6453 68.4992 56.729 65.0244 56.2338 61.4799C56.1633 60.842 56.0928 60.2733 56.0928 59.6354V50.3462C56.0928 50.3462 65.9487 48.0769 68.1467 46.0916C70.3466 48.0769 80.2025 50.3462 80.2025 50.3462V59.6354C80.2025 60.2733 80.0593 60.842 79.989 61.4799C79.5623 65.0244 77.6483 68.4992 74.4581 71.2664L68.0762 76.9379Z" fill="#253645"/>
<path fill-rule="evenodd" clip-rule="evenodd" d="M78.1433 61.5516C78.2157 60.984 78.2157 60.5564 78.2157 59.9899V52.2605C78.2157 52.2605 69.9902 50.3463 68.1467 48.6436V61.5514H78.1433V61.5516Z" fill="white"/>
<path fill-rule="evenodd" clip-rule="evenodd" d="M68.1464 48.5742C66.3009 50.277 58.0774 52.1899 58.0774 52.1899V59.9898C58.0774 60.5564 58.0774 60.984 58.1475 61.5515H68.1464V48.5742Z" fill="#FD8469"/>
<path fill-rule="evenodd" clip-rule="evenodd" d="M58.218 61.5518C58.645 64.599 60.2747 67.4357 62.8994 69.7755L68.1464 74.3861V61.5518H58.218Z" fill="white"/>
<path fill-rule="evenodd" clip-rule="evenodd" d="M78.0025 61.5518C77.6483 64.599 75.9476 67.4357 73.3937 69.7755L68.1467 74.3861V61.5518H78.0025Z" fill="#FD8469"/>
</svg>
