<svg width="98" height="98" viewBox="0 0 98 98" fill="none" xmlns="http://www.w3.org/2000/svg">
<g clip-path="url(#clip0_249_1108)">
<path fill-rule="evenodd" clip-rule="evenodd" d="M98 48.999C98 21.9817 76.0885 0 48.9997 0C21.9821 0 0 21.9817 0 48.999C0 76.0867 21.9821 98 48.9997 98C76.0885 98 98 76.0867 98 48.999Z" fill="#009BEF"/>
<path fill-rule="evenodd" clip-rule="evenodd" d="M97.9999 48.999C97.9999 48.0068 97.9999 47.0127 97.9294 46.0213L79.5 36C74 38.9998 73.4923 38.0001 72.5 38.0001C57.4654 38.0001 52.9629 33.3975 38 33.3975C36.9372 33.3975 39.0615 35.5 38 35.5C38 36.5636 37.5 33.9374 37.5 35.0002C37.5 36.7027 40.5 41.729 40.5 43.5C40.5 54.704 19 36.2972 19 47.5L18 55.5C20.5 58 53.8225 97.6418 54.9558 97.6418C79.2099 94.7367 97.9999 74.0318 97.9999 48.999Z" fill="#0085CC"/>
<g clip-path="url(#clip1_249_1108)">
<path d="M80.7188 37.9025V56.6932C80.7188 57.2733 80.4883 57.8297 80.078 58.24C79.6678 58.6502 79.1114 58.8807 78.5312 58.8807H67.6389C64.6343 58.8822 61.7247 59.933 59.4125 61.8516C53.4105 66.8295 55.1141 65.4568 53.2287 66.9279C52.6463 67.3531 52.098 67.7141 50.5955 68.76C49.8566 69.2144 49.0005 69.4418 48.1335 69.4139C47.2665 69.3859 46.4268 69.1039 45.7188 68.6027L28.7191 56.6084C28.35 56.3477 27.9091 56.2078 27.4572 56.2078H19.4688C18.8886 56.2078 18.3322 55.9773 17.922 55.5671C17.5117 55.1569 17.2812 54.6005 17.2812 54.0203V37.9025C17.2812 37.3224 17.5117 36.766 17.922 36.3557C18.3322 35.9455 18.8886 35.715 19.4688 35.715H27.3055C27.85 35.7153 28.375 35.5125 28.7779 35.1463L34.7252 29.7391C35.54 28.9983 36.6017 28.5879 37.7029 28.5879H60.2971C61.3983 28.5879 62.46 28.9983 63.2748 29.7391L69.2221 35.1463C69.625 35.5125 70.15 35.7153 70.6945 35.715H78.5312C79.1114 35.715 79.6678 35.9455 80.078 36.3557C80.4883 36.766 80.7188 37.3224 80.7188 37.9025Z" fill="#FFEBD2"/>
<path d="M61.0312 50.951C62.1851 52.6226 62.6658 54.668 62.3774 56.6786C62.089 58.6892 61.0526 60.517 59.4754 61.7969C52.3865 67.5992 55.2863 65.4883 50.5969 68.7559C49.8582 69.2112 49.0021 69.4395 48.1348 69.4122C47.2675 69.385 46.4274 69.1035 45.7188 68.6027L28.7191 56.6084C28.35 56.3477 27.9091 56.2078 27.4572 56.2078H19.4688C18.8886 56.2078 18.3322 55.9773 17.922 55.5671C17.5117 55.1569 17.2812 54.6005 17.2812 54.0203V37.9025C17.2812 37.3224 17.5117 36.766 17.922 36.3557C18.3322 35.9455 18.8886 35.715 19.4688 35.715H27.3055C27.85 35.7153 28.375 35.5125 28.7779 35.1463L34.7252 29.7391C35.54 28.9983 36.6017 28.5879 37.7029 28.5879H50.7773C49.6431 28.5879 48.5553 29.0384 47.7531 29.8402L40.5234 37.0699C38.876 38.7105 38.716 41.3779 40.2363 43.1443C40.9074 43.9249 41.8293 44.4474 42.8438 44.6221C43.8583 44.7967 44.9019 44.6126 45.7953 44.1014L49.7752 41.8223C50.7328 41.2748 51.8602 41.1045 52.9367 41.3447C54.0133 41.585 54.9614 42.2184 55.5953 43.1211L61.0312 50.951Z" fill="#FFDFBA"/>
<path d="M50.7774 28.5879C47.7695 29.0623 46.6361 31.0898 43.5313 34.0566H43.1717C42.0705 34.0567 41.0088 34.4671 40.194 35.2078L34.2467 40.615C33.8438 40.9813 33.3187 41.1841 32.7742 41.1838H24.2977C23.8869 41.1845 23.4933 41.3482 23.2031 41.6389C22.913 41.9295 22.75 42.3235 22.75 42.7342V50.1922C22.7501 50.6462 22.6559 51.0952 22.4735 51.511C22.2911 51.9267 22.0245 52.3001 21.6903 52.6074C21.3562 52.9148 20.962 53.1495 20.5325 53.2967C20.1031 53.4439 19.6477 53.5003 19.1953 53.4625C18.6721 53.4173 18.185 53.1771 17.8305 52.7897C17.476 52.4023 17.28 51.8958 17.2813 51.3707V37.2654C17.2813 36.8542 17.4446 36.4599 17.7354 36.1691C18.0261 35.8784 18.4205 35.715 18.8316 35.715H27.3082C27.8527 35.7153 28.3777 35.5125 28.7807 35.1463L34.7279 29.7391C35.5428 28.9983 36.6045 28.5879 37.7057 28.5879H50.7774Z" fill="#FFEBD2"/>
<path d="M63.2747 29.7391C63.5281 29.9692 63.7059 30.2706 63.7848 30.6037C63.8636 30.9368 63.8398 31.286 63.7164 31.6053C63.593 31.9246 63.3758 32.199 63.0935 32.3925C62.8111 32.5861 62.4768 32.6896 62.1345 32.6895H57.6132C56.479 32.6895 55.3912 33.1399 54.589 33.9418C46.7304 41.8004 46.9067 41.4873 46.4487 42.4717C45.3468 44.841 42.2446 45.4795 40.2362 43.1443C38.7159 41.3779 38.869 38.7174 40.5233 37.0699L47.753 29.8402C48.5552 29.0384 49.643 28.5879 50.7773 28.5879H60.3024C61.4018 28.5893 62.4613 28.9996 63.2747 29.7391Z" fill="#FFF3E4"/>
<path d="M63.8325 70.3979C69.4956 70.3979 74.0864 65.8071 74.0864 60.144C74.0864 54.481 69.4956 49.8901 63.8325 49.8901C58.1694 49.8901 53.5786 54.481 53.5786 60.144C53.5786 65.8071 58.1694 70.3979 63.8325 70.3979Z" fill="#00BC5B"/>
<path d="M64.6897 54.5154C63.1976 55.0479 61.842 55.9046 60.7205 57.0237C59.5991 58.1428 58.7395 59.4966 58.2038 60.9876C57.3247 63.4773 53.5786 63.0097 53.5786 60.1441C53.5786 54.4716 58.2858 49.8109 63.9761 49.8902C66.6462 49.9284 67.2095 53.6308 64.6897 54.5154Z" fill="#3FC700"/>
<path d="M68.7941 57.75C68.7941 57.9275 68.7264 58.105 68.5909 58.2403L63.0421 63.7891C62.9072 63.9252 62.7295 63.9924 62.5517 63.9924C62.374 63.9924 62.1967 63.9246 62.0614 63.7892L59.2871 61.0148C59.1516 60.8799 59.0837 60.7021 59.0837 60.5244C59.0837 60.1282 59.4078 59.8308 59.7773 59.8308C59.9548 59.8308 60.1324 59.8985 60.2676 60.034L62.5517 62.3191L67.6107 57.2601C67.745 57.1242 67.9228 57.0564 68.1005 57.0564C68.4711 57.0564 68.7941 57.3533 68.7941 57.75Z" fill="white"/>
</g>
</g>
<defs>
<clipPath id="clip0_249_1108">
<rect width="98" height="98" fill="white"/>
</clipPath>
<clipPath id="clip1_249_1108">
<rect width="70" height="70" fill="white" transform="translate(14 14)"/>
</clipPath>
</defs>
</svg>
