<svg width="98" height="98" viewBox="0 0 98 98" fill="none" xmlns="http://www.w3.org/2000/svg">
<g clip-path="url(#clip0_249_1181)">
<path fill-rule="evenodd" clip-rule="evenodd" d="M49.0002 0C76.0734 0 97.9998 21.9272 97.9998 48.999C97.9998 76.0728 76.0734 98 49.0002 98C21.9256 98 0 76.0728 0 48.999C0 21.9272 21.9256 0 49.0002 0Z" fill="#0070EF"/>
<path fill-rule="evenodd" clip-rule="evenodd" d="M96.8743 41.8211C98 43.5 98 48.5628 98 52.1306C98 76.8502 78.5173 96.9402 53.9995 98C53.9995 97.5367 22.1126 72.4809 19 70.5C19 57.2134 39.5 56.217 39.5 43L71 32.5C71.928 33.7568 96.6091 41.8211 96.8743 41.8211Z" fill="#005DC7"/>
<g clip-path="url(#clip1_249_1181)">
<path d="M29.7844 72.256L18.8845 70.5027L19.7829 65.0361L30.6828 66.7896L29.7844 72.256Z" fill="#0090DD"/>
<path d="M67.2155 72.256L78.1155 70.5027L77.2171 65.0361L66.3171 66.7896L67.2155 72.256Z" fill="#0090DD"/>
<path d="M56.2883 24H40.7119C39.6246 24 38.7432 24.8719 38.7432 25.9474V33.2063C38.7432 34.2817 39.6246 35.1537 40.7119 35.1537H56.2883C57.3755 35.1537 58.257 34.2817 58.257 33.2063V25.9474C58.257 24.8719 57.3755 24 56.2883 24Z" fill="#005B8C"/>
<path d="M56.2882 24H53.2832C54.3704 24 55.2519 24.8719 55.2519 25.9474V33.2063C55.2519 34.2817 54.3704 35.1537 53.2832 35.1537H56.2882C57.3754 35.1537 58.2569 34.2817 58.2569 33.2063V25.9474C58.2569 24.8719 57.3754 24 56.2882 24Z" fill="#009BEF"/>
<path d="M74.5476 36.5618C73.8328 33.325 70.5819 31.2645 67.3001 31.9681L60.7528 33.3716C59.159 33.7134 57.7965 34.6477 56.9159 36.0026C56.0392 37.3524 55.7465 38.9584 56.0921 40.5249C56.7121 43.3333 59.2417 45.2564 62.0443 45.2564C62.4716 45.2564 62.9056 45.2117 63.3396 45.1185L69.8869 43.715C71.4807 43.3727 72.8433 42.4385 73.7238 41.0835C74.6004 39.7339 74.8931 38.1279 74.5476 36.5618Z" fill="#005888"/>
<path d="M76.3537 44.7469C75.639 41.5101 72.3875 39.4496 69.1063 40.1528L62.559 41.5568C60.9652 41.8986 59.6026 42.8328 58.7221 44.1877C57.8454 45.538 57.5527 47.1435 57.8982 48.71C58.5183 51.5184 61.0478 53.4415 63.8505 53.4415C64.2777 53.4415 64.7117 53.3969 65.1458 53.3036L71.6931 51.8997C73.2869 51.5579 74.65 50.6236 75.53 49.2687C76.4066 47.919 76.6993 46.313 76.3537 44.7469Z" fill="#44BDFF"/>
<path d="M78.1062 52.6876C77.3914 49.4508 74.139 47.3903 70.8587 48.0935L64.3114 49.4974C62.7176 49.8392 61.3551 50.7735 60.4745 52.1284C59.5978 53.4787 59.3051 55.0842 59.6507 56.6507C60.2707 59.4591 62.8003 61.3822 65.6029 61.3822C66.0302 61.3822 66.4642 61.3375 66.8982 61.2443L73.4455 59.8404C75.0393 59.4985 76.4024 58.5643 77.2824 57.2094C78.159 55.8597 78.4517 54.2537 78.1062 52.6876Z" fill="#005888"/>
<path d="M79.8586 60.6281C79.1443 57.3909 75.8938 55.3304 72.6111 56.034L66.0639 57.438C64.4701 57.7798 63.1075 58.714 62.227 60.069C61.3503 61.4188 61.0576 63.0248 61.4031 64.5913C62.0232 67.3997 64.5527 69.3228 67.3554 69.3228C67.7826 69.3228 68.2166 69.2781 68.6507 69.1849L75.1979 67.7809C76.7918 67.4391 78.1548 66.5049 79.0349 65.1499C79.9115 63.8002 80.2042 62.1941 79.8586 60.6281Z" fill="#44BDFF"/>
<path d="M40.084 36.0027C39.2034 34.6477 37.8409 33.7135 36.2471 33.3717L29.6999 31.9682C26.4167 31.2636 23.1666 33.325 22.4524 36.5618C22.1069 38.1279 22.3996 39.7339 23.2763 41.0836C24.1568 42.4386 25.5194 43.3728 27.1132 43.7152L33.6605 45.1187C34.095 45.2119 34.5285 45.2565 34.9558 45.2565C37.7579 45.2565 40.288 43.3334 40.908 40.525C41.2534 38.9584 40.9607 37.3524 40.084 36.0027Z" fill="#005888"/>
<path d="M38.2779 44.1877C37.3974 42.8328 36.0348 41.8986 34.441 41.5568L27.8938 40.1528C24.6096 39.4496 21.3609 41.5101 20.6463 44.7469C20.3007 46.313 20.5934 47.919 21.4701 49.2687C22.3501 50.6236 23.7132 51.5579 25.307 51.8997L31.8543 53.3036C32.2888 53.3969 32.7224 53.4415 33.1496 53.4415C35.9522 53.4415 38.4818 51.5184 39.1019 48.71C39.4473 47.1435 39.1545 45.538 38.2779 44.1877Z" fill="#44BDFF"/>
<path d="M36.5255 52.1284C35.6449 50.7735 34.2824 49.8392 32.6886 49.4974L26.1413 48.0935C22.8585 47.3903 19.6085 49.4508 18.8938 52.6876C18.5483 54.2537 18.841 55.8596 19.7177 57.2094C20.5977 58.5643 21.9608 59.4985 23.5546 59.8404L30.1019 61.2443C30.5364 61.3375 30.9694 61.3822 31.3972 61.3822C34.1993 61.3822 36.7294 59.4586 37.3494 56.6507C37.6948 55.0841 37.4021 53.4786 36.5255 52.1284Z" fill="#005888"/>
<path d="M34.773 60.0689C33.8925 58.7139 32.53 57.7797 30.9361 57.4379L24.3889 56.0339C21.1042 55.3298 17.856 57.3912 17.1414 60.628C16.7959 62.1941 17.0886 63.8 17.9653 65.1498C18.8453 66.5048 20.2083 67.439 21.8022 67.7808L28.3494 69.1848C28.784 69.278 29.2175 69.3226 29.6448 69.3226C32.4473 69.3226 34.9769 67.3995 35.597 64.5911C35.9424 63.0246 35.6497 61.4187 34.773 60.0689Z" fill="#44BDFF"/>
<path d="M62.0727 31.259H34.9273C31.0866 31.259 27.9614 34.3498 27.9614 38.149C27.9614 41.9481 31.0866 45.0389 34.9273 45.0389H62.0727C65.9135 45.0389 69.0386 41.9481 69.0386 38.149C69.0386 34.3498 65.9134 31.259 62.0727 31.259Z" fill="#009BEF"/>
<path d="M62.0729 31.259H57.3972C61.238 31.259 64.3631 34.3498 64.3631 38.149C64.3631 41.9481 61.238 45.0389 57.3972 45.0389H62.0729C65.9136 45.0389 69.0388 41.9481 69.0388 38.149C69.0388 34.3498 65.9135 31.259 62.0729 31.259Z" fill="#0091DE"/>
<path d="M62.0727 41.4482H34.9273C31.0866 41.4482 27.9614 44.5395 27.9614 48.3387C27.9614 52.1379 31.0866 55.2286 34.9273 55.2286H62.0727C65.9135 55.2286 69.0386 52.1379 69.0386 48.3387C69.0386 44.5395 65.9134 41.4482 62.0727 41.4482Z" fill="#0090DD"/>
<path d="M62.0729 41.4482H57.3972C61.238 41.4482 64.3631 44.5395 64.3631 48.3387C64.3631 52.1379 61.238 55.2286 57.3972 55.2286H62.0729C65.9136 55.2286 69.0388 52.1379 69.0388 48.3387C69.0388 44.5395 65.9135 41.4482 62.0729 41.4482Z" fill="#0081C6"/>
<path d="M62.0727 51.334H34.9273C31.0866 51.334 27.9614 54.4247 27.9614 58.2244C27.9614 62.0236 31.0866 65.1144 34.9273 65.1144H62.0727C65.9135 65.1144 69.0386 62.0236 69.0386 58.2244C69.0385 54.4247 65.9134 51.334 62.0727 51.334Z" fill="#009BEF"/>
<path d="M62.0729 51.334H57.3972C61.238 51.334 64.3631 54.4247 64.3631 58.2244C64.3631 62.0236 61.238 65.1144 57.3972 65.1144H62.0729C65.9136 65.1144 69.0388 62.0236 69.0388 58.2244C69.0387 54.4247 65.9135 51.334 62.0729 51.334Z" fill="#0091DE"/>
<path d="M62.0727 61.2197H34.9273C31.0866 61.2197 27.9614 64.311 27.9614 68.1102C27.9614 71.9094 31.0866 75.0001 34.9273 75.0001H62.0727C65.9135 75.0001 69.0386 71.9094 69.0386 68.1102C69.0386 64.311 65.9134 61.2197 62.0727 61.2197Z" fill="#0090DD"/>
<path d="M62.0729 61.2197H57.3972C61.238 61.2197 64.3631 64.311 64.3631 68.1102C64.3631 71.9094 61.238 75.0001 57.3972 75.0001H62.0729C65.9136 75.0001 69.0388 71.9094 69.0388 68.1102C69.0388 64.311 65.9135 61.2197 62.0729 61.2197Z" fill="#0081C6"/>
<path d="M50 34.0953C50 32.9384 49.3284 32 48.5 32C47.6716 32 47 32.9383 47 34.0953V75H50V34.0953Z" fill="#0081C6"/>
</g>
</g>
<defs>
<clipPath id="clip0_249_1181">
<rect width="98" height="98" fill="white"/>
</clipPath>
<clipPath id="clip1_249_1181">
<rect width="63" height="51" fill="white" transform="translate(17 24)"/>
</clipPath>
</defs>
</svg>
