<?xml version="1.0" encoding="utf-8"?><svg viewBox="0 0 58 64" xmlns="http://www.w3.org/2000/svg" xmlns:xlink="http://www.w3.org/1999/xlink"><style>:root>svg{display:none}:root>svg:target{display:block}</style><svg fill="none" viewBox="0 0 8 12" id="arr-l" xmlns="http://www.w3.org/2000/svg"><path d="M6.888.142a.833.833 0 01.549 1.476l-5.1 4.368 5.1 4.367a.833.833 0 11-1.083 1.262L.516 6.62a.833.833 0 010-1.268l5.838-5a.833.833 0 01.534-.21z" fill="currentColor"/></svg><svg fill="none" viewBox="0 0 8 12" id="arr-r" xmlns="http://www.w3.org/2000/svg"><path d="M1.112.142a.833.833 0 00-.549 1.476l5.1 4.368-5.1 4.367a.833.833 0 101.083 1.262L7.484 6.62a.833.833 0 000-1.268l-5.838-5a.833.833 0 00-.534-.21z" fill="currentColor"/></svg><svg fill="none" viewBox="0 0 24 24" id="email" xmlns="http://www.w3.org/2000/svg"><g clip-path="url(#cclip0_803_4)" fill="currentColor"><path d="M15.551 12.996l-2.01 2.017c-.815.818-2.25.835-3.082 0l-2.01-2.017-7.22 7.243c.27.124.565.198.88.198h19.782c.315 0 .61-.074.88-.198l-7.22-7.243z"/><path d="M21.89 3.563H2.11c-.316 0-.612.074-.88.198l7.714 7.74.002.001v.001l2.509 2.517c.266.267.824.267 1.09 0l2.508-2.516.002-.002h.001L22.77 3.76a2.087 2.087 0 00-.88-.199zM.224 4.744A2.083 2.083 0 000 5.672v12.656c0 .334.085.646.224.928L7.456 12 .224 4.744zM23.776 4.744L16.544 12l7.232 7.256c.139-.282.224-.593.224-.928V5.672c0-.335-.085-.647-.224-.928z"/></g><defs><clipPath id="cclip0_803_4"><path fill="#fff" d="M0 0h24v24H0z"/></clipPath></defs></svg><svg fill="none" viewBox="0 0 24 24" id="facebook" xmlns="http://www.w3.org/2000/svg"><path d="M20.484 0H3.516A3.52 3.52 0 000 3.516v16.968A3.52 3.52 0 003.516 24h7.078v-8.484H7.78v-4.22h2.813V8.439a4.223 4.223 0 014.219-4.22h4.265v4.22h-4.265v2.859h4.265l-.703 4.219h-3.563V24h5.672A3.52 3.52 0 0024 20.484V3.516A3.52 3.52 0 0020.484 0z" fill="currentColor"/></svg><svg fill="none" viewBox="0 0 24 24" id="instagram" xmlns="http://www.w3.org/2000/svg"><path d="M18.977 4.44a.583.583 0 100 1.168.583.583 0 000-1.167zM12 6.835A5.171 5.171 0 006.835 12 5.171 5.171 0 0012 17.166 5.171 5.171 0 0017.166 12 5.171 5.171 0 0012 6.835z" fill="currentColor"/><path d="M17.42 0H6.58A6.587 6.587 0 000 6.58v10.84A6.587 6.587 0 006.58 24h10.84A6.587 6.587 0 0024 17.42V6.58A6.587 6.587 0 0017.42 0zM12 18.583A6.59 6.59 0 015.417 12 6.59 6.59 0 0112 5.417 6.59 6.59 0 0118.583 12 6.59 6.59 0 0112 18.583zm6.977-11.56c-1.103 0-2-.897-2-2 0-1.102.897-2 2-2 1.102 0 2 .898 2 2 0 1.103-.898 2-2 2z" fill="currentColor"/></svg><svg fill="none" viewBox="0 0 18 24" id="location" xmlns="http://www.w3.org/2000/svg"><path d="M9 0C4.038 0 0 4.066 0 9.065c0 7.103 8.154 14.437 8.501 14.745a.749.749 0 00.998.001C9.846 23.502 18 16.168 18 9.065 18 4.066 13.962 0 9 0zm0 14c-2.757 0-5-2.243-5-5s2.243-5 5-5 5 2.243 5 5-2.243 5-5 5z" fill="currentColor"/></svg><svg fill="none" viewBox="0 0 24 24" id="phone" xmlns="http://www.w3.org/2000/svg"><path d="M22.074 15.753c-1.47 0-2.912-.23-4.28-.681-.669-.229-1.493-.02-1.901.4l-2.699 2.038c-3.13-1.67-5.057-3.598-6.705-6.704l1.977-2.628a1.94 1.94 0 00.477-1.966 13.647 13.647 0 01-.684-4.286A1.928 1.928 0 006.333 0H1.926A1.928 1.928 0 000 1.926C0 14.098 9.902 24 22.074 24A1.928 1.928 0 0024 22.074V17.68a1.928 1.928 0 00-1.926-1.926z" fill="currentColor"/></svg><svg fill="none" viewBox="0 0 58 64" id="play" xmlns="http://www.w3.org/2000/svg"><path d="M10.614 1.411C4.844-1.899.166.813.166 7.462v49.071c0 6.656 4.678 9.364 10.448 6.057l42.89-24.597c5.772-3.31 5.772-8.675 0-11.985L10.614 1.411z" fill="currentColor"/></svg><svg fill="none" viewBox="0 0 24 20" id="telegram" xmlns="http://www.w3.org/2000/svg"><path d="M9.417 13.18l-.397 5.585c.568 0 .814-.244 1.109-.537l2.663-2.545 5.518 4.04c1.012.565 1.725.268 1.998-.93L23.93 1.82l.001-.001C24.252.324 23.39-.261 22.404.106l-21.29 8.15C-.339 8.822-.317 9.632.867 9.999L6.31 11.69 18.953 3.78c.595-.394 1.136-.176.691.218L9.417 13.18z" fill="currentColor"/></svg><svg fill="none" viewBox="0 0 24 24" id="tiktok" xmlns="http://www.w3.org/2000/svg"><path d="M12.249.02C13.576 0 14.895.012 16.213 0c.08 1.53.638 3.09 1.774 4.172 1.134 1.11 2.738 1.618 4.299 1.79v4.026c-1.463-.047-2.932-.347-4.26-.968-.577-.258-1.116-.59-1.642-.93-.007 2.922.012 5.84-.02 8.75a7.545 7.545 0 01-1.37 3.942C13.666 22.7 11.363 23.95 9 23.99c-1.45.082-2.9-.308-4.135-1.027-2.048-1.19-3.49-3.371-3.7-5.711-.024-.5-.032-1-.012-1.488A7.464 7.464 0 013.773 10.8c1.679-1.442 4.031-2.129 6.234-1.723.02 1.482-.04 2.962-.04 4.443-1.006-.321-2.182-.231-3.06.371a3.471 3.471 0 00-1.384 1.75c-.21.507-.15 1.07-.138 1.609.241 1.641 1.841 3.02 3.55 2.871 1.132-.012 2.217-.66 2.807-1.609.191-.332.405-.672.416-1.063.1-1.788.06-3.57.072-5.359.009-4.031-.013-8.052.019-12.07z" fill="currentColor"/></svg><svg fill="none" viewBox="0 0 24 24" id="twitter" xmlns="http://www.w3.org/2000/svg"><path d="M7.548 22.548c9.056 0 14.01-7.503 14.01-14.01 0-.213 0-.425-.015-.637A10.02 10.02 0 0024 5.353a9.828 9.828 0 01-2.828.774 4.94 4.94 0 002.165-2.723 9.867 9.867 0 01-3.127 1.195 4.929 4.929 0 00-8.391 4.49A13.98 13.98 0 011.67 3.946a4.928 4.928 0 001.525 6.573A4.887 4.887 0 01.96 9.902v.062a4.926 4.926 0 003.95 4.827 4.915 4.915 0 01-2.223.085 4.93 4.93 0 004.6 3.42A9.88 9.88 0 010 20.335a13.94 13.94 0 007.548 2.208" fill="currentColor"/></svg><svg fill="none" viewBox="0 0 22 24" id="viber" xmlns="http://www.w3.org/2000/svg"><path d="M13.399 0H8.6C3.983 0 .204 3.778.204 8.396v3.599a8.428 8.428 0 004.798 7.587V23.6c0 .36.45.54.69.27l3.478-3.479H13.4c4.618 0 8.396-3.778 8.396-8.396V8.397C21.795 3.777 18.017 0 13.4 0zm3.148 15.743l-1.23 1.2c-1.289 1.26-4.617-.18-7.556-3.179-2.939-2.998-4.228-6.357-2.999-7.617l1.2-1.2c.45-.449 1.2-.419 1.71.03l1.738 1.8c.63.63.36 1.71-.45 1.95-.57.18-.959.809-.78 1.379.3 1.32 1.98 2.998 3.24 3.328.57.12 1.199-.18 1.409-.75.27-.809 1.35-1.049 1.95-.42l1.738 1.8c.48.42.48 1.17.03 1.68zM12.08 5.698c-.12 0-.24 0-.36.03-.21.03-.42-.15-.45-.36-.03-.21.15-.42.36-.45.15-.03.3-.03.45-.03 2.19 0 3.989 1.8 3.989 3.988 0 .15 0 .3-.03.45-.03.21-.24.39-.45.36-.21-.03-.39-.24-.36-.45 0-.12.03-.24.03-.36.03-1.739-1.41-3.178-3.179-3.178zm2.4 3.208c0 .21-.18.39-.39.39-.21 0-.39-.18-.39-.39a1.6 1.6 0 00-1.59-1.59c-.21.001-.39-.179-.39-.389 0-.21.18-.39.39-.39 1.29-.03 2.37 1.05 2.37 2.37zm3.058 1.29a.42.42 0 01-.51.3.385.385 0 01-.27-.48c.09-.36.12-.72.12-1.11a4.812 4.812 0 00-4.798-4.798h-.36c-.21 0-.42-.15-.42-.36s.15-.42.36-.42c.15 0 .3-.03.42-.03a5.618 5.618 0 015.608 5.608c0 .42-.06.87-.15 1.29z" fill="currentColor"/></svg><svg fill="none" viewBox="0 0 24 24" id="whatsapp" xmlns="http://www.w3.org/2000/svg"><path d="M12.003 0h-.006C5.38 0 0 5.382 0 12c0 2.625.846 5.058 2.284 7.034L.79 23.49l4.613-1.474A11.896 11.896 0 0012.003 24C18.619 24 24 18.616 24 12c0-6.617-5.38-12-11.997-12zm6.982 16.945c-.289.818-1.438 1.496-2.354 1.694-.628.134-1.447.24-4.204-.903-3.526-1.461-5.797-5.045-5.974-5.277-.17-.232-1.425-1.897-1.425-3.62 0-1.722.875-2.56 1.227-2.92.29-.295.768-.43 1.227-.43.148 0 .282.007.402.013.352.015.53.036.762.593.29.697.994 2.419 1.079 2.596.085.177.17.417.05.65-.112.24-.211.346-.388.55-.177.204-.345.36-.522.579-.162.19-.345.394-.141.747.204.345.909 1.495 1.947 2.42 1.34 1.192 2.426 1.573 2.814 1.735.29.12.635.091.846-.133.269-.29.6-.77.938-1.243.24-.338.543-.38.86-.26.324.112 2.039.96 2.391 1.135.353.177.585.261.671.41.084.148.084.845-.206 1.664z" fill="currentColor"/></svg></svg>