<svg width="64" height="52" viewBox="0 0 64 52" fill="none" xmlns="http://www.w3.org/2000/svg">
<path d="M58.686 10.4144H58.1372C57.816 7.71345 55.6006 5.57201 52.832 5.30993C52.5141 2.39817 49.9966 0.122559 46.9463 0.122559H9.169C4.11325 0.122559 0 4.1582 0 9.11807V35.106C0 38.1198 2.35062 40.6038 5.34662 40.888C5.66112 43.7686 8.12937 46.0249 11.1357 46.0724C11.1425 46.5711 11.2224 47.0663 11.373 47.5426C12.0464 49.6635 14.0669 51.2075 16.4473 51.2075H58.686C61.6162 51.2075 64 48.8688 64 45.9943V15.6281C64 12.7532 61.6162 10.4144 58.686 10.4144ZM61.5 15.6281V35.7092L56.0625 31.6792C54.5766 30.5784 52.5675 30.5611 51.0625 31.6366L44.1841 36.5538L31.0669 23.2855C29.5044 21.7046 26.9619 21.6074 25.2787 23.0647L13.6337 33.1446V15.6281C13.6337 14.1057 14.896 12.8672 16.4473 12.8672H58.686C60.2378 12.8672 61.5 14.1057 61.5 15.6281ZM61.5 45.9938C61.5 47.5163 60.2378 48.7547 58.6865 48.7547H16.4473C15.187 48.7547 14.1172 47.9369 13.7607 46.814C13.6764 46.5487 13.6335 46.2723 13.6337 45.9943V36.4154L26.9331 24.9037C27.2597 24.6201 27.6852 24.4711 28.121 24.4877C28.5569 24.5043 28.9693 24.6853 29.2725 24.9929L35.1925 30.9812C35.1925 30.9817 35.1925 30.9817 35.1929 30.9817L46.9756 42.9005C47.092 43.0187 47.2315 43.1126 47.3857 43.1766C47.5399 43.2406 47.7057 43.2735 47.8731 43.2732C48.1865 43.2732 48.5005 43.1582 48.7431 42.9274C49.2383 42.4555 49.2505 41.6794 48.77 41.1931L45.9419 38.3321L52.5346 33.6195C53.1431 33.1845 53.9551 33.1912 54.5556 33.6363L61.5 38.7828V45.9938ZM7.8125 40.2656V11.3087C7.8125 11.1857 7.81875 11.0634 7.8315 10.9437C8.01813 9.14407 9.57225 7.73492 11.4551 7.73492H26.7451C27.4355 7.73492 27.9951 7.18597 27.9951 6.5085C27.9951 5.83115 27.4355 5.28209 26.7451 5.28209H11.455C8.06787 5.28209 5.3125 7.98547 5.3125 11.3087V38.4096C3.71537 38.1276 2.5 36.7536 2.5 35.106V9.11807C2.5 5.51069 5.49175 2.57539 9.169 2.57539H46.9463C48.6055 2.57539 49.9926 3.74097 50.3018 5.28209H36.7451C36.0546 5.28209 35.4951 5.83115 35.4951 6.5085C35.4951 7.18597 36.0546 7.73492 36.7451 7.73492H52.2588C53.9081 7.73492 55.2889 8.88713 55.6087 10.4144H16.4473C13.5176 10.4144 11.1337 12.7532 11.1337 15.6281V43.6196C9.2935 43.5683 7.8125 42.0837 7.8125 40.2656Z" fill="#00AE27"/>
<path d="M48.5646 17.8586C45.6144 17.8586 43.215 20.2133 43.215 23.1068C43.215 26.0009 45.6149 28.3555 48.5646 28.3555C51.5137 28.3555 53.9137 26.0008 53.9137 23.1068C53.9137 20.2132 51.5137 17.8586 48.5646 17.8586ZM48.5646 25.9027C46.9934 25.9027 45.715 24.6484 45.715 23.1073C45.715 21.5657 46.9932 20.3114 48.5646 20.3114C50.1354 20.3114 51.4137 21.5657 51.4137 23.1073C51.4137 24.6484 50.1354 25.9027 48.5646 25.9027ZM30.5914 6.97796C30.6226 7.05179 30.6614 7.12268 30.7061 7.18927C30.7515 7.25631 30.8035 7.31875 30.8615 7.37569C30.919 7.43173 30.9825 7.48349 31.0515 7.52899C31.1881 7.61767 31.3409 7.67963 31.5015 7.71148C31.6628 7.74287 31.8289 7.74287 31.9902 7.71148C32.07 7.69566 32.1476 7.67223 32.2237 7.64157C32.299 7.61085 32.3711 7.57315 32.4391 7.52899C32.5071 7.48373 32.5707 7.43241 32.6291 7.37569C32.6874 7.31877 32.7397 7.25632 32.7854 7.18927C32.8302 7.12268 32.8687 7.05179 32.9 6.97796C32.9312 6.90327 32.9552 6.82613 32.9712 6.74899C33.003 6.59066 33.003 6.42779 32.9712 6.26946C32.9552 6.19086 32.9314 6.11401 32.9 6.04C32.8379 5.89058 32.7458 5.75501 32.629 5.64141C32.571 5.58459 32.5073 5.53357 32.439 5.48909C32.371 5.44494 32.299 5.40724 32.2237 5.37651C32.1475 5.34585 32.07 5.3223 31.9904 5.3066C31.8291 5.27451 31.6629 5.27451 31.5016 5.3066C31.341 5.33842 31.1881 5.40039 31.0514 5.48909C30.9826 5.53361 30.9191 5.58488 30.8614 5.64141C30.8036 5.69795 30.7516 5.76025 30.7061 5.82783C30.6608 5.89466 30.6224 5.96573 30.5914 6.04C30.56 6.11401 30.5361 6.19086 30.5201 6.26946C30.5037 6.34817 30.4954 6.42828 30.4951 6.50861C30.4951 6.58808 30.504 6.66903 30.5201 6.74899C30.5364 6.82625 30.5601 6.90327 30.5914 6.97796Z" fill="#00AE27"/>
</svg>
