<svg width="70" height="70" viewBox="0 0 70 70" fill="none" xmlns="http://www.w3.org/2000/svg">
<path fill-rule="evenodd" clip-rule="evenodd" d="M42.9217 0.238908C42.4702 0.604942 42.4633 1.4278 42.9086 1.78891C43.1865 2.01425 43.4762 2.04474 45.3414 2.04474C47.2649 2.04474 47.507 2.07209 47.9892 2.34336C48.9812 2.90164 49.3257 4.22221 48.7204 5.14707C48.2786 5.82226 47.9063 5.87326 43.4269 5.87326H39.2812L38.9841 6.18966C38.5604 6.64129 38.5919 7.28243 39.0557 7.64764C39.4166 7.93191 39.5143 7.93697 43.8696 7.8969L48.3151 7.85588L49.0167 7.48534C51.3732 6.24093 51.8029 3.14407 49.8856 1.22434C48.8675 0.204999 48.391 0.0693597 45.6462 0.0175379C43.4364 -0.0240288 43.2249 -0.00693724 42.9217 0.238908ZM25.8501 6.0011C22.8398 6.92118 21.7246 10.5966 23.7402 12.9542C24.0282 13.2912 24.5909 13.7003 25.1358 13.9689L26.0487 14.4191L34.6554 14.4874C41.294 14.5402 43.3321 14.5959 43.5681 14.7308C43.9918 14.9732 44.2864 15.6004 44.2864 16.2602C44.2864 16.7022 44.1908 16.9205 43.8191 17.3267L43.3519 17.8374L38.1175 17.9057C33.151 17.9706 32.8518 17.9889 32.2687 18.2632C31.5467 18.6029 30.7386 19.3827 30.4266 20.0412C29.9834 20.9762 29.8049 23.1989 30.0903 24.228C30.2986 24.9785 31.0567 25.265 31.6622 24.822C31.8916 24.6541 31.9382 24.3974 32.0081 22.9167C32.095 21.0769 32.2152 20.7245 32.9129 20.2663C33.2425 20.0499 33.813 20.0181 38.476 19.9567L43.6719 19.8884L44.4146 19.4782C45.1752 19.0583 45.8534 18.2682 46.1538 17.4523C46.242 17.2129 46.3174 16.617 46.3215 16.1282C46.3332 14.7212 45.6932 13.6141 44.4428 12.8781L43.8084 12.5048L35.0683 12.4364L26.3281 12.3681L25.8118 12.0466C24.4435 11.1949 24.4202 9.28132 25.7659 8.27456C26.1237 8.00684 26.3678 7.9892 30.6255 7.92425C34.788 7.86081 35.129 7.83729 35.3956 7.59541C35.7705 7.25549 35.7776 6.51508 35.4097 6.14672C35.1472 5.88392 34.9627 5.87367 30.664 5.88502C28.2042 5.89144 26.0379 5.94368 25.8501 6.0011ZM10.7957 12.5726C10.1824 12.7575 9.49906 13.2393 9.05618 13.7994C7.55998 15.6907 8.1625 18.4244 10.3317 19.5861C10.8722 19.8755 11.0847 19.8912 15.3346 19.9567C19.3231 20.0181 19.8099 20.0501 20.1369 20.2725C20.7168 20.6667 20.9338 21.4127 20.9338 23.0122C20.9338 24.3083 20.9592 24.4451 21.2498 24.7186C21.6398 25.0855 22.1657 25.0995 22.5916 24.7547C22.8891 24.5138 22.9175 24.3773 22.96 22.9848C23.035 20.5272 22.4803 19.2717 20.9338 18.3983L20.1827 17.9741L15.6994 17.9057L11.2162 17.8374L10.7489 17.3267C10.3755 16.9184 10.2817 16.703 10.2817 16.2539C10.2817 15.587 10.5852 15.0195 11.1066 14.7111C11.4271 14.5215 11.9635 14.4874 14.6298 14.4874C16.4755 14.4874 17.9292 14.4288 18.1483 14.3454C18.8983 14.0599 19.0876 13.4143 18.6022 12.7967L18.3193 12.4364L14.7443 12.4482C12.7781 12.4546 11.0013 12.5107 10.7957 12.5726ZM51.9653 13.0694C51.6137 13.2221 51.3838 13.8884 51.534 14.3195C51.7479 14.934 52.1424 15.0344 54.3439 15.0344C56.5592 15.0344 57.0409 15.1625 57.5577 15.8891C57.9787 16.4811 58.0317 17.4466 57.6744 18.0165C57.2513 18.6914 56.6924 18.8626 54.9087 18.8642C53.5825 18.8653 53.2729 18.9099 52.6852 19.1846C51.926 19.5393 51.0553 20.422 50.7551 21.1413C50.5258 21.6908 50.353 23.5892 50.4847 24.114C50.6961 24.9577 51.5922 25.2867 52.1814 24.7371C52.4314 24.5039 52.4804 24.308 52.4811 23.5406C52.4821 22.3738 52.6615 21.7317 53.1028 21.3165C53.426 21.0126 53.5948 20.9811 55.3222 20.9042C56.9748 20.8303 57.2732 20.7791 57.8935 20.4625C60.7249 19.0174 60.6615 15.0519 57.7816 13.4545C57.0602 13.0545 57.0388 13.0516 54.5971 13.0229C53.2451 13.007 52.0608 13.0279 51.9653 13.0694ZM15.8126 26.5728C14.9772 26.9689 14.3464 27.6142 13.9781 28.4491C13.7107 29.0552 13.6739 29.0824 13.0103 29.161C11.2575 29.3689 9.73546 30.9652 9.73546 32.5956C9.73546 32.9305 9.58251 33.1897 9.07271 33.7193C8.35888 34.4609 7.96011 35.3686 7.96011 36.2523C7.96011 36.7649 7.95042 36.7749 7.44799 36.7754C7.1664 36.7757 6.73908 36.896 6.49873 37.0429C5.84131 37.4442 5.63851 37.9595 5.63851 39.2292V40.3299H4.81365C3.8267 40.3299 3.07518 40.6671 2.61141 41.3181C2.33268 41.7096 2.28706 41.9542 2.24828 43.2697C2.20704 44.6618 2.22766 44.8092 2.52455 45.249C3.02807 45.9949 3.62158 46.3192 4.67286 46.423L5.60054 46.5145L5.68112 48.2421C5.90904 53.1265 7.95137 57.6883 11.5023 61.2439C12.2956 62.0382 13.3057 62.9338 13.7468 63.2339L14.549 63.7796L8.52576 63.848L2.50243 63.9163L2.05613 64.3629L1.60984 64.8096L1.56559 66.7088C1.51575 68.8494 1.62978 69.2618 2.40178 69.733C2.8321 69.9958 3.34271 70 35 70C66.6573 70 67.1679 69.9958 67.5982 69.733C68.3702 69.2618 68.4842 68.8494 68.4344 66.7088L68.3901 64.8096L67.9437 64.3629C67.521 63.9401 67.436 63.9137 66.3433 63.8683L65.1895 63.8202L65.4429 63.3214C65.5822 63.047 65.8353 62.3918 66.0052 61.8654C66.2818 61.0076 66.3205 60.5605 66.3765 57.5583C66.446 53.8457 66.3768 53.3275 65.7294 52.7064C65.3912 52.382 65.1706 52.3009 64.493 52.2518C63.7318 52.1967 63.6516 52.1591 63.451 51.7645C63.3314 51.5293 63.0388 51.06 62.8008 50.7216C62.4048 50.1587 62.3762 50.0481 62.4651 49.4227C62.5185 49.0466 62.5675 48.2402 62.5741 47.6304L62.5861 46.5219L63.4171 46.4349C64.4698 46.3247 65.098 46.0264 65.5641 45.4152C65.8982 44.9769 65.9362 44.8048 65.978 43.538C66.0177 42.3368 65.9845 42.0659 65.7393 41.5843C65.3263 40.7738 64.5083 40.3299 63.4276 40.3299H62.5861V39.2292C62.5861 37.5087 62.0054 36.7765 60.6401 36.7754L59.9914 36.7749V35.8806C59.9914 34.0296 58.8844 32.9495 56.9848 32.9472C56.378 32.9464 56.342 32.9198 54.7314 31.2911C53.8069 30.3558 52.8572 29.5243 52.5486 29.3797C51.9383 29.0939 51.1835 29.0465 50.6252 29.2589C50.2774 29.3913 50.1855 29.3325 49.1323 28.3033C47.539 26.7462 46.5862 26.3787 45.4087 26.8674C45.1294 26.9832 44.3782 27.5976 43.7393 28.2329L42.5776 29.3876L42.0377 29.2384C41.7408 29.1563 41.2452 28.882 40.9365 28.6286C37.936 26.1669 29.7712 26.2114 27.1475 28.7037C26.9222 28.9178 26.492 29.1597 26.1915 29.2413C25.4723 29.4368 25.4733 29.437 25.3674 29.1027C25.2061 28.5942 24.3005 27.7174 23.5968 27.3886C22.786 27.0097 21.4631 26.9561 20.7094 27.2713C20.2387 27.4683 20.2048 27.4624 19.792 27.1135C18.6941 26.1855 17.0895 25.9675 15.8126 26.5728ZM18.3049 28.5694C19.0715 29.0373 18.8402 29.3384 17.6562 29.414C17.168 29.4453 16.5593 29.5759 16.3037 29.7046C15.7218 29.9972 15.7443 30.0007 15.7443 29.6149C15.7443 29.23 16.2125 28.595 16.6167 28.4314C17.1169 28.2291 17.845 28.2886 18.3049 28.5694ZM47.6036 29.7725L48.6609 30.8375L48.1911 31.2934L47.7213 31.7493L47.3354 31.4762C47.1231 31.3261 46.4885 30.9729 45.9252 30.6914C45.3619 30.41 44.8739 30.1547 44.8409 30.1242C44.7311 30.0226 46.1161 28.7076 46.333 28.7076C46.4501 28.7076 47.0219 29.1869 47.6036 29.7725ZM36.5336 29.0469C37.9596 29.2959 39.0683 29.7088 39.576 30.1804L39.9606 30.5373L39.4592 30.9711C37.6631 32.5256 31.5001 32.6764 29.0287 31.2264C28.2575 30.7739 28.1649 30.5262 28.6201 30.1342C29.8384 29.085 33.7074 28.5534 36.5336 29.0469ZM22.9857 29.4255C23.235 29.5948 23.4622 29.8034 23.4903 29.8893C23.5184 29.975 23.0094 30.303 22.3593 30.6182L21.1771 31.1911L20.7968 30.7355C20.4434 30.3122 20.4301 30.2538 20.6086 29.9075C21.0157 29.1178 22.1832 28.881 22.9857 29.4255ZM14.1727 31.3299C14.4138 31.44 14.4982 31.5592 14.4388 31.7059C14.391 31.8242 14.3191 32.1507 14.2792 32.4316C14.1801 33.1297 13.9571 33.2913 13.4532 33.0305C13.2337 32.917 12.7684 32.7519 12.4191 32.6639C12.0698 32.5758 11.7839 32.4744 11.7839 32.4385C11.7839 32.4026 11.8883 32.1964 12.016 31.9801C12.4295 31.279 13.4119 30.9829 14.1727 31.3299ZM52.6169 32.0576L53.4966 32.9464H51.4561H49.4155L50.2953 32.0576C50.8105 31.5371 51.2915 31.1688 51.4561 31.1688C51.6206 31.1688 52.1016 31.5371 52.6169 32.0576ZM26.7426 31.895C27.8956 33.4882 31.2935 34.4663 34.9885 34.2684C38.2459 34.094 40.7304 33.1085 41.6955 31.6083L41.8965 31.2957L42.8525 31.6242C43.3782 31.8048 44.2386 32.1554 44.7644 32.4031L45.7203 32.8539L44.8786 32.9589C43.8618 33.0858 43.3706 33.324 42.8119 33.9612C42.3267 34.5144 42.1033 35.1962 42.1022 36.1262L42.1014 36.7765L30.8006 36.7415L19.4999 36.7065L19.5438 36.2963C19.7223 34.6291 21.9187 32.807 25.0641 31.7169C25.6842 31.5021 26.2223 31.3253 26.2598 31.3242C26.2974 31.3232 26.5147 31.58 26.7426 31.895ZM19.0324 31.842C19.5438 32.354 19.5345 32.5193 18.9632 33.0738L18.4949 33.5283L18.1223 33.2349C17.9173 33.0735 17.4216 32.846 17.0205 32.7292C16.378 32.5422 16.3074 32.4868 16.4266 32.2637C16.7079 31.7375 17.2584 31.4423 17.9583 31.4423C18.5222 31.4423 18.6989 31.5081 19.0324 31.842ZM12.2511 34.7198C12.5585 34.8368 12.5838 34.8943 12.465 35.2072C12.3908 35.4024 12.3302 35.835 12.3302 36.1685V36.7749H11.1694H10.0086L10.0091 36.3305C10.0098 35.7296 10.4644 35.0236 11.0014 34.7899C11.5318 34.559 11.7906 34.5445 12.2511 34.7198ZM16.5207 34.733C17.1463 34.9703 17.5197 35.406 17.5197 35.8988C17.5197 36.7638 17.4986 36.7749 15.8663 36.7749H14.3787V36.2584C14.3787 35.655 14.6507 35.2141 15.2482 34.8494C15.7382 34.5502 15.9804 34.5281 16.5207 34.733ZM57.6788 35.1389C57.8905 35.2524 57.9429 35.4289 57.9429 36.0276V36.7749H51.0464H44.1498V36.1362C44.1498 34.926 43.7197 34.9974 51.0083 34.9974C55.1631 34.9974 57.5074 35.0471 57.6788 35.1389ZM60.5376 39.5779V40.3299H42.1014C23.8471 40.3299 23.6624 40.3327 23.392 40.6034C23.0239 40.9719 23.0312 41.7122 23.4063 42.0521C23.6854 42.305 24.2706 42.3145 43.7886 42.3809L63.8835 42.4493L63.9247 43.3256C63.9533 43.9342 63.9116 44.2364 63.7882 44.3149C63.5092 44.4919 57.5672 44.461 57.4567 44.2818C57.4057 44.1992 57.0828 43.9531 56.7391 43.7349C55.7185 43.0869 54.3567 43.2326 53.5832 44.0724L53.252 44.4319H28.9784C15.628 44.4319 4.60771 44.3946 4.4889 44.3489C4.32079 44.2844 4.27286 44.0567 4.27286 43.3234V42.3809H11.8338C19.2762 42.3809 19.4004 42.3765 19.7546 42.0975C20.2055 41.7424 20.248 41.0106 19.8413 40.6034C19.5765 40.3383 19.3861 40.3299 13.6276 40.3299H7.68698V39.5779V38.8259H34.1123H60.5376V39.5779ZM56.0813 45.952C56.5714 46.5253 56.9869 47.5036 56.9869 48.084C56.9869 48.5536 57.3581 49.3671 57.7676 49.7953C57.9637 50.0002 58.5595 50.3341 59.0918 50.5373C59.7662 50.7948 60.2667 51.106 60.7425 51.5634L61.4253 52.2198L54.0849 52.2227C49.9246 52.2245 46.7446 52.1733 46.7446 52.1048C46.7446 51.8865 47.8604 50.9694 48.4369 50.7141C48.7477 50.5764 49.4727 50.4052 50.0481 50.3337C50.6796 50.2552 51.3151 50.0794 51.6518 49.8899C52.3006 49.5248 53.4271 48.1582 54.4194 46.5324C54.8702 45.7939 55.2027 45.389 55.3587 45.389C55.4914 45.389 55.8166 45.6423 56.0813 45.952ZM51.934 46.5923C51.934 46.6526 51.6296 47.0437 51.2576 47.4615C50.6001 48.2003 50.5571 48.2238 49.7019 48.3116C48.5901 48.4256 47.4656 48.8105 46.6964 49.3405C45.9211 49.8744 44.9176 50.9959 44.6026 51.6801C44.3618 52.2033 44.3349 52.2187 43.6579 52.2221C42.8758 52.2261 42.1561 52.6137 41.8663 53.1869C41.7429 53.4313 41.6956 54.5072 41.6958 57.0797C41.6958 60.929 41.7996 61.7566 42.4418 63.0257C42.6301 63.3977 42.7842 63.7349 42.7842 63.7751C42.7842 63.8152 37.4337 63.848 30.894 63.848H19.004L17.9901 63.379C14.4718 61.7515 11.2935 58.6192 9.47161 54.9837C8.43809 52.9218 7.68698 49.8227 7.68698 47.6211V46.4829H29.8105C41.9785 46.4829 51.934 46.5321 51.934 46.5923ZM60.5376 47.6451C60.5376 48.2844 60.4916 48.8064 60.4352 48.8053C60.2883 48.8023 59.4047 48.4813 59.2253 48.3656C59.1418 48.3118 59.0352 48.0047 58.988 47.683C58.9411 47.3614 58.8639 46.9598 58.8165 46.7906C58.7335 46.4938 58.7626 46.4829 59.634 46.4829H60.5376V47.6451ZM64.3604 56.9088C64.3598 58.3564 64.2956 59.9408 64.2178 60.4297C64.0576 61.4359 63.4943 62.7441 62.9372 63.4036L62.5618 63.848H60.5255C58.6712 63.848 58.4647 63.8725 58.216 64.1214C57.8093 64.5286 57.8518 65.2604 58.3028 65.6155C58.6476 65.8872 58.8242 65.899 62.5363 65.899H66.4099V66.9245V67.95H35H3.59003V66.9245V65.899H28.9044H54.2188L54.5786 65.6155C55.0296 65.2604 55.072 64.5286 54.6653 64.1214C54.4033 63.8591 54.2102 63.848 49.8869 63.848H45.3815L44.9042 63.1985C43.8984 61.8299 43.8188 61.4418 43.7681 57.6608L43.7228 54.2767H54.0422H64.3615L64.3604 56.9088Z" fill="#4F4F4F"/>
</svg>
