<svg width="70" height="70" viewBox="0 0 70 70" fill="none" xmlns="http://www.w3.org/2000/svg">
<path fill-rule="evenodd" clip-rule="evenodd" d="M17.0426 0.11707C16.6401 0.193085 15.7804 0.508293 15.132 0.81742C12.9041 1.87989 11.1138 4.17973 10.686 6.52924C10.5828 7.09609 10.5295 11.7103 10.5295 20.0935C10.5295 32.2296 10.5177 32.8024 10.2645 32.8819C9.52739 33.1133 9.01952 34.0113 6.15889 40.1398C4.56312 43.5587 3.14796 46.6833 3.01418 47.083C2.36346 49.0292 2.33331 49.5899 2.33331 59.7619V69.4501H3.49864H4.66382L4.70612 59.351L4.74827 49.2519L5.12763 48.1659C5.3362 47.5687 6.62051 44.6858 7.98167 41.7593L10.4563 36.4387L10.5339 45.0894C10.6107 53.671 10.6141 53.7476 10.9486 54.642C11.5984 56.379 12.3175 57.0074 13.1374 56.5546C13.4149 56.4014 14.3305 54.9673 16.2612 51.6622C17.7633 49.0906 19.1133 46.8543 19.2611 46.6927C19.7421 46.1671 20.3307 45.9579 21.1414 46.0243C22.5168 46.1371 23.3605 47.1126 23.231 48.4397C23.178 48.9828 22.6435 50.0003 20.3604 53.9047C18.8173 56.5435 17.5548 58.8467 17.5548 59.023C17.5548 59.1994 18.1836 60.3781 18.952 61.6424C20.9869 64.9905 20.9699 64.9438 21.0404 67.3868L21.1 69.4501H22.2706H23.4412L23.3743 67.3144C23.292 64.6918 23.0669 63.9268 21.7346 61.74L20.7863 60.1835H24.1559H27.5254L27.4292 60.8178C27.24 62.0656 27.5522 62.8623 29.6614 66.5139C30.7551 68.4074 31.6634 69.9746 31.6798 69.9962C31.7381 70.0735 33.6519 68.9413 33.6532 68.8286C33.6539 68.7656 32.7878 67.2345 31.7283 65.4261C30.1949 62.8084 29.7886 62.0008 29.7351 61.4643C29.5242 59.3411 32.2929 58.1716 33.7426 59.7716C33.9118 59.9584 34.6274 61.1064 35.3326 62.3228C36.0377 63.5392 36.7347 64.598 36.8813 64.6756C37.2989 64.8967 37.8349 64.8421 38.2121 64.5401L38.5576 64.2633L38.6308 52.5329C38.703 40.9684 38.7082 40.797 39.0058 40.403C39.5792 39.6432 40.047 39.4061 40.9726 39.4061C41.8982 39.4061 42.3658 39.6432 42.9394 40.4029C43.2356 40.7953 43.2425 40.9861 43.3143 50.7955L43.3875 60.7884L43.7331 61.0651C44.1742 61.4184 44.796 61.4186 45.2374 61.0654C45.5761 60.7945 45.5844 60.7284 45.6561 57.7454C45.7362 54.4146 45.7592 54.3268 46.737 53.6045C47.3037 53.186 48.6921 53.186 49.2588 53.6045C50.2366 54.3268 50.2596 54.4146 50.3397 57.7454C50.4114 60.7284 50.4197 60.7945 50.7584 61.0654C51.1997 61.4184 51.8214 61.4184 52.2627 61.0654C52.5955 60.7993 52.6109 60.6979 52.6814 58.3246C52.7611 55.6406 52.8152 55.4623 53.7623 54.7629C54.329 54.3443 55.7174 54.3443 56.2841 54.7629C57.2312 55.4623 57.2854 55.6406 57.365 58.3246C57.4355 60.6979 57.4509 60.7993 57.7837 61.0654C58.225 61.4184 58.8467 61.4184 59.288 61.0654C59.6112 60.807 59.6383 60.6668 59.7068 58.9039C59.7693 57.2955 59.8243 56.96 60.0817 56.6192C60.6555 55.8595 61.1231 55.6226 62.0485 55.6226C62.9741 55.6226 63.4417 55.8596 64.0153 56.6194C64.3076 57.0064 64.3184 57.2157 64.3583 63.2345L64.3994 69.4501H65.5728H66.7463L66.7025 63.0431L66.6589 56.6362L66.157 55.7204C65.3487 54.2455 64.1065 53.4359 62.4121 53.2793C61.3939 53.1854 60.267 53.4597 59.5248 53.9826L59.1174 54.2697L58.4564 53.5969C56.8592 51.9712 54.2011 51.6257 52.5016 52.8228L52.0963 53.1083L51.3739 52.3747C50.9765 51.971 50.5813 51.6409 50.4955 51.6409C50.3862 51.6409 50.3397 47.0311 50.3397 36.2208V20.8006H51.5106H52.6814V22.7618C52.6814 24.6512 52.6946 24.7362 53.0408 25.0784C53.2736 25.3089 53.5659 25.4339 53.8722 25.4339C54.2864 25.4339 54.6342 25.1492 56.702 23.1173L59.0593 20.8006H61.9639C63.8167 20.8006 65.0868 20.7369 65.471 20.6246C66.275 20.3896 67.4874 19.1901 67.725 18.3948C67.9747 17.5585 67.9747 7.82627 67.725 6.98996C67.4874 6.19463 66.275 4.99519 65.471 4.7602C65.0322 4.63191 62.7859 4.58341 57.2016 4.58124L49.5347 4.57834L49.1038 3.86033C48.2173 2.38303 46.5132 1.01795 44.7374 0.362634L43.8266 0.0264317L30.8005 0.00254144C23.0224 -0.011648 17.4796 0.0345401 17.0426 0.11707ZM44.5012 2.79322C45.4266 3.22716 46.827 4.36695 46.827 4.6865C46.827 4.77019 46.6272 4.92048 46.3829 5.02053C45.7799 5.26769 44.8675 6.32364 44.6574 7.01762C44.4131 7.82424 44.4181 17.574 44.6632 18.3948C45.0006 19.5244 46.6426 20.8006 47.7587 20.8006C47.9786 20.8006 47.9979 22.0184 47.9972 35.8226L47.9964 50.8446L47.0824 51.0738C46.5797 51.1999 46.0567 51.352 45.9203 51.412C45.6899 51.5132 45.669 51.125 45.6276 45.9703L45.5829 40.4197L45.0811 39.5039C44.5363 38.51 43.914 37.9219 42.8798 37.4237C41.9024 36.9528 40.0119 36.9683 38.9967 37.4554C38.0685 37.9008 37.1891 38.7679 36.7246 39.6957L36.3622 40.4197L36.3212 49.1433L36.2802 57.8669H35.7043C35.3206 57.8669 34.9056 57.7271 34.461 57.4483C33.4575 56.8186 32.1741 56.6221 31.0017 56.9183C30.4886 57.0481 29.8216 57.3155 29.5195 57.5127L28.9704 57.8714L24.8795 57.833L20.7885 57.7945L22.9958 54.0299C24.2099 51.9594 25.3017 49.9825 25.4223 49.6366C25.571 49.2099 25.6193 48.6747 25.5728 47.9715C25.4855 46.6571 25.0071 45.6913 23.9985 44.7942C23.01 43.915 22.1072 43.6226 20.6413 43.7065C19.3248 43.782 18.2493 44.2747 17.5023 45.1449C17.2495 45.4394 16.1205 47.2659 14.9935 49.2036L12.9445 52.7268L12.9055 48.1659C12.884 45.6574 12.884 35.2977 12.9055 25.1443L12.9445 6.68359L13.4077 5.71639C13.6624 5.18458 14.1398 4.46063 14.4684 4.10792C15.1141 3.41495 16.441 2.64134 17.3526 2.42662C17.682 2.34901 23.2995 2.30268 30.7273 2.31629L43.5339 2.33989L44.5012 2.79322ZM26.9219 5.74245V6.90077H30.4346H33.9473V5.74245V4.58413H30.4346H26.9219V5.74245ZM65.2019 7.25623L65.5612 7.61155V12.6924V17.7732L65.2019 18.1285L64.8427 18.484H61.4485H58.0543L56.5388 19.9594L55.0232 21.4348V20.3147C55.0232 19.3187 54.9834 19.1555 54.6639 18.8394L54.3047 18.484H50.9251H47.5455L47.1863 18.1285L46.827 17.7732V12.6924V7.61155L47.1863 7.25623L47.5455 6.90077H56.1941H64.8427L65.2019 7.25623ZM49.1688 10.3757V11.5341H56.1941H63.2194V10.3757V9.21741H56.1941H49.1688V10.3757ZM49.1688 15.009V16.1673H56.1941H63.2194V15.009V13.8507H56.1941H49.1688V15.009ZM23.207 15.1668C22.2928 15.3843 20.9675 16.1576 20.3228 16.8494C19.9942 17.2022 19.5183 17.9261 19.2652 18.4579C18.8298 19.3734 18.8023 19.5349 18.7494 21.4791C18.694 23.5237 18.6954 23.5348 19.0689 23.9043C19.3816 24.2136 19.5799 24.2756 20.2559 24.2756H21.0675V25.4339V26.5922H20.2559C19.5834 26.5922 19.381 26.6548 19.0752 26.9574C18.7066 27.322 18.7061 27.3251 18.7525 29.6839C18.7986 32.0324 18.8012 32.0485 19.2207 32.592C19.9901 33.5891 19.5329 33.5523 30.6459 33.5088C40.4991 33.4703 40.6649 33.465 41.0626 33.1712C42.0111 32.4706 42.066 32.2896 42.1167 29.6983C42.1631 27.3241 42.1628 27.3221 41.7939 26.9574C41.4882 26.6548 41.2858 26.5922 40.6133 26.5922H39.8017V25.4339V24.2756H40.6133C41.2893 24.2756 41.4876 24.2136 41.8002 23.9043C42.1738 23.5348 42.1752 23.5237 42.1198 21.4791C42.0669 19.5349 42.0394 19.3734 41.604 18.4579C40.965 17.1146 40.1345 16.2743 38.801 15.6222L37.6953 15.0814L30.7352 15.0565C26.8265 15.0425 23.5261 15.0908 23.207 15.1668ZM24.5802 18.484V19.6423H25.751H26.9219V18.484V17.3257H28.0928H29.2637V18.484V19.6423H30.4346H31.6055V18.484V17.3257H32.7764H33.9473V18.484V19.6423H35.1181H36.289V18.484C36.289 17.1869 36.2901 17.1861 37.3698 17.5017C38.1737 17.7367 39.3862 18.9362 39.6237 19.7315C39.7216 20.0593 39.8017 20.6945 39.8017 21.1432V21.9589H30.4346H21.0675V21.1432C21.0675 19.8871 21.3308 19.2275 22.1602 18.4051C22.861 17.7104 23.5233 17.3731 24.2508 17.3404C24.5661 17.3262 24.5802 17.3749 24.5802 18.484ZM37.4599 25.4339V26.5922H30.4346H23.4093V25.4339V24.2756H30.4346H37.4599V25.4339ZM39.8017 30.0672V31.2255H30.4346H21.0675V30.0672V28.9089H30.4346H39.8017V30.0672ZM29.2637 54.3919V55.5502H30.4346H31.6055V54.3919V53.2336H30.4346H29.2637V54.3919Z" fill="#4F4F4F"/>
</svg>
