<svg width="70" height="70" viewBox="0 0 70 70" fill="none" xmlns="http://www.w3.org/2000/svg">
<path fill-rule="evenodd" clip-rule="evenodd" d="M29.4617 0.358021C29.2334 0.583625 29.0996 0.882583 29.0996 1.16667C29.0996 1.91129 29.6575 2.33333 30.6418 2.33333H31.4598V3.47842V4.62365L30.0215 4.72237C25.4408 5.03679 21.4937 6.3455 17.7414 8.79404C10.9179 13.2468 6.68745 21.0236 6.67933 29.1302L6.67815 30.3333H4.0901C1.53877 30.3333 1.49673 30.3384 1.13991 30.6914C0.79857 31.0287 0.777771 31.143 0.777771 32.6796C0.777771 33.5762 0.858459 34.58 0.957143 34.9102C1.19655 35.7112 2.41852 36.9193 3.22879 37.156C3.62633 37.2721 4.97781 37.3333 7.14384 37.3333H10.4517L10.4492 38.3906C10.4473 39.2079 10.5218 39.5882 10.7772 40.0658C11.2347 40.9217 19.7311 48.5952 29.0661 56.5833C36.3698 62.8333 36.4723 62.9285 36.0014 63.0248C35.0645 63.2163 35 63.4413 35 66.5228C35 69.26 35.0031 69.2872 35.3621 69.642L35.7241 70H43.2605H50.7969L51.1589 69.642C51.5181 69.287 51.5211 69.2615 51.5211 66.5C51.5211 63.7385 51.5181 63.713 51.1589 63.358C50.9598 63.1611 50.6943 63 50.5689 63C50.3882 63 50.341 62.8155 50.341 62.11C50.341 61.2555 50.3684 61.1899 51.0274 60.4694C51.4048 60.0565 51.9192 59.2922 52.1706 58.7708L52.6274 57.8229L52.6736 53.5208L52.7196 49.2188L55.016 44.2126L57.3124 39.2063L57.2365 38.2699L57.1604 37.3333H61.6899C66.9835 37.3333 67.2112 37.2928 68.2338 36.1684C69.0545 35.266 69.2222 34.6738 69.2222 32.6796C69.2222 31.143 69.2014 31.0287 68.8601 30.6914C68.5035 30.3387 68.4597 30.3333 65.9326 30.3333H63.3671L63.2745 28.3281C63.2236 27.2253 63.1109 25.8964 63.0242 25.375C61.524 16.3621 55.1845 8.90473 46.5444 5.98952C44.5965 5.33225 42.8909 4.98794 40.5685 4.78304L38.5402 4.60425V3.46879V2.33333H39.3582C40.3425 2.33333 40.9004 1.91129 40.9004 1.16667C40.9004 0.882583 40.7666 0.583625 40.5382 0.358021L40.1763 0H35H29.8237L29.4617 0.358021ZM36.1801 3.5V4.66667H35H33.8199V3.5V2.33333H35H36.1801V3.5ZM43.113 7.47046C47.2566 8.36762 50.8248 10.2184 53.8278 13.028C58.2743 17.1885 60.6462 22.3301 60.919 28.401L61.0059 30.3333H34.9994H8.99302L9.08861 28.3281C9.19747 26.0447 9.54515 24.1338 10.2126 22.1518C12.7731 14.5479 19.5147 8.77829 27.477 7.37669C29.435 7.03208 29.4333 7.03208 35.59 7.06869C41.2006 7.10194 41.4796 7.11681 43.113 7.47046ZM66.8621 33.4753C66.8621 34.1396 66.7973 34.3481 66.4999 34.642L66.1379 35H35H3.86205L3.50006 34.642C3.20268 34.3481 3.13792 34.1396 3.13792 33.4753V32.6667H35H66.8621V33.4753ZM15.2963 37.6615C15.5172 37.8554 16.2442 39.2378 17.0745 41.0436C17.847 42.7233 18.4789 44.1217 18.4789 44.151C18.4789 44.3011 13.0661 39.2811 12.898 38.9753C12.6638 38.5486 12.7713 38.0177 13.1723 37.6214C13.5996 37.1989 14.7947 37.2213 15.2963 37.6615ZM21.204 37.5312C21.3546 37.6402 22.4791 39.6906 23.703 42.0878L25.9282 46.4465L32.1873 48.9156L38.4466 51.3847L41.0379 50.7555C42.4632 50.4096 43.7386 50.0713 43.8722 50.0036C44.0059 49.9361 45.5872 47.2052 47.3861 43.9352C49.185 40.665 50.8217 37.842 51.0234 37.6615C51.3494 37.3696 51.5451 37.3333 52.7898 37.3333C54.0793 37.3333 54.2181 37.3615 54.5517 37.6913C54.7508 37.8882 54.9138 38.2191 54.9138 38.4266C54.9138 38.6343 53.8849 41.0423 52.6274 43.778L50.341 48.7519L50.3377 52.9228C50.3339 57.7773 50.3327 57.7825 48.859 59.2998L47.9808 60.2039V61.6019V63H44.0717H40.1625L31.5674 55.6353L22.9725 48.2707L20.7995 43.5343C19.6043 40.9294 18.6264 38.6296 18.6264 38.4237C18.6264 38.2177 18.7894 37.8882 18.9886 37.6913C19.2827 37.4004 19.4985 37.3333 20.1403 37.3333C20.5747 37.3333 21.0534 37.4224 21.204 37.5312ZM48.2759 37.4081C48.2759 37.5051 42.6578 47.7218 42.5159 47.8829C42.4566 47.9503 41.5549 48.2167 40.5123 48.475L38.6166 48.9447L33.1116 46.766L27.6065 44.5872L25.7711 40.9602L23.9356 37.3333H36.1057C42.7993 37.3333 48.2759 37.367 48.2759 37.4081ZM49.1609 66.5V67.6667H43.2605H37.3601V66.5V65.3333H43.2605H49.1609V66.5Z" fill="#4F4F4F"/>
</svg>
