<svg width="40" height="40" fill="none" xmlns="http://www.w3.org/2000/svg"><path d="M35.234 10.547A3.52 3.52 0 0031.72 7.03h-1.374a3.521 3.521 0 00-3.314-2.343h-1.429l-.506-2.025A3.51 3.51 0 0021.686 0h-3.372a3.51 3.51 0 00-3.41 2.663l-.506 2.025h-1.43a3.52 3.52 0 00-3.313 2.343H8.28a3.52 3.52 0 00-3.515 3.516v25.937A3.52 3.52 0 008.28 40h23.44a3.5 3.5 0 002.483-1.022 3.476 3.476 0 001.032-2.483V10.547zM11.797 8.203c0-.646.526-1.172 1.172-1.172h2.344c.537 0 1.006-.366 1.136-.887l.728-2.913a1.17 1.17 0 011.137-.887h3.372a1.17 1.17 0 011.137.887l.727 2.913c.131.521.6.887 1.137.887h2.344c.646 0 1.172.526 1.172 1.172v1.172H11.797V8.203zM32.55 37.316a1.17 1.17 0 01-.831.34H8.281a1.173 1.173 0 01-1.172-1.172V10.547c0-.646.526-1.172 1.172-1.172h1.172v1.172c0 .647.525 1.172 1.172 1.172h18.75c.647 0 1.172-.525 1.172-1.172V9.375h1.172c.646 0 1.172.526 1.172 1.172v25.948c0 .31-.121.602-.34.82z" fill="#fff"/><path d="M18.485 14.484a1.172 1.172 0 00-1.657 0l-3.86 3.859-1.515-1.515a1.172 1.172 0 10-1.657 1.657l2.344 2.344a1.168 1.168 0 001.657 0l4.688-4.688c.457-.457.457-1.2 0-1.657zm0 7.031a1.171 1.171 0 00-1.657 0l-3.86 3.859-1.515-1.515a1.172 1.172 0 00-1.657 1.657l2.344 2.344a1.168 1.168 0 001.657 0l4.688-4.688c.457-.457.457-1.2 0-1.657zm0 7.031a1.172 1.172 0 00-1.657 0l-3.86 3.86-1.515-1.516a1.172 1.172 0 10-1.657 1.657l2.344 2.344a1.168 1.168 0 001.657 0l4.688-4.687c.457-.458.457-1.2 0-1.658zm10.89-12.062h-7.031a1.172 1.172 0 000 2.344h7.031a1.172 1.172 0 000-2.344zm0 7.032h-7.031a1.172 1.172 0 000 2.343h7.031a1.172 1.172 0 000-2.343zm0 7.031h-7.031a1.172 1.172 0 000 2.344h7.031a1.172 1.172 0 000-2.344zM20 7.031a1.172 1.172 0 100-2.344 1.172 1.172 0 000 2.344z" fill="#fff"/></svg>