<svg width="40" height="40" fill="#fff" xmlns="http://www.w3.org/2000/svg"><g clip-path="url(#clip0)"><path d="M22.617 5.625a3.676 3.676 0 00-3.671 3.672 3.676 3.676 0 003.671 3.672 3.676 3.676 0 003.672-3.672 3.676 3.676 0 00-3.672-3.672zm0 5a1.33 1.33 0 01-1.328-1.328 1.33 1.33 0 011.328-1.328 1.33 1.33 0 011.329 1.328 1.33 1.33 0 01-1.329 1.328z"/><path d="M35.82 0H9.337a2.346 2.346 0 00-2.344 2.344v2.734H4.258a2.346 2.346 0 00-2.344 2.344v13.906a2.346 2.346 0 002.344 2.344h5.157a8.6 8.6 0 001.759 5.316l-2.126 2.08a3.67 3.67 0 00-4.239.688c-.16.16.54-.562-1.906 1.985a3.67 3.67 0 00.009 5.184c1.466 1.466 3.824 1.406 5.21-.017l1.889-1.968a3.678 3.678 0 00.688-4.208l2.13-2.084a8.605 8.605 0 005.257 1.774 8.666 8.666 0 008.671-8.75h3.985a2.346 2.346 0 002.344-2.344v-2.734h2.735a2.346 2.346 0 002.343-2.344V2.344A2.346 2.346 0 0035.821 0zm-5.523 16.25h-7.852a8.7 8.7 0 00-7.622-.539 6.827 6.827 0 00-5.487-5.003V7.887c2.78-.449 5.1-2.648 5.601-5.543h15.36a6.815 6.815 0 005.524 5.523v2.86a6.814 6.814 0 00-5.524 5.523zm-20.96-3.154a4.498 4.498 0 013.204 3.154H9.336v-3.154zM35.82 5.47a4.47 4.47 0 01-3.125-3.125h3.125V5.47zM9.336 2.344h3.204a4.499 4.499 0 01-3.204 3.153V2.344zM4.258 21.328V7.422h2.734v8.828a2.346 2.346 0 002.344 2.344h1.776a8.575 8.575 0 00-1.356 2.734H4.258zm4.087 13.964c-.16.16.538-.562-1.905 1.982-.83.818-2.26.239-2.26-.946 0-.359.13-.673.406-.956l1.887-1.965a1.33 1.33 0 011.871.007 1.33 1.33 0 010 1.878zm14.216-7.067a6.325 6.325 0 01-8.95 0 6.325 6.325 0 010-8.95 6.325 6.325 0 018.95 0 6.325 6.325 0 010 8.95zm3.856-6.897a8.576 8.576 0 00-1.356-2.734h5.681v2.734h-4.325zm9.404-5.078h-3.125a4.47 4.47 0 013.125-3.125v3.125z"/></g><defs><clipPath id="clip0"><path d="M0 0h40v40H0z"/></clipPath></defs></svg>