<svg width="42" height="42" fill="none" xmlns="http://www.w3.org/2000/svg"><path d="M11.813 9.188h2.624v2.624h-2.624V9.188zm0 5.25h2.624v2.624h-2.624v-2.625zm0 5.25h2.624v2.625h-2.624v-2.625zm0 5.25h2.624v2.625h-2.624v-2.625zm5.25-15.75h2.625v2.624h-2.625V9.188zm10.5 10.5h2.625v2.625h-2.625v-2.625zm0-5.25h2.625v2.624h-2.625v-2.625zm-10.5 0h2.625v2.624h-2.625v-2.625zm10.5 10.5h2.625v2.625h-2.625v-2.625zm-10.5-5.25h2.625v2.625h-2.625v-2.625zm10.5 10.5h2.625v2.625h-2.625v-2.626zm-10.5-5.25h2.625v2.625h-2.625v-2.625z" fill="#fff"/><path d="M36.75 35.438h-1.313V10.5a1.313 1.313 0 00-1.312-1.313h-9.188V5.25a1.313 1.313 0 00-1.312-1.313H7.875A1.313 1.313 0 006.562 5.25v30.188H5.25a1.313 1.313 0 000 2.624h31.5a1.313 1.313 0 000-2.624zM9.187 6.561h13.126V31.5a1.313 1.313 0 002.625 0V11.812h7.875v23.626H19.687V31.5a1.313 1.313 0 00-1.312-1.313h-5.25a1.313 1.313 0 00-1.313 1.313v3.938H9.188V6.561zm7.876 28.875h-2.625v-2.624h2.624v2.624z" fill="#fff"/></svg>