<svg viewBox="0 0 25 24" fill="none" width="24" height="24" xmlns="http://www.w3.org/2000/svg" xmlns:xlink="http://www.w3.org/1999/xlink">
  <path fill-rule="evenodd" clip-rule="evenodd" d="M11.5007 7C11.5007 6.44772 11.9484 6 12.5007 6C15.8144 6 18.5007 8.68629 18.5007 12C18.5007 15.3137 15.8144 18 12.5007 18C9.18702 18 6.50073 15.3137 6.50073 12C6.50073 11.4477 6.94845 11 7.50073 11C8.05302 11 8.50073 11.4477 8.50073 12C8.50073 14.2091 10.2916 16 12.5007 16C14.7099 16 16.5007 14.2091 16.5007 12C16.5007 9.79086 14.7099 8 12.5007 8C11.9484 8 11.5007 7.55228 11.5007 7Z" fill="#A38062">
    <animateTransform
      attributeName="transform"
      type="rotate"
      from="0 12.5 12"
      to="360 12.5 12"
      dur="0.7s"
      repeatCount="indefinite"
    />
  </path>
</svg>
