<svg width="134" height="168" viewBox="0 0 134 168" fill="none" xmlns="http://www.w3.org/2000/svg">
<path d="M110.869 153.233L110.103 126.115L102.725 121.427L94.6676 126.115L93.9019 153.233C93.783 157.445 90.3797 160.797 86.2218 160.797L101.827 165.815L118.549 160.797C114.391 160.797 110.988 157.445 110.869 153.233Z" fill="#93603E"/>
<path d="M133.285 117.008L124.196 98.586C125.412 98.1869 126.616 97.7545 127.809 97.2894C129.15 96.7658 129.755 95.185 129.112 93.8818L119.579 74.5595C121.031 74.1182 122.465 73.621 123.879 73.069C124.147 72.9645 124.391 72.8043 124.594 72.5988C124.797 72.3932 124.956 72.1469 125.059 71.8756C125.163 71.6044 125.21 71.3141 125.196 71.0234C125.183 70.7328 125.109 70.4482 124.981 70.188L102.807 25.2426C102.633 24.8906 102.137 24.8906 101.964 25.2426L89.7159 50.0676L78.308 65.512L71.8659 120.142C72.1695 120.502 72.5569 120.779 72.993 120.948C91.9112 128.33 112.86 128.33 131.778 120.948C133.329 120.343 134.028 118.515 133.285 117.008Z" fill="#2DAD42"/>
<path d="M133.285 117.008L124.196 98.586C125.412 98.1869 126.616 97.7545 127.809 97.2894C129.18 97.2894 130.072 95.8268 129.459 94.584L119.58 74.5599C121.031 74.1185 122.465 73.6213 123.88 73.0694C124.805 72.1317 125.083 70.3942 124.498 69.2082L102.807 25.2426C102.633 24.8906 102.138 24.8906 101.964 25.2426L97.3227 34.6497L110.997 62.367C111.583 63.553 111.304 65.2906 110.379 66.2282C110.149 66.3182 109.918 66.4068 109.686 66.4938C107.788 67.207 106.926 69.4356 107.832 71.2704L115.959 87.7432C116.572 88.9863 115.68 90.4486 114.309 90.4486L114.273 90.4625C112.384 91.1983 111.515 93.4063 112.421 95.2404L119.785 110.168C120.528 111.674 119.829 113.502 118.278 114.107C106.163 118.835 93.111 120.572 80.202 119.175L74.9033 117.819L71.8659 120.142C72.1695 120.502 72.5569 120.779 72.993 120.948C91.9112 128.33 112.86 128.33 131.778 120.948C133.329 120.343 134.028 118.515 133.285 117.008Z" fill="#2B9337"/>
<path d="M107.295 104.471C106.64 104.47 106.01 104.211 105.539 103.749C105.068 103.287 104.792 102.657 104.77 101.993C104.747 101.329 104.98 100.682 105.419 100.189C105.857 99.6948 106.468 99.3929 107.122 99.3464C109.887 99.1506 112.637 98.7849 115.358 98.2513C116.014 98.1302 116.691 98.276 117.241 98.6572C117.791 99.0384 118.171 99.6242 118.298 100.287C118.425 100.951 118.288 101.638 117.918 102.2C117.548 102.761 116.974 103.153 116.321 103.289C113.398 103.861 110.444 104.254 107.474 104.464C107.414 104.469 107.355 104.471 107.295 104.471Z" fill="#2B9337"/>
<path d="M118.325 100.282C118.059 98.8909 116.731 97.9838 115.358 98.251C114.916 98.3377 114.473 98.4204 114.028 98.4984L116.384 103.275C117.029 103.131 117.593 102.738 117.955 102.179C118.318 101.619 118.451 100.939 118.325 100.282Z" fill="#247A2E"/>
<path d="M20.8679 153.987L21.5572 129.57L28.5061 122.632L35.455 129.57L36.1444 153.987C36.2515 157.779 39.3158 160.797 43.0595 160.797L28.1949 165.815L13.953 160.797C17.6965 160.797 20.7607 157.779 20.8679 153.987Z" fill="#93603E"/>
<path d="M55.869 124.321L55.9725 120.653L55.6059 119.911C46.9954 119.048 38.5388 117.014 30.4643 113.863C28.6375 113.151 27.8142 110.998 28.6896 109.223L39.3944 87.5257C37.9626 87.0557 36.5437 86.5464 35.1392 85.9984C33.5591 85.3818 32.8468 83.5197 33.604 81.9848L41.9106 65.1484L28.8858 38.7483C28.7296 38.4312 28.283 38.4312 28.1267 38.7483L8.16129 79.2166C8.04569 79.4509 7.9797 79.7071 7.96757 79.9688C7.95544 80.2305 7.99743 80.4918 8.09085 80.736C8.18426 80.9803 8.32704 81.2021 8.51002 81.3871C8.693 81.5721 8.91212 81.7163 9.15334 81.8104C10.4266 82.3072 11.7181 82.7548 13.0249 83.1522L4.4421 100.549C3.86319 101.722 4.4077 103.146 5.61565 103.617C6.68937 104.036 7.7741 104.425 8.86864 104.784L0.685229 121.371C0.0158923 122.728 0.645586 124.373 2.04192 124.918C19.0751 131.564 37.9365 131.564 54.9697 124.918C55.3084 124.787 55.6152 124.583 55.869 124.321Z" fill="#2DAD42"/>
<path d="M25.871 53.1621C26.6595 54.76 27.0699 56.5219 27.0699 58.3084C27.0699 60.0949 26.6595 61.8569 25.871 63.4547L19.6957 75.9717C18.9732 77.4356 20.0239 79.1582 21.6388 79.1582C22.5117 79.4987 23.3902 79.8244 24.2739 80.135C24.4753 80.2055 24.6595 80.3187 24.8142 80.4671C24.9689 80.6156 25.0905 80.7958 25.171 80.9957C25.2515 81.1956 25.2889 81.4106 25.2807 81.6264C25.2726 81.8421 25.219 82.0536 25.1237 82.2467L15.1892 102.383C14.3138 104.157 15.1381 106.311 16.9646 107.023C20.6783 108.472 24.4771 109.687 28.339 110.66L39.3944 87.5263L41.9106 65.1494L28.8858 38.7493C28.7296 38.4322 28.283 38.4322 28.1267 38.7493L23.4437 48.2414L25.871 53.1621ZM55.9725 115.362L42.2428 117.601C42.0153 117.806 41.7534 117.967 41.4696 118.078C28.4457 123.159 14.2653 124.386 0.579749 121.616C0.0938819 122.92 0.728819 124.406 2.04227 124.918C19.0754 131.565 37.9369 131.565 54.97 124.918C55.3085 124.787 55.6151 124.583 55.869 124.321L59.1803 119.949L55.9725 115.362Z" fill="#2B9337"/>
<path d="M20.3735 109.966C20.266 109.966 20.1569 109.959 20.0472 109.945C18.9625 109.803 17.8815 109.634 16.805 109.439C16.1536 109.309 15.5788 108.924 15.2043 108.369C14.8298 107.813 14.6857 107.131 14.8029 106.469C14.9201 105.806 15.2893 105.217 15.8309 104.828C16.3726 104.439 17.0434 104.282 17.6987 104.389C18.6908 104.569 19.6982 104.726 20.6932 104.856C21.3316 104.939 21.915 105.264 22.3248 105.767C22.7347 106.27 22.9401 106.912 22.8994 107.563C22.8586 108.214 22.5748 108.825 22.1056 109.271C21.6364 109.718 21.017 109.966 20.3735 109.966Z" fill="#2B9337"/>
<path d="M16.9645 107.023C18.7524 107.721 20.5605 108.364 22.3864 108.952C22.655 108.594 22.8258 108.17 22.8819 107.724C22.9379 107.277 22.8771 106.824 22.7056 106.409C22.5341 105.994 22.2579 105.632 21.9048 105.359C21.5516 105.087 21.1339 104.913 20.6935 104.856C19.6917 104.725 18.6933 104.569 17.699 104.388C17.2299 104.303 16.7464 104.353 16.3043 104.534C15.8622 104.715 15.4795 105.019 15.2003 105.41C15.5703 106.151 16.1992 106.726 16.9645 107.023Z" fill="#247A2E"/>
<path d="M75.074 151.888L74.1724 119.949L65.0824 114.651L55.9925 119.949L55.0909 151.888C54.9507 156.849 50.9422 160.797 46.0452 160.797L65.0824 167.868L84.1197 160.797C79.2227 160.797 75.2142 156.849 75.074 151.888Z" fill="#93603E"/>
<path d="M67.6137 143.456C67.6137 142.775 67.347 142.123 66.8723 141.642C66.3976 141.161 65.7538 140.89 65.0825 140.89C64.4112 140.89 63.7673 141.161 63.2926 141.642C62.818 142.123 62.5513 142.775 62.5513 143.456V163.763H67.614V143.456H67.6137ZM65.0825 135.76C64.4112 135.76 63.7673 135.489 63.2926 135.008C62.818 134.527 62.5513 133.875 62.5513 133.194V120.384C62.5513 119.704 62.818 119.052 63.2926 118.571C63.7673 118.089 64.4112 117.819 65.0825 117.819C65.7538 117.819 66.3976 118.089 66.8723 118.571C67.347 119.052 67.6137 119.704 67.6137 120.384V133.194C67.6137 133.875 67.347 134.527 66.8723 135.008C66.3976 135.489 65.7538 135.76 65.0825 135.76Z" fill="#845535"/>
<path d="M101.475 109.224L90.7705 87.5263C92.2023 87.0562 93.6212 86.5469 95.0257 85.999C96.6059 85.3824 97.3181 83.5204 96.561 81.9854L85.3333 59.2283C87.0428 58.7084 88.7321 58.1228 90.3977 57.4728C91.7334 56.9516 92.3356 55.3774 91.6954 54.0798L65.5792 1.1444C65.3747 0.729697 64.7906 0.729697 64.5861 1.1444L38.4695 54.0802C37.8294 55.3777 38.4315 56.9519 39.7676 57.4732C41.4332 58.1231 43.1225 58.7087 44.832 59.2286L33.6043 81.9857C32.8472 83.5204 33.5594 85.3824 35.1396 85.9993C36.5441 86.5472 37.963 87.0565 39.3948 87.5267L28.6899 109.224C27.8145 110.999 28.6379 113.151 30.4647 113.864C52.7461 122.559 77.4192 122.559 99.7006 113.864C101.527 113.151 102.351 110.998 101.475 109.224Z" fill="#8DD83D"/>
<path d="M101.475 109.224L90.7705 87.5267C92.2023 87.0566 93.6212 86.5473 95.0257 85.9993C96.6059 85.3827 97.3181 83.5207 96.561 81.9861L85.3333 59.229C87.0428 58.7091 88.7321 58.1235 90.3977 57.4735C91.7334 56.9522 92.3356 55.3781 91.6954 54.0805L65.5792 1.1444C65.3747 0.729697 64.7906 0.729697 64.5861 1.1444L60.02 10.3994L78.1953 47.239C78.8355 48.5366 78.2333 50.1107 76.8976 50.632C76.6286 50.7369 76.3593 50.8402 76.0897 50.9415C73.85 51.7835 72.8328 54.4132 73.9012 56.5787L83.4688 75.9716C84.1912 77.4356 83.1405 79.1581 81.5256 79.1581L81.4834 79.1747C79.2578 80.0417 78.2392 82.6491 79.3057 84.8106L87.9753 102.383C88.8494 104.155 88.03 106.309 86.2061 107.021C67.7435 114.226 47.5397 115.497 28.3397 110.66C28.3138 112.025 29.1155 113.337 30.465 113.864C52.7465 122.558 77.4195 122.558 99.7009 113.864C101.527 113.151 102.351 110.998 101.475 109.224Z" fill="#7FBF36"/>
<path d="M65.0821 94.2045C64.4108 94.2045 63.767 93.9342 63.2923 93.4531C62.8176 92.972 62.5509 92.3195 62.5509 91.6392C62.5509 90.9588 62.8176 90.3063 63.2923 89.8253C63.767 89.3442 64.4108 89.0739 65.0821 89.0739C70.7424 89.0727 76.387 88.4701 81.9233 87.276C83.2931 86.9808 84.6354 87.8643 84.9267 89.2502C85.2179 90.6361 84.3458 91.9988 82.9786 92.294C77.0954 93.5629 71.0971 94.2032 65.0821 94.2045Z" fill="#74BC3B"/>
<path d="M84.9267 89.25C84.8575 88.9204 84.725 88.6079 84.5366 88.3302C84.3482 88.0526 84.1077 87.8153 83.8288 87.632C83.5498 87.4486 83.238 87.3228 82.911 87.2617C82.5841 87.2005 82.2484 87.2053 81.9233 87.2757C81.5 87.367 81.0761 87.455 80.6515 87.5394L82.9953 92.2897C83.6481 92.1442 84.2176 91.7429 84.5794 91.1734C84.9413 90.6039 85.0661 89.9124 84.9267 89.25Z" fill="#64AD2D"/>
<path d="M65.0824 64.8032C60.9848 64.8023 56.8944 64.4526 52.8545 63.7577C52.1927 63.6437 51.6027 63.268 51.2142 62.7131C50.8257 62.1583 50.6707 61.4698 50.7831 60.7991C50.8955 60.1284 51.2663 59.5304 51.8138 59.1367C52.3612 58.743 53.0406 58.5859 53.7024 58.6998C57.4621 59.3463 61.2687 59.6717 65.0821 59.6727C65.7464 59.6835 66.3799 59.9585 66.8459 60.4383C67.3119 60.9182 67.5731 61.5645 67.5731 62.2378C67.5732 62.9111 67.312 63.5574 66.8461 64.0373C66.3802 64.5173 65.7467 64.7923 65.0824 64.8032Z" fill="#74BC3B"/>
<path d="M119.783 160.917H11.4204C9.90847 160.917 8.43126 161.241 7.17941 161.847C5.92755 162.453 4.9585 163.314 4.39732 164.317L2.75208 167.261C2.70636 167.342 2.68937 167.431 2.7026 167.519C2.71584 167.606 2.75888 167.69 2.82798 167.763C2.89708 167.836 2.99013 167.896 3.09899 167.937C3.20785 167.978 3.32921 168 3.45245 168H127.752C127.875 168 127.996 167.979 128.105 167.937C128.214 167.896 128.307 167.836 128.376 167.763C128.445 167.69 128.489 167.606 128.502 167.519C128.515 167.431 128.498 167.342 128.452 167.261L126.807 164.317C126.246 163.314 125.277 162.453 124.025 161.847C122.773 161.241 121.295 160.917 119.783 160.917Z" fill="#E2926F"/>
</svg>
