<svg width="170" height="157" viewBox="0 0 170 157" fill="none" xmlns="http://www.w3.org/2000/svg">
<path d="M63.6768 10.4841C61.2247 4.25425 55.0808 0.0769043 48.3559 0.0769043C41.6306 0.0769043 35.487 4.25458 33.0349 10.4841C23.5617 11.6272 16.5695 19.8639 17.0148 29.3428C9.41423 33.1864 8.1379 43.3332 14.3353 48.9665C14.0371 51.0501 14.0909 52.9007 14.3891 54.8689C15.0256 54.7232 15.3592 54.6571 16.0369 54.5781C19.7517 44.9957 33.2388 44.9382 36.9758 54.5781C39.4405 54.8653 41.4416 55.7073 43.399 57.2138C44.6444 54.2893 46.6047 52.3078 49.1863 51.0339C48.6975 41.4472 55.5845 33.3933 65.0982 32.2846C67.2654 26.6942 72.0971 22.7366 78.5003 21.9878C75.8162 15.2982 70.0312 11.2514 63.6768 10.4841Z" fill="#2DAD42"/>
<path d="M23.852 29.3428C23.4545 20.8876 29.0015 13.3148 37.0954 11.0379C38.815 10.5541 40.242 9.38957 41.1827 7.87739C43.5431 4.08205 47.4003 1.38219 51.7748 0.44302C43.7529 -1.27934 35.8818 3.25226 33.0353 10.4841C23.5621 11.6271 16.5699 19.8638 17.0151 29.3428C9.4146 33.1864 8.13827 43.3331 14.3356 48.9665C14.0375 51.0501 14.0913 52.9006 14.3894 54.8689C15.0259 54.7231 15.3596 54.657 16.0373 54.578C17.0294 52.0183 18.7802 50.0679 21.0075 48.8079C15.002 43.1369 16.3165 33.1536 23.852 29.3428Z" fill="#2B9337"/>
<path d="M108.625 86.233C108.632 86.0922 108.635 85.9504 108.637 85.8083C105.6 88.8879 101.541 91.3056 97.0054 91.8369C91.0525 97.4825 78.0299 98.4177 69.578 95.2235C69.9711 96.0658 70.5299 97.8371 71.2156 98.4511C70.2812 104.775 74.8148 110.461 81.0029 111.186C85.5029 115.453 95.8838 115.446 100.375 111.186L108.302 106.424C109.916 104.096 110.577 101.264 110.163 98.4514C114.52 94.5494 111.775 87.7908 108.625 86.233Z" fill="#2DAD42"/>
<path d="M137.483 95.948C136.875 95.3799 136.07 95.0676 135.236 95.0762C134.402 95.0849 133.604 95.4137 133.008 95.9942L129.344 99.5625C128.64 100.248 127.455 99.7621 127.44 98.7826L127.182 82.1783C126.32 81.6622 125.549 81.0918 124.895 80.4718C122.333 80.1708 119.882 79.2577 117.751 77.8103C117.687 81.5224 117.628 87.6732 117.579 94.562L117.577 94.563C117.426 98.6359 117.266 102.86 116.937 108.636C116.875 109.729 115.691 110.387 114.722 109.865C111.746 108.263 107.232 105.959 103.674 103.732C102.808 103.19 101.769 102.99 100.762 103.172C99.7552 103.354 98.8531 103.904 98.2331 104.714C96.9741 106.358 97.3214 108.718 99.0114 109.92C103.735 113.28 110.156 117.017 115.282 120.807C115.527 120.989 115.721 121.23 115.847 121.507C115.973 121.785 116.026 122.089 116.002 122.393C115.355 130.799 114.116 145.565 111.681 154.448H137.666C130.269 140.02 129.493 122.689 129.086 112.93C129.07 112.547 129.135 112.166 129.277 111.81C129.419 111.454 129.634 111.131 129.909 110.863L139.668 101.359C139.896 101.137 140.077 100.871 140.199 100.577C140.322 100.283 140.383 99.9676 140.38 99.6495C140.376 99.3314 140.308 99.0173 140.18 98.7261C140.051 98.4349 139.865 98.1725 139.632 97.9548L137.483 95.948Z" fill="#93603E"/>
<path d="M117.751 77.8103C117.687 81.5224 117.629 87.6732 117.579 94.562L117.577 94.563C117.427 98.6359 117.266 102.86 116.938 108.636C116.881 109.645 115.869 110.279 114.952 109.964L115.813 110.332C118.328 111.409 121.144 109.629 121.234 106.905L122.135 79.8962C120.576 79.426 119.098 78.7227 117.751 77.8103ZM117.379 151.917C119.805 143.066 121.051 128.296 121.7 119.862C121.724 119.558 121.671 119.254 121.545 118.976C121.419 118.699 121.225 118.458 120.98 118.276C115.855 114.486 109.433 110.749 104.71 107.389C103.441 106.487 102.929 104.933 103.285 103.519C102.434 103.107 101.466 103.001 100.545 103.219C99.6239 103.436 98.8073 103.965 98.2336 104.714C96.9746 106.358 97.3219 108.718 99.0119 109.92C103.735 113.28 110.157 117.017 115.282 120.807C115.527 120.989 115.722 121.23 115.847 121.507C115.973 121.785 116.027 122.089 116.002 122.393C115.356 130.794 114.118 145.559 111.681 154.448H137.667C137.241 153.614 136.835 152.77 136.451 151.916L117.379 151.917Z" fill="#845535"/>
<path d="M125.191 13.7209C120.673 2.28895 104.351 2.31836 99.8442 13.7209C94.5194 14.3716 89.5296 17.9514 87.4518 23.6321C91.2432 25.5897 93.8254 28.6071 95.2509 32.2845C103.461 33.2412 110.286 39.5903 111.144 48.6208C111.834 48.0689 112.325 47.7015 113.234 47.2527C112.83 39.3362 118.488 32.6963 126.365 31.7786C128.12 27.2519 132.035 23.9067 137.453 23.2732C135.209 17.6808 130.424 14.3597 125.191 13.7209Z" fill="#3BBC56"/>
<path d="M105.357 18.9786C108.233 11.7025 116.984 8.10218 124.326 11.9365C118.584 2.03294 103.981 3.25366 99.8442 13.721C94.5194 14.3717 89.5296 17.9515 87.4518 23.6322C89.6814 24.7832 91.5909 26.3324 93.1458 28.4321C95.1519 23.3344 99.8973 19.6458 105.357 18.9786Z" fill="#2DAD42"/>
<path d="M70.7298 95.6259C68.0649 94.7627 65.3642 93.4118 63.3438 91.4965C63.1851 91.478 63.029 91.4509 62.8716 91.4287L55.2219 98.8783C54.6562 99.4292 53.7032 99.0303 53.7032 98.2425V87.5617C52.3027 86.4807 51.0483 85.1903 50.099 83.9478C49.5489 87.8502 47.2638 91.3996 43.8007 93.542C43.6447 97.761 43.478 102.142 43.1251 108.243C43.0799 109.021 42.1768 109.436 41.5549 108.962C37.5526 105.91 34.4756 101.838 32.4127 98.5676C30.2064 99.1912 27.8602 99.4305 25.5872 99.3413C28.1166 103.708 33.4819 113.079 41.0406 119.378C41.8251 120.031 42.2594 121.011 42.1914 122.027C41.5848 131.099 40.3078 145.681 37.9042 154.448H63.89C56.473 139.984 55.7127 121.659 55.3059 111.841C55.291 111.479 55.3525 111.119 55.4865 110.783C55.6204 110.447 55.8239 110.143 56.0836 109.891L70.7298 95.6259Z" fill="#93603E"/>
<path d="M48.3887 88.8379C47.2695 90.7562 45.6942 92.3716 43.8011 93.5423C43.645 97.7613 43.4783 102.143 43.1254 108.243C43.0806 109.022 42.1771 109.437 41.5552 108.963L42.5858 109.73C44.424 111.098 47.054 109.888 47.1984 107.608L48.3887 88.8379ZM46.9451 119.378C43.556 116.553 33.8232 106.836 30.2565 99.0494C28.7143 99.3066 27.1496 99.4044 25.5872 99.3412C28.1166 103.708 33.4819 113.078 41.0406 119.378C41.8251 120.031 42.2594 121.011 42.1914 122.027C41.5851 131.099 40.3078 145.681 37.9042 154.448H43.809C46.2133 145.679 47.4903 131.092 48.0962 122.027C48.164 121.011 47.7297 120.031 46.9451 119.378Z" fill="#845535"/>
<path d="M164.531 47.1507C164.922 39.103 158.965 32.4991 151.346 31.622C146.938 20.2106 130.656 20.1983 126.243 31.622C118.54 32.5083 112.648 39.214 113.058 47.1507C112.423 47.465 111.833 47.8529 111.285 48.2908H109.366L113.127 75.4282L114.094 75.4278C116.676 78.7159 120.515 80.9796 124.895 81.4928C131.353 87.6152 146.249 87.605 152.694 81.4928C161.566 80.4535 168.074 72.3086 166.739 63.218C171.899 58.5972 170.769 50.2362 164.531 47.1507Z" fill="#2DAD42"/>
<path d="M135.074 81.4928C126.202 80.4535 119.693 72.3086 121.029 63.218C115.868 58.5971 116.998 50.2362 123.237 47.1507C122.845 39.103 128.802 32.499 136.422 31.622C137.082 29.9184 138.084 28.3667 139.367 27.0616C140.65 25.7566 142.187 24.7256 143.884 24.0316C136.943 21.2022 128.957 24.5954 126.243 31.622C118.54 32.5083 112.648 39.214 113.058 47.1507C112.423 47.4649 111.833 47.8529 111.285 48.2907H109.366L113.127 75.4281L114.094 75.4278C116.676 78.7159 120.515 80.9795 124.895 81.4928C129.015 85.3985 136.89 86.9649 143.884 85.601C140.207 84.8839 137.099 83.4137 135.074 81.4928Z" fill="#2B9337"/>
<path d="M78.9635 134.964C75.4958 134.964 72.6844 137.762 72.6844 141.214V154.448H85.2432V141.214C85.2432 137.762 82.4319 134.964 78.9635 134.964Z" fill="#8DD83D"/>
<path d="M91.5222 141.661C88.0545 141.661 85.2432 144.459 85.2432 147.91V154.448H97.8016V147.91C97.8016 144.459 94.9899 141.661 91.5222 141.661Z" fill="#3BBC56"/>
<path d="M82.8937 136.344C78.7995 133.066 72.6844 135.975 72.6844 141.214V154.448H80.5446C80.5446 140.663 79.8533 138.777 82.8937 136.344Z" fill="#7FBF36"/>
<path d="M95.4525 143.04C91.3645 139.768 85.2432 142.661 85.2432 147.91V154.448H93.1033V147.91C93.1033 145.94 94.0214 144.186 95.4525 143.04Z" fill="#2DAD42"/>
<path d="M141.73 157H34.0559C32.6398 157 31.4919 155.858 31.4919 154.448C31.4919 153.039 32.6398 151.896 34.0559 151.896H141.73C142.41 151.896 143.062 152.165 143.543 152.644C144.024 153.122 144.294 153.772 144.294 154.448C144.294 155.125 144.024 155.774 143.543 156.253C143.062 156.731 142.41 157 141.73 157Z" fill="#E2926F"/>
<path d="M111.34 50.9316C111.815 41.1876 104.6 33.1895 95.3734 32.1274C90.0354 18.3089 70.3194 18.2943 64.9757 32.1274C55.631 33.2027 48.5125 41.3406 49.0096 50.9316C46.4562 52.1979 44.4412 54.3304 43.3279 56.9447C46.5134 59.3894 48.4325 63.2492 48.224 67.525C53.4907 70.1297 54.4403 77.186 50.0874 81.0838C50.2775 82.3716 50.2814 83.6798 50.099 84.9687C53.2264 89.0624 57.9472 91.8852 63.3434 92.5174C71.1631 99.9309 89.2007 99.9187 97.005 92.5174C107.752 91.2587 115.629 81.3931 114.013 70.3881C120.262 64.7924 118.894 54.6678 111.34 50.9316Z" fill="#8DD83D"/>
<path d="M72.2091 92.5173C61.4656 91.2589 53.5845 81.3959 55.2011 70.388C48.9526 64.7923 50.3206 54.6676 57.875 50.9318C57.3995 41.2083 64.596 33.1917 73.841 32.1276C75.6685 27.3967 79.6589 23.7342 84.6075 22.343C76.4458 20.0479 67.9741 24.3671 64.9761 32.1276C55.6321 33.2029 48.5124 41.3408 49.0101 50.9318C46.4566 52.1981 44.4417 54.3306 43.3284 56.9448C46.5225 59.3962 48.432 63.2586 48.2245 67.5252C53.4912 70.1299 54.4408 77.1865 50.0879 81.084C50.2788 82.383 50.2811 83.6841 50.0995 84.9689C53.2269 89.0626 57.9477 91.8854 63.3442 92.5176C68.3964 97.3076 77.3483 98.7653 84.6075 97.7749C79.4029 97.0647 74.9733 95.1385 72.2091 92.5173Z" fill="#7FBF36"/>
<path d="M48.4 67.4228C48.6895 60.8099 43.8216 55.0771 37.2202 54.2642C33.3915 44.6147 19.6129 44.6366 15.7925 54.2642C9.18612 55.0774 4.31721 60.8208 4.61206 67.4231C-0.715055 70.1431 -1.54679 77.2242 2.74272 81.1488C1.67092 88.7616 7.07407 95.7426 14.7002 96.6672C20.2245 101.843 32.7912 101.842 38.3116 96.6672C45.9151 95.7452 51.3405 88.789 50.2697 81.1488C54.5652 77.2186 53.7178 70.1369 48.4 67.4228Z" fill="#3BBC56"/>
<path d="M21.5377 96.6672C13.9232 95.7439 8.50682 88.7738 9.58027 81.1488C5.28412 77.218 6.13213 70.1378 11.4496 67.4231C11.1548 60.8199 16.0243 55.0774 22.6301 54.2642C23.9227 51.0072 26.658 48.5558 29.9255 47.532C24.0668 45.6967 17.9445 48.842 15.7929 54.2642C9.18648 55.0774 4.31758 60.8208 4.61242 67.4231C-0.714689 70.1431 -1.54643 77.2242 2.74309 81.1488C1.67129 88.7616 7.07443 95.7426 14.7005 96.6672C18.3748 100.11 24.8215 101.063 29.9255 100.297C26.5019 99.7835 23.501 98.5069 21.5377 96.6672Z" fill="#2DAD42"/>
</svg>
