<svg width="70" height="70" viewBox="0 0 70 70" fill="none" xmlns="http://www.w3.org/2000/svg">
<path d="M56.3559 6.67367V44.0466C56.3559 45.2751 55.3599 46.2711 54.1314 46.2711H3.70764C2.47908 46.2711 1.48306 45.2751 1.48306 44.0466V6.67367C1.48306 5.44511 2.47908 4.4491 3.70764 4.4491H54.1314C55.3599 4.4491 56.3559 5.44511 56.3559 6.67367Z" fill="#3493F8"/>
<path d="M49.6822 20.7627H12.6059C11.3774 20.7627 10.3814 19.7666 10.3814 18.5381V14.0889C10.3814 12.8604 11.3774 11.8644 12.6059 11.8644H49.6822C50.9108 11.8644 51.9068 12.8604 51.9068 14.0889V18.5381C51.9068 19.7666 50.9108 20.7627 49.6822 20.7627ZM5.93222 44.0466V6.67367C5.93222 5.44511 6.92823 4.4491 8.15679 4.4491H3.70764C2.47908 4.4491 1.48306 5.44511 1.48306 6.67367V44.0466C1.48306 45.2751 2.47908 46.2711 3.70764 46.2711H8.15679C6.92823 46.2711 5.93222 45.2751 5.93222 44.0466Z" fill="#1380E2"/>
<path d="M64.5956 22.149V46.4758C60.9912 52.9716 55.5368 58.2988 48.9441 61.7465H25.2948C24.0662 61.7465 23.0702 60.7505 23.0702 59.5219V22.149C23.0702 20.9205 24.0662 19.9244 25.2948 19.9244H62.371C63.5996 19.9244 64.5956 20.9205 64.5956 22.149Z" fill="#E9F3FE"/>
<path d="M26.0363 22.149V61.7465H11.9473C10.7187 61.7465 9.72273 60.7505 9.72273 59.5219V22.149C9.72273 20.9203 10.7187 19.9244 11.9473 19.9244H23.8117C25.0403 19.9244 26.0363 20.9205 26.0363 22.149Z" fill="#A7D0FC"/>
<path d="M26.0363 22.149V61.7465H16.0257C14.7971 61.7465 13.8011 60.7505 13.8011 59.5219V22.149C13.8011 20.9203 14.7971 19.9244 16.0257 19.9244H23.8117C25.0403 19.9244 26.0363 20.9205 26.0363 22.149Z" fill="#C8E2FD"/>
<path d="M60.1465 29.416V45.4162H32.71C31.4815 45.4162 30.4854 44.4203 30.4854 43.1916V29.416C30.4854 28.1873 31.4815 27.1914 32.71 27.1914H57.9219C59.1504 27.1914 60.1465 28.1874 60.1465 29.416Z" fill="#C8E2FD"/>
<path d="M64.5956 17.5515V23.0388H9.72273V17.5515C9.72273 16.3228 10.7187 15.3269 11.9473 15.3269H62.371C63.5996 15.3269 64.5956 16.3229 64.5956 17.5515Z" fill="#86BEFB"/>
<path d="M16.0257 15.3269C14.7971 15.3269 13.8011 16.3228 13.8011 17.5515V23.0388H9.72273V17.5515C9.72273 16.3228 10.7187 15.3269 11.9473 15.3269H16.0257Z" fill="#76B6FA"/>
<path d="M14.246 19.1828C14.246 19.7971 13.748 20.2951 13.1338 20.2951C12.5195 20.2951 12.0215 19.7971 12.0215 19.1828C12.0215 18.5686 12.5195 18.0706 13.1338 18.0706C13.748 18.0706 14.246 18.5686 14.246 19.1828ZM17.5458 18.1076C16.9316 18.1076 16.4335 18.6056 16.4335 19.2199C16.4335 19.8342 16.9316 20.3322 17.5458 20.3322C18.1601 20.3322 18.6581 19.8342 18.6581 19.2199C18.6581 18.6056 18.1601 18.1076 17.5458 18.1076ZM21.9579 18.1447C21.3436 18.1447 20.8456 18.6427 20.8456 19.257C20.8456 19.8713 21.3436 20.3693 21.9579 20.3693C22.5722 20.3693 23.0702 19.8713 23.0702 19.257C23.0702 18.6427 22.5722 18.1447 21.9579 18.1447Z" fill="#3493F8"/>
<path d="M56.3559 2.22458V7.71187H1.48306V2.22458C1.48306 0.996017 2.47908 0 3.70764 0H54.1314C55.3599 0 56.3559 0.996017 56.3559 2.22458Z" fill="#86BEFB"/>
<path d="M8.15679 0C6.92823 0 5.93222 0.996017 5.93222 2.22458V7.71187H1.48306V2.22458C1.48306 0.996017 2.47908 0 3.70764 0H8.15679Z" fill="#76B6FA"/>
<path d="M6.00638 3.85594C6.00638 4.47022 5.50837 4.96823 4.89409 4.96823C4.27981 4.96823 3.7818 4.47022 3.7818 3.85594C3.7818 3.24166 4.27981 2.74365 4.89409 2.74365C5.50837 2.74365 6.00638 3.24166 6.00638 3.85594ZM9.30616 2.78073C8.69188 2.78073 8.19388 3.27874 8.19388 3.89302C8.19388 4.5073 8.69188 5.00531 9.30616 5.00531C9.92044 5.00531 10.4185 4.5073 10.4185 3.89302C10.4185 3.27874 9.92044 2.78073 9.30616 2.78073ZM13.7182 2.8178C13.104 2.8178 12.606 3.31581 12.606 3.93009C12.606 4.54437 13.104 5.04238 13.7182 5.04238C14.3325 5.04238 14.8305 4.54437 14.8305 3.93009C14.8305 3.31581 14.3325 2.8178 13.7182 2.8178Z" fill="#3493F8"/>
<path d="M22.2458 28.5487C22.2458 29.163 21.7478 29.661 21.1335 29.661H12.9767C12.3624 29.661 11.8644 29.163 11.8644 28.5487C11.8644 27.9344 12.3624 27.4364 12.9767 27.4364H21.1335C21.7478 27.4364 22.2458 27.9344 22.2458 28.5487Z" fill="#76B6FA"/>
<path d="M21.1335 43.4288H12.9767C12.3624 43.4288 11.8644 42.9308 11.8644 42.3165C11.8644 41.7022 12.3624 41.2042 12.9767 41.2042H21.1335C21.7478 41.2042 22.2458 41.7022 22.2458 42.3165C22.2458 42.9308 21.7478 43.4288 21.1335 43.4288ZM22.2458 51.2148C22.2458 50.6005 21.7478 50.1025 21.1335 50.1025H12.9767C12.3624 50.1025 11.8644 50.6005 11.8644 51.2148C11.8644 51.8291 12.3624 52.3271 12.9767 52.3271H21.1335C21.7478 52.3271 22.2458 51.8291 22.2458 51.2148ZM19.2797 46.7657C19.2797 46.1514 18.7817 45.6534 18.1674 45.6534H12.9767C12.3624 45.6534 11.8644 46.1514 11.8644 46.7657C11.8644 47.3799 12.3624 47.878 12.9767 47.878H18.1674C18.7817 47.878 19.2797 47.3799 19.2797 46.7657ZM19.2797 55.664C19.2797 55.0497 18.7817 54.5517 18.1674 54.5517H12.9767C12.3624 54.5517 11.8644 55.0497 11.8644 55.664C11.8644 56.2783 12.3624 56.7763 12.9767 56.7763H18.1674C18.7817 56.7763 19.2797 56.2783 19.2797 55.664ZM19.2797 32.9979C19.2797 32.3836 18.7817 31.8856 18.1674 31.8856H12.9767C12.3624 31.8856 11.8644 32.3836 11.8644 32.9979C11.8644 33.6122 12.3624 34.1102 12.9767 34.1102H18.1674C18.7817 34.1102 19.2797 33.6122 19.2797 32.9979Z" fill="#86BEFB"/>
<path d="M49.3801 52.6483H33.7394C33.1251 52.6483 32.6271 52.1503 32.6271 51.536C32.6271 50.9217 33.1251 50.4237 33.7394 50.4237H49.3801C49.9944 50.4237 50.4924 50.9217 50.4924 51.536C50.4924 52.1503 49.9944 52.6483 49.3801 52.6483ZM38.5593 30.7733C38.5593 30.159 38.0613 29.661 37.447 29.661H33.7394C33.1251 29.661 32.6271 30.159 32.6271 30.7733C32.6271 31.3876 33.1251 31.8856 33.7394 31.8856H37.447C38.0613 31.8856 38.5593 31.3876 38.5593 30.7733ZM34.8517 34.4809C34.8517 33.8666 34.3537 33.3686 33.7394 33.3686C33.1251 33.3686 32.6271 33.8666 32.6271 34.4809C32.6271 35.0952 33.1251 35.5932 33.7394 35.5932C34.3537 35.5932 34.8517 35.0952 34.8517 34.4809ZM50.4924 55.6639C50.4924 55.0497 49.9944 54.5516 49.3801 54.5516H33.7394C33.1251 54.5516 32.6271 55.0497 32.6271 55.6639C32.6271 56.2782 33.1251 56.7762 33.7394 56.7762H49.3801C49.9944 56.7762 50.4924 56.2782 50.4924 55.6639ZM53.2341 34.2766L50.6265 32.1815C49.7906 31.5099 48.7507 31.1439 47.6786 31.1439C46.5776 31.1439 45.5113 31.53 44.6655 32.2348L38.3854 37.4682C37.5396 38.1731 36.4733 38.5592 35.3722 38.5592H30.4854V43.1913C30.4854 44.4199 31.4815 45.4159 32.71 45.4159H60.1465V34.7243L56.9471 35.2514C55.6272 35.4689 54.277 35.1145 53.2341 34.2766Z" fill="#A7D0FC"/>
<path d="M67.5914 54.9916C67.4222 56.2142 67.1033 57.3889 66.6543 58.4968L66.966 58.6768C67.9448 59.242 68.2803 60.4936 67.7151 61.4725C67.1499 62.4515 65.8983 62.7868 64.9194 62.2216L64.6048 62.0399C63.858 62.9961 62.9962 63.8579 62.04 64.6047L62.2217 64.9193C62.7869 65.8982 62.4514 67.1499 61.4726 67.715C60.4937 68.2802 59.242 67.9447 58.6769 66.9659L58.4969 66.654C57.3889 67.1032 56.2142 67.4219 54.9917 67.5911V67.9533C54.9917 69.0835 54.0755 69.9999 52.9451 69.9999C51.8147 69.9999 50.8985 69.0835 50.8985 67.9533V67.5911C49.676 67.4219 48.5013 67.1032 47.3933 66.654L47.2132 66.9659C46.648 67.9447 45.3965 68.2802 44.4175 67.715C43.4386 67.1498 43.1033 65.8982 43.6685 64.9193L43.8501 64.6047C42.894 63.8579 42.0322 62.9961 41.2853 62.0399L40.9708 62.2216C39.9918 62.7868 38.7401 62.4513 38.1751 61.4725C37.6099 60.4936 37.9454 59.2419 38.9242 58.6768L39.2359 58.4968C38.7868 57.3888 38.4681 56.2141 38.2988 54.9916H37.9365C36.8061 54.9916 35.8898 54.0754 35.8898 52.945C35.8898 51.8146 36.8061 50.8984 37.9365 50.8984H38.2985C38.4677 49.6757 38.7865 48.501 39.2356 47.3932L38.9239 47.2131C37.9451 46.6479 37.6096 45.3964 38.1748 44.4174C38.74 43.4385 39.9917 43.1032 40.9705 43.6683L41.285 43.85C42.0319 42.8939 42.8937 42.0321 43.8498 41.2852L43.6682 40.9707C43.103 39.9917 43.4384 38.74 44.4172 38.175C45.3962 37.6098 46.6479 37.9453 47.2129 38.9241L47.393 39.236C48.501 38.7867 49.6757 38.468 50.8982 38.2988V37.9365C50.8982 36.8063 51.8144 35.8899 52.9448 35.8899C54.0752 35.8899 54.9914 36.8063 54.9914 37.9365V38.2985C56.2139 38.4679 57.3886 38.7866 58.4966 39.2357L58.6766 38.9238C59.2418 37.945 60.4934 37.6095 61.4723 38.1747C62.4513 38.7399 62.7866 39.9914 62.2214 40.9704L62.0397 41.2849C62.9959 42.0318 63.8577 42.8936 64.6045 43.8497L64.9191 43.668C65.8981 43.1029 67.1497 43.4383 67.7148 44.4171C68.28 45.3961 67.9445 46.6478 66.9657 47.2128L66.654 47.3929C67.103 48.5009 67.4217 49.6756 67.5911 50.8981H67.9531C69.0835 50.8981 69.9997 51.8143 69.9997 52.9447C69.9997 54.0751 69.0835 54.9913 67.9531 54.9913H67.5914V54.9916Z" fill="#9BCF1B"/>
<path d="M63.09 52.9449C63.09 58.5479 58.5479 63.09 52.9449 63.09C47.3419 63.09 42.7998 58.5479 42.7998 52.9449C42.7998 47.3419 47.3419 42.7998 52.9449 42.7998C58.5479 42.7998 63.09 47.3419 63.09 52.9449Z" fill="#71892E"/>
<path d="M52.9449 41.6875C46.7376 41.6875 41.6875 46.7376 41.6875 52.9449C41.6875 59.1522 46.7376 64.2023 52.9449 64.2023C59.1522 64.2023 64.2023 59.1522 64.2023 52.9449C64.2023 46.7376 59.1522 41.6875 52.9449 41.6875ZM52.9449 61.9777C47.9642 61.9777 43.9121 57.9256 43.9121 52.9449C43.9121 47.9642 47.9642 43.9121 52.9449 43.9121C57.9256 43.9121 61.9777 47.9642 61.9777 52.9449C61.9777 57.9256 57.9256 61.9777 52.9449 61.9777Z" fill="#7FA32F"/>
<path d="M51.8299 49.3564L48.1144 53.0717L51.8299 56.7871C52.2642 57.2215 52.2642 57.9258 51.8299 58.36C51.3953 58.7944 50.6912 58.7944 50.2568 58.36L45.755 53.8582C45.5465 53.6497 45.4293 53.3667 45.4293 53.0717C45.4293 52.7768 45.5465 52.4938 45.755 52.2853L50.2568 47.7835C50.4741 47.5663 50.7588 47.4576 51.0434 47.4576C51.328 47.4576 51.6127 47.5662 51.83 47.7835C52.2642 48.2177 52.2642 48.9222 51.8299 49.3564ZM60.1349 52.2853L55.6331 47.7835C55.1986 47.3491 54.4945 47.3491 54.0601 47.7835C53.6257 48.2179 53.6257 48.9222 54.0601 49.3564L57.7756 53.0717L54.0601 56.7872C53.6257 57.2216 53.6257 57.9259 54.0601 58.3601C54.2773 58.5773 54.5621 58.6858 54.8467 58.6858C55.1313 58.6858 55.416 58.5773 55.6333 58.3601L60.1351 53.8583C60.3436 53.6498 60.4608 53.3669 60.4608 53.0717C60.4608 52.7766 60.3436 52.4938 60.1349 52.2853Z" fill="#F2FBDC"/>
</svg>
