<svg width="40" height="70" viewBox="0 0 40 70" fill="none" xmlns="http://www.w3.org/2000/svg">
<path d="M33.9732 70H6.1439C2.85296 70 0.175781 67.3226 0.175781 64.0317V5.96829C0.17561 2.67735 2.85296 0 6.1439 0H33.9732C37.2642 0 39.9413 2.67735 39.9413 5.96829V64.0319C39.9413 67.3226 37.264 70 33.9732 70Z" fill="#2A428C"/>
<path d="M18.215 66.2867C16.1306 64.2024 18.215 62.1604 18.215 62.1604L18.018 43.0682C15.3544 40.4045 18.215 37.9586 18.215 37.9586C18.215 37.9586 20.2163 21.5101 18.1915 18.855C16.1668 16.1998 18.9224 14.4076 18.9224 14.4076V9.9874C15.1698 9.9874 15.0659 6.7752 15.0659 6.7752C13.7715 5.48095 15.0659 4.27676 15.0659 4.27676V2.21403C13.9258 1.49151 14.2027 0.518385 14.4708 0H6.1439C2.85296 0 0.175781 2.67735 0.175781 5.96812V64.0317C0.175781 67.3226 2.85313 70 6.1439 70H18.215C16.3433 68.1284 18.215 66.2867 18.215 66.2867Z" fill="#142766"/>
<path d="M15.662 4.27689H15.0661C14.4964 4.27689 14.0346 3.81512 14.0346 3.24544C14.0346 2.67577 14.4964 2.21399 15.0661 2.21399H15.662C16.2317 2.21399 16.6934 2.67577 16.6934 3.24544C16.6934 3.81512 16.2315 4.27689 15.662 4.27689Z" fill="#3C58A0"/>
<path d="M24.9085 4.27689H19.1823C18.6126 4.27689 18.1508 3.81512 18.1508 3.24544C18.1508 2.67577 18.6126 2.21399 19.1823 2.21399H24.9085C25.4782 2.21399 25.94 2.67577 25.94 3.24544C25.94 3.81512 25.4782 4.27689 24.9085 4.27689Z" fill="#3C58A0"/>
<path d="M33.9732 3.71313H29.7906C29.0108 3.71313 28.3789 4.34525 28.3789 5.12489C28.3789 6.03249 27.6363 6.77524 26.7285 6.77524H13.3886C12.4808 6.77524 11.7382 6.03266 11.7382 5.12489C11.7382 4.34525 11.1061 3.71313 10.3265 3.71313H6.14388C4.89852 3.71313 3.88885 4.7228 3.88885 5.96816V64.0318C3.88885 65.2771 4.89852 66.2868 6.14388 66.2868H33.9732C35.2186 66.2868 36.2282 65.2771 36.2282 64.0318C36.2282 58.059 36.2282 7.56226 36.2282 5.96816C36.2282 4.7228 35.2186 3.71313 33.9732 3.71313Z" fill="#E9EFFF"/>
<path d="M30.4123 18.8552H9.70485C9.00515 18.8552 8.43805 19.4223 8.43805 20.122V35.6835L14.1696 27.5871C15.1391 26.2178 17.1712 26.2178 18.1407 27.5871L21.8416 32.8151C22.0188 33.0654 22.3902 33.0654 22.5674 32.8151L23.3222 31.7488C24.2188 30.4822 26.0985 30.4822 26.9951 31.7488L31.1974 37.685C31.4904 37.4529 31.6791 37.0948 31.6791 36.692V20.122C31.6791 19.4223 31.112 18.8552 30.4123 18.8552Z" fill="#FFDD40"/>
<path d="M25.3826 25.6392C25.6411 24.5456 24.9641 23.4495 23.8705 23.191C22.7769 22.9325 21.6808 23.6094 21.4222 24.7031C21.1637 25.7967 21.8407 26.8928 22.9343 27.1513C24.0279 27.4098 25.1241 26.7328 25.3826 25.6392Z" fill="#FCF2C8"/>
<path d="M12.676 13.9563C13.6464 12.9859 13.6464 11.4126 12.676 10.4422C11.7056 9.47177 10.1323 9.47177 9.1619 10.4422C8.19151 11.4126 8.19151 12.9859 9.1619 13.9563C10.1323 14.9267 11.7056 14.9267 12.676 13.9563Z" fill="#816AE2"/>
<path d="M22.4825 12.7811C22.7982 11.4456 21.9715 10.1071 20.636 9.79138C19.3005 9.47569 17.9619 10.3024 17.6462 11.6379C17.3306 12.9734 18.1573 14.3119 19.4928 14.6276C20.8283 14.9433 22.1668 14.1166 22.4825 12.7811Z" fill="#FC90CE"/>
<path d="M30.155 14.4814C31.4232 13.9558 32.0252 12.5015 31.4995 11.2332C30.9738 9.965 29.5195 9.36305 28.2513 9.88873C26.9831 10.4144 26.3811 11.8687 26.9068 13.1369C27.4325 14.4052 28.8868 15.0071 30.155 14.4814Z" fill="#4FABF7"/>
<path d="M30.4123 43.0684H9.70485C9.00515 43.0684 8.43805 43.6355 8.43805 44.3352V59.8967L14.1696 51.8003C15.1391 50.4309 17.1712 50.4309 18.1407 51.8003L21.8416 57.0282C22.0188 57.2785 22.3902 57.2785 22.5674 57.0282L23.3222 55.9619C24.2188 54.6953 26.0985 54.6953 26.9951 55.9619L31.1974 61.8982C31.4904 61.6661 31.6791 61.3079 31.6791 60.9051V44.3353C31.6791 43.6355 31.112 43.0684 30.4123 43.0684Z" fill="#73C3F9"/>
<path d="M23.399 51.4035C24.523 51.4035 25.4341 50.4923 25.4341 49.3684C25.4341 48.2444 24.523 47.3333 23.399 47.3333C22.275 47.3333 21.3639 48.2444 21.3639 49.3684C21.3639 50.4923 22.275 51.4035 23.399 51.4035Z" fill="#FFDD40"/>
<path d="M15.8992 20.5381C15.8992 19.1505 17.3978 18.8939 18.1915 18.855H9.70467C9.00497 18.855 8.43787 19.4221 8.43787 20.1218V35.6833L14.1694 27.5869C14.599 26.9802 15.2373 26.6435 15.899 26.5743C15.8992 23.8201 15.8992 21.2946 15.8992 20.5381Z" fill="#FFB332"/>
<path d="M8.43787 44.3352V59.8967L14.1694 51.8003C14.599 51.1936 15.2373 50.8568 15.899 50.7879C15.899 48.029 15.899 45.4977 15.899 44.7402C15.899 43.4487 17.1979 43.1368 18.0179 43.0684H9.70449C9.00514 43.0682 8.43787 43.6355 8.43787 44.3352Z" fill="#4FABF7"/>
<path d="M26.9951 31.56C26.0985 30.2934 24.2188 30.2934 23.3222 31.56L22.5674 32.6263C22.3902 32.8766 22.0188 32.8766 21.8416 32.6263L18.1407 27.3984C17.1712 26.0288 15.1391 26.0288 14.1696 27.3984L8.43805 35.4948V36.6917C8.43805 37.3914 9.00515 37.9585 9.70485 37.9585H30.4125C30.7487 37.9585 31.0535 37.8266 31.2803 37.6129L26.9951 31.56Z" fill="#2A428C"/>
<path d="M26.9951 55.7732C26.0985 54.5065 24.2188 54.5065 23.3222 55.7732L22.5674 56.8394C22.3902 57.0897 22.0188 57.0897 21.8416 56.8394L18.1407 51.6115C17.1712 50.242 15.1391 50.242 14.1696 51.6115L8.43805 59.7079V60.9049C8.43805 61.6046 9.00515 62.1717 9.70485 62.1717H30.4125C30.7487 62.1717 31.0535 62.0398 31.2803 61.826L26.9951 55.7732Z" fill="#4CE088"/>
<path d="M15.8992 35.319C15.8992 35.319 15.8992 30.5482 15.8992 26.386C15.2373 26.4551 14.5991 26.7917 14.1696 27.3986L8.43805 35.4949V36.6921C8.43805 37.3918 9.00515 37.9589 9.70485 37.9589H18.215C15.8992 37.4536 15.8992 35.319 15.8992 35.319Z" fill="#1C2E7A"/>
<path d="M18.215 62.1604C15.8992 61.6552 15.8992 59.5208 15.8992 59.5208C15.8992 59.5208 15.8992 54.7587 15.8992 50.5991C15.2373 50.6683 14.5991 51.0048 14.1696 51.6115L8.43805 59.7079V60.9049C8.43805 61.6046 9.00515 62.1717 9.70485 62.1717H18.2567C18.2426 62.1681 18.2297 62.1636 18.215 62.1604Z" fill="#30C16B"/>
</svg>
