<svg width="66" height="70" viewBox="0 0 66 70" fill="none" xmlns="http://www.w3.org/2000/svg">
<path d="M59.1524 35C59.1524 33.97 59.0922 32.9544 58.9759 31.9557C58.8263 30.6715 59.3351 29.3982 60.307 28.5456L64.308 25.0354C65.666 23.8441 65.9711 21.8491 65.0315 20.3062L60.7523 13.2808C59.8126 11.7379 57.8998 11.0938 56.2183 11.7538L51.2308 13.7114C50.0236 14.1852 48.6668 14.0192 47.5914 13.2946C46.436 12.5163 45.215 11.8278 43.9385 11.2391C42.7639 10.6974 41.9205 9.62582 41.6977 8.35169L40.7758 3.07808C40.4646 1.29843 38.9195 0 37.113 0H28.887C27.0805 0 25.5354 1.29843 25.2244 3.07794L24.3024 8.35155C24.0797 9.62569 23.2362 10.6974 22.0616 11.239C20.7851 11.8277 19.5641 12.5161 18.4087 13.2945C17.3332 14.0189 15.9764 14.1849 14.7694 13.7112L9.78169 11.7537C8.10004 11.0938 6.1874 11.7379 5.24775 13.2806L0.968689 20.306C0.0290422 21.8489 0.33416 23.8439 1.69216 25.0353L5.69314 28.5455C6.66504 29.3981 7.17385 30.6714 7.02424 31.9556C6.90785 32.9542 6.84773 33.97 6.84773 34.9999C6.84773 36.0297 6.90798 37.0455 7.02424 38.0442C7.17385 39.3283 6.66504 40.6016 5.69314 41.4543L1.69216 44.9644C0.33416 46.1558 0.0290422 48.1508 0.968689 49.6937L5.24775 56.7191C6.1874 58.262 8.10018 58.9061 9.78169 58.246L14.7693 56.2885C15.9764 55.8147 17.3332 55.9808 18.4086 56.7052C19.564 57.4836 20.785 58.1721 22.0615 58.7607C23.2361 59.3025 24.0795 60.374 24.3023 61.6482L25.2242 66.9218C25.5354 68.7016 27.0805 69.451 28.887 69.451H37.113C38.9195 69.451 40.4646 68.7016 40.7756 66.9221L41.6976 61.6485C41.9203 60.3743 42.7638 59.3026 43.9384 58.761C45.2149 58.1723 46.4359 57.4839 47.5913 56.7055C48.6668 55.9811 50.0236 55.8151 51.2306 56.2888L56.2182 58.2463C57.8998 58.9064 59.8125 58.2621 60.7521 56.7194L65.0312 49.694C65.9708 48.1511 65.6657 46.1561 64.3077 44.9647L60.3067 41.4546C59.3348 40.6019 58.826 39.3286 58.9756 38.0445C59.0923 37.0457 59.1524 36.03 59.1524 35Z" fill="url(#paint0_linear_769_847)"/>
<path d="M33 56.3776C44.8065 56.3776 54.3776 46.8065 54.3776 35C54.3776 23.1935 44.8065 13.6224 33 13.6224C21.1935 13.6224 11.6224 23.1935 11.6224 35C11.6224 46.8065 21.1935 56.3776 33 56.3776Z" fill="url(#paint1_linear_769_847)"/>
<path d="M40.7756 66.9221C41.1424 64.8243 41.3267 62.6988 41.3267 60.5691V46.0261H24.6732V60.5691C24.6732 62.6988 24.8575 64.8243 25.2242 66.9221C25.5354 68.7016 27.0805 70 28.887 70H37.113C38.9195 70 40.4646 68.7016 40.7756 66.9221Z" fill="url(#paint2_linear_769_847)"/>
<path d="M24.6732 50.5315L40.8161 66.6745C41.1547 64.6571 41.3267 62.615 41.3267 60.5691V46.0261H24.6732V50.5315Z" fill="url(#paint3_linear_769_847)"/>
<path d="M50.6153 35C50.6153 44.7286 42.7288 52.6151 33.0001 52.6153C23.2715 52.6154 15.402 44.7607 15.3847 35.0321C15.3741 29.1094 18.2864 23.8657 22.7609 20.6645C23.5606 20.0924 24.6726 20.6607 24.6726 21.6438V33.2707C24.6726 34.6847 25.427 35.9914 26.6515 36.6985L31.0208 39.2212C32.2455 39.9284 33.7544 39.9284 34.9791 39.2212L39.3483 36.6985C40.5729 35.9915 41.3273 34.6848 41.3273 33.2707V21.6434C41.3273 20.6653 42.4338 20.0893 43.2297 20.6578C47.7015 23.8527 50.6153 29.0863 50.6153 35Z" fill="url(#paint4_linear_769_847)"/>
<path d="M19.9639 36.4838C19.9639 38.6974 21.1449 40.7429 23.0619 41.8497L29.9017 45.799C31.8189 46.9059 34.1811 46.9059 36.0983 45.799L42.9381 41.8497C44.8551 40.7429 46.0361 38.6974 46.0361 36.4838V23.1549C45.1925 22.2272 44.2524 21.3887 43.2297 20.658C42.4338 20.0893 41.3273 20.6654 41.3273 21.6436V33.2709C41.3273 34.6849 40.5729 35.9916 39.3483 36.6987L34.9791 39.2215C33.7544 39.9286 32.2455 39.9286 31.0208 39.2215L26.6516 36.6987C25.427 35.9917 24.6726 34.685 24.6726 33.2709V21.644C24.6726 20.6607 23.5606 20.0926 22.7609 20.6647C21.7418 21.3938 20.8048 22.23 19.9638 23.1548V36.4838H19.9639Z" fill="url(#paint5_linear_769_847)"/>
<defs>
<linearGradient id="paint0_linear_769_847" x1="15.3493" y1="17.3493" x2="52.2851" y2="54.2851" gradientUnits="userSpaceOnUse">
<stop stop-color="#7FAEF4"/>
<stop offset="1" stop-color="#4C8DF1"/>
</linearGradient>
<linearGradient id="paint1_linear_769_847" x1="57.1287" y1="59.1288" x2="6.93969" y2="8.93971" gradientUnits="userSpaceOnUse">
<stop stop-color="#7FAEF4"/>
<stop offset="1" stop-color="#4C8DF1"/>
</linearGradient>
<linearGradient id="paint2_linear_769_847" x1="32.3873" y1="56.0637" x2="42.8915" y2="66.568" gradientUnits="userSpaceOnUse">
<stop stop-color="#E3E5E4"/>
<stop offset="1" stop-color="#CBD0E4"/>
</linearGradient>
<linearGradient id="paint3_linear_769_847" x1="38.1133" y1="59.8511" x2="31.1591" y2="44.1127" gradientUnits="userSpaceOnUse">
<stop stop-color="#CBD0E4" stop-opacity="0"/>
<stop offset="1" stop-color="#6A7D83"/>
</linearGradient>
<linearGradient id="paint4_linear_769_847" x1="26.5467" y1="28.5513" x2="49.5487" y2="51.5533" gradientUnits="userSpaceOnUse">
<stop stop-color="#E3E5E4"/>
<stop offset="1" stop-color="#CBD0E4"/>
</linearGradient>
<linearGradient id="paint5_linear_769_847" x1="42.7793" y1="40.8678" x2="16.7006" y2="14.789" gradientUnits="userSpaceOnUse">
<stop stop-color="#E3E5E4"/>
<stop offset="1" stop-color="#CBD0E4"/>
</linearGradient>
</defs>
</svg>
