<svg width="70" height="70" viewBox="0 0 70 70" fill="none" xmlns="http://www.w3.org/2000/svg">
<path d="M6.3636 0.000732422H63.6349C67.1494 0.000732422 69.9985 2.84986 69.9985 6.36433V57.2731C69.9985 60.7876 67.1494 63.6367 63.6349 63.6367H6.3636C2.84913 63.6367 0 60.7876 0 57.2731V6.36433C0 2.84986 2.84913 0.000732422 6.3636 0.000732422Z" fill="#F0EAF9"/>
<path d="M3.18172 12.728H66.8168C68.574 12.728 69.9985 14.1525 69.9985 15.9098V15.9099C69.9985 17.6671 68.574 19.0916 66.8168 19.0916H3.18172C1.42449 19.0916 0 17.6671 0 15.9099V15.9098C0 14.1525 1.42449 12.728 3.18172 12.728Z" fill="#E1D5F3"/>
<path d="M6.3636 0.000732422H63.6355C67.15 0.000732422 69.9991 2.84986 69.9991 6.36433V15.9096H0V6.36433C0 2.84986 2.84913 0.000732422 6.3636 0.000732422Z" fill="#5628B4"/>
<path d="M68.4082 22.2729C67.5295 22.2729 66.8172 22.9851 66.8172 23.8637C66.8172 23.8637 66.8172 23.8637 66.8172 23.8639V57.2725C66.8172 59.0297 65.3927 60.4542 63.6355 60.4542H46.1358C45.2572 60.4542 44.5449 61.1665 44.5449 62.0452C44.5449 62.9238 45.2572 63.6361 46.1358 63.6361H63.6355C67.15 63.6361 69.9989 60.787 69.9991 57.2725V23.8639C69.9991 22.9851 69.2868 22.2729 68.4082 22.2729Z" fill="#D9C9EF"/>
<path d="M7.95495 9.54637C8.8336 9.54637 9.54589 8.83409 9.54589 7.95544C9.54589 7.07679 8.8336 6.3645 7.95495 6.3645C7.0763 6.3645 6.36401 7.07679 6.36401 7.95544C6.36401 8.83409 7.0763 9.54637 7.95495 9.54637Z" fill="#F7B236"/>
<path d="M14.3176 9.54637C15.1962 9.54637 15.9085 8.83409 15.9085 7.95544C15.9085 7.07679 15.1962 6.3645 14.3176 6.3645C13.4389 6.3645 12.7266 7.07679 12.7266 7.95544C12.7266 8.83409 13.4389 9.54637 14.3176 9.54637Z" fill="#B39DDD"/>
<path d="M20.6816 9.54637C21.5602 9.54637 22.2725 8.83409 22.2725 7.95544C22.2725 7.07679 21.5602 6.3645 20.6816 6.3645C19.8029 6.3645 19.0906 7.07679 19.0906 7.95544C19.0906 8.83409 19.8029 9.54637 20.6816 9.54637Z" fill="#D80E70"/>
<path d="M60.4538 44.5454H28.6359C26.8787 44.5454 25.4542 43.1209 25.4542 41.3636V25.4552C25.4542 23.6979 26.8787 22.2734 28.6359 22.2734H60.4538C62.211 22.2734 63.6355 23.6979 63.6355 25.4552V41.3636C63.6355 43.1209 62.211 44.5454 60.4538 44.5454Z" fill="#B39DDD"/>
<path d="M15.9085 35H9.54531C7.78808 35 6.36359 33.5755 6.36359 31.8183V25.4552C6.36359 23.6979 7.78808 22.2734 9.54531 22.2734H15.9085C17.6657 22.2734 19.0902 23.6979 19.0902 25.4552V31.8183C19.0902 33.5755 17.6657 35 15.9085 35Z" fill="#B39DDD"/>
<path d="M15.9085 57.272H9.54531C7.78808 57.272 6.36359 55.8475 6.36359 54.0903V47.7271C6.36359 45.9699 7.78808 44.5454 9.54531 44.5454H15.9085C17.6657 44.5454 19.0902 45.9699 19.0902 47.7271V54.0903C19.0902 55.8475 17.6657 57.272 15.9085 57.272Z" fill="#B39DDD"/>
<path d="M27.0452 47.7267H36.5899C37.4685 47.7267 38.1808 48.439 38.1808 49.3176C38.1808 50.1962 37.4685 50.9086 36.5899 50.9086H27.0452C26.1665 50.9086 25.4542 50.1962 25.4542 49.3176C25.4542 48.439 26.1665 47.7267 27.0452 47.7267Z" fill="#B39DDD"/>
<path d="M58.8624 47.7267H62.0441C62.9228 47.7267 63.6351 48.439 63.6351 49.3176C63.6351 50.1962 62.9228 50.9086 62.0441 50.9086H58.8624C57.9838 50.9086 57.2715 50.1962 57.2715 49.3176C57.2715 48.439 57.9838 47.7267 58.8624 47.7267Z" fill="#B39DDD"/>
<path d="M42.9545 47.7267H52.4992C53.3779 47.7267 54.0902 48.439 54.0902 49.3176C54.0902 50.1962 53.3779 50.9086 52.4992 50.9086H42.9545C42.0759 50.9086 41.3636 50.1962 41.3636 49.3176C41.3636 48.439 42.0759 47.7267 42.9545 47.7267Z" fill="#B39DDD"/>
<path d="M27.0452 54.0907H39.7727C40.6513 54.0907 41.3636 54.803 41.3636 55.6816C41.3636 56.5603 40.6513 57.2726 39.7727 57.2726H27.0452C26.1665 57.2726 25.4542 56.5603 25.4542 55.6816C25.4542 54.803 26.1665 54.0907 27.0452 54.0907Z" fill="#B39DDD"/>
<path d="M46.1358 54.0907H49.3175C50.1961 54.0907 50.9085 54.803 50.9085 55.6816C50.9085 56.5603 50.1961 57.2726 49.3175 57.2726H46.1358C45.2572 57.2726 44.5449 56.5603 44.5449 55.6816C44.5449 54.803 45.2572 54.0907 46.1358 54.0907Z" fill="#B39DDD"/>
<path d="M17.4992 41.3641H7.95452C7.07591 41.3641 6.36359 40.6518 6.36359 39.7732C6.36359 38.8946 7.07591 38.1823 7.95452 38.1823H17.4992C18.3779 38.1823 19.0902 38.8946 19.0902 39.7732C19.0902 40.6518 18.3779 41.3641 17.4992 41.3641Z" fill="#B39DDD"/>
<path d="M34.9995 47.7271H31.8181C23.0319 47.7271 15.9092 54.8497 15.9092 63.636C15.9092 63.6361 15.9092 63.6361 15.9092 63.6363V63.7205C15.9205 65.4585 14.3866 66.8178 12.6486 66.8178H11.1362C10.2576 66.8178 9.54529 67.5302 9.54529 68.4088C9.54529 69.2874 10.2576 69.9997 11.1362 69.9997H22.2725C31.0586 69.9996 38.1812 62.8768 38.1812 54.0907V47.7271H34.9995Z" fill="#F7B236"/>
<path d="M38.1812 54.0906V47.7271H34.9995C34.9995 56.5132 27.8769 63.636 19.0906 63.636H15.9093V63.7204C15.9207 65.4582 14.3866 66.8177 12.6487 66.8177H11.1362C10.2576 66.8177 9.54529 67.53 9.54529 68.4086C9.54529 69.2872 10.2576 69.9996 11.1362 69.9996H22.2725C31.0586 69.9994 38.1812 62.8768 38.1812 54.0906Z" fill="#F58B04"/>
<path d="M68.9327 16.9757C67.9577 16.0008 66.5155 15.6603 65.2075 16.0964C53.9934 20.0587 44.7544 28.2177 39.4354 38.8555L38.1813 41.3636V47.7272H44.5449L47.0529 46.4732C57.6907 41.1542 65.8497 31.9151 69.8121 20.7011C70.2482 19.3928 69.9077 17.9507 68.9327 16.9757Z" fill="#D80E70"/>
<path d="M34.9996 47.7271L38.1813 50.909L44.5449 47.7271L38.1813 41.3636L34.9996 47.7271Z" fill="#5628B4"/>
<path d="M36.7195 49.4469L38.1813 50.9087L44.5449 47.727L41.4922 44.6743C40.1742 43.3563 38.0375 43.3563 36.7195 44.6743C36.463 44.9308 36.2495 45.2269 36.0873 45.5514C35.4377 46.8508 35.6923 48.4199 36.7195 49.4469Z" fill="#420F9B"/>
</svg>
