<svg width="613" height="494" viewBox="0 0 613 494" fill="none" xmlns="http://www.w3.org/2000/svg">
<g opacity="0.5">
<g opacity="0.19">
<g opacity="0.19">
<g opacity="0.19">
<path opacity="0.19" d="M499.358 274.873C501.265 275.864 561.032 307.485 567.028 311.721L567.538 312.173C566.5 312.379 565.537 312.438 564.645 312.72L564.786 313.167C551.019 313.844 538.193 306.619 527.533 298.094C517.816 290.62 509.304 281.906 499.358 274.873Z" fill="url(#paint0_linear_699_1350)"/>
</g>
<g opacity="0.19">
<path opacity="0.19" d="M501.891 421.277C500.342 421.031 498.869 420.639 497.472 420.099C489.311 417.163 482.528 411.213 476.262 405.346C476.409 405.422 476.561 405.129 476.573 404.389C478.528 402.421 486.433 398.324 486.433 398.324L501.891 421.277Z" fill="url(#paint1_linear_699_1350)"/>
</g>
<g opacity="0.19">
<path opacity="0.19" d="M476.191 405.123C476.338 405.199 476.338 405.199 476.191 405.123C459.136 389.545 442.614 372.939 425.037 357.649L460.77 375.288L476.191 405.123Z" fill="url(#paint2_linear_699_1350)"/>
</g>
<g opacity="0.19">
<path opacity="0.19" d="M335.608 197.412C342.573 201.219 386.38 218.019 387.923 218.635C384.831 217.774 381.663 217.059 378.488 216.715C374.134 216.13 369.627 215.839 365.537 217.257C361.447 218.674 357.697 221.947 356.886 226.374C356.404 228.735 356.815 230.813 357.595 232.897C357.671 232.75 339.891 202.436 335.608 197.412Z" fill="url(#paint3_linear_699_1350)"/>
</g>
<g opacity="0.19">
<path opacity="0.19" d="M415.802 417.001L430.34 432.763C419.654 430.38 409.985 424.608 400.685 418.842C392.776 413.986 384.638 409.569 378.912 402.304L397.642 405.698L420.756 407.827L415.802 417.001Z" fill="url(#paint4_linear_699_1350)"/>
</g>
<g opacity="0.19">
<path opacity="0.19" d="M331.896 115.293L206.628 68.4629L210.489 67.486C217.73 67.8926 224.901 68.0761 232.142 68.4828C237.464 68.6381 242.71 68.9402 248.021 69.8353C261.587 72.4105 273.598 79.7717 285.315 86.9804C291.687 90.8515 297.983 94.8696 304.355 98.7408C313.437 104.207 322.667 109.75 331.896 115.293Z" fill="url(#paint5_linear_699_1350)"/>
</g>
<g opacity="0.19">
<path opacity="0.19" d="M357.025 360.532L378.982 402.528L322.608 366.888L322.666 340.25C323.311 341.518 331.705 357.629 331.705 357.629L357.025 360.532Z" fill="url(#paint6_linear_699_1350)"/>
</g>
<g opacity="0.19">
<path opacity="0.19" d="M351.507 409.507L378.912 402.304C379.005 405.71 375.272 407.872 371.928 408.931C365.167 410.826 358.354 411.388 351.413 410.764L351.507 409.507Z" fill="url(#paint7_linear_699_1350)"/>
</g>
<g opacity="0.19">
<path opacity="0.19" d="M333.221 281.584L394.588 319.446C395.005 321.154 425.037 357.649 425.037 357.649C418.982 352.451 412.851 347.4 406.496 342.419C392.468 331.771 377.535 322.145 364.411 310.475C356.244 303.247 348.828 295.29 340.814 287.768C338.555 285.661 336.003 283.402 333.221 281.584Z" fill="url(#paint8_linear_699_1350)"/>
</g>
<g opacity="0.19">
<path opacity="0.19" d="M348.022 405.458L351.577 409.73L351.483 410.987C337.969 409.744 324.444 404.58 311.659 399.427C298.873 394.274 286.088 389.121 274.065 382.499C272.892 381.889 271.941 381.209 270.768 380.599L348.022 405.458Z" fill="url(#paint9_linear_699_1350)"/>
</g>
<g opacity="0.19">
<path opacity="0.19" d="M322.596 340.027L322.538 366.665L244.654 288.888L251.136 267.454C251.06 267.601 321.874 338.906 322.596 340.027Z" fill="url(#paint10_linear_699_1350)"/>
</g>
<g opacity="0.19">
<path opacity="0.19" d="M285.275 333.684L240.655 298.372L198.315 277.672L220.918 251.749L251.059 267.601L244.577 289.035L322.537 366.664L293.079 340.537L285.275 333.684Z" fill="url(#paint11_linear_699_1350)"/>
</g>
<g opacity="0.19">
<path opacity="0.19" d="M273.194 367.687L270.697 380.376C258.464 373.086 247.211 364.626 235.582 356.531C226.657 350.401 217.581 344.564 208.351 339.021L220.441 327.589C242.138 344.273 272.091 367.3 273.194 367.687Z" fill="url(#paint12_linear_699_1350)"/>
</g>
<g opacity="0.19">
<path opacity="0.19" d="M198.316 277.673L198.451 310.751L208.351 339.021C184.254 324.446 159.317 311.485 134.533 298.231L198.316 277.673Z" fill="url(#paint13_linear_699_1350)"/>
</g>
<g opacity="0.19">
<path opacity="0.19" d="M134.533 298.231C131.892 296.859 129.399 295.563 126.981 294.12C108.358 284.068 89.7407 273.646 73.1658 260.369C68.3489 256.374 63.755 252.308 59.0907 248.019C59.0907 248.019 107.535 261.634 108.25 263.125C107.569 264.077 134.533 298.231 134.533 298.231Z" fill="url(#paint14_linear_699_1350)"/>
</g>
<g opacity="0.19">
<path opacity="0.19" d="M92.3739 183.262L59.0906 248.019L13.9762 188.206L92.3739 183.262Z" fill="url(#paint15_linear_699_1350)"/>
</g>
<g opacity="0.19">
<path opacity="0.19" d="M59.0914 248.019C47.6507 237.411 36.8848 226.221 24.5402 216.635C9.63749 205.159 -9.33178 193.622 -27.6812 194.156L13.977 188.207L59.0914 248.019Z" fill="url(#paint16_linear_699_1350)"/>
</g>
</g>
</g>
<path d="M-58.525 157.425C-60.3955 149.553 -61.5088 140.583 -61.636 130.073C-61.7683 115.272 -59.8292 100.428 -55.9009 86.0587C-51.1798 68.3717 -43.4428 51.6926 -33.441 36.7501C-22.8346 21.0029 -11.3845 12.5942 0.609871 11.7415L0.756558 11.8177L0.903245 11.894C7.04036 16.5755 14.0466 17.7925 20.6187 18.4109C22.7605 18.5916 25.1253 18.7018 27.2671 18.8825C33.6221 19.2016 40.2705 19.6731 46.6721 21.6948C51.4543 23.2478 55.9957 25.9811 60.32 28.4151C61.4935 29.025 62.444 29.7055 63.6175 30.3154C67.5017 32.5206 71.6089 34.6553 75.8688 36.4963C87.3223 41.7031 100.196 45.9696 115.3 49.5302L115.065 50.3405C99.9611 46.7799 86.9407 42.4372 75.4872 37.2304C71.2274 35.3894 67.1201 33.2548 63.2359 31.0495C62.0624 30.4396 61.1119 29.7591 59.9384 29.1492C55.6904 26.5684 51.2194 24.0582 46.4373 22.5052C40.2586 20.4129 33.6806 20.1644 27.4019 19.6985C25.2601 19.5178 22.8953 19.4077 20.7535 19.2269C14.3281 18.6848 7.02849 17.3153 0.668378 12.7043C-11.0327 13.7095 -22.4064 21.9714 -32.7838 37.2781C-42.9323 52.1444 -50.4464 68.7529 -55.1675 86.4399C-59.0958 100.809 -61.0349 115.653 -60.8263 130.307C-60.4862 164.425 -48.7419 183.77 -38.9969 194.056L-38.8502 194.132L-38.7095 194.579C-35.9631 193.955 -33.1464 193.554 -30.2593 193.376C-10.5015 192.642 9.25377 205.893 22.3318 215.86C31.6842 222.959 40.2031 231.303 48.7279 239.277C51.4972 241.835 54.1901 244.54 57.106 247.174C62.4978 252.214 66.7984 256.128 71.1812 259.525C87.533 272.872 105.933 282.995 124.85 293.199C127.344 294.495 129.984 295.868 132.401 297.31C135.922 299.14 139.442 300.97 142.887 302.946C163.933 314.071 185.49 325.648 206.22 338.1C216.183 344.024 224.966 349.708 233.45 355.61C236.742 357.88 240.104 360.373 243.395 362.643C251.439 368.316 259.847 374.364 268.566 379.455C269.74 380.065 270.837 380.822 271.864 381.356C283.81 388.124 296.818 393.206 309.234 398.354L309.381 398.43C322.753 403.888 335.914 408.677 349.205 409.99C356.663 410.696 363.329 410.058 369.497 408.228C371.058 407.734 376.34 405.817 376.252 402.042L376.123 400.856L376.921 401.83C381.849 408.121 388.955 412.373 395.767 416.473C396.793 417.007 397.597 417.611 398.624 418.145C407.337 423.606 417.37 429.753 428.132 431.989C429.165 432.153 430.197 432.316 431.23 432.48C435.731 433.141 441.722 433.085 445.848 429.448C449.076 426.463 450.561 421.454 449.917 415.525C449.853 414.932 449.718 414.116 449.507 413.446C447.525 403.279 440.479 395.327 434.935 390.581C429.537 385.91 423.458 382.192 417.456 378.326C415.039 376.883 412.551 375.217 410.063 373.551C403.99 369.463 397.63 364.852 390.772 359.049L391.3 358.391C398.158 364.194 404.519 368.805 410.591 372.894C412.932 374.483 415.496 376.002 417.984 377.668C423.916 381.311 430.065 385.253 435.463 389.923C441.078 394.892 448.27 402.92 450.322 413.311C450.457 414.127 450.668 414.796 450.656 415.536C451.371 421.688 449.809 426.844 446.282 430.046C442.004 433.977 435.643 434.028 430.995 433.291C429.963 433.127 428.93 432.963 427.75 432.723C416.842 430.411 406.885 424.117 397.949 418.726C396.922 418.193 396.119 417.588 395.092 417.055C388.573 413.107 381.761 409.007 376.68 403.01C376.028 406.774 371.046 408.474 369.485 408.968C363.094 410.868 356.282 411.43 348.823 410.724C335.456 409.558 322.225 404.546 308.776 399.235L308.629 399.158C296.137 394.158 283.205 388.928 271.183 382.307C270.009 381.697 269.059 381.017 267.885 380.407C259.166 375.316 250.758 369.268 242.714 363.595C239.423 361.325 236.061 358.832 232.769 356.561C224.285 350.66 215.502 344.976 205.539 339.052C184.809 326.6 163.252 315.023 142.206 303.898C138.685 302.068 135.165 300.239 131.721 298.262C129.08 296.89 126.587 295.594 124.169 294.151C105.252 283.946 86.7818 273.6 70.3537 260.4C66.1939 256.933 61.6703 253.09 56.2785 248.05C53.5092 245.491 50.6696 242.71 47.9003 240.152C39.5985 232.107 31.0033 223.91 21.651 216.812C8.7196 206.921 -10.889 193.746 -30.4238 194.409C-33.3109 194.587 -36.2743 194.912 -39.097 195.683L-39.543 195.824L-39.8245 194.932C-46.5772 187.133 -54.45 175.395 -58.525 157.425Z" fill="url(#paint17_linear_699_1350)"/>
<path d="M115.141 50.1935L115.376 49.3831C119.724 50.3375 124.365 51.4444 128.936 52.3282C131.958 52.9663 135.056 53.4576 138.448 54.1014C145.454 55.3184 152.683 56.4648 159.543 57.6056C171.936 59.5708 184.845 61.618 197.373 64.3993C200.025 65.0318 202.155 65.9523 203.833 67.3839L207.548 66.3307C211.908 66.5453 216.49 66.6893 220.997 66.9801L229.2 67.3275C234.153 67.4771 239.769 67.7849 245.079 68.68C258.869 71.1846 271.39 78.9975 282.373 85.8251L301.413 97.5854C311.593 103.809 320.676 109.275 329.025 114.361L328.643 115.095C320.218 110.156 311.135 104.69 301.031 98.3196L281.992 86.5592C271.008 79.7317 258.557 72.1418 244.844 69.4904C239.61 68.4485 234.288 68.2932 229.042 67.991L220.838 67.6437C216.479 67.4291 211.896 67.2851 207.536 67.0705L203.598 68.1942L203.451 68.118C201.773 66.6864 199.643 65.7659 197.138 65.2097C184.61 62.4284 171.848 60.4575 159.455 58.4922C152.595 57.3514 145.366 56.205 138.36 54.988C134.968 54.3442 131.87 53.8529 128.848 53.2148C124.207 52.1079 119.489 51.1479 115.141 50.1935Z" fill="url(#paint18_linear_699_1350)"/>
<path d="M328.866 115.024L329.248 114.29C352.618 128.115 373.289 139.604 392.657 149.297L393.995 148.874L394.142 148.95C413.958 153.841 433.92 158.808 453.735 163.698C456.018 164.325 459.04 164.963 461.304 166.7C463.276 168.284 465.077 171.271 464.143 174.143C463.756 175.247 463.075 176.198 462.394 177.15C461.484 178.542 460.504 179.711 460.85 181.196C461.061 181.865 461.272 182.534 461.929 183.062C462.804 183.89 464.124 184.576 465.374 185.039L465.667 185.191C472.203 188.029 477.22 193.434 482.019 198.539C483.691 200.34 485.51 202.218 487.258 203.872C491.846 208.308 496.962 212.086 501.932 215.788L525.319 233.165C535.698 240.797 546.077 248.429 556.527 256.284C561.643 260.062 566.759 263.84 571.042 268.864C574.961 273.511 577.536 278.952 579.606 283.572C580.035 284.54 580.463 285.509 580.821 286.254L580.891 286.477C583.032 291.32 585.231 297.125 583.3 302.275C581.985 305.881 578.534 308.936 573.998 310.495C571.768 311.201 569.321 311.607 566.95 311.867C566.134 312.003 565.318 312.138 564.503 312.274C563.464 312.48 562.648 312.615 561.979 312.827L562.12 313.273L561.604 313.192C549.762 313.751 537.64 308.756 524.127 298.19C520.331 295.098 516.612 291.859 513.039 288.697C507.717 283.879 502.026 279.057 496.176 274.898L496.705 274.24C502.777 278.328 508.245 283.222 513.713 288.115C517.287 291.277 521.006 294.516 524.802 297.608C538.021 308.021 549.85 312.864 561.316 312.669L561.246 312.446L561.692 312.305C562.584 312.023 563.546 311.963 564.661 311.61C565.477 311.475 566.293 311.339 567.108 311.204C569.332 310.868 571.78 310.461 574.009 309.755C578.323 308.267 581.474 305.429 582.713 301.971C584.492 297.114 582.51 291.608 580.369 286.765L580.298 286.542C579.87 285.574 579.589 284.682 579.084 283.86C577.014 279.24 574.362 273.946 570.59 269.375C566.454 264.428 561.338 260.65 556.368 256.948C545.989 249.316 535.61 241.684 525.16 233.828L501.703 216.229C496.587 212.451 491.47 208.673 486.882 204.237C484.987 202.506 483.315 200.704 481.496 198.827C476.697 193.722 471.751 188.54 465.215 185.702L464.922 185.55C463.672 185.087 462.205 184.325 461.184 183.421C460.38 182.817 460.022 182.071 459.888 181.255C459.548 179.4 460.604 178.084 461.59 176.545C462.195 175.741 462.876 174.789 463.187 173.832C463.968 171.254 462.308 168.713 460.63 167.281C458.511 165.621 455.859 164.988 453.354 164.432C433.538 159.542 413.723 154.651 393.907 149.761L392.423 150.108L392.276 150.032C373.054 140.414 352.236 128.849 328.866 115.024Z" fill="url(#paint19_linear_699_1350)"/>
<path d="M385.117 218.295L385.352 217.485C390.433 218.82 395.286 220.596 400.948 222.607L409.92 225.778C416.978 228.327 424.26 230.807 431.319 233.356C436.318 235.209 441.54 236.99 446.305 239.653C449.679 241.407 452.97 243.677 457.06 246.921C459.031 248.505 461.073 250.312 463.044 251.896C467.204 255.364 471.434 259.054 476.193 262.087C478.974 263.905 482.054 265.506 485.135 267.107C487.628 268.403 490.269 269.775 492.756 271.441C493.49 271.823 494.147 272.351 495.027 272.808L494.646 273.542C493.912 273.161 493.255 272.633 492.522 272.252C490.104 270.809 487.464 269.437 485.046 267.994C482.113 266.469 479.109 264.721 476.104 262.973C471.346 259.941 467.116 256.25 462.956 252.783C460.985 251.199 458.943 249.392 456.971 247.808C452.882 244.563 449.59 242.293 446.217 240.54C441.452 237.877 436.23 236.095 431.231 234.243C424.172 231.693 416.89 229.214 409.832 226.664L400.86 223.493C394.981 221.184 390.198 219.631 385.117 218.295Z" fill="url(#paint20_linear_699_1350)"/>
<path d="M327.998 279.802L328.379 279.068C329.259 279.525 329.917 280.053 330.797 280.511C333.871 282.482 336.64 285.04 338.459 286.917C341.446 289.775 344.432 292.632 347.195 295.561C352 300.296 356.952 305.107 362.056 309.625C370.587 317.229 380.092 324.034 389.233 330.463C394.279 334.018 399.249 337.72 404.218 341.422C410.062 345.951 416.193 351.002 422.759 356.652C434.065 366.445 445.065 376.824 455.626 386.975C461.598 392.69 467.718 398.481 473.913 404.126C480.837 410.521 487.108 416.019 494.977 418.803C496.374 419.342 497.846 419.735 499.249 419.904C506.988 421.502 514.265 419.69 519.072 415.101C521.701 412.552 523.533 409.028 524.261 405.117C525.23 400.026 524.656 394.32 522.445 389.254C520.949 385.679 518.784 382.316 515.81 378.719C512.548 374.599 508.541 370.838 505.044 367.529C503.149 365.798 501.33 363.921 499.435 362.19C497.687 360.535 495.938 358.88 494.12 357.003C490.77 353.77 487.42 350.537 484.069 347.304C480.719 344.07 477.369 340.837 474.019 337.604L436.576 302.106C428.127 293.985 419.462 285.565 410.338 278.026C403.843 272.599 397.63 268.064 391.628 264.199L390.894 263.818C380.785 257.817 371.808 250.355 362.69 242.446C358.46 238.755 355.703 235.457 354.424 232.182C353.427 229.799 353.24 227.65 353.645 225.436C354.45 221.379 358.059 217.66 362.595 216.101C366.24 214.825 370.236 214.664 375.769 215.489C378.721 215.904 381.889 216.618 385.351 217.485L385.117 218.295C381.655 217.428 378.633 216.79 375.681 216.375C370.294 215.627 366.298 215.788 362.877 216.994C358.564 218.482 355.253 221.983 354.455 225.671C354.126 227.737 354.313 229.886 355.24 232.046C356.595 235.175 359.206 238.397 363.289 242.011C372.407 249.92 381.383 257.383 391.346 263.307L392.08 263.688C398.229 267.629 404.295 272.088 410.937 277.591C420.06 285.13 428.726 293.55 437.175 301.671L474.536 337.686C477.886 340.919 481.236 344.152 484.586 347.385C487.936 350.618 491.286 353.851 494.636 357.085C496.384 358.739 498.133 360.394 499.952 362.271C501.847 364.002 503.665 365.88 505.56 367.611C509.057 370.92 512.988 374.828 516.326 378.801C519.301 382.398 521.536 385.984 523.031 389.559C525.166 394.771 525.958 400.777 524.988 405.868C524.107 410.072 522.276 413.596 519.57 416.293C514.687 421.028 507.041 422.835 499.078 421.308C497.529 421.062 496.056 420.669 494.66 420.13C486.645 417.27 480.226 411.696 473.303 405.3C467.107 399.656 460.918 393.642 455.015 388.15C444.455 377.999 433.454 367.619 422.148 357.827C415.583 352.177 409.452 347.125 403.608 342.596C398.638 338.895 393.522 335.117 388.623 331.638C379.558 325.062 370.053 318.257 361.522 310.653C356.418 306.135 351.466 301.323 346.661 296.588C343.821 293.807 340.911 290.803 337.849 288.092C335.954 286.361 333.331 283.879 330.257 281.908C329.535 280.787 328.731 280.183 327.998 279.802Z" fill="url(#paint21_linear_699_1350)"/>
<path d="M325.722 278.805L326.104 278.071C326.837 278.452 327.57 278.833 328.45 279.291L328.069 280.025C327.118 279.344 326.385 278.963 325.722 278.805Z" fill="url(#paint22_linear_699_1350)"/>
<path d="M311.203 284.873C310.576 282.495 311.14 279.618 313.088 278.02C314.062 277.221 315.477 276.651 317.255 276.456C319.995 276.202 322.947 276.617 325.957 277.995L325.575 278.729C322.859 277.503 319.907 277.088 317.39 277.272C315.835 277.396 314.496 277.82 313.522 278.619C311.351 280.287 311.297 283.616 312.295 286C313.362 288.606 315.55 290.489 317.592 292.296L360.598 331.432L360.07 332.089L317.064 292.954C315.022 291.147 312.763 289.041 311.549 286.358C311.485 285.765 311.344 285.319 311.203 284.873Z" fill="url(#paint23_linear_699_1350)"/>
<path d="M-39.4597 195.307L-39.4538 194.937L-56.0466 85.9826L-55.9702 85.8358L0.687212 11.5948L115.23 49.3072L203.911 67.2374L329.249 114.29L330.2 114.971L314.256 117.687L294.607 134.702L303.039 166.872L268.365 166.194L235.639 196.18L247.63 218.637L225.114 220.734L199.93 241.587L195.881 277.339L195.658 277.41L131.651 298.039L131.434 297.74C131.288 297.663 124.547 289.125 118.029 280.516C106.947 265.991 105.216 263.227 105.081 262.411C103.474 261.202 74.9859 252.923 56.1388 247.603L55.9921 247.527L11.0947 188.014L-39.4597 195.307ZM-55.2368 86.217L-38.9255 194.279L11.2592 186.98L11.3296 187.204L56.3736 246.793C70.6557 250.859 103.269 260.163 105.533 261.9L105.827 262.052L105.75 262.199C106.237 264.13 121.526 283.825 131.745 296.782L195.083 276.365L199.056 240.759L224.762 219.619L224.908 219.695L246.315 217.581L234.683 195.87L268.16 165.155L302.094 165.821L293.803 134.098L314.051 116.648L327.694 114.415L203.676 68.0477L115.142 50.1938L0.892406 12.6339L-55.2368 86.217Z" fill="url(#paint24_linear_699_1350)"/>
<path d="M563.999 311.452L564.527 310.795C564.967 311.023 565.038 311.246 565.184 311.323L565.325 311.769L564.879 311.91L564.738 311.464L564.439 311.681C564.363 311.828 564.216 311.752 563.999 311.452ZM564.662 311.611L564.668 311.241L564.662 311.611Z" fill="url(#paint25_linear_699_1350)"/>
<path d="M496.329 274.604L496.711 273.87L497.297 274.175C511.743 281.869 559.041 307.011 564.38 310.718L563.852 311.376C558.513 307.668 511.215 282.527 496.916 274.909L496.329 274.604Z" fill="url(#paint26_linear_699_1350)"/>
<path d="M496.476 274.68L496.71 273.869L538.313 285.235L516.342 257.964L556.59 261.539L539.856 285.85L564.527 310.794L563.998 311.452L539.257 286.285L496.476 274.68ZM555.099 262.256L518.102 258.879L539.422 285.252L555.099 262.256Z" fill="url(#paint27_linear_699_1350)"/>
<path d="M563.998 311.453L564.151 311.159L564.157 310.789L564.151 311.159L564.38 310.718L564.451 310.941L564.151 311.159L564.292 311.606L563.998 311.453Z" fill="url(#paint28_linear_699_1350)"/>
<path d="M384.323 161.749L384.475 161.456L384.769 161.608L384.921 161.314C385.291 161.32 388.695 161.224 392.251 160.834C404.838 159.917 411.428 159.425 412.372 160.476C412.519 160.552 412.589 160.775 412.589 160.775C413.892 162.571 442.684 174.924 461.713 182.763L462.299 183.068L443.278 202.46L446.674 239.658L496.417 273.717L516.636 258.117L524.847 244.109L524.814 232.343L579.237 283.566L579.084 283.86L564.879 311.909L564.65 312.35L563.776 311.522L564.451 310.941L578.421 283.701L525.894 234.209L525.951 244.495L517.51 258.944L517.21 259.161L496.693 274.979L494.792 273.618L446.146 240.316L446.076 240.093L442.614 202.302L442.691 202.155L461.038 183.344C458.468 182.195 447.665 177.886 436.869 173.208C413.44 163.082 412.055 161.803 411.991 161.21C410.747 160.377 398.899 161.306 392.456 161.873C384.827 162.571 384.757 162.348 384.54 162.049L384.323 161.749Z" fill="url(#paint29_linear_699_1350)"/>
<path d="M276.576 253.636L327.57 278.834L320.533 251.865L337.173 233.472L354.284 231.736C351.908 227.704 336.644 201.868 332.655 196.997C331.775 196.539 331.704 196.316 331.634 196.093L331.564 195.87L331.64 195.723C331.716 195.577 331.939 195.506 332.086 195.582C332.309 195.512 332.602 195.664 333.183 196.339C339.414 199.764 373.3 212.713 384.472 217.028L369.262 183.201L369.339 183.054C370.853 180.857 384.247 161.897 384.476 161.456L385.133 161.984C384.758 162.349 375.296 175.893 370.148 183.288L385.997 218.753L384.971 218.219L384.677 218.067C374.755 214.215 343.369 202.192 334.268 197.836C339.765 205.541 354.595 230.779 355.17 231.823L355.458 232.346L337.384 234.142L321.197 252.023L328.732 280.183L327.852 279.726L325.505 278.506L280.894 256.439L312.007 285.477L311.479 286.135L276.576 253.636Z" fill="url(#paint30_linear_699_1350)"/>
<path d="M246.889 218.625L247.271 217.891C248.004 218.272 320.874 249.058 321.349 251.729L321.266 252.246C321.343 252.099 321.343 252.099 321.419 251.952C321.419 251.952 321.419 251.952 321.566 252.029C324.094 255.767 373.896 290.789 382.233 296.614L354.424 232.182L355.17 231.823L382.967 296.995L410.949 276.851L407.104 318.305L437.034 301.225L444.061 351.872C473.738 336.712 474.102 337.088 474.319 337.387C474.536 337.686 474.976 337.915 458.422 374.068L474.389 369.872L494.578 356.122L488.91 386.744C515.675 377.903 515.746 378.126 515.963 378.425C516.109 378.501 516.18 378.725 524.555 405.269L524.625 405.492L524.326 405.71L498.492 421.002L483.18 398.125C481.69 398.843 475.498 402.152 473.697 403.826C473.538 404.49 473.385 404.784 473.162 404.854L472.939 404.925L472.646 404.772C472.646 404.772 472.353 404.62 472.505 404.326C472.511 403.956 472.664 403.663 472.963 403.445C473.216 401.525 473.44 396.793 473.629 389.618L457.371 375.014L457.007 374.639L448.87 365.561L443.157 352.894L443.597 353.123L443.603 352.753L406.787 319.632L406.341 319.773L406.347 319.403L391.559 319.177L391.489 318.954L382.509 297.876C378.924 295.453 323.267 256.642 320.597 252.458C320.527 252.235 320.457 252.012 320.457 252.012C317.623 248.861 252.839 221.158 246.889 218.625ZM410.256 278.543L383.471 297.816L392.311 318.449L406.582 318.593L410.256 278.543ZM436.57 302.476L407.462 319.05L443.327 351.491L436.57 302.476ZM473.861 338.268C470.586 339.55 455.228 347.233 444.565 352.694L450.132 365.284L457.905 373.986C463.957 360.907 472.546 341.874 473.861 338.268ZM474.448 370.835L458.926 374.89L474.31 388.666C474.434 380.899 474.488 372.908 474.448 370.835ZM475.096 390.38C475.001 396.299 474.712 400.438 474.454 402.728C476.702 400.912 481.549 398.397 483.116 397.533L475.096 390.38ZM475.252 371.44C475.28 374.252 475.156 382.02 475.037 389.417L483.714 397.098C485.851 392.987 487.994 388.505 488.305 387.548L488.381 387.401C488.1 386.509 480.555 377.366 475.252 371.44ZM493.809 357.96L475.416 370.406C479.845 375.506 486.451 383.228 488.399 386.292L493.809 357.96ZM489.115 387.783C488.645 389.403 485.364 395.717 484.372 397.626L484.665 397.778L484.589 397.925L499.542 420.057L524.332 405.34C522.15 398.425 516.872 381.695 516.098 379.241C513.574 379.795 499.003 384.53 489.115 387.783Z" fill="url(#paint31_linear_699_1350)"/>
<path d="M246.901 217.885L331.27 195.717L301.284 165.587L369.784 182.912L443.137 202.014L518.243 259.325L517.791 259.836L516.548 259.003L442.755 202.748L369.549 183.723L303.848 167.106L332.743 196.11L247.036 218.701L246.901 217.885Z" fill="url(#paint32_linear_699_1350)"/>
<path d="M327.998 279.802L328.38 279.067L330.797 280.51L392.311 318.448L392.381 318.672C392.803 320.01 410.714 342.187 422.759 356.652L458.492 374.291L474.06 404.202L473.315 404.56L473.245 404.337L457.893 374.726L422.16 357.087C419.186 353.49 393.437 322.017 391.712 318.883L327.998 279.802Z" fill="url(#paint33_linear_699_1350)"/>
<path d="M199.337 241.652L199.719 240.917L248.636 266.528C255.84 273.816 319.597 337.909 320.242 339.177C320.964 340.298 328.132 354.466 329.211 356.333L354.455 359.382L354.602 359.459L391.453 390.36L395.142 404.772L417.293 406.96L390.256 358.967C383.25 353.089 376.251 346.84 369.545 340.744L366.776 338.186C364.664 336.155 362.328 334.196 360.216 332.166L360.745 331.508C362.857 333.538 365.192 335.498 367.304 337.528L370.073 340.086C376.779 346.182 383.702 352.578 390.931 358.386L391.077 358.462L418.185 406.678L433.127 397.287L450.253 413.088L427.604 432.647L412.632 416.287L417.504 407.63L394.613 405.43L390.708 390.719L354.073 360.117L328.607 357.138L328.536 356.915C328.466 356.691 320.142 340.803 319.497 339.535C318.558 338.115 272.344 291.531 248.108 267.186L199.337 241.652ZM418.243 407.641L413.448 416.151L427.475 431.461L448.921 413.141L432.962 398.32L418.243 407.641Z" fill="url(#paint34_linear_699_1350)"/>
<path d="M194.847 277.175L195.222 276.811L246.901 217.885L247.341 218.114L279.432 255.307L248.623 267.268L242.147 288.332L319.38 365.21L319.502 339.165L319.872 339.171L361.043 331.29L354.818 359.758L376.487 401.231L390.783 390.572L390.331 358.821L391.071 358.832L391.517 390.953L377.22 401.612L395.064 404.919L394.83 405.729L376.322 402.265L376.246 402.412L376.099 402.335L375.953 402.259L320.312 367L320.383 367.224L319.655 366.472L282.47 333.346L237.773 298.18L194.847 277.175ZM246.959 218.848L196.108 276.899L238.008 297.37L282.775 332.758L309.535 356.55L241.331 288.467L248.042 266.593L248.265 266.522L278.106 254.991L246.959 218.848ZM320.306 339.77L320.33 365.891L375.313 400.621L354.002 359.894L359.992 332.236L320.306 339.77Z" fill="url(#paint35_linear_699_1350)"/>
<path d="M-39.5252 194.714L1.10926 8.27098L0.474399 112.375L73.8915 35.2818L74.1026 35.951L98.552 116.167L157.407 89.3175L156.832 88.2727L157.93 89.0295L203.91 67.237L204.127 67.5363L269.678 167.249L159.009 90.8959L225.623 221.186L91.111 183.538L195.739 276.893L195.809 277.116L195.88 309.601L238.231 297.299L234.908 310.864L290.355 339.682L293.958 373.257L319.667 365.732L319.814 365.809L348.327 395.547L377.514 401.765L348.178 409.456L344.623 405.184L267.075 380.172L267.005 379.949L267.081 379.802L269.572 367.483C268.328 366.65 261.457 361.587 217.33 327.836L205.316 339.122L204.87 339.264L194.899 310.77L194.976 310.624L194.759 310.324L194.982 310.254L194.911 277.768L89.2625 183.51L10.6417 188.525L-0.288708 113.843L-0.353146 113.25L0.321577 15.8806L-38.8621 194.872L-39.5252 194.714ZM0.597349 113.93L11.5516 187.133L89.3566 182.254L97.7244 117.042L0.597349 113.93ZM73.4217 36.9026L1.05521 113.049L97.7363 116.303L73.4217 36.9026ZM98.6105 117.13L90.096 182.265L224.168 219.684L157.841 89.9161L98.6868 116.983L98.7572 117.206L98.6105 117.13ZM217.048 326.944C207.332 319.47 199.37 313.281 196.519 311.239L205.709 337.648L217.048 326.944ZM237.328 298.321L196.537 310.129C198.801 311.866 207.35 318.36 217.723 326.362L234.391 310.782L237.328 298.321ZM203.598 68.1942L158.733 89.6337L266.768 164.245L203.598 68.1942ZM234.526 311.598L218.234 326.814C252.058 352.786 264.919 362.454 268.938 365.475L234.526 311.598ZM289.903 340.193L235.776 312.061L270.693 366.76C272.752 367.457 290.056 372.162 293.442 373.175L289.903 340.193ZM270.681 367.5L268.419 379.379L345.157 404.156C346.912 400.779 348.527 396.956 348.392 396.14C347.212 395.9 338.504 394.731 332.818 394.2L332.672 394.124L293.946 373.997L293.723 374.068L293.653 373.844C291.147 373.288 273.99 368.66 270.681 367.5ZM319.656 366.472L294.985 373.791L332.83 393.46C334.379 393.706 343.756 394.663 347.295 395.383L319.656 366.472ZM349.125 396.521C348.949 398.294 346.73 402.922 345.814 404.684L349.006 408.581L374.48 401.866L349.125 396.521Z" fill="url(#paint36_linear_699_1350)"/>
<path d="M55.9968 247.157L89.8144 181.373L105.896 262.275L105.004 262.557L105.08 262.41L89.4795 183.809L56.7303 247.538L55.9968 247.157Z" fill="url(#paint37_linear_699_1350)"/>
</g>
<defs>
<linearGradient id="paint0_linear_699_1350" x1="501.823" y1="275.162" x2="558.22" y2="331.392" gradientUnits="userSpaceOnUse">
<stop stop-color="#1E7CDB"/>
<stop offset="1" stop-color="#970280"/>
</linearGradient>
<linearGradient id="paint1_linear_699_1350" x1="482.581" y1="394.789" x2="510.063" y2="411.957" gradientUnits="userSpaceOnUse">
<stop stop-color="#1E7CDB"/>
<stop offset="1" stop-color="#970280"/>
</linearGradient>
<linearGradient id="paint2_linear_699_1350" x1="428.038" y1="356.239" x2="486.835" y2="397.44" gradientUnits="userSpaceOnUse">
<stop stop-color="#1E7CDB"/>
<stop offset="1" stop-color="#970280"/>
</linearGradient>
<linearGradient id="paint3_linear_699_1350" x1="340.687" y1="191.28" x2="391.704" y2="223.232" gradientUnits="userSpaceOnUse">
<stop stop-color="#1E7CDB"/>
<stop offset="1" stop-color="#970280"/>
</linearGradient>
<linearGradient id="paint4_linear_699_1350" x1="387.983" y1="388.716" x2="440.772" y2="424.367" gradientUnits="userSpaceOnUse">
<stop stop-color="#1E7CDB"/>
<stop offset="1" stop-color="#970280"/>
</linearGradient>
<linearGradient id="paint5_linear_699_1350" x1="220.606" y1="50.1646" x2="324.92" y2="141.379" gradientUnits="userSpaceOnUse">
<stop stop-color="#1E7CDB"/>
<stop offset="1" stop-color="#970280"/>
</linearGradient>
<linearGradient id="paint6_linear_699_1350" x1="326.013" y1="338.906" x2="396.304" y2="385.094" gradientUnits="userSpaceOnUse">
<stop stop-color="#1E7CDB"/>
<stop offset="1" stop-color="#970280"/>
</linearGradient>
<linearGradient id="paint7_linear_699_1350" x1="361.723" y1="391.246" x2="381.803" y2="402.742" gradientUnits="userSpaceOnUse">
<stop stop-color="#1E7CDB"/>
<stop offset="1" stop-color="#970280"/>
</linearGradient>
<linearGradient id="paint8_linear_699_1350" x1="337.393" y1="281.105" x2="435.256" y2="356.135" gradientUnits="userSpaceOnUse">
<stop stop-color="#1E7CDB"/>
<stop offset="1" stop-color="#970280"/>
</linearGradient>
<linearGradient id="paint9_linear_699_1350" x1="279.888" y1="368.596" x2="347.685" y2="427.076" gradientUnits="userSpaceOnUse">
<stop stop-color="#1E7CDB"/>
<stop offset="1" stop-color="#970280"/>
</linearGradient>
<linearGradient id="paint10_linear_699_1350" x1="256.401" y1="264.39" x2="355.776" y2="325.951" gradientUnits="userSpaceOnUse">
<stop stop-color="#1E7CDB"/>
<stop offset="1" stop-color="#970280"/>
</linearGradient>
<linearGradient id="paint11_linear_699_1350" x1="220.112" y1="245.529" x2="355.005" y2="334.592" gradientUnits="userSpaceOnUse">
<stop stop-color="#1E7CDB"/>
<stop offset="1" stop-color="#970280"/>
</linearGradient>
<linearGradient id="paint12_linear_699_1350" x1="218.591" y1="324.136" x2="284.157" y2="368.852" gradientUnits="userSpaceOnUse">
<stop stop-color="#1E7CDB"/>
<stop offset="1" stop-color="#970280"/>
</linearGradient>
<linearGradient id="paint13_linear_699_1350" x1="160.89" y1="252.978" x2="238.252" y2="299.744" gradientUnits="userSpaceOnUse">
<stop stop-color="#1E7CDB"/>
<stop offset="1" stop-color="#970280"/>
</linearGradient>
<linearGradient id="paint14_linear_699_1350" x1="66.6055" y1="239.394" x2="142.036" y2="297.599" gradientUnits="userSpaceOnUse">
<stop stop-color="#1E7CDB"/>
<stop offset="1" stop-color="#970280"/>
</linearGradient>
<linearGradient id="paint15_linear_699_1350" x1="37.6004" y1="147.13" x2="100.797" y2="182.869" gradientUnits="userSpaceOnUse">
<stop stop-color="#1E7CDB"/>
<stop offset="1" stop-color="#970280"/>
</linearGradient>
<linearGradient id="paint16_linear_699_1350" x1="-12.2986" y1="171.153" x2="77.4202" y2="232.402" gradientUnits="userSpaceOnUse">
<stop stop-color="#1E7CDB"/>
<stop offset="1" stop-color="#970280"/>
</linearGradient>
<linearGradient id="paint17_linear_699_1350" x1="17.8028" y1="-24.6638" x2="561.077" y2="333.437" gradientUnits="userSpaceOnUse">
<stop stop-color="#1E7CDB"/>
<stop offset="1" stop-color="#970280"/>
</linearGradient>
<linearGradient id="paint18_linear_699_1350" x1="144.233" y1="8.07619" x2="327.979" y2="149.953" gradientUnits="userSpaceOnUse">
<stop stop-color="#1E7CDB"/>
<stop offset="1" stop-color="#970280"/>
</linearGradient>
<linearGradient id="paint19_linear_699_1350" x1="348.089" y1="98.2578" x2="620.373" y2="289.127" gradientUnits="userSpaceOnUse">
<stop stop-color="#1E7CDB"/>
<stop offset="1" stop-color="#970280"/>
</linearGradient>
<linearGradient id="paint20_linear_699_1350" x1="392.908" y1="210.899" x2="461.83" y2="306.496" gradientUnits="userSpaceOnUse">
<stop stop-color="#1E7CDB"/>
<stop offset="1" stop-color="#970280"/>
</linearGradient>
<linearGradient id="paint21_linear_699_1350" x1="375.153" y1="198.527" x2="591.44" y2="330.737" gradientUnits="userSpaceOnUse">
<stop stop-color="#1E7CDB"/>
<stop offset="1" stop-color="#970280"/>
</linearGradient>
<linearGradient id="paint22_linear_699_1350" x1="326.209" y1="278.039" x2="328.537" y2="279.633" gradientUnits="userSpaceOnUse">
<stop stop-color="#1E7CDB"/>
<stop offset="1" stop-color="#970280"/>
</linearGradient>
<linearGradient id="paint23_linear_699_1350" x1="318.626" y1="270.788" x2="379.679" y2="308.94" gradientUnits="userSpaceOnUse">
<stop stop-color="#1E7CDB"/>
<stop offset="1" stop-color="#970280"/>
</linearGradient>
<linearGradient id="paint24_linear_699_1350" x1="34.697" y1="-65.554" x2="363.822" y2="128.459" gradientUnits="userSpaceOnUse">
<stop stop-color="#1E7CDB"/>
<stop offset="1" stop-color="#970280"/>
</linearGradient>
<linearGradient id="paint25_linear_699_1350" x1="564.457" y1="310.658" x2="565.679" y2="311.378" gradientUnits="userSpaceOnUse">
<stop stop-color="#1E7CDB"/>
<stop offset="1" stop-color="#970280"/>
</linearGradient>
<linearGradient id="paint26_linear_699_1350" x1="498.852" y1="274.739" x2="508.472" y2="325.101" gradientUnits="userSpaceOnUse">
<stop stop-color="#1E7CDB"/>
<stop offset="1" stop-color="#970280"/>
</linearGradient>
<linearGradient id="paint27_linear_699_1350" x1="518.297" y1="237.334" x2="588.781" y2="280.661" gradientUnits="userSpaceOnUse">
<stop stop-color="#1E7CDB"/>
<stop offset="1" stop-color="#970280"/>
</linearGradient>
<linearGradient id="paint28_linear_699_1350" x1="564.282" y1="310.58" x2="564.75" y2="310.837" gradientUnits="userSpaceOnUse">
<stop stop-color="#1E7CDB"/>
<stop offset="1" stop-color="#970280"/>
</linearGradient>
<linearGradient id="paint29_linear_699_1350" x1="401.172" y1="144.191" x2="601.836" y2="283.876" gradientUnits="userSpaceOnUse">
<stop stop-color="#1E7CDB"/>
<stop offset="1" stop-color="#970280"/>
</linearGradient>
<linearGradient id="paint30_linear_699_1350" x1="345.605" y1="126.064" x2="421.938" y2="167.834" gradientUnits="userSpaceOnUse">
<stop stop-color="#1E7CDB"/>
<stop offset="1" stop-color="#970280"/>
</linearGradient>
<linearGradient id="paint31_linear_699_1350" x1="277.715" y1="180.854" x2="569.759" y2="382.04" gradientUnits="userSpaceOnUse">
<stop stop-color="#1E7CDB"/>
<stop offset="1" stop-color="#970280"/>
</linearGradient>
<linearGradient id="paint32_linear_699_1350" x1="306.55" y1="119.947" x2="540.121" y2="270.694" gradientUnits="userSpaceOnUse">
<stop stop-color="#1E7CDB"/>
<stop offset="1" stop-color="#970280"/>
</linearGradient>
<linearGradient id="paint33_linear_699_1350" x1="335.252" y1="277.953" x2="494.591" y2="396.103" gradientUnits="userSpaceOnUse">
<stop stop-color="#1E7CDB"/>
<stop offset="1" stop-color="#970280"/>
</linearGradient>
<linearGradient id="paint34_linear_699_1350" x1="210.515" y1="239.683" x2="463.798" y2="433.955" gradientUnits="userSpaceOnUse">
<stop stop-color="#1E7CDB"/>
<stop offset="1" stop-color="#970280"/>
</linearGradient>
<linearGradient id="paint35_linear_699_1350" x1="240.935" y1="203.828" x2="454.853" y2="339.669" gradientUnits="userSpaceOnUse">
<stop stop-color="#1E7CDB"/>
<stop offset="1" stop-color="#970280"/>
</linearGradient>
<linearGradient id="paint36_linear_699_1350" x1="44.4764" y1="-41.7896" x2="512.781" y2="250.628" gradientUnits="userSpaceOnUse">
<stop stop-color="#1E7CDB"/>
<stop offset="1" stop-color="#970280"/>
</linearGradient>
<linearGradient id="paint37_linear_699_1350" x1="94.3674" y1="175.952" x2="142.827" y2="202.797" gradientUnits="userSpaceOnUse">
<stop stop-color="#1E7CDB"/>
<stop offset="1" stop-color="#970280"/>
</linearGradient>
</defs>
</svg>
