<svg width="656" height="385" viewBox="0 0 656 385" fill="none" xmlns="http://www.w3.org/2000/svg">
<g opacity="0.19">
<g opacity="0.19">
<g opacity="0.19">
<path opacity="0.19" d="M165.155 103.3C163.491 102.254 110.883 69.7379 104.766 66.9674L104.174 66.7738C104.492 67.6886 104.89 68.4753 105.08 69.3097L104.663 69.4051C110.5 80.5796 122.137 87.3545 133.796 91.8198C144.189 96.0261 155.003 98.7095 165.155 103.3Z" fill="url(#paint0_linear_699_1433)"/>
</g>
<g opacity="0.19">
<path opacity="0.19" d="M48.4808 169.06C49.3916 170.168 50.3829 171.148 51.4547 172.001C57.5488 177.081 65.3814 179.678 72.9104 181.906C72.7823 181.826 72.9433 181.569 73.5215 181.218C74.1696 178.765 73.7435 170.632 73.7435 170.632L48.4808 169.06Z" fill="url(#paint1_linear_699_1433)"/>
</g>
<g opacity="0.19">
<path opacity="0.19" d="M72.9911 181.779C93.1745 188.025 113.922 193.374 134.119 200.165L103.666 180.138L72.9911 181.779Z" fill="url(#paint2_linear_699_1433)"/>
</g>
<g opacity="0.19">
<path opacity="0.19" d="M302.053 196.64C295.827 192.907 262.298 166.121 261.098 165.188C263.209 167.23 265.239 169.399 266.98 171.744C269.456 174.908 271.771 178.329 272.546 182.212C273.32 186.095 272.474 190.568 269.356 193.257C267.717 194.729 265.888 195.367 263.883 195.716C263.963 195.588 295.98 195.506 302.053 196.64Z" fill="url(#paint3_linear_699_1433)"/>
</g>
<g opacity="0.19">
<path opacity="0.19" d="M91.6973 235L72.5342 230.825C79.3596 238.152 88.388 243.11 97.2409 247.778C104.733 251.77 111.983 256.147 120.365 257.302L109.019 244.096L96.642 226.846L91.6973 235Z" fill="url(#paint4_linear_699_1433)"/>
</g>
<g opacity="0.19">
<path opacity="0.19" d="M368.557 161.562L463.477 238.717L462.461 235.219C458.789 229.694 455.326 224.122 451.654 218.597C449.068 214.47 446.402 210.472 443.238 206.696C434.927 197.185 423.561 191.116 412.451 185.209C406.448 181.973 400.365 178.866 394.362 175.63C385.845 170.995 377.201 166.279 368.557 161.562Z" fill="url(#paint5_linear_699_1433)"/>
</g>
<g opacity="0.19">
<path opacity="0.19" d="M163.45 255.236L120.156 257.349L174.364 285.33L195.353 272.956C194.054 273.034 177.458 273.868 177.458 273.868L163.45 255.236Z" fill="url(#paint6_linear_699_1433)"/>
</g>
<g opacity="0.19">
<path opacity="0.19" d="M127.238 282.176L120.237 257.221C117.508 258.724 117.529 262.669 118.241 265.798C119.875 272.009 122.585 277.644 126.29 282.831L127.238 282.176Z" fill="url(#paint7_linear_699_1433)"/>
</g>
<g opacity="0.19">
<path opacity="0.19" d="M236.751 237.478L178.479 206.586C176.939 207.048 134.248 200.246 134.248 200.246C141.151 202.617 147.974 205.116 154.844 207.824C169.737 213.963 184.242 221.289 199.523 226.243C209.006 229.34 218.715 231.508 228.359 234.35C231.066 235.157 234.029 236.125 236.751 237.478Z" fill="url(#paint8_linear_699_1433)"/>
</g>
<g opacity="0.19">
<path opacity="0.19" d="M132.173 283.131L127.157 282.303L126.209 282.959C133.444 293.046 143.777 301.326 153.76 309.028C163.743 316.73 173.726 324.432 184.513 330.852C185.538 331.496 186.515 331.931 187.539 332.574L132.173 283.131Z" fill="url(#paint9_linear_699_1433)"/>
</g>
<g opacity="0.19">
<path opacity="0.19" d="M195.433 272.828L174.445 285.202L271.85 310.652L285.76 295.618C285.808 295.827 196.652 272.879 195.433 272.828Z" fill="url(#paint10_linear_699_1433)"/>
</g>
<g opacity="0.19">
<path opacity="0.19" d="M217.837 299.416L266.346 318.276L302.272 342.099L312.135 312.189L285.808 295.827L271.898 310.86L174.445 285.202L208.819 296.432L217.837 299.416Z" fill="url(#paint11_linear_699_1433)"/>
</g>
<g opacity="0.19">
<path opacity="0.19" d="M196.603 324.685L187.747 332.527C199.161 338.804 211.043 343.767 222.812 349.195C231.778 353.398 240.584 357.858 249.228 362.574L252.652 347.745C229.448 338.349 197.419 325.376 196.603 324.685Z" fill="url(#paint12_linear_699_1433)"/>
</g>
<g opacity="0.19">
<path opacity="0.19" d="M302.272 342.099L276.113 357.301L249.228 362.574C271.879 374.84 293.645 388.515 315.572 401.934L302.272 342.099Z" fill="url(#paint13_linear_699_1433)"/>
</g>
<g opacity="0.19">
<path opacity="0.19" d="M425.659 381.906L390.102 438.214L458.169 446.125L425.659 381.906Z" fill="url(#paint14_linear_699_1433)"/>
</g>
</g>
</g>
<path d="M516.007 489.077C523.083 486.909 530.675 483.636 539.025 478.872C550.764 472.126 561.577 463.727 571.096 453.977C582.865 442.067 592.442 428.244 599.602 413.437C607.117 397.782 608.323 384.776 603.445 374.919L603.317 374.839L603.189 374.758C596.655 372.083 592.453 367.119 588.923 362.22C587.789 360.614 586.608 358.799 585.474 357.193C582.281 352.327 578.832 347.3 574.275 343.186C570.836 340.131 566.578 337.814 562.656 335.528C561.632 334.885 560.655 334.45 559.631 333.806C556.094 331.763 552.509 329.51 549.085 327.002C539.676 320.375 530.352 312.193 520.553 301.925L520.022 302.486C529.822 312.754 539.274 321.016 548.682 327.642C552.106 330.151 555.691 332.403 559.229 334.447C560.253 335.091 561.23 335.526 562.254 336.169C566.256 338.326 570.305 340.692 573.744 343.746C578.254 347.652 581.495 352.727 584.768 357.464C585.902 359.071 587.083 360.885 588.217 362.491C591.618 367.31 596.077 372.435 602.658 375.318C607.281 385.015 606.027 397.812 598.753 413.083C591.722 427.97 582.096 441.584 570.327 453.495C560.809 463.244 549.996 471.644 538.338 478.261C511.264 493.783 490.567 493.47 477.941 490.543L477.813 490.462L477.396 490.558C476.618 488.102 475.63 485.695 474.434 483.335C465.87 467.407 446.272 457.954 432.356 452.25C422.427 448.157 411.902 445.297 401.666 442.262C398.366 441.261 394.986 440.389 391.558 439.308C385.086 437.386 380.008 435.805 375.3 433.919C357.202 427.196 340.7 417.364 323.895 407.163C321.718 405.795 319.413 404.347 317.156 403.108C314.083 401.177 311.011 399.247 307.857 397.444C289.34 385.989 270.23 374.34 250.812 363.748C241.527 358.63 232.978 354.331 224.396 350.369C221.081 348.823 217.558 347.324 214.244 345.778C206.046 342.057 197.383 338.223 189.331 333.701C188.307 333.057 187.202 332.542 186.306 331.979C175.438 325.686 165.407 317.776 155.6 310.363L155.472 310.282C144.977 302.259 135.108 294.092 127.921 284.214C123.913 278.656 121.331 273.102 119.92 267.389C119.587 265.929 118.655 260.875 121.674 259.197L122.669 258.75L121.532 258.571C114.288 257.595 107.644 253.957 101.257 250.48C100.361 249.917 99.5123 249.563 98.616 248.999C90.2753 244.653 80.7822 239.582 74.0373 232.127C73.4302 231.388 72.823 230.649 72.2159 229.91C69.6116 226.665 66.8834 221.912 67.8431 216.974C68.7037 213.046 71.968 209.556 76.9443 207.32C77.442 207.097 78.1482 206.825 78.7738 206.682C87.7126 203.54 97.2466 205.419 103.557 207.596C109.74 209.693 115.487 212.768 121.315 215.714C123.572 216.953 126.037 218.145 128.503 219.337C134.539 222.235 141.12 225.119 148.873 227.845L149.147 227.124C141.395 224.398 134.814 221.514 128.778 218.616C126.44 217.504 124.055 216.185 121.589 214.993C115.97 211.999 110.015 208.972 103.832 206.875C97.3126 204.745 87.6506 202.786 78.5032 205.976C77.797 206.247 77.1714 206.39 76.5932 206.742C71.4084 209.026 68.0635 212.644 67.1699 216.909C66.0491 222.103 68.953 227.145 71.6852 230.47C72.2924 231.209 72.8995 231.948 73.6348 232.768C80.5076 240.303 90.0813 245.246 98.4695 249.801C99.3658 250.364 100.214 250.719 101.111 251.282C107.242 254.598 113.629 258.075 120.712 259.307C118.044 261.564 119.009 266.281 119.342 267.741C120.8 273.662 123.51 279.297 127.519 284.855C134.625 294.861 144.703 302.98 155.117 311.132L155.245 311.212C164.972 318.753 175.082 326.536 185.87 332.956C186.895 333.6 187.871 334.035 188.896 334.678C196.947 339.201 205.61 343.035 213.808 346.756C217.123 348.302 220.646 349.8 223.96 351.346C232.542 355.309 241.092 359.608 250.376 364.726C269.794 375.317 288.904 386.966 307.422 398.422C310.494 400.353 313.567 402.283 316.721 404.086C319.025 405.534 321.202 406.901 323.459 408.14C340.264 418.342 356.975 428.126 374.992 434.977C379.653 436.654 384.778 438.444 391.25 440.366C394.55 441.366 398.058 442.319 401.358 443.32C411.547 446.147 421.992 449.134 431.92 453.227C445.709 458.852 465.178 468.224 473.695 483.943C474.891 486.303 476.006 488.791 476.705 491.375L476.8 491.792L477.634 491.601C487.04 493.399 499.816 494.098 516.007 489.077Z" fill="url(#paint15_linear_699_1433)"/>
<path d="M520.231 302.438L520.761 301.877C517.996 298.889 514.975 295.739 512.162 292.542C510.26 290.453 508.438 288.236 506.361 285.859C502.158 280.895 497.908 275.722 493.833 270.838C486.547 261.97 478.958 252.733 470.966 244.137C469.239 242.337 467.527 241.083 465.621 240.422L464.733 237.003C462.418 233.583 460.311 230.114 457.996 226.693L453.925 220.382C451.515 216.544 448.673 212.256 445.509 208.481C437.152 198.761 425.193 192.499 414.723 186.993L396.633 177.415C387.012 172.264 378.496 167.628 370.62 163.395L370.217 164.036C378.013 168.397 386.529 173.033 396.231 178.056L414.321 187.634C424.79 193.14 436.54 199.45 444.979 209.041C448.223 212.688 450.809 216.815 453.475 220.814L457.546 227.126C459.733 230.466 461.968 234.015 464.155 237.355L465.043 240.773L465.171 240.854C467.077 241.515 468.789 242.769 470.387 244.489C478.38 253.085 485.841 262.242 493.127 271.109C497.202 275.993 501.452 281.166 505.655 286.13C507.732 288.508 509.554 290.725 511.456 292.813C514.525 296.172 517.337 299.369 520.231 302.438Z" fill="url(#paint16_linear_699_1433)"/>
<path d="M370.169 163.827L370.572 163.186C348.85 151.147 330.219 140.156 313.607 129.362L313.322 128.11L313.194 128.03C300.165 114.66 287.008 101.21 273.979 87.8405C272.428 86.3298 270.526 84.241 268.108 83.258C265.946 82.4358 262.755 82.3976 260.922 84.4631C260.23 85.2797 259.795 86.2573 259.359 87.2348C258.682 88.5968 258.213 89.9111 256.881 90.3256C256.256 90.4687 255.63 90.6119 254.909 90.3378C253.852 90.031 252.7 89.307 251.756 88.5353L251.5 88.3744C246.236 84.5309 239.651 83.0747 233.402 81.6512C231.207 81.1658 228.884 80.5999 226.769 79.9864C221.146 78.4197 215.798 76.1318 210.578 73.9244L186.045 63.5158C175.22 58.8596 164.395 54.2034 153.362 49.5949C148.013 47.307 142.665 45.0191 136.72 43.9651C131.239 43.0242 125.755 43.5109 121.152 44.0152C120.19 44.1257 119.228 44.236 118.474 44.2987L118.265 44.3465C113.454 44.8986 107.856 45.8501 104.687 49.7575C102.451 52.4638 101.638 56.6003 102.508 60.9004C102.983 62.9864 103.794 65.1052 104.687 67.0957C104.957 67.802 105.228 68.5082 105.498 69.2144C105.816 70.1293 106.087 70.8355 106.23 71.4613L105.812 71.5568L106.116 71.9263C111.156 81.5274 120.707 88.7794 135.296 94.5496C139.492 96.1135 143.769 97.5492 147.917 98.9045C154.181 100.873 160.619 103.131 166.608 105.821L166.882 105.1C160.846 102.201 154.455 100.152 148.064 98.1028C143.915 96.7475 139.639 95.3118 135.443 93.7479C121.109 88.1386 111.814 81.0475 106.661 71.9113L106.87 71.8636L107.192 71.3509C107.002 70.5165 106.603 69.7298 106.366 68.6868C106.095 67.9806 105.824 67.2744 105.554 66.5681C104.79 64.658 103.978 62.5393 103.503 60.4533C102.681 56.3617 103.461 52.562 105.616 49.9838C108.624 46.3327 113.886 45.3485 118.697 44.7964L118.906 44.7487C119.868 44.6383 120.702 44.4474 121.584 44.4652C126.187 43.9608 131.59 43.6023 136.943 44.4628C142.76 45.4363 148.108 47.7242 153.329 49.9316C164.154 54.5878 174.979 59.244 186.012 63.8525L210.464 74.3893C215.812 76.6772 221.161 78.9651 226.784 80.5317C229.026 81.2257 231.222 81.7111 233.545 82.277C239.793 83.7005 246.17 85.2045 251.434 89.048L251.69 89.2089C252.634 89.9806 253.914 90.785 255.099 91.1722C255.948 91.5267 256.702 91.464 257.408 91.1927C259.029 90.6024 259.578 89.1599 260.336 87.6698C260.691 86.8204 261.126 85.8429 261.738 85.1544C263.41 83.3452 266.183 83.4788 268.089 84.1401C270.379 85.0427 272.106 86.8424 273.704 88.5617C286.733 101.931 299.762 115.301 312.792 128.671L313.205 130.003L313.333 130.083C329.688 140.717 348.319 151.707 370.169 163.827Z" fill="url(#paint17_linear_699_1433)"/>
<path d="M262.663 167.244L263.194 166.684C259.789 163.293 256.142 160.287 251.935 156.75L245.281 151.139C240.003 146.751 234.677 142.153 229.398 137.764C225.623 134.677 221.801 131.382 217.495 128.856C214.55 127.005 211.236 125.459 206.784 123.734C204.622 122.912 202.251 122.138 200.089 121.316C195.428 119.639 190.559 118.009 185.964 115.659C183.242 114.306 180.554 112.617 177.865 110.928C175.688 109.56 173.384 108.112 170.918 106.92C170.278 106.518 169.557 106.244 168.789 105.761L168.386 106.402C169.027 106.804 169.747 107.079 170.387 107.481C172.645 108.72 174.949 110.168 177.206 111.407C179.767 113.016 182.536 114.577 185.306 116.139C189.9 118.489 194.77 120.119 199.43 121.796C201.592 122.618 203.963 123.392 206.125 124.214C210.577 125.939 213.892 127.485 216.836 129.335C221.142 131.862 224.965 135.157 228.74 138.244C234.018 142.633 239.344 147.23 244.623 151.619L251.276 157.23C255.82 160.799 259.258 163.853 262.663 167.244Z" fill="url(#paint18_linear_699_1433)"/>
<path d="M240.574 240.773L240.977 240.132C240.208 239.65 239.488 239.376 238.72 238.893C235.742 237.38 232.442 236.379 230.119 235.813C226.482 234.779 222.846 233.746 219.257 232.921C213.297 231.322 207.21 229.642 201.283 227.706C191.336 224.495 181.568 220.145 172.265 215.909C167.125 213.573 161.905 211.366 156.685 209.159C150.407 206.644 143.584 204.145 136.088 201.58C123.13 197.193 109.85 193.318 96.9542 189.684C89.6813 187.617 82.2803 185.469 74.9598 183.194C66.7101 180.692 59.4702 178.288 53.6321 173.369C52.5603 172.517 51.5691 171.536 50.7863 170.508C45.9435 165.142 44.0059 158.562 45.4012 152.646C46.1959 149.392 48.1284 146.316 50.8766 143.932C54.4445 140.811 59.2122 138.623 64.232 138.023C67.7444 137.549 71.3994 137.7 75.614 138.382C80.3738 139.049 85.1955 140.469 89.4247 141.697C91.6673 142.391 93.9904 142.956 96.233 143.65C98.3475 144.264 100.462 144.878 102.785 145.443C106.886 146.59 110.987 147.737 115.089 148.884C119.19 150.03 123.291 151.177 127.392 152.324L173.096 165.131C183.413 168.038 194.067 170.978 204.237 174.686C211.524 177.299 217.977 180.102 223.805 183.048L224.445 183.45C233.858 188.649 243.9 192.277 254.359 195.81C259.229 197.44 263.107 198.089 266.282 197.581C268.624 197.265 270.406 196.419 271.965 195.074C274.794 192.562 276.057 187.993 275.187 183.693C274.507 180.227 272.785 177 269.573 173.016C267.88 170.88 265.85 168.71 263.564 166.38L263.033 166.941C265.319 169.271 267.221 171.359 268.915 173.496C271.998 177.399 273.721 180.627 274.353 183.884C275.175 187.975 273.945 192.207 271.405 194.544C269.927 195.76 268.145 196.607 266.012 196.875C262.916 197.254 259.166 196.686 254.425 195.137C243.966 191.604 233.924 187.976 224.639 182.857L223.999 182.455C218.043 179.428 211.718 176.705 204.303 174.013C194.133 170.304 183.479 167.364 173.162 164.457L127.169 151.826C123.068 150.679 118.967 149.533 114.865 148.386C110.764 147.239 106.663 146.092 102.562 144.946C100.448 144.332 98.333 143.719 96.0099 143.153C93.7673 142.459 91.4442 141.893 89.2016 141.199C84.9725 139.972 80.0702 138.679 75.391 137.884C71.1763 137.202 67.3128 137.099 63.8004 137.573C58.7001 138.301 53.5957 140.456 50.0278 143.577C47.1186 146.218 45.1861 149.294 44.3109 152.676C42.8351 158.72 44.9483 165.589 49.8386 171.164C50.7494 172.272 51.7407 173.253 52.8124 174.105C58.7786 179.105 66.1465 181.589 74.3962 184.091C81.7167 186.366 89.3262 188.466 96.3906 190.581C109.287 194.215 122.567 198.09 135.525 202.477C143.021 205.042 149.843 207.541 156.121 210.056C161.341 212.263 166.69 214.551 171.702 216.806C181.085 220.914 190.853 225.264 200.8 228.475C206.727 230.411 212.814 232.091 218.774 233.69C222.282 234.643 225.999 235.548 229.555 236.71C231.798 237.404 234.97 238.324 237.947 239.838C239.085 240.016 239.806 240.291 240.574 240.773Z" fill="url(#paint19_linear_699_1433)"/>
<path d="M242.414 242.108L242.816 241.467C242.176 241.065 241.536 240.662 240.768 240.18L240.365 240.82C241.214 241.175 241.854 241.577 242.414 242.108Z" fill="url(#paint20_linear_699_1433)"/>
<path d="M244.346 256.37C246.512 255.765 248.521 253.988 248.88 251.712C249.06 250.573 248.855 249.193 248.186 247.7C247.118 245.421 245.425 243.284 242.945 241.547L242.542 242.188C244.766 243.764 246.459 245.901 247.48 247.972C248.101 249.256 248.387 250.508 248.207 251.646C247.895 254.132 245.294 255.714 242.952 256.031C240.402 256.395 237.903 255.54 235.533 254.765L184.754 238.949L184.48 239.67L235.258 255.487C237.629 256.261 240.336 257.068 243.014 256.785C243.512 256.561 243.929 256.466 244.346 256.37Z" fill="url(#paint21_linear_699_1433)"/>
<path d="M459.654 448.309L391.795 440.351L391.667 440.27C378.748 427.863 359.032 409.22 357.335 408.511C356.628 408.782 353.647 408.696 337.059 406.675C327.25 405.517 317.394 404.151 317.266 404.071L316.929 404.038L303.71 344.074L303.662 343.866L329.994 324.124L334.79 294.606L326.025 275.871L349.29 274.938L357.883 235.113L341.3 208.071L370.583 199.836L374.912 176.459L369.676 162.623L370.653 163.058L465.702 240.294L520.89 301.958L603.782 374.952L571.304 453.93L571.224 454.058L477.715 491.473L477.426 491.649L459.654 448.309ZM602.739 375.19L520.231 302.438L465.171 240.854L371.194 164.471L375.747 176.268L371.351 200.318L342.405 208.587L358.636 235.05L349.898 275.677L327.177 276.595L335.416 294.462L335.544 294.543L330.763 324.607L304.511 344.22L317.716 403.638C332.668 405.704 355.154 408.571 357.031 408.141L357.111 408.013L357.367 408.174C359.786 409.157 382.219 430.58 392.037 439.966L459.896 447.924L460.104 447.876L477.572 490.847L570.375 453.703L602.739 375.19Z" fill="url(#paint22_linear_699_1433)"/>
<path d="M105.916 69.1187L105.949 68.7819L105.532 68.8774L105.437 68.4602L105.854 68.3647C105.982 68.4452 106.062 68.317 106.574 68.6388L106.3 69.36C106.044 69.1991 105.916 69.1187 105.916 69.1187ZM106.238 68.606L105.949 68.7819L106.238 68.606Z" fill="url(#paint23_linear_699_1433)"/>
<path d="M166.769 105.565L167.172 104.924L166.66 104.603C153.904 96.7668 112.179 71.0879 106.783 68.5914L106.509 69.3126C111.904 71.8091 153.629 97.4881 166.257 105.243L166.769 105.565Z" fill="url(#paint24_linear_699_1433)"/>
<path d="M137.733 77.3123L106.428 69.4408L106.702 68.7196L137.799 76.6388L149.234 52.1853L170.682 82.2839L138.999 77.5714L167.219 105.133L166.688 105.693L137.733 77.3123ZM138.472 76.7043L169.145 81.3186L149.358 53.6932L138.472 76.7043Z" fill="url(#paint25_linear_699_1433)"/>
<path d="M106.38 69.2335L106.541 68.9768L106.831 68.8006L106.541 68.9768L106.655 68.5112L106.574 68.6396L106.413 68.8963L106.124 69.0724L106.38 69.2335Z" fill="url(#paint26_linear_699_1433)"/>
<path d="M307.305 141.668C306.968 141.635 306.968 141.635 303.779 135.342C301.245 129.996 296.495 120.219 295.262 119.623C294.764 119.846 292.986 119.266 274.283 105.548C265.595 99.1959 257.115 92.796 255.1 91.1722L248.831 114.224L248.751 114.352L217.334 129.112L217.125 129.16L168.339 106.194L166.385 105.324L169.369 81.8162L169.402 81.4795L176.942 68.342L185.083 63.6262L121.727 45.0909L106.655 68.511L106.509 69.3126L105.451 69.0059L105.693 68.6214L121.248 44.4324L121.409 44.1761L187.008 63.4053L177.71 68.8246L170.459 81.7862L167.509 104.957L217.4 128.438L248.319 113.903L254.815 89.9206L255.327 90.2423C270.318 101.627 293.389 118.625 295.408 118.821C295.489 118.693 295.617 118.773 295.745 118.854C296.93 119.241 299.673 124.539 304.775 134.894C306.193 137.752 307.612 140.61 307.788 140.899L307.627 141.155L307.883 141.316L307.722 141.572L307.305 141.668Z" fill="url(#paint27_linear_699_1433)"/>
<path d="M285.016 269.232L241.536 240.662L266.069 233.733L272.879 212.093L266.33 197.79C270.61 197.798 298.058 197.883 303.747 198.776C304.515 199.259 304.723 199.211 304.932 199.164L305.14 199.116L305.221 198.988C305.301 198.86 305.254 198.651 305.126 198.57C305.078 198.362 304.822 198.201 304.021 198.055C298.435 194.724 272.537 173.984 263.962 167.167L297.688 163.511L297.769 163.383C298.801 161.171 307.561 141.829 307.802 141.444L307.082 141.17C306.968 141.635 300.661 155.369 297.209 162.852L261.767 166.681L262.663 167.244L262.919 167.405C270.55 173.451 294.561 192.648 302.21 197.811C293.587 197.041 266.813 197.021 265.722 197.051L265.177 197.066L272.125 212.156L265.509 233.202L239.853 240.499L240.621 240.982L242.67 242.269L280.725 267.251L243.417 256.144L243.142 256.865L285.016 269.232Z" fill="url(#paint28_linear_699_1433)"/>
<path d="M266.069 233.733C265.988 233.861 265.78 233.909 265.652 233.828C260.987 233.579 204.609 207.631 201.167 206.004L180.382 208.675L180.173 208.723L173.151 197.161L172.862 197.337L172.767 196.92L129.598 183.203L129.309 183.379L129.389 183.251L116.752 184.606L105.824 182.387L105.36 182.274L86.3139 176.206C80.6605 179.804 77.1111 182.043 75.7132 183.131C75.6802 183.468 75.4387 183.852 75.2301 183.9C75.0216 183.948 74.8935 183.867 74.813 183.995L74.5569 183.834L74.5094 183.626C74.4619 183.417 74.6229 183.161 75.0731 182.729C75.5602 180.532 75.225 174.244 75.1815 172.608L50.0468 171.116L50.1555 143.657L50.1885 143.321L50.3971 143.273C75.2151 137.595 75.5517 137.628 75.5517 137.628C75.8882 137.66 76.0163 137.741 81.5095 162.821L103.045 144.177L101.54 166.468L105.62 181.007C126.4 151.343 126.865 151.456 127.201 151.489C127.538 151.522 128.003 151.635 129.777 182.064L172.987 164.168L173.539 195.975L204.463 173.756L201.522 205.155L265.722 197.051L265.784 197.805L202.338 205.846C210.664 209.648 261.39 232.938 265.59 233.074L265.718 233.155C265.718 233.155 265.509 233.203 265.557 233.411L265.926 233.107C268.301 232.454 326.394 275.567 326.906 275.889L326.504 276.53C321.496 272.847 269.786 234.638 266.069 233.733ZM173.601 196.729L180.32 207.921L200.688 205.346L203.497 175.294L173.601 196.729ZM130.513 182.884L172.705 196.166L172.309 165.53L130.513 182.884ZM106.018 181.794L116.481 183.899L128.991 182.464C128.283 171.652 127.317 155.852 126.813 152.675C124.705 155.462 113.664 171.047 106.018 181.794ZM86.9726 175.727L104.961 181.487L100.976 167.365C99.3222 168.292 92.9151 171.953 86.9726 175.727ZM75.6936 172.93C75.7371 174.566 75.9957 179.555 75.6037 182.168C77.2906 180.905 80.4704 178.97 85.0481 175.947L75.6936 172.93ZM81.458 164.039C80.6383 164.776 78.2227 168.62 75.9682 172.209L86.0433 175.5C91.6968 171.902 97.8954 168.289 100.127 167.011C92.9971 165.569 82.2922 163.849 81.458 164.039ZM82.1972 163.431C85.5156 163.55 94.6655 165.188 100.739 166.322L102.046 146.051L82.1972 163.431ZM75.1161 138.605C72.822 139.13 57.2609 142.581 50.7152 144.188L50.5775 170.556L74.9584 172.111L75.0389 171.982L75.295 172.143C76.3417 170.477 79.8041 164.967 80.8653 163.846C78.8077 154.331 75.7998 140.644 75.1161 138.605Z" fill="url(#paint29_linear_699_1433)"/>
<path d="M326.954 276.097L305.396 199.276L343.045 208.989L297.674 162.965L248.656 113.935L168.681 81.2054L168.487 81.7985L169.72 82.3943L248.253 114.576L297.143 163.525L340.66 207.669L304.277 198.216L326.12 276.288L326.954 276.097Z" fill="url(#paint30_linear_699_1433)"/>
<path d="M240.574 240.773L240.976 240.132L238.719 238.893L180.319 207.921L180.111 207.968C178.86 208.255 153.074 204.388 136.088 201.58L105.634 181.553L74.7508 183.241L74.8128 183.995L75.0214 183.947L105.487 182.354L135.941 202.382C140.156 203.064 176.902 208.812 180.173 208.722L240.574 240.773Z" fill="url(#paint31_linear_699_1433)"/>
<path d="M287.501 297.962C256.949 290.028 198.728 275.256 197.382 275.125C196.083 275.203 179.696 275.989 179.487 276.037L179.279 276.084L165.142 257.372L124.044 242.633L110.631 246.36L98.3015 229.318L93.7264 237.169L73.8901 232.928L78.8391 206.008L99.231 212.207L98.7371 228.341L149.322 227.412L149.45 227.493C157.33 230.299 165.499 232.929 173.54 235.478L176.84 236.479C179.419 237.206 182.046 238.141 184.625 238.868L184.351 239.589C181.772 238.863 179.145 237.927 176.566 237.201L173.266 236.2C165.353 233.73 157.103 231.228 149.303 228.294L98.9271 229.175L110.906 245.639L123.982 241.879L165.417 256.65L165.545 256.731L179.634 275.235C181.606 275.223 196.102 274.321 197.32 274.371C198.619 274.293 278.691 294.93 287.775 297.241L330.619 323.981L330.217 324.622L287.501 297.962ZM98.3638 212.734L79.2852 207.003L74.7573 232.401L93.3278 236.382L97.8224 228.66L98.3638 212.734Z" fill="url(#paint32_linear_699_1433)"/>
<path d="M267.958 320.54L219.53 301.552L176.185 287.547L175.256 287.32L175.464 287.273L121.897 259.694L121.769 259.614L121.641 259.533L121.721 259.405L110.423 246.408L110.953 245.847L121.82 258.395L123.613 242.183L149.161 227.669L149.512 228.247L124.253 242.585L122.461 258.797L165.081 256.618L184.659 238.532L197.496 274.66L197.671 274.949L177.18 287.099L273.576 312.451L287.197 297.593L282.375 267.751L326.569 275.856L326.953 276.097L304.382 344.14L304.269 344.604L267.958 320.54ZM283.238 268.651L287.951 297.53L287.998 297.739L273.847 313.157L188.569 290.859L219.724 300.959L268.361 319.899L303.903 343.481L326.167 276.497L283.238 268.651ZM184.527 239.879L165.479 257.405L123.485 259.441L176.331 286.745L196.951 274.675L184.527 239.879Z" fill="url(#paint33_linear_699_1433)"/>
<path d="M477.235 490.814L600.313 377.062L523.807 422.658L523.31 422.881L459.702 448.517L427.272 384.17L304.013 344.444L278.352 359.423L278.399 359.631L278.063 359.599L277.982 359.727L250.889 365.047L250.794 364.63L254.137 349.929C206.879 330.783 199.914 327.658 198.681 327.062L190.114 334.728L190.034 334.857L189.825 334.904L134.203 285.3L129.187 284.473L121.678 257.769L140.091 277.918L176.749 286.65L176.877 286.73L182.839 310.495L210.995 297.799L259.392 328.206L268.556 319.306L278.451 358.412L304.112 343.433L304.321 343.386L426.394 382.725L334.439 294.027L468.059 286.282L356.441 234.565L465.446 240.132L465.783 240.165L469.661 286.574L470.766 287.089L469.676 287.119L475.732 345.978L550.332 328.142L550.958 327.999L524.115 421.6L605.952 372.919L477.795 491.344L477.235 490.814ZM475.424 347.036L427.978 383.899L460.137 447.54L522.959 422.303L475.424 347.036ZM476.131 346.765L523.442 421.534L550.105 329.072L476.131 346.765ZM474.945 346.378L469.05 287.262L335.976 294.993L427.546 383.449L474.993 346.586L474.945 346.378ZM251.533 364.022L276.621 359.05C273.61 357.874 265.123 354.329 254.73 350.122L251.533 364.022ZM259.454 328.96L254.876 349.321C265.99 353.801 274.942 357.459 277.489 358.523L267.926 320.877L259.454 328.96ZM360.158 235.47L469.021 286.172L465.171 240.854L360.158 235.47ZM200.188 326.937C204.432 328.709 218.012 334.381 254.156 349.047L258.62 329.151L200.188 326.937ZM182.982 311.121C185.348 313.323 197.068 324.798 198.571 326.1L257.885 328.331L210.64 298.648L182.982 311.121ZM182.195 311.521L181.986 311.568L181.939 311.36L148.138 290.123L148.01 290.042C144.879 285.93 140.007 279.473 139.272 278.654C138.566 278.925 136.297 281.968 134.445 284.916L189.507 333.99L197.832 326.708C195.466 324.506 183.874 313.112 182.195 311.521ZM140.538 278.913C142.663 281.499 147.838 288.326 148.749 289.434L181.782 310.189L175.93 287.386L140.538 278.913ZM122.761 260.594L129.253 283.799L133.804 284.514C134.771 282.976 137.395 279.083 138.712 278.124L122.761 260.594Z" fill="url(#paint34_linear_699_1433)"/>
<path d="M392.213 440.256L428.333 383.05L357.193 407.885L357.255 408.639L357.463 408.592L426.694 384.522L391.573 439.853L392.213 440.256Z" fill="url(#paint35_linear_699_1433)"/>
<defs>
<linearGradient id="paint0_linear_699_1433" x1="107.204" y1="65.94" x2="154.422" y2="121.407" gradientUnits="userSpaceOnUse">
<stop stop-color="#1E7CDB"/>
<stop offset="1" stop-color="#970280"/>
</linearGradient>
<linearGradient id="paint1_linear_699_1433" x1="56.2837" y1="158.194" x2="80.0559" y2="175.894" gradientUnits="userSpaceOnUse">
<stop stop-color="#1E7CDB"/>
<stop offset="1" stop-color="#970280"/>
</linearGradient>
<linearGradient id="paint2_linear_699_1433" x1="84.8482" y1="166.361" x2="135.293" y2="208.22" gradientUnits="userSpaceOnUse">
<stop stop-color="#1E7CDB"/>
<stop offset="1" stop-color="#970280"/>
</linearGradient>
<linearGradient id="paint3_linear_699_1433" x1="263.609" y1="164.078" x2="307.733" y2="197.012" gradientUnits="userSpaceOnUse">
<stop stop-color="#1E7CDB"/>
<stop offset="1" stop-color="#970280"/>
</linearGradient>
<linearGradient id="paint4_linear_699_1433" x1="83.4276" y1="216.551" x2="128.891" y2="252.99" gradientUnits="userSpaceOnUse">
<stop stop-color="#1E7CDB"/>
<stop offset="1" stop-color="#970280"/>
</linearGradient>
<linearGradient id="paint5_linear_699_1433" x1="374.774" y1="158.484" x2="463.062" y2="249.418" gradientUnits="userSpaceOnUse">
<stop stop-color="#1E7CDB"/>
<stop offset="1" stop-color="#970280"/>
</linearGradient>
<linearGradient id="paint6_linear_699_1433" x1="137.56" y1="233.69" x2="198.193" y2="281.039" gradientUnits="userSpaceOnUse">
<stop stop-color="#1E7CDB"/>
<stop offset="1" stop-color="#970280"/>
</linearGradient>
<linearGradient id="paint7_linear_699_1433" x1="121.222" y1="255.803" x2="138.669" y2="267.781" gradientUnits="userSpaceOnUse">
<stop stop-color="#1E7CDB"/>
<stop offset="1" stop-color="#970280"/>
</linearGradient>
<linearGradient id="paint8_linear_699_1433" x1="150.326" y1="180.64" x2="233.941" y2="256.339" gradientUnits="userSpaceOnUse">
<stop stop-color="#1E7CDB"/>
<stop offset="1" stop-color="#970280"/>
</linearGradient>
<linearGradient id="paint9_linear_699_1433" x1="130.427" y1="280.643" x2="187.868" y2="339.012" gradientUnits="userSpaceOnUse">
<stop stop-color="#1E7CDB"/>
<stop offset="1" stop-color="#970280"/>
</linearGradient>
<linearGradient id="paint10_linear_699_1433" x1="206.286" y1="240.125" x2="292.285" y2="303.659" gradientUnits="userSpaceOnUse">
<stop stop-color="#1E7CDB"/>
<stop offset="1" stop-color="#970280"/>
</linearGradient>
<linearGradient id="paint11_linear_699_1433" x1="207.265" y1="240.74" x2="323.706" y2="332.106" gradientUnits="userSpaceOnUse">
<stop stop-color="#1E7CDB"/>
<stop offset="1" stop-color="#970280"/>
</linearGradient>
<linearGradient id="paint12_linear_699_1433" x1="202.058" y1="313.569" x2="258.492" y2="359.225" gradientUnits="userSpaceOnUse">
<stop stop-color="#1E7CDB"/>
<stop offset="1" stop-color="#970280"/>
</linearGradient>
<linearGradient id="paint13_linear_699_1433" x1="277.678" y1="321.621" x2="344.714" y2="370.025" gradientUnits="userSpaceOnUse">
<stop stop-color="#1E7CDB"/>
<stop offset="1" stop-color="#970280"/>
</linearGradient>
<linearGradient id="paint14_linear_699_1433" x1="430.404" y1="377.541" x2="485.348" y2="414.835" gradientUnits="userSpaceOnUse">
<stop stop-color="#1E7CDB"/>
<stop offset="1" stop-color="#970280"/>
</linearGradient>
<linearGradient id="paint15_linear_699_1433" x1="180.829" y1="65.9356" x2="649.487" y2="433.026" gradientUnits="userSpaceOnUse">
<stop stop-color="#1E7CDB"/>
<stop offset="1" stop-color="#970280"/>
</linearGradient>
<linearGradient id="paint16_linear_699_1433" x1="380.12" y1="159.546" x2="537.041" y2="302.592" gradientUnits="userSpaceOnUse">
<stop stop-color="#1E7CDB"/>
<stop offset="1" stop-color="#970280"/>
</linearGradient>
<linearGradient id="paint17_linear_699_1433" x1="147.147" y1="-1.94157" x2="381.126" y2="192.371" gradientUnits="userSpaceOnUse">
<stop stop-color="#1E7CDB"/>
<stop offset="1" stop-color="#970280"/>
</linearGradient>
<linearGradient id="paint18_linear_699_1433" x1="175.445" y1="101.475" x2="231.143" y2="193.765" gradientUnits="userSpaceOnUse">
<stop stop-color="#1E7CDB"/>
<stop offset="1" stop-color="#970280"/>
</linearGradient>
<linearGradient id="paint19_linear_699_1433" x1="110.906" y1="57.3426" x2="298.363" y2="194.076" gradientUnits="userSpaceOnUse">
<stop stop-color="#1E7CDB"/>
<stop offset="1" stop-color="#970280"/>
</linearGradient>
<linearGradient id="paint20_linear_699_1433" x1="240.866" y1="240.158" x2="242.869" y2="241.785" gradientUnits="userSpaceOnUse">
<stop stop-color="#1E7CDB"/>
<stop offset="1" stop-color="#970280"/>
</linearGradient>
<linearGradient id="paint21_linear_699_1433" x1="203.074" y1="213.242" x2="255.885" y2="252.576" gradientUnits="userSpaceOnUse">
<stop stop-color="#1E7CDB"/>
<stop offset="1" stop-color="#970280"/>
</linearGradient>
<linearGradient id="paint22_linear_699_1433" x1="389.553" y1="149.271" x2="675.122" y2="350.679" gradientUnits="userSpaceOnUse">
<stop stop-color="#1E7CDB"/>
<stop offset="1" stop-color="#970280"/>
</linearGradient>
<linearGradient id="paint23_linear_699_1433" x1="105.746" y1="68.035" x2="106.801" y2="68.7907" gradientUnits="userSpaceOnUse">
<stop stop-color="#1E7CDB"/>
<stop offset="1" stop-color="#970280"/>
</linearGradient>
<linearGradient id="paint24_linear_699_1433" x1="109.395" y1="68.3899" x2="114.407" y2="115.019" gradientUnits="userSpaceOnUse">
<stop stop-color="#1E7CDB"/>
<stop offset="1" stop-color="#970280"/>
</linearGradient>
<linearGradient id="paint25_linear_699_1433" x1="129.831" y1="35.8707" x2="190.853" y2="80.6264" gradientUnits="userSpaceOnUse">
<stop stop-color="#1E7CDB"/>
<stop offset="1" stop-color="#970280"/>
</linearGradient>
<linearGradient id="paint26_linear_699_1433" x1="106.576" y1="68.3779" x2="106.983" y2="68.6469" gradientUnits="userSpaceOnUse">
<stop stop-color="#1E7CDB"/>
<stop offset="1" stop-color="#970280"/>
</linearGradient>
<linearGradient id="paint27_linear_699_1433" x1="146.679" y1="15.1682" x2="319.187" y2="157.478" gradientUnits="userSpaceOnUse">
<stop stop-color="#1E7CDB"/>
<stop offset="1" stop-color="#970280"/>
</linearGradient>
<linearGradient id="paint28_linear_699_1433" x1="294.608" y1="118.579" x2="361.213" y2="162.442" gradientUnits="userSpaceOnUse">
<stop stop-color="#1E7CDB"/>
<stop offset="1" stop-color="#970280"/>
</linearGradient>
<linearGradient id="paint29_linear_699_1433" x1="99.3052" y1="82.2581" x2="350.875" y2="288.002" gradientUnits="userSpaceOnUse">
<stop stop-color="#1E7CDB"/>
<stop offset="1" stop-color="#970280"/>
</linearGradient>
<linearGradient id="paint30_linear_699_1433" x1="187.367" y1="64.8091" x2="389.047" y2="219.657" gradientUnits="userSpaceOnUse">
<stop stop-color="#1E7CDB"/>
<stop offset="1" stop-color="#970280"/>
</linearGradient>
<linearGradient id="paint31_linear_699_1433" x1="102.524" y1="148.636" x2="239.048" y2="268.163" gradientUnits="userSpaceOnUse">
<stop stop-color="#1E7CDB"/>
<stop offset="1" stop-color="#970280"/>
</linearGradient>
<linearGradient id="paint32_linear_699_1433" x1="106.89" y1="176.853" x2="323.294" y2="372.85" gradientUnits="userSpaceOnUse">
<stop stop-color="#1E7CDB"/>
<stop offset="1" stop-color="#970280"/>
</linearGradient>
<linearGradient id="paint33_linear_699_1433" x1="168.535" y1="166.062" x2="353.291" y2="305.748" gradientUnits="userSpaceOnUse">
<stop stop-color="#1E7CDB"/>
<stop offset="1" stop-color="#970280"/>
</linearGradient>
<linearGradient id="paint34_linear_699_1433" x1="250.199" y1="79.6716" x2="655.14" y2="381.113" gradientUnits="userSpaceOnUse">
<stop stop-color="#1E7CDB"/>
<stop offset="1" stop-color="#970280"/>
</linearGradient>
<linearGradient id="paint35_linear_699_1433" x1="393.066" y1="353.428" x2="435.107" y2="381.422" gradientUnits="userSpaceOnUse">
<stop stop-color="#1E7CDB"/>
<stop offset="1" stop-color="#970280"/>
</linearGradient>
</defs>
</svg>
