<svg width="138" height="63" viewBox="0 0 138 63" fill="none" xmlns="http://www.w3.org/2000/svg">
<path d="M51.53 37.216C50.306 37.216 49.235 36.946 48.317 36.406C47.399 35.866 46.679 35.047 46.157 33.949C45.653 32.833 45.401 31.429 45.401 29.737C45.401 28.027 45.644 26.623 46.13 25.525C46.616 24.427 47.318 23.608 48.236 23.068C49.154 22.528 50.252 22.258 51.53 22.258C52.898 22.258 54.122 22.573 55.202 23.203C56.3 23.815 57.164 24.679 57.794 25.795C58.442 26.911 58.766 28.225 58.766 29.737C58.766 31.267 58.442 32.59 57.794 33.706C57.164 34.822 56.3 35.686 55.202 36.298C54.122 36.91 52.898 37.216 51.53 37.216ZM42.944 42.238V22.474H46.967V25.444L46.886 29.764L47.156 34.057V42.238H42.944ZM50.801 33.76C51.503 33.76 52.124 33.598 52.664 33.274C53.222 32.95 53.663 32.491 53.987 31.897C54.329 31.285 54.5 30.565 54.5 29.737C54.5 28.891 54.329 28.171 53.987 27.577C53.663 26.983 53.222 26.524 52.664 26.2C52.124 25.876 51.503 25.714 50.801 25.714C50.099 25.714 49.469 25.876 48.911 26.2C48.353 26.524 47.912 26.983 47.588 27.577C47.264 28.171 47.102 28.891 47.102 29.737C47.102 30.565 47.264 31.285 47.588 31.897C47.912 32.491 48.353 32.95 48.911 33.274C49.469 33.598 50.099 33.76 50.801 33.76Z" fill="white"/>
<path d="M68.7946 37.216C67.1386 37.216 65.6806 36.892 64.4206 36.244C63.1786 35.596 62.2156 34.714 61.5316 33.598C60.8476 32.464 60.5056 31.177 60.5056 29.737C60.5056 28.279 60.8386 26.992 61.5046 25.876C62.1886 24.742 63.1156 23.86 64.2856 23.23C65.4556 22.582 66.7786 22.258 68.2546 22.258C69.6766 22.258 70.9546 22.564 72.0886 23.176C73.2406 23.77 74.1496 24.634 74.8156 25.768C75.4816 26.884 75.8146 28.225 75.8146 29.791C75.8146 29.953 75.8056 30.142 75.7876 30.358C75.7696 30.556 75.7516 30.745 75.7336 30.925H63.9346V28.468H73.5196L71.8996 29.197C71.8996 28.441 71.7466 27.784 71.4406 27.226C71.1346 26.668 70.7116 26.236 70.1716 25.93C69.6316 25.606 69.0016 25.444 68.2816 25.444C67.5616 25.444 66.9226 25.606 66.3646 25.93C65.8246 26.236 65.4016 26.677 65.0956 27.253C64.7896 27.811 64.6366 28.477 64.6366 29.251V29.899C64.6366 30.691 64.8076 31.393 65.1496 32.005C65.5096 32.599 66.0046 33.058 66.6346 33.382C67.2826 33.688 68.0386 33.841 68.9026 33.841C69.6766 33.841 70.3516 33.724 70.9276 33.49C71.5216 33.256 72.0616 32.905 72.5476 32.437L74.7886 34.867C74.1226 35.623 73.2856 36.208 72.2776 36.622C71.2696 37.018 70.1086 37.216 68.7946 37.216Z" fill="white"/>
<path d="M85.5308 37.216C83.9828 37.216 82.6058 36.892 81.3998 36.244C80.2118 35.596 79.2668 34.714 78.5648 33.598C77.8808 32.464 77.5388 31.177 77.5388 29.737C77.5388 28.279 77.8808 26.992 78.5648 25.876C79.2668 24.742 80.2118 23.86 81.3998 23.23C82.6058 22.582 83.9828 22.258 85.5308 22.258C87.0608 22.258 88.4288 22.582 89.6348 23.23C90.8408 23.86 91.7858 24.733 92.4698 25.849C93.1538 26.965 93.4958 28.261 93.4958 29.737C93.4958 31.177 93.1538 32.464 92.4698 33.598C91.7858 34.714 90.8408 35.596 89.6348 36.244C88.4288 36.892 87.0608 37.216 85.5308 37.216ZM85.5308 33.76C86.2328 33.76 86.8628 33.598 87.4208 33.274C87.9788 32.95 88.4198 32.491 88.7438 31.897C89.0678 31.285 89.2298 30.565 89.2298 29.737C89.2298 28.891 89.0678 28.171 88.7438 27.577C88.4198 26.983 87.9788 26.524 87.4208 26.2C86.8628 25.876 86.2328 25.714 85.5308 25.714C84.8288 25.714 84.1988 25.876 83.6408 26.2C83.0828 26.524 82.6328 26.983 82.2908 27.577C81.9668 28.171 81.8048 28.891 81.8048 29.737C81.8048 30.565 81.9668 31.285 82.2908 31.897C82.6328 32.491 83.0828 32.95 83.6408 33.274C84.1988 33.598 84.8288 33.76 85.5308 33.76Z" fill="white"/>
<path d="M104.897 37.216C103.673 37.216 102.602 36.946 101.684 36.406C100.766 35.866 100.046 35.047 99.5242 33.949C99.0202 32.833 98.7682 31.429 98.7682 29.737C98.7682 28.027 99.0112 26.623 99.4972 25.525C99.9832 24.427 100.685 23.608 101.603 23.068C102.521 22.528 103.619 22.258 104.897 22.258C106.265 22.258 107.489 22.573 108.569 23.203C109.667 23.815 110.531 24.679 111.161 25.795C111.809 26.911 112.133 28.225 112.133 29.737C112.133 31.267 111.809 32.59 111.161 33.706C110.531 34.822 109.667 35.686 108.569 36.298C107.489 36.91 106.265 37.216 104.897 37.216ZM96.3112 42.238V22.474H100.334V25.444L100.253 29.764L100.523 34.057V42.238H96.3112ZM104.168 33.76C104.87 33.76 105.491 33.598 106.031 33.274C106.589 32.95 107.03 32.491 107.354 31.897C107.696 31.285 107.867 30.565 107.867 29.737C107.867 28.891 107.696 28.171 107.354 27.577C107.03 26.983 106.589 26.524 106.031 26.2C105.491 25.876 104.87 25.714 104.168 25.714C103.466 25.714 102.836 25.876 102.278 26.2C101.72 26.524 101.279 26.983 100.955 27.577C100.631 28.171 100.469 28.891 100.469 29.737C100.469 30.565 100.631 31.285 100.955 31.897C101.279 32.491 101.72 32.95 102.278 33.274C102.836 33.598 103.466 33.76 104.168 33.76Z" fill="white"/>
<path d="M114.953 37V16.966H119.165V37H114.953Z" fill="white"/>
<path d="M130.283 37.216C128.627 37.216 127.169 36.892 125.909 36.244C124.667 35.596 123.704 34.714 123.02 33.598C122.336 32.464 121.994 31.177 121.994 29.737C121.994 28.279 122.327 26.992 122.993 25.876C123.677 24.742 124.604 23.86 125.774 23.23C126.944 22.582 128.267 22.258 129.743 22.258C131.165 22.258 132.443 22.564 133.577 23.176C134.729 23.77 135.638 24.634 136.304 25.768C136.97 26.884 137.303 28.225 137.303 29.791C137.303 29.953 137.294 30.142 137.276 30.358C137.258 30.556 137.24 30.745 137.222 30.925H125.423V28.468H135.008L133.388 29.197C133.388 28.441 133.235 27.784 132.929 27.226C132.623 26.668 132.2 26.236 131.66 25.93C131.12 25.606 130.49 25.444 129.77 25.444C129.05 25.444 128.411 25.606 127.853 25.93C127.313 26.236 126.89 26.677 126.584 27.253C126.278 27.811 126.125 28.477 126.125 29.251V29.899C126.125 30.691 126.296 31.393 126.638 32.005C126.998 32.599 127.493 33.058 128.123 33.382C128.771 33.688 129.527 33.841 130.391 33.841C131.165 33.841 131.84 33.724 132.416 33.49C133.01 33.256 133.55 32.905 134.036 32.437L136.277 34.867C135.611 35.623 134.774 36.208 133.766 36.622C132.758 37.018 131.597 37.216 130.283 37.216Z" fill="white"/>
<path d="M17.9905 0.322266H7.41174V10.9019H17.9905V0.322266Z" fill="#C3018D"/>
<path d="M7.41174 21.2038V12.6578L38.7812 12.6689V21.2038H30.2026L30.1693 44.3745L19.6128 53.6317V21.1927L7.41174 21.2038Z" fill="white"/>
<path d="M7.41174 23.0374H17.9571L17.9682 62.8777L7.41174 53.6316V23.0374Z" fill="white"/>
</svg>
