<svg width="64" height="64" viewBox="0 0 64 64" fill="none" xmlns="http://www.w3.org/2000/svg">
<g clip-path="url(#clip0_1_2184)">
<path d="M38.296 55.3662C31.913 59.2742 15.1157 68.6262 6.78301 61.243C-1.54854 53.8607 9.00494 38.9761 13.4154 33.3204C14.4966 31.9349 16.538 31.4422 18.2691 32.136C18.8524 32.3692 19.4517 32.56 20.0624 32.707C24.6012 33.8019 28.7651 35.871 32.0914 38.8183C35.4184 41.7662 37.7526 45.4568 38.9892 49.4793C39.1574 50.0256 39.3727 50.5564 39.6327 51.0655C40.4158 52.5994 39.8597 54.408 38.296 55.3662Z" fill="url(#paint0_linear_1_2184)"/>
<path d="M6.78303 61.2429C15.1157 68.6262 31.9131 59.2741 38.296 55.366C39.8596 54.4079 40.4158 52.5992 39.6327 51.0654C39.3728 50.5562 39.1575 50.0255 38.9892 49.4792C38.254 47.0875 37.1276 44.8147 35.6383 42.744H7.15549C3.7345 49.1237 1.58924 56.6409 6.78303 61.2429Z" fill="url(#paint1_linear_1_2184)"/>
<path d="M38.9892 49.4792C37.7526 45.4568 35.4184 41.766 32.0914 38.8181C30.9396 37.7975 29.6853 36.885 28.3519 36.0789L20.2394 44.1914L33.9319 57.884C35.6514 56.9544 37.144 56.0714 38.296 55.3662C39.8596 54.408 40.4158 52.5994 39.6327 51.0655C39.3728 50.5563 39.1574 50.0255 38.9892 49.4792Z" fill="url(#paint2_linear_1_2184)"/>
<path d="M41.5815 9.1101C40.0314 12.0654 37.7963 14.6108 34.9915 16.419C33.8579 17.1498 32.7362 18.0509 31.6792 19.1079C27.0277 23.7593 36.569 33.3007 41.2204 28.6492C42.2774 27.5922 43.1786 26.4704 43.9093 25.3369C45.7174 22.532 48.2628 20.2969 51.2181 18.7469C53.0365 17.7931 54.875 16.4465 56.5691 14.7524C61.9285 9.39308 60.8263 5.57341 57.7905 2.5378C54.7548 -0.497809 50.9351 -1.60011 45.576 3.7592C43.8818 5.45319 42.5352 7.29174 41.5815 9.1101Z" fill="url(#paint3_linear_1_2184)"/>
<path d="M36.4481 23.3408L32.697 27.092C35.0778 29.6547 38.807 31.0626 41.2204 28.6492C41.3102 28.5593 41.3973 28.4685 41.4849 28.3776L36.4481 23.3408Z" fill="url(#paint4_linear_1_2184)"/>
<path d="M25.917 42.2945C25.5427 42.295 25.172 42.2215 24.8262 42.0782C24.4803 41.935 24.1662 41.7248 23.9019 41.4598C22.789 40.3469 22.789 38.5426 23.9019 37.4296L27.3386 33.9929C28.0709 33.2607 28.4743 32.287 28.4743 31.2513C28.4743 28.6932 29.4704 26.2882 31.2792 24.4794L32.418 23.3407C33.5309 22.228 35.3353 22.2278 36.4483 23.3408C37.5611 24.4536 37.5611 26.2581 36.4482 27.371L35.3093 28.5097C34.5771 29.242 34.1738 30.2157 34.1738 31.2515C34.1738 33.8096 33.1776 36.2146 31.3687 38.0233L27.9321 41.4598C27.6678 41.7248 27.3537 41.935 27.0079 42.0782C26.662 42.2214 26.2913 42.2949 25.917 42.2945Z" fill="url(#paint5_linear_1_2184)"/>
<path d="M25.917 42.2945C25.5427 42.295 25.172 42.2215 24.8262 42.0782C24.4803 41.935 24.1662 41.7248 23.9019 41.4598C22.789 40.3469 22.789 38.5426 23.9019 37.4296L27.3386 33.9929C28.0709 33.2607 28.4743 32.287 28.4743 31.2513C28.4743 28.6932 29.4704 26.2882 31.2792 24.4794L32.418 23.3407C33.5309 22.228 35.3353 22.2278 36.4483 23.3408C37.5611 24.4536 37.5611 26.2581 36.4482 27.371L35.3093 28.5097C34.5771 29.242 34.1738 30.2157 34.1738 31.2515C34.1738 33.8096 33.1776 36.2146 31.3687 38.0233L27.9321 41.4598C27.6678 41.7248 27.3537 41.935 27.0079 42.0782C26.662 42.2214 26.2913 42.2949 25.917 42.2945Z" fill="url(#paint6_linear_1_2184)"/>
<path d="M32.592 41.8879C30.0899 43.4197 23.5057 47.0856 20.2394 44.1915C16.9737 41.2978 21.1104 35.4633 22.8392 33.2464C23.263 32.7033 24.0633 32.5101 24.7418 32.7821C24.9704 32.8734 25.2053 32.9483 25.4447 33.0059C27.2237 33.4351 28.856 34.2462 30.1598 35.4014C31.4639 36.5569 32.3789 38.0036 32.8636 39.5804C32.9296 39.7945 33.014 40.0026 33.1159 40.2022C33.4228 40.8033 33.2048 41.5123 32.592 41.8879Z" fill="url(#paint7_linear_1_2184)"/>
</g>
<defs>
<linearGradient id="paint0_linear_1_2184" x1="11.4462" y1="33.4651" x2="24.0275" y2="57.8676" gradientUnits="userSpaceOnUse">
<stop stop-color="#F9F5F3"/>
<stop offset="1" stop-color="#EFE2DD"/>
</linearGradient>
<linearGradient id="paint1_linear_1_2184" x1="22.432" y1="55.4317" x2="25.5562" y2="63.1999" gradientUnits="userSpaceOnUse">
<stop stop-color="#9E9797" stop-opacity="0"/>
<stop offset="0.311" stop-color="#979090" stop-opacity="0.311"/>
<stop offset="0.786" stop-color="#817A7A" stop-opacity="0.786"/>
<stop offset="1" stop-color="#766E6E"/>
</linearGradient>
<linearGradient id="paint2_linear_1_2184" x1="31.0502" y1="50.3197" x2="24.8019" y2="34.6988" gradientUnits="userSpaceOnUse">
<stop stop-color="#9E9797" stop-opacity="0"/>
<stop offset="0.311" stop-color="#979090" stop-opacity="0.311"/>
<stop offset="0.786" stop-color="#817A7A" stop-opacity="0.786"/>
<stop offset="1" stop-color="#766E6E"/>
</linearGradient>
<linearGradient id="paint3_linear_1_2184" x1="41.0008" y1="10.5772" x2="50.5899" y2="20.1663" gradientUnits="userSpaceOnUse">
<stop stop-color="#9DE22E"/>
<stop offset="0.173" stop-color="#9BDE2E"/>
<stop offset="0.517" stop-color="#86C422"/>
<stop offset="0.932292" stop-color="#71A223"/>
<stop offset="0.9929" stop-color="#638F1A"/>
</linearGradient>
<linearGradient id="paint4_linear_1_2184" x1="41.6295" y1="25.4262" x2="35.9824" y2="27.1203" gradientUnits="userSpaceOnUse">
<stop stop-color="#3F6702" stop-opacity="0"/>
<stop offset="1" stop-color="#3F6702"/>
</linearGradient>
<linearGradient id="paint5_linear_1_2184" x1="27.0369" y1="29.8127" x2="31.8498" y2="33.7812" gradientUnits="userSpaceOnUse">
<stop stop-color="#FEC165"/>
<stop offset="1" stop-color="#F46700"/>
</linearGradient>
<linearGradient id="paint6_linear_1_2184" x1="30.1573" y1="32.0162" x2="30.4083" y2="37.475" gradientUnits="userSpaceOnUse">
<stop stop-color="#FE7701" stop-opacity="0"/>
<stop offset="1" stop-color="#6D3326"/>
</linearGradient>
<linearGradient id="paint7_linear_1_2184" x1="23.0347" y1="37.4218" x2="25.9479" y2="40.5882" gradientUnits="userSpaceOnUse">
<stop stop-color="#F9F5F3"/>
<stop offset="1" stop-color="#EFE2DD"/>
</linearGradient>
<clipPath id="clip0_1_2184">
<rect width="64" height="64" fill="white"/>
</clipPath>
</defs>
</svg>
