<svg width="64" height="64" viewBox="0 0 64 64" fill="none" xmlns="http://www.w3.org/2000/svg">
<g clip-path="url(#clip0_1_2195)">
<path d="M21.261 28.6118H21.2551C20.9263 28.612 20.6554 28.8759 20.655 29.1962V29.2019C20.655 34.1313 24.7584 38.1273 29.8203 38.1273H29.8262C30.155 38.127 30.4259 37.8631 30.4263 37.5429V37.5371C30.4263 32.6079 26.3229 28.6118 21.261 28.6118Z" fill="url(#paint0_linear_1_2195)"/>
<path d="M22.855 28.749V34.9994C24.536 36.9129 27.0319 38.1273 29.8204 38.1273H29.8263C30.1551 38.127 30.4261 37.8631 30.4264 37.543V37.5372C30.4264 33.1375 27.1567 29.484 22.855 28.749Z" fill="url(#paint1_linear_1_2195)"/>
<path d="M30.1387 35.8938H34.6787V27.7297C34.6787 23.6076 36.2838 19.7323 39.1986 16.8178L42.0949 13.9214L38.8846 10.7111L35.9883 13.6075C32.216 17.3795 30.1387 22.3948 30.1387 27.7297V35.8938Z" fill="url(#paint2_linear_1_2195)"/>
<path d="M51.6172 3.94716C51.5487 3.2297 51.2325 2.55849 50.7228 2.04887C50.2132 1.53924 49.542 1.223 48.8245 1.1545C44.7713 0.760839 40.4171 2.23648 37.1319 5.52169C33.8467 8.80689 32.3709 13.1612 32.7647 17.2144C32.8332 17.9318 33.1494 18.603 33.659 19.1127C34.1687 19.6223 34.8399 19.9385 35.5573 20.007C39.6105 20.4007 43.9647 18.925 47.25 15.6397C50.5351 12.3545 52.0109 8.00037 51.6172 3.94716Z" fill="url(#paint3_linear_1_2195)"/>
<path d="M33.6589 19.1126C34.1686 19.6223 34.8398 19.9385 35.5572 20.007C39.6104 20.4008 43.9646 18.925 47.2499 15.6397C50.5351 12.3545 52.0109 8.00036 51.6172 3.94715C51.5487 3.22969 51.2325 2.55849 50.7228 2.04886L33.6589 19.1126Z" fill="url(#paint4_linear_1_2195)"/>
<path d="M46.4182 16.412C46.7046 16.1646 46.982 15.907 47.2499 15.6397C50.5351 12.3545 52.0109 8.00037 51.6172 3.94716C51.5487 3.2297 51.2325 2.55849 50.7229 2.04887C50.2132 1.53924 49.542 1.223 48.8246 1.1545C44.7714 0.760839 40.4171 2.23648 37.1319 5.52169C36.8646 5.78958 36.607 6.06701 36.3596 6.35344V16.412H46.4182Z" fill="url(#paint5_linear_1_2195)"/>
<path d="M42.3889 10.3828H50.6988C51.5143 8.28672 51.8239 6.07558 51.6172 3.94715C51.5487 3.22968 51.2325 2.55848 50.7228 2.04885C50.2132 1.53922 49.542 1.22299 48.8246 1.15449C46.6961 0.947804 44.4849 1.25739 42.3889 2.07295V10.3828Z" fill="url(#paint6_linear_1_2195)"/>
<path d="M34.8753 41.8324H29.053V31.3625C29.053 26.0762 26.9946 21.1064 23.2565 17.3687L19.5421 13.6542L23.6591 9.53723L27.3735 13.2517C32.2111 18.089 34.8753 24.5209 34.8753 31.3625V41.8324Z" fill="url(#paint7_linear_1_2195)"/>
<path d="M27.3735 13.2517L23.6591 9.53723L19.5421 13.6542L23.2565 17.3687C26.2568 20.3688 28.1738 24.163 28.8142 28.2772H34.6917C34.0148 22.6036 31.4762 17.3541 27.3735 13.2517Z" fill="url(#paint8_linear_1_2195)"/>
<path d="M12.7099 0.0713872C11.8868 0.149949 11.1168 0.512715 10.5322 1.09735C9.94762 1.68199 9.58488 2.45198 9.50635 3.27503C9.05472 7.92469 10.7476 12.9197 14.5162 16.6883C18.2849 20.457 23.2798 22.1499 27.9294 21.6982C28.7525 21.6197 29.5224 21.2569 30.107 20.6723C30.6917 20.0877 31.0544 19.3178 31.133 18.4947C31.5846 13.8451 29.8917 8.85018 26.123 5.08146C22.3545 1.31261 17.3597 -0.380252 12.7099 0.0713872Z" fill="url(#paint9_linear_1_2195)"/>
<path d="M30.1072 20.6722C30.6918 20.0876 31.0546 19.3176 31.1332 18.4946C31.5848 13.8449 29.892 8.85005 26.1233 5.08133C22.3547 1.31273 17.3596 -0.380256 12.71 0.0713836C11.8869 0.149958 11.117 0.512741 10.5323 1.09739L30.1072 20.6722Z" fill="url(#paint10_linear_1_2195)"/>
<path d="M27.009 6.03543C26.7252 5.70686 26.4298 5.38862 26.1231 5.08133C22.3545 1.31273 17.3595 -0.380256 12.7099 0.0713836C11.8868 0.149945 11.1168 0.512711 10.5322 1.09735C9.94762 1.68198 9.58488 2.45198 9.50635 3.27502C9.05472 7.92469 10.7476 12.9197 14.5162 16.6883C14.8235 16.995 15.1418 17.2905 15.4704 17.5743H27.0091L27.009 6.03543Z" fill="url(#paint11_linear_1_2195)"/>
<path d="M20.0926 10.6577V1.125C17.6881 0.189345 15.1516 -0.165792 12.7099 0.0713843C11.8869 0.149946 11.1169 0.512712 10.5323 1.09735C9.94765 1.68198 9.58491 2.45198 9.50638 3.27502C9.26921 5.71669 9.62434 8.25322 10.56 10.6577H20.0926Z" fill="url(#paint12_linear_1_2195)"/>
<path d="M51.6477 33.6745H51.6523C51.9004 33.6748 52.1049 33.8739 52.1052 34.1156V34.12C52.1052 37.8404 49.0081 40.8565 45.1876 40.8565H45.1831C44.935 40.8562 44.7305 40.6571 44.7302 40.4154V40.411C44.7302 36.6906 47.8273 33.6745 51.6477 33.6745Z" fill="url(#paint13_linear_1_2195)"/>
<path d="M50.4448 33.778V38.4956C49.1761 39.9397 47.2922 40.8563 45.1875 40.8563H45.183C44.9349 40.8561 44.7304 40.6569 44.7301 40.4153V40.411C44.7302 37.0904 47.1981 34.3328 50.4448 33.778Z" fill="url(#paint14_linear_1_2195)"/>
<path d="M40.7457 33.3102C41.4951 32.5608 42.7104 32.5608 43.4598 33.3102L45.1835 35.034C46.5348 36.3853 47.279 38.1819 47.2789 40.0929C47.279 41.1527 46.4195 42.012 45.3595 42.0119C44.2996 42.0119 43.4404 41.1525 43.4405 40.0925C43.4406 39.2069 43.0956 38.3743 42.4694 37.7481L40.7457 36.0243C39.9963 35.2749 39.9962 34.0598 40.7457 33.3102Z" fill="url(#paint15_linear_1_2195)"/>
<path d="M37.5977 27.705C36.8482 26.9555 35.633 26.9555 34.8836 27.705L33.1599 29.4287C31.8086 30.78 31.0644 32.5766 31.0646 34.4876C31.0644 35.5476 31.9239 36.4067 32.9839 36.4066C34.0438 36.4066 34.9031 35.5472 34.9029 34.4872C34.9028 33.6016 35.2478 32.769 35.874 32.1428L37.5977 30.4191C38.3471 29.6696 38.3473 28.4545 37.5977 27.705Z" fill="url(#paint16_linear_1_2195)"/>
<path d="M46.7615 52.2654L41.3265 57.8685C39.5954 59.6527 37.6835 61.2521 35.6217 62.6409V52.2616L40.945 46.7062C42.0142 45.5893 43.5753 45.2216 44.9682 45.6157C45.5856 45.7901 46.1704 46.1139 46.6636 46.5895C48.2648 48.1305 48.31 50.6704 46.7615 52.2654Z" fill="url(#paint17_linear_1_2195)"/>
<path d="M51.8438 50.0693L46.4088 55.6724C43.3157 58.8593 39.658 61.4447 35.6217 63.2972V54.351C37.1238 53.455 38.5105 52.3557 39.7403 51.072L44.9682 45.6157L46.0274 44.5101C47.5709 42.8988 50.1384 42.8461 51.7459 44.3934C53.3472 45.9344 53.3924 48.4743 51.8438 50.0693Z" fill="url(#paint18_linear_1_2195)"/>
<path d="M56.4934 42.8041C54.8857 41.2564 52.3181 41.3091 50.7747 42.921L44.4882 49.4828C42.0418 52.0376 38.9721 53.8593 35.6212 54.8078V63.4965C41.4737 61.7521 46.8377 58.5348 51.157 54.0833L56.5919 48.4801C58.1396 46.8853 58.0953 44.3447 56.4934 42.8041Z" fill="url(#paint19_linear_1_2195)"/>
<path d="M55.8563 48.325C55.8556 48.0228 55.8046 47.6946 55.7119 47.3675C54.2386 42.1686 47.8681 38.2577 40.2328 38.2577C32.5975 38.2577 26.227 42.1686 24.7537 47.3675C24.661 47.6946 24.61 48.023 24.6093 48.325H24.609V49.77C24.609 52.1011 25.1403 53.9909 25.7958 53.9909H54.6698C55.3252 53.9909 55.8566 52.1011 55.8566 49.77V48.325H55.8563Z" fill="url(#paint20_linear_1_2195)"/>
<path d="M43.8815 38.564C42.6761 38.3592 41.4556 38.2567 40.2329 38.2575C32.5975 38.2575 26.2271 42.1684 24.7538 47.3674C24.6611 47.6944 24.6101 48.0228 24.6094 48.325H24.6091V49.77C24.6091 52.1011 25.1405 53.9909 25.7959 53.9909H43.8815V38.564Z" fill="url(#paint21_linear_1_2195)"/>
<path d="M37.0353 47.3929C37.0347 47.041 36.9875 46.6586 36.9018 46.2778C35.5396 40.2235 29.6493 35.6693 22.5895 35.6693C15.5297 35.6693 9.63941 40.2236 8.27708 46.2779C8.19137 46.6587 8.14431 47.0411 8.14356 47.393H8.14331V49.0757C8.14331 51.7903 8.63461 53.991 9.2406 53.991H35.9383C36.5443 53.991 37.0355 51.7904 37.0355 49.0757V47.393H37.0353V47.3929Z" fill="url(#paint22_linear_1_2195)"/>
<path d="M8.27708 46.2779C8.19137 46.6587 8.14431 47.0411 8.14356 47.393H8.14331V49.0757C8.14331 51.7903 8.63461 53.991 9.2406 53.991H54.6698C55.3252 53.991 55.8566 52.1013 55.8566 49.7701V48.325H55.8563C55.8556 48.0228 55.8046 47.6945 55.7119 47.3674C55.5825 46.9136 55.4175 46.4708 55.2183 46.0431H8.33293C8.31354 46.1212 8.29493 46.1994 8.27708 46.2779Z" fill="url(#paint23_linear_1_2195)"/>
<path d="M61.7578 47.3088L56.3229 52.9119C49.7041 59.7333 40.6331 63.659 31.1085 63.823L20.9107 64H14.4495C7.08219 64 1.10986 58.0277 1.10986 50.6604C1.10986 49.462 1.45393 48.2889 2.10116 47.2804C2.7484 46.2718 3.67158 45.4703 4.761 44.9711L4.76163 44.9709C6.9225 43.9805 9.27165 43.4682 11.6487 43.4688C14.7854 43.4688 17.908 44.3604 20.6212 46.1149C24.7452 48.7809 29.5738 50.1589 34.4908 50.0747L36.9715 50.0319C39.0227 49.9963 40.7146 51.6039 40.7872 53.6366C44.1381 52.688 47.2078 50.8664 49.6542 48.3116L55.9407 41.7498C57.4841 40.1379 60.0517 40.0851 61.6594 41.6329C63.2613 43.1735 63.3054 45.714 61.7578 47.3088Z" fill="url(#paint24_linear_1_2195)"/>
<path d="M40.9612 53.5843C40.9031 53.6014 40.8455 53.6202 40.7872 53.6366C40.7866 53.619 40.785 53.6017 40.7841 53.5843H1.43213C2.76521 59.5449 8.08675 64 14.4495 64H20.9107L31.1085 63.823C40.3155 63.6644 49.0981 59.9904 55.652 53.5843H40.9612Z" fill="url(#paint25_linear_1_2195)"/>
<path d="M40.7869 53.6369C40.7144 51.6044 39.022 49.9958 36.9711 50.0313L34.4901 50.0742C29.5741 50.1593 24.7447 48.7804 20.6215 46.1144C15.8821 43.0499 9.89518 42.6184 4.76113 44.9714L4.27661 45.1935L14.2208 54.7994L19.2294 55.9801C24.1856 57.1486 29.2681 57.6951 34.3594 57.607L37.0375 57.5607C39.1088 57.5249 40.8245 55.8155 40.7887 53.7442L40.7869 53.6369Z" fill="url(#paint26_linear_1_2195)"/>
</g>
<defs>
<linearGradient id="paint0_linear_1_2195" x1="17.6192" y1="25.448" x2="26.893" y2="34.7219" gradientUnits="userSpaceOnUse">
<stop stop-color="#A2E62E"/>
<stop offset="0.123" stop-color="#97DE30"/>
<stop offset="0.34" stop-color="#79CB36"/>
<stop offset="0.623" stop-color="#4AAB3F"/>
<stop offset="0.961" stop-color="#09804C"/>
<stop offset="1" stop-color="#017B4E"/>
</linearGradient>
<linearGradient id="paint1_linear_1_2195" x1="25.4233" y1="33.2456" x2="28.9148" y2="36.9035" gradientUnits="userSpaceOnUse">
<stop stop-color="#017B4E" stop-opacity="0"/>
<stop offset="1" stop-color="#026841"/>
</linearGradient>
<linearGradient id="paint2_linear_1_2195" x1="27.226" y1="16.0168" x2="33.9098" y2="22.7005" gradientUnits="userSpaceOnUse">
<stop stop-color="#A2E62E"/>
<stop offset="0.123" stop-color="#97DE30"/>
<stop offset="0.34" stop-color="#79CB36"/>
<stop offset="0.623" stop-color="#4AAB3F"/>
<stop offset="0.961" stop-color="#09804C"/>
<stop offset="1" stop-color="#017B4E"/>
</linearGradient>
<linearGradient id="paint3_linear_1_2195" x1="28.0171" y1="-3.59292" x2="44.5335" y2="12.9235" gradientUnits="userSpaceOnUse">
<stop stop-color="#A2E62E"/>
<stop offset="0.123" stop-color="#97DE30"/>
<stop offset="0.34" stop-color="#79CB36"/>
<stop offset="0.623" stop-color="#4AAB3F"/>
<stop offset="0.961" stop-color="#09804C"/>
<stop offset="1" stop-color="#017B4E"/>
</linearGradient>
<linearGradient id="paint4_linear_1_2195" x1="46.5026" y1="12.1905" x2="38.8173" y2="9.62872" gradientUnits="userSpaceOnUse">
<stop stop-color="#017B4E" stop-opacity="0"/>
<stop offset="1" stop-color="#026841"/>
</linearGradient>
<linearGradient id="paint5_linear_1_2195" x1="43.0068" y1="9.72831" x2="34.1039" y2="18.6312" gradientUnits="userSpaceOnUse">
<stop stop-color="#017B4E" stop-opacity="0"/>
<stop offset="1" stop-color="#026841"/>
</linearGradient>
<linearGradient id="paint6_linear_1_2195" x1="51.4499" y1="1.28516" x2="39.7424" y2="12.9927" gradientUnits="userSpaceOnUse">
<stop stop-color="#017B4E" stop-opacity="0"/>
<stop offset="0.483" stop-color="#01754A" stop-opacity="0.483"/>
<stop offset="1" stop-color="#026841"/>
</linearGradient>
<linearGradient id="paint7_linear_1_2195" x1="26.9469" y1="25.6848" x2="35.0251" y2="25.6848" gradientUnits="userSpaceOnUse">
<stop stop-color="#A2E62E"/>
<stop offset="0.123" stop-color="#97DE30"/>
<stop offset="0.34" stop-color="#79CB36"/>
<stop offset="0.623" stop-color="#4AAB3F"/>
<stop offset="0.961" stop-color="#09804C"/>
<stop offset="1" stop-color="#017B4E"/>
</linearGradient>
<linearGradient id="paint8_linear_1_2195" x1="29.0722" y1="27.0609" x2="26.8553" y2="19.4478" gradientUnits="userSpaceOnUse">
<stop stop-color="#017B4E" stop-opacity="0"/>
<stop offset="1" stop-color="#026841"/>
</linearGradient>
<linearGradient id="paint9_linear_1_2195" x1="14.2319" y1="4.79697" x2="34.1165" y2="24.6815" gradientUnits="userSpaceOnUse">
<stop stop-color="#A2E62E"/>
<stop offset="0.123" stop-color="#97DE30"/>
<stop offset="0.34" stop-color="#79CB36"/>
<stop offset="0.623" stop-color="#4AAB3F"/>
<stop offset="0.961" stop-color="#09804C"/>
<stop offset="1" stop-color="#017B4E"/>
</linearGradient>
<linearGradient id="paint10_linear_1_2195" x1="24.6991" y1="6.57163" x2="15.1603" y2="16.1105" gradientUnits="userSpaceOnUse">
<stop stop-color="#017B4E" stop-opacity="0"/>
<stop offset="1" stop-color="#026841"/>
</linearGradient>
<linearGradient id="paint11_linear_1_2195" x1="22.814" y1="13.4143" x2="33.0269" y2="23.6273" gradientUnits="userSpaceOnUse">
<stop stop-color="#017B4E" stop-opacity="0"/>
<stop offset="1" stop-color="#026841"/>
</linearGradient>
<linearGradient id="paint12_linear_1_2195" x1="14.9095" y1="5.50983" x2="28.3398" y2="18.9401" gradientUnits="userSpaceOnUse">
<stop stop-color="#017B4E" stop-opacity="0"/>
<stop offset="0.483" stop-color="#01754A" stop-opacity="0.483"/>
<stop offset="1" stop-color="#026841"/>
</linearGradient>
<linearGradient id="paint13_linear_1_2195" x1="48.4176" y1="34.9873" x2="48.4176" y2="41.5928" gradientUnits="userSpaceOnUse">
<stop stop-color="#A2E62E"/>
<stop offset="0.123" stop-color="#97DE30"/>
<stop offset="0.34" stop-color="#79CB36"/>
<stop offset="0.623" stop-color="#4AAB3F"/>
<stop offset="0.961" stop-color="#09804C"/>
<stop offset="1" stop-color="#017B4E"/>
</linearGradient>
<linearGradient id="paint14_linear_1_2195" x1="48.7748" y1="37.3172" x2="45.9477" y2="37.3172" gradientUnits="userSpaceOnUse">
<stop stop-color="#017B4E" stop-opacity="0"/>
<stop offset="0.483" stop-color="#01754A" stop-opacity="0.483"/>
<stop offset="1" stop-color="#026841"/>
</linearGradient>
<linearGradient id="paint15_linear_1_2195" x1="46.1552" y1="35.0359" x2="42.3487" y2="38.7169" gradientUnits="userSpaceOnUse">
<stop stop-color="#A2E62E"/>
<stop offset="0.172" stop-color="#8CD732"/>
<stop offset="0.531" stop-color="#53B23D"/>
<stop offset="1" stop-color="#017B4E"/>
</linearGradient>
<linearGradient id="paint16_linear_1_2195" x1="32.1881" y1="29.4306" x2="35.9947" y2="33.1117" gradientUnits="userSpaceOnUse">
<stop stop-color="#A2E62E"/>
<stop offset="0.172" stop-color="#8CD732"/>
<stop offset="0.531" stop-color="#53B23D"/>
<stop offset="1" stop-color="#017B4E"/>
</linearGradient>
<linearGradient id="paint17_linear_1_2195" x1="37.4242" y1="49.2733" x2="40.0178" y2="52.9545" gradientUnits="userSpaceOnUse">
<stop stop-color="#FFEEE6"/>
<stop offset="1" stop-color="#FFB09E"/>
</linearGradient>
<linearGradient id="paint18_linear_1_2195" x1="40.137" y1="48.747" x2="42.7302" y2="52.4278" gradientUnits="userSpaceOnUse">
<stop stop-color="#FFEEE6"/>
<stop offset="1" stop-color="#FFB09E"/>
</linearGradient>
<linearGradient id="paint19_linear_1_2195" x1="42.8769" y1="48.5721" x2="45.4704" y2="52.2531" gradientUnits="userSpaceOnUse">
<stop stop-color="#FFEEE6"/>
<stop offset="1" stop-color="#FFB09E"/>
</linearGradient>
<linearGradient id="paint20_linear_1_2195" x1="40.2329" y1="41.1337" x2="40.2329" y2="59.1239" gradientUnits="userSpaceOnUse">
<stop stop-color="#C5715A"/>
<stop offset="1" stop-color="#883F2E"/>
</linearGradient>
<linearGradient id="paint21_linear_1_2195" x1="41.0493" y1="45.798" x2="30.6147" y2="49.6285" gradientUnits="userSpaceOnUse">
<stop stop-color="#883F2E" stop-opacity="0"/>
<stop offset="1" stop-color="#6D3326"/>
</linearGradient>
<linearGradient id="paint22_linear_1_2195" x1="22.5895" y1="39.0185" x2="22.5895" y2="59.9684" gradientUnits="userSpaceOnUse">
<stop stop-color="#C5715A"/>
<stop offset="1" stop-color="#883F2E"/>
</linearGradient>
<linearGradient id="paint23_linear_1_2195" x1="32" y1="49.6405" x2="32" y2="54.2449" gradientUnits="userSpaceOnUse">
<stop stop-color="#883F2E" stop-opacity="0"/>
<stop offset="1" stop-color="#6D3326"/>
</linearGradient>
<linearGradient id="paint24_linear_1_2195" x1="27.5232" y1="34.4886" x2="37.0604" y2="63.9788" gradientUnits="userSpaceOnUse">
<stop stop-color="#FFEEE6"/>
<stop offset="1" stop-color="#FFB09E"/>
</linearGradient>
<linearGradient id="paint25_linear_1_2195" x1="28.5422" y1="55.8849" x2="28.5422" y2="63.2213" gradientUnits="userSpaceOnUse">
<stop stop-color="#FFB09E" stop-opacity="0"/>
<stop offset="1" stop-color="#EC806B"/>
</linearGradient>
<linearGradient id="paint26_linear_1_2195" x1="23.4701" y1="51.6005" x2="27.5203" y2="62.2441" gradientUnits="userSpaceOnUse">
<stop stop-color="#FFDECF" stop-opacity="0"/>
<stop offset="1" stop-color="white"/>
</linearGradient>
<clipPath id="clip0_1_2195">
<rect width="64" height="64" fill="white"/>
</clipPath>
</defs>
</svg>
