<svg width="64" height="64" viewBox="0 0 64 64" fill="none" xmlns="http://www.w3.org/2000/svg">
<g clip-path="url(#clip0_74_1370)">
<path d="M19.2764 39.0169L18.5217 37.8675L18.8991 38.4423L18.5212 37.8679C18.5531 37.8469 21.6757 35.7281 20.9134 34.0998C19.9622 32.068 18.4891 30.8903 18.4744 30.8785L19.3229 29.7966C19.3932 29.8516 21.0621 31.1745 22.1587 33.5168C23.436 36.245 19.4467 38.9049 19.2764 39.0169Z" fill="url(#paint0_linear_74_1370)"/>
<path d="M19.2764 39.0169L18.5217 37.8675L18.8991 38.4423L18.5212 37.8679C18.5531 37.8469 21.6757 35.7281 20.9134 34.0998C19.9622 32.068 18.4891 30.8903 18.4744 30.8785L19.3229 29.7966C19.3932 29.8516 21.0621 31.1745 22.1587 33.5168C23.436 36.245 19.4467 38.9049 19.2764 39.0169Z" fill="url(#paint1_linear_74_1370)"/>
<path d="M31.0157 39.9614C30.0642 38.3755 28.5646 37.0989 20.7675 38.8705C18.3014 39.4307 16.332 39.1087 14.9129 37.914C12.5045 35.8861 12.6726 32.1232 12.6811 31.964L14.0542 32.0346C14.0526 32.067 13.9177 35.2839 15.8031 36.8659C16.8746 37.7654 18.4422 37.9886 20.4627 37.5296C24.2027 36.6799 26.8026 36.4469 28.644 36.7956C30.7199 37.189 31.632 38.316 32.1946 39.2537L31.0157 39.9614Z" fill="url(#paint2_linear_74_1370)"/>
<path d="M19.6392 37.6814C18.0127 37.9113 16.7241 37.6393 15.8031 36.8661C13.9177 35.2841 14.0526 32.0671 14.0542 32.0349L12.6811 31.9643C12.6727 32.1234 12.5046 35.8864 14.9129 37.9143C16.1081 38.9206 17.6952 39.3053 19.6392 39.0675V37.6814Z" fill="url(#paint3_linear_74_1370)"/>
<path d="M31.0739 36.9025C23.2849 33.2227 22.3519 27.3375 22.316 27.0889L23.6765 26.8899C23.6786 26.9032 23.8937 28.258 24.9792 30.005C25.9811 31.6176 27.9536 33.9076 31.6614 35.6592L31.0739 36.9025Z" fill="url(#paint4_linear_74_1370)"/>
<path d="M31.0739 36.9025C23.2849 33.2227 22.3519 27.3375 22.316 27.0889L23.6765 26.8899C23.6786 26.9032 23.8937 28.258 24.9792 30.005C25.9811 31.6176 27.9536 33.9076 31.6614 35.6592L31.0739 36.9025Z" fill="url(#paint5_linear_74_1370)"/>
<path d="M46.8715 44.2644C45.6155 44.2644 44.6394 43.9347 43.9415 43.5679C42.6014 42.863 41.9664 41.8641 41.94 41.8219L43.1058 41.0929L42.5229 41.4574L43.1035 41.0892C43.1826 41.2121 45.09 44.0762 49.6139 42.3257C54.137 40.5752 53.2658 36.1347 53.2264 35.9465L54.5711 35.6594C54.5839 35.7184 54.8773 37.1231 54.4804 38.7967C54.1086 40.3639 53.0489 42.4707 50.1101 43.608C48.8781 44.0847 47.7986 44.2644 46.8715 44.2644Z" fill="url(#paint6_linear_74_1370)"/>
<path d="M53.2264 35.9464C53.2657 36.1346 54.1369 40.5751 49.6139 42.3256C49.49 42.3736 49.3689 42.4166 49.2489 42.4577V43.9007C49.54 43.8151 49.8274 43.7174 50.1103 43.6077C53.049 42.4704 54.1088 40.3636 54.4805 38.7965C54.8774 37.1229 54.5839 35.7181 54.5713 35.6591L53.2264 35.9464Z" fill="url(#paint7_linear_74_1370)"/>
<path d="M33.1643 43.2866L31.9465 42.6483C32.7518 41.1085 35.0085 38.5513 37.786 39.8963C40.6649 41.2903 42.5243 41.5965 44.1034 39.2265L45.2477 39.989C43.0127 43.3436 40.0527 42.5216 37.1867 41.1339C34.9148 40.0336 33.2347 43.1534 33.1643 43.2866Z" fill="url(#paint8_linear_74_1370)"/>
<path d="M39.4175 40.596V42.0344C41.5369 42.6663 43.5914 42.4749 45.2476 39.9889L44.1034 39.2264C42.8446 41.1158 41.407 41.3034 39.4175 40.596Z" fill="url(#paint9_linear_74_1370)"/>
<path d="M33.0581 38.1165L32.0526 37.1787C32.1611 37.0621 34.757 34.3119 38.8371 33.1471L39.2146 34.4694C35.5151 35.5254 33.0822 38.0906 33.0581 38.1165Z" fill="url(#paint10_linear_74_1370)"/>
<path d="M33.0581 38.1165L32.0526 37.1787C32.1611 37.0621 34.757 34.3119 38.8371 33.1471L39.2146 34.4694C35.5151 35.5254 33.0822 38.0906 33.0581 38.1165Z" fill="url(#paint11_linear_74_1370)"/>
<path d="M22.5905 16.786C21.0899 15.5401 19.1794 14.9944 17.2099 15.2487C17.0946 15.2637 16.9771 15.2817 16.8629 15.3019C15.0323 15.6246 13.4218 16.5929 12.3268 18.0276C12.1316 18.2836 11.9543 18.5527 11.7961 18.8331C11.5516 18.6237 11.293 18.4314 11.022 18.2576C9.50239 17.2839 7.65789 16.9249 5.82726 17.2476C5.71201 17.2679 5.59723 17.2908 5.48301 17.3164C3.54526 17.751 1.93664 18.9171 0.952639 20.6012C-0.109361 22.4205 -0.292736 24.5879 0.449639 26.5481C1.40476 29.0721 3.58264 31.2759 6.92226 33.098C9.48901 34.4981 12.0923 35.3102 13.4153 35.6701C13.8533 35.7885 14.3234 35.8101 14.7756 35.7304C15.2279 35.6506 15.6623 35.4695 16.0334 35.2085C17.1535 34.4179 19.322 32.7644 21.2551 30.5707C23.7703 27.7162 25.063 24.9005 25.0973 22.2021C25.1243 20.1062 24.2108 18.1324 22.5905 16.786Z" fill="url(#paint12_linear_74_1370)"/>
<path d="M11.022 18.2576C9.50239 17.2839 7.65789 16.9249 5.82726 17.2477C5.71201 17.268 5.59723 17.291 5.48301 17.3165C3.54526 17.7511 1.93664 18.9172 0.952639 20.6014C-0.109361 22.4206 -0.292736 24.588 0.449639 26.5482C1.02164 28.06 2.03289 29.4566 3.46914 30.7255L11.7963 18.8331C11.5517 18.6237 11.293 18.4314 11.022 18.2576Z" fill="url(#paint13_linear_74_1370)"/>
<path d="M17.2099 15.2488C17.0946 15.2638 16.9771 15.2818 16.8629 15.3019C15.0323 15.6246 13.4218 16.5929 12.3268 18.0276C12.1317 18.2835 11.9545 18.5524 11.7964 18.8326L14.7759 35.7304C15.228 35.6502 15.6572 35.472 16.0333 35.2085C17.1534 34.4179 19.3219 32.7644 21.255 30.5708C23.7701 27.7163 25.0629 24.9005 25.0971 22.2021C25.1241 20.1061 24.2106 18.1323 22.5905 16.786C21.0899 15.54 19.1794 14.9944 17.2099 15.2488Z" fill="url(#paint14_linear_74_1370)"/>
<path d="M0.449522 26.5483C1.40465 29.0723 3.58252 31.276 6.92215 33.0981C9.4889 34.4983 12.0921 35.3104 13.4151 35.6703C13.8531 35.7886 14.3233 35.8103 14.7755 35.7305C15.2278 35.6508 15.6621 35.4696 16.0333 35.2086C17.1534 34.418 19.3219 32.7645 21.255 30.5709C23.7701 27.7164 25.0629 24.9006 25.0971 22.2023C25.1059 21.5516 25.0228 20.9029 24.8503 20.2754L0.022522 24.6531C0.0750058 25.3018 0.218756 25.9398 0.449522 26.5483Z" fill="url(#paint15_linear_74_1370)"/>
<path d="M25.0971 22.2021C25.0629 24.9005 23.7701 27.7164 21.255 30.5707C19.3219 32.7642 17.1534 34.4177 16.0333 35.2085C15.6622 35.4696 15.2278 35.6506 14.7755 35.7304C14.3233 35.8101 13.8531 35.7885 13.4151 35.6701C12.0921 35.3102 9.4889 34.4981 6.92215 33.098C3.58252 31.2759 1.40465 29.0721 0.449525 26.5481C0.218766 25.9396 0.0749751 25.3016 0.0223999 24.653L24.8503 20.2751C25.0228 20.9026 25.106 21.5514 25.0971 22.2021Z" fill="url(#paint16_linear_74_1370)"/>
<path d="M3.51675 24.1723C2.486 24.4213 1.85225 25.4586 2.10125 26.4894C2.1253 26.589 2.18792 26.6749 2.27534 26.7283C2.36275 26.7817 2.4678 26.7982 2.56737 26.7741C3.59812 26.5251 4.23187 25.4878 3.98287 24.457C3.95881 24.3574 3.89619 24.2715 3.80878 24.2181C3.72136 24.1647 3.61632 24.1482 3.51675 24.1723Z" fill="url(#paint17_linear_74_1370)"/>
<path d="M8.15438 28.4218C7.7285 27.4506 6.596 27.0088 5.62488 27.4348C5.57842 27.4551 5.53644 27.4844 5.50132 27.521C5.4662 27.5576 5.43864 27.6007 5.4202 27.648C5.40177 27.6952 5.39282 27.7457 5.39388 27.7964C5.39494 27.8471 5.40598 27.8971 5.42638 27.9435C5.85225 28.9146 6.98475 29.3565 7.95588 28.9305C8.04965 28.8893 8.12323 28.8126 8.16045 28.7172C8.19768 28.6218 8.19549 28.5155 8.15438 28.4218Z" fill="url(#paint18_linear_74_1370)"/>
<path d="M17.2201 21.3076C16.1894 21.5566 15.5556 22.594 15.8046 23.6247C15.8287 23.7243 15.8913 23.8102 15.9787 23.8636C16.0661 23.917 16.1712 23.9335 16.2707 23.9095C17.3015 23.6605 17.9352 22.6231 17.6862 21.5924C17.6622 21.4928 17.5996 21.4069 17.5121 21.3535C17.4247 21.3001 17.3197 21.2836 17.2201 21.3076Z" fill="url(#paint19_linear_74_1370)"/>
<path d="M11.5914 22.6645C10.7782 23.3449 10.6704 24.5557 11.3508 25.3691C11.3833 25.408 11.4232 25.4401 11.4682 25.4636C11.5131 25.4871 11.5622 25.5015 11.6128 25.506C11.6633 25.5105 11.7142 25.505 11.7626 25.4898C11.811 25.4746 11.8559 25.45 11.8948 25.4175C12.708 24.7371 12.8158 23.5262 12.1354 22.7129C12.0697 22.6343 11.9754 22.5851 11.8734 22.576C11.7714 22.567 11.67 22.5988 11.5914 22.6645Z" fill="url(#paint20_linear_74_1370)"/>
<path d="M15.3551 28.517C14.5419 29.1974 14.4341 30.4082 15.1145 31.2216C15.1471 31.2605 15.1869 31.2926 15.2319 31.3161C15.2768 31.3396 15.326 31.354 15.3765 31.3585C15.427 31.363 15.4779 31.3575 15.5263 31.3423C15.5747 31.3271 15.6196 31.3025 15.6585 31.27C16.4718 30.5896 16.5795 29.3787 15.8991 28.5654C15.8666 28.5265 15.8267 28.4944 15.7818 28.4709C15.7368 28.4474 15.6877 28.433 15.6372 28.4285C15.5866 28.424 15.5357 28.4295 15.4873 28.4447C15.439 28.4599 15.394 28.4844 15.3551 28.517Z" fill="url(#paint21_linear_74_1370)"/>
<path d="M22.2342 26.843C21.2762 26.3885 20.1311 26.7966 19.6766 27.7546C19.6327 27.8472 19.6274 27.9534 19.6618 28.0498C19.6962 28.1463 19.7675 28.2252 19.86 28.2691C20.818 28.7236 21.9631 28.3155 22.4176 27.3575C22.4615 27.265 22.4669 27.1588 22.4325 27.0623C22.3981 26.9658 22.3268 26.8869 22.2342 26.843Z" fill="url(#paint22_linear_74_1370)"/>
<path d="M11.159 30.5238C10.201 30.0693 9.05586 30.4774 8.60136 31.4354C8.55746 31.5279 8.55212 31.6341 8.58651 31.7306C8.62089 31.8271 8.6922 31.906 8.78474 31.9499C9.74274 32.4044 10.8879 31.9963 11.3424 31.0383C11.3863 30.9457 11.3916 30.8395 11.3572 30.743C11.3228 30.6465 11.2515 30.5677 11.159 30.5238Z" fill="url(#paint23_linear_74_1370)"/>
<path d="M21.1756 25.9819C21.2754 25.9587 21.3619 25.8968 21.416 25.8099C21.4702 25.723 21.4876 25.6181 21.4645 25.5184C21.2249 24.4854 20.1933 23.8424 19.1603 24.082C19.0605 24.1052 18.974 24.167 18.9198 24.2539C18.8657 24.3408 18.8482 24.4457 18.8714 24.5455C19.111 25.5784 20.1426 26.2215 21.1756 25.9819Z" fill="url(#paint24_linear_74_1370)"/>
<path d="M19.3154 18.4001C19.4152 18.3769 19.5016 18.3151 19.5558 18.2282C19.61 18.1413 19.6274 18.0364 19.6043 17.9366C19.3646 16.9036 18.333 16.2606 17.3 16.5002C17.2003 16.5234 17.1138 16.5853 17.0596 16.6722C17.0054 16.7591 16.988 16.864 17.0111 16.9637C17.2509 17.9966 18.2825 18.6397 19.3154 18.4001Z" fill="url(#paint25_linear_74_1370)"/>
<path d="M7.86948 21.4192C7.96924 21.3961 8.05571 21.3342 8.10988 21.2473C8.16406 21.1604 8.18149 21.0555 8.15835 20.9557C7.91873 19.9227 6.8871 19.2797 5.8541 19.5194C5.75434 19.5425 5.66786 19.6044 5.61369 19.6913C5.55952 19.7782 5.54209 19.8831 5.56523 19.9829C5.80498 21.0159 6.8366 21.6589 7.86948 21.4192Z" fill="url(#paint26_linear_74_1370)"/>
<path d="M33.5938 37.7813V29.38H30.4063V37.7813C30.4063 41.416 29.2204 44.9515 27.0285 47.851H36.9715C34.7797 44.9515 33.5938 41.416 33.5938 37.7813Z" fill="url(#paint27_linear_74_1370)"/>
<path d="M30.4063 29.38V37.7813C30.4063 38.3138 30.3778 38.8435 30.3274 39.37H33.6726C33.6211 38.842 33.5948 38.3118 33.5938 37.7813V29.38H30.4063Z" fill="url(#paint28_linear_74_1370)"/>
<path d="M36.9712 47.8512H27.0287C28.8931 45.3843 30.0359 42.4482 30.33 39.37H33.67C33.7912 40.6412 34.0575 41.89 34.4612 43.0925C35.0312 44.7925 35.875 46.4012 36.9712 47.8512Z" fill="url(#paint29_linear_74_1370)"/>
<path d="M42.4641 47.8695L40.4565 61.0409L40.2734 62.243C40.2016 62.7135 39.9653 63.1433 39.6065 63.456C39.2477 63.7687 38.7896 63.944 38.3138 63.9509C34.1049 64.0163 29.8952 64.0163 25.6863 63.9509C25.2104 63.944 24.7523 63.7687 24.3935 63.456C24.0348 63.1433 23.7985 62.7135 23.7266 62.243L23.5435 61.0409L21.5359 47.8695H42.4641Z" fill="url(#paint30_linear_74_1370)"/>
<path d="M35.5166 63.9835C36.4491 63.9754 37.3815 63.9654 38.3138 63.9509C38.7896 63.944 39.2477 63.7687 39.6065 63.456C39.9653 63.1433 40.2016 62.7135 40.2734 62.243L40.4565 61.0409L42.4641 47.8695H21.5359L21.9195 50.3864L35.5166 63.9835Z" fill="url(#paint31_linear_74_1370)"/>
<path d="M30.7303 63.9951C33.2582 64.004 35.7861 63.9893 38.3137 63.951C38.7896 63.9442 39.2476 63.7688 39.6064 63.4561C39.9652 63.1434 40.2015 62.7136 40.2733 62.2431L40.4565 61.041L42.4641 47.8696H30.7303V63.9951Z" fill="url(#paint32_linear_74_1370)"/>
<path d="M19.5757 46.8945V48.7336C19.5757 49.6324 20.297 50.3662 21.1957 50.3794C28.3982 50.4852 35.6018 50.4852 42.8042 50.3794C43.7029 50.3661 44.4242 49.6324 44.4242 48.7336V46.8946C44.4242 45.9751 43.6706 45.2355 42.7512 45.2504C35.5845 45.3656 28.4156 45.3656 21.2489 45.2503C20.3295 45.2354 19.5757 45.975 19.5757 46.8945Z" fill="url(#paint33_linear_74_1370)"/>
<path d="M19.5757 46.8945V48.7336C19.5757 49.6324 20.297 50.3663 21.1957 50.3794C28.3982 50.4853 35.6018 50.4853 42.8042 50.3794C43.7029 50.3661 44.4242 49.6324 44.4242 48.7336V46.8946C44.4242 46.8229 44.4181 46.7528 44.4092 46.6835H19.5907C19.5812 46.7534 19.5762 46.8239 19.5757 46.8945Z" fill="url(#paint34_linear_74_1370)"/>
<path d="M42.7511 45.2502C40.1763 45.2916 37.6011 45.3176 35.0259 45.3292V50.452C37.6189 50.4414 40.2118 50.4175 42.8041 50.3794C43.7028 50.3661 44.4241 49.6324 44.4241 48.7336V46.8946C44.4243 45.9751 43.6705 45.2355 42.7511 45.2502Z" fill="url(#paint35_linear_74_1370)"/>
<path d="M22.9424 57.0974L23.5435 61.041L23.7266 62.2431C23.7984 62.7136 24.0347 63.1434 24.3935 63.4561C24.7523 63.7688 25.2104 63.9442 25.6863 63.951C29.8944 64.0164 34.1058 64.0164 38.3138 63.951C38.7896 63.9442 39.2477 63.7688 39.6065 63.4561C39.9653 63.1434 40.2016 62.7136 40.2734 62.2431L40.4565 61.041L41.0576 57.0974H22.9424Z" fill="url(#paint36_linear_74_1370)"/>
<path d="M50.2969 4.09075C48.1959 1.61313 45.2202 0.165625 41.9162 0.0132501C41.7214 0.00439875 41.5266 -1.90609e-05 41.3317 6.18126e-08C38.2358 6.18126e-08 35.3143 1.12225 33.1033 3.15887C32.7091 3.52227 32.3405 3.91244 32 4.32662C31.6596 3.91244 31.291 3.52227 30.8968 3.15887C28.6859 1.12225 25.7643 6.18126e-08 22.6684 6.18126e-08C22.475 6.18126e-08 22.2773 0.00437506 22.0838 0.0132501C18.7799 0.165625 15.8042 1.61325 13.703 4.09075C11.435 6.7675 10.5077 10.2692 11.1582 13.6993C11.9948 18.1152 14.9295 22.3598 19.8803 26.3143C23.6853 29.353 27.7203 31.4379 29.7862 32.4108C30.4794 32.7343 31.235 32.9023 32 32.903C32.7651 32.9023 33.5207 32.7343 34.2139 32.4108C36.2798 31.4379 40.3148 29.353 44.1198 26.3143C49.0705 22.3598 52.0053 18.1152 52.8419 13.6993C53.4924 10.2692 52.565 6.7675 50.2969 4.09075Z" fill="url(#paint37_linear_74_1370)"/>
<path d="M30.8968 3.15887C28.6859 1.12225 25.7644 0 22.6684 0C22.475 0 22.2773 0.004375 22.0838 0.01325C18.7799 0.165625 15.8042 1.61325 13.7032 4.09075C11.435 6.7675 10.5077 10.2692 11.1582 13.6993C11.6593 16.3441 12.9138 18.9275 14.9027 21.424L32 4.3265C31.6596 3.91236 31.291 3.52222 30.8968 3.15887Z" fill="url(#paint38_linear_74_1370)"/>
<path d="M41.9162 0.01325C41.7227 0.004375 41.525 0 41.3316 0C38.2357 0 35.3142 1.12225 33.1032 3.15887C32.7093 3.52205 32.3409 3.91197 32.0006 4.32587V32.903C32.7654 32.9022 33.5208 32.7342 34.2139 32.4108C36.2797 31.4379 40.3147 29.353 44.1197 26.3143C49.0705 22.3598 52.0052 18.1152 52.8419 13.6993C53.4924 10.2694 52.565 6.76763 50.2969 4.09075C48.1959 1.61313 45.2201 0.1655 41.9162 0.01325Z" fill="url(#paint39_linear_74_1370)"/>
<path d="M11.1582 13.6992C11.9948 18.1152 14.9295 22.3597 19.8803 26.3142C23.6853 29.353 27.7203 31.4379 29.7862 32.4108C30.4704 32.7316 31.2352 32.903 32 32.903C32.7649 32.903 33.5297 32.7316 34.2139 32.4108C36.2798 31.4379 40.3148 29.353 44.1198 26.3142C49.0705 22.3597 52.0053 18.1152 52.8419 13.6992C53.0444 12.6345 53.0957 11.5466 52.9943 10.4675H11.0058C10.9043 11.5466 10.9556 12.6345 11.1582 13.6992Z" fill="url(#paint40_linear_74_1370)"/>
<path d="M52.8419 13.6992C52.0053 18.1152 49.0705 22.3597 44.1198 26.3142C40.3148 29.353 36.2798 31.4379 34.2139 32.4108C33.5297 32.7316 32.7649 32.903 32 32.903C31.2352 32.903 30.4704 32.7316 29.7862 32.4108C27.7203 31.4379 23.6853 29.353 19.8803 26.3142C14.9295 22.3597 11.9948 18.1152 11.1582 13.6992C10.9556 12.6345 10.9043 11.5466 11.0058 10.4675H52.9943C53.0957 11.5466 53.0444 12.6345 52.8419 13.6992Z" fill="url(#paint41_linear_74_1370)"/>
<path d="M16.876 10.6892C15.1134 10.7995 13.7739 12.3177 13.8842 14.0804C13.8894 14.1647 13.9112 14.2471 13.9484 14.323C13.9855 14.3989 14.0372 14.4667 14.1006 14.5225C14.1639 14.5784 14.2376 14.6213 14.3176 14.6487C14.3975 14.676 14.482 14.6874 14.5663 14.6821C16.3289 14.5719 17.6684 13.0536 17.5582 11.291C17.5529 11.2067 17.5311 11.1243 17.4939 11.0484C17.4568 10.9725 17.4051 10.9047 17.3417 10.8488C17.2784 10.793 17.2047 10.7501 17.1248 10.7227C17.0448 10.6953 16.9603 10.684 16.876 10.6892Z" fill="url(#paint42_linear_74_1370)"/>
<path d="M23.2538 19.0005C22.836 17.2846 21.1063 16.2322 19.3904 16.65C19.3083 16.67 19.231 16.7059 19.1628 16.7558C19.0946 16.8057 19.0369 16.8685 18.993 16.9406C18.9491 17.0128 18.9199 17.0929 18.9069 17.1764C18.894 17.2598 18.8976 17.3451 18.9176 17.4271C19.3354 19.143 21.0651 20.1954 22.781 19.7776C22.9467 19.7372 23.0897 19.6327 23.1783 19.487C23.267 19.3412 23.2941 19.1662 23.2538 19.0005Z" fill="url(#paint43_linear_74_1370)"/>
<path d="M40.1808 9.95386C38.4182 10.0641 37.0787 11.5824 37.1889 13.345C37.1942 13.4293 37.216 13.5117 37.2531 13.5876C37.2903 13.6635 37.342 13.7313 37.4053 13.7872C37.4687 13.843 37.5424 13.8859 37.6223 13.9133C37.7022 13.9407 37.7867 13.952 37.871 13.9467C39.6337 13.8365 40.9732 12.3182 40.8629 10.5556C40.8522 10.3854 40.7744 10.2263 40.6465 10.1135C40.5185 10.0006 40.351 9.94322 40.1808 9.95386Z" fill="url(#paint44_linear_74_1370)"/>
<path d="M30.556 10.5515C29.0252 11.4322 28.4984 13.3872 29.3791 14.9179C29.4642 15.0657 29.6045 15.1737 29.7692 15.2181C29.9339 15.2625 30.1095 15.2397 30.2574 15.1546C31.7881 14.2739 32.315 12.3189 31.4342 10.7882C31.3921 10.715 31.336 10.6508 31.2691 10.5993C31.2021 10.5478 31.1257 10.5099 31.0441 10.488C30.9626 10.466 30.8775 10.4603 30.7937 10.4712C30.71 10.4821 30.6292 10.5094 30.556 10.5515Z" fill="url(#paint45_linear_74_1370)"/>
<path d="M35.0368 21.2391C33.506 22.1199 32.9791 24.0749 33.8599 25.6055C33.945 25.7534 34.0853 25.8614 34.25 25.9058C34.4147 25.9501 34.5903 25.9273 34.7381 25.8423C36.2689 24.9615 36.7958 23.0065 35.915 21.4759C35.8299 21.328 35.6896 21.22 35.5249 21.1756C35.3602 21.1312 35.1846 21.1541 35.0368 21.2391Z" fill="url(#paint46_linear_74_1370)"/>
<path d="M46.8039 20.483C45.364 19.4604 43.3677 19.7986 42.3452 21.2385C42.2465 21.3776 42.207 21.5502 42.2355 21.7184C42.264 21.8866 42.3581 22.0366 42.4972 22.1354C43.9371 23.158 45.9334 22.8198 46.9559 21.3799C47.0546 21.2408 47.0941 21.0682 47.0656 20.9C47.0371 20.7318 46.9429 20.5818 46.8039 20.483Z" fill="url(#paint47_linear_74_1370)"/>
<path d="M27.5739 23.3171C26.134 22.2945 24.1377 22.6328 23.1152 24.0726C23.0165 24.2117 22.977 24.3844 23.0055 24.5526C23.034 24.7208 23.1282 24.8707 23.2672 24.9695C24.7071 25.9921 26.7034 25.6539 27.7259 24.214C27.8246 24.0749 27.8641 23.9023 27.8356 23.7341C27.8071 23.5659 27.713 23.4159 27.5739 23.3171Z" fill="url(#paint48_linear_74_1370)"/>
<path d="M45.3165 18.7644C45.4869 18.7553 45.6466 18.6789 45.7606 18.552C45.8747 18.4251 45.9336 18.2581 45.9245 18.0878C45.8303 16.3243 44.3241 14.971 42.5606 15.0654C42.3903 15.0745 42.2305 15.1509 42.1165 15.2778C42.0025 15.4047 41.9435 15.5717 41.9526 15.742C42.047 17.5055 43.553 18.8588 45.3165 18.7644Z" fill="url(#paint49_linear_74_1370)"/>
<path d="M44.4582 5.79099C44.6286 5.78189 44.7883 5.70549 44.9024 5.5786C45.0164 5.4517 45.0753 5.28472 45.0662 5.11437C44.972 3.35087 43.4659 1.99762 41.7024 2.09199C41.532 2.1011 41.3723 2.1775 41.2582 2.30439C41.1442 2.43128 41.0853 2.59827 41.0944 2.76862C41.1886 4.53212 42.6947 5.88524 44.4582 5.79099Z" fill="url(#paint50_linear_74_1370)"/>
<path d="M24.8116 7.43275C24.982 7.42364 25.1417 7.34724 25.2558 7.22035C25.3698 7.09346 25.4287 6.92647 25.4196 6.75612C25.3254 4.99262 23.8193 3.63937 22.0558 3.73375C21.8854 3.74285 21.7256 3.81925 21.6116 3.94614C21.4976 4.07303 21.4387 4.24002 21.4478 4.41037C21.542 6.17387 23.0481 7.52712 24.8116 7.43275Z" fill="url(#paint51_linear_74_1370)"/>
<path d="M63.163 23.0604C62.1219 20.8576 60.247 19.2314 57.8831 18.4796C57.7437 18.4355 57.6034 18.3945 57.4621 18.3566C55.2192 17.7556 52.885 18.0016 50.8879 19.0479C50.5317 19.2346 50.189 19.4457 49.862 19.6796C49.6958 19.3135 49.5044 18.9593 49.2894 18.6195C48.083 16.7149 46.1844 15.3348 43.9415 14.7338C43.8003 14.6959 43.6582 14.6613 43.5154 14.6299C41.0922 14.0989 38.6555 14.57 36.6525 15.957C34.4897 17.456 33.1381 19.8128 32.9436 22.4239C32.6925 25.7855 33.9946 29.4301 36.8136 33.2559C38.9802 36.1959 41.4987 38.4896 42.8065 39.5954C43.2399 39.9606 43.7607 40.2333 44.3147 40.3818C44.8687 40.5303 45.4561 40.5545 46.0141 40.4549C47.6996 40.1511 51.0275 39.424 54.3739 37.9611C58.7281 36.0574 61.6781 33.552 63.1414 30.5153C64.2786 28.1568 64.2865 25.4399 63.163 23.0604Z" fill="url(#paint52_linear_74_1370)"/>
<path d="M49.2894 18.6195C48.083 16.7149 46.1844 15.3348 43.9415 14.7338C43.8003 14.6959 43.6582 14.6613 43.5154 14.6299C41.0923 14.0989 38.6555 14.57 36.6525 15.957C34.4898 17.456 33.1381 19.8128 32.9436 22.4239C32.7933 24.4373 33.2006 26.5523 34.1568 28.7469L49.8619 19.6795C49.6957 19.3134 49.5045 18.9592 49.2894 18.6195Z" fill="url(#paint53_linear_74_1370)"/>
<path d="M57.8831 18.4796C57.7437 18.4355 57.6034 18.3944 57.4621 18.3566C55.2192 17.7556 52.885 18.0016 50.8879 19.0479C50.532 19.2345 50.1894 19.4455 49.8625 19.6792L44.3152 40.382C44.8695 40.5299 45.4494 40.5548 46.0142 40.455C47.6997 40.1513 51.0276 39.4241 54.374 37.9612C58.7282 36.0575 61.6782 33.5521 63.1415 30.5154C64.2786 28.1569 64.2864 25.44 63.163 23.0605C62.1217 20.8576 60.247 19.2314 57.8831 18.4796Z" fill="url(#paint54_linear_74_1370)"/>
<path d="M32.9437 22.4239C32.6926 25.7855 33.9947 29.4301 36.8137 33.2559C38.9804 36.1959 41.4989 38.4896 42.8066 39.5954C43.24 39.9606 43.7609 40.2333 44.3149 40.3818C44.8689 40.5303 45.4562 40.5545 46.0142 40.4549C47.6997 40.1511 51.0276 39.424 54.374 37.9611C58.7282 36.0574 61.6782 33.552 63.1415 30.5153C63.4949 29.7832 63.7432 29.0049 63.8792 28.2035L33.4606 20.0529C33.1777 20.815 33.0037 21.6132 32.9437 22.4239Z" fill="url(#paint55_linear_74_1370)"/>
<path d="M63.1415 30.5154C61.6782 33.5521 58.7282 36.0575 54.374 37.9613C51.0276 39.424 47.6996 40.1513 46.0142 40.455C45.4562 40.5546 44.8689 40.5304 44.3149 40.3819C43.7609 40.2334 43.24 39.9608 42.8066 39.5955C41.4989 38.4898 38.9804 36.196 36.8137 33.256C33.9947 29.4301 32.6926 25.7855 32.9437 22.424C33.0037 21.6133 33.1777 20.8152 33.4606 20.0531L63.8792 28.2038C63.7433 29.0052 63.4949 29.7834 63.1415 30.5154Z" fill="url(#paint56_linear_74_1370)"/>
<path d="M37.6704 21.3532C36.372 21.091 35.107 21.9309 34.8446 23.2292C34.8193 23.3547 34.8449 23.485 34.9156 23.5916C34.9864 23.6982 35.0966 23.7723 35.222 23.7976C36.5204 24.0599 37.7854 23.22 38.0477 21.9216C38.073 21.7962 38.0475 21.6659 37.9767 21.5593C37.906 21.4527 37.7958 21.3786 37.6704 21.3532Z" fill="url(#paint57_linear_74_1370)"/>
<path d="M40.6772 28.6122C40.7077 27.2881 39.6588 26.1899 38.3347 26.1595C38.2068 26.1566 38.083 26.2046 37.9905 26.2929C37.8979 26.3813 37.8443 26.5028 37.8413 26.6307C37.8108 27.955 38.8597 29.0531 40.1838 29.0835C40.3118 29.0864 40.4356 29.0384 40.5281 28.95C40.6206 28.8617 40.6743 28.7401 40.6772 28.6122Z" fill="url(#paint58_linear_74_1370)"/>
<path d="M54.6962 25.3444C53.3979 25.0821 52.1329 25.922 51.8705 27.2204C51.8452 27.3458 51.8707 27.4761 51.9415 27.5827C52.0123 27.6893 52.1225 27.7634 52.2479 27.7887C53.5462 28.051 54.8112 27.2111 55.0736 25.9127C55.0989 25.7873 55.0734 25.657 55.0026 25.5504C54.9319 25.4438 54.8217 25.3697 54.6962 25.3444Z" fill="url(#paint59_linear_74_1370)"/>
<path d="M47.6076 23.9089C46.3277 24.2499 45.5665 25.5638 45.9075 26.8438C45.9404 26.9674 46.0211 27.0729 46.1318 27.137C46.2426 27.2012 46.3742 27.2187 46.4978 27.1858C47.7777 26.8448 48.539 25.5309 48.198 24.2509C48.165 24.1273 48.0843 24.0218 47.9736 23.9577C47.8629 23.8936 47.7312 23.876 47.6076 23.9089Z" fill="url(#paint60_linear_74_1370)"/>
<path d="M48.779 32.5214C47.4991 32.8624 46.7379 34.1762 47.0789 35.4562C47.1118 35.5799 47.1925 35.6854 47.3032 35.7495C47.4139 35.8136 47.5456 35.8312 47.6692 35.7982C48.9491 35.4572 49.7104 34.1434 49.3694 32.8634C49.3364 32.7397 49.2557 32.6343 49.145 32.5701C49.0343 32.506 48.9026 32.4885 48.779 32.5214Z" fill="url(#paint61_linear_74_1370)"/>
<path d="M57.4505 34.2578C56.6059 33.2374 55.0941 33.095 54.0738 33.9395C53.9752 34.0211 53.9131 34.1385 53.9011 34.2659C53.8891 34.3933 53.9282 34.5202 54.0098 34.6188C54.8544 35.6391 56.3661 35.7815 57.3865 34.937C57.4851 34.8554 57.5472 34.738 57.5592 34.6106C57.5712 34.4833 57.5321 34.3563 57.4505 34.2578Z" fill="url(#paint62_linear_74_1370)"/>
<path d="M42.9691 32.5781C42.1245 31.5578 40.6128 31.4154 39.5924 32.2599C39.4938 32.3415 39.4317 32.4589 39.4197 32.5863C39.4077 32.7136 39.4468 32.8406 39.5284 32.9391C40.373 33.9595 41.8848 34.1019 42.9051 33.2574C43.0037 33.1758 43.0658 33.0584 43.0778 32.931C43.0898 32.8036 43.0507 32.6767 42.9691 32.5781Z" fill="url(#paint63_linear_74_1370)"/>
<path d="M56.7066 32.724C56.8318 32.7504 56.9623 32.7261 57.0696 32.6563C57.1768 32.5865 57.2519 32.4769 57.2784 32.3518C57.5524 31.0559 56.724 29.7833 55.4281 29.5091C55.3029 29.4827 55.1724 29.5071 55.0652 29.5769C54.9579 29.6467 54.8828 29.7562 54.8564 29.8814C54.5822 31.1774 55.4106 32.45 56.7066 32.724Z" fill="url(#paint64_linear_74_1370)"/>
<path d="M58.6031 23.1589C58.7283 23.1853 58.8589 23.161 58.9661 23.0911C59.0733 23.0213 59.1484 22.9118 59.1749 22.7866C59.4489 21.4908 58.6205 20.2181 57.3246 19.944C57.1994 19.9176 57.0689 19.9419 56.9617 20.0117C56.8544 20.0816 56.7793 20.1911 56.7529 20.3163C56.4789 21.6121 57.3072 22.8848 58.6031 23.1589Z" fill="url(#paint65_linear_74_1370)"/>
<path d="M44.0514 20.5345C44.1765 20.5609 44.3071 20.5366 44.4143 20.4668C44.5215 20.397 44.5966 20.2875 44.6231 20.1624C44.8971 18.8665 44.0687 17.5939 42.7729 17.3197C42.6477 17.2933 42.5172 17.3177 42.4099 17.3874C42.3027 17.4572 42.2276 17.5667 42.2011 17.6919C41.9271 18.9877 42.7555 20.2605 44.0514 20.5345Z" fill="url(#paint66_linear_74_1370)"/>
</g>
<defs>
<linearGradient id="paint0_linear_74_1370" x1="19.4034" y1="34.4563" x2="22.2104" y2="35.7929" gradientUnits="userSpaceOnUse">
<stop stop-color="#F89580"/>
<stop offset="1" stop-color="#C4573A"/>
</linearGradient>
<linearGradient id="paint1_linear_74_1370" x1="19.6939" y1="34.726" x2="18.179" y2="32.7655" gradientUnits="userSpaceOnUse">
<stop stop-color="#C4573A" stop-opacity="0"/>
<stop offset="0.235" stop-color="#BE5539" stop-opacity="0.235"/>
<stop offset="0.539" stop-color="#AE4E35" stop-opacity="0.539"/>
<stop offset="0.879" stop-color="#934330" stop-opacity="0.879"/>
<stop offset="1" stop-color="#883F2E"/>
</linearGradient>
<linearGradient id="paint2_linear_74_1370" x1="22.4351" y1="36.2957" x2="22.4351" y2="38.8354" gradientUnits="userSpaceOnUse">
<stop stop-color="#F89580"/>
<stop offset="1" stop-color="#C4573A"/>
</linearGradient>
<linearGradient id="paint3_linear_74_1370" x1="16.7211" y1="37.2165" x2="15.6964" y2="34.8996" gradientUnits="userSpaceOnUse">
<stop stop-color="#C4573A" stop-opacity="0"/>
<stop offset="0.235" stop-color="#BE5539" stop-opacity="0.235"/>
<stop offset="0.539" stop-color="#AE4E35" stop-opacity="0.539"/>
<stop offset="0.879" stop-color="#934330" stop-opacity="0.879"/>
<stop offset="1" stop-color="#883F2E"/>
</linearGradient>
<linearGradient id="paint4_linear_74_1370" x1="26.8569" y1="31.8279" x2="25.6094" y2="33.12" gradientUnits="userSpaceOnUse">
<stop stop-color="#F89580"/>
<stop offset="1" stop-color="#C4573A"/>
</linearGradient>
<linearGradient id="paint5_linear_74_1370" x1="26.89" y1="32.5576" x2="27.1127" y2="29.8842" gradientUnits="userSpaceOnUse">
<stop stop-color="#C4573A" stop-opacity="0"/>
<stop offset="0.235" stop-color="#BE5539" stop-opacity="0.235"/>
<stop offset="0.539" stop-color="#AE4E35" stop-opacity="0.539"/>
<stop offset="0.879" stop-color="#934330" stop-opacity="0.879"/>
<stop offset="1" stop-color="#883F2E"/>
</linearGradient>
<linearGradient id="paint6_linear_74_1370" x1="48.2598" y1="38.753" x2="49.1063" y2="44.2777" gradientUnits="userSpaceOnUse">
<stop stop-color="#F89580"/>
<stop offset="1" stop-color="#C4573A"/>
</linearGradient>
<linearGradient id="paint7_linear_74_1370" x1="52.1037" y1="40.7866" x2="51.6582" y2="38.4697" gradientUnits="userSpaceOnUse">
<stop stop-color="#C4573A" stop-opacity="0"/>
<stop offset="0.235" stop-color="#BE5539" stop-opacity="0.235"/>
<stop offset="0.539" stop-color="#AE4E35" stop-opacity="0.539"/>
<stop offset="0.879" stop-color="#934330" stop-opacity="0.879"/>
<stop offset="1" stop-color="#883F2E"/>
</linearGradient>
<linearGradient id="paint8_linear_74_1370" x1="38.5972" y1="39.2265" x2="38.5972" y2="43.2866" gradientUnits="userSpaceOnUse">
<stop stop-color="#F89580"/>
<stop offset="1" stop-color="#C4573A"/>
</linearGradient>
<linearGradient id="paint9_linear_74_1370" x1="41.7664" y1="41.0301" x2="43.103" y2="39.3371" gradientUnits="userSpaceOnUse">
<stop stop-color="#C4573A" stop-opacity="0"/>
<stop offset="0.235" stop-color="#BE5539" stop-opacity="0.235"/>
<stop offset="0.539" stop-color="#AE4E35" stop-opacity="0.539"/>
<stop offset="0.879" stop-color="#934330" stop-opacity="0.879"/>
<stop offset="1" stop-color="#883F2E"/>
</linearGradient>
<linearGradient id="paint10_linear_74_1370" x1="35.0665" y1="34.562" x2="35.824" y2="35.765" gradientUnits="userSpaceOnUse">
<stop stop-color="#F89580"/>
<stop offset="1" stop-color="#C4573A"/>
</linearGradient>
<linearGradient id="paint11_linear_74_1370" x1="35.9384" y1="35.6298" x2="37.9879" y2="34.9614" gradientUnits="userSpaceOnUse">
<stop stop-color="#C4573A" stop-opacity="0"/>
<stop offset="0.235" stop-color="#BE5539" stop-opacity="0.235"/>
<stop offset="0.539" stop-color="#AE4E35" stop-opacity="0.539"/>
<stop offset="0.879" stop-color="#934330" stop-opacity="0.879"/>
<stop offset="1" stop-color="#883F2E"/>
</linearGradient>
<linearGradient id="paint12_linear_74_1370" x1="4.96331" y1="18.1469" x2="20.0088" y2="28.6739" gradientUnits="userSpaceOnUse">
<stop stop-color="#BBEC6C"/>
<stop offset="0.197" stop-color="#B5E665"/>
<stop offset="0.48" stop-color="#A5D552"/>
<stop offset="0.812" stop-color="#8ABB33"/>
<stop offset="1" stop-color="#78A91F"/>
</linearGradient>
<linearGradient id="paint13_linear_74_1370" x1="8.65613" y1="20.2605" x2="12.2787" y2="17.3928" gradientUnits="userSpaceOnUse">
<stop stop-color="#334C0F" stop-opacity="0"/>
<stop offset="0.32" stop-color="#344C12" stop-opacity="0.32"/>
<stop offset="0.565" stop-color="#374A1C" stop-opacity="0.565"/>
<stop offset="0.786" stop-color="#3C482C" stop-opacity="0.786"/>
<stop offset="0.991" stop-color="#444443" stop-opacity="0.991"/>
<stop offset="1" stop-color="#444444"/>
</linearGradient>
<linearGradient id="paint14_linear_74_1370" x1="17.7135" y1="25.5685" x2="26.3609" y2="26.5399" gradientUnits="userSpaceOnUse">
<stop stop-color="#334C0F" stop-opacity="0"/>
<stop offset="0.32" stop-color="#344C12" stop-opacity="0.32"/>
<stop offset="0.565" stop-color="#374A1C" stop-opacity="0.565"/>
<stop offset="0.786" stop-color="#3C482C" stop-opacity="0.786"/>
<stop offset="0.991" stop-color="#444443" stop-opacity="0.991"/>
<stop offset="1" stop-color="#444444"/>
</linearGradient>
<linearGradient id="paint15_linear_74_1370" x1="16.3073" y1="27.9394" x2="20.9046" y2="33.0492" gradientUnits="userSpaceOnUse">
<stop stop-color="#334C0F" stop-opacity="0"/>
<stop offset="0.32" stop-color="#344C12" stop-opacity="0.32"/>
<stop offset="0.565" stop-color="#374A1C" stop-opacity="0.565"/>
<stop offset="0.786" stop-color="#3C482C" stop-opacity="0.786"/>
<stop offset="0.991" stop-color="#444443" stop-opacity="0.991"/>
<stop offset="1" stop-color="#444444"/>
</linearGradient>
<linearGradient id="paint16_linear_74_1370" x1="10.6929" y1="28.9528" x2="8.12496" y2="35.3286" gradientUnits="userSpaceOnUse">
<stop stop-color="#334C0F" stop-opacity="0"/>
<stop offset="0.32" stop-color="#344C12" stop-opacity="0.32"/>
<stop offset="0.565" stop-color="#374A1C" stop-opacity="0.565"/>
<stop offset="0.786" stop-color="#3C482C" stop-opacity="0.786"/>
<stop offset="0.991" stop-color="#444443" stop-opacity="0.991"/>
<stop offset="1" stop-color="#444444"/>
</linearGradient>
<linearGradient id="paint17_linear_74_1370" x1="-1.90847" y1="17.7938" x2="19.9677" y2="51.6619" gradientUnits="userSpaceOnUse">
<stop stop-color="#334C0F" stop-opacity="0"/>
<stop offset="0.32" stop-color="#344C12" stop-opacity="0.32"/>
<stop offset="0.565" stop-color="#374A1C" stop-opacity="0.565"/>
<stop offset="0.786" stop-color="#3C482C" stop-opacity="0.786"/>
<stop offset="0.991" stop-color="#444443" stop-opacity="0.991"/>
<stop offset="1" stop-color="#444444"/>
</linearGradient>
<linearGradient id="paint18_linear_74_1370" x1="-0.497169" y1="16.8822" x2="21.3789" y2="50.7504" gradientUnits="userSpaceOnUse">
<stop stop-color="#334C0F" stop-opacity="0"/>
<stop offset="0.32" stop-color="#344C12" stop-opacity="0.32"/>
<stop offset="0.565" stop-color="#374A1C" stop-opacity="0.565"/>
<stop offset="0.786" stop-color="#3C482C" stop-opacity="0.786"/>
<stop offset="0.991" stop-color="#444443" stop-opacity="0.991"/>
<stop offset="1" stop-color="#444444"/>
</linearGradient>
<linearGradient id="paint19_linear_74_1370" x1="9.068" y1="10.7039" x2="30.9441" y2="44.5721" gradientUnits="userSpaceOnUse">
<stop stop-color="#334C0F" stop-opacity="0"/>
<stop offset="0.32" stop-color="#344C12" stop-opacity="0.32"/>
<stop offset="0.565" stop-color="#374A1C" stop-opacity="0.565"/>
<stop offset="0.786" stop-color="#3C482C" stop-opacity="0.786"/>
<stop offset="0.991" stop-color="#444443" stop-opacity="0.991"/>
<stop offset="1" stop-color="#444444"/>
</linearGradient>
<linearGradient id="paint20_linear_74_1370" x1="4.88497" y1="13.4058" x2="26.7611" y2="47.274" gradientUnits="userSpaceOnUse">
<stop stop-color="#334C0F" stop-opacity="0"/>
<stop offset="0.32" stop-color="#344C12" stop-opacity="0.32"/>
<stop offset="0.565" stop-color="#374A1C" stop-opacity="0.565"/>
<stop offset="0.786" stop-color="#3C482C" stop-opacity="0.786"/>
<stop offset="0.991" stop-color="#444443" stop-opacity="0.991"/>
<stop offset="1" stop-color="#444444"/>
</linearGradient>
<linearGradient id="paint21_linear_74_1370" x1="4.87538" y1="13.412" x2="26.7515" y2="47.2802" gradientUnits="userSpaceOnUse">
<stop stop-color="#334C0F" stop-opacity="0"/>
<stop offset="0.32" stop-color="#344C12" stop-opacity="0.32"/>
<stop offset="0.565" stop-color="#374A1C" stop-opacity="0.565"/>
<stop offset="0.786" stop-color="#3C482C" stop-opacity="0.786"/>
<stop offset="0.991" stop-color="#444443" stop-opacity="0.991"/>
<stop offset="1" stop-color="#444444"/>
</linearGradient>
<linearGradient id="paint22_linear_74_1370" x1="9.85026" y1="10.1986" x2="31.7263" y2="44.0668" gradientUnits="userSpaceOnUse">
<stop stop-color="#334C0F" stop-opacity="0"/>
<stop offset="0.32" stop-color="#344C12" stop-opacity="0.32"/>
<stop offset="0.565" stop-color="#374A1C" stop-opacity="0.565"/>
<stop offset="0.786" stop-color="#3C482C" stop-opacity="0.786"/>
<stop offset="0.991" stop-color="#444443" stop-opacity="0.991"/>
<stop offset="1" stop-color="#444444"/>
</linearGradient>
<linearGradient id="paint23_linear_74_1370" x1="0.356988" y1="16.3305" x2="22.2331" y2="50.1987" gradientUnits="userSpaceOnUse">
<stop stop-color="#334C0F" stop-opacity="0"/>
<stop offset="0.32" stop-color="#344C12" stop-opacity="0.32"/>
<stop offset="0.565" stop-color="#374A1C" stop-opacity="0.565"/>
<stop offset="0.786" stop-color="#3C482C" stop-opacity="0.786"/>
<stop offset="0.991" stop-color="#444443" stop-opacity="0.991"/>
<stop offset="1" stop-color="#444444"/>
</linearGradient>
<linearGradient id="paint24_linear_74_1370" x1="10.3796" y1="9.85667" x2="32.2557" y2="43.725" gradientUnits="userSpaceOnUse">
<stop stop-color="#334C0F" stop-opacity="0"/>
<stop offset="0.32" stop-color="#344C12" stop-opacity="0.32"/>
<stop offset="0.565" stop-color="#374A1C" stop-opacity="0.565"/>
<stop offset="0.786" stop-color="#3C482C" stop-opacity="0.786"/>
<stop offset="0.991" stop-color="#444443" stop-opacity="0.991"/>
<stop offset="1" stop-color="#444444"/>
</linearGradient>
<linearGradient id="paint25_linear_74_1370" x1="12.5204" y1="8.47395" x2="34.3966" y2="42.3422" gradientUnits="userSpaceOnUse">
<stop stop-color="#334C0F" stop-opacity="0"/>
<stop offset="0.32" stop-color="#344C12" stop-opacity="0.32"/>
<stop offset="0.565" stop-color="#374A1C" stop-opacity="0.565"/>
<stop offset="0.786" stop-color="#3C482C" stop-opacity="0.786"/>
<stop offset="0.991" stop-color="#444443" stop-opacity="0.991"/>
<stop offset="1" stop-color="#444444"/>
</linearGradient>
<linearGradient id="paint26_linear_74_1370" x1="3.06687" y1="14.5801" x2="24.943" y2="48.4484" gradientUnits="userSpaceOnUse">
<stop stop-color="#334C0F" stop-opacity="0"/>
<stop offset="0.32" stop-color="#344C12" stop-opacity="0.32"/>
<stop offset="0.565" stop-color="#374A1C" stop-opacity="0.565"/>
<stop offset="0.786" stop-color="#3C482C" stop-opacity="0.786"/>
<stop offset="0.991" stop-color="#444443" stop-opacity="0.991"/>
<stop offset="1" stop-color="#444444"/>
</linearGradient>
<linearGradient id="paint27_linear_74_1370" x1="30.5354" y1="38.6155" x2="33.7159" y2="38.6155" gradientUnits="userSpaceOnUse">
<stop stop-color="#F89580"/>
<stop offset="1" stop-color="#C4573A"/>
</linearGradient>
<linearGradient id="paint28_linear_74_1370" x1="32" y1="37.1424" x2="32" y2="32.1028" gradientUnits="userSpaceOnUse">
<stop stop-color="#C4573A" stop-opacity="0"/>
<stop offset="0.235" stop-color="#BE5539" stop-opacity="0.235"/>
<stop offset="0.539" stop-color="#AE4E35" stop-opacity="0.539"/>
<stop offset="0.879" stop-color="#934330" stop-opacity="0.879"/>
<stop offset="1" stop-color="#883F2E"/>
</linearGradient>
<linearGradient id="paint29_linear_74_1370" x1="32" y1="42.0879" x2="32" y2="45.2961" gradientUnits="userSpaceOnUse">
<stop stop-color="#C4573A" stop-opacity="0"/>
<stop offset="0.235" stop-color="#BE5539" stop-opacity="0.235"/>
<stop offset="0.539" stop-color="#AE4E35" stop-opacity="0.539"/>
<stop offset="0.879" stop-color="#934330" stop-opacity="0.879"/>
<stop offset="1" stop-color="#883F2E"/>
</linearGradient>
<linearGradient id="paint30_linear_74_1370" x1="27.0791" y1="55.9348" x2="35.3714" y2="55.9348" gradientUnits="userSpaceOnUse">
<stop stop-color="#F9F5F3"/>
<stop offset="1" stop-color="#EFE2DD"/>
</linearGradient>
<linearGradient id="paint31_linear_74_1370" x1="32" y1="56.4798" x2="32" y2="46.9079" gradientUnits="userSpaceOnUse">
<stop stop-color="#9E9797" stop-opacity="0"/>
<stop offset="0.356" stop-color="#9B9494" stop-opacity="0.356"/>
<stop offset="0.628" stop-color="#928B8B" stop-opacity="0.629"/>
<stop offset="0.872" stop-color="#827A7A" stop-opacity="0.872"/>
<stop offset="1" stop-color="#766E6E"/>
</linearGradient>
<linearGradient id="paint32_linear_74_1370" x1="34.3472" y1="55.6225" x2="41.7571" y2="56.6428" gradientUnits="userSpaceOnUse">
<stop stop-color="#9E9797" stop-opacity="0"/>
<stop offset="0.356" stop-color="#9B9494" stop-opacity="0.356"/>
<stop offset="0.628" stop-color="#928B8B" stop-opacity="0.629"/>
<stop offset="0.872" stop-color="#827A7A" stop-opacity="0.872"/>
<stop offset="1" stop-color="#766E6E"/>
</linearGradient>
<linearGradient id="paint33_linear_74_1370" x1="32" y1="46.7909" x2="32" y2="49.7977" gradientUnits="userSpaceOnUse">
<stop stop-color="#F9F5F3"/>
<stop offset="1" stop-color="#EFE2DD"/>
</linearGradient>
<linearGradient id="paint34_linear_74_1370" x1="32" y1="48.0259" x2="32" y2="51.0448" gradientUnits="userSpaceOnUse">
<stop stop-color="#9E9797" stop-opacity="0"/>
<stop offset="0.356" stop-color="#9B9494" stop-opacity="0.356"/>
<stop offset="0.628" stop-color="#928B8B" stop-opacity="0.629"/>
<stop offset="0.872" stop-color="#827A7A" stop-opacity="0.872"/>
<stop offset="1" stop-color="#766E6E"/>
</linearGradient>
<linearGradient id="paint35_linear_74_1370" x1="40.5565" y1="47.8511" x2="45.1053" y2="47.8511" gradientUnits="userSpaceOnUse">
<stop stop-color="#9E9797" stop-opacity="0"/>
<stop offset="0.356" stop-color="#9B9494" stop-opacity="0.356"/>
<stop offset="0.628" stop-color="#928B8B" stop-opacity="0.629"/>
<stop offset="0.872" stop-color="#827A7A" stop-opacity="0.872"/>
<stop offset="1" stop-color="#766E6E"/>
</linearGradient>
<linearGradient id="paint36_linear_74_1370" x1="32" y1="61.4933" x2="32" y2="63.8916" gradientUnits="userSpaceOnUse">
<stop stop-color="#9E9797" stop-opacity="0"/>
<stop offset="0.356" stop-color="#9B9494" stop-opacity="0.356"/>
<stop offset="0.628" stop-color="#928B8B" stop-opacity="0.629"/>
<stop offset="0.872" stop-color="#827A7A" stop-opacity="0.872"/>
<stop offset="1" stop-color="#766E6E"/>
</linearGradient>
<linearGradient id="paint37_linear_74_1370" x1="20.9812" y1="1.2285" x2="42.6064" y2="22.8539" gradientUnits="userSpaceOnUse">
<stop stop-color="#BBEC6C"/>
<stop offset="0.197" stop-color="#B5E665"/>
<stop offset="0.48" stop-color="#A5D552"/>
<stop offset="0.812" stop-color="#8ABB33"/>
<stop offset="1" stop-color="#78A91F"/>
</linearGradient>
<linearGradient id="paint38_linear_74_1370" x1="26.4253" y1="5.76525" x2="33.1975" y2="2.11175" gradientUnits="userSpaceOnUse">
<stop stop-color="#334C0F" stop-opacity="0"/>
<stop offset="0.32" stop-color="#344C12" stop-opacity="0.32"/>
<stop offset="0.565" stop-color="#374A1C" stop-opacity="0.565"/>
<stop offset="0.786" stop-color="#3C482C" stop-opacity="0.786"/>
<stop offset="0.991" stop-color="#444443" stop-opacity="0.991"/>
<stop offset="1" stop-color="#444444"/>
</linearGradient>
<linearGradient id="paint39_linear_74_1370" x1="39.7419" y1="17.0955" x2="53.6429" y2="21.1945" gradientUnits="userSpaceOnUse">
<stop stop-color="#334C0F" stop-opacity="0"/>
<stop offset="0.32" stop-color="#344C12" stop-opacity="0.32"/>
<stop offset="0.565" stop-color="#374A1C" stop-opacity="0.565"/>
<stop offset="0.786" stop-color="#3C482C" stop-opacity="0.786"/>
<stop offset="0.991" stop-color="#444443" stop-opacity="0.991"/>
<stop offset="1" stop-color="#444444"/>
</linearGradient>
<linearGradient id="paint40_linear_74_1370" x1="36.7485" y1="20.5764" x2="42.8079" y2="30.2892" gradientUnits="userSpaceOnUse">
<stop stop-color="#334C0F" stop-opacity="0"/>
<stop offset="0.32" stop-color="#344C12" stop-opacity="0.32"/>
<stop offset="0.565" stop-color="#374A1C" stop-opacity="0.565"/>
<stop offset="0.786" stop-color="#3C482C" stop-opacity="0.786"/>
<stop offset="0.991" stop-color="#444443" stop-opacity="0.991"/>
<stop offset="1" stop-color="#444444"/>
</linearGradient>
<linearGradient id="paint41_linear_74_1370" x1="27.2515" y1="20.5764" x2="21.1922" y2="30.2892" gradientUnits="userSpaceOnUse">
<stop stop-color="#334C0F" stop-opacity="0"/>
<stop offset="0.32" stop-color="#344C12" stop-opacity="0.32"/>
<stop offset="0.565" stop-color="#374A1C" stop-opacity="0.565"/>
<stop offset="0.786" stop-color="#3C482C" stop-opacity="0.786"/>
<stop offset="0.991" stop-color="#444443" stop-opacity="0.991"/>
<stop offset="1" stop-color="#444444"/>
</linearGradient>
<linearGradient id="paint42_linear_74_1370" x1="9.81328" y1="-1.34188" x2="35.8777" y2="60.5443" gradientUnits="userSpaceOnUse">
<stop stop-color="#334C0F" stop-opacity="0"/>
<stop offset="0.32" stop-color="#344C12" stop-opacity="0.32"/>
<stop offset="0.565" stop-color="#374A1C" stop-opacity="0.565"/>
<stop offset="0.786" stop-color="#3C482C" stop-opacity="0.786"/>
<stop offset="0.991" stop-color="#444443" stop-opacity="0.991"/>
<stop offset="1" stop-color="#444444"/>
</linearGradient>
<linearGradient id="paint43_linear_74_1370" x1="12.392" y1="-2.42788" x2="38.4564" y2="59.4582" gradientUnits="userSpaceOnUse">
<stop stop-color="#334C0F" stop-opacity="0"/>
<stop offset="0.32" stop-color="#344C12" stop-opacity="0.32"/>
<stop offset="0.565" stop-color="#374A1C" stop-opacity="0.565"/>
<stop offset="0.786" stop-color="#3C482C" stop-opacity="0.786"/>
<stop offset="0.991" stop-color="#444443" stop-opacity="0.991"/>
<stop offset="1" stop-color="#444444"/>
</linearGradient>
<linearGradient id="paint44_linear_74_1370" x1="29.87" y1="-9.78914" x2="55.9344" y2="52.0971" gradientUnits="userSpaceOnUse">
<stop stop-color="#334C0F" stop-opacity="0"/>
<stop offset="0.32" stop-color="#344C12" stop-opacity="0.32"/>
<stop offset="0.565" stop-color="#374A1C" stop-opacity="0.565"/>
<stop offset="0.786" stop-color="#3C482C" stop-opacity="0.786"/>
<stop offset="0.991" stop-color="#444443" stop-opacity="0.991"/>
<stop offset="1" stop-color="#444444"/>
</linearGradient>
<linearGradient id="paint45_linear_74_1370" x1="22.2265" y1="-6.56988" x2="48.2909" y2="55.3162" gradientUnits="userSpaceOnUse">
<stop stop-color="#334C0F" stop-opacity="0"/>
<stop offset="0.32" stop-color="#344C12" stop-opacity="0.32"/>
<stop offset="0.565" stop-color="#374A1C" stop-opacity="0.565"/>
<stop offset="0.786" stop-color="#3C482C" stop-opacity="0.786"/>
<stop offset="0.991" stop-color="#444443" stop-opacity="0.991"/>
<stop offset="1" stop-color="#444444"/>
</linearGradient>
<linearGradient id="paint46_linear_74_1370" x1="22.209" y1="-6.5625" x2="48.2734" y2="55.3236" gradientUnits="userSpaceOnUse">
<stop stop-color="#334C0F" stop-opacity="0"/>
<stop offset="0.32" stop-color="#344C12" stop-opacity="0.32"/>
<stop offset="0.565" stop-color="#374A1C" stop-opacity="0.565"/>
<stop offset="0.786" stop-color="#3C482C" stop-opacity="0.786"/>
<stop offset="0.991" stop-color="#444443" stop-opacity="0.991"/>
<stop offset="1" stop-color="#444444"/>
</linearGradient>
<linearGradient id="paint47_linear_74_1370" x1="31.2995" y1="-10.3911" x2="57.3638" y2="51.495" gradientUnits="userSpaceOnUse">
<stop stop-color="#334C0F" stop-opacity="0"/>
<stop offset="0.32" stop-color="#344C12" stop-opacity="0.32"/>
<stop offset="0.565" stop-color="#374A1C" stop-opacity="0.565"/>
<stop offset="0.786" stop-color="#3C482C" stop-opacity="0.786"/>
<stop offset="0.991" stop-color="#444443" stop-opacity="0.991"/>
<stop offset="1" stop-color="#444444"/>
</linearGradient>
<linearGradient id="paint48_linear_74_1370" x1="13.9528" y1="-3.08524" x2="40.0171" y2="58.8009" gradientUnits="userSpaceOnUse">
<stop stop-color="#334C0F" stop-opacity="0"/>
<stop offset="0.32" stop-color="#344C12" stop-opacity="0.32"/>
<stop offset="0.565" stop-color="#374A1C" stop-opacity="0.565"/>
<stop offset="0.786" stop-color="#3C482C" stop-opacity="0.786"/>
<stop offset="0.991" stop-color="#444443" stop-opacity="0.991"/>
<stop offset="1" stop-color="#444444"/>
</linearGradient>
<linearGradient id="paint49_linear_74_1370" x1="32.2666" y1="-10.7985" x2="58.331" y2="51.0878" gradientUnits="userSpaceOnUse">
<stop stop-color="#334C0F" stop-opacity="0"/>
<stop offset="0.32" stop-color="#344C12" stop-opacity="0.32"/>
<stop offset="0.565" stop-color="#374A1C" stop-opacity="0.565"/>
<stop offset="0.786" stop-color="#3C482C" stop-opacity="0.786"/>
<stop offset="0.991" stop-color="#444443" stop-opacity="0.991"/>
<stop offset="1" stop-color="#444444"/>
</linearGradient>
<linearGradient id="paint50_linear_74_1370" x1="36.1785" y1="-12.446" x2="62.2429" y2="49.4401" gradientUnits="userSpaceOnUse">
<stop stop-color="#334C0F" stop-opacity="0"/>
<stop offset="0.32" stop-color="#344C12" stop-opacity="0.32"/>
<stop offset="0.565" stop-color="#374A1C" stop-opacity="0.565"/>
<stop offset="0.786" stop-color="#3C482C" stop-opacity="0.786"/>
<stop offset="0.991" stop-color="#444443" stop-opacity="0.991"/>
<stop offset="1" stop-color="#444444"/>
</linearGradient>
<linearGradient id="paint51_linear_74_1370" x1="18.9045" y1="-5.17075" x2="44.9688" y2="56.7154" gradientUnits="userSpaceOnUse">
<stop stop-color="#334C0F" stop-opacity="0"/>
<stop offset="0.32" stop-color="#344C12" stop-opacity="0.32"/>
<stop offset="0.565" stop-color="#374A1C" stop-opacity="0.565"/>
<stop offset="0.786" stop-color="#3C482C" stop-opacity="0.786"/>
<stop offset="0.991" stop-color="#444443" stop-opacity="0.991"/>
<stop offset="1" stop-color="#444444"/>
</linearGradient>
<linearGradient id="paint52_linear_74_1370" x1="42.4745" y1="15.3091" x2="53.9501" y2="35.1694" gradientUnits="userSpaceOnUse">
<stop stop-color="#BBEC6C"/>
<stop offset="0.197" stop-color="#B5E665"/>
<stop offset="0.48" stop-color="#A5D552"/>
<stop offset="0.812" stop-color="#8ABB33"/>
<stop offset="1" stop-color="#78A91F"/>
</linearGradient>
<linearGradient id="paint53_linear_74_1370" x1="45.5394" y1="19.6514" x2="51.1543" y2="18.3173" gradientUnits="userSpaceOnUse">
<stop stop-color="#334C0F" stop-opacity="0"/>
<stop offset="0.32" stop-color="#344C12" stop-opacity="0.32"/>
<stop offset="0.565" stop-color="#374A1C" stop-opacity="0.565"/>
<stop offset="0.786" stop-color="#3C482C" stop-opacity="0.786"/>
<stop offset="0.991" stop-color="#444443" stop-opacity="0.991"/>
<stop offset="1" stop-color="#444444"/>
</linearGradient>
<linearGradient id="paint54_linear_74_1370" x1="52.9909" y1="30.4419" x2="62.2678" y2="36.1067" gradientUnits="userSpaceOnUse">
<stop stop-color="#334C0F" stop-opacity="0"/>
<stop offset="0.32" stop-color="#344C12" stop-opacity="0.32"/>
<stop offset="0.565" stop-color="#374A1C" stop-opacity="0.565"/>
<stop offset="0.786" stop-color="#3C482C" stop-opacity="0.786"/>
<stop offset="0.991" stop-color="#444443" stop-opacity="0.991"/>
<stop offset="1" stop-color="#444444"/>
</linearGradient>
<linearGradient id="paint55_linear_74_1370" x1="50.1474" y1="32.3836" x2="52.6546" y2="40.5955" gradientUnits="userSpaceOnUse">
<stop stop-color="#334C0F" stop-opacity="0"/>
<stop offset="0.32" stop-color="#344C12" stop-opacity="0.32"/>
<stop offset="0.565" stop-color="#374A1C" stop-opacity="0.565"/>
<stop offset="0.786" stop-color="#3C482C" stop-opacity="0.786"/>
<stop offset="0.991" stop-color="#444443" stop-opacity="0.991"/>
<stop offset="1" stop-color="#444444"/>
</linearGradient>
<linearGradient id="paint56_linear_74_1370" x1="43.2178" y1="30.5209" x2="36.9426" y2="36.3812" gradientUnits="userSpaceOnUse">
<stop stop-color="#334C0F" stop-opacity="0"/>
<stop offset="0.32" stop-color="#344C12" stop-opacity="0.32"/>
<stop offset="0.565" stop-color="#374A1C" stop-opacity="0.565"/>
<stop offset="0.786" stop-color="#3C482C" stop-opacity="0.786"/>
<stop offset="0.991" stop-color="#444443" stop-opacity="0.991"/>
<stop offset="1" stop-color="#444444"/>
</linearGradient>
<linearGradient id="paint57_linear_74_1370" x1="34.8815" y1="11.2817" x2="41.7682" y2="61.1723" gradientUnits="userSpaceOnUse">
<stop stop-color="#334C0F" stop-opacity="0"/>
<stop offset="0.32" stop-color="#344C12" stop-opacity="0.32"/>
<stop offset="0.565" stop-color="#374A1C" stop-opacity="0.565"/>
<stop offset="0.786" stop-color="#3C482C" stop-opacity="0.786"/>
<stop offset="0.991" stop-color="#444443" stop-opacity="0.991"/>
<stop offset="1" stop-color="#444444"/>
</linearGradient>
<linearGradient id="paint58_linear_74_1370" x1="36.9604" y1="10.9948" x2="43.847" y2="60.8854" gradientUnits="userSpaceOnUse">
<stop stop-color="#334C0F" stop-opacity="0"/>
<stop offset="0.32" stop-color="#344C12" stop-opacity="0.32"/>
<stop offset="0.565" stop-color="#374A1C" stop-opacity="0.565"/>
<stop offset="0.786" stop-color="#3C482C" stop-opacity="0.786"/>
<stop offset="0.991" stop-color="#444443" stop-opacity="0.991"/>
<stop offset="1" stop-color="#444444"/>
</linearGradient>
<linearGradient id="paint59_linear_74_1370" x1="51.0506" y1="9.04979" x2="57.9372" y2="58.9404" gradientUnits="userSpaceOnUse">
<stop stop-color="#334C0F" stop-opacity="0"/>
<stop offset="0.32" stop-color="#344C12" stop-opacity="0.32"/>
<stop offset="0.565" stop-color="#374A1C" stop-opacity="0.565"/>
<stop offset="0.786" stop-color="#3C482C" stop-opacity="0.786"/>
<stop offset="0.991" stop-color="#444443" stop-opacity="0.991"/>
<stop offset="1" stop-color="#444444"/>
</linearGradient>
<linearGradient id="paint60_linear_74_1370" x1="44.8886" y1="9.90045" x2="51.7753" y2="59.791" gradientUnits="userSpaceOnUse">
<stop stop-color="#334C0F" stop-opacity="0"/>
<stop offset="0.32" stop-color="#344C12" stop-opacity="0.32"/>
<stop offset="0.565" stop-color="#374A1C" stop-opacity="0.565"/>
<stop offset="0.786" stop-color="#3C482C" stop-opacity="0.786"/>
<stop offset="0.991" stop-color="#444443" stop-opacity="0.991"/>
<stop offset="1" stop-color="#444444"/>
</linearGradient>
<linearGradient id="paint61_linear_74_1370" x1="44.8745" y1="9.90236" x2="51.7612" y2="59.7929" gradientUnits="userSpaceOnUse">
<stop stop-color="#334C0F" stop-opacity="0"/>
<stop offset="0.32" stop-color="#344C12" stop-opacity="0.32"/>
<stop offset="0.565" stop-color="#374A1C" stop-opacity="0.565"/>
<stop offset="0.786" stop-color="#3C482C" stop-opacity="0.786"/>
<stop offset="0.991" stop-color="#444443" stop-opacity="0.991"/>
<stop offset="1" stop-color="#444444"/>
</linearGradient>
<linearGradient id="paint62_linear_74_1370" x1="52.2029" y1="8.89074" x2="59.0896" y2="58.7813" gradientUnits="userSpaceOnUse">
<stop stop-color="#334C0F" stop-opacity="0"/>
<stop offset="0.32" stop-color="#344C12" stop-opacity="0.32"/>
<stop offset="0.565" stop-color="#374A1C" stop-opacity="0.565"/>
<stop offset="0.786" stop-color="#3C482C" stop-opacity="0.786"/>
<stop offset="0.991" stop-color="#444443" stop-opacity="0.991"/>
<stop offset="1" stop-color="#444444"/>
</linearGradient>
<linearGradient id="paint63_linear_74_1370" x1="38.2186" y1="10.821" x2="45.1053" y2="60.7117" gradientUnits="userSpaceOnUse">
<stop stop-color="#334C0F" stop-opacity="0"/>
<stop offset="0.32" stop-color="#344C12" stop-opacity="0.32"/>
<stop offset="0.565" stop-color="#374A1C" stop-opacity="0.565"/>
<stop offset="0.786" stop-color="#3C482C" stop-opacity="0.786"/>
<stop offset="0.991" stop-color="#444443" stop-opacity="0.991"/>
<stop offset="1" stop-color="#444444"/>
</linearGradient>
<linearGradient id="paint64_linear_74_1370" x1="52.9827" y1="8.78315" x2="59.8693" y2="58.6737" gradientUnits="userSpaceOnUse">
<stop stop-color="#334C0F" stop-opacity="0"/>
<stop offset="0.32" stop-color="#344C12" stop-opacity="0.32"/>
<stop offset="0.565" stop-color="#374A1C" stop-opacity="0.565"/>
<stop offset="0.786" stop-color="#3C482C" stop-opacity="0.786"/>
<stop offset="0.991" stop-color="#444443" stop-opacity="0.991"/>
<stop offset="1" stop-color="#444444"/>
</linearGradient>
<linearGradient id="paint65_linear_74_1370" x1="56.1363" y1="8.34787" x2="63.0229" y2="58.2384" gradientUnits="userSpaceOnUse">
<stop stop-color="#334C0F" stop-opacity="0"/>
<stop offset="0.32" stop-color="#344C12" stop-opacity="0.32"/>
<stop offset="0.565" stop-color="#374A1C" stop-opacity="0.565"/>
<stop offset="0.786" stop-color="#3C482C" stop-opacity="0.786"/>
<stop offset="0.991" stop-color="#444443" stop-opacity="0.991"/>
<stop offset="1" stop-color="#444444"/>
</linearGradient>
<linearGradient id="paint66_linear_74_1370" x1="42.2105" y1="10.27" x2="49.0971" y2="60.1607" gradientUnits="userSpaceOnUse">
<stop stop-color="#334C0F" stop-opacity="0"/>
<stop offset="0.32" stop-color="#344C12" stop-opacity="0.32"/>
<stop offset="0.565" stop-color="#374A1C" stop-opacity="0.565"/>
<stop offset="0.786" stop-color="#3C482C" stop-opacity="0.786"/>
<stop offset="0.991" stop-color="#444443" stop-opacity="0.991"/>
<stop offset="1" stop-color="#444444"/>
</linearGradient>
<clipPath id="clip0_74_1370">
<rect width="64" height="64" fill="white"/>
</clipPath>
</defs>
</svg>
