<svg width="174" height="52" viewBox="0 0 174 52" fill="none" xmlns="http://www.w3.org/2000/svg">
<g clip-path="url(#clip0_3_209)">
<path d="M29.6088 -0.000762939C29.6088 -0.000762939 47.102 21.3721 35.8271 41.5387C35.8271 41.5387 30.6033 52.2244 14.1868 51.838C14.1868 51.838 40.5986 39.7247 33.3095 10.7655C33.3095 10.7655 39.0852 36.6473 13.5821 50.6005C13.5821 50.6005 9.87915 40.3111 19.6188 25.6528C20.6283 24.1442 21.7148 22.6895 22.8739 21.2945C25.3787 18.259 33.5342 7.46606 29.6088 -0.000762939Z" fill="url(#paint0_linear_3_209)"/>
<path d="M25.994 14.1464C24.7401 16.3205 23.3128 18.388 21.7263 20.3286C20.9399 21.2816 20.2228 22.2034 19.5608 23.1131C19.1453 23.6828 18.7524 24.2472 18.3762 24.8115C13.5814 32.0289 11.9143 38.2468 11.4981 42.8233C11.0456 47.838 12.0915 50.8857 12.1767 51.1192L12.4941 52.0023H12.4866C12.0008 51.995 11.5212 51.8912 11.0752 51.6968C10.6292 51.5023 10.2257 51.2211 9.8876 50.8691C9.54953 50.5171 9.28359 50.1013 9.10502 49.6456C8.92645 49.1898 8.83874 48.703 8.84693 48.2129L8.93213 42.7823L3.64194 42.6986C2.66108 42.683 1.72653 42.275 1.04384 41.5644C0.361148 40.8538 -0.0137685 39.8987 0.00155027 38.9093L0.195333 26.5366C0.202502 26.0465 0.305412 25.5628 0.498171 25.1129C0.690931 24.663 0.969755 24.2559 1.31868 23.9149C1.66761 23.5739 2.07979 23.3056 2.53162 23.1255C2.98346 22.9454 3.46607 22.8569 3.95185 22.8652L9.24203 22.9488L9.32497 17.6132C9.34045 16.6238 9.7449 15.6811 10.4494 14.9924C11.1538 14.3038 12.1006 13.9256 13.0815 13.941L25.994 14.1464Z" fill="url(#paint1_linear_3_209)"/>
<path d="M53.2336 15.0158L61.9606 33.6064L70.2547 15.2873L74.4946 15.355L74.478 16.4084C73.444 16.413 72.9096 17.5324 72.8749 19.7665L72.6352 35.1177C72.6166 36.3098 73.1238 36.9246 74.1568 36.9622L74.1402 38.0148L67.6556 37.9122L67.6722 36.8587C68.6645 36.8319 69.2318 36.3088 69.374 35.2896L69.5746 22.459L62.3089 37.8232L60.1577 37.7889L52.8038 22.3168L52.6107 34.799C52.5926 35.9688 53.0895 36.5831 54.1014 36.642L54.0848 37.6954L48.9274 37.6132L48.944 36.5598C49.9775 36.5563 50.5038 35.9582 50.5229 34.7656L50.7626 19.4136C50.7973 17.18 50.2982 16.0441 49.2652 16.0061L49.2818 14.9527L53.2336 15.0158Z" fill="url(#paint2_linear_3_209)"/>
<path d="M83.0912 38.2202C78.6208 38.064 76.311 35.335 76.1617 30.0331C76.4734 24.931 78.8654 22.4048 83.3377 22.4545C87.619 22.5219 89.7205 25.077 89.6421 30.1198L79.8655 29.9677C79.8408 34.2453 81.1785 36.4054 83.8784 36.448C85.8388 36.4789 87.2782 35.5015 88.1966 33.5159L89.1014 34.1692C88.0915 36.8116 86.0881 38.1619 83.0912 38.2202ZM86.3447 28.4716C86.306 25.5544 85.3801 24.0606 83.567 23.9901C81.7739 23.9622 80.58 25.4223 79.9854 28.3704L86.3447 28.4716Z" fill="url(#paint3_linear_3_209)"/>
<path d="M101.935 37.1797C101.098 38.06 99.7936 38.4861 98.0222 38.4582C93.677 38.3893 91.5155 35.7051 91.5376 30.4058C91.6824 25.1941 93.8852 22.622 98.1459 22.6895C99.77 22.7153 101.1 23.3324 102.136 24.5408L102.236 18.1259C102.186 17.1462 101.372 16.6118 99.7926 16.5225L99.8122 15.2782C101.727 15.2991 103.64 15.2016 105.543 14.9861L105.224 35.3801C105.314 36.339 106.024 36.861 107.352 36.9462L107.332 38.1905C106.404 38.1763 105.507 38.1941 104.641 38.2438C104.282 38.26 103.849 38.2957 103.342 38.351C103.225 38.3504 103.109 38.3593 102.993 38.3776L102.265 38.4294C102.15 38.448 102.033 38.4569 101.916 38.456L101.935 37.1797ZM102.093 27.0302C101.297 25.3153 100.256 24.4049 98.9715 24.2989C96.3762 24.2989 95.0255 26.3525 94.9194 30.4598C94.9144 34.8013 96.3357 36.9946 99.1834 37.0397C100.512 37.061 101.44 36.448 101.966 35.2006L102.093 27.0302Z" fill="url(#paint4_linear_3_209)"/>
<path d="M113.883 27.7923L113.771 34.9732C113.745 36.6754 114.554 37.561 116.198 37.63L116.181 38.6826L108.272 38.5571L108.288 37.5037C109.746 37.4849 110.483 36.8901 110.5 35.7193L110.764 18.8036C110.783 17.6125 110.065 16.9946 108.609 16.95L108.625 15.8965L123.686 16.1361L123.592 22.1365L122.136 22.1129C122.181 19.2622 121.254 17.8216 119.356 17.7912L114.041 17.7068L113.912 26.0688L118.785 26.1449C119.966 26.1631 120.576 25.5983 120.615 24.4503L121.849 24.4693L121.774 29.4801L120.539 29.4603C120.535 28.4183 119.942 27.8874 118.761 27.8676L113.883 27.7923Z" fill="url(#paint5_linear_3_209)"/>
<path d="M127.258 26.4727C127.168 25.45 126.354 24.9155 124.815 24.8694L124.835 23.5923L127.747 23.5748C128.613 23.5241 129.553 23.4432 130.568 23.3322L130.369 36.0342C130.351 37.2258 131.016 37.8432 132.365 37.8863L132.349 38.939L125.167 38.8249L125.183 37.7714C126.449 37.7496 127.091 37.1533 127.11 35.9825L127.258 26.4727ZM130.694 17.2375C130.685 17.7907 130.467 18.2767 130.039 18.6956C129.61 19.1144 129.069 19.3185 128.415 19.3079C127.762 19.2972 127.227 19.0759 126.811 18.6438C126.396 18.2118 126.192 17.7192 126.201 17.166C126.21 16.6133 126.429 16.1273 126.857 15.7079C127.286 15.2886 127.827 15.0842 128.481 15.0949C129.134 15.1055 129.669 15.3269 130.085 15.7589C130.5 16.1909 130.703 16.6838 130.691 17.2375H130.694Z" fill="url(#paint6_linear_3_209)"/>
<path d="M141.233 39.1451C136.762 38.9889 134.453 36.2599 134.303 30.958C134.614 25.8548 137.006 23.3284 141.479 23.3786C145.761 23.447 147.862 26.0024 147.784 31.0447L138.007 30.8926C137.982 35.1702 139.32 37.3303 142.02 37.3729C143.98 37.4038 145.42 36.4264 146.338 34.4408L147.243 35.0933C146.236 37.7362 144.232 39.0868 141.233 39.1451ZM144.486 29.3965C144.448 26.4798 143.522 24.986 141.708 24.915C139.915 24.8861 138.722 26.3462 138.127 29.2953L144.486 29.3965Z" fill="url(#paint7_linear_3_209)"/>
<path d="M151.293 18.9055C151.243 17.9472 150.439 17.4023 148.881 17.271L148.899 16.0586C150.804 16.0801 152.708 15.9823 154.601 15.7657L154.278 36.4153C154.259 37.6069 154.925 38.224 156.275 38.2666L156.258 39.32L149.108 39.2067L149.124 38.1533C150.369 38.1304 151 37.5339 151.019 36.3636L151.293 18.9055Z" fill="url(#paint8_linear_3_209)"/>
<path d="M168.584 38.2392C167.747 39.12 166.443 39.5462 164.671 39.5178C160.326 39.4483 158.165 36.7641 158.187 31.4653C158.331 26.2536 160.534 23.6818 164.795 23.7498C166.419 23.7746 167.749 24.3915 168.785 25.6003L168.885 19.1854C168.835 18.2057 168.021 17.6713 166.442 17.582L166.461 16.3377C168.376 16.3586 170.289 16.2611 172.192 16.0456L171.874 36.4396C171.964 37.399 172.673 37.921 174.001 38.0057L173.982 39.2508C173.053 39.2356 172.156 39.2531 171.291 39.3033C170.931 39.3195 170.498 39.3552 169.992 39.4105C169.875 39.4099 169.758 39.4188 169.643 39.4371L168.914 39.4896C168.799 39.508 168.682 39.5167 168.566 39.5155L168.584 38.2392ZM168.743 28.0897C167.947 26.3743 166.906 25.4639 165.621 25.3584C163.025 25.3584 161.675 27.412 161.568 31.5193C161.564 35.8608 162.986 38.0541 165.833 38.0992C167.162 38.1205 168.089 37.5075 168.615 36.2601L168.743 28.0897Z" fill="url(#paint9_linear_3_209)"/>
</g>
<defs>
<linearGradient id="paint0_linear_3_209" x1="-40.8658" y1="64.5875" x2="74.4507" y2="0.285547" gradientUnits="userSpaceOnUse">
<stop offset="0.13" stop-color="#2197AC"/>
<stop offset="0.56" stop-color="#64BDA5"/>
<stop offset="1" stop-color="#2197AC"/>
</linearGradient>
<linearGradient id="paint1_linear_3_209" x1="-41.2693" y1="63.8641" x2="74.0471" y2="-0.43788" gradientUnits="userSpaceOnUse">
<stop offset="0.43" stop-color="#2197AC"/>
<stop offset="0.71" stop-color="#64BDA5"/>
<stop offset="1" stop-color="#2197AC"/>
</linearGradient>
<linearGradient id="paint2_linear_3_209" x1="6.65092" y1="38.375" x2="223.884" y2="-6.00031" gradientUnits="userSpaceOnUse">
<stop offset="0.43" stop-color="#2197AC"/>
<stop offset="0.71" stop-color="#64BDA5"/>
<stop offset="1" stop-color="#2197AC"/>
</linearGradient>
<linearGradient id="paint3_linear_3_209" x1="8.29141" y1="46.4067" x2="225.525" y2="2.03129" gradientUnits="userSpaceOnUse">
<stop offset="0.43" stop-color="#2197AC"/>
<stop offset="0.71" stop-color="#64BDA5"/>
<stop offset="1" stop-color="#2197AC"/>
</linearGradient>
<linearGradient id="paint4_linear_3_209" x1="8.43999" y1="47.1348" x2="225.673" y2="2.75951" gradientUnits="userSpaceOnUse">
<stop offset="0.43" stop-color="#2197AC"/>
<stop offset="0.71" stop-color="#64BDA5"/>
<stop offset="1" stop-color="#2197AC"/>
</linearGradient>
<linearGradient id="paint5_linear_3_209" x1="8.9158" y1="49.4652" x2="226.15" y2="5.08991" gradientUnits="userSpaceOnUse">
<stop offset="0.43" stop-color="#2197AC"/>
<stop offset="0.71" stop-color="#64BDA5"/>
<stop offset="1" stop-color="#2197AC"/>
</linearGradient>
<linearGradient id="paint6_linear_3_209" x1="9.60475" y1="52.8362" x2="226.838" y2="8.4609" gradientUnits="userSpaceOnUse">
<stop offset="0.43" stop-color="#2197AC"/>
<stop offset="0.71" stop-color="#64BDA5"/>
<stop offset="1" stop-color="#2197AC"/>
</linearGradient>
<linearGradient id="paint7_linear_3_209" x1="10.8899" y1="59.1267" x2="228.123" y2="14.7515" gradientUnits="userSpaceOnUse">
<stop offset="0.43" stop-color="#2197AC"/>
<stop offset="0.71" stop-color="#64BDA5"/>
<stop offset="1" stop-color="#2197AC"/>
</linearGradient>
<linearGradient id="paint8_linear_3_209" x1="10.6649" y1="58.0257" x2="227.898" y2="13.6496" gradientUnits="userSpaceOnUse">
<stop offset="0.43" stop-color="#2197AC"/>
<stop offset="0.71" stop-color="#64BDA5"/>
<stop offset="1" stop-color="#2197AC"/>
</linearGradient>
<linearGradient id="paint9_linear_3_209" x1="11.4185" y1="61.7161" x2="228.652" y2="17.3407" gradientUnits="userSpaceOnUse">
<stop offset="0.43" stop-color="#2197AC"/>
<stop offset="0.71" stop-color="#64BDA5"/>
<stop offset="1" stop-color="#2197AC"/>
</linearGradient>
<clipPath id="clip0_3_209">
<rect width="174" height="52" fill="white"/>
</clipPath>
</defs>
</svg>
