<svg width="18" height="18" viewBox="0 0 18 18" fill="none" xmlns="http://www.w3.org/2000/svg">
  <path fill="currentColor" fill-rule="evenodd" clip-rule="evenodd" d="M7.9998 0.0551767V4.94789C7.39273 4.88446 6.79944 4.76353 6.235 4.58818C5.36332 4.31738 4.58605 3.92485 3.94294 3.44252C3.51988 3.12522 3.16315 2.77541 2.87574 2.40506C4.25252 1.12603 6.0304 0.272883 7.9998 0.0551767ZM9.9998 0.0551758V4.94789C10.6069 4.88446 11.2001 4.76353 11.7646 4.58818C12.6363 4.31738 13.4135 3.92485 14.0567 3.44252C14.4797 3.12522 14.8364 2.77541 15.1239 2.40505C13.7471 1.12603 11.9692 0.272881 9.9998 0.0551758ZM16.4463 3.944C16.0975 4.34359 15.6982 4.71137 15.2567 5.04252C14.414 5.67449 13.4275 6.16587 12.3579 6.49813C11.5998 6.73364 10.8063 6.88732 9.9998 6.95688V7.99988L17.9448 7.99988C17.7798 6.50754 17.2499 5.12518 16.4463 3.944ZM17.9449 9.99988L9.9998 9.99988V11.0429C10.8063 11.1124 11.5998 11.2661 12.3579 11.5016C13.4275 11.8339 14.414 12.3253 15.2567 12.9572C15.6983 13.2885 16.0977 13.6564 16.4466 14.0561C17.2501 12.8748 17.78 11.4923 17.9449 9.99988ZM15.1242 15.5951C14.8367 15.2246 14.4799 14.8747 14.0567 14.5572C13.4135 14.0749 12.6363 13.6824 11.7646 13.4116C11.2001 13.2362 10.6069 13.1153 9.9998 13.0519V17.9453C11.9694 17.7276 13.7474 16.8743 15.1242 15.5951ZM7.9998 17.9453V13.0519C7.39273 13.1153 6.79944 13.2362 6.235 13.4116C5.36332 13.6824 4.58605 14.0749 3.94294 14.5572C3.51971 14.8747 3.16288 15.2246 2.87541 15.5951C4.25224 16.8743 6.03024 17.7276 7.9998 17.9453ZM1.55303 14.0561C1.90193 13.6564 2.30129 13.2885 2.74294 12.9572C3.58556 12.3253 4.57213 11.8339 5.64165 11.5016C6.39975 11.2661 7.19332 11.1124 7.9998 11.0429V9.99988L0.0546875 9.99988C0.219607 11.4923 0.749454 12.8748 1.55303 14.0561ZM0.0547695 7.99988L7.9998 7.99988V6.95688C7.19332 6.88732 6.39975 6.73364 5.64165 6.49813C4.57213 6.16587 3.58556 5.67448 2.74294 5.04252C2.30141 4.71137 1.90214 4.34359 1.55331 3.944C0.749712 5.12518 0.219801 6.50754 0.0547695 7.99988Z"/>
</svg>
