<svg width="12" height="12" viewBox="0 0 12 12" fill="none" xmlns="http://www.w3.org/2000/svg">
<path fill="currentColor" d="M9.97027 7.54921L11.4486 9.0275C11.7531 9.33206 11.7531 9.82584 11.4486 10.1304C9.80199 11.777 7.19524 11.9622 5.33236 10.5651L5.22376 10.4836C3.81856 9.42971 2.57029 8.18144 1.51639 6.77624L1.43494 6.66764C0.0377829 4.80476 0.223038 2.19801 1.86961 0.551447C2.17416 0.246891 2.66794 0.246892 2.9725 0.551448L4.45079 2.02974C4.84131 2.42026 4.84131 3.05342 4.45079 3.44395L3.4477 4.44704C3.2432 4.65154 3.1925 4.96395 3.32184 5.22262C4.06951 6.71798 5.28203 7.93049 6.77738 8.67816C7.03605 8.8075 7.34846 8.7568 7.55296 8.5523L8.55605 7.54921C8.94658 7.15869 9.57974 7.15869 9.97027 7.54921Z"/>
</svg>
