<svg width="24" height="18" viewBox="0 0 24 18" fill="none" xmlns="http://www.w3.org/2000/svg">
<path d="M0.477273 18V13.3977C0.477273 12 0.724432 10.517 1.21875 8.94886C1.73011 7.36364 2.46307 5.83807 3.41761 4.37216C4.3892 2.8892 5.55682 1.60227 6.92045 0.511362L10.1932 3.17045C9.11932 4.70454 8.18182 6.30682 7.38068 7.97727C6.59659 9.63068 6.20455 11.4034 6.20455 13.2955V18H0.477273ZM13.5682 18V13.3977C13.5682 12 13.8153 10.517 14.3097 8.94886C14.821 7.36364 15.554 5.83807 16.5085 4.37216C17.4801 2.8892 18.6477 1.60227 20.0114 0.511362L23.2841 3.17045C22.2102 4.70454 21.2727 6.30682 20.4716 7.97727C19.6875 9.63068 19.2955 11.4034 19.2955 13.2955V18H13.5682Z" fill="black"/>
</svg>
