<?xml version="1.0" encoding="utf-8"?><svg viewBox="0 0 142 142" xmlns="http://www.w3.org/2000/svg" xmlns:xlink="http://www.w3.org/1999/xlink"><style>:root>svg{display:none}:root>svg:target{display:block}</style><svg viewBox="0 0 10 18" fill="none" id="arrow" xmlns="http://www.w3.org/2000/svg"><path fill-rule="evenodd" clip-rule="evenodd" d="M.807 1.058a.625.625 0 0 0 0 .885L7.867 9l-7.06 7.058a.626.626 0 0 0 .885.884l7.5-7.5a.625.625 0 0 0 0-.884l-7.5-7.5a.625.625 0 0 0-.885 0Z" fill="currentColor"/></svg><svg viewBox="0 0 10 18" fill="none" id="arrow-white" xmlns="http://www.w3.org/2000/svg"><path fill-rule="evenodd" clip-rule="evenodd" d="M.807 1.058a.625.625 0 0 0 0 .885L7.867 9l-7.06 7.058a.626.626 0 0 0 .885.884l7.5-7.5a.625.625 0 0 0 0-.884l-7.5-7.5a.625.625 0 0 0-.885 0Z" fill="#FFF"/></svg><svg viewBox="0 0 14 14" fill="none" id="calendar" xmlns="http://www.w3.org/2000/svg"><path d="M3.063 0A.438.438 0 0 1 3.5.438v.437h7V.437a.438.438 0 0 1 .875 0v.438h.875A1.75 1.75 0 0 1 14 2.625v9.625A1.75 1.75 0 0 1 12.25 14H1.75A1.75 1.75 0 0 1 0 12.25V2.625A1.75 1.75 0 0 1 1.75.875h.875V.437A.437.437 0 0 1 3.063 0ZM.874 3.5v8.75a.875.875 0 0 0 .875.875h10.5a.875.875 0 0 0 .875-.875V3.5H.875Z" fill="currentColor"/></svg><svg viewBox="0 0 14 14" fill="none" id="clock" xmlns="http://www.w3.org/2000/svg"><path d="M7 3.063a.437.437 0 1 0-.875 0v4.812a.437.437 0 0 0 .22.38l3.063 1.75a.438.438 0 0 0 .434-.76L7 7.621V3.062Z" fill="currentColor"/><path d="M7 14A7 7 0 1 0 7 0a7 7 0 0 0 0 14Zm6.125-7A6.125 6.125 0 1 1 .875 7a6.125 6.125 0 0 1 12.25 0Z" fill="currentColor"/></svg><svg viewBox="0 0 40 28" fill="none" id="grid" xmlns="http://www.w3.org/2000/svg"><rect x=".5" y=".5" width="17" height="11" rx=".5" stroke="currentColor"/><rect x="22.5" y=".5" width="17" height="11" rx=".5" stroke="currentColor"/><rect x=".5" y="16.5" width="17" height="11" rx=".5" stroke="currentColor"/><rect x="22.5" y="16.5" width="17" height="11" rx=".5" stroke="currentColor"/></svg><svg viewBox="0 0 142 142" fill="none" id="marker" xmlns="http://www.w3.org/2000/svg"><g filter="url(#fa)" fill-rule="evenodd" clip-rule="evenodd"><path d="M71 85.586 85.586 71 71 56.414 56.414 71 71 85.586ZM87 71 71 55 55 71l16 16 16-16Z" fill="#fff"/><path d="M71 85.586 85.586 71 71 56.414 56.414 71 71 85.586ZM87 71 71 55 55 71l16 16 16-16Z" fill="#097EFA"/></g><path opacity=".2" d="M78.542 71 71 78.542 63.457 71 71 63.458 78.542 71Z" fill="#fff"/><defs><filter id="fa" x="0" y="0" width="142" height="142" filterUnits="userSpaceOnUse" color-interpolation-filters="sRGB"><feFlood flood-opacity="0" result="BackgroundImageFix"/><feColorMatrix in="SourceAlpha" values="0 0 0 0 0 0 0 0 0 0 0 0 0 0 0 0 0 0 127 0" result="hardAlpha"/><feOffset/><feGaussianBlur stdDeviation="6"/><feComposite in2="hardAlpha" operator="out"/><feColorMatrix values="0 0 0 0 0.0352941 0 0 0 0 0.494118 0 0 0 0 0.980392 0 0 0 1 0"/><feBlend in2="BackgroundImageFix" result="effect1_dropShadow_1_32"/><feColorMatrix in="SourceAlpha" values="0 0 0 0 0 0 0 0 0 0 0 0 0 0 0 0 0 0 127 0" result="hardAlpha"/><feOffset/><feGaussianBlur stdDeviation="27.5"/><feComposite in2="hardAlpha" operator="out"/><feColorMatrix values="0 0 0 0 0.0352941 0 0 0 0 0.494118 0 0 0 0 0.980392 0 0 0 1 0"/><feBlend in2="effect1_dropShadow_1_32" result="effect2_dropShadow_1_32"/><feBlend in="SourceGraphic" in2="effect2_dropShadow_1_32" result="shape"/></filter></defs></svg><svg viewBox="0 0 20 20" fill="none" id="mouse" xmlns="http://www.w3.org/2000/svg"><path d="M10 3.75a.625.625 0 0 1 .625.625v2.5a.625.625 0 1 1-1.25 0v-2.5A.625.625 0 0 1 10 3.75Zm5 10a5 5 0 1 1-10 0v-7.5a5 5 0 1 1 10 0v7.5ZM10 0a6.25 6.25 0 0 0-6.25 6.25v7.5a6.25 6.25 0 0 0 12.5 0v-7.5A6.25 6.25 0 0 0 10 0Z" fill="currentColor"/></svg><svg viewBox="0 0 40 28" fill="none" id="slider" xmlns="http://www.w3.org/2000/svg"><rect x=".5" y=".5" width="34" height="27" rx=".5" stroke="currentColor"/><rect opacity=".5" x="34.5" y="3.5" width="5" height="21.615" rx=".5" stroke="currentColor"/></svg></svg>