<svg width="60" height="61" viewBox="0 0 60 61" fill="none" xmlns="http://www.w3.org/2000/svg">
<path d="M23.8356 36.4114H29.5653C31.9125 36.4174 34.1619 37.3818 35.8218 39.0938C37.4816 40.8059 38.4169 43.1262 38.4231 45.5476V51.8638C38.3931 54.2667 37.4468 56.5607 35.789 58.249C34.1312 59.9373 31.8955 60.8839 29.566 60.8839C27.2365 60.8839 25.0008 59.9373 23.343 58.249C21.6852 56.5607 20.7389 54.2667 20.7089 51.8638V39.6369H8.85637C6.52707 39.606 4.30333 38.6297 2.66676 36.9196C1.03019 35.2094 0.112534 32.9031 0.112534 30.5C0.112534 28.0969 1.03019 25.7905 2.66676 24.0804C4.30333 22.3703 6.52707 21.394 8.85637 21.3631H14.9778C17.3249 21.3695 19.5741 22.334 21.2339 24.046C22.8936 25.7579 23.829 28.078 23.8356 30.4992V36.4114ZM10.956 7.77541C10.1659 7.77601 9.40038 8.05917 8.78991 8.57667C8.17945 9.09416 7.76177 9.81397 7.60803 10.6135C7.45429 11.413 7.574 12.2428 7.94677 12.9615C8.31953 13.6802 8.9223 14.2433 9.65239 14.555C10.3825 14.8667 11.1947 14.9076 11.9508 14.6708C12.7069 14.434 13.36 13.9342 13.7989 13.2564C14.2378 12.5786 14.4353 11.7648 14.3579 10.9537C14.2804 10.1425 13.9327 9.38411 13.3741 8.8077C13.0566 8.48012 12.6796 8.22033 12.2647 8.0432C11.8498 7.86607 11.4051 7.77507 10.956 7.77541ZM6.32829 6.5282C7.3989 5.42335 8.80776 4.73563 10.3148 4.58225C11.8219 4.42886 13.3338 4.81928 14.5931 5.687C15.8524 6.55471 16.781 7.84603 17.2208 9.3409C17.6606 10.8358 17.5843 12.4417 17.005 13.8851C16.4256 15.3284 15.379 16.5199 14.0436 17.2564C12.7081 17.993 11.1663 18.2291 9.68105 17.9244C8.19576 17.6198 6.85882 16.7933 5.89805 15.5857C4.93727 14.3782 4.41211 12.8643 4.41205 11.3021C4.41089 10.4154 4.57958 9.53719 4.90843 8.71793C5.23728 7.89867 5.7198 7.15451 6.32829 6.5282ZM51.5947 11.3021C51.5947 10.4862 51.3205 9.69559 50.8189 9.06486C50.3172 8.43413 49.619 8.00235 48.8433 7.84309C48.0677 7.68382 47.2624 7.80691 46.5649 8.1914C45.8673 8.57589 45.3205 9.19798 45.0177 9.9517C44.7149 10.7054 44.6748 11.5441 44.9042 12.3249C45.1336 13.1057 45.6184 13.7803 46.2759 14.2338C46.9334 14.6872 47.7229 14.8915 48.51 14.8118C49.2971 14.7321 50.0331 14.3733 50.5925 13.7966C50.9105 13.4693 51.1628 13.0805 51.3347 12.6524C51.5067 12.2244 51.5951 11.7655 51.5947 11.3021ZM52.8037 6.5282C53.8747 7.63264 54.5414 9.086 54.6901 10.6407C54.8388 12.1953 54.4603 13.7551 53.6191 15.0541C52.778 16.3532 51.5262 17.3112 50.0771 17.7648C48.628 18.2185 47.0713 18.1398 45.6721 17.5422C44.273 16.9445 43.118 15.8649 42.404 14.4872C41.69 13.1095 41.4612 11.5191 41.7565 9.98688C42.0518 8.45467 42.853 7.0755 44.0236 6.08437C45.1941 5.09325 46.6616 4.55149 48.176 4.55142C49.0355 4.55023 49.8869 4.72425 50.681 5.06349C51.4752 5.40273 52.1966 5.9005 52.8037 6.5282ZM48.176 53.2246C48.9676 53.2249 49.7349 52.942 50.3471 52.4242C50.9592 51.9063 51.3784 51.1854 51.5331 50.3845C51.6877 49.5836 51.5684 48.7521 51.1954 48.0317C50.8224 47.3114 50.2187 46.7467 49.4874 46.434C48.756 46.1214 47.9422 46.08 47.1846 46.3169C46.4269 46.5539 45.7724 47.0545 45.3325 47.7336C44.8926 48.4126 44.6946 49.2279 44.7722 50.0407C44.8497 50.8534 45.1981 51.6133 45.7579 52.1908C46.075 52.5191 46.4518 52.7795 46.8668 52.9569C47.2818 53.1343 47.7267 53.2253 48.176 53.2246ZM52.8037 54.4718C51.7331 55.5766 50.3242 56.2644 48.8172 56.4177C47.3101 56.5711 45.7982 56.1807 44.5389 55.313C43.2796 54.4453 42.351 53.154 41.9112 51.6591C41.4714 50.1642 41.5476 48.5583 42.127 47.1149C42.7064 45.6716 43.753 44.4801 45.0884 43.7436C46.4239 43.007 47.9656 42.7709 49.4509 43.0756C50.9362 43.3802 52.2732 44.2067 53.2339 45.4143C54.1947 46.6218 54.7199 48.1357 54.7199 49.6979C54.7211 50.5846 54.5524 51.4628 54.2236 52.2821C53.8947 53.1013 53.4122 53.8455 52.8037 54.4718ZM7.53731 49.6979C7.53789 50.513 7.81238 51.3026 8.31402 51.9324C8.81566 52.5622 9.51343 52.993 10.2885 53.1516C11.0635 53.3102 11.8679 53.1867 12.5646 52.8022C13.2612 52.4176 13.8071 51.7958 14.1093 51.0427C14.4114 50.2895 14.4511 49.4516 14.2216 48.6717C13.992 47.8917 13.5075 47.218 12.8505 46.7652C12.1934 46.3124 11.4046 46.1087 10.6182 46.1886C9.8319 46.2685 9.09674 46.6271 8.53798 47.2034C8.2203 47.5309 7.96838 47.9197 7.79667 48.3478C7.62496 48.7758 7.53682 49.2346 7.53731 49.6979ZM6.32829 54.4718C5.25727 53.3674 4.59061 51.914 4.44192 50.3593C4.29323 48.8047 4.6717 47.2449 5.51285 45.9459C6.35399 44.6468 7.60576 43.6888 9.05485 43.2352C10.5039 42.7815 12.0607 42.8602 13.4599 43.4578C14.859 44.0555 16.014 45.1351 16.728 46.5128C17.442 47.8905 17.6708 49.4809 17.3755 51.0131C17.0802 52.5453 16.279 53.9245 15.1084 54.9156C13.9379 55.9067 12.4704 56.4485 10.956 56.4486C10.0965 56.4498 9.24513 56.2757 8.45096 55.9365C7.65678 55.5973 6.93541 55.0995 6.32829 54.4718ZM35.3037 24.6264L29.5653 24.5886C27.2182 24.5818 24.9691 23.6169 23.3096 21.9046C21.6501 20.1924 20.7151 17.8722 20.7089 15.4509V9.13615C20.7389 6.73326 21.6852 4.43927 23.343 2.751C25.0008 1.06273 27.2365 0.116089 29.566 0.116089C31.8955 0.116089 34.1312 1.06273 35.789 2.751C37.4468 4.43927 38.3931 6.73326 38.4231 9.13615V21.3631H50.2756C52.6049 21.394 54.8287 22.3703 56.4652 24.0804C58.1018 25.7905 59.0195 28.0969 59.0195 30.5C59.0195 32.9031 58.1018 35.2094 56.4652 36.9196C54.8287 38.6297 52.6049 39.606 50.2756 39.6369H44.1527C41.8057 39.6301 39.5566 38.6652 37.8971 36.9529C36.2376 35.2407 35.3026 32.9205 35.2964 30.4992V27.8126L35.3037 24.6264Z" fill="url(#paint0_linear_13_423)"/>
<defs>
<linearGradient id="paint0_linear_13_423" x1="4.89037" y1="37.0517" x2="54.4582" y2="24.6837" gradientUnits="userSpaceOnUse">
<stop stop-color="#18C788"/>
<stop offset="1" stop-color="#17D792"/>
</linearGradient>
</defs>
</svg>
