<svg width="25" height="25" viewBox="0 0 25 25" fill="none" xmlns="http://www.w3.org/2000/svg">
<path d="M24.2676 18.0176H23.3887V16.4062C23.3887 16.0018 23.0607 15.6738 22.6562 15.6738C22.2518 15.6738 21.9238 16.0018 21.9238 16.4062V18.0176H19.4824V0.732422C19.4824 0.32793 19.1545 0 18.75 0H6.25C5.84551 0 5.51758 0.32793 5.51758 0.732422V18.0176H3.07617V16.4062C3.07617 16.0018 2.74824 15.6738 2.34375 15.6738C1.93926 15.6738 1.61133 16.0018 1.61133 16.4062V18.0176H0.732422C0.32793 18.0176 0 18.3455 0 18.75V24.2676C0 24.6721 0.32793 25 0.732422 25H24.2676C24.6721 25 25 24.6721 25 24.2676V18.75C25 18.3455 24.6721 18.0176 24.2676 18.0176ZM1.46484 19.4824H5.51758V23.5352H1.46484V19.4824ZM10.498 23.5352V21.8262H14.502V23.5352H10.498ZM15.9668 23.5352V21.0938C15.9668 20.6893 15.6389 20.3613 15.2344 20.3613H9.76562C9.36113 20.3613 9.0332 20.6893 9.0332 21.0938V23.5352H6.98242V1.46484H18.0176V23.5352H15.9668ZM23.5352 23.5352H19.4824V19.4824H23.5352V23.5352Z" fill="#C0A378"/>
<path d="M15.625 3.17383H9.375C8.97051 3.17383 8.64258 3.50176 8.64258 3.90625C8.64258 4.31074 8.97051 4.63867 9.375 4.63867H15.625C16.0295 4.63867 16.3574 4.31074 16.3574 3.90625C16.3574 3.50176 16.0295 3.17383 15.625 3.17383Z" fill="#C0A378"/>
<path d="M10.5469 6.29883H9.76562C9.36113 6.29883 9.0332 6.62676 9.0332 7.03125C9.0332 7.43574 9.36113 7.76367 9.76562 7.76367H10.5469C10.9514 7.76367 11.2793 7.43574 11.2793 7.03125C11.2793 6.62676 10.9514 6.29883 10.5469 6.29883Z" fill="#C0A378"/>
<path d="M15.2344 6.29883H14.4531C14.0486 6.29883 13.7207 6.62676 13.7207 7.03125C13.7207 7.43574 14.0486 7.76367 14.4531 7.76367H15.2344C15.6389 7.76367 15.9668 7.43574 15.9668 7.03125C15.9668 6.62676 15.6389 6.29883 15.2344 6.29883Z" fill="#C0A378"/>
<path d="M10.5469 9.42383H9.76562C9.36113 9.42383 9.0332 9.75176 9.0332 10.1562C9.0332 10.5607 9.36113 10.8887 9.76562 10.8887H10.5469C10.9514 10.8887 11.2793 10.5607 11.2793 10.1562C11.2793 9.75176 10.9514 9.42383 10.5469 9.42383Z" fill="#C0A378"/>
<path d="M15.2344 9.42383H14.4531C14.0486 9.42383 13.7207 9.75176 13.7207 10.1562C13.7207 10.5607 14.0486 10.8887 14.4531 10.8887H15.2344C15.6389 10.8887 15.9668 10.5607 15.9668 10.1562C15.9668 9.75176 15.6389 9.42383 15.2344 9.42383Z" fill="#C0A378"/>
<path d="M10.5469 12.5488H9.76562C9.36113 12.5488 9.0332 12.8768 9.0332 13.2812C9.0332 13.6857 9.36113 14.0137 9.76562 14.0137H10.5469C10.9514 14.0137 11.2793 13.6857 11.2793 13.2812C11.2793 12.8768 10.9514 12.5488 10.5469 12.5488Z" fill="#C0A378"/>
<path d="M15.2344 12.5488H14.4531C14.0486 12.5488 13.7207 12.8768 13.7207 13.2812C13.7207 13.6857 14.0486 14.0137 14.4531 14.0137H15.2344C15.6389 14.0137 15.9668 13.6857 15.9668 13.2812C15.9668 12.8768 15.6389 12.5488 15.2344 12.5488Z" fill="#C0A378"/>
<path d="M10.5469 15.6738H9.76562C9.36113 15.6738 9.0332 16.0018 9.0332 16.4062C9.0332 16.8107 9.36113 17.1387 9.76562 17.1387H10.5469C10.9514 17.1387 11.2793 16.8107 11.2793 16.4062C11.2793 16.0018 10.9514 15.6738 10.5469 15.6738Z" fill="#C0A378"/>
<path d="M15.2344 15.6738H14.4531C14.0486 15.6738 13.7207 16.0018 13.7207 16.4062C13.7207 16.8107 14.0486 17.1387 14.4531 17.1387H15.2344C15.6389 17.1387 15.9668 16.8107 15.9668 16.4062C15.9668 16.0018 15.6389 15.6738 15.2344 15.6738Z" fill="#C0A378"/>
</svg>
