<svg width="25" height="25" viewBox="0 0 25 25" fill="none" xmlns="http://www.w3.org/2000/svg">
<g clip-path="url(#clip0)">
<path d="M24.7846 0.214526C24.4986 -0.0715085 24.0349 -0.0715085 23.7488 0.214526L23.078 0.885324C21.0353 -0.352855 18.4073 1.11799 18.4073 3.51559C18.4073 3.82784 18.4538 4.13287 18.543 4.4231L9.93375 9.58085L8.79245 8.43954C8.50646 8.15351 8.04269 8.15351 7.75666 8.43954C7.47062 8.72558 7.47062 9.18929 7.75666 9.47533L8.63825 10.3569L0.356738 15.3184C0.00971762 15.5262 -0.103075 15.9761 0.104834 16.3231C0.312744 16.6701 0.762595 16.7828 1.10952 16.575L9.70616 11.4248L11.1058 12.8244L10.5189 13.4114C10.2328 13.6974 10.2328 14.1612 10.5189 14.4472C10.8048 14.7332 11.2686 14.7333 11.5546 14.4472L12.1416 13.8602L13.5499 15.2685C10.4975 20.3365 9.65826 21.73 8.35763 23.8896C8.06286 24.3791 8.4193 25 8.98434 25C9.23268 25 9.47496 24.8736 9.61246 24.6453C10.7088 22.8249 11.5146 21.4869 14.6171 16.3358L15.4906 17.2093C15.7766 17.4954 16.2404 17.4954 16.5264 17.2093C16.8124 16.9233 16.8124 16.4596 16.5264 16.1735L15.3958 15.0429C16.7265 12.8334 18.4128 10.0336 20.5701 6.45185C22.5468 7.06308 24.5597 5.59488 24.5597 3.51559C24.5597 2.94396 24.4044 2.3964 24.1146 1.92028L24.7846 1.25031C25.0707 0.964279 25.0707 0.500511 24.7846 0.214526ZM14.3286 13.9757L13.1773 12.8244L13.7643 12.2375C14.0503 11.9514 14.0503 11.4877 13.7643 11.2017C13.4783 10.9157 13.0145 10.9157 12.7285 11.2017L12.1416 11.7887L11.0016 10.6487C19.7129 5.42984 19.2905 5.67285 19.3084 5.69077C19.3182 5.70064 19.5541 5.29966 14.3286 13.9757ZM22.6229 4.65494C21.8842 5.39356 20.6421 5.24424 20.1007 4.34376C19.7009 3.64415 19.8539 2.86647 20.3442 2.37624C20.9725 1.74802 21.9946 1.74797 22.623 2.37624C23.2526 3.00592 23.2527 4.02516 22.6229 4.65494Z" fill="#C0A378"/>
</g>
<defs>
<clipPath id="clip0">
<rect width="25" height="25" fill="white"/>
</clipPath>
</defs>
</svg>
