<svg width="25" height="25" viewBox="0 0 25 25" fill="none" xmlns="http://www.w3.org/2000/svg">
<path d="M24.2676 0H0.732422C0.32793 0 0 0.32793 0 0.732422V16.4062C0 16.8107 0.32793 17.1387 0.732422 17.1387H4.38413L5.73208 18.4866C6.01812 18.7727 6.48184 18.7727 6.76787 18.4866C7.05391 18.2006 7.05391 17.7369 6.76787 17.4508L5.20547 15.8884C5.13569 15.8187 5.04199 15.7562 4.93608 15.718C4.76089 15.6545 4.91675 15.6738 1.46484 15.6738V10.7526L1.77705 11.0648C2.06313 11.3509 2.52681 11.3508 2.81284 11.0648C3.09888 10.7788 3.09888 10.315 2.81284 10.029L1.46484 8.68101V1.46484H9.0332V8.25195H5.07812C4.67363 8.25195 4.3457 8.57988 4.3457 8.98438C4.3457 9.38887 4.67363 9.7168 5.07812 9.7168H12.5C12.9045 9.7168 13.2324 9.38887 13.2324 8.98438C13.2324 8.57988 12.9045 8.25195 12.5 8.25195H10.498V1.46484H23.5352V8.25195C15.8457 8.25195 16.3327 8.23272 16.1576 8.29619C16.0531 8.33389 15.9594 8.39551 15.8882 8.4666L14.3258 10.029C14.0398 10.315 14.0398 10.7788 14.3258 11.0648C14.6119 11.3509 15.0756 11.3508 15.3616 11.0648L16.7096 9.7168H23.5352V15.6738H16.4062C16.0018 15.6738 15.6738 16.0018 15.6738 16.4062C15.6738 16.8107 16.0018 17.1387 16.4062 17.1387H23.5352V23.5352H17.1387V20.3125C17.1387 19.908 16.8107 19.5801 16.4062 19.5801H13.2324V16.7096L14.5804 15.3617C14.8664 15.0757 14.8664 14.6119 14.5804 14.3259C14.2944 14.0399 13.8306 14.0399 13.5446 14.3259L12.1966 15.6738H8.59375C8.18926 15.6738 7.86133 16.0018 7.86133 16.4062C7.86133 16.8107 8.18926 17.1387 8.59375 17.1387H11.7676V20.3125C11.7676 20.717 12.0955 21.0449 12.5 21.0449H15.6738V24.2676C15.6738 24.6721 16.0018 25 16.4062 25H24.2676C24.6721 25 25 24.6721 25 24.2676V0.732422C25 0.32793 24.6721 0 24.2676 0Z" fill="#C0A378"/>
</svg>
