<svg width="20" height="20" viewBox="0 0 20 20" fill="none" xmlns="http://www.w3.org/2000/svg">
<path d="M13.9961 0C10.8854 0 8.35508 2.53035 8.35508 5.64068C8.35508 6.59462 8.59483 7.49258 9.01464 8.28129L0.85137 16.5157C0.195853 17.1773 0.200574 18.2445 0.861823 18.9001C1.19059 19.2261 1.61985 19.3887 2.04877 19.3887C2.48274 19.3887 2.91638 19.2221 3.24616 18.8899L4.20078 17.9272L6.27388 20L7.50871 18.7652L6.51363 17.7445L7.23794 17.0384L8.22391 18.05L9.13502 17.1392L7.04944 15.0533L11.4145 10.6498C12.189 11.0504 13.0654 11.281 13.9961 11.281C17.1064 11.281 19.6368 8.75067 19.6368 5.64034C19.6368 2.53001 17.1061 0 13.9961 0ZM13.9961 9.25816C12.0009 9.25816 10.3783 7.63555 10.3783 5.64068C10.3783 3.64581 12.0009 2.0232 13.9961 2.0232C15.9906 2.0232 17.6136 3.64581 17.6136 5.64068C17.6136 7.63555 15.9906 9.25816 13.9961 9.25816Z" fill="black"/>
</svg>
