<svg width="20" height="20" viewBox="0 0 20 20" fill="none" xmlns="http://www.w3.org/2000/svg">
<path d="M13.9962 0C10.8855 0 8.35514 2.53035 8.35514 5.64068C8.35514 6.59462 8.59489 7.49258 9.0147 8.28129L0.851431 16.5157C0.195914 17.1773 0.200635 18.2445 0.861884 18.9001C1.19065 19.2261 1.61991 19.3887 2.04883 19.3887C2.4828 19.3887 2.91644 19.2221 3.24622 18.8899L4.20084 17.9272L6.27394 20L7.50877 18.7652L6.51369 17.7445L7.238 17.0384L8.22397 18.05L9.13508 17.1392L7.0495 15.0533L11.4146 10.6498C12.1891 11.0504 13.0655 11.281 13.9962 11.281C17.1065 11.281 19.6368 8.75067 19.6368 5.64034C19.6368 2.53001 17.1062 0 13.9962 0ZM13.9962 9.25816C12.0009 9.25816 10.3783 7.63555 10.3783 5.64068C10.3783 3.64581 12.0009 2.0232 13.9962 2.0232C15.9907 2.0232 17.6136 3.64581 17.6136 5.64068C17.6136 7.63555 15.9907 9.25816 13.9962 9.25816Z" fill="#C0A378"/>
</svg>
