<svg width="23" height="23" viewBox="0 0 23 23" fill="none" xmlns="http://www.w3.org/2000/svg">
<g clip-path="url(#clip0)">
<path d="M4.68667 15.2889C6.95522 18.0006 9.68605 20.1357 12.8029 21.6465C13.9896 22.2089 15.5766 22.8761 17.3448 22.9905C17.4544 22.9952 17.5592 23 17.6688 23C18.8555 23 19.8087 22.5901 20.5856 21.7466C20.5903 21.7418 20.5998 21.7323 20.6046 21.7227C20.881 21.3891 21.1956 21.0889 21.5244 20.7696C21.7484 20.5551 21.9772 20.3311 22.1964 20.1024C23.2115 19.0443 23.2115 17.7004 22.1869 16.6757L19.3226 13.8114C18.8365 13.3063 18.2551 13.0394 17.645 13.0394C17.035 13.0394 16.4488 13.3063 15.9484 13.8067L14.2422 15.5128C14.0849 15.4223 13.9229 15.3413 13.7704 15.265C13.5797 15.1697 13.4034 15.0792 13.2461 14.9791C11.6925 13.9925 10.2818 12.7058 8.93304 11.052C8.25153 10.1894 7.79401 9.46498 7.47469 8.72627C7.92268 8.32118 8.34208 7.89702 8.74718 7.48239C8.89015 7.33465 9.03789 7.1869 9.18563 7.03916C9.70035 6.52445 9.97677 5.92872 9.97677 5.32346C9.97677 4.71819 9.70511 4.12246 9.18563 3.60775L7.76541 2.18753C7.59861 2.02072 7.44133 1.85868 7.27929 1.69188C6.96475 1.3678 6.6359 1.03419 6.31183 0.733941C5.82094 0.25259 5.24428 0 4.63425 0C4.02898 0 3.44755 0.25259 2.9376 0.738707L1.15518 2.52114C0.50702 3.16929 0.140049 3.95566 0.0637953 4.86593C-0.0267558 6.00497 0.182942 7.2155 0.726249 8.67862C1.56027 10.9424 2.81846 13.0441 4.68667 15.2889ZM1.22666 4.96602C1.28385 4.33216 1.52691 3.80315 1.98443 3.34563L3.75733 1.57273C4.03375 1.30584 4.33876 1.16763 4.63425 1.16763C4.92496 1.16763 5.22045 1.30584 5.4921 1.58226C5.81141 1.87775 6.11166 2.18753 6.43574 2.51637C6.59778 2.68317 6.76458 2.84998 6.93139 3.02155L8.35161 4.44177C8.64709 4.73726 8.7996 5.03751 8.7996 5.33299C8.7996 5.62847 8.64709 5.92872 8.35161 6.2242C8.20387 6.37194 8.05613 6.52445 7.90839 6.67219C7.46516 7.12018 7.05053 7.54434 6.59301 7.94944C6.58348 7.95897 6.57871 7.96374 6.56918 7.97327C6.17362 8.36884 6.23557 8.74534 6.33089 9.03129C6.33566 9.04559 6.34042 9.05512 6.34519 9.06942C6.71216 9.9511 7.2221 10.7899 8.018 11.7907C9.44776 13.5541 10.9538 14.9219 12.6123 15.9751C12.8172 16.1086 13.0364 16.2134 13.2414 16.3183C13.432 16.4136 13.6083 16.5041 13.7656 16.6042C13.7847 16.6138 13.799 16.6233 13.818 16.6328C13.9753 16.7138 14.1278 16.752 14.2803 16.752C14.6616 16.752 14.9094 16.5089 14.9904 16.4279L16.7729 14.6455C17.0493 14.369 17.3495 14.2213 17.645 14.2213C18.0072 14.2213 18.3027 14.4453 18.4886 14.6455L21.3624 17.5145C21.9343 18.0864 21.9295 18.706 21.3481 19.3112C21.1479 19.5257 20.9382 19.7306 20.7142 19.9451C20.3806 20.2692 20.0327 20.6028 19.7182 20.9793C19.1701 21.5702 18.5172 21.8467 17.6736 21.8467C17.5926 21.8467 17.5068 21.8419 17.4258 21.8371C15.8626 21.737 14.409 21.127 13.3176 20.6075C10.3533 19.173 7.75111 17.138 5.59218 14.5549C3.81452 12.415 2.61829 10.4229 1.82716 8.28782C1.33628 6.97721 1.15041 5.92395 1.22666 4.96602Z" fill="#C0A378"/>
</g>
<defs>
<clipPath id="clip0">
<rect width="23" height="23" fill="white"/>
</clipPath>
</defs>
</svg>
