<svg width="13" height="13" viewBox="0 0 13 13" fill="none" xmlns="http://www.w3.org/2000/svg">
<path d="M3.762 8.77V9.868H7.812V10.66H3.762V13H2.43V10.66H0.54V9.868H2.43V0.399999H7.146C8.766 0.399999 10.026 0.765999 10.926 1.498C11.838 2.218 12.294 3.244 12.294 4.576C12.294 5.92 11.838 6.958 10.926 7.69C10.026 8.41 8.766 8.77 7.146 8.77H3.762ZM3.762 1.552V7.636H7.164C8.388 7.636 9.324 7.372 9.972 6.844C10.632 6.316 10.962 5.566 10.962 4.594C10.962 3.622 10.632 2.872 9.972 2.344C9.324 1.816 8.388 1.552 7.164 1.552H3.762Z" fill="#C0A378"/>
</svg>
