<svg width="23" height="23" viewBox="0 0 23 23" fill="none" xmlns="http://www.w3.org/2000/svg">
<g clip-path="url(#clip0)">
<path d="M22.7366 21.4657L16.2475 14.9767C19.204 11.3795 19.0028 6.03973 15.6433 2.6802C12.0693 -0.893734 6.25415 -0.893734 2.68021 2.6802C-0.893729 6.25414 -0.893729 12.0693 2.68021 15.6433C6.03884 19.0019 11.378 19.2052 14.9767 16.2475L21.4657 22.7366C21.8167 23.0875 22.3856 23.0875 22.7365 22.7366C23.0875 22.3856 23.0875 21.8166 22.7366 21.4657ZM14.3725 14.3724C11.4993 17.2456 6.82425 17.2456 3.95105 14.3724C1.07785 11.4992 1.07785 6.8242 3.95105 3.951C6.82416 1.07793 11.4992 1.07771 14.3725 3.951C17.2457 6.8242 17.2457 11.4992 14.3725 14.3724Z" fill="#5C5C5C"/>
<path d="M13.5619 8.26333H10.0606V4.76212C10.0606 4.26583 9.65833 3.86351 9.16203 3.86351C8.66574 3.86351 8.26342 4.26583 8.26342 4.76212V8.26333H4.7622C4.26591 8.26333 3.86359 8.66565 3.86359 9.16195C3.86359 9.65824 4.26591 10.0606 4.7622 10.0606H8.26342V13.5618C8.26342 14.0581 8.66574 14.4604 9.16203 14.4604C9.65833 14.4604 10.0606 14.0581 10.0606 13.5618V10.0606H13.5619C14.0582 10.0606 14.4605 9.65824 14.4605 9.16195C14.4605 8.66565 14.0582 8.26333 13.5619 8.26333Z" fill="#5C5C5C"/>
</g>
<defs>
<clipPath id="clip0">
<rect width="23" height="23" fill="white"/>
</clipPath>
</defs>
</svg>
