<svg width="38" height="40" viewBox="0 0 38 40" fill="none" xmlns="http://www.w3.org/2000/svg">
<g clip-path="url(#clip0_157_3)">
<path d="M25.8836 31.9726L23.4531 31.4609V32.1873C23.4531 34.772 21.4555 36.8748 19 36.8748C16.5445 36.8748 14.5469 34.772 14.5469 32.1873V31.4609L12.1164 31.9726C9.86931 32.4457 8.23828 34.5398 8.23828 36.9521V38.8279C8.23828 39.4751 8.73673 39.9998 9.35156 39.9998H28.6484C29.2633 39.9998 29.7617 39.4751 29.7617 38.8279V36.9521C29.7617 34.5398 28.1307 32.4457 25.8836 31.9726Z" fill="white"/>
<path d="M11.2125 17.5587C11.3191 19.6411 12.999 21.25 14.9802 21.25H14.9803C15.3558 21.25 15.6602 20.9296 15.6602 20.5344V18.9062H24.5664V16.1719C24.5664 14.6617 23.4034 13.4375 21.9687 13.4375H14.918C12.8041 13.4375 11.0973 15.3076 11.2125 17.5587Z" fill="white"/>
<path d="M24.5664 23.2031V21.25H17.8064C17.4995 22.5928 16.3488 23.5938 14.9803 23.5938C14.4475 23.5938 13.9308 23.5198 13.438 23.3838C13.5288 26.536 15.9833 29.0625 19 29.0625C22.0742 29.0625 24.5664 26.4391 24.5664 23.2031Z" fill="white"/>
<path d="M16.7734 31.0673V32.1874C16.7734 33.4819 17.7703 34.5312 19 34.5312C20.2297 34.5312 21.2266 33.4819 21.2266 32.1874V31.0645C20.5207 31.2864 19.7734 31.4062 19 31.4062C18.236 31.4062 17.4876 31.2905 16.7734 31.0673Z" fill="white"/>
<path d="M15.4627 7.56396L15.009 10.3487C14.853 11.306 15.8076 12.036 16.6243 11.584L19 10.2693L21.3757 11.584C22.1924 12.036 23.147 11.306 22.991 10.3487L22.5373 7.56404L24.4594 5.59193C25.1202 4.91396 24.7555 3.73271 23.8424 3.59311L21.1862 3.18686L19.9983 0.653262C19.59 -0.217754 18.41 -0.217754 18.0017 0.653262L16.8138 3.18686L14.1576 3.59311C13.2445 3.73279 12.8798 4.91396 13.5406 5.59193L15.4627 7.56396Z" fill="white"/>
<path d="M37.0456 8.27768L34.3894 7.87143L33.2015 5.33783C32.7932 4.46682 31.6133 4.46682 31.2049 5.33783L30.017 7.87143L27.3608 8.27768C26.4477 8.41736 26.0831 9.59853 26.7438 10.2765L28.6659 12.2486L28.2122 15.0333C28.0562 15.9906 29.0108 16.7206 29.8275 16.2686L32.2032 14.9538L34.579 16.2686C35.3957 16.7206 36.3503 15.9906 36.1943 15.0332L35.7406 12.2485L37.6626 10.2764C38.3233 9.59861 37.9587 8.41736 37.0456 8.27768Z" fill="white"/>
<path d="M9.7879 15.0333L9.3342 12.2486L11.2562 10.2765C11.917 9.59854 11.5524 8.41728 10.6393 8.27768L7.98304 7.87143L6.79517 5.33783C6.38682 4.46682 5.20689 4.46682 4.79854 5.33783L3.61067 7.87143L0.954453 8.27768C0.04134 8.41736 -0.323297 9.59854 0.337473 10.2765L2.25952 12.2486L1.80582 15.0333C1.64981 15.9906 2.60441 16.7206 3.42111 16.2686L5.79686 14.9538L8.1726 16.2686C8.9893 16.7206 9.94383 15.9906 9.7879 15.0333Z" fill="white"/>
</g>
<defs>
<clipPath id="clip0_157_3">
<rect width="38" height="40" fill="white"/>
</clipPath>
</defs>
</svg>
