<svg width="40" height="40" viewBox="0 0 40 40" fill="none" xmlns="http://www.w3.org/2000/svg">
<path d="M22.4891 0.00677418C21.8448 -0.0607258 21.2601 0.383259 21.1811 1.02412C21.101 1.66724 21.5565 2.25209 22.1984 2.33216C23.7891 2.53013 25.3433 3.09334 26.8184 3.71591C27.4214 3.96638 28.104 3.68388 28.3542 3.09107C28.6048 2.49373 28.3256 1.80701 27.7293 1.55529C26.0551 0.85029 24.2915 0.231071 22.4891 0.00677418Z" fill="white"/>
<path d="M35.6475 9.52333C36.1636 9.13193 36.2644 8.39607 35.873 7.88107C34.7755 6.43568 33.4857 5.14591 32.0403 4.04841C31.5242 3.65935 30.7906 3.75662 30.3981 4.27388C30.0067 4.78888 30.1074 5.52474 30.6235 5.91615C31.8995 6.88435 33.037 8.02185 34.0052 9.29787C34.3979 9.81505 35.1327 9.91287 35.6475 9.52333Z" fill="white"/>
<path d="M36.8308 11.568C36.2345 11.8198 35.9553 12.5065 36.2059 13.1038C36.8285 14.579 37.4673 16.2112 37.6654 17.8019C37.7422 18.4235 38.3042 18.8972 38.9734 18.8193C39.6155 18.7392 40.0709 18.1544 39.9908 17.5112C39.7665 15.7088 39.0715 13.8671 38.3666 12.1929C38.1148 11.5966 37.427 11.3209 36.8308 11.568Z" fill="white"/>
<path d="M12.2707 1.5553C11.6744 1.8071 11.3952 2.49374 11.6458 3.09108C11.8965 3.68515 12.5801 3.96585 13.1816 3.71593C14.6568 3.09335 16.2108 2.53015 17.8016 2.33218C18.4437 2.2521 18.8991 1.66726 18.819 1.02413C18.7389 0.383272 18.1518 -0.0607902 17.5109 0.00678792C15.7085 0.231085 13.945 0.850304 12.2707 1.5553Z" fill="white"/>
<path d="M20 39.9999C30.0295 39.9999 38.7514 32.4271 39.9908 22.489C40.0709 21.847 39.6154 21.2611 38.9734 21.181C38.328 21.1089 37.7444 21.5564 37.6654 22.1983C36.5713 30.9668 28.8497 37.6562 20 37.6562C10.3069 37.6562 2.34375 29.6931 2.34375 20C2.34375 15.7279 4.03882 11.5703 6.79686 8.39499V8.78296C6.79686 9.43069 7.321 9.95483 7.96873 9.95483C8.61647 9.95483 9.14061 9.43069 9.14061 8.78296V5.46875C9.14061 4.82101 8.61647 4.29688 7.96873 4.29688H4.65343C4.00569 4.29688 3.48156 4.82101 3.48156 5.46875C3.48156 6.11648 4.00569 6.63984 4.65343 6.63984H5.2178C1.97179 10.2693 0 15.0588 0 20C0 30.9851 9.01483 39.9999 20 39.9999Z" fill="white"/>
<path d="M5.85938 20C5.85938 27.7545 12.2455 34.1406 20 34.1406C27.7545 34.1406 34.1406 27.7545 34.1406 20C34.1406 12.2455 27.7545 5.85938 20 5.85938C12.2455 5.85938 5.85938 12.2455 5.85938 20ZM21.1719 15.3125C21.1719 14.6648 21.696 14.1406 22.3438 14.1406C22.9915 14.1406 23.5156 14.6648 23.5156 15.3125V18.8281H25.8594V15.3125C25.8594 14.6648 26.3835 14.1406 27.0312 14.1406C27.679 14.1406 28.2031 14.6648 28.2031 15.3125V24.6875C28.2031 25.3352 27.679 25.8594 27.0312 25.8594C26.3835 25.8594 25.8594 25.3352 25.8594 24.6875V21.1719H22.3438C21.696 21.1719 21.1719 20.6477 21.1719 20V15.3125ZM15.3125 16.4844C14.6659 16.4844 14.1406 17.0097 14.1406 17.6562C14.1406 18.304 13.6165 18.8281 12.9688 18.8281C12.321 18.8281 11.7969 18.304 11.7969 17.6562C11.7969 15.7177 13.3739 14.1406 15.3125 14.1406C17.2511 14.1406 18.8281 15.7177 18.8281 17.6562C18.8281 20 17.2683 21.1696 16.0152 22.1091C15.3209 22.6302 14.8266 23.0469 14.5127 23.5156H17.6562C18.304 23.5156 18.8281 24.0398 18.8281 24.6875C18.8281 25.3352 18.304 25.8594 17.6562 25.8594H12.9688C12.321 25.8594 11.7969 25.3352 11.7969 24.6875C11.7969 22.3438 13.3567 21.1741 14.6098 20.2346C15.807 19.3362 16.4844 18.7732 16.4844 17.6562C16.4844 17.0096 15.9591 16.4844 15.3125 16.4844Z" fill="white"/>
</svg>
