<svg width="38" height="38" viewBox="0 0 38 38" fill="none" xmlns="http://www.w3.org/2000/svg">
<path d="M15.5117 5.77014C15.5117 3.72393 17.1764 2.0592 19.2226 2.0592H20.5069L20.1195 0.982285C19.9017 0.37666 19.3309 0 18.7226 0C18.5541 0 18.3826 0.0289453 18.215 0.0899531L5.23767 4.81331C4.46617 5.09415 4.0691 5.94789 4.35158 6.7188L5.03728 8.59045H15.5117V5.77014Z" fill="white"/>
<path d="M19.2227 4.28613C18.4028 4.28613 17.7383 4.95069 17.7383 5.77051V8.59082H30.7266V5.77051C30.7266 4.95069 30.062 4.28613 29.2422 4.28613H19.2227Z" fill="white"/>
<path d="M34.6602 30.0029H29.4648C26.3955 30.0029 23.8984 27.5058 23.8984 24.4365C23.8984 21.3672 26.3955 18.8701 29.4648 18.8701H34.6602V13.7861C34.6602 12.1466 33.331 10.8174 31.6914 10.8174H2.96875C1.32918 10.8174 0 12.1466 0 13.7861V35.0316C0 36.6712 1.32918 38.0004 2.96875 38.0004H31.6914C33.331 38.0004 34.6602 36.6712 34.6602 35.0316V30.0029Z" fill="white"/>
<path d="M36.8867 21.0967H29.4648C27.6233 21.0967 26.125 22.5949 26.125 24.4365C26.125 26.2781 27.6233 27.7764 29.4648 27.7764H36.8867C37.5006 27.7764 38 27.2769 38 26.6631V22.21C38 21.5961 37.5006 21.0967 36.8867 21.0967ZM29.4648 25.5498C28.85 25.5498 28.3516 25.0514 28.3516 24.4365C28.3516 23.8217 28.85 23.3232 29.4648 23.3232C30.0797 23.3232 30.5781 23.8217 30.5781 24.4365C30.5781 25.0514 30.0797 25.5498 29.4648 25.5498Z" fill="white"/>
</svg>
