<svg width="38" height="38" viewBox="0 0 38 38" fill="none" xmlns="http://www.w3.org/2000/svg">
<path d="M6.69231 23.2314L15.0104 14.9134L16.9973 16.9025C17.9341 17.8441 19.1809 18.3628 20.5079 18.3628C21.8349 18.3628 23.0817 17.8441 24.019 16.9021C25.9463 14.9651 25.9463 11.8135 24.019 9.87645L20.9036 6.75288L22.4512 5.39193C26.3439 1.98061 32.2651 2.37093 35.6764 6.2637C39.0878 10.1565 38.6974 16.0776 34.8047 19.489L32.5812 21.5439L30.1128 19.0756C28.6767 17.6394 26.3399 17.6394 24.9039 19.0756C24.219 19.7604 23.8379 20.6676 23.8262 21.6343C22.8988 21.6461 21.9751 22.0042 21.2692 22.7102C20.5628 23.4166 20.2046 24.3409 20.1932 25.2687C19.2653 25.2802 18.341 25.6384 17.6346 26.3448H17.6345C16.1985 27.7809 16.1985 30.1177 17.6345 31.5538L19.6115 33.5307L17.9396 35.0759C16.799 36.0755 15.064 35.9611 14.0644 34.8205C13.0648 33.6799 13.1792 31.9449 14.3198 30.9454C13.1792 31.9449 11.4442 31.8306 10.4447 30.6899C9.44515 29.5493 9.55953 27.8143 10.7002 26.8148L10.7 26.8146C9.55945 27.8142 7.82444 27.6999 6.82486 26.5592C5.9683 25.5817 6.01788 24.3477 6.69231 23.2314Z" fill="white"/>
<path d="M2.74498 4.98813C6.405 1.32818 12.3389 1.32818 15.999 4.98813L22.4407 11.4469C23.21 12.2201 23.4463 13.4103 23.0405 14.421C22.5991 15.5206 21.4621 16.2246 20.2806 16.1265C19.6292 16.0724 19.0154 15.7797 18.5577 15.314L15.0114 11.7636L5.63892 21.136L2.74506 18.242C-0.914968 14.5821 -0.914968 8.64808 2.74498 4.98813Z" fill="white"/>
<path d="M29.6539 25.8853L26.4783 22.7097C26.2032 22.4346 26.0516 22.0688 26.0516 21.6797C26.0516 21.2905 26.2032 20.9248 26.4783 20.6496C26.7622 20.3656 27.1354 20.2236 27.5084 20.2236C27.8815 20.2236 28.2544 20.3656 28.5384 20.6496L31.714 23.8252C32.2797 24.3909 32.2815 25.31 31.7201 25.8786C31.7108 25.8877 31.7012 25.8964 31.6919 25.9054C31.4193 26.1672 31.063 26.312 30.6839 26.312C30.2948 26.312 29.929 26.1605 29.6539 25.8853Z" fill="white"/>
<path d="M26.0192 29.5199L22.8436 26.3443C22.5684 26.0691 22.417 25.7033 22.417 25.3142C22.417 24.9251 22.5685 24.5593 22.8436 24.2841C23.1188 24.009 23.4845 23.8574 23.8736 23.8574C24.2628 23.8574 24.6286 24.009 24.9037 24.2841L28.0793 27.4597C28.3545 27.7349 28.506 28.1007 28.506 28.4898C28.506 28.8768 28.3559 29.2404 28.0837 29.5151C28.0777 29.5211 28.0715 29.5266 28.0654 29.5325C27.4963 30.087 26.5827 30.0833 26.0192 29.5199Z" fill="white"/>
<path d="M22.3846 33.1546L19.209 29.9791C18.6411 29.4111 18.641 28.4869 19.209 27.9189V27.9189C19.4842 27.6437 19.8499 27.4922 20.2391 27.4922C20.6282 27.4922 20.994 27.6437 21.2692 27.9189L24.4448 31.0945C24.7199 31.3697 24.8714 31.7354 24.8714 32.1246C24.8714 32.5126 24.7206 32.8774 24.4469 33.1523C24.4439 33.1552 24.4409 33.1579 24.4379 33.1608C23.8693 33.7222 22.9504 33.7204 22.3846 33.1546Z" fill="white"/>
</svg>
