<svg width="38" height="38" viewBox="0 0 38 38" fill="none" xmlns="http://www.w3.org/2000/svg">
<g clip-path="url(#clip0_158_100)">
<path d="M37.1737 16.7567C35.7014 15.0491 33.3077 12.5708 30.2607 10.4615C30.032 10.3034 29.8026 10.1489 29.5739 10.0005L24.4629 15.1122C25.2462 16.2095 25.7073 17.5519 25.7073 18.9997C25.7073 22.6985 22.6989 25.7069 19 25.7069C17.5522 25.7069 16.2099 25.2459 15.1125 24.4626L10.4024 29.172C13.3128 30.7289 16.195 31.5159 19 31.5159C22.6588 31.5159 26.4475 30.1772 30.2607 27.5378C33.3077 25.4285 35.7014 22.9502 37.1737 21.2426C37.7246 20.6034 38 19.8015 38 18.9997C38 18.1978 37.7246 17.3959 37.1737 16.7567ZM12.2927 18.9996C12.2927 15.3007 15.3011 12.2923 19 12.2923C20.4478 12.2923 21.7901 12.7534 22.8875 13.5367L27.5976 8.82731C24.6872 7.27039 21.805 6.4834 19 6.4834C15.3412 6.4834 11.5525 7.82203 7.73928 10.4614C4.69227 12.5707 2.29862 15.049 0.826345 16.7567C-0.275448 18.0352 -0.275448 19.964 0.826345 21.2425C2.29862 22.9502 4.69227 25.4285 7.73928 27.5378C7.96796 27.6959 8.19737 27.8503 8.42605 27.9988L13.5371 22.8871C12.7538 21.7897 12.2927 20.4474 12.2927 18.9996Z" fill="white"/>
<path d="M21.2793 15.1447L18.2123 18.2117L15.1452 21.2788C14.748 20.6106 14.5201 19.831 14.5201 18.9995C14.5201 16.5293 16.5299 14.5195 19 14.5195C19.8316 14.5195 20.6111 14.7475 21.2793 15.1447Z" fill="white"/>
<path d="M23.48 18.999C23.48 21.4692 21.4701 23.479 19 23.479C18.1685 23.479 17.3889 23.251 16.7207 22.8538L19.7878 19.7868L22.8548 16.7197C23.252 17.388 23.48 18.1676 23.48 18.999Z" fill="white"/>
<path d="M10.4024 29.1721L3.81767 35.7569C3.60013 35.9744 3.31503 36.0835 3.02993 36.0835C2.74483 36.0835 2.46047 35.9744 2.24293 35.7569C1.80786 35.3225 1.80786 34.6172 2.24293 34.1821L8.42604 27.999C9.08608 28.4296 9.74463 28.821 10.4024 29.1721Z" fill="white"/>
<path d="M35.7571 3.81705L29.574 10.0002C28.9139 9.56955 28.2554 9.17828 27.5976 8.8271L34.1823 2.24232C34.6174 1.80725 35.3227 1.80725 35.7571 2.24232C36.1921 2.67665 36.1921 3.38198 35.7571 3.81705Z" fill="white"/>
</g>
<defs>
<clipPath id="clip0_158_100">
<rect width="38" height="38" fill="white"/>
</clipPath>
</defs>
</svg>
