<svg width="38" height="38" viewBox="0 0 38 38" fill="none" xmlns="http://www.w3.org/2000/svg">
<path d="M31.8285 18.2977C31.7063 17.4844 31.0091 16.8983 30.1885 16.8983H16.8954L14.4812 14.0409C13.9696 13.4401 13.2186 13.0615 12.4285 13.0615H3.79157C3.17612 13.0615 2.59121 13.3497 2.19312 13.8211C1.79626 14.2936 1.62652 14.9408 1.73032 15.5477L1.95989 16.8983H1.80847C1.32491 16.8983 0.866988 17.0949 0.554381 17.4612C0.23689 17.8288 0.0989038 18.3075 0.173392 18.7849L2.85497 36.1834C3.01738 37.2299 3.91856 38.0004 4.97727 38.0004H32.8151C33.2987 38.0004 33.7566 37.788 34.0692 37.4253C34.383 37.059 34.5247 36.5839 34.4526 36.1065L31.8285 18.2977Z" fill="white"/>
<path d="M25.21 5.31348H14.8121C14.0954 5.31348 13.5141 5.96067 13.5141 6.67869C13.5141 7.39671 14.0966 8.0439 14.8121 8.0439H25.21C25.9292 8.0439 26.5092 7.39671 26.5092 6.67869C26.5092 5.96067 25.9268 5.31348 25.21 5.31348Z" fill="white"/>
<path d="M37.4603 14.8801C37.1611 14.5321 36.7227 14.3135 36.2624 14.3135H33.3121L33.9837 20.5351L35.5871 31.4043L37.8315 16.15C37.8938 15.6958 37.7619 15.2293 37.4603 14.8801Z" fill="white"/>
<path d="M11.0194 2.5094H29.1701V14.8317H31.6807V1.596C31.6795 0.721681 30.9492 0 30.0749 0H10.0022C9.04237 0 8.29016 0.790064 8.29016 1.74986V11.2892H11.0194V2.5094Z" fill="white"/>
<path d="M25.21 10.3311H14.8121C14.1881 10.3311 13.668 10.8244 13.5422 11.4288C14.4324 11.656 15.242 12.1408 15.8513 12.8551L16.0406 13.0603H25.21C25.9292 13.0603 26.5092 12.4131 26.5092 11.695C26.5092 10.977 25.9268 10.3311 25.21 10.3311Z" fill="white"/>
</svg>
