<svg width="293" height="84" viewBox="0 0 293 84" fill="none" xmlns="http://www.w3.org/2000/svg">
<path d="M244.26 52.8335C244.26 55.3144 244.685 57.4314 245.501 59.1846C246.318 60.9378 247.495 62.3933 248.998 63.5511C250.468 64.6427 252.2 65.4696 254.095 65.9989C256.055 66.4951 258.179 66.7267 260.433 66.7267C262.884 66.7267 264.975 66.462 266.707 65.8997C268.438 65.3043 269.843 64.5434 270.922 63.6172C272 62.691 272.751 61.6656 273.242 60.5078C273.699 59.2839 273.96 58.093 273.96 56.8691C273.96 54.3882 273.405 52.5688 272.261 51.4111C271.183 50.1871 270.007 49.3602 268.667 48.864C266.413 48.0039 263.766 47.21 260.695 46.4823C257.721 45.6884 253.997 44.696 249.586 43.4721C246.841 42.7443 244.554 41.8181 242.692 40.6604C240.894 39.4364 239.457 38.1133 238.379 36.6578C237.3 35.2023 236.549 33.6476 236.059 32.0267C235.634 30.3728 235.438 28.7188 235.438 27.0318C235.438 23.757 236.091 20.9453 237.398 18.5636C238.771 16.1488 240.568 14.131 242.757 12.5763C244.946 10.9885 247.462 9.83069 250.272 9.10296C253.082 8.30906 255.924 7.91211 258.767 7.91211C262.1 7.91211 265.236 8.37522 268.177 9.26835C271.15 10.1284 273.764 11.4185 275.953 13.1717C278.208 14.9249 280.005 17.1081 281.312 19.7213C282.619 22.2684 283.272 25.2455 283.272 28.6196H272.163C271.869 24.4186 270.464 21.5076 267.948 19.7875C265.432 18.0343 262.263 17.1412 258.375 17.1412C257.068 17.1412 255.728 17.3066 254.356 17.6043C252.984 17.8358 251.742 18.2989 250.599 18.9605C249.455 19.5559 248.507 20.416 247.723 21.5076C247.004 22.5992 246.645 23.9554 246.645 25.6094C246.645 27.9249 247.331 29.7443 248.704 31.0674C250.141 32.3575 251.971 33.3168 254.258 33.9784C254.487 34.0446 255.434 34.3092 257.035 34.8054C258.702 35.2354 260.564 35.7316 262.59 36.2609C264.616 36.8232 266.576 37.3525 268.504 37.9148C270.464 38.411 271.869 38.7749 272.719 39.0064C274.81 39.668 276.64 40.5942 278.175 41.752C279.711 42.9097 281.018 44.2329 282.031 45.7545C283.109 47.21 283.861 48.7978 284.351 50.4848C284.873 52.1719 285.167 53.892 285.167 55.579C285.167 59.2177 284.416 62.3271 282.913 64.9404C281.475 67.4875 279.58 69.5714 277.195 71.2254C274.81 72.8794 272.098 74.0371 269.059 74.7649C266.021 75.5588 262.917 75.9557 259.747 75.9557C256.12 75.9557 252.69 75.4926 249.455 74.5995C246.22 73.6732 243.41 72.2839 241.058 70.3984C238.673 68.5129 236.745 66.1312 235.34 63.2203C233.902 60.2432 233.151 56.7699 233.085 52.7673H244.26V52.8335Z" fill="#1E1E1E"/>
<path d="M199.138 17.2406C195.74 17.2406 192.766 17.9353 190.25 19.3246C187.8 20.7139 185.807 22.5995 184.238 24.9481C182.67 27.2636 181.527 29.8768 180.742 32.854C180.024 35.8311 179.664 38.8413 179.664 41.9507C179.664 45.0601 180.024 48.0703 180.742 51.0474C181.527 54.0245 182.67 56.6709 184.238 59.0526C185.807 61.3681 187.8 63.1874 190.25 64.6098C192.766 65.9992 195.707 66.6938 199.138 66.6938C202.568 66.6938 205.476 65.9992 207.927 64.6098C210.443 63.2205 212.469 61.3681 214.037 59.0526C215.605 56.6709 216.749 54.0245 217.468 51.0474C218.252 48.0703 218.644 45.0601 218.644 41.9507C218.644 38.8413 218.252 35.8311 217.468 32.854C216.749 29.8768 215.605 27.2305 214.037 24.9481C212.469 22.5664 210.443 20.7139 207.927 19.3246C205.476 17.9684 202.536 17.2406 199.138 17.2406ZM199.138 7.97852C203.941 7.97852 208.188 8.90473 211.978 10.7241C215.801 12.5434 219.036 14.9913 221.683 18.1007C224.329 21.2101 226.322 24.8158 227.695 28.9176C229.132 33.0524 229.851 37.3858 229.851 42.0169C229.851 46.6479 229.132 51.0805 227.695 55.2154C226.322 59.3503 224.329 62.9559 221.683 66.0322C219.036 69.1086 215.801 71.5895 211.978 73.4089C208.221 75.1621 203.941 76.0552 199.138 76.0552C194.335 76.0552 190.054 75.1621 186.199 73.4089C182.409 71.5895 179.239 69.1417 176.593 66.0322C173.946 62.9228 171.92 59.3172 170.483 55.2154C169.11 51.0805 168.424 46.681 168.424 42.0169C168.424 37.3527 169.11 33.0524 170.483 28.9176C171.92 24.7827 173.946 21.1771 176.593 18.1007C179.239 14.9913 182.409 12.5434 186.199 10.7241C190.022 8.90473 194.335 7.97852 199.138 7.97852Z" fill="#1E1E1E"/>
<path d="M123.334 7.97852H135.032V65.7345H169.012V76.0221H123.334V7.97852Z" fill="#1E1E1E"/>
<path d="M7.83252 7.97852H35.7359C40.8984 7.97852 45.342 8.87165 49.1322 10.6579C52.9223 12.4442 55.9937 14.892 58.3789 18.0015C60.764 21.0447 62.5284 24.6504 63.6393 28.7852C64.8483 32.9201 65.4364 37.3196 65.4364 42.0499C65.4364 46.7802 64.8483 51.1798 63.6393 55.3146C62.4958 59.4495 60.764 63.0551 58.3789 66.1646C55.9937 69.2078 52.9223 71.6226 49.1322 73.4089C45.342 75.1951 40.8984 76.0883 35.7359 76.0883H7.83252V7.97852ZM19.6278 66.2969H31.2269C35.8013 66.2969 39.5588 65.7015 42.4341 64.4775C45.3747 63.2205 47.6945 61.5004 49.3282 59.3172C51.0273 57.1009 52.1708 54.5207 52.7263 51.6098C53.3471 48.6327 53.6738 45.424 53.6738 41.9838C53.6738 38.5436 53.3798 35.368 52.7263 32.457C52.1708 29.4799 51.0273 26.8997 49.3282 24.7496C47.6945 22.5333 45.4074 20.8132 42.4341 19.5893C39.5588 18.3323 35.8013 17.6707 31.2269 17.6707H19.6278V66.2969Z" fill="#1E1E1E"/>
<path d="M65.7632 76.0221L79.8129 27.8921L85.5308 7.97852L111.997 8.14391V18.4315H93.0785L87.818 36.8234C95.5943 36.8234 104.58 36.6911 111.997 36.7242V47.0118H85.9556L80.401 65.6684C90.4972 65.7345 101.933 65.6684 111.997 65.7345V75.8898L65.7632 76.0221Z" fill="#1E1E1E"/>
</svg>
