<svg viewBox="0 0 31 31" fill="none" xmlns="http://www.w3.org/2000/svg" xmlns:xlink="http://www.w3.org/1999/xlink">
	<path d="M15.5 0C6.98828 0 0 6.98828 0 15.5C0 22.7656 5.09766 29.3633 11.8672 31L11.8672 25.8711C11.1953 26.0195 10.5781 26.0234 9.89453 25.8203C8.98047 25.5508 8.23438 24.9414 7.68359 24.0117C7.33203 23.418 6.70703 22.7734 6.05469 22.8203L5.89453 21.0117C7.30469 20.8906 8.52344 21.8672 9.24609 23.082C9.56641 23.625 9.9375 23.9414 10.4102 24.0781C10.8711 24.2148 11.3633 24.1484 11.9336 23.9492C12.0781 22.7969 12.6055 22.3672 13.0039 21.7617L13.0039 21.7617C8.96484 21.1602 7.35547 19.0195 6.71875 17.3281C5.87109 15.082 6.32812 12.2773 7.82422 10.5078C7.85156 10.4727 7.90625 10.3828 7.88281 10.3203C7.19922 8.24609 8.03516 6.53125 8.06641 6.35156C8.85547 6.58203 8.98438 6.11328 11.5039 7.64453L11.9414 7.90625C12.1211 8.01562 12.0664 7.95312 12.2461 7.9375C13.2969 7.65234 14.4062 7.49609 15.5 7.48047C16.6016 7.49609 17.7031 7.65234 18.7969 7.94922L18.9375 7.96484C18.9258 7.96094 18.9766 7.95703 19.0625 7.90625C22.207 6 22.0938 6.62109 22.9375 6.34766C22.9688 6.53125 23.793 8.27344 23.1172 10.3203C23.0234 10.6016 25.8438 13.1836 24.2812 17.3281C23.6445 19.0195 22.0352 21.1602 17.9961 21.7617L17.9961 21.7617C18.5156 22.5508 19.1367 22.9727 19.1328 24.5977L19.1328 31C25.9023 29.3633 31 22.7656 31 15.5C31 6.98828 24.0117 0 15.5 0Z" fill="currentColor"/>
</svg>
