<svg viewBox="0 0 30 30" fill="none" xmlns="http://www.w3.org/2000/svg" xmlns:xlink="http://www.w3.org/1999/xlink">
	<path d="M22.5 0L7.5 0C3.375 0 0 3.375 0 7.5L0 22.5C0 26.625 3.375 30 7.5 30L22.5 30C26.625 30 30 26.625 30 22.5L30 7.5C30 3.375 26.625 0 22.5 0ZM15 21.25C11.5469 21.25 8.75 18.4492 8.75 15C8.75 11.5469 11.5469 8.75 15 8.75C18.4492 8.75 21.25 11.5469 21.25 15C21.25 18.4492 18.4492 21.25 15 21.25ZM23.125 8.75C22.0898 8.75 21.25 7.91016 21.25 6.875C21.25 5.83984 22.0898 5 23.125 5C24.1602 5 25 5.83984 25 6.875C25 7.91016 24.1602 8.75 23.125 8.75Z" fill="currentColor"/>
</svg>
