<svg width="25.601562" height="25.601562" viewBox="0 0 25.6016 25.6016" fill="none" xmlns="http://www.w3.org/2000/svg" xmlns:xlink="http://www.w3.org/1999/xlink">
	<path d="M25.6016 25.6016L25.6016 16.2266C25.6016 11.6172 24.6094 8.09766 19.2344 8.09766C16.6445 8.09766 14.9141 9.50391 14.2109 10.8516L14.1484 10.8516L14.1484 8.51172L9.05859 8.51172L9.05859 25.6016L14.3711 25.6016L14.3711 17.1211C14.3711 14.8828 14.7852 12.7383 17.5391 12.7383C20.2578 12.7383 20.2891 15.2656 20.2891 17.25L20.2891 25.5703L25.6016 25.5703L25.6016 25.6016Z" fill="currentColor"/>
	<path d="M0.417969 8.51172L5.73047 8.51172L5.73047 25.6016L0.417969 25.6016L0.417969 8.51172Z" fill="currentColor" />
	<path d="M3.07031 0C1.375 0 0 1.375 0 3.07031C0 4.76953 1.375 6.17578 3.07031 6.17578C4.76953 6.17578 6.14453 4.76953 6.14453 3.07031C6.14453 1.375 4.76953 0 3.07031 0Z" fill="currentColor"/>
</svg>
