<svg viewBox="0 0 31 25.1875" fill="none" xmlns="http://www.w3.org/2000/svg" xmlns:xlink="http://www.w3.org/1999/xlink">
	<path d="M31 2.98047C29.8477 3.48828 28.6172 3.82422 27.3398 3.98438C28.6562 3.19922 29.6602 1.96094 30.1328 0.472656C28.9062 1.20703 27.5508 1.72266 26.1055 2.01172C24.9375 0.769531 23.2734 0 21.4609 0C17.9414 0 15.1094 2.85547 15.1094 6.35547C15.1094 6.85938 15.1523 7.34375 15.2578 7.80469C9.97266 7.54688 5.30078 5.01562 2.16016 1.16016C1.60938 2.10938 1.28906 3.19922 1.28906 4.37109C1.28906 6.57031 2.42188 8.52344 4.11328 9.65234C3.08984 9.63281 2.08984 9.33594 1.23828 8.87109C1.23828 8.89062 1.23828 8.91406 1.23828 8.94141C1.23828 12.0273 3.44141 14.5938 6.33203 15.1836C5.8125 15.3242 5.25 15.3945 4.66406 15.3945C4.25781 15.3945 3.84766 15.3711 3.46094 15.2852C4.28516 17.8008 6.62109 19.6523 9.40234 19.7109C7.23828 21.4023 4.49219 22.4219 1.51953 22.4219C1 22.4219 0.5 22.3984 0 22.3359C2.81641 24.1523 6.15234 25.1875 9.75 25.1875C21.4453 25.1875 27.8398 15.5 27.8398 7.10156C27.8398 6.82031 27.8281 6.55078 27.8164 6.28125C29.0742 5.38672 30.1367 4.26953 31 2.98047Z" fill="currentColor"/>
</svg>
