<svg width="43" height="63" viewBox="0 0 43 63" fill="none" xmlns="http://www.w3.org/2000/svg">
<path d="M25.1293 57.9377C29.4964 53.6391 32.2998 48.3305 32.2998 48.3305C27.5742 51.558 24.9455 49.248 19.0831 50.4998C13.2208 51.7516 10.3956 57.2402 8.49229 58.6256C7.28003 59.5083 5.59706 59.5894 4.73135 59.3597C8.84047 55.7237 13.5792 50.7406 16.7397 46.2555C17.9774 45.8681 19.2512 45.8524 20.1167 46.0371C20.9024 46.2101 21.8156 46.8002 22.5563 47.0405C24.1744 47.5894 25.8495 48.1498 28.0092 47.8912C31.0441 47.5135 32.2233 46.8219 34.0693 45.3349L34.3071 45.1448C41.0883 39.2496 42.534 33.2022 42.6008 32.9325L43 31.0438L41.5396 32.3078C38.4375 34.9699 36.0382 35.1034 32.7066 35.2995C31.8765 35.3514 31.035 35.3919 30.0915 35.4882C27.5791 35.7337 25.2873 36.8019 22.7056 38.9491C21.9129 39.5976 21.3706 40.27 20.8396 40.9312C20.2973 41.6036 19.0999 43.1279 18.3748 43.6643C20.2021 40.8378 22.5471 37.0011 23.9978 33.9588C24.4148 33.252 25.7565 31.0644 26.9346 30.1703C28.3392 29.0973 29.9898 29.3425 32.9421 26.3307C35.0234 24.2033 36.8072 19.6546 36.3989 15.6907C35.4631 6.77187 29.7959 0 29.7959 0C29.7959 0 30.1348 1.65627 29.2858 4.48797C28.2803 7.83657 27.2836 8.61909 24.4653 13.2636C23.293 15.2157 22.0438 17.6738 22.0627 21.1404C22.0772 23.8192 23.8486 27.4302 23.6463 29.984C23.5183 31.5365 22.7894 33.4571 22.7894 33.4571C21.0125 37.1843 18.9163 40.7522 16.5689 44.1386L15.2593 45.9549C14.3561 47.1882 13.4072 48.3986 12.4241 49.5751C12.4508 48.2135 12.7557 45.7165 14.4049 43.6094C16.4944 40.9081 18.347 38.5544 17.1177 32.1214C15.9938 26.2628 17.8826 22.1986 17.8826 22.1986C17.8826 22.1986 13.5192 25.0904 10.5449 28.2372C7.9777 30.9584 5.87396 35.2353 6.22276 38.7149C6.57156 42.1945 7.99196 44.0254 9.68816 46.3754C10.9144 48.059 10.8483 50.5459 10.6608 51.6141C7.5065 55.1426 4.03228 58.3993 0.24917 61.3279C-0.0340342 61.5402 -0.088642 61.9563 0.15176 62.239C0.174632 62.2616 0.186068 62.2729 0.20894 62.2956C0.43766 62.5219 0.813211 62.5577 1.07367 62.3452C1.7419 61.8198 2.41013 61.2944 3.05549 60.7463C4.30744 60.8881 6.87998 61.2394 8.55494 61.7773C10.6061 62.4635 17.3455 65.6171 25.1293 57.9377ZM21.6064 41.802C22.115 41.2082 22.8733 40.5031 23.564 39.9328C25.9419 37.9646 27.9954 36.9964 30.235 36.772C31.1444 36.6868 31.9745 36.635 32.7932 36.5943C35.6359 36.4294 37.9897 36.2956 40.6762 34.5879C39.7554 36.789 37.7508 40.4699 33.494 44.1388L33.2562 44.3289C31.4781 45.7488 30.5142 46.2726 27.843 46.6073C25.9902 46.8337 24.5202 46.3419 22.9819 45.8273C22.2184 45.5643 21.4093 45.3012 20.5439 45.1165C19.6899 44.9431 18.3829 45.15 17.3037 45.4031C17.4053 45.2573 17.8457 44.6632 17.9473 44.5174C20.2633 43.7194 20.5329 43.0905 21.6064 41.802Z" fill="#A38072"/>
</svg>
