<svg width="20" height="20" viewBox="0 0 20 20" fill="none" xmlns="http://www.w3.org/2000/svg">
<g clip-path="url(#clip0)">
<path d="M10.0001 19.9893C1.12359 19.9804 -3.34124 9.20042 2.92906 2.91821C6.65128 -0.96073 13.3489 -0.961355 17.0711 2.91836C23.3414 9.20113 18.876 19.9809 10.0001 19.9893ZM10.0001 1.5518C5.34761 1.5518 1.56257 5.33684 1.56257 9.98929C2.02605 21.1827 17.9757 21.1795 18.4375 9.98921C18.4375 5.33687 14.6525 1.5518 10.0001 1.5518ZM13.6384 12.5228L11.1701 10.0545C11.1919 9.68999 11.0364 9.34159 10.7809 9.1155C10.7812 9.10734 10.7813 9.09913 10.7813 9.09089V4.52059C10.7401 3.48403 9.25971 3.48481 9.21881 4.52059V9.09089C9.21881 9.09913 9.21897 9.10734 9.2192 9.1155C8.40221 9.84683 8.95643 11.2165 10.0653 11.1594L12.5335 13.6277C12.8386 13.9328 13.3333 13.9328 13.6384 13.6277C13.9435 13.3226 13.9435 12.8279 13.6384 12.5228Z" fill="#A38072"/>
</g>
<defs>
<clipPath id="clip0">
<rect width="20" height="20" fill="white"/>
</clipPath>
</defs>
</svg>
