<svg width="20" height="20" viewBox="0 0 20 20" fill="none" xmlns="http://www.w3.org/2000/svg">
<path d="M7.9602 10.7463C7.9602 11.4594 8.06799 11.9652 8.28358 12.2637C8.49917 12.5622 8.78939 12.7114 9.15423 12.7114C9.3864 12.7114 9.61028 12.6534 9.82587 12.5373C10.0415 12.4212 10.2488 12.2803 10.4478 12.1144L11.8905 5.64677C11.5423 5.49751 11.2023 5.42289 10.8706 5.42289C10.3566 5.42289 9.87562 5.68823 9.42786 6.21891C8.9801 6.733 8.62355 7.39635 8.35821 8.20895C8.09287 9.02156 7.9602 9.86733 7.9602 10.7463ZM13.2338 15.2985C12.4046 15.2985 11.7496 15.1244 11.2687 14.7761C10.7877 14.4113 10.4892 13.9635 10.3731 13.4328C9.80929 13.9303 9.1874 14.3698 8.50746 14.7512C7.84411 15.1161 7.19735 15.2985 6.56716 15.2985C5.93698 15.2985 5.37313 15.0663 4.87562 14.602C4.39469 14.1211 4.15423 13.325 4.15423 12.2139C4.15423 11.1526 4.39469 10.1161 4.87562 9.10448C5.35655 8.09287 5.97844 7.18076 6.74129 6.36816C7.52073 5.55556 8.3665 4.90879 9.27861 4.42786C10.1907 3.94693 11.0779 3.70647 11.9403 3.70647C12.7197 3.70647 13.3997 3.94693 13.9801 4.42786L15.7214 3.70647L16.0697 4.02985L14.3035 11.791C14.204 12.2056 14.1957 12.5207 14.2786 12.7363C14.3615 12.9519 14.5771 13.0597 14.9254 13.0597C15.3068 13.0597 15.738 12.8109 16.2189 12.3134C16.7164 11.8159 17.1476 11.1277 17.5124 10.2488C17.8773 9.35323 18.0597 8.31675 18.0597 7.1393C18.0597 5.31509 17.5539 3.89718 16.5423 2.88557C15.5307 1.87396 14.0381 1.36816 12.0647 1.36816C10.5058 1.36816 9.11277 1.65837 7.88557 2.23881C6.65837 2.81924 5.6136 3.60697 4.75124 4.60199C3.90547 5.58043 3.25871 6.69983 2.81095 7.9602C2.36318 9.22056 2.1393 10.5224 2.1393 11.8657C2.1393 13.8557 2.73632 15.4063 3.93035 16.5174C5.12438 17.6285 6.76617 18.1841 8.85572 18.1841C9.4859 18.1841 10.1161 18.1343 10.7463 18.0348C11.393 17.9519 12.073 17.8109 12.7861 17.6119L13.0846 18.9055C12.3217 19.204 11.5257 19.461 10.6965 19.6766C9.88391 19.8922 8.98839 20 8.00995 20C6.26866 20 4.801 19.6517 3.60697 18.9552C2.41294 18.2753 1.50912 17.3549 0.895522 16.194C0.298507 15.0166 0 13.7148 0 12.2886C0 10.7794 0.26534 9.30348 0.79602 7.8607C1.34328 6.40133 2.1393 5.08292 3.18408 3.90547C4.22886 2.71144 5.5141 1.76617 7.0398 1.06965C8.56551 0.35655 10.3234 0 12.3134 0C14.005 0 15.4146 0.323383 16.5423 0.970149C17.67 1.61692 18.5158 2.47927 19.0796 3.55721C19.6434 4.61857 19.9254 5.79602 19.9254 7.08955C19.9254 8.28358 19.7264 9.37811 19.3284 10.3731C18.9303 11.3682 18.3997 12.2388 17.7363 12.9851C17.073 13.7148 16.3516 14.2869 15.5721 14.7015C14.7927 15.0995 14.0133 15.2985 13.2338 15.2985Z" fill="#A38072"/>
</svg>
