<svg width="7" height="16" viewBox="0 0 7 16" fill="none" xmlns="http://www.w3.org/2000/svg">
<path d="M0.666641 14.105C0.666641 13.8383 0.699974 13.5183 0.766641 13.145C0.833307 12.7583 0.893307 12.4183 0.946641 12.125L1.96664 7.265L0.566641 7.005L0.706641 6.265L4.92664 5.125L5.24664 5.405L3.74664 12.345C3.65331 12.6783 3.60664 12.965 3.60664 13.205C3.60664 13.4717 3.71997 13.605 3.94664 13.605C4.25331 13.605 4.73331 13.1917 5.38664 12.365L5.98664 12.765C5.71997 13.2183 5.39997 13.6517 5.02664 14.065C4.66664 14.465 4.24664 14.7917 3.76664 15.045C3.29997 15.2983 2.77997 15.425 2.20664 15.425C1.73997 15.425 1.36664 15.3117 1.08664 15.085C0.806641 14.8583 0.666641 14.5317 0.666641 14.105ZM4.28664 3.265C3.91331 3.265 3.57331 3.13833 3.26664 2.885C2.97331 2.63167 2.82664 2.285 2.82664 1.845C2.82664 1.33833 2.99997 0.931666 3.34664 0.625C3.69331 0.305 4.09331 0.145 4.54664 0.145C4.97331 0.145 5.31997 0.278333 5.58664 0.544999C5.86664 0.798333 6.00664 1.13167 6.00664 1.545C6.00664 2.03833 5.83331 2.45167 5.48664 2.785C5.13997 3.105 4.73997 3.265 4.28664 3.265Z" fill="#A38072"/>
</svg>
