<svg width="62" height="62" viewBox="0 0 62 62" fill="none" xmlns="http://www.w3.org/2000/svg">
<path d="M21.918 25.5508H40.082V32.8164H21.918V25.5508Z" fill="#A38072"/>
<path d="M40.082 14.6523H38.2656C37.2635 14.6523 36.4492 13.8381 36.4492 12.8359V11.0195H40.082V7.38672H21.918V11.0195H25.5508V12.8359C25.5508 13.8381 24.7365 14.6523 23.7344 14.6523H21.918V21.918H40.082V14.6523Z" fill="#A38072"/>
<path d="M47.3477 23.7344C47.3477 32.749 40.0146 40.082 31 40.082C21.9854 40.082 14.6523 32.749 14.6523 23.7344C14.6523 21.3787 15.128 19.9501 15.4221 18.2852H0V29.1836H4.33395C5.02927 32.5787 6.37922 35.8319 8.29674 38.7304L5.31311 41.7157L13.0187 49.4213L16.004 46.4376C18.9025 48.3552 22.1557 49.705 25.5508 50.4004V54.6133H36.4492V50.4004C39.8443 49.7051 43.0975 48.3552 45.996 46.4376L48.9813 49.4213L56.6869 41.7157L53.7033 38.7304C55.6208 35.8319 56.9706 32.5787 57.6661 29.1836H62V18.2852H46.5779C46.8541 19.8492 47.3477 21.3566 47.3477 23.7344Z" fill="#A38072"/>
</svg>
