<svg width="22" height="22" viewBox="0 0 22 22" fill="none" xmlns="http://www.w3.org/2000/svg">
<path d="M15.6275 0H6.37058C5.48531 0 4.77014 0.717942 4.77014 1.60322V20.3989C4.77014 21.2814 5.48531 22 6.37058 22H15.6275C16.5113 22 17.2293 21.2821 17.2293 20.3989V1.60322C17.2286 0.717942 16.5113 0 15.6275 0ZM16.0288 17.825H5.97065V2.70443H16.0288V17.825ZM13.1452 1.62683H8.85353V1.15884H13.1459L13.1452 1.62683ZM14.9817 1.41297C14.9817 1.63932 14.797 1.82263 14.5714 1.82263C14.345 1.82263 14.161 1.63863 14.161 1.41297C14.161 1.18731 14.345 1.00331 14.5714 1.00331C14.7977 1.00262 14.9817 1.18662 14.9817 1.41297ZM12.9529 20.2919H9.04447V19.0893H12.9529V20.2919Z" fill="#A38072"/>
</svg>
