<svg width="20" height="20" viewBox="0 0 20 20" fill="none" xmlns="http://www.w3.org/2000/svg">
<path d="M12.1484 11.6408C12.487 11.2188 12.7127 11.0078 12.8255 11.0078C12.9384 11.0078 13.3594 11.1972 14.0885 11.5762C14.8264 11.9552 15.217 12.1835 15.2604 12.261C15.2778 12.304 15.2865 12.3686 15.2865 12.4548C15.2865 12.739 15.2127 13.0663 15.0651 13.4367C14.9262 13.7726 14.6181 14.0568 14.1406 14.2894C13.6632 14.5133 13.2205 14.6253 12.8125 14.6253C12.3177 14.6253 11.4931 14.3583 10.3385 13.8243C9.48785 13.4367 8.75 12.9285 8.125 12.2997C7.5 11.671 6.85764 10.8742 6.19792 9.90956C5.57292 8.98794 5.26476 8.15246 5.27344 7.4031V7.29974C5.29948 6.51593 5.62066 5.83549 6.23698 5.2584C6.44531 5.06891 6.67101 4.97416 6.91406 4.97416C6.96615 4.97416 7.04427 4.98277 7.14844 5C7.2526 5.00861 7.33507 5.01292 7.39583 5.01292C7.56076 5.01292 7.67361 5.04307 7.73438 5.10336C7.80382 5.15504 7.87326 5.27132 7.94271 5.4522C8.01215 5.62446 8.15538 6.00345 8.3724 6.58915C8.58941 7.17485 8.69792 7.49785 8.69792 7.55814C8.69792 7.73902 8.54601 7.9888 8.24219 8.30749C7.94705 8.61757 7.79948 8.81568 7.79948 8.90181C7.79948 8.9621 7.82118 9.0267 7.86458 9.09561C8.15972 9.72437 8.60243 10.3144 9.19271 10.8656C9.67882 11.3221 10.3342 11.7571 11.1589 12.1705C11.263 12.2308 11.3585 12.261 11.4453 12.261C11.5755 12.261 11.8099 12.0543 12.1484 11.6408ZM10.1823 17.8553C11.2847 17.8553 12.3394 17.64 13.3464 17.2093C14.362 16.7786 15.2344 16.2015 15.9635 15.478C16.6927 14.7545 17.2743 13.8932 17.7083 12.8941C18.1424 11.8863 18.3594 10.8355 18.3594 9.7416C18.3594 8.64772 18.1424 7.60121 17.7083 6.60207C17.2743 5.59432 16.6927 4.72868 15.9635 4.00517C15.2344 3.28165 14.362 2.70457 13.3464 2.2739C12.3394 1.84324 11.2847 1.62791 10.1823 1.62791C9.07986 1.62791 8.02083 1.84324 7.00521 2.2739C5.99826 2.70457 5.13021 3.28165 4.40104 4.00517C3.67187 4.72868 3.09028 5.59432 2.65625 6.60207C2.22222 7.60121 2.00521 8.64772 2.00521 9.7416C2.00521 11.4901 2.52604 13.0749 3.56771 14.4961L2.53906 17.5065L5.6901 16.5116C7.06163 17.4074 8.55903 17.8553 10.1823 17.8553ZM6.36719 0.775195C7.58247 0.258398 8.85417 0 10.1823 0C11.5104 0 12.7778 0.258398 13.9844 0.775195C15.1997 1.29199 16.2457 1.98536 17.1224 2.8553C17.9991 3.72524 18.6979 4.76314 19.2187 5.96899C19.7396 7.16624 20 8.42377 20 9.7416C20 11.0594 19.7396 12.3213 19.2187 13.5271C18.6979 14.7244 17.9991 15.758 17.1224 16.6279C16.2457 17.4978 15.1997 18.1912 13.9844 18.708C12.7778 19.2248 11.5104 19.4832 10.1823 19.4832C8.48958 19.4832 6.90538 19.0784 5.42969 18.2687L0 20L1.77083 14.7674C0.833333 13.2343 0.364583 11.559 0.364583 9.7416C0.364583 8.42377 0.625 7.16624 1.14583 5.96899C1.66667 4.76314 2.36545 3.72524 3.24219 2.8553C4.11892 1.98536 5.16059 1.29199 6.36719 0.775195Z" fill="black"/>
</svg>
