<svg width="179" height="131" viewBox="0 0 179 131" fill="none" xmlns="http://www.w3.org/2000/svg">
<path d="M104.454 6.63863C104.961 5.1065 105.265 3.93016 105.736 2.82434C106.252 1.61275 107.377 0.92361 108.579 1.25696C109.467 1.50377 110.576 2.30188 110.858 3.10641C111.439 4.77316 111.532 6.60978 111.852 8.53295C112.076 7.94959 112.314 7.40469 112.503 6.84056C112.887 5.68345 113.509 4.73149 114.884 4.94945C116.23 5.1642 116.673 6.28284 116.666 7.45918C116.644 10.8247 115.336 13.5813 112.445 15.4371C110.374 16.7673 110.108 17.4276 111.727 19.2706C113.118 20.8508 114.698 22.3734 116.464 23.5016C129.568 31.8706 136.318 43.8167 136.376 59.311C136.449 78.8088 121.445 95.9314 102.159 98.8289C97.4058 99.5437 92.7389 99.2168 87.9855 98.6495C84.995 98.2937 81.873 99.0149 78.812 99.2713C71.0103 99.9284 63.3177 99.6046 56.0801 96.2327C45.4194 91.2645 39.6851 82.4756 37.2331 71.2924C36.7779 69.225 36.6625 67.0678 36.5375 64.9427C36.4382 63.2215 37.2395 62.5708 38.9351 63.0195C44.1372 64.3946 49.3138 65.853 54.4999 67.2858C54.9551 67.4108 55.4038 67.571 55.7916 67.6928C55.5801 64.4876 55.1955 61.3239 55.1859 58.1603C55.1314 39.5376 68.8051 22.7932 87.0528 18.9309C89.5946 18.3924 92.1748 17.809 94.5563 16.8154C97.861 15.4403 98.7713 13.4402 98.2713 9.89199C97.9091 7.33097 98.1238 4.85008 99.4861 2.62241C100.021 1.74737 100.842 0.955664 101.707 0.391534C103.166 -0.560434 104.48 0.311401 104.454 2.05828C104.432 3.4654 104.451 4.87252 104.451 6.63222L104.454 6.63863ZM113.554 61.3945C115.259 53.2114 116.067 45.243 114.586 37.1786C113.798 32.8899 112.586 28.7455 109.589 25.4088C106.826 22.3317 103.397 21.2707 99.4764 22.774C97.7616 23.4311 96.0532 24.3414 94.6397 25.5017C86.0399 32.5437 82.0109 42.2718 78.8216 52.7081C90.4343 55.6121 101.884 58.4777 113.554 61.3945ZM112.894 64.619C101.089 61.6765 89.633 58.8174 78.1966 55.9679C76.3247 61.5643 75.6484 74.3502 76.9049 79.6485C76.9978 80.046 77.1645 80.4723 77.4241 80.7736C80.421 84.2802 83.4404 87.7675 86.4662 91.2741C86.4181 91.3382 86.6233 91.1074 86.7771 90.8446C88.6875 87.5784 91.1651 84.8122 94.0916 82.4339C98.2777 79.0331 102.996 76.5971 108.012 74.6836C108.612 74.456 109.39 74.0617 109.596 73.5489C110.746 70.6898 111.746 67.773 112.887 64.6222L112.894 64.619ZM39.9255 66.4235C42.4384 89.5432 59.5579 98.5244 79.0684 95.7423C78.4818 95.4378 78.0203 95.1974 77.5587 94.9602C69.6353 90.867 63.1991 85.0559 59.6284 76.8952C57.734 72.5617 55.0064 70.4462 50.7369 69.4333C47.1759 68.5871 43.6789 67.4813 39.9223 66.4235H39.9255ZM132.244 66.0453C136.965 54.0351 126.952 31.7135 114.5 26.4729C120.144 38.0536 119.115 50.0061 116.785 62.1733C121.968 63.4715 127.112 64.76 132.244 66.0453ZM60.1829 48.0477C65.3113 49.3266 70.4494 50.6087 75.5907 51.8908C79.3056 40.0665 83.9533 29.0532 94.348 21.4791C80.296 20.6008 62.1926 34.6945 60.1797 48.0509L60.1829 48.0477ZM73.1675 76.8055C72.5521 69.5295 73.3374 62.3304 74.831 55.1089C69.5423 53.7883 64.4523 52.519 59.2405 51.2209C58.1507 56.3269 58.2757 61.2118 59.1283 66.1447C59.5226 68.4172 60.4553 69.8212 62.6606 70.8597C66.2409 72.5456 69.584 74.7413 73.1675 76.8055ZM113.609 72.7764C115.779 72.2764 117.833 71.7764 119.897 71.334C121.513 70.9879 122.513 71.7539 122.394 73.2925C121.978 78.6357 120.57 83.6616 117.506 88.1393C117.259 88.5015 117.041 88.8798 116.807 89.2516C124.039 84.3315 128.946 77.7542 131.609 69.2923C126.285 67.9621 121.154 66.68 116.003 65.3947C115.179 67.9332 114.413 70.2891 113.605 72.7796L113.609 72.7764ZM118.872 74.8855C116.881 75.4144 115.112 75.9336 113.314 76.3439C112.217 76.5939 111.685 77.2638 111.134 78.1998C109.006 81.8249 106.909 85.4886 104.477 88.9054C102.925 91.085 100.803 92.8575 98.9764 94.7711C108.602 94.3736 117.317 87.4598 118.868 74.8855H118.872ZM88.7708 94.1044C88.8253 94.3031 88.8798 94.5018 88.9311 94.7038C90.2965 94.5531 91.8863 94.7999 92.9793 94.1749C95.3512 92.8126 97.6462 91.2004 99.6527 89.3413C102.816 86.4085 105.134 82.7897 106.958 78.844C99.3322 82.1198 92.7357 86.5687 88.7708 94.1076V94.1044ZM76.8151 90.7645C75.9112 88.0688 75.0875 85.5014 74.1772 82.9628C73.94 82.3057 73.5714 81.5397 73.0265 81.1743C69.5423 78.8184 65.9909 76.5586 62.4554 74.2797C62.324 74.1932 62.1157 74.222 61.7791 74.1771C65.1703 81.3281 70.1545 86.745 76.8119 90.7645H76.8151ZM98.9187 17.9565C102.13 18.5366 105.022 19.0591 108.038 19.604C107.252 17.8058 107.099 16.1263 108.208 14.4916C108.342 14.296 108.243 13.9274 108.217 13.6422C108.108 12.4594 107.877 11.2767 107.903 10.0971C107.929 8.96246 108.214 7.83099 108.384 6.69953C107.926 7.52649 107.743 8.40153 107.509 9.26375C107.127 10.6709 106.73 12.1613 105.018 12.4466C103.297 12.7319 102.445 11.5107 101.73 10.1933C101.694 10.1292 101.573 10.11 101.432 10.0426C101.848 13.0171 101.374 15.7128 98.9187 17.9565Z" fill="white"/>
<path d="M7.55805 123.772C8.46515 120.487 9.45558 117.224 10.2409 113.91C10.6127 112.339 11.2409 111.563 12.9109 111.919C13.2667 111.993 13.6513 111.929 14.1417 111.929C15.2507 115.91 16.3437 119.849 17.4399 123.785C17.5425 123.798 17.6451 123.811 17.7476 123.824C18.2413 121.891 18.7413 119.961 19.2285 118.025C19.6323 116.423 20.1164 114.83 20.3984 113.205C20.5907 112.092 21.1292 111.83 22.1357 111.91C23.0332 111.983 23.9402 111.926 25.0268 111.926C23.3633 117.964 21.7414 123.859 20.1035 129.805H15.4206C14.5071 126.551 13.5808 123.244 12.6512 119.939C12.5455 119.939 12.4397 119.932 12.3339 119.929C11.414 123.218 10.4909 126.506 9.56135 129.824H4.89126C3.26298 123.923 1.6379 118.029 0 112.099C0.237191 112.025 0.375015 111.945 0.512842 111.942C2.99159 111.85 4.52799 113.014 5.12204 115.435C5.80797 118.218 6.49711 120.997 7.18624 123.776C7.30804 123.772 7.42984 123.769 7.55485 123.766L7.55805 123.772Z" fill="white"/>
<path d="M101.572 123.503H97.0172V120.016H105.678C106.479 124.74 104.046 128.712 99.6551 129.901C94.8215 131.212 89.7508 128.814 88.0071 124.401C86.2346 119.913 88.1353 114.807 92.3855 112.631C96.6518 110.445 101.915 111.73 104.514 115.689C103.421 116.327 102.332 116.961 101.267 117.583C98.0429 114.926 94.469 114.971 92.4913 117.637C90.6931 120.064 91.2509 123.708 93.6709 125.314C95.8697 126.773 100.396 126.673 101.572 123.506V123.503Z" fill="white"/>
<path d="M122.807 129.766C119.711 130.071 119.57 130.042 118.842 129.048C115.887 130.882 112.909 130.536 110.803 128.109C108.666 125.648 108.621 121.436 110.701 118.948C112.813 116.426 115.826 116.038 118.852 117.897C119.858 116.227 121.41 117.439 122.807 117V129.766ZM119.105 123.497C119.121 121.692 117.801 120.336 116.022 120.333C114.316 120.327 113.05 121.602 112.999 123.372C112.948 125.215 114.201 126.58 115.977 126.616C117.743 126.651 119.089 125.308 119.105 123.497Z" fill="white"/>
<path d="M39.9828 129.798H36.1813C36.1813 127.542 36.1877 125.369 36.1813 123.199C36.1717 121.144 35.4537 120.243 33.8703 120.269C32.3029 120.295 31.5913 121.205 31.5753 123.26C31.5593 125.391 31.5721 127.523 31.5721 129.766H27.9053V112.035H31.5048V117.907C32.3318 117.516 32.9055 117.176 33.5241 116.964C36.6461 115.897 39.6751 117.798 39.9411 121.218C40.1591 124.016 39.986 126.846 39.986 129.795L39.9828 129.798Z" fill="white"/>
<path d="M158.3 125.016C159.082 126.587 160.479 127.382 162.063 126.599C163.989 125.647 165.117 126.641 166.569 127.603C166.284 127.965 166.076 128.321 165.781 128.59C163.364 130.821 158.729 130.782 156.187 128.532C153.739 126.362 153.306 122.218 155.239 119.468C157.168 116.724 161.124 115.862 164.104 117.589C166.464 118.958 167.332 121.144 167.355 123.776C167.364 124.769 166.938 125.055 165.996 125.029C163.97 124.978 161.941 125.013 159.915 125.013C159.406 125.013 158.893 125.013 158.29 125.013L158.3 125.016ZM163.441 122.09C162.915 120.49 161.829 120.029 160.543 120.134C159.434 120.227 158.386 120.625 158.236 122.09H163.441Z" fill="white"/>
<path d="M67.0672 125.016C68.1506 126.907 69.75 127.189 70.9937 126.596C72.8944 125.692 74.0675 126.577 75.5099 127.628C73.9297 129.949 71.6155 130.372 69.0929 130.18C65.2883 129.891 62.8074 126.882 63.035 122.929C63.2561 119.086 66.2691 116.529 70.3238 116.743C73.7694 116.923 76.3657 119.936 76.3337 123.593C76.324 124.715 75.9362 125.071 74.8304 125.039C72.3399 124.971 69.8462 125.016 67.0704 125.016H67.0672ZM72.4104 122.054C71.8174 120.471 70.7404 120.016 69.4231 120.144C68.3397 120.25 67.4198 120.711 67.1217 122.054H72.4104Z" fill="white"/>
<path d="M142.167 129.798H138.445V116.984C139.846 117.099 141.192 117.211 143.128 117.372C144.324 116.554 146.257 116.253 148.221 117.359C150.177 118.461 150.632 120.356 150.625 122.433C150.619 124.83 150.625 127.225 150.625 129.75H146.779C146.779 127.526 146.789 125.301 146.779 123.08C146.766 121.144 146.045 120.263 144.51 120.266C142.971 120.266 142.202 121.157 142.179 123.061C142.151 125.247 142.173 127.433 142.173 129.795L142.167 129.798Z" fill="white"/>
<path d="M60.1473 127.051C60.1473 127.612 60.1473 128.612 60.1473 129.609C56.5382 130.907 53.9803 129.295 53.7784 125.529C53.6951 124 53.7656 122.465 53.7656 120.875C52.9899 120.769 52.4258 120.692 51.7783 120.602V117.16C52.3617 117.102 52.9258 117.045 53.7047 116.964C52.9675 113.859 55.5189 114.227 57.4613 113.5V116.964C58.4517 117.022 59.2274 117.07 60.1153 117.121V120.602C59.362 120.67 58.5927 120.74 57.6151 120.827C57.6151 122.343 57.4132 123.904 57.7145 125.362C57.8363 125.958 59.0511 126.327 60.1505 127.048L60.1473 127.051Z" fill="white"/>
<path d="M171.729 120.878C170.934 120.763 170.37 120.683 169.732 120.59V117.157C170.351 117.099 170.918 117.045 171.684 116.971C170.986 113.875 173.489 114.202 175.396 113.541C175.463 114.73 175.528 115.814 175.595 116.981C176.435 117.032 177.214 117.08 178.092 117.131V120.612C177.31 120.676 176.54 120.744 175.55 120.827C175.55 122.321 175.326 123.843 175.649 125.237C175.8 125.894 177.002 126.308 177.726 126.834C177.842 126.725 177.96 126.619 178.076 126.51V129.641C174.393 130.853 171.95 129.286 171.745 125.5C171.665 124.013 171.733 122.519 171.733 120.875L171.729 120.878Z" fill="white"/>
<path d="M127.279 117.112H130.795C130.894 117.577 130.99 118.022 131.058 118.333C132.199 117.747 133.289 117.182 134.657 116.48V121.045C134.25 121.096 133.84 121.141 133.433 121.205C131.827 121.458 130.994 122.433 130.955 124.212C130.917 126.023 130.945 127.837 130.945 129.77H127.275V117.115L127.279 117.112Z" fill="white"/>
<path d="M44.5605 117.118H48.1184V129.782H44.5605V117.118Z" fill="white"/>
<path d="M46.0756 115.897C44.8929 115.785 43.9217 114.65 44.005 113.48C44.0915 112.243 45.3192 111.189 46.5147 111.32C47.7648 111.461 48.7007 112.66 48.5405 113.919C48.3866 115.15 47.3096 116.009 46.0756 115.894V115.897Z" fill="white"/>
</svg>
