<svg viewBox="0 0 134 22" fill="none" xmlns="http://www.w3.org/2000/svg">
  <path fill-rule="evenodd" clip-rule="evenodd" d="M25.2192 18.7467L21.9434 18.7434L21.9554 7.50923L33.7486 7.52094L33.7371 18.7549L30.4612 18.7516L30.4707 9.70004L25.2289 9.69516L25.2192 18.7467Z" fill="#75AF26"></path>
  <path fill-rule="evenodd" clip-rule="evenodd" d="M38.2076 14.6667C38.21 12.3888 39.6593 11.9397 40.5728 11.9406C41.4664 11.9414 42.9151 12.3939 42.9124 14.6716C42.911 16.0841 42.2946 17.4316 40.5668 17.4297C38.7999 17.4279 38.206 16.079 38.2076 14.6667ZM35.3322 10.6031L35.3203 21.7244L38.3386 21.7271L38.3426 17.923C39.3539 18.9857 41.002 19.0665 41.3991 19.0669C44.2779 19.07 46.0468 17.2915 46.0492 14.7056C46.0522 12.0098 44.3075 10.3076 41.4684 10.3048C40.7531 10.3036 39.363 10.4153 38.211 11.5862H38.1508L38.1726 10.606L35.3322 10.6031Z" fill="#75AF26"></path>
  <path fill-rule="evenodd" clip-rule="evenodd" d="M53.5316 17.7949C52.4193 18.8057 51.3459 19.0774 50.1551 19.0764C46.8987 19.0729 46.7822 16.6978 46.7832 15.7189L46.7886 10.6156L49.8069 10.6183L49.8019 15.337C49.7999 16.9578 50.3749 17.4394 51.4866 17.4404C53.3925 17.4424 53.5336 15.789 53.5342 15.1959L53.5391 10.622L56.5569 10.6252L56.5485 18.7778L53.5306 18.7748L53.5316 17.7949Z" fill="#75AF26"></path>
  <path fill-rule="evenodd" clip-rule="evenodd" d="M60.8833 12.2668L62.5117 12.2683C63.3652 12.2693 64.0994 12.3977 64.099 13.0712C64.098 13.8093 62.9468 13.8253 62.4509 13.8249L60.8819 13.8233L60.8833 12.2668ZM57.868 10.626L57.8594 18.7798L63.8555 18.7857C66.0397 18.7876 67.5486 18.3697 67.5504 16.7028C67.5518 15.4189 66.8176 14.8566 65.1496 14.5655V14.5173C66.2416 14.3742 67.1946 13.7173 67.196 12.6095C67.198 10.6354 64.8165 10.6329 63.883 10.6319L57.868 10.626ZM60.8805 15.3479L62.7275 15.3499C64.1564 15.3512 64.4535 15.768 64.4531 16.3134C64.4525 16.6663 64.2538 17.1477 62.7649 17.1463L60.8785 17.1444L60.8805 15.3479Z" fill="#75AF26"></path>
  <path fill-rule="evenodd" clip-rule="evenodd" d="M74.8591 15.4262C74.8571 17.063 73.3879 17.4622 72.6527 17.4618C72.0977 17.4612 71.1045 17.2847 71.1053 16.5127C71.1063 15.5972 72.2382 15.4238 72.8741 15.344C74.0441 15.1837 73.946 15.232 74.86 14.912L74.8591 15.4262ZM71.3664 13.2723C71.368 12.0677 72.6776 11.9734 73.2146 11.9738C73.5527 11.9743 74.8035 11.9917 74.8422 13.0497L74.8418 13.2758C74.7812 14.0781 73.9866 13.9155 71.7625 14.1872C69.9359 14.4254 68.01 14.8739 68.0078 16.7339C68.0072 17.4091 68.3031 19.0945 71.5194 19.0978C72.7511 19.0988 74.1011 18.7954 74.8959 17.9926H74.9563L75.2137 18.7964L78.3893 18.7997V18.6561C77.8149 18.5423 77.7743 17.9951 77.7962 17.1141L77.86 13.39C77.8797 12.4446 77.7823 10.3414 73.2367 10.3368C72.1445 10.3358 68.6309 10.4285 68.4888 13.2693L71.3664 13.2723Z" fill="#75AF26"></path>
  <path fill-rule="evenodd" clip-rule="evenodd" d="M78.1973 12.2838L78.1993 10.646L87.8873 10.6558L87.8853 12.2936L84.5494 12.2903L84.5428 18.8061L81.5253 18.8031L81.5317 12.2873L78.1973 12.2838Z" fill="#75AF26"></path>
  <path fill-rule="evenodd" clip-rule="evenodd" d="M91.7369 13.9334L94.4565 13.9364C95.2493 13.937 96.8378 14.0195 96.8364 15.3678C96.8352 16.4276 95.6834 16.6333 94.3931 16.6322L91.7337 16.6294L91.7369 13.9334ZM91.7416 9.76148L99.2649 9.7691L99.2671 7.58649L88.4663 7.57536L88.4551 18.8095L95.0863 18.8163C98.3037 18.8197 100.369 17.7304 100.371 15.4359C100.375 11.841 96.2454 11.7565 95.0942 11.7555L91.739 11.7522L91.7416 9.76148Z" fill="#75AF26"></path>
  <path fill-rule="evenodd" clip-rule="evenodd" d="M107.795 15.4592C107.793 17.096 106.324 17.4952 105.589 17.4949C105.033 17.4939 104.042 17.3172 104.042 16.5454C104.044 15.6298 105.175 15.4569 105.81 15.3771C106.981 15.2162 106.882 15.2646 107.795 14.9451L107.795 15.4592ZM104.304 13.3053C104.305 12.1007 105.615 12.0062 106.15 12.0068C106.489 12.0068 107.74 12.0248 107.778 13.0828L107.778 13.3089C107.717 14.1112 106.923 13.9482 104.699 14.2203C102.872 14.4584 100.947 14.907 100.945 16.7669C100.944 17.4424 101.24 19.1276 104.456 19.1305C105.687 19.1317 107.038 18.8285 107.832 18.0252H107.893L108.15 18.8295L111.326 18.8324V18.6888C110.75 18.5748 110.71 18.0282 110.731 17.1468L110.796 13.4227C110.816 12.4773 110.718 10.3745 106.171 10.37C105.08 10.3688 101.566 10.461 101.424 13.3024L104.304 13.3053Z" fill="#75AF26"></path>
  <path fill-rule="evenodd" clip-rule="evenodd" d="M115.099 18.8363L112.082 18.8334L112.09 10.68L115.108 10.6829L115.104 13.7494L118.737 13.7533L118.741 10.687L121.76 10.6899L121.75 18.8429L118.732 18.8402L118.736 15.3901L115.103 15.3862L115.099 18.8363Z" fill="#75AF26"></path>
  <path fill-rule="evenodd" clip-rule="evenodd" d="M129.383 10.6971L132.739 10.7006L128.585 14.5157L132.927 18.8548L129.394 18.8515L126.142 15.284H126.083L126.08 18.8479L123.061 18.845L123.07 10.6914L126.088 10.6942L126.084 13.968H126.143L129.383 10.6971Z" fill="#75AF26"></path>
  <path fill-rule="evenodd" clip-rule="evenodd" d="M0 18.7486L7.56008 18.7558L7.56793 11.4254L0.00764783 11.4182L0 18.7486Z" fill="black"></path>
  <path fill-rule="evenodd" clip-rule="evenodd" d="M0.0291917 0L0.0195312 9.12513L2.01803 9.12708C7.27793 9.13235 9.94239 11.7222 9.93675 16.8235L9.93474 18.7607L19.3434 18.7699L19.3635 0.0191303L0.0291917 0ZM15.3617 3.89164L15.35 14.89L13.8075 14.8886C13.1478 9.44898 9.62699 6.02798 4.01992 5.37755L4.02133 3.88051L15.3617 3.89164Z" fill="#75AF26"></path>
</svg>