<svg version="1.1" id="Layer_1" xmlns="http://www.w3.org/2000/svg" xmlns:xlink="http://www.w3.org/1999/xlink" x="0px" y="0px"
	 viewBox="0 0 35 35" style="enable-background:new 0 0 35 35;" xml:space="preserve">
<style type="text/css">
	.st0{fill-rule:evenodd;clip-rule:evenodd;fill:#f91f2b;}
	.st1{fill-rule:evenodd;clip-rule:evenodd;fill:#FFFFFF;}
</style>
<g>
	<g>
		<g>
			<g>
				<path class="st0" d="M17.5,0.3c9.5,0,17.2,7.8,17.2,17.2c0,9.5-7.8,17.2-17.2,17.2C8,34.8,0.2,27.1,0.2,17.5
					C0.2,8.1,8,0.3,17.5,0.3"/>
				<path class="st1" d="M30.6,11.5h0.2c-0.1,0.5-0.3,0.8-0.6,1.1c-0.4,0.2-0.8,0.3-1.5,0.3h-0.6c-2.2-0.1-2.7,2.2-2.5,4
					c0.2,1.1,0.6,2.2,1.2,3c0.6,0.6,1.4,1,2.2,0.4c0.6-0.5,0.8-1.7,0.8-2.3c0-1.2-0.4-3-1.9-3c-0.4,0-0.8,0.2-1.2,0.6
					c-0.2,0.3-0.3,0.9-0.3,1.6h-0.3c-0.2-1.4,0.5-2.6,2-2.7c1.8,0,2.9,1.4,2.9,3.2s-1.1,3.5-2.9,3.5c-1,0-1.7-0.3-2.3-1.1
					c-0.6-0.7-0.8-1.8-0.8-3.2c0-1.8,0.3-2.9,0.8-3.7c0.6-0.8,1.3-1.2,2.4-1.2h0.9c0.6,0.1,1,0,1.2-0.1
					C30.4,11.8,30.6,11.7,30.6,11.5"/>
				<path class="st1" d="M18,14.5l2.2,4.9l2-4.5l0.2-0.4h1.7v0.2h-0.2c-0.2,0-0.5,0.2-0.5,0.5v3.7v1.5c0,0.3,0.2,0.5,0.5,0.5h0.2V21
					h-1.1h-1.2v-0.2h0.2c0.2,0,0.5-0.2,0.5-0.5v-1.5v-3.3l-2.5,5.5h-0.1l-2.4-5.6v4.9c0,0.3,0.2,0.5,0.4,0.5H18V21h-1.1h-0.6v-0.2
					h0.2c0.2,0,0.5-0.2,0.5-0.5v-5.1c0-0.3-0.1-0.5-0.5-0.5c-0.3,0-0.6,0.3-0.8,0.7l-2.3,5.1c-0.2,0.4-0.5,0.6-0.9,0.6L12,21
					c0,0-0.1-0.7-0.1-0.7c0.2,0.2,0.4,0.3,0.5,0.3c0.3,0.1,0.5,0,0.6-0.2l0.3-0.6l-2.1-4.3c-0.2-0.4-0.4-0.7-0.7-0.7v-0.2h1.2h0.9
					v0.2h-0.2c-0.2,0-0.2,0.3-0.1,0.5l1.6,3.4l1.5-3.2c0.2-0.3,0-0.6-0.2-0.6v-0.2H18z"/>
				<path class="st1" d="M8.5,18.9v-3.7V15h-3l0,0.3v3.7v1.5c0,0.3,0.2,0.5,0.4,0.5h0.2V21H5H3.9v-0.2H4c0.2,0,0.4-0.2,0.4-0.5v-1.5
					v-3.7c0-0.3-0.2-0.5-0.4-0.5H3.9v-0.2H5h0.2h1h1.7h0.8h0.3h1.1v0.2H10c-0.2,0-0.4,0.2-0.4,0.5v3.7v1.5c0,0.3,0.2,0.5,0.4,0.5
					h0.2V21H9.1H7.9v-0.2h0.2c0.2,0,0.4-0.2,0.4-0.5V18.9z"/>
			</g>
		</g>
	</g>
</g>
</svg>
