<svg xmlns="http://www.w3.org/2000/svg" xmlns:xlink="http://www.w3.org/1999/xlink" version="1.1" id="Layer_1" x="0px" y="0px" viewBox="0 0 650 190" style="enable-background:new 0 0 650 190;" xml:space="preserve">
<style type="text/css">
	.st0{fill:#FFF000;}
	.st1{fill-rule:evenodd;clip-rule:evenodd;}
</style>
<g>
	<path d="M13.2,15.5V176h160.5V15.5H13.2z M168.7,171.5h-151V20h151V171.5z"/>
	<path class="st0" d="M168.7,20h-151v151h151V20z"/>
	<path class="st1" d="M92.8,115l48.5,48l19-19l-48.5-48l9.5-9.5V68l7-7v15.5l6.5,6.5l23.5-23.5l6.5,6c0-4-1-18-12.5-29   c-12.5-12.5-25-5-29.5-0.5l-22.5,22.5l5.5,5.5L93.2,76.5L80.7,64l5.5-5.5L63.2,36c-4.5-4.5-17-11.5-29.5,0.5c-11,11-12,25-12,29   l6-6L51.2,83l6.5-6.5V61l7,7v18.5l9.5,9.5l-47.5,48l19,19L92.8,115z"/>
	<path class="st1" d="M217.3,28.5h1.5c5.5,0,12,1,12,8s-6,8-12,8h-1.5V28.5z M234.3,54.5c9.5-1.5,14.5-9.5,14.5-18.5   c0-14-10-20.5-23-20.5h-25.5V81h17V55.5l0,0l16,25.5h21.5L234.3,54.5z"/>
	<path class="st1" d="M282.8,48.5c6.5,0,10,4.5,10,10s-4,10-10,10c-6.5,0-10-4.5-10-10C272.3,53.5,276.3,48.5,282.8,48.5z    M308.3,36.5h-16v4c-3.5-4-8.5-6-14-6c-13,0-22.5,11-22.5,23.5c0,13,9.5,24,22.5,24c5,0,10.5-2,13.5-6.5l0,0v5h16v-44H308.3z"/>
	<path class="st1" d="M334.8,81h-16V36.5h16V81z M335.3,19.5c0,5-4,9-9,9s-9-4-9-9c0.5-5,4.5-9,9.5-9   C331.3,10.5,335.3,14.5,335.3,19.5z"/>
	<path class="st1" d="M362.3,81h-15.5V49.5h-5.5v-13h5.5V31c0-6,0-10.5,4.5-15.5c3.5-5,9.5-7.5,15.5-7.5c2.5,0,4.5,0.5,7,1.5V23   c-2-1-3.5-1.5-5.5-1.5c-4,0-5.5,2.5-5.5,7.5v7.5h11v13h-11V81H362.3z"/>
	<path class="st1" d="M396.3,81h-16V49.5h-5.5v-13h5.5V31c0-6,0-10.5,4.5-15.5c4-4.5,9.5-7,15.5-7c2.5,0,4.5,0.5,7,1.5v13.5   c-2-1-3.5-1.5-5.5-1.5c-4,0-5.5,2.5-5.5,7.5V37h11v13h-11V81L396.3,81z"/>
	<path class="st1" d="M425.3,52.5c1-4.5,5-7,9.5-7s8,3,9,7H425.3z M458.2,60c0-15-9-25-24.5-25c-14.5,0-25,9-25,24   c0,15.5,11,23.5,26,23.5c10,0,20.5-5,22.5-15h-15c-1.5,3-4,4-7.5,4c-6.5,0-10-3.5-10-10h33.5L458.2,60L458.2,60z"/>
	<path class="st1" d="M481.3,81h-16V36.5h16V81z M482.3,19.5c0,5-4,9-9,9s-9-4-9-9s4-9,9-9S482.3,14.5,482.3,19.5z"/>
	<path class="st1" d="M521.3,48c-2.5-1.5-6-2.5-8.5-2.5c-2,0-5,1-5,3c0,3,5,3.5,7,4c7.5,1.5,13,5,13,13c0,12-10.5,16.5-21,16.5   c-6.5,0-12.5-2-18-5l5.5-11c3.5,2.5,8.5,4.5,12.5,4.5c2,0,5-1,5-3.5c0-3.5-5-3.5-10-5s-10-4-10-12c0-11,10-16,19.5-16   c5,0,10,1,14.5,3L521.3,48z"/>
	<path class="st1" d="M549.3,52.5c1-4.5,5-7,9.5-7s8,3,9,7H549.3z M582.3,60c0-15-9-25-24.5-25c-14.5,0-25,9-25,24   c0,15.5,11,23.5,26,23.5c10,0,20.5-5,22.5-15h-15c-1.5,3-4,4-7.5,4c-6.5,0-10-3.5-10-10h33.5C582.2,61.5,582.2,60,582.3,60z"/>
	<path class="st1" d="M605.3,42.5c4-5.5,8.5-7.5,14.5-7.5c12,0,17,7.5,17,18.5V81h-16V59.5c0-4.5,0.5-12-7-12c-6.5,0-8.5,5-8.5,10.5   v23h-16V36h16V42.5L605.3,42.5z"/>
	<path class="st1" d="M222.3,149h1.5c5.5,0,14-1,13,7c-1,7.5-9.5,7-14.5,7h-2.5L222.3,149z M227.3,176c12,0,24.5-4.5,26.5-18.5   c1.5-9-1.5-15.5-10.5-17l0,0c5.5-3,8.5-7.5,9.5-13.5c2-12.5-5-17-17-17h-24.5l-10.5,66H227.3L227.3,176z M226.2,123.5h1   c4.5,0,10,0.5,9,6.5c-1,5.5-5.5,6.5-10,6.5h-2L226.2,123.5z"/>
	<path class="st1" d="M299.3,151.5h-14l10.5-21l0,0L299.3,151.5z M301.8,164.5l2.5,11.5h18l-14.5-66h-18.5l-35.5,66h18l6.5-11.5   H301.8z"/>
	<path class="st1" d="M338.2,110h17l25,40l0,0l6.5-40h17l-10.5,66h-16.5l-25-40.5l0,0l-6.5,40.5h-17L338.2,110z"/>
	<path class="st1" d="M453.2,110h21l-31,31l23,34.5h-22L426.7,147l0,0l-4.5,28.5h-17l10.5-66h17l-4,27l0,0L453.2,110z"/>
</g>
</svg>