<svg width="60" height="60" viewBox="0 0 60 60" fill="none" xmlns="http://www.w3.org/2000/svg">
<g clip-path="url(#clip0)">
<path d="M59.1211 20.625C59.6068 20.625 60 20.2313 60 19.7461V16.4131C60 15.9274 59.6068 15.5342 59.1211 15.5342H57.312L52.9037 7.5444C52.3563 6.55151 50.8173 7.40067 51.3647 8.3931L55.2965 15.5196H15.3516C14.2401 15.5196 14.2419 17.292 15.3516 17.292H58.2422V18.8672H1.75781V17.292H9.14062C10.2521 17.292 10.2502 15.5196 9.14062 15.5196H4.70947L12.2012 1.75781H47.704L49.037 4.17435C49.585 5.16724 51.124 4.31808 50.5765 3.32565L48.9926 0.454559C48.8379 0.17395 48.5431 0 48.2231 0H11.6789C11.3571 0 11.0609 0.175781 10.9071 0.458679L2.69989 15.5342H0.878906C0.393219 15.5342 0 15.9274 0 16.4131V19.7461C0 20.2313 0.393219 20.625 0.878906 20.625H2.51862V49.9677C1.01715 50.8136 0 52.4222 0 54.2647V59.1211C0 59.6063 0.393219 60 0.878906 60H59.1211C59.6068 60 60 59.6063 60 59.1211V54.2647C60 52.4222 58.9828 50.8136 57.4814 49.9677V20.625H59.1211ZM1.75781 54.2647C1.75781 52.5165 3.18054 51.0938 4.92874 51.0938H9.95407C11.7023 51.0938 13.125 52.5165 13.125 54.2647V58.2422H1.75781V54.2647ZM20.0391 58.2422V49.3359H23.7891V58.2422H20.0391ZM36.2695 58.2422V49.3359H40.0195V58.2422H36.2695ZM58.2422 58.2422H46.875V54.2647C46.875 52.5165 48.2977 51.0938 50.0459 51.0938H55.0713C56.8199 51.0938 58.2422 52.5165 58.2422 54.2647V58.2422ZM55.7236 49.3803C55.5098 49.352 55.2924 49.3359 55.0713 49.3359H50.0459C47.3282 49.3359 45.1172 51.5469 45.1172 54.2647V58.2422H41.7773V48.457C41.7773 47.9718 41.3841 47.5781 40.8984 47.5781H35.3906C34.9049 47.5781 34.5117 47.9718 34.5117 48.457V58.2422H30.8789V53.5547C30.8789 52.4208 29.1211 52.4208 29.1211 53.5547V58.2422H25.5469V48.457C25.5469 47.9718 25.1537 47.5781 24.668 47.5781H19.1602C18.6745 47.5781 18.2812 47.9718 18.2812 48.457V58.2422H14.8828V54.2647C14.8828 51.5469 12.6718 49.3359 9.95407 49.3359H4.92874C4.70764 49.3359 4.4902 49.352 4.27643 49.3803V20.625H29.1211V48.0469C29.1211 49.1808 30.8789 49.1808 30.8789 48.0469V20.625H55.7236V49.3803Z" fill="#C0A378"/>
<path d="M38.3597 3.54785C36.362 3.54785 34.7365 5.17108 34.7328 7.16785L34.6674 11.6869H33.6658C32.5323 11.6869 32.5323 13.4447 33.6658 13.4447H42.9749C44.1087 13.4447 44.1087 11.6869 42.9749 11.6869H41.9861V7.17471C41.9861 5.17474 40.3592 3.54785 38.3597 3.54785ZM36.4906 7.18753C36.4906 7.18341 36.4906 7.17883 36.4906 7.17471C36.4906 6.14429 37.3293 5.30612 38.3597 5.30612C39.3901 5.30612 40.2283 6.14429 40.2283 7.17471V11.6869H36.4252L36.4906 7.18753Z" fill="#C0A378"/>
<path d="M21.1331 3.54785C19.1354 3.54785 17.5099 5.17108 17.5063 7.16785L17.4408 11.6869H16.4392C15.3058 11.6869 15.3058 13.4447 16.4392 13.4447H25.7483C26.8822 13.4447 26.8822 11.6869 25.7483 11.6869H24.7595V7.17471C24.7595 5.17474 23.1326 3.54785 21.1331 3.54785ZM19.2641 7.18753C19.2641 7.18341 19.2641 7.17883 19.2641 7.17471C19.2641 6.14429 20.1027 5.30612 21.1331 5.30612C22.1635 5.30612 23.0017 6.14429 23.0017 7.17471V11.6869H19.1986L19.2641 7.18753Z" fill="#C0A378"/>
<path d="M24.6094 23.6719H19.1016C18.6159 23.6719 18.2227 24.0656 18.2227 24.5508V31.6992C18.2227 32.1844 18.6159 32.5781 19.1016 32.5781H24.6094C25.0951 32.5781 25.4883 32.1844 25.4883 31.6992V24.5508C25.4883 24.0656 25.0951 23.6719 24.6094 23.6719ZM23.7305 30.8203H19.9805V25.4297H23.7305V30.8203Z" fill="#C0A378"/>
<path d="M14.4141 23.6719H8.90625C8.42056 23.6719 8.02734 24.0656 8.02734 24.5508V31.6992C8.02734 32.1844 8.42056 32.5781 8.90625 32.5781H14.4141C14.8997 32.5781 15.293 32.1844 15.293 31.6992V24.5508C15.293 24.0656 14.8997 23.6719 14.4141 23.6719ZM13.5352 30.8203H9.78516V25.4297H13.5352V30.8203Z" fill="#C0A378"/>
<path d="M24.6094 35.625H19.1016C18.6159 35.625 18.2227 36.0187 18.2227 36.5039V43.6523C18.2227 44.1376 18.6159 44.5312 19.1016 44.5312H24.6094C25.0951 44.5312 25.4883 44.1376 25.4883 43.6523V36.5039C25.4883 36.0187 25.0951 35.625 24.6094 35.625ZM23.7305 42.7734H19.9805V37.3828H23.7305V42.7734Z" fill="#C0A378"/>
<path d="M14.4141 35.625H8.90625C8.42056 35.625 8.02734 36.0187 8.02734 36.5039V43.6523C8.02734 44.1376 8.42056 44.5312 8.90625 44.5312H14.4141C14.8997 44.5312 15.293 44.1376 15.293 43.6523V36.5039C15.293 36.0187 14.8997 35.625 14.4141 35.625ZM13.5352 42.7734H9.78516V37.3828H13.5352V42.7734Z" fill="#C0A378"/>
<path d="M45.5859 32.5781H51.0938C51.5794 32.5781 51.9727 32.1844 51.9727 31.6992V24.5508C51.9727 24.0656 51.5794 23.6719 51.0938 23.6719H45.5859C45.1003 23.6719 44.707 24.0656 44.707 24.5508V31.6992C44.707 32.1844 45.1003 32.5781 45.5859 32.5781ZM46.4648 25.4297H50.2148V30.8203H46.4648V25.4297Z" fill="#C0A378"/>
<path d="M35.3906 32.5781H40.8984C41.3841 32.5781 41.7773 32.1844 41.7773 31.6992V24.5508C41.7773 24.0656 41.3841 23.6719 40.8984 23.6719H35.3906C34.9049 23.6719 34.5117 24.0656 34.5117 24.5508V31.6992C34.5117 32.1844 34.9049 32.5781 35.3906 32.5781ZM36.2695 25.4297H40.0195V30.8203H36.2695V25.4297Z" fill="#C0A378"/>
<path d="M45.5859 44.5312H51.0938C51.5794 44.5312 51.9727 44.1376 51.9727 43.6523V36.5039C51.9727 36.0187 51.5794 35.625 51.0938 35.625H45.5859C45.1003 35.625 44.707 36.0187 44.707 36.5039V43.6523C44.707 44.1376 45.1003 44.5312 45.5859 44.5312ZM46.4648 37.3828H50.2148V42.7734H46.4648V37.3828Z" fill="#C0A378"/>
<path d="M35.3906 44.5312H40.8984C41.3841 44.5312 41.7773 44.1376 41.7773 43.6523V36.5039C41.7773 36.0187 41.3841 35.625 40.8984 35.625H35.3906C34.9049 35.625 34.5117 36.0187 34.5117 36.5039V43.6523C34.5117 44.1376 34.9049 44.5312 35.3906 44.5312ZM36.2695 37.3828H40.0195V42.7734H36.2695V37.3828Z" fill="#C0A378"/>
<rect x="36" y="27" width="7" height="7" rx="2" fill="#C0A378" fill-opacity="0.3"/>
<rect x="10" y="27" width="7" height="7" rx="2" fill="#C0A378" fill-opacity="0.3"/>
<rect x="36" y="40" width="7" height="7" rx="2" fill="#C0A378" fill-opacity="0.3"/>
<rect x="10" y="40" width="7" height="7" rx="2" fill="#C0A378" fill-opacity="0.3"/>
<rect x="46" y="27" width="7" height="7" rx="2" fill="#C0A378" fill-opacity="0.3"/>
<rect x="20" y="27" width="7" height="7" rx="2" fill="#C0A378" fill-opacity="0.3"/>
<rect x="46" y="40" width="7" height="7" rx="2" fill="#C0A378" fill-opacity="0.3"/>
<rect x="20" y="40" width="7" height="7" rx="2" fill="#C0A378" fill-opacity="0.3"/>
<rect x="20" y="52" width="7" height="7" rx="2" fill="#C0A378" fill-opacity="0.3"/>
<rect x="36" y="52" width="7" height="7" rx="2" fill="#C0A378" fill-opacity="0.3"/>
</g>
<defs>
<clipPath id="clip0">
<rect width="60" height="60" fill="white"/>
</clipPath>
</defs>
</svg>
