<svg width="60" height="60" viewBox="0 0 60 60" fill="none" xmlns="http://www.w3.org/2000/svg">
<g clip-path="url(#clip0)">
<path d="M14.738 18.0356C6.62627 18.0356 0.0268478 24.6351 0.0268478 32.7468C0.0268478 37.7832 2.42263 43.1982 7.14776 48.8415C7.84983 49.68 8.54944 50.4569 9.22081 51.1658C6.16995 51.9985 4.33818 53.4947 4.33818 55.2409C4.33818 58.3322 9.69624 60.0002 14.7375 60.0002C19.779 60.0002 25.1369 58.332 25.1369 55.2409C25.1369 53.4961 23.3057 51.9996 20.2568 51.1665C21.4749 49.8806 22.7855 48.3677 24.0291 46.6802C24.3174 46.2889 24.234 45.7382 23.8428 45.45C23.4519 45.162 22.9008 45.2452 22.6126 45.6364C21.1111 47.6739 19.486 49.4646 18.0679 50.8869C17.9054 50.9698 17.7694 51.1016 17.6842 51.2676C16.4139 52.516 15.3449 53.4422 14.7384 53.9482C14.1385 53.4471 13.0858 52.5335 11.8318 51.3014C11.7418 51.1041 11.5837 50.9495 11.3908 50.8632C7.40557 46.8548 1.78642 39.9295 1.78642 32.747C1.78642 25.6056 7.59647 19.7956 14.7379 19.7956C21.8793 19.7956 27.6894 25.6056 27.6894 32.747C27.6894 35.8658 26.6267 39.2337 24.5309 42.7574C24.2826 43.1752 24.4197 43.7151 24.8374 43.9634C25.255 44.2118 25.795 44.0746 26.0433 43.657C28.3032 39.8573 29.4491 36.1867 29.4491 32.747C29.4492 24.6351 22.8497 18.0356 14.738 18.0356ZM14.1995 55.7782C14.358 55.9009 14.548 55.9622 14.738 55.9622C14.928 55.9622 15.1179 55.9009 15.2765 55.7782C15.3844 55.6946 16.8547 54.5481 18.8144 52.6319C21.7818 53.2371 23.3774 54.4023 23.3774 55.241C23.3774 55.8674 22.5189 56.6063 21.1369 57.1694C19.4419 57.8602 17.1693 58.2408 14.7377 58.2408C9.46351 58.2408 6.09788 56.464 6.09788 55.241C6.09788 54.4011 7.69397 53.2365 10.663 52.6313C12.6337 54.5588 14.106 55.7058 14.1995 55.7782Z" fill="#C0A378"/>
<path d="M14.7385 26.3501C13.3469 26.3501 12.0236 26.7894 10.9117 27.6206C10.5226 27.9116 10.4429 28.463 10.7338 28.8522C11.0249 29.2412 11.5763 29.3208 11.9653 29.0301C12.7705 28.4281 13.7295 28.1098 14.7383 28.1098C17.295 28.1098 19.375 30.1898 19.375 32.7466C19.375 35.3032 17.295 37.3832 14.7383 37.3832C12.1817 37.3832 10.1017 35.3031 10.1017 32.7466C10.1017 32.3103 10.162 31.8789 10.281 31.4648C10.415 30.9978 10.1452 30.5105 9.67817 30.3763C9.2113 30.2427 8.72391 30.5123 8.58973 30.9792C8.42555 31.5515 8.34223 32.146 8.34223 32.7466C8.34223 36.2734 11.2116 39.1429 14.7386 39.1429C18.2655 39.1429 21.1349 36.2736 21.1349 32.7466C21.1348 29.2196 18.2653 26.3501 14.7385 26.3501Z" fill="#C0A378"/>
<path d="M53.0811 25.5611C53.5287 25.0808 53.9899 24.5632 54.4523 24.0108C58.1154 19.6359 59.9727 15.4301 59.9727 11.5101C59.9727 5.16353 54.8093 0 48.4626 0C43.8263 0 39.6634 2.7593 37.8575 7.02962C37.6681 7.47716 37.8775 7.99349 38.3249 8.18263C38.7723 8.37177 39.2888 8.16259 39.4779 7.71517C41.0082 4.09735 44.5348 1.75957 48.4626 1.75957C53.8391 1.75957 58.2131 6.13372 58.2131 11.5102C58.2131 18.7809 50.5797 25.7466 48.4623 27.5385C47.9956 27.1442 47.2611 26.4987 46.3999 25.6545C46.314 25.4842 46.1752 25.3492 46.0086 25.2657C42.9707 22.207 38.7121 16.9491 38.7121 11.5102C38.7121 11.0242 38.3184 10.6303 37.8323 10.6303C37.3464 10.6303 36.9524 11.0242 36.9524 11.5102C36.9524 15.4301 38.8097 19.6359 42.4729 24.0109C42.9352 24.563 43.396 25.0803 43.8434 25.5605C41.5754 26.242 40.266 27.4019 40.266 28.7986C40.266 29.9766 41.2216 31.0148 42.9569 31.7218C44.4417 32.3268 46.3969 32.6601 48.4625 32.6601C50.5279 32.6601 52.4832 32.3268 53.9681 31.7218C55.703 31.0147 56.6586 29.9765 56.6586 28.7985C56.6585 27.4043 55.3482 26.2434 53.0811 25.5611ZM48.4624 30.9003C44.2976 30.9003 42.0257 29.5119 42.0257 28.7984C42.0257 28.3336 43.0592 27.4831 45.2661 27.0139C46.751 28.4587 47.8531 29.3172 47.9242 29.3724C48.0828 29.4951 48.2728 29.5564 48.4627 29.5564C48.6527 29.5564 48.8425 29.4951 49.0012 29.3724C49.0723 29.3174 50.1742 28.4588 51.6591 27.0141C52.6423 27.2238 53.4941 27.5309 54.0901 27.8937C54.5967 28.2024 54.8991 28.5406 54.8991 28.7984C54.8989 29.5119 52.627 30.9003 48.4624 30.9003Z" fill="#C0A378"/>
<path d="M48.4626 6.39014C45.6397 6.39014 43.3429 8.68678 43.3429 11.51C43.3429 14.3329 45.6396 16.6295 48.4626 16.6295C51.2857 16.6295 53.5823 14.333 53.5823 11.51C53.5823 8.6869 51.2857 6.39014 48.4626 6.39014ZM48.4628 14.8698C46.6098 14.8698 45.1026 13.3626 45.1026 11.5098C45.1026 9.6571 46.6099 8.14971 48.4628 8.14971C50.3155 8.14971 51.8229 9.65698 51.8229 11.5098C51.8228 13.3626 50.3155 14.8698 48.4628 14.8698Z" fill="#C0A378"/>
<path d="M37.0497 27.9189H36.648C36.3555 27.9189 36.0616 27.9383 35.774 27.9766C35.2925 28.0407 34.9539 28.483 35.0179 28.9648C35.0769 29.4072 35.4547 29.7288 35.889 29.7288C35.9276 29.7288 35.9668 29.7263 36.0062 29.7211C36.217 29.6931 36.433 29.6789 36.6481 29.6789H37.0497V29.6788C37.5357 29.6788 37.9296 29.285 37.9296 28.7989C37.9296 28.3128 37.5357 27.9189 37.0497 27.9189Z" fill="#C0A378"/>
<path d="M34.141 54.3159C34.1396 54.3159 34.1383 54.3159 34.1369 54.3159L32.9749 54.3212C32.489 54.3234 32.0969 54.7192 32.099 55.205C32.1011 55.6896 32.4947 56.0809 32.9787 56.0809C32.9801 56.0809 32.9814 56.0809 32.9828 56.0809L34.1449 56.0756C34.6307 56.0734 35.0228 55.6776 35.0207 55.1918C35.0186 54.7071 34.6251 54.3159 34.141 54.3159Z" fill="#C0A378"/>
<path d="M38.0938 39.3149H36.9317C36.4458 39.3149 36.0519 39.7089 36.0519 40.1948C36.0519 40.6808 36.4456 41.0746 36.9317 41.0746H38.0938C38.5798 41.0746 38.9736 40.6809 38.9736 40.1948C38.9736 39.7089 38.5799 39.3149 38.0938 39.3149Z" fill="#C0A378"/>
<path d="M33.4318 29.7114C33.1024 29.3544 32.5459 29.3319 32.1885 29.6612C31.8605 29.9637 31.5621 30.3008 31.3018 30.6634C31.0183 31.0582 31.1085 31.608 31.5032 31.8914C31.6585 32.003 31.838 32.0567 32.0158 32.0567C32.2894 32.0567 32.5592 31.9293 32.7311 31.69C32.9221 31.4241 33.141 31.1766 33.3816 30.9546C33.7388 30.6252 33.7612 30.0686 33.4318 29.7114Z" fill="#C0A378"/>
<path d="M38.7894 54.2949C38.788 54.2949 38.7867 54.2949 38.7853 54.2949L37.6234 54.3002C37.1375 54.3023 36.7454 54.6982 36.7475 55.184C36.7496 55.6686 37.1432 56.0599 37.6272 56.0599C37.6286 56.0599 37.6299 56.0599 37.6313 56.0599L38.7932 56.0546C39.2791 56.0525 39.6712 55.6566 39.6691 55.1708C39.6669 54.6862 39.2734 54.2949 38.7894 54.2949Z" fill="#C0A378"/>
<path d="M29.4928 54.3374C29.4914 54.3374 29.4901 54.3374 29.4887 54.3374L28.3266 54.3427C27.8408 54.3449 27.4487 54.7406 27.4508 55.2265C27.453 55.7111 27.8463 56.1024 28.3305 56.1024C28.3319 56.1024 28.3332 56.1024 28.3346 56.1024L29.4966 56.0971C29.9825 56.0949 30.3746 55.6991 30.3725 55.2133C30.3704 54.7286 29.9769 54.3374 29.4928 54.3374Z" fill="#C0A378"/>
<path d="M34.0816 38.5753C33.8052 38.4009 33.5451 38.1973 33.309 37.9703C32.9587 37.6334 32.4016 37.6445 32.0649 37.9944C31.728 38.3446 31.7389 38.9016 32.089 39.2383C32.4111 39.5481 32.7656 39.8257 33.1427 40.0636C33.2885 40.1556 33.4508 40.1994 33.6113 40.1994C33.9034 40.1994 34.1889 40.0542 34.3564 39.7888C34.6157 39.3779 34.4926 38.8345 34.0816 38.5753Z" fill="#C0A378"/>
<path d="M31.9188 35.4244C31.8597 35.1212 31.8297 34.8092 31.8297 34.497L31.83 34.4481C31.8357 33.9623 31.4464 33.5638 30.9604 33.5582C30.957 33.5581 30.9535 33.5581 30.95 33.5581C30.4688 33.5581 30.076 33.9453 30.0704 34.4278L30.07 34.4971C30.07 34.9221 30.1109 35.3473 30.1915 35.7611C30.2733 36.1812 30.6416 36.4727 31.0542 36.4727C31.1098 36.4727 31.1666 36.4674 31.2233 36.4563C31.7003 36.3633 32.0116 35.9014 31.9188 35.4244Z" fill="#C0A378"/>
<path d="M42.7423 39.3149H41.5802C41.0942 39.3149 40.7004 39.7089 40.7004 40.1948C40.7004 40.6808 41.0942 41.0746 41.5802 41.0746H42.7423C43.2282 41.0746 43.6221 40.6809 43.6221 40.1948C43.6221 39.7089 43.2282 39.3149 42.7423 39.3149Z" fill="#C0A378"/>
<path d="M56.8681 41.1066C56.5291 40.839 56.1667 40.596 55.7909 40.3845C55.368 40.1459 54.8312 40.2958 54.5926 40.7192C54.3541 41.1424 54.5039 41.6792 54.9273 41.9175C55.2237 42.0847 55.5099 42.2765 55.7775 42.4877C55.9392 42.6154 56.1311 42.6771 56.3221 42.6771C56.5821 42.6771 56.8396 42.5623 57.0133 42.3424C57.3145 41.961 57.2496 41.4076 56.8681 41.1066Z" fill="#C0A378"/>
<path d="M53.6022 54.9252C53.5354 54.4439 53.0906 54.107 52.6102 54.174C52.3221 54.2139 52.027 54.2348 51.7327 54.236L51.5681 54.2368C51.0821 54.2393 50.6901 54.6352 50.6925 55.1209C50.6949 55.6054 51.0883 55.9965 51.5722 55.9965C51.5737 55.9965 51.5751 55.9965 51.5765 55.9965L51.7408 55.9957C52.1124 55.9941 52.486 55.9677 52.851 55.9172C53.3326 55.8506 53.6688 55.4064 53.6022 54.9252Z" fill="#C0A378"/>
<path d="M57.4853 52.4509C57.15 52.0988 56.593 52.0853 56.2414 52.4206C55.9945 52.6558 55.7273 52.8735 55.4471 53.0678C55.0479 53.3446 54.9486 53.8928 55.2253 54.2923C55.3963 54.5388 55.6704 54.671 55.9492 54.671C56.1222 54.671 56.2968 54.6201 56.4497 54.5142C56.8043 54.2682 57.1426 53.9926 57.4552 53.6948C57.8071 53.3595 57.8204 52.8025 57.4853 52.4509Z" fill="#C0A378"/>
<path d="M59.1976 48.1779C58.7208 48.0881 58.2603 48.4021 58.1703 48.8797C58.1071 49.2145 58.0173 49.5467 57.9031 49.8673C57.7399 50.3249 57.9787 50.8283 58.4364 50.9915C58.534 51.0263 58.6339 51.0428 58.7319 51.0428C59.0933 51.0428 59.4322 50.8183 59.5607 50.4583C59.7056 50.0517 59.8197 49.6301 59.8997 49.2053C59.9894 48.7278 59.6751 48.2677 59.1976 48.1779Z" fill="#C0A378"/>
<path d="M59.7203 45.3499C59.601 44.9345 59.4479 44.5253 59.2649 44.133C59.0594 43.6927 58.5362 43.5023 58.0955 43.7077C57.6552 43.9132 57.4648 44.4367 57.6702 44.8771C57.8143 45.1859 57.935 45.5084 58.0289 45.8353C58.1397 46.2212 58.4917 46.4727 58.8742 46.4727C58.9547 46.4727 59.0363 46.4616 59.1174 46.4384C59.5844 46.3042 59.8542 45.8169 59.7203 45.3499Z" fill="#C0A378"/>
<path d="M47.3906 39.3149H46.2286C45.7426 39.3149 45.3488 39.7089 45.3488 40.1948C45.3488 40.6808 45.7425 41.0746 46.2286 41.0746H47.3906C47.8766 41.0746 48.2705 40.6809 48.2705 40.1948C48.2705 39.7089 47.8766 39.3149 47.3906 39.3149Z" fill="#C0A378"/>
<path d="M43.4378 54.2739C43.4364 54.2739 43.4351 54.2739 43.4337 54.2739L42.2716 54.2792C41.7858 54.2813 41.3937 54.6772 41.3958 55.163C41.398 55.6476 41.7915 56.0389 42.2755 56.0389C42.2769 56.0389 42.2782 56.0389 42.2796 56.0389L43.4416 56.0336C43.9275 56.0314 44.3196 55.6356 44.3175 55.1498C44.3154 54.6652 43.9217 54.2739 43.4378 54.2739Z" fill="#C0A378"/>
<path d="M52.0776 39.3233C51.9532 39.3176 51.8271 39.3149 51.7031 39.3149H50.8768C50.3908 39.3149 49.997 39.7089 49.997 40.1948C49.997 40.6808 50.3907 41.0746 50.8768 41.0746H51.7031V41.0745C51.8026 41.0745 51.9015 41.0767 51.9998 41.0811C52.0131 41.0818 52.0263 41.082 52.0394 41.082C52.5074 41.082 52.8969 40.7133 52.9177 40.2412C52.9391 39.7556 52.563 39.3447 52.0776 39.3233Z" fill="#C0A378"/>
<path d="M48.086 54.2524C48.0846 54.2524 48.0833 54.2524 48.0819 54.2524L46.9198 54.2577C46.434 54.2598 46.0419 54.6557 46.044 55.1415C46.0462 55.6261 46.4397 56.0174 46.9237 56.0174C46.9251 56.0174 46.9265 56.0174 46.9278 56.0174L48.0898 56.0121C48.5757 56.0099 48.9678 55.6142 48.9657 55.1283C48.9636 54.6436 48.5701 54.2524 48.086 54.2524Z" fill="#C0A378"/>
<path fill-rule="evenodd" clip-rule="evenodd" d="M15.491 56.1345C16.2627 57.1337 17.7373 57.1337 18.509 56.1345C21.9339 51.6999 30 40.6554 30 35C30 27.8203 24.1797 22 17 22C9.8203 22 4 27.8203 4 35C4 40.6554 12.0661 51.6999 15.491 56.1345ZM16.9161 40.6229C20.068 40.6229 22.6231 38.0677 22.6231 34.9158C22.6231 31.7639 20.068 29.2087 16.9161 29.2087C13.7641 29.2087 11.209 31.7639 11.209 34.9158C11.209 38.0677 13.7641 40.6229 16.9161 40.6229Z" fill="#C0A378" fill-opacity="0.3"/>
<path fill-rule="evenodd" clip-rule="evenodd" d="M48.2382 29.1834C49.0028 30.229 50.5311 30.229 51.2957 29.1834C54.0436 25.4256 59.534 17.3899 59.534 13.1762C59.534 7.55603 55.1611 3 49.767 3C44.3728 3 40 7.55603 40 13.1762C40 17.3899 45.4904 25.4256 48.2382 29.1834ZM49.7039 17.5778C52.072 17.5778 53.9917 15.5776 53.9917 13.1103C53.9917 10.6431 52.072 8.64292 49.7039 8.64292C47.3359 8.64292 45.4162 10.6431 45.4162 13.1103C45.4162 15.5776 47.3359 17.5778 49.7039 17.5778Z" fill="#C0A378" fill-opacity="0.3"/>
</g>
<defs>
<clipPath id="clip0">
<rect width="60" height="60" fill="white"/>
</clipPath>
</defs>
</svg>
