<svg width="60" height="60" viewBox="0 0 60 60" fill="none" xmlns="http://www.w3.org/2000/svg">
<g clip-path="url(#clip0)">
<circle cx="15" cy="35" r="12" fill="#C0A378" fill-opacity="0.3"/>
<path d="M59.1211 58.2426H51.2988V54.5858H54.0919C54.5774 54.5858 54.9708 54.1924 54.9708 53.7069V51.6462C54.9708 50.1286 53.7361 48.8939 52.2185 48.8939H48.791V46.6778H53.0314C54.1009 46.6778 54.9709 45.8077 54.9709 44.7382V40.0566C54.9709 38.9871 54.1009 38.1171 53.0314 38.1171H27.3886C26.3193 38.1171 25.4491 38.9871 25.4491 40.0566V44.7382C25.4491 45.8077 26.3191 46.6778 27.3886 46.6778H31.629V48.8939H28.2014C26.6838 48.8939 25.4491 50.1286 25.4491 51.6462V53.7069C25.4491 54.1924 25.8427 54.5858 26.328 54.5858H29.1211V58.2426H12.8543V43.7148C19.0487 43.2633 23.9508 38.0794 23.9508 31.7718C23.9508 25.1685 18.5787 19.7964 11.9754 19.7964C10.1263 19.7964 8.35207 20.2074 6.70195 21.0181C6.26625 21.2321 6.0866 21.7587 6.30059 22.1944C6.51457 22.6301 7.04133 22.8095 7.47691 22.5958C8.88387 21.9047 10.3973 21.5542 11.9754 21.5542C17.6094 21.5542 22.193 26.1378 22.193 31.7718C22.193 37.1097 18.0783 41.504 12.8543 41.9512V40.5074L15.5618 38.267C15.9357 37.9575 15.9881 37.4036 15.6786 37.0295C15.3693 36.6556 14.8152 36.6032 14.4411 36.9127L12.8542 38.2259V37.5899C12.8542 37.1044 12.4607 36.711 11.9753 36.711C11.4899 36.711 11.0964 37.1044 11.0964 37.5899V40.0951V40.0961V41.9513C5.8725 41.504 1.75781 37.1097 1.75781 31.7718C1.75781 29.0163 2.83875 26.4328 4.80141 24.4971C5.14699 24.1562 5.15086 23.5998 4.80996 23.2542C4.46906 22.9087 3.91254 22.9048 3.56707 23.2457C1.26691 25.5142 0 28.5422 0 31.7718C0 38.0794 4.90207 43.2633 11.0965 43.7148V58.2426H0.878906C0.393516 58.2426 0 58.636 0 59.1215C0 59.607 0.393516 60.0004 0.878906 60.0004H59.1211C59.6066 60.0004 60 59.607 60 59.1215C60 58.636 59.6066 58.2426 59.1211 58.2426ZM27.2071 44.7382V40.0566C27.2071 39.9565 27.2885 39.8749 27.3887 39.8749H53.0314C53.1315 39.8749 53.2131 39.9564 53.2131 40.0566V44.7382C53.2131 44.8384 53.1316 44.92 53.0314 44.92H27.3886C27.2885 44.92 27.2071 44.8385 27.2071 44.7382ZM33.3868 46.6778H47.0332V48.8939H33.3868V46.6778ZM30.879 54.5858H33.7178C34.2033 54.5858 34.5967 54.1924 34.5967 53.7069C34.5967 53.2214 34.2033 52.828 33.7178 52.828H27.2071V51.6462C27.2071 51.0978 27.6532 50.6517 28.2015 50.6517H52.2185C52.767 50.6517 53.213 51.0979 53.213 51.6462V52.828H37.2319C36.7464 52.828 36.353 53.2214 36.353 53.7069C36.353 54.1924 36.7464 54.5858 37.2319 54.5858H49.541V58.2426H30.879V54.5858Z" fill="#C0A378"/>
<path d="M14.4669 10.7399C14.8754 10.4777 14.9942 9.9341 14.732 9.52547C14.4934 9.15375 14.3674 8.72332 14.3674 8.28094C14.3674 7.00723 15.4037 5.97094 16.6774 5.97094C17.6499 5.97094 18.5238 6.5857 18.8521 7.5007C18.9834 7.8668 19.3405 8.10246 19.7281 8.08148C20.1163 8.05992 20.4443 7.78582 20.5344 7.40754C20.9386 5.70937 22.4413 4.52344 24.1888 4.52344C26.2608 4.52344 27.9464 6.20906 27.9464 8.28105C27.9464 8.76059 27.8563 9.22934 27.6785 9.67406C27.4984 10.1249 27.7178 10.6362 28.1685 10.8164C28.2755 10.8592 28.3858 10.8795 28.4944 10.8795C28.8434 10.8795 29.1734 10.6703 29.3108 10.3264C29.5719 9.67324 29.7042 8.98512 29.7042 8.28105C29.7042 5.2398 27.23 2.76562 24.1888 2.76562C22.2348 2.76562 20.4893 3.77613 19.5061 5.35992C18.7623 4.64145 17.7541 4.21324 16.6774 4.21324C14.4343 4.21324 12.6096 6.03809 12.6096 8.28105C12.6096 9.0607 12.8319 9.81926 13.2525 10.4749C13.5147 10.8832 14.0583 11.0018 14.4669 10.7399Z" fill="#C0A378"/>
<path d="M34.479 15.9715C34.8875 15.7093 35.0061 15.1656 34.744 14.757C34.6171 14.5591 34.5499 14.3299 34.5499 14.0944C34.5499 13.4156 35.1021 12.8634 35.7809 12.8634C36.2991 12.8634 36.7648 13.191 36.9397 13.6787C37.0711 14.0448 37.4281 14.2807 37.8157 14.2594C38.204 14.2378 38.532 13.9637 38.6221 13.5854C38.8575 12.5965 39.7328 11.9058 40.7506 11.9058C41.9575 11.9058 42.9393 12.8876 42.9393 14.0945C42.9393 14.3737 42.8868 14.6467 42.7833 14.9059C42.6033 15.3567 42.8227 15.868 43.2735 16.0481C43.3805 16.0909 43.4907 16.111 43.5993 16.111C43.9482 16.111 44.2784 15.9017 44.4157 15.5579C44.6025 15.0904 44.6971 14.5981 44.6971 14.0945C44.6971 11.9184 42.9267 10.1479 40.7506 10.1479C39.4731 10.1479 38.3202 10.7516 37.594 11.7203C37.0838 11.331 36.4504 11.1057 35.7809 11.1057C34.1329 11.1057 32.7921 12.4465 32.7921 14.0945C32.7921 14.6674 32.9556 15.2249 33.2647 15.7066C33.5269 16.1151 34.0704 16.2336 34.479 15.9715Z" fill="#C0A378"/>
<path d="M52.8641 9.53145C53.303 9.73828 53.8269 9.55043 54.0339 9.11145C54.2411 8.67234 54.0529 8.14863 53.6139 7.94156C52.4815 7.40754 51.7499 6.25453 51.7499 5.00402C51.75 3.21398 53.2061 1.75781 54.9961 1.75781C56.7861 1.75781 58.2422 3.21398 58.2422 5.00402C58.2422 6.25453 57.5106 7.40754 56.3782 7.94156C55.9392 8.14863 55.751 8.67234 55.9582 9.11145C56.1081 9.42938 56.4241 9.6157 56.7537 9.6157C56.8793 9.6157 57.0068 9.58863 57.128 9.53156C58.8727 8.70867 60 6.93152 60 5.00402C60 2.24473 57.7553 0 54.9961 0C52.2369 0 49.9922 2.24473 49.9922 5.00402C49.9922 6.93152 51.1195 8.70867 52.8641 9.53145Z" fill="#C0A378"/>
</g>
<defs>
<clipPath id="clip0">
<rect width="60" height="60" fill="white"/>
</clipPath>
</defs>
</svg>
