<svg width="61" height="60" viewBox="0 0 61 60" fill="none" xmlns="http://www.w3.org/2000/svg">
<g clip-path="url(#clip0)">
<path d="M18.5 35.5C13.6224 35.5 11.5328 38.2106 10.8147 40.533C10.4884 41.5883 11.3954 42.5 12.5 42.5H24.1378C25.187 42.5 26.0779 41.6751 25.8526 40.6503C25.3367 38.3028 23.4599 35.5 18.5 35.5Z" fill="#C0A378" fill-opacity="0.3"/>
<path d="M43.5 44C37.9909 44 35.6105 48.157 34.8166 51.4192C34.5456 52.5325 35.4623 53.5 36.6082 53.5H56.4994C57.6039 53.5 58.5428 52.5786 58.1933 51.5307C56.9767 47.8832 52.4388 46.7131 50 47C49 46 46.3 44 43.5 44Z" fill="#C0A378" fill-opacity="0.3"/>
<path d="M15.1909 32.1733C11.3472 32.1733 8.16951 35.0257 7.72599 38.6914H7.67712C7.18334 38.6914 6.78357 39.0847 6.78357 39.5703C6.78357 40.0556 7.18334 40.4492 7.67712 40.4492H24.7961C25.2895 40.4492 25.6897 40.0556 25.6897 39.5703C25.6897 39.0847 25.2895 38.6914 24.7961 38.6914H22.6563C22.2127 35.0257 19.035 32.1733 15.1909 32.1733ZM15.1909 33.9312C18.0484 33.9312 20.4238 35.998 20.8538 38.6914H9.52799C9.95848 35.998 12.3338 33.9312 15.1909 33.9312Z" fill="#C0A378"/>
<path d="M35.2051 43.6298C34.8281 43.3163 34.2645 43.3629 33.9457 43.7337C32.6082 45.2906 31.7961 47.2182 31.6127 49.2383H30.9672C30.4739 49.2383 30.0737 49.632 30.0737 50.1172C30.0737 50.6025 30.4739 50.9962 30.9672 50.9962H55.2561C55.7499 50.9962 56.1496 50.6025 56.1496 50.1172C56.1496 49.632 55.7499 49.2383 55.2561 49.2383H54.8973C54.5021 46.7975 52.4884 44.8823 49.9757 44.5907C48.0997 41.8491 45.0081 40.2231 41.6317 40.2231C40.3179 40.2231 39.0395 40.469 37.8327 40.9533C37.3757 41.1368 37.1565 41.6495 37.3431 42.0991C37.5297 42.5486 38.051 42.7642 38.508 42.5806C39.4993 42.1828 40.5506 41.981 41.6317 41.981C44.0471 41.981 46.2856 42.9935 47.8433 44.7413C45.7118 45.3043 44.0741 47.063 43.7213 49.2383H33.4101C33.5879 47.6343 34.2459 46.1082 35.3107 44.8685C35.6295 44.4977 35.5821 43.9429 35.2051 43.6298ZM49.3093 46.3087C51.1369 46.3087 52.6718 47.5606 53.0762 49.2383H45.5424C45.9473 47.5606 47.4822 46.3087 49.3093 46.3087Z" fill="#C0A378"/>
<path d="M60.1064 54.4155H0.893555C0.400238 54.4155 0 54.8092 0 55.2944C0 55.7801 0.400238 56.1733 0.893555 56.1733H60.1064C60.5998 56.1733 61 55.7801 61 55.2944C61 54.8092 60.5998 54.4155 60.1064 54.4155Z" fill="#C0A378"/>
<path d="M0.893555 17.3931H60.1064C60.5998 17.3931 61 16.9998 61 16.5142C61 16.0289 60.5998 15.6353 60.1064 15.6353H0.893555C0.400238 15.6353 0 16.0289 0 16.5142C0 16.9998 0.400238 17.3931 0.893555 17.3931Z" fill="#C0A378"/>
<path d="M0.893555 22.6348H13.7891C14.2829 22.6348 14.6827 22.2415 14.6827 21.7559C14.6827 21.2706 14.2829 20.877 13.7891 20.877H0.893555C0.400238 20.877 0 21.2706 0 21.7559C0 22.2415 0.400238 22.6348 0.893555 22.6348Z" fill="#C0A378"/>
<path d="M0.894012 12.1199C1.01734 12.1199 1.14253 12.0947 1.26214 12.0416L10.8329 7.77891C15.377 5.75514 20.374 5.14219 25.2839 6.00599L40.64 8.70817C41.1249 8.79423 41.5899 8.47563 41.6769 7.99772C41.7634 7.51982 41.4405 7.06343 40.9541 6.97783L25.5989 4.27565C20.3312 3.34867 14.9708 4.00648 10.0962 6.17765L0.524955 10.4399C0.0758506 10.6404 -0.123803 11.1613 0.0795738 11.6031C0.22943 11.9281 0.554275 12.1199 0.894012 12.1199Z" fill="#C0A378"/>
<path d="M44.7079 9.42395L59.9491 12.1055C60.0021 12.1151 60.0552 12.1197 60.1073 12.1197C60.5317 12.1197 60.9087 11.8208 60.986 11.3955C61.073 10.9176 60.7495 10.4608 60.2637 10.3752L45.0225 7.6936C44.5371 7.608 44.0722 7.92615 43.9856 8.40405C43.8986 8.88196 44.2221 9.33835 44.7079 9.42395Z" fill="#C0A378"/>
<path d="M60.1064 20.877H17.9023C17.409 20.877 17.0087 21.2706 17.0087 21.7559C17.0087 22.2415 17.409 22.6348 17.9023 22.6348H60.1064C60.5998 22.6348 61 22.2415 61 21.7559C61 21.2706 60.5998 20.877 60.1064 20.877Z" fill="#C0A378"/>
<path d="M12.0876 10.9142C11.6343 11.107 11.4263 11.6247 11.6222 12.0701L11.8582 12.6061C12.0043 12.938 12.3329 13.1362 12.6787 13.1362C12.7974 13.1362 12.9174 13.1129 13.0328 13.0639C13.4861 12.8712 13.6942 12.3539 13.4982 11.9085L13.2623 11.372C13.0664 10.9266 12.5405 10.7215 12.0876 10.9142Z" fill="#C0A378"/>
<path d="M14.7399 11.3617L14.4993 11.8991C14.3001 12.3431 14.5049 12.8618 14.9568 13.0577C15.0736 13.1085 15.196 13.1328 15.3165 13.1328C15.6595 13.1328 15.9872 12.9369 16.1347 12.6077L16.3753 12.0708C16.5745 11.6267 16.3697 11.1081 15.9183 10.9122C15.4669 10.7167 14.9391 10.9177 14.7399 11.3617Z" fill="#C0A378"/>
<path d="M24.7133 10.1662C24.26 10.3589 24.052 10.8766 24.2479 11.322L24.4839 11.8581C24.63 12.19 24.9586 12.3882 25.3044 12.3882C25.4226 12.3882 25.5431 12.3648 25.6585 12.3158C26.1118 12.1231 26.3198 11.6059 26.1239 11.1605L25.888 10.624C25.692 10.1786 25.1661 9.97347 24.7133 10.1662Z" fill="#C0A378"/>
<path d="M27.3656 10.6138L27.125 11.1513C26.9258 11.5953 27.1306 12.1139 27.5824 12.3099C27.6997 12.3607 27.8217 12.3845 27.9422 12.3845C28.2857 12.3845 28.6128 12.189 28.7604 11.8599L29.001 11.3229C29.2002 10.8789 28.9954 10.3602 28.5439 10.1643C28.0921 9.96839 27.5648 10.1698 27.3656 10.6138Z" fill="#C0A378"/>
<path d="M54.289 29.5723C53.4713 29.571 52.6825 29.3348 52.0072 28.888C50.3806 27.8118 48.2715 27.8136 46.6342 28.8921C45.9589 29.3371 45.1705 29.5723 44.3538 29.5723C43.537 29.5723 42.7486 29.3371 42.0734 28.8921C40.4394 27.8159 38.3279 27.8159 36.6939 28.8921C36.0186 29.3371 35.2297 29.5723 34.4134 29.5723C33.5967 29.5723 32.8078 29.3371 32.133 28.8921C30.4953 27.8136 28.3866 27.8118 26.7601 28.888C26.0848 29.3348 25.2955 29.571 24.4778 29.5723C23.9845 29.5728 23.5847 29.9665 23.5851 30.4522C23.5861 30.9369 23.9858 31.3297 24.4787 31.3297H24.4801C25.6538 31.3283 26.7866 30.9887 27.7569 30.3464C28.7789 29.6703 30.1062 29.6726 31.138 30.3528C32.1084 30.9919 33.2407 31.3297 34.413 31.3297C35.5848 31.3297 36.7176 30.9919 37.688 30.3528C38.7179 29.6744 40.0489 29.6744 41.0783 30.3528C42.0492 30.9919 43.1815 31.3297 44.3533 31.3297C45.5256 31.3297 46.6579 30.9919 47.6283 30.3528C48.6601 29.6731 49.9874 29.6708 51.0094 30.3464C51.9797 30.9887 53.1129 31.3283 54.2862 31.3297H54.2876C54.7805 31.3297 55.1807 30.9369 55.1812 30.4522C55.1821 29.9669 54.7823 29.5728 54.289 29.5723Z" fill="#C0A378"/>
<path d="M38.3665 37.9334C39.5388 37.9334 40.6711 37.5956 41.6415 36.9561C42.6714 36.2781 44.002 36.2781 45.0319 36.9561C46.0022 37.5956 47.1345 37.9334 48.3068 37.9334C48.8002 37.9334 49.2004 37.5397 49.2004 37.0545C49.2004 36.5693 48.8002 36.1756 48.3068 36.1756C47.4901 36.1756 46.7017 35.9403 46.0264 35.4958C44.3924 34.4191 42.2805 34.4196 40.6469 35.4958C39.9717 35.9403 39.1833 36.1756 38.3665 36.1756C37.8727 36.1756 37.473 36.5688 37.473 37.0545C37.473 37.5397 37.8732 37.9334 38.3665 37.9334Z" fill="#C0A378"/>
<path d="M22.8475 45.2445C21.221 44.1688 19.1118 44.1706 17.4746 45.2491C16.7993 45.6936 16.0109 45.9289 15.1942 45.9289C14.3774 45.9289 13.5885 45.694 12.9137 45.2491C11.2797 44.1724 9.16778 44.1724 7.53425 45.2491C6.85896 45.694 6.07012 45.9289 5.25336 45.9289C4.76004 45.9289 4.3598 46.3226 4.3598 46.8078C4.3598 47.293 4.76004 47.6867 5.25336 47.6867C6.42568 47.6867 7.55798 47.3489 8.52833 46.7098C9.55824 46.0314 10.8893 46.0314 11.9192 46.7098C12.8895 47.3489 14.0218 47.6867 15.1937 47.6867C16.366 47.6867 17.4983 47.3489 18.4687 46.7094C19.5009 46.0296 20.8282 46.0273 21.8502 46.7034C22.8205 47.3452 23.9538 47.6853 25.127 47.6867H25.128C25.6213 47.6867 26.0211 47.2939 26.0215 46.8087C26.0225 46.3235 25.6227 45.9293 25.1294 45.9289C24.3117 45.928 23.5228 45.6913 22.8475 45.2445Z" fill="#C0A378"/>
<path d="M2 15.2461V17C2 18.1046 2.89543 19 4 19H59C60.1046 19 61 18.1046 61 17V15.6561C61 14.6953 60.3245 13.8717 59.3805 13.6934C46.6113 11.282 23.2058 7 20.1917 7C17.2735 7 8.21004 11.0134 3.1183 13.4574C2.43063 13.7875 2 14.4834 2 15.2461Z" fill="#C0A378" fill-opacity="0.3"/>
</g>
<defs>
<clipPath id="clip0">
<rect width="61" height="60" fill="white"/>
</clipPath>
</defs>
</svg>
