<svg viewBox="0 0 20 18" fill="none" xmlns="http://www.w3.org/2000/svg">
<path fill-rule="evenodd" clip-rule="evenodd" d="M14.6373 2.03121C13.7419 1.50325 12.6935 1.28491 11.658 1.41074C10.6227 1.53656 9.65941 1.99931 8.92076 2.72576C8.9207 2.72581 8.92082 2.7257 8.92076 2.72576L6.30729 5.30302C6.06805 5.53894 5.93366 5.85891 5.93366 6.19255C5.93366 6.52618 6.06805 6.84615 6.30729 7.08207C6.54652 7.31799 6.87098 7.45052 7.2093 7.45052C7.54763 7.45052 7.87209 7.31799 8.11132 7.08207L8.92993 6.27481C9.584 5.6306 10.4709 5.26845 11.3953 5.26845C12.3198 5.26845 13.2064 5.63029 13.8605 6.2745L17.4701 9.83411C17.5524 9.91529 17.6288 10.0012 17.699 10.0913H18.5383L17.8307 2.415L16.8911 2.60139L16.8883 2.60193C16.2649 2.72303 15.6181 2.61099 15.0739 2.28766C15.0732 2.28731 15.0726 2.28695 15.072 2.28659L14.6373 2.03121ZM17.7036 1.03662L17.6773 0.750762C17.6424 0.372345 17.9252 0.0376899 18.3089 0.00328842C18.6927 -0.0311131 19.032 0.247766 19.0669 0.626183L19.9971 10.717C20.0149 10.9095 19.9497 11.1005 19.8175 11.2432C19.6853 11.386 19.4983 11.4673 19.3023 11.4673H18.2423C18.249 11.5433 18.2524 11.6198 18.2524 11.6966C18.2524 12.3952 17.971 13.0652 17.4701 13.5591C16.9692 14.0531 16.2898 14.3306 15.5814 14.3306C15.3781 14.3306 15.1771 14.3078 14.9821 14.2635C14.9555 14.5155 14.892 14.763 14.7933 14.998C14.659 15.3175 14.4623 15.6079 14.2143 15.8525C13.9662 16.0971 13.6718 16.2911 13.3477 16.4235C13.0237 16.5559 12.6763 16.624 12.3256 16.624C11.9748 16.624 11.6275 16.5559 11.3034 16.4235C11.0909 16.3366 10.891 16.2233 10.7087 16.0865C10.5853 16.5144 10.3528 16.9084 10.0282 17.2285C9.52731 17.7225 8.84793 18 8.13954 18C7.43114 18 6.75177 17.7225 6.25086 17.2285L0.204347 11.2658C0.0579369 11.1214 -0.0158774 10.9203 0.00286849 10.717L0.933101 0.626183C0.967986 0.247766 1.30734 -0.0311131 1.69107 0.00328842C2.07481 0.0376899 2.3576 0.372345 2.32272 0.750762L2.30732 0.917809H8.99754C9.74802 0.453367 10.5971 0.15323 11.4874 0.0450488C12.8308 -0.118211 14.1911 0.165031 15.353 0.849939C15.3528 0.849857 15.3531 0.85002 15.353 0.849939L15.7931 1.10851C16.0403 1.25563 16.3341 1.30681 16.6174 1.25209C16.6178 1.25201 16.6182 1.25193 16.6187 1.25185L17.7036 1.03662ZM7.38543 2.29383H2.18047L1.42207 10.5206L7.23752 16.2555C7.47675 16.4914 7.80121 16.624 8.13954 16.624C8.47786 16.624 8.80232 16.4914 9.04155 16.2555C9.28078 16.0196 9.41518 15.6996 9.41518 15.366C9.41518 15.0326 9.28095 14.7128 9.042 14.4769C9.04185 14.4768 9.04215 14.4771 9.042 14.4769L8.57644 14.0178C8.30398 13.7491 8.30398 13.3135 8.57644 13.0448C8.8489 12.7761 9.29064 12.7761 9.5631 13.0448L11.4236 14.8795C11.542 14.9963 11.6826 15.089 11.8374 15.1522C11.9922 15.2154 12.1581 15.248 12.3256 15.248C12.4931 15.248 12.659 15.2154 12.8138 15.1522C12.9685 15.089 13.1091 14.9963 13.2276 14.8795C13.3461 14.7627 13.44 14.624 13.5041 14.4714C13.5682 14.3188 13.6012 14.1552 13.6012 13.99C13.6012 13.8248 13.5682 13.6612 13.5041 13.5086C13.44 13.356 13.3461 13.2173 13.2276 13.1005L11.3671 11.2658C11.0947 10.9971 11.0947 10.5615 11.3671 10.2928C11.6396 10.0241 12.0813 10.0241 12.3538 10.2928L14.6794 12.5861C14.9186 12.8221 15.2431 12.9546 15.5814 12.9546C15.9197 12.9546 16.2442 12.8221 16.4834 12.5861C16.7226 12.3502 16.857 12.0303 16.857 11.6966C16.857 11.363 16.7226 11.043 16.4834 10.8071L12.8744 7.2481C12.482 6.86157 11.95 6.64447 11.3953 6.64447C10.8407 6.64447 10.3087 6.86157 9.91628 7.2481L9.09798 8.05506C8.59707 8.54903 7.9177 8.82654 7.2093 8.82654C6.50091 8.82654 5.82153 8.54903 5.32062 8.05506C4.81972 7.56109 4.53831 6.89113 4.53831 6.19255C4.53831 5.49397 4.81972 4.824 5.32062 4.33003L7.38543 2.29383Z" fill="currentColor"/>
</svg>
