<svg viewBox="0 0 20 20" fill="none" xmlns="http://www.w3.org/2000/svg">
<path d="M10 0.0499911C9.31666 0.0499911 8.71 0.489991 8.49916 1.13999L6.7975 5.94499C6.77832 6.01346 6.73835 6.07429 6.68312 6.11907C6.62789 6.16385 6.56012 6.19038 6.48916 6.19499L1.5675 6.40249C0.874164 6.46416 0.312498 6.91832 0.114998 7.55416C0.0182596 7.8649 0.0158729 8.19736 0.108139 8.50947C0.200406 8.82157 0.383179 9.09929 0.633331 9.30749L4.51083 12.4833C4.63 12.5833 4.68083 12.7525 4.63416 12.9083L3.29666 17.8842C3.20388 18.1962 3.20867 18.5291 3.3104 18.8383C3.41213 19.1475 3.60593 19.4182 3.86583 19.6142C4.40333 20.0225 5.1375 20.0508 5.705 19.6858L9.82416 16.8125C9.8743 16.7757 9.93475 16.7555 9.99696 16.7549C10.0592 16.7543 10.12 16.7733 10.1708 16.8092L14.3108 19.6742C14.9208 20.0342 15.6392 19.985 16.1592 19.5742C16.6442 19.1908 16.8625 18.5658 16.7308 17.97L15.37 12.9042C15.3478 12.8282 15.348 12.7474 15.3707 12.6716C15.3933 12.5958 15.4373 12.5281 15.4975 12.4767L19.3617 9.32416C19.613 9.11661 19.797 8.83906 19.8904 8.52674C19.9837 8.21442 19.9821 7.88142 19.8859 7.56999C19.7896 7.25856 19.603 6.98274 19.3498 6.77755C19.0965 6.57235 18.788 6.44703 18.4633 6.41749L13.5058 6.20916C13.4384 6.20497 13.3739 6.18042 13.3208 6.13875C13.2677 6.09708 13.2285 6.04027 13.2083 5.97582L11.4958 1.12582C11.3912 0.812024 11.1904 0.539169 10.9219 0.346035C10.6533 0.152901 10.3308 0.0493128 10 0.0499911Z" fill="#FF9400"/>
</svg>
