<svg width="49" height="46" viewBox="0 0 49 46" fill="none" xmlns="http://www.w3.org/2000/svg">
<path d="M12.6714 44.9713C10.7431 44.9713 9.10101 44.2907 7.74518 42.9294C6.38934 41.5686 5.71143 39.9255 5.71143 38.0001V18.9088C4.74684 17.9855 3.67247 16.9878 2.4883 15.9157C1.30372 14.8436 0.711426 13.5801 0.711426 12.1251C0.711426 11.3205 0.989551 10.6403 1.5458 10.0844C2.10205 9.52819 2.78226 9.25006 3.58643 9.25006C4.27726 9.25006 4.91393 9.46007 5.49643 9.88007C6.07893 10.2996 6.56726 10.8188 6.96143 11.4376C7.35601 10.8188 7.84455 10.2996 8.42705 9.88007C9.00955 9.46007 9.64601 9.25006 10.3364 9.25006C11.141 9.25006 11.8214 9.52819 12.3777 10.0844C12.9335 10.6403 13.2114 11.3205 13.2114 12.1251C13.2114 13.5801 12.6193 14.8436 11.4352 15.9157C10.251 16.9878 9.17643 17.9855 8.21143 18.9088V38.0001C8.21143 39.2421 8.64539 40.2978 9.5133 41.1669C10.3812 42.0365 11.435 42.4713 12.6746 42.4713C13.9141 42.4713 14.9706 42.0365 15.8439 41.1669C16.7173 40.2978 17.1539 39.2421 17.1539 38.0001V11.7501C17.1539 8.6909 18.232 6.08319 20.3883 3.92694C22.5445 1.77069 25.1523 0.692566 28.2114 0.692566C31.271 0.692566 33.8789 1.77069 36.0352 3.92694C38.1914 6.08319 39.2696 8.6909 39.2696 11.7501V13.1057C41.76 13.4007 43.8408 14.4832 45.5121 16.3532C47.1837 18.2236 48.0196 20.4392 48.0196 23.0001V35.5001C48.0196 38.2855 47.0491 40.6484 45.1083 42.5888C43.1675 44.5296 40.8046 45.5001 38.0196 45.5001C35.2341 45.5001 32.871 44.5296 30.9302 42.5888C28.9898 40.6484 28.0196 38.2855 28.0196 35.5001V23.0001C28.0196 20.4392 28.8552 18.2236 30.5264 16.3532C32.1981 14.4832 34.2791 13.4007 36.7696 13.1057V11.7501C36.7696 9.37298 35.9381 7.35236 34.2752 5.68819C32.6123 4.02444 30.5931 3.19257 28.2177 3.19257C25.8418 3.19257 23.8206 4.02444 22.1539 5.68819C20.4873 7.35236 19.6539 9.37298 19.6539 11.7501V38.0001C19.6539 39.9255 18.9723 41.5686 17.6089 42.9294C16.246 44.2907 14.6002 44.9713 12.6714 44.9713ZM38.0196 43.0001C40.1029 43.0001 41.8737 42.2709 43.3321 40.8126C44.7904 39.3542 45.5196 37.5834 45.5196 35.5001V23.0001C45.5196 20.9167 44.7904 19.1459 43.3321 17.6876C41.8737 16.2292 40.1029 15.5001 38.0196 15.5001C35.9362 15.5001 34.1654 16.2292 32.7071 17.6876C31.2487 19.1459 30.5196 20.9167 30.5196 23.0001V35.5001C30.5196 37.5834 31.2487 39.3542 32.7071 40.8126C34.1654 42.2709 35.9362 43.0001 38.0196 43.0001ZM38.0196 31.7501C36.965 31.7501 36.0762 32.1115 35.3533 32.8344C34.6308 33.5569 34.2696 34.4455 34.2696 35.5001C34.2696 36.5546 34.6308 37.4432 35.3533 38.1657C36.0762 38.8886 36.965 39.2501 38.0196 39.2501C39.0741 39.2501 39.9627 38.8886 40.6852 38.1657C41.4081 37.4432 41.7696 36.5546 41.7696 35.5001C41.7696 34.4455 41.4081 33.5569 40.6852 32.8344C39.9627 32.1115 39.0741 31.7501 38.0196 31.7501Z" fill="#2197AC"/>
</svg>
