<svg width="32" height="43" viewBox="0 0 32 43" fill="none" xmlns="http://www.w3.org/2000/svg">
<path d="M16.0002 14.2112C14.0965 14.2112 12.4827 13.5495 11.159 12.2262C9.83521 10.9024 9.17334 9.28848 9.17334 7.38431C9.17334 5.48056 9.83521 3.86681 11.159 2.54306C12.4827 1.21931 14.0965 0.557434 16.0002 0.557434C17.904 0.557434 19.5177 1.21931 20.8415 2.54306C22.1652 3.86681 22.8271 5.48056 22.8271 7.38431C22.8271 9.28848 22.1652 10.9024 20.8415 12.2262C19.5177 13.5495 17.904 14.2112 16.0002 14.2112ZM16.0002 11.7112C17.2023 11.7112 18.224 11.2906 19.0652 10.4493C19.9065 9.60806 20.3271 8.58639 20.3271 7.38431C20.3271 6.18264 19.9065 5.16118 19.0652 4.31993C18.224 3.47827 17.2023 3.05743 16.0002 3.05743C14.7981 3.05743 13.7765 3.47827 12.9352 4.31993C12.094 5.16118 11.6733 6.18264 11.6733 7.38431C11.6733 8.58639 12.094 9.60806 12.9352 10.4493C13.7765 11.2906 14.7981 11.7112 16.0002 11.7112ZM16.0002 42.6731L2.34647 29.0193C1.70522 28.3781 1.22438 27.6408 0.903965 26.8074C0.583548 25.9741 0.42334 25.071 0.42334 24.0981C0.42334 22.1851 1.08167 20.572 2.39834 19.2587C3.71501 17.9454 5.3323 17.2887 7.25021 17.2887C8.18438 17.2887 9.04605 17.4616 9.83521 17.8074C10.6248 18.1537 11.356 18.6633 12.029 19.3362L16.0002 23.3074L19.9715 19.3362C20.6123 18.6954 21.339 18.1939 22.1515 17.8318C22.964 17.4697 23.8371 17.2887 24.7708 17.2887C26.6704 17.2887 28.2798 17.9454 29.599 19.2587C30.9177 20.572 31.5771 22.1851 31.5771 24.0981C31.5771 25.071 31.4169 25.9741 31.0965 26.8074C30.776 27.6408 30.2952 28.3781 29.654 29.0193L16.0002 42.6731ZM16.0002 39.1056L27.8558 27.2499C28.295 26.8108 28.6083 26.3276 28.7958 25.8006C28.9833 25.2731 29.0771 24.7193 29.0771 24.1393C29.0771 22.9789 28.6588 21.9637 27.8221 21.0937C26.9858 20.2237 25.9602 19.7887 24.7452 19.7887C24.1844 19.7887 23.6735 19.8756 23.2127 20.0493C22.7515 20.2231 22.3025 20.5335 21.8658 20.9806L16.0002 26.8462L10.2308 21.0768C9.92709 20.7547 9.53459 20.4595 9.05334 20.1912C8.57251 19.9228 7.97855 19.7887 7.27146 19.7887C6.04563 19.7887 5.01459 20.2197 4.17834 21.0818C3.34167 21.9439 2.92334 22.9497 2.92334 24.0993C2.92334 24.6739 3.01938 25.2281 3.21146 25.7618C3.40396 26.2956 3.71501 26.782 4.14459 27.2212L16.0002 39.1056Z" fill="#2197AC"/>
</svg>
