<svg width="49" height="43" viewBox="0 0 49 43" fill="none" xmlns="http://www.w3.org/2000/svg">
<path d="M0.5 10.7887V4.5325C0.5 3.38583 0.885417 2.42708 1.65625 1.65625C2.42708 0.885417 3.38792 0.5 4.53875 0.5H41.4613C42.6121 0.5 43.5729 0.885417 44.3438 1.65625C45.1146 2.42708 45.5 3.38792 45.5 4.53875V18H43V4.53875C43 4.15375 42.8398 3.80104 42.5194 3.48063C42.199 3.16021 41.8463 3 41.4613 3H4.53875C4.15375 3 3.80104 3.16021 3.48063 3.48063C3.16021 3.80104 3 4.15375 3 4.53875V10.7887H0.5ZM4.53875 35.5C3.38792 35.5 2.42708 35.1146 1.65625 34.3438C0.885417 33.5729 0.5 32.6142 0.5 31.4675V25.2113H3V31.4613C3 31.8463 3.16021 32.199 3.48063 32.5194C3.80104 32.8398 4.15375 33 4.53875 33H20.4519V35.5H4.53875ZM38 42.1344L35.245 39.7981C31.7708 36.8015 29.5506 34.7173 28.5844 33.5456C27.6177 32.3744 27.1344 31.2006 27.1344 30.0244C27.1344 28.5544 27.6427 27.2885 28.6594 26.2269C29.6756 25.1652 30.9142 24.6344 32.375 24.6344C33.1271 24.6344 33.8431 24.8044 34.5231 25.1444C35.2031 25.484 35.8813 25.9888 36.5575 26.6588L38 27.9569L39.3463 26.7069C40.0129 26.0369 40.6996 25.524 41.4063 25.1681C42.1129 24.8123 42.8525 24.6344 43.625 24.6344C45.0542 24.6344 46.2848 25.1652 47.3169 26.2269C48.3494 27.2885 48.8656 28.5544 48.8656 30.0244C48.8656 31.2006 48.3719 32.3744 47.3844 33.5456C46.3973 34.7173 44.1667 36.8015 40.6925 39.7981L38 42.1344ZM38 38.7788L39.9425 37.1488C42.6283 34.8604 44.3702 33.2779 45.1681 32.4012C45.9665 31.5246 46.3656 30.7306 46.3656 30.0194C46.3656 29.2502 46.0915 28.5771 45.5431 28C44.9952 27.4229 44.3558 27.1344 43.625 27.1344C43.1696 27.1344 42.7569 27.2233 42.3869 27.4013C42.0169 27.5792 41.6123 27.8829 41.1731 28.3125L38 31.3463L34.7644 28.3125C34.3252 27.8829 33.9181 27.5792 33.5431 27.4013C33.1681 27.2233 32.7788 27.1344 32.375 27.1344C31.6092 27.1344 30.9608 27.4229 30.43 28C29.8996 28.5771 29.6344 29.2502 29.6344 30.0194C29.6344 30.7127 30.0713 31.5423 30.945 32.5081C31.8183 33.474 33.5498 35.0529 36.1394 37.245L38 38.7788ZM10.5 29.25C10.2242 29.25 9.9925 29.1996 9.805 29.0987C9.6175 28.9975 9.46771 28.83 9.35563 28.5963L4.70688 19.25H0.5V16.75H5.5C5.72667 16.75 5.93792 16.8137 6.13375 16.9412C6.32958 17.0692 6.47896 17.2394 6.58188 17.4519L10.5 25.2262L19.3556 7.45187C19.4619 7.25979 19.621 7.11562 19.8331 7.01937C20.0452 6.92312 20.2679 6.875 20.5013 6.875C20.7346 6.875 20.9504 6.92312 21.1488 7.01937C21.3475 7.11562 21.4967 7.25979 21.5963 7.45187L26.2306 16.75H34.25V19.25H25.5C25.2242 19.25 24.9925 19.1996 24.805 19.0987C24.6175 18.9975 24.4677 18.83 24.3556 18.5963L20.4519 10.8363L11.5819 28.5963C11.4698 28.83 11.3173 28.9975 11.1244 29.0987C10.9315 29.1996 10.7233 29.25 10.5 29.25Z" fill="#2197AC"/>
</svg>
