<svg width="40" height="40" fill="none" xmlns="http://www.w3.org/2000/svg"><path fill-rule="evenodd" clip-rule="evenodd" d="M20 37.5a17.5 17.5 0 100-35 17.5 17.5 0 000 35zm0 2.5a20 20 0 100-40 20 20 0 000 40z" fill="#FF8100"/><path fill-rule="evenodd" clip-rule="evenodd" d="M19.115 28.385a1.25 1.25 0 010-1.77L25.733 20l-6.618-6.615a1.252 1.252 0 011.77-1.77l7.5 7.5a1.25 1.25 0 010 1.77l-7.5 7.5a1.25 1.25 0 01-1.77 0z" fill="#FF8100"/><path fill-rule="evenodd" clip-rule="evenodd" d="M11.25 20a1.25 1.25 0 011.25-1.25H25a1.25 1.25 0 010 2.5H12.5A1.25 1.25 0 0111.25 20z" fill="#FF8100"/></svg>