<svg width="40" height="40" fill="none" xmlns="http://www.w3.org/2000/svg"><path fill-rule="evenodd" clip-rule="evenodd" d="M20 37.5a17.5 17.5 0 100-35 17.5 17.5 0 000 35zm0 2.5a20 20 0 100-40 20 20 0 000 40z" fill="#212121"/><path fill-rule="evenodd" clip-rule="evenodd" d="M20.885 28.385a1.25 1.25 0 000-1.77L14.267 20l6.618-6.615a1.25 1.25 0 10-1.77-1.77l-7.5 7.5a1.25 1.25 0 000 1.77l7.5 7.5a1.25 1.25 0 001.77 0z" fill="#212121"/><path fill-rule="evenodd" clip-rule="evenodd" d="M28.75 20a1.25 1.25 0 00-1.25-1.25H15a1.25 1.25 0 000 2.5h12.5A1.25 1.25 0 0028.75 20z" fill="#212121"/></svg>