<svg width="1920" height="608" viewBox="0 0 1920 608" fill="none" xmlns="http://www.w3.org/2000/svg">
<g clip-path="url(#clip0_295_5551)">
<rect width="1920" height="608" fill="#EDE2D9"/>
<path style="mix-blend-mode:color-dodge" d="M-859.327 299.246C541.728 -200.28 1447.15 905.967 2459.66 2.03513L2589.44 289.445L-545.523 1286.21L-859.327 299.246Z" fill="url(#paint0_radial_295_5551)"/>
<path style="mix-blend-mode:color-dodge" d="M-739.804 164.813C151.68 -290.808 1518.73 845.221 2441.88 74.0678L2532.84 360.141L-382.937 1287.21L-739.804 164.813Z" fill="url(#paint1_radial_295_5551)"/>
<g style="mix-blend-mode:color-dodge">
<path d="M-235.675 53.139C-182.557 55.3435 -129.471 56.7282 -76.7778 61.0602C-24.0633 65.2195 28.272 71.2925 80.2972 78.6594C184.332 93.4648 286.934 113.441 388.778 135.451C592.46 179.573 793.273 231.88 997.495 274.834C1099.58 296.302 1202.58 315.488 1306.93 329.597C1411.25 343.646 1517.05 352.644 1623.89 352.51C1730.61 352.349 1838.55 342.869 1944.32 319.634C1997.18 308.138 2049.36 292.81 2100.17 274.132C2150.9 255.212 2200.22 232.69 2247.13 206.387C2151.5 255.917 2048.86 292.67 1943.54 315.631C1838.2 338.764 1730.65 348.286 1624.2 348.461C1517.64 348.638 1412.04 339.676 1307.88 325.674C1203.67 311.622 1100.79 292.463 998.76 271.045C794.645 228.189 593.841 175.913 390.021 131.835C288.109 109.846 185.384 89.8431 81.2011 75.0515C29.1318 67.6653 -23.3068 61.6251 -76.144 57.4385C-128.958 53.4437 -182.104 50.318 -235.71 53.1499L-235.675 53.139Z" fill="url(#paint2_linear_295_5551)"/>
</g>
<path style="mix-blend-mode:multiply" opacity="0.5" d="M-380.155 753.235L-419.18 630.495C-419.18 630.495 42.6049 189.962 950.888 380.437C595.646 372.616 194.136 430.012 -380.155 753.235Z" fill="url(#paint3_linear_295_5551)" fill-opacity="0.9"/>
<g style="mix-blend-mode:color-dodge">
<path d="M-225.96 501.587C-218.61 498.42 -211.353 495.083 -204.086 491.777C-196.892 488.36 -189.596 485.144 -182.31 481.897L-160.577 471.999L-138.696 462.452L-127.755 457.678L-116.693 453.165L-94.5697 444.138C-79.6694 438.438 -64.7498 432.798 -49.7536 427.399C10.4059 406.112 71.9498 388.703 134.161 375.066C196.379 361.327 259.273 350.794 322.404 344.469C330.287 343.457 338.181 342.839 346.066 342.192L369.745 340.209C377.639 339.591 385.545 338.771 393.428 338.357L417.096 337.174C448.7 335.029 480.114 335.633 511.877 332.673C480.487 330.833 448.852 331.327 417.177 333.13L393.437 334.203C385.51 334.599 377.595 335.389 369.681 335.945L345.929 337.819C337.991 338.417 330.087 339.004 322.195 339.986L274.737 345.313L227.376 352.136C211.597 354.596 195.922 357.621 180.185 360.333C172.32 361.638 164.491 363.297 156.662 364.956L133.175 369.934C70.7011 383.82 8.96377 401.457 -51.3797 423.001C-66.4257 428.482 -81.4046 434.175 -96.3299 439.916L-118.538 449.036L-129.624 453.59L-140.58 458.435L-162.474 468.186C-169.731 471.523 -176.858 475.15 -184.024 478.657C-198.408 485.621 -212.206 493.595 -225.979 501.527L-225.96 501.587Z" fill="url(#paint4_linear_295_5551)"/>
</g>
<path style="mix-blend-mode:color-dodge" d="M2804.58 106.516C1430.75 866.818 1105.82 -91.3372 -399.091 766.43L-250.766 1232.94L2855.47 245.309L2804.59 106.547L2804.58 106.516Z" fill="url(#paint5_radial_295_5551)"/>
<g style="mix-blend-mode:color-dodge">
<path d="M1650.23 424.828C1580.37 422.534 1510.8 418.754 1441.36 413.866C1371.92 408.948 1302.72 402.758 1233.44 397.026C1094.93 385.479 955.432 376.57 814.786 381.375C744.496 383.7 674.066 389.291 603.911 398.613C533.747 407.905 463.892 420.917 394.762 437.285C325.642 453.684 257.256 473.468 189.856 495.993C122.526 518.862 56.2081 544.431 -9.24569 571.883C56.3289 544.691 122.734 519.394 190.105 496.778C257.572 474.463 326.013 455.093 395.059 438.818C464.139 422.532 533.92 409.643 604.034 400.434C674.105 391.205 744.485 385.696 814.656 383.475C955.133 378.857 1094.45 387.922 1232.92 399.683C1302.2 405.516 1371.39 411.808 1440.86 416.816C1510.29 421.835 1580.07 425.418 1650.25 424.787L1650.23 424.828Z" fill="url(#paint6_linear_295_5551)"/>
</g>
<path style="mix-blend-mode:color-dodge" d="M2746.48 199.272C1433.41 827.986 1216.08 204.074 -224.337 909.639L-127.502 1214.2L2781.41 289.31L2746.47 199.241L2746.48 199.272Z" fill="url(#paint7_radial_295_5551)"/>
<g style="mix-blend-mode:color-dodge">
<path d="M2222.92 404.424C2110.65 437.561 1996.52 464.119 1881.36 482.406C1766.22 501.016 1650.27 511.086 1534.54 516.471C1418.77 521.998 1303.14 523.297 1187.33 527.945L1100.42 532.132L1013.49 538.154L926.596 546.424C897.655 550.015 868.742 553.695 839.936 558.67C868.945 556.486 897.847 553.008 926.719 549.44L1013.52 541.233L1100.36 535.274L1187.18 531.18C1302.91 526.626 1418.57 525.417 1534.43 519.958C1650.26 514.642 1766.43 504.638 1881.77 486.094C1997.14 467.61 2111.42 440.703 2223.76 407.31C2224.66 407.025 2225.22 406.181 2225 405.356C2224.75 404.571 2223.82 404.138 2222.91 404.393L2222.92 404.424Z" fill="url(#paint8_linear_295_5551)"/>
</g>
<path style="mix-blend-mode:multiply" opacity="0.65" d="M2014.44 -25.3809L2051.63 213.735C1727.94 408.793 1389.77 411.099 1048.65 332.263C1167.26 353.882 1699.82 362.052 2014.44 -25.3809Z" fill="url(#paint9_linear_295_5551)" fill-opacity="0.9"/>
</g>
<defs>
<radialGradient id="paint0_radial_295_5551" cx="0" cy="0" r="1" gradientUnits="userSpaceOnUse" gradientTransform="translate(321.755 962.328) rotate(-81.15) scale(471.627 1583.69)">
<stop stop-color="#3B3B3B"/>
<stop offset="0.07" stop-color="#303030"/>
<stop offset="0.25" stop-color="#1B1B1B"/>
<stop offset="0.44" stop-color="#0B0B0B"/>
<stop offset="0.67" stop-color="#020202"/>
<stop offset="1"/>
</radialGradient>
<radialGradient id="paint1_radial_295_5551" cx="0" cy="0" r="1" gradientUnits="userSpaceOnUse" gradientTransform="translate(1387.8 222.781) rotate(-76.6404) scale(430.113 1595.87)">
<stop stop-color="#3B3B3B"/>
<stop offset="0.07" stop-color="#303030"/>
<stop offset="0.25" stop-color="#1B1B1B"/>
<stop offset="0.44" stop-color="#0B0B0B"/>
<stop offset="0.67" stop-color="#020202"/>
<stop offset="1"/>
</radialGradient>
<linearGradient id="paint2_linear_295_5551" x1="2116.51" y1="-212.288" x2="-98.6055" y2="492.009" gradientUnits="userSpaceOnUse">
<stop/>
<stop offset="0.26" stop-color="#DBDBDB"/>
<stop offset="0.5" stop-color="#595959"/>
<stop offset="0.7" stop-color="#E0E0E0"/>
<stop offset="1"/>
</linearGradient>
<linearGradient id="paint3_linear_295_5551" x1="1782.83" y1="-9.06693" x2="-514.81" y2="693.14" gradientUnits="userSpaceOnUse">
<stop stop-color="#CABDB3"/>
<stop offset="0.18" stop-color="#CABDB3"/>
<stop offset="0.39" stop-color="#CABDB3"/>
<stop offset="0.59" stop-color="#CABDB3"/>
<stop offset="0.77" stop-color="#E5E0E9"/>
<stop offset="0.91" stop-color="#F8F6F9"/>
<stop offset="1" stop-color="white"/>
</linearGradient>
<linearGradient id="paint4_linear_295_5551" x1="501.348" y1="291.193" x2="-222.319" y2="521.283" gradientUnits="userSpaceOnUse">
<stop/>
<stop offset="0.26" stop-color="#DBDBDB"/>
<stop offset="0.5" stop-color="#595959"/>
<stop offset="0.7" stop-color="#E0E0E0"/>
<stop offset="1"/>
</linearGradient>
<radialGradient id="paint5_radial_295_5551" cx="0" cy="0" r="1" gradientUnits="userSpaceOnUse" gradientTransform="translate(1336.94 -598.516) rotate(-71.0525) scale(587.206 2852.04)">
<stop stop-color="#3B3B3B"/>
<stop offset="0.23" stop-color="#222222"/>
<stop offset="0.5"/>
</radialGradient>
<linearGradient id="paint6_linear_295_5551" x1="1595.05" y1="245.66" x2="42.1558" y2="739.402" gradientUnits="userSpaceOnUse">
<stop/>
<stop offset="0.26" stop-color="#DBDBDB"/>
<stop offset="0.5" stop-color="#595959"/>
<stop offset="0.7" stop-color="#E0E0E0"/>
<stop offset="1"/>
</linearGradient>
<radialGradient id="paint7_radial_295_5551" cx="0" cy="0" r="1" gradientUnits="userSpaceOnUse" gradientTransform="translate(1740.4 117.454) rotate(-104.265) scale(263.718 2206.97)">
<stop stop-color="#3B3B3B"/>
<stop offset="0.13" stop-color="#373737"/>
<stop offset="0.26" stop-color="#2B2B2B"/>
<stop offset="0.39" stop-color="#171717"/>
<stop offset="0.5"/>
</radialGradient>
<linearGradient id="paint8_linear_295_5551" x1="2183.78" y1="275.709" x2="879.952" y2="690.261" gradientUnits="userSpaceOnUse">
<stop/>
<stop offset="0.26" stop-color="#DBDBDB"/>
<stop offset="0.5" stop-color="#595959"/>
<stop offset="0.7" stop-color="#E0E0E0"/>
<stop offset="1"/>
</linearGradient>
<linearGradient id="paint9_linear_295_5551" x1="566.45" y1="744.762" x2="1875.96" y2="-16.9687" gradientUnits="userSpaceOnUse">
<stop stop-color="#CABDB3"/>
<stop offset="0.18" stop-color="#CABDB3"/>
<stop offset="0.39" stop-color="#CABDB3"/>
<stop offset="0.59" stop-color="#CABDB3"/>
<stop offset="0.77" stop-color="#E5E0E9"/>
<stop offset="0.91" stop-color="#F8F6F9"/>
<stop offset="1" stop-color="white"/>
</linearGradient>
<clipPath id="clip0_295_5551">
<rect width="1920" height="608" fill="white"/>
</clipPath>
</defs>
</svg>
