<svg viewBox="0 0 16 16" fill="none" xmlns="http://www.w3.org/2000/svg">
<path d="M8 0.5C3.865 0.5 0.5 3.86417 0.5 8C0.5 12.1358 3.865 15.5 8 15.5C12.135 15.5 15.5 12.1358 15.5 8C15.5 3.86417 12.135 0.5 8 0.5ZM13.8017 7.39583C12.3308 7.155 10.8567 7.24 9.46417 7.61417C9.31417 7.25083 9.145 6.89833 8.9725 6.545C10.1575 5.87 11.21 4.95167 12.0667 3.82667C13.0192 4.75417 13.6575 6.0025 13.8017 7.39583ZM11.4417 3.30083C10.6592 4.33667 9.69167 5.18333 8.6075 5.80833C7.95583 4.60417 7.16667 3.475 6.26833 2.42833C6.81583 2.25833 7.3975 2.16667 8 2.16667C9.2875 2.16667 10.4758 2.59167 11.4417 3.30083ZM5.45583 2.75917C6.38833 3.81333 7.2 4.96333 7.86583 6.19C6.14833 6.9875 4.2025 7.26833 2.26833 6.93917C2.60833 5.09583 3.81833 3.5575 5.45583 2.75917ZM2.16667 8C2.16667 7.91667 2.17583 7.8375 2.17917 7.755C2.7425 7.8475 3.30667 7.91167 3.86583 7.91167C5.38833 7.91167 6.87167 7.55667 8.23 6.9225C8.38167 7.23333 8.53417 7.5425 8.6675 7.86167C6.64333 8.58333 4.84833 9.93333 3.58333 11.8C2.70333 10.7775 2.16667 9.45167 2.16667 8ZM4.16083 12.3808C5.3525 10.6067 7.04833 9.32 8.96417 8.64167C9.53333 10.1867 9.9 11.8042 10.0408 13.4575C9.405 13.6967 8.71833 13.8333 8 13.8333C6.52917 13.8333 5.1875 13.2825 4.16083 12.3808ZM10.8392 13.0908C10.6758 11.4808 10.3133 9.90583 9.76167 8.3975C11.065 8.06083 12.4467 7.9925 13.8208 8.23917C13.7358 10.3242 12.5575 12.1292 10.8392 13.0908Z" fill="white"/>
</svg>
