<svg viewBox="0 0 18 19" fill="none" xmlns="http://www.w3.org/2000/svg">
<path d="M8.94712 4.89038C6.47798 4.89038 4.43213 6.90096 4.43213 9.40537C4.43213 11.9098 6.44271 13.9204 8.94712 13.9204C11.4515 13.9204 13.4621 11.8745 13.4621 9.40537C13.4621 6.93624 11.4163 4.89038 8.94712 4.89038ZM8.94712 12.2978C7.35982 12.2978 6.0547 10.9927 6.0547 9.40537C6.0547 7.81807 7.35982 6.51296 8.94712 6.51296C10.5344 6.51296 11.8395 7.81807 11.8395 9.40537C11.8395 10.9927 10.5344 12.2978 8.94712 12.2978Z" fill="white"/>
<path d="M13.6382 5.80733C14.2031 5.80733 14.6611 5.34935 14.6611 4.7844C14.6611 4.21945 14.2031 3.76147 13.6382 3.76147C13.0732 3.76147 12.6152 4.21945 12.6152 4.7844C12.6152 5.34935 13.0732 5.80733 13.6382 5.80733Z" fill="white"/>
<path d="M16.2839 2.13932C15.3668 1.18694 14.0617 0.693115 12.5802 0.693115H5.31386C2.24507 0.693115 0.199219 2.73897 0.199219 5.80775V13.0388C0.199219 14.5555 0.693046 15.8607 1.6807 16.813C2.63308 17.7302 3.90292 18.1887 5.34913 18.1887H12.5449C14.0617 18.1887 15.3315 17.6949 16.2486 16.813C17.201 15.8959 17.6948 14.5908 17.6948 13.0741V5.80775C17.6948 4.32627 17.201 3.05643 16.2839 2.13932ZM16.1428 13.0741C16.1428 14.1675 15.7548 15.0494 15.1199 15.649C14.4849 16.2487 13.6031 16.5661 12.5449 16.5661H5.34913C4.29093 16.5661 3.40909 16.2487 2.77417 15.649C2.13925 15.0141 1.82179 14.1323 1.82179 13.0388V5.80775C1.82179 4.74955 2.13925 3.86772 2.77417 3.2328C3.37382 2.63315 4.29093 2.31569 5.34913 2.31569H12.6154C13.6736 2.31569 14.5555 2.63315 15.1904 3.26807C15.79 3.90299 16.1428 4.78483 16.1428 5.80775V13.0741Z" fill="white"/>
</svg>
