<svg viewBox="0 0 16 14" fill="none" xmlns="http://www.w3.org/2000/svg">
<path d="M13.7415 2.84333C14.4149 2.43 14.8607 1.86583 15.079 1.14833C14.424 1.49583 13.7715 1.73417 13.1199 1.86583C12.534 1.23583 11.7924 0.915833 10.9032 0.915833C10.034 0.915833 9.29986 1.22083 8.70069 1.81417C8.10486 2.41167 7.80402 3.1375 7.80402 3.985C7.80402 4.2425 7.83652 4.4725 7.90152 4.6675C5.33819 4.58 3.21652 3.51667 1.54486 1.47C1.26152 1.97083 1.11986 2.48083 1.11986 3.00833C1.11986 4.0925 1.57736 4.95167 2.49069 5.5825C1.96986 5.53833 1.51069 5.40667 1.11986 5.19083C1.11986 5.965 1.34736 6.61167 1.80319 7.18083C2.26069 7.74417 2.84819 8.10333 3.56569 8.25667C3.30569 8.32333 3.03152 8.355 2.74986 8.355C2.48986 8.355 2.30569 8.33333 2.19652 8.28583C2.38819 8.91667 2.74986 9.42833 3.27236 9.82C3.79319 10.2133 4.39236 10.4208 5.06569 10.4392C3.95569 11.31 2.68652 11.7408 1.25069 11.7408C0.899023 11.7408 0.649857 11.7358 0.499023 11.7092C1.91319 12.6275 3.48736 13.0833 5.22902 13.0833C7.01152 13.0833 8.58652 12.6317 9.95736 11.7283C11.3282 10.83 12.3399 9.72167 12.9899 8.41667C13.6432 7.11333 13.9665 5.75667 13.9665 4.34V3.95C14.5982 3.475 15.109 2.94 15.4999 2.34917C14.9332 2.59333 14.3474 2.75917 13.7415 2.84333Z" fill="white"/>
</svg>
