<svg viewBox="0 0 20 16" fill="none" xmlns="http://www.w3.org/2000/svg">
<path d="M10.3513 1.75C12.9021 1.75 14.9881 1.79297 16.9177 1.87891H16.9451H16.9724C17.8748 1.87891 18.6131 2.73828 18.6131 3.79687V3.83984L18.617 3.88281C18.7068 5.21094 18.7498 6.58984 18.7498 7.98047C18.7537 9.37109 18.7068 10.75 18.617 12.0781L18.6131 12.1211V12.1641C18.6131 12.7031 18.4295 13.2031 18.0896 13.5742C17.7849 13.9102 17.3865 14.0977 16.9724 14.0977H16.9412H16.9099C14.8435 14.1953 12.6599 14.2461 10.4099 14.2461C10.2732 14.2461 10.1326 14.2461 9.99587 14.2461C9.85525 14.2461 9.71462 14.2461 9.574 14.2461C7.31618 14.2461 5.13259 14.1953 3.08181 14.1016H3.05056H3.01931C2.60525 14.1016 2.21071 13.9141 1.90603 13.5781C1.57009 13.207 1.38259 12.707 1.38259 12.168V12.125L1.37868 12.082C1.28493 10.75 1.24196 9.37109 1.24978 7.99219V7.98828V7.98438C1.24587 6.60547 1.28884 5.23047 1.37868 3.89844L1.38259 3.85547V3.8125C1.38259 2.75 2.11696 1.88672 3.01931 1.88672H3.04665H3.074C5.00759 1.79688 7.09353 1.75781 9.64431 1.75781H9.99587H10.3513M10.3513 0.5C10.2342 0.5 10.117 0.5 9.99978 0.5C9.88259 0.5 9.7654 0.5 9.64821 0.5C7.39821 0.5 5.18728 0.53125 3.02321 0.628906C1.42946 0.628906 0.136495 2.04688 0.136495 3.80469C0.0388391 5.20312 -0.00412965 6.59375 -0.000223396 7.98828C-0.00412965 9.38281 0.0349329 10.7734 0.132589 12.168C0.132589 13.9258 1.42556 15.3555 3.01931 15.3555C5.15993 15.457 7.34353 15.5039 9.574 15.5039C9.71462 15.5039 9.85915 15.5039 9.99978 15.5039C10.1404 15.5039 10.281 15.5039 10.4177 15.5039C12.6482 15.5039 14.8318 15.457 16.9763 15.3555C18.574 15.3555 19.867 13.9258 19.867 12.168C19.9607 10.7734 20.0037 9.37891 19.9998 7.98438C20.0037 6.58984 19.9607 5.19922 19.867 3.80078C19.867 2.04297 18.574 0.632813 16.9763 0.632813C14.8123 0.53125 12.6052 0.5 10.3513 0.5Z" fill="white"/>
<path d="M8.08594 11.8203V4.14844L13.75 7.98438L8.08594 11.8203Z" fill="white"/>
</svg>
