<?xml version="1.0" encoding="utf-8"?><svg viewBox="0 0 36 38" xmlns="http://www.w3.org/2000/svg" xmlns:xlink="http://www.w3.org/1999/xlink"><style>:root>svg{display:none}:root>svg:target{display:block}</style><svg viewBox="0 0 11 7" fill="none" id="arrow1" xmlns="http://www.w3.org/2000/svg"><path d="m5.667 6.833-5-5L1.833.667 5.667 4.5 9.5.667l1.167 1.166-5 5Z" fill="currentColor"/></svg><svg viewBox="0 0 11 7" fill="none" id="arrow1-dark" xmlns="http://www.w3.org/2000/svg"><path d="m5.667 6.833-5-5L1.833.667 5.667 4.5 9.5.667l1.167 1.166-5 5Z" fill="#083C45"/></svg><svg viewBox="0 0 13 13" fill="none" id="arrow2" xmlns="http://www.w3.org/2000/svg"><path d="M1.4 13 0 11.6 9.6 2H1V0h12v12h-2V3.4L1.4 13Z" fill="currentColor"/></svg><svg viewBox="0 0 13 13" fill="none" id="arrow2-white" xmlns="http://www.w3.org/2000/svg"><path d="M1.4 13 0 11.6 9.6 2H1V0h12v12h-2V3.4L1.4 13Z" fill="#fff"/></svg><svg viewBox="0 0 5 10" fill="none" id="arrow3-dark" xmlns="http://www.w3.org/2000/svg"><path d="M0 10V0l5 5-5 5Z" fill="#083C45"/></svg><svg viewBox="0 0 5 10" fill="none" id="arrow3-white" xmlns="http://www.w3.org/2000/svg"><path d="M0 10V0l5 5-5 5Z" fill="#FFF"/></svg><svg viewBox="0 0 18 12" fill="none" id="burger" xmlns="http://www.w3.org/2000/svg"><path d="M0 12v-2h18v2H0Zm0-5V5h18v2H0Zm0-5V0h18v2H0Z" fill="currentColor"/></svg><svg viewBox="0 0 19 20" fill="none" id="calendar" xmlns="http://www.w3.org/2000/svg"><path d="M14 20v-3h-3v-2h3v-3h2v3h3v2h-3v3h-2ZM2 18c-.55 0-1.02-.196-1.413-.587A1.926 1.926 0 0 1 0 16V4c0-.55.196-1.02.588-1.413A1.926 1.926 0 0 1 2 2h1V0h2v2h6V0h2v2h1c.55 0 1.02.196 1.412.587C15.804 2.98 16 3.45 16 4v6.1a6.732 6.732 0 0 0-2 0V8H2v8h7c0 .333.025.667.075 1 .05.333.142.667.275 1H2ZM2 6h12V4H2v2Z" fill="currentColor"/></svg><svg viewBox="0 0 20 20" fill="none" id="chat" xmlns="http://www.w3.org/2000/svg"><path d="M0 20V2C0 1.45.196.98.588.587A1.926 1.926 0 0 1 2 0h16c.55 0 1.02.196 1.413.588C19.803.979 20 1.45 20 2v12c0 .55-.196 1.02-.587 1.412A1.926 1.926 0 0 1 18 16H4l-4 4Zm3.15-6H18V2H2v13.125L3.15 14Z" fill="currentColor"/></svg><svg viewBox="0 0 20 20" fill="none" id="check-circle" xmlns="http://www.w3.org/2000/svg"><path d="m8.6 14.6 7.05-7.05-1.4-1.4L8.6 11.8 5.75 8.95l-1.4 1.4L8.6 14.6ZM10 20a9.738 9.738 0 0 1-3.9-.788 10.099 10.099 0 0 1-3.175-2.137c-.9-.9-1.612-1.958-2.137-3.175A9.738 9.738 0 0 1 0 10c0-1.383.263-2.683.787-3.9a10.099 10.099 0 0 1 2.138-3.175c.9-.9 1.958-1.612 3.175-2.137A9.738 9.738 0 0 1 10 0c1.383 0 2.683.263 3.9.787a10.098 10.098 0 0 1 3.175 2.138c.9.9 1.613 1.958 2.137 3.175A9.738 9.738 0 0 1 20 10a9.738 9.738 0 0 1-.788 3.9 10.098 10.098 0 0 1-2.137 3.175c-.9.9-1.958 1.613-3.175 2.137A9.738 9.738 0 0 1 10 20Zm0-2c2.233 0 4.125-.775 5.675-2.325C17.225 14.125 18 12.233 18 10c0-2.233-.775-4.125-2.325-5.675C14.125 2.775 12.233 2 10 2c-2.233 0-4.125.775-5.675 2.325C2.775 5.875 2 7.767 2 10c0 2.233.775 4.125 2.325 5.675C5.875 17.225 7.767 18 10 18Z" fill="currentColor"/></svg><svg viewBox="0 0 20 20" fill="none" id="check-circle-green" xmlns="http://www.w3.org/2000/svg"><path d="m8.6 14.6 7.05-7.05-1.4-1.4L8.6 11.8 5.75 8.95l-1.4 1.4L8.6 14.6ZM10 20a9.738 9.738 0 0 1-3.9-.788 10.099 10.099 0 0 1-3.175-2.137c-.9-.9-1.612-1.958-2.137-3.175A9.738 9.738 0 0 1 0 10c0-1.383.263-2.683.787-3.9a10.099 10.099 0 0 1 2.138-3.175c.9-.9 1.958-1.612 3.175-2.137A9.738 9.738 0 0 1 10 0c1.383 0 2.683.263 3.9.787a10.098 10.098 0 0 1 3.175 2.138c.9.9 1.613 1.958 2.137 3.175A9.738 9.738 0 0 1 20 10a9.738 9.738 0 0 1-.788 3.9 10.098 10.098 0 0 1-2.137 3.175c-.9.9-1.958 1.613-3.175 2.137A9.738 9.738 0 0 1 10 20Zm0-2c2.233 0 4.125-.775 5.675-2.325C17.225 14.125 18 12.233 18 10c0-2.233-.775-4.125-2.325-5.675C14.125 2.775 12.233 2 10 2c-2.233 0-4.125.775-5.675 2.325C2.775 5.875 2 7.767 2 10c0 2.233.775 4.125 2.325 5.675C5.875 17.225 7.767 18 10 18Z" fill="#64BDA5"/></svg><svg viewBox="0 0 20 38" fill="none" id="facebook" xmlns="http://www.w3.org/2000/svg"><path d="M13.34 9.272V14.5h6.467l-1.024 7.043H13.34v16.226a24.336 24.336 0 0 1-7.186-.075V21.543H.19V14.5h5.965V8.103A7.187 7.187 0 0 1 13.341.916v.003c.012 0 .022-.003.034-.003h6.434v6.09h-4.204A2.264 2.264 0 0 0 13.34 9.27l-.001.002Z" fill="currentColor"/></svg><svg viewBox="0 0 20 20" fill="none" id="info" xmlns="http://www.w3.org/2000/svg"><path d="M9 15h2V9H9v6Zm1-8c.283 0 .52-.096.713-.287A.967.967 0 0 0 11 6a.967.967 0 0 0-.287-.713A.968.968 0 0 0 10 5a.968.968 0 0 0-.713.287A.968.968 0 0 0 9 6c0 .283.096.52.287.713.192.191.43.287.713.287Zm0 13a9.738 9.738 0 0 1-3.9-.788 10.099 10.099 0 0 1-3.175-2.137c-.9-.9-1.612-1.958-2.137-3.175A9.738 9.738 0 0 1 0 10c0-1.383.263-2.683.787-3.9a10.099 10.099 0 0 1 2.138-3.175c.9-.9 1.958-1.612 3.175-2.137A9.738 9.738 0 0 1 10 0c1.383 0 2.683.263 3.9.787a10.098 10.098 0 0 1 3.175 2.138c.9.9 1.613 1.958 2.137 3.175A9.738 9.738 0 0 1 20 10a9.738 9.738 0 0 1-.788 3.9 10.098 10.098 0 0 1-2.137 3.175c-.9.9-1.958 1.613-3.175 2.137A9.738 9.738 0 0 1 10 20Zm0-2c2.233 0 4.125-.775 5.675-2.325C17.225 14.125 18 12.233 18 10c0-2.233-.775-4.125-2.325-5.675C14.125 2.775 12.233 2 10 2c-2.233 0-4.125.775-5.675 2.325C2.775 5.875 2 7.767 2 10c0 2.233.775 4.125 2.325 5.675C5.875 17.225 7.767 18 10 18Z" fill="currentColor"/></svg><svg viewBox="0 0 18 18" fill="none" id="phone" xmlns="http://www.w3.org/2000/svg"><path d="M16 9c0-1.95-.68-3.604-2.037-4.963C12.604 2.68 10.95 2 9 2V0c1.25 0 2.42.237 3.512.713a9.147 9.147 0 0 1 2.85 1.925 9.149 9.149 0 0 1 1.926 2.85A8.707 8.707 0 0 1 18 9h-2Zm-4 0c0-.833-.292-1.542-.875-2.125A2.893 2.893 0 0 0 9 6V4c1.383 0 2.563.487 3.537 1.463C13.512 6.437 14 7.617 14 9h-2Zm4.95 9c-2.083 0-4.142-.454-6.175-1.363-2.033-.908-3.883-2.195-5.55-3.862-1.667-1.667-2.954-3.517-3.862-5.55C.453 5.192 0 3.133 0 1.05 0 .75.1.5.3.3.5.1.75 0 1.05 0H5.1a.93.93 0 0 1 .625.237A.914.914 0 0 1 6.05.8l.65 3.5c.033.267.025.492-.025.675-.05.183-.142.342-.275.475L3.975 7.9c.333.617.73 1.213 1.187 1.787.459.575.963 1.13 1.513 1.663.517.517 1.058.996 1.625 1.438.567.441 1.167.845 1.8 1.212l2.35-2.35a1.4 1.4 0 0 1 .588-.338 1.61 1.61 0 0 1 .712-.062l3.45.7c.233.067.425.188.575.363A.88.88 0 0 1 18 12.9v4.05c0 .3-.1.55-.3.75-.2.2-.45.3-.75.3ZM3.025 6l1.65-1.65L4.25 2H2.025c.083.683.2 1.358.35 2.025.15.667.367 1.325.65 1.975Zm8.95 8.95c.65.283 1.313.508 1.988.675.675.167 1.354.275 2.037.325v-2.2l-2.35-.475-1.675 1.675Z" fill="currentColor"/></svg><svg viewBox="0 0 16 16" fill="none" id="point" xmlns="http://www.w3.org/2000/svg"><path d="M8 10.25a2.17 2.17 0 0 0 1.594-.656A2.17 2.17 0 0 0 10.25 8a2.17 2.17 0 0 0-.656-1.594A2.17 2.17 0 0 0 8 5.75a2.17 2.17 0 0 0-1.594.656A2.17 2.17 0 0 0 5.75 8c0 .625.219 1.156.656 1.594A2.17 2.17 0 0 0 8 10.25Zm0 5.25a7.304 7.304 0 0 1-2.925-.59 7.575 7.575 0 0 1-2.381-1.604 7.574 7.574 0 0 1-1.603-2.381A7.303 7.303 0 0 1 .5 8c0-1.037.197-2.013.59-2.925a7.574 7.574 0 0 1 1.604-2.381A7.574 7.574 0 0 1 5.075 1.09 7.303 7.303 0 0 1 8 .5c1.037 0 2.012.197 2.925.59a7.574 7.574 0 0 1 2.381 1.604 7.575 7.575 0 0 1 1.603 2.381c.394.912.591 1.888.591 2.925a7.304 7.304 0 0 1-.59 2.925 7.575 7.575 0 0 1-1.604 2.381 7.575 7.575 0 0 1-2.381 1.603A7.304 7.304 0 0 1 8 15.5ZM8 14c1.675 0 3.094-.581 4.256-1.744C13.42 11.094 14 9.675 14 8c0-1.675-.581-3.094-1.744-4.256C11.094 2.58 9.675 2 8 2c-1.675 0-3.094.581-4.256 1.744C2.58 4.906 2 6.325 2 8c0 1.675.581 3.094 1.744 4.256C4.906 13.42 6.325 14 8 14Z" fill="currentColor"/></svg><svg viewBox="0 0 16 16" fill="none" id="point-green" xmlns="http://www.w3.org/2000/svg"><path d="M8 10.25a2.17 2.17 0 0 0 1.594-.656A2.17 2.17 0 0 0 10.25 8a2.17 2.17 0 0 0-.656-1.594A2.17 2.17 0 0 0 8 5.75a2.17 2.17 0 0 0-1.594.656A2.17 2.17 0 0 0 5.75 8c0 .625.219 1.156.656 1.594A2.17 2.17 0 0 0 8 10.25Zm0 5.25a7.304 7.304 0 0 1-2.925-.59 7.575 7.575 0 0 1-2.381-1.604 7.574 7.574 0 0 1-1.603-2.381A7.303 7.303 0 0 1 .5 8c0-1.037.197-2.013.59-2.925a7.574 7.574 0 0 1 1.604-2.381A7.574 7.574 0 0 1 5.075 1.09 7.303 7.303 0 0 1 8 .5c1.037 0 2.012.197 2.925.59a7.574 7.574 0 0 1 2.381 1.604 7.575 7.575 0 0 1 1.603 2.381c.394.912.591 1.888.591 2.925a7.304 7.304 0 0 1-.59 2.925 7.575 7.575 0 0 1-1.604 2.381 7.575 7.575 0 0 1-2.381 1.603A7.304 7.304 0 0 1 8 15.5ZM8 14c1.675 0 3.094-.581 4.256-1.744C13.42 11.094 14 9.675 14 8c0-1.675-.581-3.094-1.744-4.256C11.094 2.58 9.675 2 8 2c-1.675 0-3.094.581-4.256 1.744C2.58 4.906 2 6.325 2 8c0 1.675.581 3.094 1.744 4.256C4.906 13.42 6.325 14 8 14Z" fill="#64BDA5"/></svg><svg viewBox="0 0 36 28" fill="none" id="quotes" xmlns="http://www.w3.org/2000/svg"><path d="M0 .5V14h9c0 4.961-4.034 9-9 9v4.5c7.444 0 13.5-6.056 13.5-13.5V.5H0ZM22.5.5V14h9c0 4.961-4.034 9-9 9v4.5C29.944 27.5 36 21.444 36 14V.5H22.5Z" fill="#2197AC"/></svg><svg viewBox="0 0 22 16" fill="none" id="schedule" xmlns="http://www.w3.org/2000/svg"><path d="M14 16c-2.233 0-4.125-.775-5.675-2.325C6.775 12.125 6 10.233 6 8c0-2.217.775-4.104 2.325-5.662C9.875.779 11.767 0 14 0c2.217 0 4.104.78 5.663 2.337C21.22 3.896 22 5.784 22 8c0 2.233-.78 4.125-2.337 5.675C18.104 15.225 16.216 16 14 16Zm0-2c1.667 0 3.083-.583 4.25-1.75C19.417 11.083 20 9.667 20 8c0-1.667-.583-3.083-1.75-4.25C17.083 2.583 15.667 2 14 2c-1.667 0-3.083.583-4.25 1.75C8.583 4.917 8 6.333 8 8c0 1.667.583 3.083 1.75 4.25C10.917 13.417 12.333 14 14 14Zm2.275-2.275L17.7 10.3 15 7.6V4h-2v4.425l3.275 3.3ZM1 5V3h4v2H1ZM0 9V7h5v2H0Zm1 4v-2h4v2H1Z" fill="currentColor"/></svg><svg viewBox="0 0 20 20" fill="none" id="smile" xmlns="http://www.w3.org/2000/svg"><path d="M13.5 9c.417 0 .77-.146 1.063-.438.291-.291.437-.645.437-1.062 0-.417-.146-.77-.438-1.063A1.447 1.447 0 0 0 13.5 6c-.417 0-.77.146-1.063.438A1.446 1.446 0 0 0 12 7.5c0 .417.146.77.438 1.063.291.291.645.437 1.062.437Zm-7 0c.417 0 .77-.146 1.063-.438C7.854 8.271 8 7.918 8 7.5c0-.417-.146-.77-.438-1.063A1.447 1.447 0 0 0 6.5 6c-.417 0-.77.146-1.063.438A1.447 1.447 0 0 0 5 7.5c0 .417.146.77.438 1.063.291.291.645.437 1.062.437Zm3.5 6.5c1.133 0 2.162-.32 3.088-.963A5.485 5.485 0 0 0 15.1 12h-1.65a4.1 4.1 0 0 1-1.462 1.463A3.846 3.846 0 0 1 10 14c-.717 0-1.38-.18-1.988-.537A4.099 4.099 0 0 1 6.55 12H4.9a5.485 5.485 0 0 0 2.012 2.537A5.294 5.294 0 0 0 10 15.5Zm0 4.5a9.738 9.738 0 0 1-3.9-.788 10.099 10.099 0 0 1-3.175-2.137c-.9-.9-1.612-1.958-2.137-3.175A9.738 9.738 0 0 1 0 10c0-1.383.263-2.683.787-3.9a10.099 10.099 0 0 1 2.138-3.175c.9-.9 1.958-1.612 3.175-2.137A9.738 9.738 0 0 1 10 0c1.383 0 2.683.263 3.9.787a10.098 10.098 0 0 1 3.175 2.138c.9.9 1.613 1.958 2.137 3.175A9.738 9.738 0 0 1 20 10a9.738 9.738 0 0 1-.788 3.9 10.098 10.098 0 0 1-2.137 3.175c-.9.9-1.958 1.613-3.175 2.137A9.738 9.738 0 0 1 10 20Zm0-2c2.233 0 4.125-.775 5.675-2.325C17.225 14.125 18 12.233 18 10c0-2.233-.775-4.125-2.325-5.675C14.125 2.775 12.233 2 10 2c-2.233 0-4.125.775-5.675 2.325C2.775 5.875 2 7.767 2 10c0 2.233.775 4.125 2.325 5.675C5.875 17.225 7.767 18 10 18Z" fill="currentColor"/></svg><svg viewBox="0 0 24 27" fill="none" id="tik-tok" xmlns="http://www.w3.org/2000/svg"><path d="M23.603 6.365v4.532a11.917 11.917 0 0 1-6.278-2.541v9.16l-.018-.029c.012.182.018.367.018.554 0 4.549-3.701 8.252-8.252 8.252-4.55 0-8.252-3.703-8.252-8.252 0-4.55 3.702-8.254 8.252-8.254.446 0 .883.035 1.31.104v4.467a3.913 3.913 0 0 0-5.218 3.683 3.913 3.913 0 0 0 3.908 3.908 3.914 3.914 0 0 0 3.902-4.15V-.002h4.528c.017.383.032.77.05 1.154.03.755.299 1.48.768 2.073a8.591 8.591 0 0 0 2.502 2.156 8.627 8.627 0 0 0 2.78.987v-.003Z" fill="currentColor"/></svg></svg>