<?xml version="1.0" encoding="utf-8"?><svg viewBox="0 0 49 69" xmlns="http://www.w3.org/2000/svg" xmlns:xlink="http://www.w3.org/1999/xlink"><style>:root>svg{display:none}:root>svg:target{display:block}</style><svg fill="none" viewBox="0 0 22 22" id="arr-d" xmlns="http://www.w3.org/2000/svg"><g opacity=".85" clip-path="url(#aclip0_13_494)"><path d="M21.459 5.244a.904.904 0 00-1.28 0l-9.317 9.317-9.317-9.317a.904.904 0 10-1.28 1.28l9.957 9.956a.902.902 0 001.28 0l9.957-9.956a.904.904 0 000-1.28z" fill="currentColor"/></g><defs><clipPath id="aclip0_13_494"><path fill="#fff" transform="rotate(-90 10.862 10.862)" d="M0 0h21.724v21.724H0z"/></clipPath></defs></svg><svg fill="none" viewBox="0 0 17 27" id="arr-l" xmlns="http://www.w3.org/2000/svg"><path d="M1 14.553L13.015 26.57c.278.278.649.431 1.044.431.396 0 .767-.153 1.045-.431l.885-.885a1.479 1.479 0 000-2.089l-10.09-10.09 10.1-10.1c.279-.278.432-.649.432-1.044 0-.396-.153-.767-.431-1.045L15.115.43A1.466 1.466 0 0014.07 0c-.395 0-.766.153-1.044.431L1 12.457a1.468 1.468 0 00-.431 1.048c-.001.397.152.77.43 1.048z" fill="currentColor"/></svg><svg fill="none" viewBox="0 0 17 27" id="arr-r" xmlns="http://www.w3.org/2000/svg"><path d="M16 12.447L3.985.43A1.466 1.466 0 002.941 0c-.396 0-.767.153-1.045.431l-.885.885a1.479 1.479 0 000 2.089l10.09 10.09-10.1 10.1a1.467 1.467 0 00-.432 1.044c0 .396.153.767.431 1.045l.885.885c.278.278.649.431 1.044.431.396 0 .767-.153 1.045-.431L16 14.543c.279-.28.432-.652.431-1.048.001-.397-.152-.77-.43-1.048z" fill="currentColor"/></svg><svg fill="none" viewBox="0 0 30 23" id="arrows-l-g" xmlns="http://www.w3.org/2000/svg"><g opacity=".85" clip-path="url(#dclip0_106_781)"><path d="M16.48 22.01a.904.904 0 000-1.28l-9.317-9.316 9.317-9.317A.904.904 0 1015.2.817l-9.956 9.957a.903.903 0 000 1.28L15.2 22.01a.904.904 0 001.28 0z" fill="#15CE8C"/></g><g opacity=".5" clip-path="url(#dclip1_106_781)"><path d="M22.116 18.983a.646.646 0 000-.914l-6.654-6.655 6.654-6.655a.646.646 0 10-.914-.914l-7.112 7.112a.645.645 0 000 .914l7.112 7.112a.646.646 0 00.914 0z" fill="#15CE8C"/></g><g opacity=".25" clip-path="url(#dclip2_106_781)"><path d="M27.253 16.964a.474.474 0 000-.67l-4.88-4.88 4.88-4.88a.474.474 0 10-.67-.67l-5.216 5.215a.473.473 0 000 .67l5.216 5.215a.474.474 0 00.67 0z" fill="#15CE8C"/></g><defs><clipPath id="dclip0_106_781"><path fill="#15CE8C" transform="translate(0 .552)" d="M0 0h21.724v21.724H0z"/></clipPath><clipPath id="dclip1_106_781"><path fill="#15CE8C" transform="translate(10.345 3.655)" d="M0 0h15.517v15.517H0z"/></clipPath><clipPath id="dclip2_106_781"><path fill="#15CE8C" transform="translate(18.62 5.724)" d="M0 0h11.379v11.379H0z"/></clipPath></defs></svg><svg fill="none" viewBox="0 0 30 23" id="arrows-l-w" xmlns="http://www.w3.org/2000/svg"><g opacity=".85" clip-path="url(#eclip0_106_781)"><path d="M16.48 22.01a.904.904 0 000-1.28l-9.317-9.316 9.317-9.317A.904.904 0 1015.2.817l-9.956 9.957a.903.903 0 000 1.28L15.2 22.01a.904.904 0 001.28 0z" fill="#FFF"/></g><g opacity=".5" clip-path="url(#eclip1_106_781)"><path d="M22.116 18.983a.646.646 0 000-.914l-6.654-6.655 6.654-6.655a.646.646 0 10-.914-.914l-7.112 7.112a.645.645 0 000 .914l7.112 7.112a.646.646 0 00.914 0z" fill="#FFF"/></g><g opacity=".25" clip-path="url(#eclip2_106_781)"><path d="M27.253 16.964a.474.474 0 000-.67l-4.88-4.88 4.88-4.88a.474.474 0 10-.67-.67l-5.216 5.215a.473.473 0 000 .67l5.216 5.215a.474.474 0 00.67 0z" fill="#FFF"/></g><defs><clipPath id="eclip0_106_781"><path fill="#FFF" transform="translate(0 .552)" d="M0 0h21.724v21.724H0z"/></clipPath><clipPath id="eclip1_106_781"><path fill="#FFF" transform="translate(10.345 3.655)" d="M0 0h15.517v15.517H0z"/></clipPath><clipPath id="eclip2_106_781"><path fill="#FFF" transform="translate(18.62 5.724)" d="M0 0h11.379v11.379H0z"/></clipPath></defs></svg><svg fill="none" viewBox="0 0 30 23" id="arrows-r-g" xmlns="http://www.w3.org/2000/svg"><g opacity=".85" clip-path="url(#fclip0_9_337)"><path d="M13.52.817a.904.904 0 000 1.28l9.317 9.317-9.317 9.317a.904.904 0 101.28 1.28l9.956-9.957a.903.903 0 000-1.28L14.8.817a.904.904 0 00-1.28 0z" fill="#15CE8C"/></g><g opacity=".5" clip-path="url(#fclip1_9_337)"><path d="M7.884 3.845a.646.646 0 000 .914l6.654 6.655-6.654 6.655a.646.646 0 10.914.914l7.112-7.112a.645.645 0 000-.914L8.798 3.845a.646.646 0 00-.914 0z" fill="#15CE8C"/></g><g opacity=".25" clip-path="url(#fclip2_9_337)"><path d="M2.747 5.863a.474.474 0 000 .67l4.88 4.88-4.88 4.881a.474.474 0 10.67.67l5.216-5.215a.473.473 0 000-.67L3.417 5.863a.474.474 0 00-.67 0z" fill="#15CE8C"/></g><defs><clipPath id="fclip0_9_337"><path fill="#15CE8C" transform="rotate(-180 15 11.138)" d="M0 0h21.724v21.724H0z"/></clipPath><clipPath id="fclip1_9_337"><path fill="#15CE8C" transform="rotate(-180 9.828 9.586)" d="M0 0h15.517v15.517H0z"/></clipPath><clipPath id="fclip2_9_337"><path fill="#15CE8C" transform="rotate(-180 5.69 8.552)" d="M0 0h11.379v11.379H0z"/></clipPath></defs></svg><svg fill="none" viewBox="0 0 30 23" id="arrows-r-w" xmlns="http://www.w3.org/2000/svg"><g opacity=".85" clip-path="url(#gclip0_9_337)"><path d="M13.52.817a.904.904 0 000 1.28l9.317 9.317-9.317 9.317a.904.904 0 101.28 1.28l9.956-9.957a.903.903 0 000-1.28L14.8.817a.904.904 0 00-1.28 0z" fill="#FFF"/></g><g opacity=".5" clip-path="url(#gclip1_9_337)"><path d="M7.884 3.845a.646.646 0 000 .914l6.654 6.655-6.654 6.655a.646.646 0 10.914.914l7.112-7.112a.645.645 0 000-.914L8.798 3.845a.646.646 0 00-.914 0z" fill="#FFF"/></g><g opacity=".25" clip-path="url(#gclip2_9_337)"><path d="M2.747 5.863a.474.474 0 000 .67l4.88 4.88-4.88 4.881a.474.474 0 10.67.67l5.216-5.215a.473.473 0 000-.67L3.417 5.863a.474.474 0 00-.67 0z" fill="#FFF"/></g><defs><clipPath id="gclip0_9_337"><path fill="#FFF" transform="rotate(-180 15 11.138)" d="M0 0h21.724v21.724H0z"/></clipPath><clipPath id="gclip1_9_337"><path fill="#FFF" transform="rotate(-180 9.828 9.586)" d="M0 0h15.517v15.517H0z"/></clipPath><clipPath id="gclip2_9_337"><path fill="#FFF" transform="rotate(-180 5.69 8.552)" d="M0 0h11.379v11.379H0z"/></clipPath></defs></svg><svg fill="none" viewBox="0 0 33 33" id="check-circle" xmlns="http://www.w3.org/2000/svg"><path d="M31.114 5.238a1.168 1.168 0 00-1.652-.002L15.445 19.215l-5.057-5.492a1.169 1.169 0 00-1.719 1.582l5.881 6.387c.215.234.517.37.835.376h.024c.31 0 .606-.122.825-.34L31.111 6.89a1.168 1.168 0 00.003-1.652z" fill="currentColor" stroke="currentColor"/><path d="M30.832 15.332c-.646 0-1.169.523-1.169 1.168 0 7.259-5.904 13.163-13.163 13.163-7.258 0-13.163-5.904-13.163-13.163 0-7.258 5.905-13.163 13.163-13.163A1.168 1.168 0 1016.5 1C7.953 1 1 7.953 1 16.5 1 25.046 7.953 32 16.5 32 25.046 32 32 25.046 32 16.5c0-.645-.523-1.168-1.168-1.168z" fill="currentColor" stroke="currentColor"/></svg><svg fill="none" viewBox="0 0 14 14" id="check-g" xmlns="http://www.w3.org/2000/svg"><g clip-path="url(#iclip0_5_28)"><path d="M13.482 2.905a1.037 1.037 0 00-1.466 0L5.418 9.504 2.485 6.57a1.037 1.037 0 10-1.467 1.466l3.666 3.666a1.034 1.034 0 001.467 0l7.332-7.332a1.037 1.037 0 000-1.466z" fill="#15CE8C"/></g><defs><clipPath id="iclip0_5_28"><rect x=".715" y=".768" width="13.072" height="13.072" rx="6.536" fill="#15CE8C"/></clipPath></defs></svg><svg fill="none" viewBox="0 0 14 14" id="check-w" xmlns="http://www.w3.org/2000/svg"><g clip-path="url(#jclip0_5_28)"><path d="M13.482 2.905a1.037 1.037 0 00-1.466 0L5.418 9.504 2.485 6.57a1.037 1.037 0 10-1.467 1.466l3.666 3.666a1.034 1.034 0 001.467 0l7.332-7.332a1.037 1.037 0 000-1.466z" fill="#FFF"/></g><defs><clipPath id="jclip0_5_28"><rect x=".715" y=".768" width="13.072" height="13.072" rx="6.536" fill="#FFF"/></clipPath></defs></svg><svg fill="none" viewBox="0 0 28 20" id="email" xmlns="http://www.w3.org/2000/svg"><path d="M27.753 1.563L19.262 10l8.491 8.437c.154-.321.247-.676.247-1.055V2.617c0-.379-.093-.734-.247-1.054zM25.54.156H2.46c-.378 0-.733.093-1.053.247L12.26 11.202c.96.96 2.52.96 3.48 0L26.593.402A2.432 2.432 0 0025.54.157zM.247 1.563C.093 1.883 0 2.237 0 2.617v14.765c0 .38.093.734.247 1.055L8.738 10 .247 1.562z" fill="currentColor"/><path d="M18.102 11.16L16.9 12.362a4.106 4.106 0 01-5.8 0L9.898 11.16l-8.491 8.437c.32.154.675.247 1.054.247h23.078c.379 0 .733-.093 1.054-.247l-8.491-8.437z" fill="currentColor"/></svg><svg fill="none" viewBox="0 0 28 28" id="map" xmlns="http://www.w3.org/2000/svg"><path d="M11.23 11.388a8.361 8.361 0 01-.82-1.742v8.906l2.868-4.917a8.352 8.352 0 01-2.047-2.247zM18.308.27a6.727 6.727 0 00-6.72 6.719c0 .518.061 1.027.176 1.519l.008.033a6.644 6.644 0 00.273.875l.011.03a6.765 6.765 0 00.14.33l.018.036c.071.154.148.305.23.453l.019.032.071.123.035.057c.023.039.046.077.07.114l.04.062.073.11.04.059c.052.073.104.145.157.216l.033.044.073.093.06.073a6.593 6.593 0 00.209.244l.074.08c.023.025.045.05.069.074l.11.112.08.078.104.099.067.06a6.813 6.813 0 00.264.224l.066.054.121.093.05.037c.056.042.114.083.172.123l.051.034c.043.03.087.058.13.086l.067.042a6.757 6.757 0 00.32.189l.062.034c.064.034.129.068.194.1l1.166 1.797 1.009 1.556.13.2a.808.808 0 001.355 0l.13-.2.078-.12.922-1.422 1.175-1.81c.066-.033.13-.067.195-.102.02-.01.04-.022.061-.034a6.896 6.896 0 00.32-.188l.069-.043.124-.082.058-.039c.058-.04.116-.08.172-.123.016-.01.03-.022.045-.034l.126-.096.068-.055a5.744 5.744 0 00.259-.22l.073-.067.086-.081.07-.067c.046-.045.091-.092.136-.139l.077-.082.066-.071a6.672 6.672 0 00.265-.314l.082-.105.03-.04c.1-.133.195-.27.285-.409l.023-.035.081-.133.024-.039a6.77 6.77 0 00.08-.138l.014-.026c.12-.215.227-.436.323-.664l.002-.006c.024-.056.047-.113.069-.17l.004-.011a6.695 6.695 0 00.45-2.41 6.726 6.726 0 00-6.72-6.72zm0 10.367a3.653 3.653 0 01-3.649-3.648 3.652 3.652 0 013.649-3.649 3.652 3.652 0 013.648 3.649 3.653 3.653 0 01-3.648 3.648zM27.384 8.908l-.917-.224a8.342 8.342 0 01-1.082 2.704 8.338 8.338 0 01-2.967 2.853l-1.228 1.893 2.885 3.52H28V9.693a.808.808 0 00-.616-.785zM1 6.755a.808.808 0 00-1 .784v7.808h4.308c.216 0 .424.087.576.241l3.91 3.978V8.664L1 6.754zM16.275 17.443l-1.71-2.635h-.101l-4.054 6.949v5.8l7.09-1.736v-7.412a2.415 2.415 0 01-1.225-.966z" fill="currentColor"/><path d="M23.692 21.27a.808.808 0 01-.624-.296l-2.803-3.421c-.293.4-.694.695-1.15.856v7.368L27 27.707a.805.805 0 00.69-.149.808.808 0 00.31-.635V21.27h-4.308zM3.97 16.962H0v7.808c0 .372.254.696.616.784l8.179 2.003V21.87l-4.826-4.907z" fill="currentColor"/></svg><svg fill="none" viewBox="0 0 49 69" id="marker" xmlns="http://www.w3.org/2000/svg"><path d="M24.592.25C11.522.25.889 10.883.889 23.952.89 40.38 24.615 68.44 24.615 68.44s23.68-28.869 23.68-44.488C48.294 10.883 37.661.25 24.591.25zm7.151 30.642a10.083 10.083 0 01-7.151 2.958c-2.59 0-5.18-.986-7.151-2.958-3.944-3.943-3.944-10.359 0-14.302a10.045 10.045 0 017.15-2.963 10.05 10.05 0 017.152 2.963c3.944 3.943 3.944 10.36 0 14.302z" fill="currentColor"/></svg><svg fill="none" viewBox="0 0 27 27" id="phone" xmlns="http://www.w3.org/2000/svg"><g clip-path="url(#nclip0_158_228)" fill="currentColor"><path d="M17.771 0a.791.791 0 100 1.582 7.646 7.646 0 017.647 7.647.79.79 0 00.79.79h.001A.791.791 0 0027 9.23 9.228 9.228 0 0017.771 0z"/><path d="M17.771 3.164a.791.791 0 100 1.582 4.482 4.482 0 014.483 4.483.791.791 0 001.582 0 6.064 6.064 0 00-6.065-6.065z"/><path d="M17.771 6.328a.791.791 0 100 1.582c.729 0 1.319.59 1.319 1.319a.791.791 0 001.582 0 2.9 2.9 0 00-2.9-2.9zM10.352 8.07l.56-.559a2.376 2.376 0 000-3.356L7.556.8A2.376 2.376 0 004.2.8l-.56.56 6.712 6.712zM25.64 23.359l.56-.56a2.376 2.376 0 000-3.355l-3.356-3.357a2.376 2.376 0 00-3.356 0l-.56.56 6.713 6.712zM17.81 17.766l-.657.658a.784.784 0 01-.95.13 22.052 22.052 0 01-4.36-3.398 22.053 22.053 0 01-3.397-4.36.784.784 0 01.13-.949l.658-.658-6.712-6.711L1.41 3.589A4.774 4.774 0 00.046 6.337a4.843 4.843 0 00.56 3.013c1.998 3.635 4.325 6.724 7.323 9.721 2.997 2.998 6.086 5.324 9.72 7.322.928.51 1.97.704 3.014.56 1.05-.144 2-.615 2.748-1.364l1.111-1.111-6.712-6.712z"/></g><defs><clipPath id="nclip0_158_228"><path fill="currentColor" d="M0 0h27v27H0z"/></clipPath></defs></svg><svg fill="none" viewBox="0 0 36 42" id="play" xmlns="http://www.w3.org/2000/svg"><path d="M33.083 15.616L7.618.904A4.79 4.79 0 005.215.236 5.013 5.013 0 00.202 5.25v31.576a4.939 4.939 0 007.564 4.182l25.495-16.106a5.413 5.413 0 00-.178-9.285z" fill="currentColor"/></svg><svg fill="none" viewBox="0 0 25 26" id="plus" xmlns="http://www.w3.org/2000/svg"><path d="M22.803 10.715h-8.106v-8.43C14.697 1.023 13.714 0 12.5 0c-1.213 0-2.197 1.023-2.197 2.285v8.43H2.197C.984 10.715 0 11.738 0 13c0 1.262.984 2.285 2.197 2.285h8.106v8.43c0 1.262.983 2.285 2.197 2.285 1.213 0 2.197-1.023 2.197-2.285v-8.43h8.106C24.016 15.285 25 14.262 25 13c0-1.262-.984-2.285-2.197-2.285z" fill="currentColor"/></svg><svg fill="none" viewBox="0 0 8 14" id="question" xmlns="http://www.w3.org/2000/svg"><path d="M.542 3.24l.66.345a.42.42 0 00.568-.182l.003-.006c.44-.788 1.119-1.304 1.864-1.415a2.065 2.065 0 011.536.388c.4.3.657.736.723 1.228.183 1.352-.928 2.236-1.82 2.946-.115.09-.223.177-.325.26-.746.617-1.099 1.416-1.08 2.444a.352.352 0 00.122.263c.07.059.157.084.244.071a.18.18 0 01.036-.003l.956.006c.14-.028.247-.158.263-.32.103-1.062.794-1.623 1.462-2.165.143-.116.29-.236.43-.36 1.135-1.002 1.604-2.103 1.434-3.365C7.39 1.692 6.258.549 4.59.317 3.116.112 1.156.745.34 2.617c-.101.233-.011.512.2.622zM3.465 11.414c-.447 0-.81.387-.81.862v.532c0 .476.363.862.81.862.447 0 .81-.386.81-.862v-.532c0-.475-.363-.862-.81-.862z" fill="currentColor"/></svg><svg fill="none" viewBox="0 0 27 27" id="schedule" xmlns="http://www.w3.org/2000/svg"><path d="M15.18.005a.796.796 0 00-.883.686.79.79 0 00.687.883c1.074.134 2.123.514 3.118.934a.792.792 0 00.615-1.458C17.587.574 16.397.156 15.18.005zM24.062 6.428a.791.791 0 00.152-1.108 13.496 13.496 0 00-2.587-2.587.792.792 0 00-.956 1.26c.861.654 1.629 1.422 2.282 2.283a.792.792 0 001.11.152zM24.86 7.808a.792.792 0 00-.421 1.037c.42.996.852 2.097.985 3.171a.79.79 0 101.57-.196c-.152-1.217-.62-2.46-1.097-3.59a.794.794 0 00-1.036-.422zM8.283 1.05a.792.792 0 00.615 1.458c.995-.42 2.044-.8 3.118-.934a.79.79 0 00.687-.883.798.798 0 00-.883-.686C10.603.156 9.413.574 8.283 1.05zM13.5 27c6.77 0 12.657-5.112 13.494-11.82a.791.791 0 00-1.57-.196c-.738 5.919-5.95 10.434-11.924 10.434-6.543 0-11.918-5.375-11.918-11.918 0-2.884 1.144-5.69 3.006-7.833v.261a.79.79 0 101.582 0V3.691a.79.79 0 00-.791-.79H3.14a.79.79 0 100 1.58h.381C1.331 6.932 0 10.166 0 13.5 0 20.915 6.085 27 13.5 27z" fill="currentColor"/><path d="M3.955 13.5c0 5.234 4.31 9.545 9.545 9.545 5.234 0 9.545-4.31 9.545-9.545 0-5.234-4.31-9.545-9.545-9.545-5.234 0-9.545 4.31-9.545 9.545zm10.336-3.164a.79.79 0 111.582 0v2.373h1.582v-2.373a.79.79 0 111.582 0v6.328a.79.79 0 11-1.582 0v-2.373h-2.373a.79.79 0 01-.791-.791v-3.164zm-3.955.791a.792.792 0 00-.791.791.79.79 0 11-1.582 0 2.376 2.376 0 012.373-2.373 2.376 2.376 0 012.373 2.373c0 1.582-1.053 2.372-1.899 3.006-.468.351-.802.633-1.014.949h2.122a.79.79 0 110 1.582H8.754a.79.79 0 01-.791-.79c0-1.583 1.053-2.372 1.899-3.007.808-.606 1.265-.986 1.265-1.74a.792.792 0 00-.791-.791z" fill="currentColor"/></svg></svg>