<svg width="180" height="69" viewBox="0 0 180 69" fill="none" xmlns="http://www.w3.org/2000/svg">
<path d="M27.0186 29.7014H25.6231C25.6076 30.6938 25.592 31.7094 25.5765 32.7483C25.5765 33.7716 25.5765 34.8028 25.5765 35.8416V36.958H27.1116C28.5226 36.958 29.5305 36.6169 30.1352 35.9347C30.7399 35.2369 31.0423 34.3453 31.0423 33.2599C31.0423 32.128 30.7167 31.252 30.0654 30.6317C29.4297 30.0115 28.4141 29.7014 27.0186 29.7014ZM21.1807 29.5851V28.6315H27.4372C29.4064 28.6315 30.8795 29.0657 31.8563 29.934C32.8487 30.7868 33.3449 31.8954 33.3449 33.2599C33.3449 34.1283 33.1278 34.9268 32.6936 35.6556C32.2595 36.3843 31.5617 36.9658 30.6004 37.3999C29.6545 37.8341 28.3831 38.0512 26.786 38.0512H25.5765C25.5765 38.8885 25.5765 39.7103 25.5765 40.5166C25.592 41.3229 25.6076 42.1447 25.6231 42.982L27.7861 43.2378V44.1914H21.1807V43.2378L23.3205 42.982C23.3515 42.0051 23.367 41.0128 23.367 40.0049C23.367 38.997 23.367 37.9892 23.367 36.9813V35.8416C23.367 34.8338 23.367 33.8337 23.367 32.8413C23.367 31.8334 23.3515 30.8333 23.3205 29.8409L21.1807 29.5851Z" fill="black"/>
<path d="M39.772 44.4938C38.8727 44.4938 38.0121 44.2844 37.1903 43.8658C36.384 43.4316 35.725 42.7882 35.2134 41.9353C34.7017 41.067 34.4458 39.9971 34.4458 38.7257C34.4458 37.4387 34.7017 36.3611 35.2134 35.4928C35.725 34.6089 36.384 33.9499 37.1903 33.5158C38.0121 33.0661 38.8727 32.8413 39.772 32.8413C40.6713 32.8413 41.5241 33.0661 42.3304 33.5158C43.1522 33.9499 43.819 34.6089 44.3307 35.4928C44.8579 36.3611 45.1215 37.4387 45.1215 38.7257C45.1215 39.9971 44.8579 41.067 44.3307 41.9353C43.819 42.7882 43.1522 43.4316 42.3304 43.8658C41.5241 44.2844 40.6713 44.4938 39.772 44.4938ZM39.772 43.4471C40.7799 43.4471 41.5552 43.0518 42.0979 42.261C42.6406 41.4547 42.9119 40.2762 42.9119 38.7257C42.9119 37.1596 42.6406 35.9657 42.0979 35.1439C41.5552 34.3221 40.7799 33.9112 39.772 33.9112C38.7641 33.9112 37.9889 34.3221 37.4462 35.1439C36.919 35.9657 36.6554 37.1596 36.6554 38.7257C36.6554 40.2762 36.919 41.4547 37.4462 42.261C37.9889 43.0518 38.7641 43.4471 39.772 43.4471Z" fill="black"/>
<path d="M47.0944 44.1914V43.3541L48.8155 43.0285C48.8311 42.4393 48.8388 41.8035 48.8388 41.1213C48.8543 40.4391 48.8621 39.8343 48.8621 39.3071V38.1907C48.8621 37.555 48.8543 37.0278 48.8388 36.6092C48.8388 36.1905 48.8233 35.7486 48.7923 35.2834L46.9549 35.0741V34.2601L50.2111 32.8413L50.5599 33.0739L50.746 34.9578C51.2887 34.3376 51.9244 33.8337 52.6532 33.446C53.382 33.0429 54.103 32.8413 54.8162 32.8413C55.545 32.8413 56.1342 33.0119 56.5839 33.353C57.049 33.6941 57.3824 34.2523 57.584 35.0276C58.1732 34.2988 58.8322 33.7561 59.561 33.3995C60.2897 33.0274 61.034 32.8413 61.7938 32.8413C62.7396 32.8413 63.4684 33.1592 63.9801 33.7949C64.5072 34.4306 64.7708 35.4695 64.7708 36.9115V39.3071C64.7708 39.8343 64.7708 40.4391 64.7708 41.1213C64.7864 41.8035 64.8019 42.4393 64.8174 43.0285L66.4455 43.3541V44.1914H61.0495V43.3541L62.7706 43.0285C62.7861 42.4548 62.7939 41.8268 62.7939 41.1446C62.8094 40.4468 62.8171 39.8343 62.8171 39.3071V37.2837C62.8171 36.1983 62.6621 35.4695 62.352 35.0974C62.0419 34.7097 61.5457 34.5159 60.8634 34.5159C60.3828 34.5159 59.8866 34.6244 59.3749 34.8415C58.8787 35.0586 58.336 35.4385 57.7468 35.9812C57.7623 36.1517 57.7701 36.3378 57.7701 36.5394C57.7856 36.7255 57.7933 36.927 57.7933 37.1441V39.3071C57.7933 39.8343 57.7933 40.4391 57.7933 41.1213C57.8088 41.8035 57.8243 42.4393 57.8398 43.0285L59.4679 43.3541V44.1914H54.072V43.3541L55.7931 43.0285C55.8086 42.4548 55.8163 41.8268 55.8163 41.1446C55.8318 40.4468 55.8396 39.8343 55.8396 39.3071V37.3302C55.8396 36.2758 55.6923 35.547 55.3977 35.1439C55.1031 34.7252 54.6147 34.5159 53.9324 34.5159C53.4052 34.5159 52.9013 34.6244 52.4206 34.8415C51.9399 35.0586 51.4127 35.4152 50.839 35.9114V39.3071C50.839 39.8188 50.839 40.4235 50.839 41.1213C50.8545 41.8035 50.87 42.4393 50.8856 43.0285L52.4904 43.3541V44.1914H47.0944Z" fill="black"/>
<path d="M68.0588 44.1914V43.3541L69.78 43.0285C69.7955 42.4393 69.8032 41.8035 69.8032 41.1213C69.8187 40.4391 69.8265 39.8343 69.8265 39.3071V38.1907C69.8265 37.555 69.8187 37.0278 69.8032 36.6092C69.8032 36.1905 69.7877 35.7486 69.7567 35.2834L67.9193 35.0741V34.2601L71.1755 32.8413L71.5243 33.0739L71.7104 34.9345C72.2841 34.3143 72.9431 33.8104 73.6874 33.4228C74.4316 33.0351 75.1604 32.8413 75.8737 32.8413C76.8815 32.8413 77.6258 33.1824 78.1065 33.8647C78.6027 34.5314 78.8507 35.6246 78.8507 37.1441V39.3071C78.8507 39.8343 78.8507 40.4391 78.8507 41.1213C78.8663 41.8035 78.8818 42.4393 78.8973 43.0285L80.5254 43.3541V44.1914H75.1294V43.3541L76.8505 43.0285C76.866 42.4548 76.8738 41.8268 76.8738 41.1446C76.8893 40.4468 76.897 39.8343 76.897 39.3071V37.3302C76.897 36.2603 76.742 35.5238 76.4319 35.1206C76.1373 34.7175 75.6488 34.5159 74.9666 34.5159C74.4394 34.5159 73.9277 34.6244 73.4315 34.8415C72.9353 35.0586 72.3927 35.4152 71.8034 35.9114V39.3071C71.8034 39.8188 71.8034 40.4235 71.8034 41.1213C71.8189 41.8035 71.8344 42.4393 71.85 43.0285L73.4548 43.3541V44.1914H68.0588Z" fill="black"/>
<path d="M82.0475 44.1914V43.3541L83.7919 43.0285C83.8074 42.4393 83.8152 41.8035 83.8152 41.1213C83.8307 40.4235 83.8384 39.8188 83.8384 39.3071V38.214C83.8384 37.5783 83.8307 37.0511 83.8152 36.6324C83.8152 36.1983 83.7996 35.7486 83.7686 35.2834L81.908 35.0741V34.2601L85.4898 32.8413L85.8386 33.0739L85.7689 36.237V39.3071C85.7689 39.8188 85.7689 40.4235 85.7689 41.1213C85.7844 41.8035 85.7999 42.4393 85.8154 43.0285L87.4435 43.3541V44.1914H82.0475ZM84.792 30.2829C84.3578 30.2829 83.9857 30.1433 83.6756 29.8642C83.381 29.5851 83.2337 29.2285 83.2337 28.7943C83.2337 28.3447 83.381 27.988 83.6756 27.7244C83.9857 27.4453 84.3578 27.3058 84.792 27.3058C85.2262 27.3058 85.5906 27.4453 85.8852 27.7244C86.1953 27.988 86.3503 28.3447 86.3503 28.7943C86.3503 29.2285 86.1953 29.5851 85.8852 29.8642C85.5906 30.1433 85.2262 30.2829 84.792 30.2829Z" fill="black"/>
<path d="M88.7425 44.1914V43.3541L90.6032 43.0285C90.6187 42.4083 90.6264 41.788 90.6264 41.1678C90.6419 40.5321 90.6497 39.9119 90.6497 39.3071V29.0967L88.7425 28.8641V28.05L92.3708 27.0034L92.6964 27.1895L92.6034 30.4922V38.6094L96.5806 34.4694L94.8595 34.0507V33.1436H100.279V34.0507L98.0924 34.3763L95.534 37.0046L99.3484 43.075L100.883 43.3541V44.1914H97.7203L94.1385 38.4233L92.6034 40.0049C92.6034 40.5011 92.6034 41.005 92.6034 41.5167C92.6189 42.0284 92.6344 42.5323 92.6499 43.0285L94.5106 43.3541V44.1914H88.7425Z" fill="black"/>
<path d="M104.369 44.4938C103.904 44.4938 103.509 44.331 103.183 44.0053C102.873 43.6797 102.718 43.2921 102.718 42.8424C102.718 42.3773 102.873 41.9819 103.183 41.6562C103.509 41.3306 103.904 41.1678 104.369 41.1678C104.834 41.1678 105.222 41.3306 105.532 41.6562C105.858 41.9819 106.021 42.3773 106.021 42.8424C106.021 43.2921 105.858 43.6797 105.532 44.0053C105.222 44.331 104.834 44.4938 104.369 44.4938Z" fill="black"/>
<path d="M108.551 44.1914V43.3541L110.296 43.0518C110.311 42.4625 110.319 41.8268 110.319 41.1446C110.334 40.4468 110.342 39.8343 110.342 39.3071V29.0967L108.435 28.8641V28.05L111.993 27.0034L112.319 27.1895L112.226 30.4922V34.6322C112.784 34.012 113.358 33.5623 113.947 33.2832C114.552 32.9886 115.172 32.8413 115.808 32.8413C116.63 32.8413 117.374 33.0661 118.041 33.5158C118.707 33.9654 119.235 34.6167 119.622 35.4695C120.025 36.3223 120.227 37.3534 120.227 38.5629C120.227 39.7568 120.018 40.8034 119.599 41.7028C119.18 42.5866 118.607 43.2766 117.878 43.7728C117.165 44.2534 116.351 44.4938 115.436 44.4938C114.893 44.4938 114.35 44.3775 113.808 44.1449C113.265 43.9123 112.738 43.4782 112.226 42.8424L112.04 44.424L108.551 44.1914ZM115.18 34.167C114.823 34.167 114.412 34.2601 113.947 34.4461C113.482 34.6322 112.932 34.9888 112.296 35.516V41.8888C112.777 42.3385 113.249 42.6641 113.715 42.8657C114.18 43.0673 114.629 43.168 115.064 43.168C115.885 43.168 116.599 42.8114 117.203 42.0982C117.824 41.3694 118.134 40.253 118.134 38.7489C118.134 37.2604 117.855 36.1285 117.296 35.3532C116.754 34.5624 116.048 34.167 115.18 34.167Z" fill="black"/>
<path d="M128.423 33.981V33.1436H132.958V33.981L131.702 34.2368L127.958 44.1216C127.182 46.1839 126.43 47.6724 125.702 48.5873C124.988 49.5176 124.151 49.9828 123.19 49.9828C122.616 49.9828 122.112 49.8355 121.678 49.5409C121.259 49.2618 121.05 48.8974 121.05 48.4477C121.127 48.1066 121.314 47.8507 121.608 47.6802C121.918 47.5096 122.252 47.4243 122.608 47.4243C122.918 47.4243 123.205 47.4864 123.469 47.6104C123.732 47.75 124.019 47.9825 124.329 48.3082L124.446 48.4245C124.942 48.0058 125.36 47.4941 125.702 46.8894C126.043 46.3002 126.322 45.6955 126.539 45.0752L126.632 44.7961L122.422 34.167L121.143 33.981V33.1436H126.725V34.0042L124.678 34.2368L127.586 42.1679L130.446 34.2601L128.423 33.981Z" fill="black"/>
<path fill-rule="evenodd" clip-rule="evenodd" d="M7.36519 12.7925H153.506V13.5678H8.14047V25.197H7.36519V12.7925ZM8.14047 60.8599V49.2307H7.36519V61.6352H131.798V60.8599H8.14047Z" fill="black"/>
<path fill-rule="evenodd" clip-rule="evenodd" d="M0 6.20215H169.787V20.5449H168.236V7.75271H1.55056V67.4494H168.236V61.2471H169.787V69H0V6.20215Z" fill="black"/>
<path d="M160.876 60.5278C165.39 56.037 168.288 50.4911 168.288 50.4911C163.403 53.8629 160.686 51.4496 154.626 52.7574C148.566 54.0651 145.645 59.7991 143.678 61.2465C142.425 62.1686 140.685 62.2533 139.79 62.0133C144.038 58.2148 148.936 53.0089 152.203 48.3233C153.483 47.9187 154.799 47.9022 155.694 48.0952C156.506 48.2759 157.45 48.8924 158.216 49.1435C159.889 49.7169 161.62 50.3023 163.853 50.0322C166.99 49.6375 168.209 48.9151 170.117 47.3616L170.363 47.163C177.373 41.0043 178.867 34.6865 178.937 34.4047L179.349 32.4316L177.839 33.7521C174.633 36.5332 172.153 36.6727 168.709 36.8776C167.851 36.9318 166.981 36.9741 166.005 37.0747C163.408 37.3311 161.039 38.4471 158.37 40.6903C157.551 41.3678 156.99 42.0703 156.441 42.7611C155.881 43.4635 154.643 45.056 153.894 45.6163C155.782 42.6635 158.207 38.6553 159.706 35.4769C160.137 34.7385 161.524 32.4531 162.742 31.5191C164.194 30.3981 165.9 30.6542 168.952 27.5078C171.104 25.2853 172.948 20.5333 172.525 16.3922C171.558 7.07461 165.7 0 165.7 0C165.7 0 166.05 1.73031 165.172 4.68861C164.133 8.1869 163.103 9.00441 160.189 13.8565C158.978 15.8959 157.686 18.464 157.706 22.0855C157.721 24.884 159.552 28.6564 159.343 31.3244C159.21 32.9463 158.457 34.9528 158.457 34.9528C156.62 38.8466 154.453 42.574 152.027 46.1118L150.673 48.0093C149.739 49.2977 148.758 50.5623 147.742 51.7914C147.77 50.3688 148.085 47.7602 149.79 45.5589C151.95 42.7369 153.865 40.278 152.594 33.5573C151.432 27.4369 153.385 23.191 153.385 23.191C153.385 23.191 148.874 26.212 145.8 29.4995C143.146 32.3424 140.971 36.8105 141.332 40.4457C141.692 44.0808 143.16 45.9935 144.914 48.4486C146.181 50.2074 146.113 52.8056 145.919 53.9215C142.659 57.6077 139.067 61.01 135.157 64.0695C134.864 64.2914 134.807 64.7261 135.056 65.0214C135.08 65.045 135.091 65.0568 135.115 65.0805C135.351 65.3169 135.74 65.3543 136.009 65.1323C136.7 64.5834 137.39 64.0345 138.058 63.462C139.352 63.61 142.011 63.9771 143.742 64.5391C145.863 65.256 152.83 68.5505 160.876 60.5278ZM157.234 43.6707C157.76 43.0504 158.544 42.3138 159.258 41.718C161.716 39.6618 163.839 38.6503 166.154 38.4159C167.094 38.3269 167.952 38.2727 168.798 38.2302C171.737 38.0579 174.17 37.9182 176.947 36.1342C175.995 38.4336 173.923 42.2791 169.523 46.112L169.277 46.3106C167.439 47.7939 166.442 48.3412 163.681 48.6908C161.766 48.9274 160.246 48.4137 158.656 47.876C157.867 47.6013 157.03 47.3263 156.136 47.1334C155.253 46.9523 153.902 47.1684 152.786 47.4328C152.891 47.2805 153.347 46.6598 153.452 46.5075C155.846 45.6738 156.124 45.0169 157.234 43.6707Z" fill="black"/>
<circle cx="7.75282" cy="37.2136" r="1.55056" fill="black"/>
</svg>
