<svg width="17" height="27" viewBox="0 0 17 27" fill="none" xmlns="http://www.w3.org/2000/svg">
<path d="M16.0004 12.4465L3.98509 0.431338C3.70719 0.153218 3.33622 0 2.94066 0C2.5451 0 2.17413 0.153218 1.89623 0.431338L1.01138 1.31596C0.435605 1.8924 0.435605 2.82927 1.01138 3.40483L11.101 13.4944L1.00019 23.5952C0.722285 23.8733 0.568848 24.244 0.568848 24.6394C0.568848 25.0352 0.722285 25.4059 1.00019 25.6843L1.88503 26.5687C2.16315 26.8468 2.53391 27 2.92946 27C3.32502 27 3.69599 26.8468 3.97389 26.5687L16.0004 14.5426C16.279 14.2636 16.432 13.8911 16.4311 13.4951C16.432 13.0975 16.279 12.7252 16.0004 12.4465Z" fill="currentColor"/>
</svg>
