<svg width="17" height="27" viewBox="0 0 17 27" fill="none" xmlns="http://www.w3.org/2000/svg">
<path d="M0.999548 14.5535L13.0149 26.5687C13.2928 26.8468 13.6638 27 14.0593 27C14.4549 27 14.8258 26.8468 15.1037 26.5687L15.9886 25.684C16.5644 25.1076 16.5644 24.1707 15.9886 23.5952L5.89902 13.5056L15.9998 3.40483C16.2777 3.12671 16.4311 2.75595 16.4311 2.36061C16.4311 1.96484 16.2777 1.59408 15.9998 1.31574L15.1149 0.431337C14.8368 0.153217 14.4661 0 14.0705 0C13.675 0 13.304 0.153217 13.0261 0.431337L0.999548 12.4574C0.720989 12.7364 0.567991 13.1089 0.56887 13.5049C0.567991 13.9025 0.720989 14.2748 0.999548 14.5535Z" fill="currentColor"/>
</svg>
