<svg width="30" height="23" viewBox="0 0 30 23" fill="none" xmlns="http://www.w3.org/2000/svg">
<g opacity="0.85" clip-path="url(#clip0_9_337)">
<path d="M13.5198 0.817163C13.1659 1.17106 13.1659 1.74313 13.5198 2.09703L22.8365 11.4138L13.5198 20.7306C13.1659 21.0845 13.1659 21.6565 13.5198 22.0104C13.8737 22.3643 14.4457 22.3643 14.7996 22.0104L24.7563 12.0537C24.9328 11.8772 25.0215 11.6455 25.0215 11.4138C25.0215 11.182 24.9328 10.9503 24.7563 10.7738L14.7996 0.81712C14.4457 0.463263 13.8737 0.463263 13.5198 0.817163Z" fill="#15CE8C"/>
</g>
<g opacity="0.5" clip-path="url(#clip1_9_337)">
<path d="M7.88356 3.84476C7.63077 4.09755 7.63077 4.50617 7.88356 4.75896L14.5384 11.4138L7.88356 18.0686C7.63077 18.3214 7.63077 18.73 7.88356 18.9828C8.13635 19.2356 8.54497 19.2356 8.79775 18.9828L15.9097 11.8709C16.0358 11.7448 16.0991 11.5793 16.0991 11.4138C16.0991 11.2482 16.0358 11.0827 15.9097 10.9567L8.79775 3.84473C8.54497 3.59198 8.13635 3.59198 7.88356 3.84476Z" fill="#15CE8C"/>
</g>
<g opacity="0.25" clip-path="url(#clip2_9_337)">
<path d="M2.74676 5.86319C2.56138 6.04857 2.56138 6.34822 2.74676 6.5336L7.62695 11.4138L2.74676 16.294C2.56138 16.4794 2.56138 16.779 2.74676 16.9644C2.93214 17.1498 3.23179 17.1498 3.41717 16.9644L8.63258 11.749C8.72503 11.6566 8.77151 11.5352 8.77151 11.4138C8.77151 11.2924 8.72503 11.171 8.63258 11.0786L3.41717 5.86317C3.23179 5.67782 2.93214 5.67782 2.74676 5.86319Z" fill="#15CE8C"/>
</g>
<defs>
<clipPath id="clip0_9_337">
<rect width="21.7241" height="21.7241" fill="#15CE8C" transform="translate(30 22.2759) rotate(-180)"/>
</clipPath>
<clipPath id="clip1_9_337">
<rect width="15.5172" height="15.5172" fill="#15CE8C" transform="translate(19.6552 19.1724) rotate(-180)"/>
</clipPath>
<clipPath id="clip2_9_337">
<rect width="11.3793" height="11.3793" fill="#15CE8C" transform="translate(11.3793 17.1035) rotate(-180)"/>
</clipPath>
</defs>
</svg>
