<svg width="30" height="23" viewBox="0 0 30 23" fill="none" xmlns="http://www.w3.org/2000/svg">
<g opacity="0.85" clip-path="url(#clip0_106_781)">
<path d="M16.4802 22.0105C16.8341 21.6566 16.8341 21.0845 16.4802 20.7306L7.1635 11.4138L16.4802 2.09706C16.8341 1.74316 16.8341 1.17108 16.4802 0.817183C16.1263 0.463283 15.5543 0.463283 15.2004 0.817183L5.24367 10.7739C5.06716 10.9504 4.97845 11.1821 4.97845 11.4138C4.97845 11.6456 5.06716 11.8773 5.24367 12.0538L15.2004 22.0105C15.5543 22.3644 16.1263 22.3644 16.4802 22.0105Z" fill="#15CE8C"/>
</g>
<g opacity="0.5" clip-path="url(#clip1_106_781)">
<path d="M22.1164 18.9829C22.3692 18.7301 22.3692 18.3215 22.1164 18.0687L15.4616 11.4139L22.1164 4.75906C22.3692 4.50627 22.3692 4.09765 22.1164 3.84486C21.8637 3.59208 21.455 3.59208 21.2022 3.84486L14.0903 10.9568C13.9642 11.0829 13.9009 11.2484 13.9009 11.4139C13.9009 11.5794 13.9642 11.7449 14.0903 11.871L21.2022 18.9829C21.455 19.2357 21.8637 19.2357 22.1164 18.9829Z" fill="#15CE8C"/>
</g>
<g opacity="0.25" clip-path="url(#clip2_106_781)">
<path d="M27.2532 16.9644C27.4386 16.779 27.4386 16.4794 27.2532 16.294L22.373 11.4138L27.2532 6.53356C27.4386 6.34819 27.4386 6.04853 27.2532 5.86315C27.0678 5.67778 26.7681 5.67778 26.5828 5.86315L21.3674 11.0786C21.2749 11.171 21.2284 11.2924 21.2284 11.4138C21.2284 11.5352 21.2749 11.6565 21.3674 11.749L26.5828 16.9644C26.7681 17.1498 27.0678 17.1498 27.2532 16.9644Z" fill="#15CE8C"/>
</g>
<defs>
<clipPath id="clip0_106_781">
<rect width="21.7241" height="21.7241" fill="#15CE8C" transform="translate(0 0.551758)"/>
</clipPath>
<clipPath id="clip1_106_781">
<rect width="15.5172" height="15.5172" fill="#15CE8C" transform="translate(10.3448 3.65527)"/>
</clipPath>
<clipPath id="clip2_106_781">
<rect width="11.3793" height="11.3793" fill="#15CE8C" transform="translate(18.6207 5.72412)"/>
</clipPath>
</defs>
</svg>
