<svg width="33" height="33" viewBox="0 0 33 33" fill="none" xmlns="http://www.w3.org/2000/svg">
<path d="M31.1136 5.23769C30.6575 4.78086 29.9176 4.78008 29.4616 5.23575L15.4454 19.2149L10.3884 13.7225C9.95142 13.2482 9.21263 13.2175 8.73751 13.6544C8.26277 14.0913 8.23237 14.8305 8.66934 15.3052L14.55 21.6918C14.7654 21.9259 15.0668 22.0618 15.3846 22.0684C15.3931 22.0688 15.4014 22.0688 15.4095 22.0688C15.7184 22.0688 16.0155 21.9461 16.2344 21.728L31.1113 6.89007C31.5685 6.43446 31.5693 5.69452 31.1136 5.23769Z" fill="currentColor" stroke="currentColor"/>
<path d="M30.8316 15.3316C30.1863 15.3316 29.6633 15.8546 29.6633 16.5C29.6633 23.7585 23.7585 29.6633 16.5 29.6633C9.24188 29.6633 3.33669 23.7585 3.33669 16.5C3.33669 9.24188 9.24188 3.33669 16.5 3.33669C17.1453 3.33669 17.6684 2.81368 17.6684 2.16837C17.6684 1.523 17.1453 1 16.5 1C7.9532 1 1 7.9532 1 16.5C1 25.0464 7.9532 32 16.5 32C25.0464 32 32 25.0464 32 16.5C32 15.8547 31.477 15.3316 30.8316 15.3316Z" fill="currentColor" stroke="currentColor"/>
</svg>
