<svg width="28" height="20" viewBox="0 0 28 20" fill="none" xmlns="http://www.w3.org/2000/svg">
<path d="M27.7534 1.5625L19.2615 9.99963L27.7534 18.4368C27.9069 18.1159 28 17.7612 28 17.3824V2.61682C28 2.238 27.9069 1.88335 27.7534 1.5625Z" fill="currentColor"/>
<path d="M25.5391 0.15625H2.46094C2.08212 0.15625 1.72747 0.249383 1.40662 0.402891L12.2601 11.2016C13.2197 12.1613 14.7803 12.1613 15.7399 11.2016L26.5934 0.402891C26.2725 0.249383 25.9179 0.15625 25.5391 0.15625Z" fill="currentColor"/>
<path d="M0.246641 1.5625C0.0931328 1.88335 0 2.238 0 2.61682V17.3824C0 17.7613 0.0931328 18.116 0.246641 18.4368L8.73846 9.99963L0.246641 1.5625Z" fill="currentColor"/>
<path d="M18.1016 11.1602L16.8999 12.3618C15.3009 13.9608 12.699 13.9608 11.1 12.3618L9.89844 11.1602L1.40662 19.5973C1.72747 19.7508 2.08212 19.8439 2.46094 19.8439H25.5391C25.9179 19.8439 26.2725 19.7508 26.5934 19.5973L18.1016 11.1602Z" fill="currentColor"/>
</svg>
