<svg width="28" height="28" viewBox="0 0 28 28" fill="none" xmlns="http://www.w3.org/2000/svg">
<path d="M11.2306 11.3878C10.8887 10.8376 10.6148 10.253 10.4102 9.64648V18.5517L13.2783 13.635C12.4685 13.0209 11.7735 12.2613 11.2306 11.3878Z" fill="currentColor"/>
<path d="M18.3077 0.269531C14.6027 0.269531 11.5884 3.2838 11.5884 6.98877C11.5884 7.50699 11.6494 8.01596 11.7641 8.50799C11.7667 8.51914 11.7693 8.53035 11.7719 8.54145C11.7847 8.59505 11.7981 8.64842 11.8122 8.70158C11.815 8.71208 11.8178 8.72258 11.8207 8.73302C11.8833 8.96517 11.9582 9.193 12.0448 9.4158C12.0486 9.42559 12.0522 9.43543 12.0561 9.44527C12.0754 9.49422 12.0954 9.54289 12.1158 9.59129C12.1218 9.60567 12.1279 9.62 12.1341 9.63433C12.1545 9.6818 12.1752 9.7291 12.1967 9.77608C12.2023 9.78827 12.2081 9.80031 12.2137 9.81245C12.2851 9.96617 12.3621 10.1171 12.4446 10.2648C12.4506 10.2756 12.4565 10.2865 12.4626 10.2974C12.4858 10.3385 12.5099 10.3792 12.534 10.4198C12.5455 10.439 12.5569 10.4583 12.5686 10.4774C12.5918 10.5157 12.6154 10.5536 12.6394 10.5914C12.6526 10.6121 12.666 10.6326 12.6794 10.6532C12.7034 10.6901 12.7275 10.727 12.7522 10.7635C12.7656 10.7831 12.7794 10.8026 12.7929 10.822C12.8437 10.8951 12.8958 10.9672 12.9494 11.0382C12.9604 11.0529 12.9712 11.0679 12.9824 11.0823C13.0062 11.1134 13.0308 11.1439 13.0552 11.1747C13.0747 11.1992 13.0942 11.2238 13.1141 11.2482C13.1379 11.2772 13.162 11.3059 13.1863 11.3345C13.208 11.3602 13.2299 11.3855 13.2519 11.4109C13.2757 11.4381 13.2996 11.4652 13.3237 11.4921C13.3481 11.5191 13.373 11.5458 13.3978 11.5725C13.4206 11.597 13.4433 11.6217 13.4666 11.646C13.5029 11.6838 13.5399 11.721 13.5771 11.7581C13.6034 11.7843 13.6301 11.8101 13.6568 11.8359C13.6914 11.8692 13.7261 11.9023 13.7613 11.9349C13.7833 11.955 13.8055 11.9748 13.8277 11.9947C13.8591 12.0228 13.8905 12.0508 13.9224 12.0783C13.9453 12.0981 13.9684 12.1177 13.9916 12.1372C14.0247 12.1649 14.058 12.1922 14.0915 12.2194C14.1136 12.2373 14.1357 12.2553 14.1582 12.2729C14.198 12.3043 14.2384 12.3351 14.279 12.3656C14.2955 12.378 14.3118 12.3908 14.3284 12.403C14.3853 12.4449 14.4429 12.486 14.5012 12.5261C14.518 12.5377 14.5351 12.5488 14.552 12.5602C14.5952 12.5894 14.6385 12.6181 14.6824 12.6464C14.7045 12.6605 14.7268 12.6744 14.7491 12.6884C14.7892 12.7135 14.8296 12.7382 14.8703 12.7625C14.8932 12.7762 14.9162 12.7898 14.9393 12.8033C14.9825 12.8283 15.026 12.8527 15.0698 12.8768C15.0902 12.8881 15.1104 12.8994 15.131 12.9105C15.1952 12.945 15.2599 12.9788 15.3255 13.0113L16.4908 14.808L17.5 16.3638L17.6301 16.5644C17.779 16.794 18.0341 16.9325 18.3077 16.9325C18.5813 16.9325 18.8363 16.794 18.9853 16.5644L19.1154 16.3638L19.1925 16.2449L20.1152 14.8223L21.2899 13.0113C21.3556 12.9787 21.4205 12.9449 21.4848 12.9103C21.5055 12.8992 21.5258 12.8876 21.5464 12.8764C21.5901 12.8523 21.6334 12.828 21.6765 12.803C21.7 12.7894 21.7234 12.7755 21.7466 12.7615C21.7869 12.7375 21.8268 12.7131 21.8664 12.6883C21.8893 12.6739 21.9123 12.6596 21.935 12.645C21.9768 12.6181 22.0182 12.5906 22.0593 12.5628C22.0785 12.5499 22.0979 12.5373 22.1169 12.5241C22.1751 12.4839 22.2327 12.4431 22.2895 12.4012C22.3046 12.3901 22.3192 12.3785 22.3342 12.3673C22.3763 12.3357 22.4183 12.3038 22.4596 12.2712C22.4826 12.253 22.5053 12.2344 22.5281 12.2159C22.5608 12.1895 22.5933 12.1629 22.6254 12.1358C22.6499 12.1153 22.6741 12.0946 22.6982 12.0737C22.728 12.0478 22.7576 12.0217 22.787 11.9952C22.8114 11.9733 22.8359 11.9515 22.8599 11.9293C22.889 11.9025 22.9175 11.8751 22.9459 11.8478C22.969 11.8257 22.9925 11.8038 23.0152 11.7814C23.0617 11.7357 23.1074 11.6893 23.1524 11.6423C23.1785 11.6152 23.2037 11.5874 23.2293 11.5599C23.2512 11.5363 23.2732 11.5126 23.2948 11.4887C23.3215 11.459 23.3477 11.429 23.3738 11.3989C23.393 11.3768 23.4122 11.3546 23.4311 11.3323C23.458 11.3005 23.4846 11.2685 23.5109 11.2362C23.5274 11.2159 23.5438 11.1954 23.5601 11.1748C23.5876 11.1401 23.6152 11.1055 23.6421 11.0703C23.6525 11.0567 23.6626 11.0428 23.6729 11.0291C23.7726 10.8966 23.8673 10.7605 23.957 10.621C23.9645 10.6092 23.9722 10.5976 23.9796 10.5857C24.0074 10.542 24.0344 10.4979 24.0611 10.4535C24.0691 10.4404 24.0769 10.4272 24.0847 10.4141C24.1118 10.3683 24.1385 10.3224 24.1645 10.276C24.1694 10.2674 24.174 10.2589 24.1787 10.2503C24.2983 10.0353 24.4061 9.8137 24.5017 9.58626C24.5025 9.58434 24.5034 9.58237 24.5042 9.58046C24.5278 9.52408 24.5506 9.46737 24.5726 9.41038C24.5742 9.40656 24.5756 9.40267 24.5771 9.39884C24.7139 9.04387 24.821 8.6762 24.8963 8.29908C24.8963 8.29902 24.8964 8.29891 24.8964 8.29886C24.9815 7.87219 25.0267 7.43392 25.0267 6.98877C25.0269 3.2838 22.0128 0.269531 18.3077 0.269531ZM18.3077 10.6371C16.2961 10.6371 14.6594 9.00045 14.6594 6.98877C14.6594 4.97709 16.296 3.3404 18.3077 3.3404C20.3194 3.3404 21.956 4.97703 21.956 6.98877C21.956 9.00045 20.3193 10.6371 18.3077 10.6371Z" fill="currentColor"/>
<path d="M27.3844 8.9082L26.4673 8.68359C26.269 9.63598 25.9045 10.5511 25.3847 11.3875C24.6462 12.5758 23.6266 13.5548 22.4181 14.2407L21.19 16.1339L24.0747 19.6542H28V9.69269C28 9.32059 27.7458 8.99668 27.3844 8.9082Z" fill="currentColor"/>
<path d="M0.999797 6.75465C0.759008 6.69564 0.504273 6.75055 0.309039 6.90367C0.113969 7.05685 0 7.29113 0 7.53914V15.3468H4.30768C4.52424 15.3468 4.73173 15.4338 4.88354 15.5882L8.79484 19.5658V8.66363L0.999797 6.75465Z" fill="currentColor"/>
<path d="M16.2748 17.443L14.5654 14.8076H14.4639L10.4102 21.7568V27.5568L17.5 25.8205V18.4087C17.0034 18.2337 16.571 17.8996 16.2748 17.443Z" fill="currentColor"/>
<path d="M23.6923 21.2693C23.4503 21.2693 23.221 21.1607 23.0676 20.9735L20.2645 17.5527C19.9725 17.9533 19.5712 18.2482 19.1154 18.4088V25.7766L27.0002 27.7075C27.0638 27.7231 27.1281 27.7307 27.1922 27.7307C27.3712 27.7307 27.5472 27.6712 27.6909 27.5585C27.886 27.4053 28 27.1711 28 26.9231V21.2693H23.6923Z" fill="currentColor"/>
<path d="M3.96916 16.9619H0V24.7696C0 25.1417 0.254133 25.4656 0.615562 25.5541L8.79484 27.5572V21.8694L3.96916 16.9619Z" fill="currentColor"/>
</svg>
