<svg width="49" height="69" viewBox="0 0 49 69" fill="none" xmlns="http://www.w3.org/2000/svg">
<path d="M24.5918 0.25C11.5224 0.25 0.889404 10.883 0.889404 23.9524C0.889404 40.3793 24.6151 68.4397 24.6151 68.4397C24.6151 68.4397 48.2942 39.5714 48.2942 23.9524C48.2942 10.883 37.6616 0.25 24.5918 0.25ZM31.7433 30.8925C29.7714 32.864 27.1818 33.85 24.5918 33.85C22.0022 33.85 19.4118 32.864 17.4407 30.8925C13.4973 26.9494 13.4973 20.5334 17.4407 16.5899C19.3502 14.6795 21.8903 13.6274 24.5918 13.6274C27.2933 13.6274 29.833 14.68 31.7433 16.5899C35.6868 20.5334 35.6868 26.9494 31.7433 30.8925Z" fill="currentColor"/>
</svg>
