<svg width="27" height="27" viewBox="0 0 27 27" fill="none" xmlns="http://www.w3.org/2000/svg">
<g clip-path="url(#clip0_158_228)">
<path d="M17.7715 0C17.3346 0 16.9805 0.354164 16.9805 0.791016C16.9805 1.22787 17.3346 1.58203 17.7715 1.58203C21.9946 1.58203 25.418 5.00549 25.418 9.22852C25.418 9.66537 25.7721 10.0195 26.2089 10.0195H26.209C26.6458 10.0195 27 9.66531 27 9.22846C27 4.13174 22.8683 0 17.7715 0Z" fill="currentColor"/>
<path d="M17.7715 3.16406C17.3346 3.16406 16.9805 3.51823 16.9805 3.95508C16.9805 4.39193 17.3346 4.74609 17.7715 4.74609C20.247 4.74609 22.2539 6.75295 22.2539 9.22852C22.2539 9.66537 22.608 10.0195 23.0449 10.0195H23.0449C23.4818 10.0195 23.8359 9.66531 23.8359 9.22846C23.8359 5.8792 21.1208 3.16406 17.7715 3.16406Z" fill="currentColor"/>
<path d="M17.7715 6.32812C17.3346 6.32812 16.9805 6.68229 16.9805 7.11914C16.9805 7.55599 17.3346 7.91016 17.7715 7.91016C18.4996 7.91016 19.0898 8.50041 19.0898 9.22852C19.0898 9.66537 19.444 10.0195 19.8809 10.0195C20.3177 10.0195 20.6719 9.66537 20.6719 9.22852C20.6719 7.62666 19.3733 6.32812 17.7715 6.32812Z" fill="currentColor"/>
<path d="M10.3524 8.07074L10.9117 7.51144C11.837 6.58616 11.837 5.0807 10.9117 4.15542L7.55573 0.799407C6.63051 -0.125818 5.12499 -0.12587 4.19972 0.799407L3.64047 1.35876L10.3524 8.07074Z" fill="currentColor"/>
<path d="M25.6409 23.3588L26.2002 22.7995C27.1255 21.8742 27.1254 20.3688 26.2002 19.4435L22.8442 16.0875C21.9189 15.1623 20.4134 15.1622 19.4881 16.0875L18.9288 16.6468L25.6409 23.3588Z" fill="currentColor"/>
<path d="M17.8102 17.766L17.1526 18.4236C16.8974 18.6788 16.5069 18.7324 16.203 18.5538C15.1405 17.9297 13.5217 16.8335 11.8439 15.1558C10.1661 13.478 9.07005 11.8592 8.44589 10.7968C8.26738 10.4928 8.32091 10.1023 8.57609 9.84712L9.23374 9.18947L2.52181 2.47754L1.41028 3.58918C0.662082 4.33722 0.190321 5.28723 0.0459868 6.33654C-0.0976089 7.3802 0.0961899 8.42239 0.606395 9.35041C2.60445 12.9848 4.93114 16.0736 7.92862 19.0711C10.9261 22.0686 14.015 24.3953 17.6494 26.3933C18.5774 26.9035 19.6195 27.0973 20.6632 26.9537C21.7125 26.8093 22.6625 26.3376 23.4106 25.5894L24.5222 24.4779L17.8102 17.766Z" fill="currentColor"/>
</g>
<defs>
<clipPath id="clip0_158_228">
<rect width="27" height="27" fill="currentColor"/>
</clipPath>
</defs>
</svg>
