<svg width="36" height="42" viewBox="0 0 36 42" fill="none" xmlns="http://www.w3.org/2000/svg">
<path d="M33.0831 15.6163L7.61784 0.903734C6.88991 0.473065 6.06093 0.242795 5.21517 0.236328C3.88565 0.236328 2.61059 0.764478 1.67047 1.70459C0.73036 2.6447 0.202209 3.91977 0.202209 5.24929V36.825C0.202379 37.7073 0.438889 38.5734 0.887149 39.3333C1.33541 40.0933 1.97905 40.7192 2.75116 41.1462C3.52326 41.5731 4.39564 41.7854 5.27758 41.761C6.15952 41.7366 7.01882 41.4764 7.76615 41.0074L33.2611 24.9007C34.0538 24.4046 34.7045 23.7116 35.1497 22.8892C35.5949 22.0668 35.8195 21.1431 35.8016 20.2081C35.7837 19.2731 35.5239 18.3587 35.0474 17.554C34.571 16.7493 33.8942 16.0817 33.0831 15.6163Z" fill="currentColor"/>
</svg>
