<svg width="25" height="26" viewBox="0 0 25 26" fill="none" xmlns="http://www.w3.org/2000/svg">
<path d="M22.8027 10.7148H14.6973V2.28516C14.6973 1.02309 13.7135 0 12.5 0C11.2865 0 10.3027 1.02309 10.3027 2.28516V10.7148H2.19727C0.98374 10.7148 0 11.7379 0 13C0 14.2621 0.98374 15.2852 2.19727 15.2852H10.3027V23.7148C10.3027 24.9769 11.2865 26 12.5 26C13.7135 26 14.6973 24.9769 14.6973 23.7148V15.2852H22.8027C24.0163 15.2852 25 14.2621 25 13C25 11.7379 24.0163 10.7148 22.8027 10.7148Z" fill="currentColor"/>
</svg>
