<svg width="27" height="27" viewBox="0 0 27 27" fill="none" xmlns="http://www.w3.org/2000/svg">
<path d="M15.1801 0.00457257C14.7452 -0.0409899 14.3505 0.2587 14.2972 0.69128C14.2432 1.12539 14.5506 1.52016 14.9839 1.57421C16.0576 1.70784 17.1067 2.088 18.1024 2.50824C18.5094 2.67731 18.9702 2.48662 19.1391 2.08647C19.3082 1.68327 19.1198 1.21973 18.7173 1.04982C17.5871 0.573946 16.3968 0.155973 15.1801 0.00457257Z" fill="currentColor"/>
<path d="M24.0621 6.4284C24.4104 6.1642 24.4785 5.66749 24.2143 5.31987C23.4735 4.34423 22.6029 3.47364 21.6272 2.73283C21.2789 2.47021 20.7837 2.53586 20.5187 2.88502C20.2545 3.23264 20.3225 3.72935 20.6709 3.99355C21.5322 4.64708 22.3 5.4149 22.9535 6.27621C23.2186 6.62531 23.7146 6.69133 24.0621 6.4284Z" fill="currentColor"/>
<path d="M24.8608 7.80816C24.4583 7.97812 24.2698 8.4416 24.439 8.84481C24.8593 9.84054 25.2905 10.9423 25.4241 12.016C25.476 12.4356 25.8554 12.7553 26.3071 12.7028C26.7404 12.6487 27.0479 12.2539 26.9938 11.8198C26.8424 10.6032 26.3733 9.36003 25.8974 8.22993C25.7275 7.82746 25.2633 7.64131 24.8608 7.80816Z" fill="currentColor"/>
<path d="M8.28271 1.04983C7.88024 1.21979 7.69177 1.68328 7.86094 2.08648C8.03011 2.48747 8.49159 2.67695 8.89759 2.50825C9.89332 2.08801 10.9423 1.70785 12.0161 1.57422C12.4495 1.52017 12.7569 1.1254 12.7028 0.691289C12.6487 0.258709 12.2524 -0.0410334 11.8199 0.00458184C10.6032 0.155982 9.41286 0.573955 8.28271 1.04983Z" fill="currentColor"/>
<path d="M13.5 27C20.2699 27 26.1572 21.8883 26.9938 15.1801C27.0478 14.7467 26.7404 14.3512 26.3071 14.2972C25.8714 14.2485 25.4775 14.5506 25.4241 14.9839C24.6857 20.9026 19.4736 25.4179 13.5 25.4179C6.95713 25.4179 1.58203 20.0428 1.58203 13.5C1.58203 10.6163 2.7262 7.80995 4.58788 5.66662V5.9285C4.58788 6.36572 4.94168 6.71951 5.3789 6.71951C5.81612 6.71951 6.16991 6.36572 6.16991 5.9285V3.6914C6.16991 3.25418 5.81612 2.90039 5.3789 2.90039H3.14106C2.70384 2.90039 2.35005 3.25418 2.35005 3.6914C2.35005 4.12862 2.70384 4.48189 3.14106 4.48189H3.52202C1.33096 6.93177 0 10.1647 0 13.5C0 20.9149 6.08501 27 13.5 27Z" fill="currentColor"/>
<path d="M3.95508 13.5C3.95508 18.7343 8.26569 23.0449 13.5 23.0449C18.7343 23.0449 23.0449 18.7343 23.0449 13.5C23.0449 8.26569 18.7343 3.95508 13.5 3.95508C8.26569 3.95508 3.95508 8.26569 3.95508 13.5ZM14.291 10.3359C14.291 9.89872 14.6448 9.54492 15.082 9.54492C15.5193 9.54492 15.873 9.89872 15.873 10.3359V12.709H17.4551V10.3359C17.4551 9.89872 17.8089 9.54492 18.2461 9.54492C18.6833 9.54492 19.0371 9.89872 19.0371 10.3359V16.6641C19.0371 17.1013 18.6833 17.4551 18.2461 17.4551C17.8089 17.4551 17.4551 17.1013 17.4551 16.6641V14.291H15.082C14.6448 14.291 14.291 13.9372 14.291 13.5V10.3359ZM10.3359 11.127C9.89951 11.127 9.54492 11.4815 9.54492 11.918C9.54492 12.3552 9.19113 12.709 8.75391 12.709C8.31669 12.709 7.96289 12.3552 7.96289 11.918C7.96289 10.6094 9.02739 9.54492 10.3359 9.54492C11.6445 9.54492 12.709 10.6094 12.709 11.918C12.709 13.5 11.6561 14.2895 10.8102 14.9237C10.3416 15.2754 10.0079 15.5566 9.79604 15.873H11.918C12.3552 15.873 12.709 16.2268 12.709 16.6641C12.709 17.1013 12.3552 17.4551 11.918 17.4551H8.75391C8.31669 17.4551 7.96289 17.1013 7.96289 16.6641C7.96289 15.082 9.01578 14.2925 9.86164 13.6584C10.6697 13.052 11.127 12.6719 11.127 11.918C11.127 11.4815 10.7724 11.127 10.3359 11.127Z" fill="currentColor"/>
</svg>
