<svg width="116" height="28" viewBox="0 0 116 28" fill="none" xmlns="http://www.w3.org/2000/svg">
<path d="M22.9903 6.11578C21.664 6.05781 20.3375 6.46359 19.1493 7.18821C18.265 7.73892 18.2373 7.73892 18.2373 6.57953C18.2373 6.20273 18.2373 5.85492 18.2373 5.47811C18.2373 4.05786 18.2373 2.6666 18.2373 1.24634C18.2373 0.173908 18.0992 0 17.1043 0C16.8004 0 16.524 0 16.22 0C15.2805 0 15.2252 0.0579695 15.1975 1.01447C15.1975 3.13035 15.1975 5.24624 15.1975 7.33314C15.1975 9.44902 15.1975 11.5649 15.1975 13.6518C15.1975 14.0286 15.1424 14.4054 15.4739 14.6663C16.1095 15.188 16.8004 15.6807 17.5188 16.0865C17.9057 16.2894 18.182 16.1155 18.2373 15.6228C18.265 15.188 18.265 14.7532 18.2373 14.3474C18.182 13.333 18.5137 12.4055 19.011 11.5649C20.8073 8.63745 24.6485 8.49253 26.6104 11.2751C27.6605 12.7533 27.8263 14.4054 27.5776 16.1445C27.3842 17.4488 26.721 18.4633 25.6985 19.2169C23.9852 20.5212 22.0508 20.6081 20.1164 20.0284C18.265 19.4777 16.6898 18.3763 15.1424 17.2169C14.0093 16.3764 12.9039 15.4489 11.771 14.5793C9.86425 13.1011 7.70876 12.6084 5.41514 13.1591C2.92808 13.7677 1.1595 15.3329 0.137042 17.7966C-0.166932 18.5212 0.0265064 18.8111 0.800259 18.8401C1.43584 18.8691 2.07142 18.8401 2.73464 18.8401C3.17679 18.8691 3.45313 18.6952 3.64657 18.2604C3.70183 18.1155 3.78473 17.9995 3.86763 17.8546C4.72428 16.3764 6.27179 15.7387 7.84693 16.1735C8.56541 16.3764 9.20099 16.6952 9.83661 17.101C11.2459 18.0285 12.5724 19.072 13.8987 20.1154C16.6069 22.2313 19.4532 23.7675 22.9903 23.4486C25.3945 23.2458 27.3842 22.3182 28.9317 20.3763C30.1475 18.8401 30.7003 17.043 30.7279 15.0431C30.7556 13.246 30.4515 11.5649 29.5672 10.0287C28.0473 7.594 25.809 6.23172 22.9903 6.11578Z" fill="white"/>
<path d="M78.8939 14.4637C78.5071 13.942 78.5347 13.913 78.9216 13.4783C79.5572 12.7536 80.2204 12.058 80.856 11.3624C81.9889 10.145 83.0943 8.95665 84.2273 7.76827C84.3931 7.59437 84.6418 7.44944 84.5036 7.15959C84.3931 6.86975 84.1167 6.84076 83.8404 6.84076C83.2048 6.84076 82.5692 6.86975 81.9061 6.84076C81.4363 6.81178 81.0769 6.98569 80.773 7.36249C78.7833 9.59431 76.7661 11.7972 74.7488 14C74.5553 14.2029 74.3619 14.6087 74.0856 14.5217C74.0027 14.4927 73.9474 14.4348 73.9197 14.3768V13.6232C73.9197 9.68127 73.9197 5.73934 73.9197 1.79742C73.9197 1.59453 73.9197 1.36265 73.9197 1.15975C73.8922 0.695999 73.7263 0.464121 73.2842 0.464121C72.6762 0.435137 72.0683 0.435137 71.4604 0.464121C71.1288 0.464121 70.9353 0.667015 70.9353 1.04382C70.9353 1.27569 70.9353 1.53656 70.9353 1.76843C70.9353 5.10168 70.9353 8.43492 70.9353 11.7682C70.9353 13.7681 70.9353 15.7391 70.9353 17.739C70.9353 19.3042 70.9353 20.8694 70.9353 22.4056C70.9353 23.0722 71.0458 23.1592 71.6261 23.1882C72.1512 23.2171 72.6762 23.2171 73.2013 23.1882C73.754 23.1592 73.9197 22.9853 73.9474 22.4056C73.9474 22.2896 73.9474 22.2027 73.9474 22.0867C73.975 21.7679 73.975 21.4201 73.9474 21.1013V20.3187C73.9474 20.3187 73.8922 19.71 74.0303 19.1303C74.0856 18.9274 74.1685 18.7245 74.2791 18.5216C74.5277 18.1448 75.1909 17.4202 75.7437 16.8695C76.545 16.0869 76.3792 15.9999 77.4017 17.3912C78.6728 19.1013 79.944 20.8114 81.1875 22.5505C81.4915 22.9853 81.8508 23.1882 82.3758 23.1592C82.8456 23.1302 83.3154 23.1592 83.7852 23.1592C84.1167 23.1592 84.5312 23.2461 84.7247 22.8403C84.9181 22.4345 84.5312 22.1737 84.3378 21.9128C82.4864 19.4201 80.6901 16.9564 78.8939 14.4637Z" fill="white"/>
<path d="M44.8764 18.8693C43.0526 21.0722 39.543 21.362 37.4152 18.7534C35.5085 16.4346 35.7295 12.6666 37.8297 10.6956C38.797 9.79711 39.8747 9.33336 40.9248 9.39133C43.0526 9.36234 44.4343 10.2609 45.4014 11.855C46.6726 14.0289 46.4792 16.9274 44.8764 18.8693ZM41.1734 6.46387C36.1164 6.46387 33.0767 10.7246 33.0767 14.9564C33.0767 19.2751 36.0336 23.4199 41.0629 23.4489C46.12 23.4779 49.2702 19.42 49.2426 14.9564C49.2979 10.6377 46.1753 6.49285 41.1734 6.46387Z" fill="white"/>
<path d="M64.9665 15.0718C64.8835 17.1877 64.1098 18.9268 62.286 19.9702C59.4673 21.5644 55.9025 20.0572 55.0182 16.4341C54.6314 14.8399 54.8248 13.3327 55.6262 11.9125C56.4828 10.3763 57.7816 9.50674 59.5226 9.36182C62.9769 9.10096 65.1046 12.3762 64.9665 15.0718ZM59.9371 6.49233C55.0459 6.49233 51.8403 10.4343 51.8403 14.9849C51.8403 19.5934 54.9906 23.5064 59.8818 23.5064C65.2152 23.4774 68.0891 19.0427 67.9786 15.0138C68.1444 10.84 65.0494 6.46335 59.9371 6.49233Z" fill="white"/>
<path d="M115.094 6.81171C114.708 6.81171 114.348 6.81171 113.961 6.81171C113.077 6.81171 113.077 6.81171 112.773 7.65227C111.53 11.0145 110.314 14.3767 109.043 17.739C109.015 17.7969 109.015 17.8259 108.988 17.8839C108.932 17.9998 108.877 18.1447 108.85 18.2317C108.738 18.4636 108.573 18.4346 108.462 18.4346C108.352 18.4346 108.269 18.2317 108.269 18.2317L107.992 17.652C106.666 14.4927 105.368 11.3333 104.041 8.20298C103.377 6.6378 103.737 6.81171 102.024 6.81171C101.637 6.81171 101.25 6.78273 100.891 6.81171C100.476 6.84069 100.338 7.07257 100.503 7.50734C100.615 7.79719 100.725 8.05805 100.835 8.3479C102.77 12.7826 104.676 17.2462 106.666 21.6809C107.025 22.4925 106.915 23.1011 106.501 23.7968C105.893 24.8692 105.008 25.304 103.847 25.1301C103.488 25.0721 103.102 24.9272 102.77 24.8112C101.996 24.5214 101.941 24.5214 101.581 25.333C101.443 25.6518 101.361 25.9706 101.195 26.2605C100.835 27.0141 101.084 27.159 101.692 27.4199C102.632 27.7967 103.572 27.9706 104.593 27.9995C106.362 28.0285 107.661 27.217 108.656 25.7387C109.153 25.0141 109.513 24.2026 109.816 23.391C111.199 19.8259 112.58 16.2607 113.961 12.6956C114.569 11.1015 115.177 9.53628 115.785 7.94211C116.172 6.92765 116.089 6.81171 115.094 6.81171Z" fill="white"/>
<path d="M95.8059 14.1156C94.7835 13.6519 93.7058 13.42 92.6557 13.0142C92.1307 12.8113 91.6056 12.6374 91.1634 12.2896C90.1963 11.565 90.2239 10.4056 91.2464 9.73894C91.8267 9.36213 92.5175 9.21721 93.1808 9.27518C94.3138 9.36213 95.4191 9.70995 96.414 10.3186C96.5798 10.4346 96.773 10.5215 96.9663 10.6085C97.2979 10.7824 97.5744 10.7244 97.7957 10.3766C98.0171 9.9998 98.2375 9.65198 98.4308 9.27518C98.7904 8.60853 98.7624 8.40564 98.1273 8.02884C96.5798 7.13031 94.9494 6.52163 93.1531 6.60859C92.8492 6.60859 92.5728 6.5796 92.2688 6.60859C90.8872 6.69554 89.6713 7.24625 88.704 8.34767C87.129 10.1157 86.9907 13.42 89.5883 14.9562C90.1963 15.304 90.8319 15.6228 91.4951 15.8257C92.1307 16.0286 92.7939 16.2025 93.4295 16.4054C94.1204 16.6373 94.8388 16.8402 95.4191 17.304C96.2757 17.9416 96.3863 19.0141 95.6402 19.8256C95.198 20.3184 94.6177 20.5213 94.0098 20.5792C92.2688 20.7241 90.6937 20.2604 89.2843 19.2459C88.0408 18.3474 88.1238 18.7532 87.5158 19.5937C86.6315 20.8401 86.6592 20.927 87.958 21.7676C89.8371 22.956 91.8543 23.5067 94.0374 23.3618C95.3914 23.2748 96.5798 22.7821 97.6024 21.8256C99.2051 20.2604 99.4816 17.246 97.9891 15.6228C97.381 14.9272 96.6351 14.4924 95.8059 14.1156Z" fill="white"/>
</svg>
