<svg width="160" height="28" viewBox="0 0 160 28" fill="none" xmlns="http://www.w3.org/2000/svg">
<path d="M103.61 22.6054V7.74726H105.531L110.728 16.795H110.811L116.008 7.74726H117.929V22.6054H116.008V13.7863L116.092 11.2956H116.008L111.333 19.451H110.206L105.531 11.2956H105.447L105.531 13.7863V22.6054H103.61Z" fill="white"/>
<path d="M123.536 22.9373C122.451 22.9373 121.543 22.626 120.812 22.0035C120.082 21.381 119.717 20.5578 119.717 19.534C119.717 18.4274 120.148 17.5594 121.011 16.9299C121.873 16.3004 122.938 15.9857 124.204 15.9857C125.331 15.9857 126.257 16.1932 126.98 16.6082V16.3175C126.98 15.5707 126.723 14.9724 126.208 14.5228C125.693 14.0732 125.06 13.8484 124.308 13.8484C123.752 13.8484 123.247 13.9798 122.795 14.2426C122.343 14.5054 122.033 14.865 121.866 15.3214L120.113 14.5747C120.349 13.9659 120.816 13.4021 121.511 12.8832C122.207 12.3644 123.126 12.1049 124.267 12.1049C125.575 12.1049 126.66 12.4854 127.523 13.2464C128.385 14.0074 128.817 15.0797 128.817 16.4632V22.6054H126.98V21.1945H126.897C126.131 22.3563 125.011 22.9373 123.536 22.9373ZM123.849 21.1945C124.642 21.1945 125.362 20.9004 126.009 20.3123C126.657 19.7242 126.98 19.0291 126.98 18.2269C126.437 17.784 125.623 17.5626 124.538 17.5626C123.605 17.5626 122.903 17.7632 122.43 18.1645C121.956 18.5658 121.72 19.0362 121.72 19.5758C121.72 20.074 121.936 20.4683 122.367 20.7588C122.799 21.0492 123.293 21.1945 123.849 21.1945Z" fill="white"/>
<path d="M136.003 22.9373C135.224 22.9373 134.524 22.7712 133.905 22.4392C133.286 22.1071 132.823 21.6922 132.517 21.1945H132.434L132.517 22.6054V27.0878H130.597V12.4374H132.434V13.8484H132.517C132.823 13.3502 133.286 12.9351 133.905 12.603C134.524 12.271 135.224 12.1049 136.003 12.1049C137.325 12.1049 138.466 12.6238 139.426 13.6615C140.386 14.6993 140.866 15.9859 140.866 17.5214C140.866 19.0569 140.386 20.3434 139.426 21.381C138.466 22.4185 137.325 22.9373 136.003 22.9373ZM135.689 21.1945C136.58 21.1945 137.345 20.8589 137.985 20.1879C138.626 19.5168 138.946 18.6279 138.946 17.5211C138.946 16.4143 138.626 15.5255 137.985 14.8546C137.345 14.1838 136.58 13.8484 135.689 13.8484C134.785 13.8484 134.016 14.1804 133.383 14.8445C132.75 15.5086 132.434 16.4009 132.434 17.5214C132.434 18.6419 132.75 19.5342 133.383 20.1983C134.016 20.8624 134.785 21.1945 135.689 21.1945Z" fill="white"/>
<path d="M145.972 22.9373C144.831 22.9373 143.888 22.6606 143.144 22.1073C142.399 21.5541 141.853 20.8624 141.505 20.0324L143.216 19.3269C143.759 20.5994 144.684 21.2356 145.993 21.2356C146.591 21.2356 147.082 21.1042 147.464 20.8414C147.847 20.5786 148.038 20.2327 148.038 19.8038C148.038 19.1397 147.572 18.69 146.639 18.4549L144.573 17.9571C143.919 17.7912 143.3 17.4764 142.715 17.0129C142.131 16.5493 141.839 15.9234 141.839 15.1352C141.839 14.2359 142.239 13.5061 143.039 12.9456C143.839 12.3852 144.789 12.1049 145.888 12.1049C146.793 12.1049 147.6 12.3091 148.309 12.7173C149.019 13.1256 149.527 13.7101 149.833 14.4709L148.163 15.1555C147.788 14.2562 147.008 13.8066 145.825 13.8066C145.255 13.8066 144.775 13.9241 144.385 14.1593C143.996 14.3945 143.801 14.7128 143.801 15.1143C143.801 15.6952 144.253 16.0896 145.158 16.2973L147.182 16.7741C148.142 16.9954 148.852 17.3758 149.311 17.9153C149.77 18.4549 150 19.0637 150 19.7417C150 20.6549 149.624 21.4158 148.873 22.0244C148.121 22.633 147.154 22.9373 145.972 22.9373Z" fill="white"/>
<path d="M46.5921 13.7252H38.717V16.0485H44.302C44.0261 19.3064 41.2999 20.6957 38.7264 20.6957C35.434 20.6957 32.561 18.1203 32.561 14.5104C32.561 10.994 35.2997 8.28574 38.7337 8.28574C41.3831 8.28574 42.9442 9.96485 42.9442 9.96485L44.5804 8.28033C44.5804 8.28033 42.4803 5.95593 38.6501 5.95593C33.7732 5.95593 30 10.0485 30 14.469C30 18.8006 33.5494 23.0246 38.7746 23.0246C43.3705 23.0246 46.7347 19.8945 46.7347 15.2661C46.7347 14.2896 46.5921 13.7252 46.5921 13.7252Z" fill="white"/>
<path d="M53.0433 12.0429C49.812 12.0429 47.4962 14.5545 47.4962 17.4837C47.4962 20.4563 49.7424 23.0146 53.0813 23.0146C56.1039 23.0146 58.5801 20.7178 58.5801 17.5476C58.5801 13.9142 55.6997 12.0429 53.0433 12.0429ZM53.0754 14.1978C54.6645 14.1978 56.1703 15.475 56.1703 17.5331C56.1703 19.5476 54.6708 20.8612 53.0681 20.8612C51.307 20.8612 49.9178 19.459 49.9178 17.5171C49.9178 15.617 51.2898 14.1978 53.0754 14.1978Z" fill="white"/>
<path d="M65.1079 12.0429C61.8766 12.0429 59.5608 14.5545 59.5608 17.4837C59.5608 20.4563 61.807 23.0146 65.1459 23.0146C68.1685 23.0146 70.6448 20.7178 70.6448 17.5476C70.6448 13.9142 67.7643 12.0429 65.1079 12.0429ZM65.14 14.1978C66.7291 14.1978 68.2349 15.475 68.2349 17.5331C68.2349 19.5476 66.7354 20.8612 65.1327 20.8612C63.3717 20.8612 61.9824 19.459 61.9824 17.5171C61.9824 15.617 63.3544 14.1978 65.14 14.1978Z" fill="white"/>
<path d="M76.9404 12.0487C73.9744 12.0487 71.6431 14.6314 71.6431 17.5302C71.6431 20.8322 74.3459 23.0218 76.8893 23.0218C78.4619 23.0218 79.2982 22.4012 79.9155 21.6889V22.7707C79.9155 24.6633 78.7596 25.7967 77.0149 25.7967C75.3295 25.7967 74.484 24.5507 74.1902 23.8437L72.0696 24.7251C72.8219 26.3066 74.3363 27.9559 77.0324 27.9559C79.9814 27.9559 82.229 26.1092 82.229 22.2363V12.3783H79.9155V13.3077C79.2047 12.5456 78.2319 12.0487 76.9404 12.0487ZM77.1551 14.1992C78.6093 14.1992 80.1025 15.4336 80.1025 17.5418C80.1025 19.6846 78.6125 20.8656 77.123 20.8656C75.5418 20.8656 74.0705 19.5891 74.0705 17.5622C74.0705 15.456 75.5985 14.1992 77.1551 14.1992Z" fill="white"/>
<path d="M92.5155 12.0357C89.7177 12.0357 87.3686 14.2487 87.3686 17.5143C87.3686 20.9696 89.987 23.019 92.7842 23.019C95.1188 23.019 96.5517 21.7492 97.4068 20.6115L95.4994 19.3497C95.0044 20.1134 94.1769 20.8598 92.7959 20.8598C91.2447 20.8598 90.5314 20.0153 90.0896 19.1972L97.4886 16.145L97.1045 15.2505C96.3894 13.4988 94.7219 12.0357 92.5155 12.0357ZM92.6119 14.1455C93.62 14.1455 94.3456 14.6784 94.6537 15.3173L89.7127 17.3705C89.4997 15.7809 91.0145 14.1455 92.6119 14.1455Z" fill="white"/>
<path d="M83.8414 22.6931H86.2717V6.52306H83.8414V22.6931Z" fill="white"/>
<path d="M5.51392 20.7475C6.4004 21.834 7.30124 23.1901 7.77292 24.0017C8.34909 25.0684 8.58921 25.7924 9.0103 27.078C9.26852 27.7886 9.50192 28 10.0035 28C10.5501 28 10.7979 27.6396 10.9908 27.0813C11.3889 25.8672 11.7005 24.9408 12.1934 24.0652C13.16 22.3741 14.3614 20.8725 15.5413 19.4299C15.8611 19.0213 17.9267 16.6413 18.8567 14.7629C18.8567 14.7629 19.9998 12.7003 19.9998 9.81928C19.9998 7.12432 18.8729 5.25433 18.8729 5.25433L15.6273 6.10378L13.6561 11.1754L13.1685 11.8739L13.071 12.0008L12.941 12.1596L12.7135 12.4136L12.3885 12.7311L10.6333 14.128L6.24525 16.6025L5.51392 20.7475Z" fill="#34A853"/>
<path d="M0.979736 14.4137C2.05122 16.8032 4.11569 18.9035 5.514 20.7475L12.9411 12.1596C12.9411 12.1596 11.896 13.4951 9.9995 13.4951C7.8864 13.4951 6.18004 11.8469 6.18004 9.76968C6.18004 8.34457 7.05793 7.3656 7.05793 7.3656L2.01986 8.68418L0.979736 14.4137Z" fill="#FBBC04"/>
<path d="M13.0223 0.444458C15.4875 1.22017 17.5974 2.85074 18.873 5.25432L12.941 12.1596C12.941 12.1596 13.8186 11.1636 13.8186 9.74671C13.8186 7.62045 11.9854 6.03216 10.005 6.03216C8.13283 6.03216 7.05786 7.36559 7.05786 7.36559V3.01607L13.0223 0.444458Z" fill="#4285F4"/>
<path d="M2.34485 3.49231C3.81729 1.77184 6.40874 0 9.98322 0C11.716 0 13.0223 0.444476 13.0223 0.444476L7.05789 7.3656H2.8324L2.34485 3.49231Z" fill="#1A73E8"/>
<path d="M0.979755 14.4137C0.979755 14.4137 0 12.5295 0 9.79945C0 7.21869 1.02762 4.96305 2.34491 3.49231L7.05795 7.3656L0.979755 14.4137Z" fill="#EA4335"/>
</svg>
