<svg width="85" height="90" viewBox="0 0 85 90" fill="none" xmlns="http://www.w3.org/2000/svg">
<g clip-path="url(#clip0_2062_1603)">
<path d="M30.2667 50.5702H27.5542V33.2839H16.4274V50.5702H13.7148V30.5762H30.2667V50.5702Z" fill="#FF3F02"/>
<path d="M20.7401 48.0625H18.0275V64.5635H20.7401V48.0625Z" fill="#FF3F02"/>
<path d="M25.943 48.0625H23.2305V64.5635H25.943V48.0625Z" fill="#FF3F02"/>
<path d="M23.3386 25.4258H20.6261V28.9783H23.3386V25.4258Z" fill="#FF3F02"/>
<path d="M50.6593 50.5213H47.9468V33.2351H36.82V50.5213H34.1074V30.5273H50.6593V50.5213Z" fill="#FF3F02"/>
<path d="M41.1442 48.0137H38.4316V64.5147H41.1442V48.0137Z" fill="#FF3F02"/>
<path d="M46.3464 48.0137H43.6339V64.5147H46.3464V48.0137Z" fill="#FF3F02"/>
<path d="M43.7477 25.3926H41.0352V28.9451H43.7477V25.3926Z" fill="#FF3F02"/>
<path d="M71.0363 50.5213H68.3237V33.2351H57.1969V50.5213H54.4844V30.5273H71.0363V50.5213Z" fill="#FF3F02"/>
<path d="M61.5095 48.0137H58.7969V64.5147H61.5095V48.0137Z" fill="#FF3F02"/>
<path d="M66.7067 48.0137H63.9941V64.5147H66.7067V48.0137Z" fill="#FF3F02"/>
<path d="M64.108 25.3926H61.3955V28.9451H64.108V25.3926Z" fill="#FF3F02"/>
<path d="M85 72.9029H0V17.3887H85V72.9029ZM2.71254 70.1951H82.2875V20.0964H2.71254V70.1951Z" fill="#FF3F02"/>
<path d="M48.9016 11.4104L42.4349 4.11036L36.1093 11.3996L34.0586 9.62874L42.4078 0L50.936 9.61791L48.9016 11.4104Z" fill="#FF3F02"/>
<path d="M42.4078 90.0003L34.0586 80.377L36.1093 78.6007L42.4349 85.8899L48.9016 78.5898L50.936 80.3878L42.4078 90.0003Z" fill="#FF3F02"/>
</g>
<defs>
<clipPath id="clip0_2062_1603">
<rect width="85" height="90" fill="white"/>
</clipPath>
</defs>
</svg>
