<svg width="85" height="90" viewBox="0 0 85 90" fill="none" xmlns="http://www.w3.org/2000/svg">
<g clip-path="url(#clip0_2062_1629)">
<path d="M48.9016 11.4104L42.4349 4.11036L36.1093 11.3996L34.0586 9.62874L42.4132 0L50.936 9.61791L48.9016 11.4104Z" fill="#FF3F02"/>
<path d="M42.4132 90.0003L34.0586 80.377L36.1093 78.6007L42.4349 85.8899L48.9016 78.5898L50.936 80.3878L42.4132 90.0003Z" fill="#FF3F02"/>
<path d="M85 72.7739H0V17.2598H85V72.7739ZM2.71254 70.0662H82.2874V19.9675H2.71254V70.0662Z" fill="#FF3F02"/>
<path d="M61.9269 63.9525L52.3245 47.614H49.8887V44.9062H53.8761L64.2651 62.5824L61.9269 63.9525Z" fill="#FF3F02"/>
<path d="M36.4674 30.5859H33.7549V39.5702H36.4674V30.5859Z" fill="#FF3F02"/>
<path d="M36.4673 24.0879H33.7548V28.9348H36.4673V24.0879Z" fill="#FF3F02"/>
<path d="M35.1112 67.298C32.2303 67.298 29.4141 66.4452 27.0186 64.8474C24.6232 63.2497 22.7562 60.9788 21.6537 58.3218C20.5512 55.6649 20.2628 52.7413 20.8248 49.9207C21.3869 47.1001 22.7742 44.5092 24.8113 42.4756C26.8484 40.4421 29.4439 39.0572 32.2695 38.4962C35.0951 37.9351 38.0239 38.2231 40.6856 39.3236C43.3472 40.4242 45.6221 42.2879 47.2227 44.6791C48.8233 47.0703 49.6776 49.8815 49.6776 52.7574C49.6732 56.6125 48.1372 60.3084 45.4064 63.0344C42.6757 65.7603 38.9732 67.2937 35.1112 67.298ZM35.1112 40.9245C32.7668 40.9245 30.475 41.6185 28.5256 42.9187C26.5763 44.219 25.057 46.067 24.1598 48.2292C23.2626 50.3913 23.0278 52.7705 23.4852 55.0659C23.9426 57.3612 25.0716 59.4696 26.7294 61.1245C28.3872 62.7793 30.4993 63.9063 32.7987 64.3629C35.0981 64.8194 37.4815 64.5851 39.6475 63.6895C41.8135 62.7939 43.6648 61.2773 44.9673 59.3314C46.2698 57.3855 46.965 55.0977 46.965 52.7574C46.9607 49.6204 45.7105 46.6132 43.4884 44.3951C41.2663 42.1769 38.2537 40.9288 35.1112 40.9245Z" fill="#FF3F02"/>
</g>
<defs>
<clipPath id="clip0_2062_1629">
<rect width="85" height="90" fill="white"/>
</clipPath>
</defs>
</svg>
