<svg viewBox="0 0 10 18" fill="none" xmlns="http://www.w3.org/2000/svg">
<path fill-rule="evenodd" clip-rule="evenodd" d="M0.807361 1.05752C0.749156 1.11558 0.702978 1.18455 0.67147 1.26048C0.639962 1.33641 0.623743 1.41781 0.623743 1.50002C0.623743 1.58223 0.639962 1.66363 0.67147 1.73956C0.702978 1.81549 0.749156 1.88446 0.807361 1.94252L7.86611 9.00002L0.807361 16.0575C0.690002 16.1749 0.624071 16.334 0.624071 16.5C0.624071 16.666 0.690002 16.8252 0.807361 16.9425C0.924719 17.0599 1.08389 17.1258 1.24986 17.1258C1.41583 17.1258 1.575 17.0599 1.69236 16.9425L9.19236 9.44252C9.25056 9.38446 9.29674 9.31549 9.32825 9.23956C9.35976 9.16363 9.37598 9.08223 9.37598 9.00002C9.37598 8.91781 9.35976 8.83641 9.32825 8.76048C9.29674 8.68455 9.25056 8.61558 9.19236 8.55752L1.69236 1.05752C1.6343 0.999315 1.56533 0.953136 1.4894 0.921628C1.41347 0.89012 1.33207 0.873901 1.24986 0.873901C1.16765 0.873901 1.08625 0.89012 1.01032 0.921628C0.934387 0.953136 0.865417 0.999315 0.807361 1.05752Z" fill="currentColor"/>
</svg>
