<svg viewBox="0 0 20 20" fill="none" xmlns="http://www.w3.org/2000/svg">
<path d="M10 3.75C10.1658 3.75 10.3247 3.81585 10.4419 3.93306C10.5592 4.05027 10.625 4.20924 10.625 4.375V6.875C10.625 7.04076 10.5592 7.19973 10.4419 7.31694C10.3247 7.43415 10.1658 7.5 10 7.5C9.83424 7.5 9.67527 7.43415 9.55806 7.31694C9.44085 7.19973 9.375 7.04076 9.375 6.875V4.375C9.375 4.20924 9.44085 4.05027 9.55806 3.93306C9.67527 3.81585 9.83424 3.75 10 3.75ZM15 13.75C15 15.0761 14.4732 16.3479 13.5355 17.2855C12.5979 18.2232 11.3261 18.75 10 18.75C8.67392 18.75 7.40215 18.2232 6.46447 17.2855C5.52678 16.3479 5 15.0761 5 13.75V6.25C5 4.92392 5.52678 3.65215 6.46447 2.71447C7.40215 1.77678 8.67392 1.25 10 1.25C11.3261 1.25 12.5979 1.77678 13.5355 2.71447C14.4732 3.65215 15 4.92392 15 6.25V13.75ZM10 0C8.3424 0 6.75269 0.65848 5.58058 1.83058C4.40848 3.00269 3.75 4.5924 3.75 6.25V13.75C3.75 15.4076 4.40848 16.9973 5.58058 18.1694C6.75269 19.3415 8.3424 20 10 20C11.6576 20 13.2473 19.3415 14.4194 18.1694C15.5915 16.9973 16.25 15.4076 16.25 13.75V6.25C16.25 4.5924 15.5915 3.00269 14.4194 1.83058C13.2473 0.65848 11.6576 0 10 0Z" fill="currentColor"/>
</svg>
