<svg width="21" height="21" viewBox="0 0 21 21" fill="none" xmlns="http://www.w3.org/2000/svg">
<g clip-path="url(#clip0_9_227)">
<path d="M7.88342 17.8823C7.96849 17.8372 8.05694 17.7726 8.14534 17.6896L9.87596 16.0636L7.90237 14.7052L7.88342 17.8823Z" fill="white"/>
<path d="M4.9295 12.362L6.64142 16.2807L6.65775 13.541C6.65779 13.5342 6.6586 13.5276 6.65888 13.5208C6.65856 13.3458 6.73071 13.1778 6.86067 13.0586L11.407 8.88835L4.9295 12.362Z" fill="white"/>
<path d="M20.63 1.94624C20.5932 1.90099 20.5232 1.87807 20.4219 1.87807C20.312 1.87807 20.1778 1.90691 20.0335 1.96157L0.508142 9.36666C-0.028203 9.5701 -0.0263126 9.89782 0.512365 10.0949L4.07645 11.3994L15.2035 5.4323C15.4815 5.28324 15.827 5.36437 16.0095 5.62158C16.1921 5.87879 16.1547 6.23169 15.9223 6.4449L8.28573 13.4497L16.2969 18.9638C16.3035 18.9684 16.31 18.9731 16.3164 18.9779C16.4991 19.1144 16.6834 19.1895 16.8353 19.1895C17.1822 19.1894 17.3067 18.7688 17.3441 18.5879L20.6695 2.50418C20.7315 2.20462 20.6897 2.01952 20.63 1.94624Z" fill="white"/>
</g>
<defs>
<clipPath id="clip0_9_227">
<rect width="20.5931" height="20.5931" fill="white" transform="translate(0.107117 0.237213)"/>
</clipPath>
</defs>
</svg>
