<svg width="21" height="22" viewBox="0 0 21 22" fill="none" xmlns="http://www.w3.org/2000/svg">
<g clip-path="url(#clip0_9_220)">
<path d="M12.7498 12.2177C12.6128 12.0807 12.4294 12.0053 12.2332 12.0053C12.037 12.0053 11.8536 12.0808 11.7166 12.2177L11.4415 12.493C11.1473 12.7871 10.7554 12.949 10.3378 12.949C9.9201 12.949 9.52819 12.787 9.23421 12.493L7.33853 10.5974C6.7301 9.98885 6.7301 8.99881 7.33849 8.39031L7.61408 8.11488C7.89876 7.83011 7.8988 7.36661 7.61396 7.08172L7.06325 6.5311C6.92626 6.39411 6.74277 6.3187 6.54658 6.3187C6.35042 6.3187 6.16697 6.39411 6.03006 6.53102L5.95493 6.60607C5.37921 7.18187 5.18032 8.0909 5.39522 9.1654C5.62781 10.3285 6.30754 11.5208 7.30912 12.5225C8.56007 13.7733 10.1166 14.52 11.4727 14.5202H11.473C12.1988 14.5202 12.8049 14.2976 13.2261 13.8765L13.3002 13.8021C13.5855 13.5168 13.5855 13.0533 13.3007 12.7685L12.7498 12.2177Z" fill="white"/>
<path d="M17.898 2.66814C16.5708 1.34097 14.8129 0.610077 12.948 0.610077H7.98466C6.11982 0.610077 4.36189 1.34097 3.03464 2.66814C1.70739 3.9953 0.976501 5.75324 0.976501 7.61807V11.1125C0.976501 12.5426 1.40916 13.9206 2.22765 15.0976C2.9466 16.1315 3.91471 16.9456 5.04476 17.4706V19.7673C5.04476 21.134 5.90697 21.2031 6.0798 21.2031C6.45941 21.2031 6.83607 20.986 7.19935 20.5578L9.26622 18.1205H12.948C14.8129 18.1205 16.5708 17.3896 17.898 16.0624C19.2252 14.7353 19.9561 12.9773 19.9561 11.1125V7.61807C19.9561 5.75324 19.2252 3.9953 17.898 2.66814ZM10.2325 7.7975C11.226 7.7975 12.0343 8.60574 12.0343 9.59919C12.0343 9.93238 11.7641 10.2025 11.4309 10.2025C11.0978 10.2025 10.8276 9.93238 10.8276 9.59919C10.8276 9.27107 10.5606 9.00412 10.2325 9.00412C9.89929 9.00412 9.62917 8.734 9.62917 8.40081C9.62917 8.06762 9.89925 7.7975 10.2325 7.7975ZM9.62917 6.00389C9.62917 5.6707 9.89929 5.40058 10.2325 5.40058C11.3539 5.40058 12.4083 5.8373 13.2013 6.63033C13.9943 7.4234 14.431 8.47779 14.4309 9.59927C14.4309 9.93242 14.1608 10.2025 13.8276 10.2025C13.8276 10.2025 13.8276 10.2025 13.8276 10.2025C13.4944 10.2025 13.2243 9.93238 13.2243 9.59919C13.2243 8.8 12.9132 8.04864 12.3481 7.4835C11.783 6.91839 11.0317 6.60716 10.2325 6.60716C9.89925 6.6072 9.62917 6.33712 9.62917 6.00389ZM14.1539 14.6549L14.0797 14.7292C13.4269 15.382 12.5256 15.7268 11.473 15.7268C11.4728 15.7268 11.4728 15.7268 11.4726 15.7268C9.80357 15.7267 7.92815 14.8478 6.45595 13.3757C5.28773 12.2074 4.49088 10.7962 4.21203 9.40203C3.91552 7.91929 4.23153 6.62321 5.10195 5.75271L5.17708 5.67766C5.54161 5.31306 6.02808 5.11207 6.5466 5.11207C7.06513 5.11207 7.55156 5.31302 7.91645 5.67786L8.46715 6.22848C9.22246 6.98379 9.22246 8.21278 8.46723 8.96813L8.19164 9.24356C8.05609 9.37914 8.05609 9.60844 8.1918 9.74419L10.0875 11.6398C10.1536 11.7059 10.2425 11.7423 10.3378 11.7423C10.4331 11.7423 10.5221 11.7059 10.5883 11.6398L10.8633 11.3646C11.2282 10.9996 11.7147 10.7987 12.2333 10.7987C12.7518 10.7987 13.2383 10.9996 13.6031 11.3645L14.1539 11.9152C14.9092 12.6707 14.9091 13.8996 14.1539 14.6549ZM16.2245 10.2025C15.8913 10.2025 15.6212 9.93238 15.6212 9.59919C15.6212 6.6278 13.2038 4.2104 10.2324 4.2104C9.89925 4.2104 9.62913 3.94028 9.62913 3.60709C9.62913 3.2739 9.89925 3.00378 10.2324 3.00378C13.8691 3.00378 16.8278 5.9625 16.8278 9.59919C16.8278 9.93238 16.5577 10.2025 16.2245 10.2025Z" fill="white"/>
</g>
<defs>
<clipPath id="clip0_9_220">
<rect width="20.5931" height="20.5931" fill="white" transform="translate(0.169739 0.610077)"/>
</clipPath>
</defs>
</svg>
