<svg width="21" height="13" viewBox="0 0 21 13" fill="none" xmlns="http://www.w3.org/2000/svg">
<path d="M20.8887 11.3303C20.8632 11.2755 20.8395 11.2301 20.8175 11.1937C20.4532 10.5374 19.7569 9.732 18.7292 8.77709L18.7074 8.75522L18.6966 8.7445L18.6856 8.73351H18.6745C18.2081 8.28885 17.9127 7.98987 17.789 7.8368C17.5627 7.54521 17.512 7.25007 17.6357 6.95101C17.7231 6.72506 18.0513 6.24789 18.6197 5.51885C18.9187 5.13248 19.1555 4.82282 19.3304 4.58952C20.5915 2.91291 21.1382 1.84154 20.9705 1.37498L20.9054 1.26595C20.8616 1.20031 20.7486 1.14026 20.5666 1.0855C20.3842 1.03085 20.151 1.02181 19.8666 1.05823L16.7178 1.07998C16.6668 1.06191 16.5939 1.06359 16.499 1.0855C16.4042 1.1074 16.3568 1.11839 16.3568 1.11839L16.302 1.14577L16.2585 1.17867C16.2221 1.20042 16.182 1.23868 16.1382 1.29337C16.0946 1.34786 16.0582 1.41182 16.0291 1.48469C15.6863 2.36669 15.2965 3.18673 14.8591 3.94476C14.5893 4.39677 14.3416 4.7885 14.1154 5.12019C13.8895 5.45175 13.7 5.69605 13.547 5.85264C13.3938 6.00938 13.2556 6.13496 13.1314 6.22982C13.0075 6.32472 12.9128 6.36481 12.8473 6.35014C12.7816 6.33548 12.7198 6.32092 12.6612 6.30637C12.5593 6.24073 12.4772 6.15146 12.4154 6.03849C12.3533 5.92552 12.3114 5.78332 12.2896 5.61202C12.2678 5.44061 12.255 5.29317 12.2513 5.16921C12.2479 5.04539 12.2494 4.87027 12.2568 4.64432C12.2644 4.41826 12.2678 4.2653 12.2678 4.18511C12.2678 3.90808 12.2732 3.60741 12.2841 3.28304C12.2951 2.95867 12.304 2.70167 12.3115 2.51233C12.3189 2.32281 12.3224 2.12229 12.3224 1.91089C12.3224 1.6995 12.3095 1.53371 12.2841 1.41339C12.2589 1.29321 12.2204 1.17656 12.1696 1.06348C12.1184 0.950502 12.0436 0.86311 11.9454 0.80107C11.847 0.739107 11.7247 0.689935 11.5791 0.6534C11.1928 0.56597 10.7008 0.518674 10.1029 0.511321C8.74722 0.496769 7.8761 0.584314 7.48977 0.773841C7.3367 0.853919 7.19818 0.963331 7.07433 1.10173C6.94309 1.26216 6.92479 1.3497 7.01953 1.3641C7.45695 1.42963 7.76661 1.58637 7.94886 1.83419L8.01454 1.9655C8.06563 2.06025 8.11664 2.22798 8.16769 2.46848C8.21866 2.70898 8.25156 2.97503 8.26603 3.26646C8.30241 3.79866 8.30241 4.25423 8.26603 4.63321C8.22954 5.01234 8.19507 5.30749 8.16217 5.51889C8.12928 5.73028 8.0801 5.90158 8.01454 6.03275C7.94886 6.16395 7.90517 6.24414 7.88326 6.27325C7.8614 6.30235 7.84317 6.32069 7.82869 6.32789C7.73395 6.3642 7.63541 6.3827 7.53343 6.3827C7.43129 6.3827 7.30744 6.33161 7.16169 6.22951C7.01597 6.12741 6.86474 5.98717 6.70799 5.80856C6.55125 5.62991 6.37447 5.38026 6.17759 5.05956C5.98086 4.73887 5.77674 4.35986 5.56535 3.92251L5.39045 3.60534C5.28112 3.4013 5.13176 3.1042 4.94223 2.71431C4.75259 2.32426 4.58497 1.94697 4.43925 1.5825C4.381 1.42943 4.2935 1.3129 4.17688 1.23271L4.12216 1.19981C4.08578 1.1707 4.02738 1.1398 3.94726 1.10686C3.86703 1.07397 3.78331 1.05038 3.69577 1.03586L0.6999 1.05762C0.393761 1.05762 0.186043 1.12697 0.0766689 1.26549L0.0328964 1.33101C0.0110293 1.36751 0 1.4258 0 1.50603C0 1.58622 0.0218671 1.68464 0.0656396 1.80117C0.502982 2.82904 0.978581 3.82034 1.49244 4.77521C2.0063 5.73009 2.45283 6.49927 2.83177 7.08206C3.21079 7.66527 3.59712 8.2157 3.99077 8.73308C4.38441 9.25066 4.64498 9.58234 4.77247 9.72806C4.90011 9.87404 5.00037 9.98318 5.07324 10.0561L5.34664 10.3184C5.52158 10.4934 5.77847 10.703 6.11743 10.9471C6.45646 11.1914 6.8318 11.4319 7.24364 11.669C7.65555 11.9057 8.13475 12.0989 8.68151 12.2482C9.22818 12.3978 9.76027 12.4578 10.2778 12.4289H11.5353C11.7903 12.4068 11.9835 12.3266 12.1148 12.1882L12.1583 12.1334C12.1876 12.0899 12.2149 12.0223 12.2402 11.9314C12.2658 11.8403 12.2785 11.7399 12.2785 11.6307C12.271 11.3173 12.2949 11.0349 12.3494 10.7835C12.4039 10.5321 12.466 10.3426 12.5355 10.2149C12.6049 10.0874 12.6833 9.97978 12.7705 9.89254C12.8579 9.80511 12.9202 9.75214 12.9567 9.73392C12.993 9.71557 13.022 9.70312 13.0439 9.69566C13.2188 9.63737 13.4247 9.69382 13.6618 9.86527C13.8987 10.0366 14.121 10.2481 14.3288 10.4995C14.5366 10.7511 14.7862 11.0333 15.0777 11.3467C15.3694 11.6602 15.6245 11.8932 15.8431 12.0465L16.0617 12.1777C16.2077 12.2653 16.3972 12.3455 16.6305 12.4184C16.8634 12.4912 17.0674 12.5094 17.2426 12.473L20.0416 12.4294C20.3184 12.4294 20.5338 12.3835 20.6866 12.2926C20.8397 12.2015 20.9307 12.1011 20.96 11.9919C20.9893 11.8826 20.9908 11.7586 20.9656 11.62C20.9396 11.4817 20.9141 11.385 20.8887 11.3303Z" fill="white"/>
</svg>
