<svg width="21" height="21" viewBox="0 0 21 21" fill="none" xmlns="http://www.w3.org/2000/svg">
<g clip-path="url(#clip0_9_235)">
<path d="M14.1253 12.1585C13.9844 12.0176 13.7957 11.94 13.5938 11.94C13.392 11.94 13.2032 12.0176 13.0624 12.1584L12.7827 12.4381C12.4858 12.735 12.0901 12.8985 11.6685 12.8985C11.2468 12.8985 10.851 12.7349 10.5541 12.4379L8.62861 10.5126C8.33178 10.2158 8.16824 9.82005 8.1682 9.39837C8.16816 8.97666 8.33162 8.58089 8.62849 8.28402L8.90827 8.00432C9.20128 7.71131 9.20128 7.23441 8.90823 6.94136L8.3488 6.38181C8.20798 6.24104 8.01919 6.16345 7.81724 6.16345C7.61537 6.16345 7.42665 6.24104 7.28576 6.38189L6.86863 6.7991C6.28108 7.38665 6.07809 8.31314 6.29701 9.40779C6.53367 10.5911 7.22503 11.8039 8.24382 12.8228C9.51624 14.0951 11.0998 14.8548 12.4798 14.8549H12.48C13.2199 14.8549 13.8379 14.6278 14.2675 14.1982L14.6847 13.781C14.9778 13.4879 14.9778 13.011 14.6847 12.7179L14.1253 12.1585Z" fill="white" fill-opacity="0.9"/>
<path d="M17.8145 3.25299C15.8697 1.30827 13.2841 0.237228 10.5338 0.237228C10.5336 0.237228 10.5338 0.237228 10.5337 0.237228C7.78362 0.237228 5.19774 1.30835 3.25306 3.25295C1.30835 5.19774 0.237305 7.78342 0.237305 10.5338C0.237385 12.2845 0.682951 14.0053 1.52807 15.5272L0.259587 20.0645C0.200945 20.2743 0.259989 20.4995 0.414035 20.6536C0.568081 20.8076 0.793157 20.8666 1.00311 20.808L5.54046 19.5395C7.06226 20.3847 8.78294 20.8303 10.5338 20.8303C13.2841 20.8303 15.8698 19.7593 17.8146 17.8146C19.7593 15.8697 20.8304 13.2841 20.8304 10.5337C20.8303 7.78338 19.7592 5.1977 17.8145 3.25299V3.25299ZM15.538 14.6342L15.1208 15.0514C14.46 15.7122 13.5468 16.0615 12.4801 16.0615C12.48 16.0615 12.4799 16.0615 12.4798 16.0615C10.7868 16.0613 8.88434 15.1696 7.39062 13.676C6.20523 12.4904 5.39671 11.0587 5.11384 9.6444C4.81327 8.14134 5.13343 6.82789 6.01543 5.94589L6.4326 5.52864C6.80142 5.15986 7.29316 4.95678 7.81728 4.95678C8.3414 4.95678 8.83314 5.15981 9.202 5.52848L9.76152 6.08815C10.525 6.85162 10.525 8.09396 9.76148 8.85752L9.4817 9.13725C9.4128 9.20615 9.37487 9.29882 9.37487 9.39817C9.37491 9.49759 9.41288 9.5903 9.48186 9.65928L11.4074 11.5847C11.4765 11.6538 11.5692 11.6918 11.6685 11.6918C11.7679 11.6918 11.8606 11.6538 11.9295 11.5849L12.2092 11.3052C12.5779 10.9364 13.0697 10.7333 13.5938 10.7333C14.118 10.7333 14.6098 10.9364 14.9786 11.3052L15.538 11.8647C16.3015 12.6283 16.3015 13.8707 15.538 14.6342V14.6342Z" fill="white" fill-opacity="0.9"/>
</g>
<defs>
<clipPath id="clip0_9_235">
<rect width="20.5931" height="20.5931" fill="white" transform="translate(0.237305 0.237228)"/>
</clipPath>
</defs>
</svg>
