<svg width="21" height="15" viewBox="0 0 21 15" fill="none" xmlns="http://www.w3.org/2000/svg">
<path d="M20.1815 1.37902C19.4234 0.477919 18.0239 0.110352 15.3511 0.110352H5.64873C2.91473 0.110352 1.49147 0.501629 0.736287 1.46099C0 2.39637 0 3.77458 0 5.68206V9.3177C0 13.0131 0.8736 14.8893 5.64873 14.8893H15.3511C17.669 14.8893 18.9534 14.565 19.7843 13.7698C20.6364 12.9543 21 11.6228 21 9.3177V5.68206C21 3.67046 20.943 2.28412 20.1815 1.37902ZM13.4821 8.00181L9.07627 10.3044C8.97777 10.3559 8.87006 10.3815 8.76249 10.3815C8.64069 10.3815 8.51916 10.3487 8.41152 10.2835C8.20883 10.1607 8.08507 9.94099 8.08507 9.70403V5.11357C8.08507 4.87701 8.20849 4.65753 8.41077 4.53465C8.61312 4.41176 8.86478 4.40336 9.07471 4.51243L13.4805 6.80021C13.7047 6.91659 13.8454 7.14799 13.8458 7.40047C13.846 7.65315 13.7059 7.88489 13.4821 8.00181Z" fill="white"/>
</svg>
