<?xml version="1.0" encoding="utf-8"?><svg viewBox="0 0 512 512" xmlns="http://www.w3.org/2000/svg" xmlns:xlink="http://www.w3.org/1999/xlink"><style>:root>svg{display:none}:root>svg:target{display:block}</style><svg viewBox="0 0 10 6" fill="none" id="arrow" xmlns="http://www.w3.org/2000/svg"><path d="m1 1 4 4 4-4" stroke="currentColor" stroke-width="2" stroke-linecap="round" stroke-linejoin="round"/></svg><svg fill="none" viewBox="0 0 10 6" id="arrow-green" xmlns="http://www.w3.org/2000/svg"><path d="M9 1 5 5 1 1" stroke="#00AE27" stroke-width="2" stroke-linecap="round" stroke-linejoin="round"/></svg><svg viewBox="0 0 7 10" fill="none" id="arrow-white" xmlns="http://www.w3.org/2000/svg"><path d="m1.5 9 4-4-4-4" stroke="#fff" stroke-width="2" stroke-linecap="round" stroke-linejoin="round"/></svg><svg viewBox="0 0 24 18" fill="none" id="card" xmlns="http://www.w3.org/2000/svg"><path d="M21 1H3a2 2 0 0 0-2 2v12a2 2 0 0 0 2 2h18a2 2 0 0 0 2-2V3a2 2 0 0 0-2-2ZM1 7h22" stroke="currentColor" stroke-width="2" stroke-linecap="round" stroke-linejoin="round"/></svg><svg viewBox="0 0 12 10" fill="none" id="check" xmlns="http://www.w3.org/2000/svg"><path d="M11 1 4.125 9 1 6" stroke="#FFF" stroke-width="2" stroke-linecap="round" stroke-linejoin="round"/></svg><svg viewBox="0 0 22 22" fill="none" id="clock" xmlns="http://www.w3.org/2000/svg"><path d="M11 21c5.523 0 10-4.477 10-10S16.523 1 11 1 1 5.477 1 11s4.477 10 10 10Z" stroke="currentColor" stroke-width="2" stroke-linecap="round" stroke-linejoin="round"/><path d="M11 5v6l4 2" stroke="currentColor" stroke-width="2" stroke-linecap="round" stroke-linejoin="round"/></svg><svg fill="none" viewBox="0 0 14 14" id="close" xmlns="http://www.w3.org/2000/svg"><path d="M13 1 1 13M1 1l12 12" stroke="#000" stroke-width="2" stroke-linecap="round" stroke-linejoin="round"/></svg><svg viewBox="0 0 512 512" id="list" xmlns="http://www.w3.org/2000/svg"><path fill="currentColor" d="M40 48c-13.3 0-24 10.7-24 24v48c0 13.3 10.7 24 24 24h48c13.3 0 24-10.7 24-24V72c0-13.3-10.7-24-24-24H40zm152 16c-17.7 0-32 14.3-32 32s14.3 32 32 32h288c17.7 0 32-14.3 32-32s-14.3-32-32-32H192zm0 160c-17.7 0-32 14.3-32 32s14.3 32 32 32h288c17.7 0 32-14.3 32-32s-14.3-32-32-32H192zm0 160c-17.7 0-32 14.3-32 32s14.3 32 32 32h288c17.7 0 32-14.3 32-32s-14.3-32-32-32H192zM16 232v48c0 13.3 10.7 24 24 24h48c13.3 0 24-10.7 24-24v-48c0-13.3-10.7-24-24-24H40c-13.3 0-24 10.7-24 24zm24 136c-13.3 0-24 10.7-24 24v48c0 13.3 10.7 24 24 24h48c13.3 0 24-10.7 24-24v-48c0-13.3-10.7-24-24-24H40z"/></svg><svg viewBox="0 0 20 20" fill="none" id="phone" xmlns="http://www.w3.org/2000/svg"><path d="M12.15 4.44a4.311 4.311 0 0 1 3.403 3.398M12.15 1a7.762 7.762 0 0 1 4.624 2.216A7.735 7.735 0 0 1 19 7.83m-.862 6.864v2.58a1.718 1.718 0 0 1-1.171 1.636 1.725 1.725 0 0 1-.707.084 17.075 17.075 0 0 1-7.437-2.64 16.789 16.789 0 0 1-5.17-5.161 17 17 0 0 1-2.646-7.457 1.717 1.717 0 0 1 1.02-1.728c.219-.097.456-.147.695-.147h2.585a1.725 1.725 0 0 1 1.724 1.48c.109.825.311 1.636.603 2.416a1.717 1.717 0 0 1-.388 1.815L6.152 8.663a13.775 13.775 0 0 0 5.17 5.16l1.094-1.091a1.724 1.724 0 0 1 1.819-.387 11.08 11.08 0 0 0 2.421.602 1.724 1.724 0 0 1 1.482 1.746Z" stroke="currentColor" stroke-width="2" stroke-linecap="round" stroke-linejoin="round"/></svg><svg viewBox="0 0 18 22" fill="none" id="shield" xmlns="http://www.w3.org/2000/svg"><path d="M9 21s8-4 8-10V4L9 1 1 4v7c0 6 8 10 8 10Z" stroke="currentColor" stroke-width="2" stroke-linecap="round" stroke-linejoin="round"/></svg><svg viewBox="0 0 24 20" fill="none" id="truck" xmlns="http://www.w3.org/2000/svg"><path d="M16 1H1v13h15V1ZM16 6h4l3 3v5h-7V6ZM5.5 19a2.5 2.5 0 1 0 0-5 2.5 2.5 0 0 0 0 5ZM18.5 19a2.5 2.5 0 1 0 0-5 2.5 2.5 0 0 0 0 5Z" stroke="currentColor" stroke-width="2" stroke-linecap="round" stroke-linejoin="round"/></svg><svg viewBox="0 0 16 16" fill="none" id="whatsapp" xmlns="http://www.w3.org/2000/svg"><path d="M8.002 0h-.004C3.587 0 0 3.588 0 8a7.94 7.94 0 0 0 1.523 4.689l-.997 2.972 3.075-.983A7.93 7.93 0 0 0 8.002 16C12.413 16 16 12.411 16 8s-3.587-8-7.998-8Z" fill="currentColor"/><path d="M12.657 11.297c-.193.545-.959.997-1.57 1.129-.418.089-.964.16-2.802-.602-2.351-.974-3.865-3.363-3.983-3.518-.113-.155-.95-1.265-.95-2.413s.583-1.707.818-1.947c.193-.197.512-.287.818-.287.099 0 .188.005.268.009.235.01.353.024.508.395.193.465.663 1.613.72 1.731.056.118.113.278.033.433-.075.16-.141.231-.259.367-.118.136-.23.24-.348.386-.108.127-.23.263-.094.498.136.23.606.997 1.298 1.613.893.795 1.617 1.049 1.876 1.157.193.08.423.061.564-.089.18-.193.4-.513.625-.828.16-.226.362-.254.574-.174.216.075 1.36.64 1.594.757.235.118.39.174.447.273.056.099.056.564-.137 1.11Z" fill="#FFF"/></svg></svg>