<?xml version="1.0" encoding="utf-8"?><svg viewBox="0 0 496 512" xmlns="http://www.w3.org/2000/svg" xmlns:xlink="http://www.w3.org/1999/xlink"><style>:root>svg{display:none}:root>svg:target{display:block}</style><svg fill="none" viewBox="0 0 11 8" id="arrow" xmlns="http://www.w3.org/2000/svg"><path stroke="currentColor" d="M9.75 1.375L5.5 5.625l-4.25-4.25" stroke-width="2"/></svg><svg fill="none" viewBox="0 0 6 6" id="arrow-bread" xmlns="http://www.w3.org/2000/svg"><path d="M5.02 2.808L2.062.343A.8.8 0 00.75.958v4.084a.8.8 0 001.312.615L5.02 3.192a.25.25 0 000-.384z" fill="#3674A2"/></svg><svg fill="none" viewBox="0 0 18 18" id="ball" xmlns="http://www.w3.org/2000/svg"><path fill="currentColor" fill-rule="evenodd" clip-rule="evenodd" d="M8 .055v4.893a9.171 9.171 0 01-1.765-.36 7.558 7.558 0 01-2.292-1.145 5.589 5.589 0 01-1.067-1.038A8.967 8.967 0 018 .055zm2 0v4.893a9.172 9.172 0 001.765-.36 7.559 7.559 0 002.292-1.145c.423-.318.78-.668 1.067-1.038A8.968 8.968 0 0010 .055zm6.446 3.889c-.349.4-.748.767-1.19 1.099a9.555 9.555 0 01-2.898 1.455c-.758.236-1.552.39-2.358.459V8h7.945a8.948 8.948 0 00-1.499-4.056zM17.945 10H10v1.043c.806.07 1.6.223 2.358.459a9.557 9.557 0 012.899 1.455c.441.332.84.7 1.19 1.1A8.949 8.949 0 0017.945 10zm-2.82 5.595a5.593 5.593 0 00-1.068-1.038 7.56 7.56 0 00-2.292-1.145 9.166 9.166 0 00-1.765-.36v4.893a8.967 8.967 0 005.124-2.35zM8 17.945v-4.893c-.607.063-1.2.184-1.765.36a7.558 7.558 0 00-2.292 1.145c-.423.318-.78.668-1.068 1.038A8.967 8.967 0 008 17.945zm-6.447-3.889c.349-.4.748-.767 1.19-1.099a9.557 9.557 0 012.899-1.455c.758-.236 1.551-.39 2.358-.46V10H.055a8.948 8.948 0 001.498 4.056zM.055 8H8V6.957c-.807-.07-1.6-.223-2.358-.459a9.555 9.555 0 01-2.9-1.455 7.743 7.743 0 01-1.189-1.099A8.948 8.948 0 00.055 8z"/></svg><svg fill="none" viewBox="0 0 24 24" id="calendar" xmlns="http://www.w3.org/2000/svg"><path d="M3 10c0-1.886 0-2.828.586-3.414C4.172 6 5.114 6 7 6h10c1.886 0 2.828 0 3.414.586C21 7.172 21 8.114 21 10v0H3v0z" stroke="#00365D" stroke-width="1.2"/><rect x="3" y="6" width="18" height="15" rx="2" stroke="#00365D" stroke-width="1.2"/><path d="M7 3v3M17 3v3" stroke="#00365D" stroke-width="1.2" stroke-linecap="round"/><rect x="7" y="12" width="4" height="2" rx=".5" fill="#00365D"/><rect x="7" y="16" width="4" height="2" rx=".5" fill="#00365D"/><rect x="13" y="12" width="4" height="2" rx=".5" fill="#00365D"/><rect x="13" y="16" width="4" height="2" rx=".5" fill="#00365D"/></svg><svg fill="none" viewBox="0 0 24 24" id="facebook" xmlns="http://www.w3.org/2000/svg"><path fill="currentColor" d="M24 12c0-6.627-5.373-12-12-12S0 5.373 0 12c0 5.99 4.388 10.954 10.125 11.854V15.47H7.078V12h3.047V9.356c0-3.007 1.792-4.668 4.533-4.668 1.312 0 2.686.234 2.686.234v2.953H15.83c-1.491 0-1.956.925-1.956 1.875V12h3.328l-.532 3.469h-2.796v8.385C19.612 22.954 24 17.99 24 12z"/></svg><svg fill="none" viewBox="0 0 24 24" id="instagram" xmlns="http://www.w3.org/2000/svg"><g clip-path="url(#fclip0_222_2013)" fill="currentColor"><path d="M12 2.16c3.206 0 3.586.015 4.847.071 1.172.052 1.805.249 2.226.413a3.71 3.71 0 011.379.895c.421.422.68.82.895 1.378.164.422.36 1.06.412 2.227.057 1.265.07 1.645.07 4.847 0 3.206-.013 3.586-.07 4.846-.051 1.172-.248 1.805-.412 2.227-.216.558-.478.961-.895 1.378a3.69 3.69 0 01-1.379.895c-.421.165-1.059.361-2.226.413-1.266.056-1.645.07-4.847.07-3.206 0-3.586-.014-4.847-.07-1.172-.052-1.805-.248-2.226-.413a3.71 3.71 0 01-1.379-.895 3.691 3.691 0 01-.895-1.378c-.164-.422-.36-1.06-.412-2.227-.057-1.265-.07-1.645-.07-4.846 0-3.207.013-3.586.07-4.847.051-1.172.248-1.805.412-2.227.216-.558.478-.96.895-1.378.422-.422.82-.68 1.379-.895.421-.164 1.059-.361 2.226-.413 1.261-.056 1.64-.07 4.847-.07zM12 0C8.742 0 8.334.014 7.055.07 5.78.127 4.903.333 4.144.628a5.857 5.857 0 00-2.128 1.388A5.88 5.88 0 00.628 4.139C.333 4.903.127 5.775.07 7.05.014 8.334 0 8.742 0 12s.014 3.666.07 4.945c.057 1.275.263 2.152.558 2.911.31.792.717 1.463 1.388 2.128a5.866 5.866 0 002.123 1.383c.764.296 1.636.502 2.911.558 1.28.056 1.688.07 4.945.07 3.258 0 3.666-.014 4.946-.07 1.275-.056 2.151-.262 2.91-.558a5.866 5.866 0 002.124-1.383 5.866 5.866 0 001.383-2.123c.295-.764.501-1.636.558-2.911.056-1.28.07-1.688.07-4.945 0-3.258-.014-3.666-.07-4.946-.057-1.275-.263-2.151-.558-2.91a5.62 5.62 0 00-1.374-2.133A5.866 5.866 0 0019.861.633C19.097.338 18.225.13 16.95.075 15.666.015 15.258 0 12 0z"/><path d="M12 5.836A6.166 6.166 0 005.836 12 6.166 6.166 0 0012 18.164 6.166 6.166 0 0018.164 12 6.166 6.166 0 0012 5.836zm0 10.162A3.999 3.999 0 1112.001 8 3.999 3.999 0 0112 15.998zM19.847 5.592a1.44 1.44 0 11-2.879 0 1.44 1.44 0 012.879 0z"/></g><defs><clipPath id="fclip0_222_2013"><path fill="#fff" d="M0 0h24v24H0z"/></clipPath></defs></svg><svg fill="none" viewBox="0 0 14 16" id="marker" xmlns="http://www.w3.org/2000/svg"><path fill="currentColor" fill-rule="evenodd" clip-rule="evenodd" d="M7.398 15.804C8.881 15.034 14 12.016 14 7A7 7 0 100 7c0 5.016 5.119 8.035 6.602 8.804a.855.855 0 00.796 0zM7 10a3 3 0 100-6 3 3 0 000 6z"/></svg><svg fill="none" viewBox="0 0 12 12" id="phone" xmlns="http://www.w3.org/2000/svg"><path fill="currentColor" d="M9.97 7.55l1.479 1.478a.78.78 0 010 1.102 4.68 4.68 0 01-6.117.435l-.108-.081a18.537 18.537 0 01-3.708-3.708l-.081-.108A4.68 4.68 0 011.87.55a.78.78 0 011.103 0L4.45 2.03a1 1 0 010 1.414L3.448 4.447a.672.672 0 00-.126.776 7.727 7.727 0 003.455 3.455c.26.13.571.079.776-.126L8.556 7.55a1 1 0 011.414 0z"/></svg><svg fill="none" viewBox="0 0 28 32" id="play" xmlns="http://www.w3.org/2000/svg"><path fill="currentColor" d="M27 14.268c1.333.77 1.333 2.694 0 3.464L3 31.59c-1.333.77-3-.193-3-1.733V2.144C0 .604 1.667-.358 3 .412l24 13.856z"/></svg><svg fill="none" viewBox="0 0 24 18" id="quotes" xmlns="http://www.w3.org/2000/svg"><path d="M.477 18v-4.602c0-1.398.247-2.881.742-4.45a19.13 19.13 0 012.199-4.576A16.461 16.461 0 016.92.512l3.273 2.658a34.035 34.035 0 00-2.812 4.807c-.784 1.654-1.176 3.426-1.176 5.319V18H.477zm13.091 0v-4.602c0-1.398.247-2.881.742-4.45a19.13 19.13 0 012.199-4.576A16.46 16.46 0 0120.01.512l3.273 2.658a34.03 34.03 0 00-2.812 4.807c-.785 1.654-1.177 3.426-1.177 5.319V18h-5.727z" fill="#000"/></svg><svg viewBox="0 0 496 512" id="telegram" xmlns="http://www.w3.org/2000/svg"><path fill="currentColor" d="M248 8C111.033 8 0 119.033 0 256s111.033 248 248 248 248-111.033 248-248S384.967 8 248 8zm114.952 168.66c-3.732 39.215-19.881 134.378-28.1 178.3-3.476 18.584-10.322 24.816-16.948 25.425-14.4 1.326-25.338-9.517-39.287-18.661-21.827-14.308-34.158-23.215-55.346-37.177-24.485-16.135-8.612-25 5.342-39.5 3.652-3.793 67.107-61.51 68.335-66.746.153-.655.3-3.1-1.154-4.384s-3.59-.849-5.135-.5q-3.283.746-104.608 69.142-14.845 10.194-26.894 9.934c-8.855-.191-25.888-5.006-38.551-9.123-15.531-5.048-27.875-7.717-26.8-16.291q.84-6.7 18.45-13.7 108.446-47.248 144.628-62.3c68.872-28.647 83.183-33.623 92.511-33.789 2.052-.034 6.639.474 9.61 2.885a10.452 10.452 0 013.53 6.716 43.765 43.765 0 01.417 9.769z"/></svg><svg viewBox="0 0 448 512" id="whatsapp" xmlns="http://www.w3.org/2000/svg"><path fill="currentColor" d="M380.9 97.1C339 55.1 283.2 32 223.9 32c-122.4 0-222 99.6-222 222 0 39.1 10.2 77.3 29.6 111L0 480l117.7-30.9c32.4 17.7 68.9 27 106.1 27h.1c122.3 0 224.1-99.6 224.1-222 0-59.3-25.2-115-67.1-157zm-157 341.6c-33.2 0-65.7-8.9-94-25.7l-6.7-4-69.8 18.3L72 359.2l-4.4-7c-18.5-29.4-28.2-63.3-28.2-98.2 0-101.7 82.8-184.5 184.6-184.5 49.3 0 95.6 19.2 130.4 54.1 34.8 34.9 56.2 81.2 56.1 130.5 0 101.8-84.9 184.6-186.6 184.6zm101.2-138.2c-5.5-2.8-32.8-16.2-37.9-18-5.1-1.9-8.8-2.8-12.5 2.8-3.7 5.6-14.3 18-17.6 21.8-3.2 3.7-6.5 4.2-12 1.4-32.6-16.3-54-29.1-75.5-66-5.7-9.8 5.7-9.1 16.3-30.3 1.8-3.7.9-6.9-.5-9.7-1.4-2.8-12.5-30.1-17.1-41.2-4.5-10.8-9.1-9.3-12.5-9.5-3.2-.2-6.9-.2-10.6-.2-3.7 0-9.7 1.4-14.8 6.9-5.1 5.6-19.4 19-19.4 46.3 0 27.3 19.9 53.7 22.6 57.4 2.8 3.7 39.1 59.7 94.8 83.8 35.2 15.2 49 16.5 66.6 13.9 10.7-1.6 32.8-13.4 37.4-26.4 4.6-13 4.6-24.1 3.2-26.4-1.3-2.5-5-3.9-10.5-6.6z"/></svg><svg fill="none" viewBox="0 0 24 18" id="youtube" xmlns="http://www.w3.org/2000/svg"><path fill="currentColor" d="M23.76 4.2s-.233-1.655-.955-2.381C21.89.862 20.869.858 20.4.8 17.044.558 12.005.558 12.005.558h-.01S6.956.558 3.6.8C3.131.858 2.11.862 1.195 1.82c-.722.726-.951 2.38-.951 2.38S0 6.146 0 8.087v1.818c0 1.941.24 3.886.24 3.886s.233 1.655.95 2.382c.915.956 2.115.923 2.65 1.026 1.92.183 8.16.24 8.16.24s5.044-.01 8.4-.25c.469-.055 1.49-.06 2.405-1.016.722-.727.956-2.382.956-2.382S24 11.85 24 9.904V8.086c0-1.94-.24-3.886-.24-3.886zM9.52 12.112V5.367l6.483 3.384-6.483 3.361z"/></svg></svg>