<svg viewBox="0 0 49 46" fill="none" xmlns="http://www.w3.org/2000/svg">
<path d="M12.6714 44.9714C10.7431 44.9714 9.10101 44.2908 7.74518 42.9295C6.38934 41.5687 5.71143 39.9255 5.71143 38.0001V18.9089C4.74684 17.9855 3.67247 16.9878 2.4883 15.9158C1.30372 14.8437 0.711426 13.5801 0.711426 12.1251C0.711426 11.3205 0.989551 10.6403 1.5458 10.0845C2.10205 9.52825 2.78226 9.25013 3.58643 9.25013C4.27726 9.25013 4.91393 9.46013 5.49643 9.88013C6.07893 10.2997 6.56726 10.8189 6.96143 11.4376C7.35601 10.8189 7.84455 10.2997 8.42705 9.88013C9.00955 9.46013 9.64601 9.25013 10.3364 9.25013C11.141 9.25013 11.8214 9.52825 12.3777 10.0845C12.9335 10.6403 13.2114 11.3205 13.2114 12.1251C13.2114 13.5801 12.6193 14.8437 11.4352 15.9158C10.251 16.9878 9.17643 17.9855 8.21143 18.9089V38.0001C8.21143 39.2422 8.64539 40.2978 9.5133 41.167C10.3812 42.0366 11.435 42.4714 12.6746 42.4714C13.9141 42.4714 14.9706 42.0366 15.8439 41.167C16.7173 40.2978 17.1539 39.2422 17.1539 38.0001V11.7501C17.1539 8.69096 18.232 6.08325 20.3883 3.927C22.5445 1.77075 25.1523 0.692627 28.2114 0.692627C31.271 0.692627 33.8789 1.77075 36.0352 3.927C38.1914 6.08325 39.2696 8.69096 39.2696 11.7501V13.1058C41.76 13.4008 43.8408 14.4833 45.5121 16.3533C47.1837 18.2237 48.0196 20.4393 48.0196 23.0001V35.5001C48.0196 38.2855 47.0491 40.6485 45.1083 42.5889C43.1675 44.5297 40.8046 45.5001 38.0196 45.5001C35.2341 45.5001 32.871 44.5297 30.9302 42.5889C28.9898 40.6485 28.0196 38.2855 28.0196 35.5001V23.0001C28.0196 20.4393 28.8552 18.2237 30.5264 16.3533C32.1981 14.4833 34.2791 13.4008 36.7696 13.1058V11.7501C36.7696 9.37304 35.9381 7.35242 34.2752 5.68825C32.6123 4.0245 30.5931 3.19263 28.2177 3.19263C25.8418 3.19263 23.8206 4.0245 22.1539 5.68825C20.4873 7.35242 19.6539 9.37304 19.6539 11.7501V38.0001C19.6539 39.9255 18.9723 41.5687 17.6089 42.9295C16.246 44.2908 14.6002 44.9714 12.6714 44.9714ZM38.0196 43.0001C40.1029 43.0001 41.8737 42.271 43.3321 40.8126C44.7904 39.3543 45.5196 37.5835 45.5196 35.5001V23.0001C45.5196 20.9168 44.7904 19.146 43.3321 17.6876C41.8737 16.2293 40.1029 15.5001 38.0196 15.5001C35.9362 15.5001 34.1654 16.2293 32.7071 17.6876C31.2487 19.146 30.5196 20.9168 30.5196 23.0001V35.5001C30.5196 37.5835 31.2487 39.3543 32.7071 40.8126C34.1654 42.271 35.9362 43.0001 38.0196 43.0001ZM38.0196 31.7501C36.965 31.7501 36.0762 32.1116 35.3533 32.8345C34.6308 33.557 34.2696 34.4455 34.2696 35.5001C34.2696 36.5547 34.6308 37.4432 35.3533 38.1657C36.0762 38.8887 36.965 39.2501 38.0196 39.2501C39.0741 39.2501 39.9627 38.8887 40.6852 38.1657C41.4081 37.4432 41.7696 36.5547 41.7696 35.5001C41.7696 34.4455 41.4081 33.557 40.6852 32.8345C39.9627 32.1116 39.0741 31.7501 38.0196 31.7501Z" fill="#2197AC"/>
</svg>
