<svg width="22" height="16" viewBox="0 0 21.3242 16.1836" fill="none" xmlns="http://www.w3.org/2000/svg" xmlns:xlink="http://www.w3.org/1999/xlink">
	<path d="M10.6602 10.6602C11.4609 10.6758 12.5547 9.83203 13.3047 9.25391C13.457 9.13281 13.5977 9.02344 13.7188 8.9375C19.2461 4.92578 19.6641 4.57812 20.9375 3.57812C21.1797 3.39062 21.3242 3.09766 21.3242 2.78906L21.3242 2C21.3242 0.894531 20.4258 0 19.3242 0L2 0C0.894531 0 0 0.894531 0 2L0 2.78906C0 3.09766 0.140625 3.38672 0.382812 3.57812C1.65625 4.57422 2.07812 4.92578 7.60547 8.9375C7.72266 9.02344 7.86328 9.13281 8.01953 9.25391C8.76953 9.83203 9.85938 10.6758 10.6602 10.6602ZM21.3242 14.1836C21.3242 15.2891 20.4258 16.1836 19.3242 16.1836L2 16.1836C0.894531 16.1836 0 15.2891 0 14.1836L0 5.67188C0 5.46484 0.238281 5.34766 0.402344 5.47656C0.6875 5.69531 0.996094 5.93359 1.41016 6.24219L1.67188 6.44141C2.63281 7.15625 4.11719 8.24219 6.82031 10.207C6.95312 10.3047 7.10156 10.418 7.26172 10.5391C8.14844 11.2266 9.40625 12.1953 10.6602 12.1914C11.9219 12.1992 13.1992 11.2109 14.0742 10.5352C14.2305 10.4141 14.375 10.3008 14.5039 10.207C18.7539 7.12109 19.9844 6.19531 20.918 5.47266C21.082 5.34375 21.3242 5.46484 21.3242 5.66797L21.3242 14.1836Z" clip-rule="evenodd" fill="#919191" />
</svg>
