<?xml version="1.0" encoding="utf-8"?><svg viewBox="0 0 31 31" xmlns="http://www.w3.org/2000/svg" xmlns:xlink="http://www.w3.org/1999/xlink"><style>:root>svg{display:none}:root>svg:target{display:block}</style><svg viewBox="0 0 17.297 13.297" fill="none" id="burger" xmlns="http://www.w3.org/2000/svg"><path d="M.648.648h16M4.648 6.648h12M.648 12.648h16" stroke="currentColor" stroke-width="1.3" stroke-linecap="round"/></svg><svg viewBox="0 0 15.059 29" fill="none" id="facebook" xmlns="http://www.w3.org/2000/svg"><path d="M9.773 29V15.773h4.442l.664-5.156H9.773V7.324c0-1.492.415-2.508 2.559-2.508l2.727-.003V.202C14.586.141 12.969 0 11.082 0 7.145 0 4.453 2.402 4.453 6.813v3.804H0v5.156h4.453V29h5.32Z" fill="currentColor"/></svg><svg viewBox="0 0 31 31" fill="none" id="github" xmlns="http://www.w3.org/2000/svg"><path d="M15.5 0C6.988 0 0 6.988 0 15.5 0 22.766 5.098 29.363 11.867 31v-5.129c-.672.149-1.289.152-1.972-.05-.915-.27-1.66-.88-2.211-1.81-.352-.593-.977-1.238-1.63-1.19l-.16-1.81c1.41-.12 2.63.856 3.352 2.071.32.543.691.86 1.164.996.461.137.953.07 1.524-.129.144-1.152.671-1.582 1.07-2.187-4.04-.602-5.649-2.742-6.285-4.434-.848-2.246-.39-5.05 1.105-6.82.028-.035.082-.125.059-.188-.684-2.074.152-3.789.183-3.968.79.23.918-.239 3.438 1.293l.437.261c.18.11.125.047.305.032 1.05-.286 2.16-.442 3.254-.458 1.102.016 2.203.172 3.297.47l.14.015c-.011-.004.04-.008.125-.059C22.207 6 22.095 6.621 22.938 6.348c.032.183.856 1.925.18 3.972-.094.282 2.727 2.864 1.164 7.008-.636 1.692-2.246 3.832-6.285 4.434.52.789 1.14 1.21 1.137 2.836V31C25.903 29.363 31 22.766 31 15.5 31 6.988 24.012 0 15.5 0Z" fill="currentColor"/></svg><svg viewBox="0 0 30 30" fill="none" id="instagram" xmlns="http://www.w3.org/2000/svg"><path d="M22.5 0h-15C3.375 0 0 3.375 0 7.5v15C0 26.625 3.375 30 7.5 30h15c4.125 0 7.5-3.375 7.5-7.5v-15C30 3.375 26.625 0 22.5 0ZM15 21.25a6.25 6.25 0 1 1 .002-12.502A6.25 6.25 0 0 1 15 21.25Zm8.125-12.5a1.875 1.875 0 1 1 0-3.75 1.875 1.875 0 0 1 0 3.75Z" fill="currentColor"/></svg><svg fill="none" viewBox="0 0 25.602 25.602" id="linkedin" xmlns="http://www.w3.org/2000/svg"><path d="M25.602 25.602v-9.375c0-4.61-.993-8.13-6.368-8.13-2.59 0-4.32 1.407-5.023 2.755h-.063v-2.34h-5.09v17.09h5.313v-8.48c0-2.24.414-4.384 3.168-4.384 2.719 0 2.75 2.528 2.75 4.512v8.32h5.313v.032ZM.418 8.512H5.73v17.09H.418V8.512ZM3.07 0A3.07 3.07 0 0 0 0 3.07c0 1.7 1.375 3.106 3.07 3.106 1.7 0 3.075-1.406 3.075-3.106A3.072 3.072 0 0 0 3.07 0Z" fill="currentColor"/></svg><svg viewBox="0 0 31 25.188" fill="none" id="twitter" xmlns="http://www.w3.org/2000/svg"><path d="M31 2.98a13.104 13.104 0 0 1-3.66 1.004A6.317 6.317 0 0 0 30.133.473a12.633 12.633 0 0 1-4.027 1.539A6.378 6.378 0 0 0 21.46 0a6.352 6.352 0 0 0-6.352 6.355c0 .504.043.989.149 1.45C9.973 7.547 5.3 5.015 2.16 1.16c-.55.95-.87 2.04-.87 3.211 0 2.2 1.132 4.152 2.823 5.281a6.32 6.32 0 0 1-2.875-.78v.07c0 3.085 2.203 5.652 5.094 6.242-.52.14-1.082.21-1.668.21-.406 0-.816-.023-1.203-.109.824 2.516 3.16 4.367 5.941 4.426a12.782 12.782 0 0 1-7.882 2.71c-.52 0-1.02-.023-1.52-.085a17.889 17.889 0 0 0 9.75 2.852c11.695 0 18.09-9.688 18.09-18.086 0-.282-.012-.551-.024-.82A12.671 12.671 0 0 0 31 2.98Z" fill="currentColor"/></svg></svg>