<svg viewBox="0 0 83 83" fill="none" xmlns="http://www.w3.org/2000/svg" preserveAspectRatio="none">
  <path d="M0.410461 83C0.276499 83.0032 0.140255 83.003 0 83H0.410461C1.46628 82.9749 2.38041 82.7393 4 82C5.94106 80.8732 6.53503 80.3411 7.5 79C8.46497 77.6589 9.36667 76.3726 10 74C10.3546 71.8924 10.505 70.8057 10.5 69C10.4699 68.0089 9.90735 65.8155 9.5 65C8.64537 62.5288 8.23834 61.2066 7.5 57.5C7.0839 54.1801 6.96243 52.3181 7 49C7.18419 44.7072 7.58086 42.4062 8.5 38.5C10.4354 33.0446 11.6486 30.3132 14.5 26C18.4351 20.4355 21.0585 17.833 26.5 14C31.0706 11.0419 34.0275 9.72754 40 8C45.0784 7.08896 47.6637 6.98115 52 7C57.6089 7.26466 60.2927 7.84253 65 9.5C68.8179 10.4594 70.7251 10.0997 72.5 10C75.3272 9.52745 76.6048 9.22728 78.5 8L78.542 7.97139C79.3589 7.41476 80.611 6.56169 82 4.5C82.7041 3.03897 82.965 2.09737 83 0.716642V0C83.0054 0.253412 83.0057 0.490896 83 0.716642V83H0.410461Z" fill="#F9F9F9"/>
</svg>
