<svg width="40" height="40" viewBox="0 0 40 40" fill="none" xmlns="http://www.w3.org/2000/svg">
<path d="M1.25002 7.5L1.35002 9.675C0.69238 10.6348 0.39002 11.7938 0.495021 12.9525L2.08752 30.4525C2.20041 31.6948 2.77358 32.85 3.69451 33.6914C4.61544 34.5328 5.81762 34.9995 7.06502 35H22.5V32.5H7.06502C6.44134 32.4994 5.8404 32.2657 5.38016 31.8448C4.91993 31.4239 4.63365 30.8462 4.57752 30.225L2.98502 12.725C2.95377 12.3791 2.99491 12.0305 3.10585 11.7014C3.21678 11.3723 3.39506 11.07 3.62932 10.8136C3.86359 10.5572 4.1487 10.3525 4.46648 10.2124C4.78426 10.0723 5.12774 9.99998 5.47502 10H34.525C34.8723 9.99998 35.2158 10.0723 35.5336 10.2124C35.8513 10.3525 36.1365 10.5572 36.3707 10.8136C36.605 11.07 36.7833 11.3723 36.8942 11.7014C37.0051 12.0305 37.0463 12.3791 37.015 12.725L36.35 20H38.8625L39.5025 12.9525C39.5654 12.2608 39.4834 11.5635 39.2619 10.9052C39.0403 10.2469 38.6841 9.64196 38.2158 9.12897C37.7475 8.61599 37.1774 8.2062 36.542 7.92573C35.9065 7.64527 35.2196 7.50028 34.525 7.5H24.57C23.244 7.49972 21.9725 6.97275 21.035 6.035L18.965 3.965C18.0276 3.02725 16.756 2.50028 15.43 2.5H6.25002C4.92394 2.5 3.65217 3.02678 2.71449 3.96447C1.77681 4.90215 1.25002 6.17392 1.25002 7.5ZM15.43 5C16.093 5.00014 16.7288 5.26363 17.1975 5.7325L18.965 7.5H5.47502C4.87169 7.50333 4.30252 7.60333 3.76752 7.8L3.75002 7.45C3.76311 6.79566 4.03227 6.17255 4.4997 5.71447C4.96713 5.25639 5.59555 4.99987 6.25002 5H15.43Z" fill="white"/>
<path d="M33.75 22.5C34.0815 22.5 34.3995 22.6317 34.6339 22.8661C34.8683 23.1005 35 23.4185 35 23.75V27.5H38.75C39.0815 27.5 39.3995 27.6317 39.6339 27.8661C39.8683 28.1005 40 28.4185 40 28.75C40 29.0815 39.8683 29.3995 39.6339 29.6339C39.3995 29.8683 39.0815 30 38.75 30H35V33.75C35 34.0815 34.8683 34.3995 34.6339 34.6339C34.3995 34.8683 34.0815 35 33.75 35C33.4185 35 33.1005 34.8683 32.8661 34.6339C32.6317 34.3995 32.5 34.0815 32.5 33.75V30H28.75C28.4185 30 28.1005 29.8683 27.8661 29.6339C27.6317 29.3995 27.5 29.0815 27.5 28.75C27.5 28.4185 27.6317 28.1005 27.8661 27.8661C28.1005 27.6317 28.4185 27.5 28.75 27.5H32.5V23.75C32.5 23.4185 32.6317 23.1005 32.8661 22.8661C33.1005 22.6317 33.4185 22.5 33.75 22.5Z" fill="white"/>
</svg>
