<svg width="40" height="40" viewBox="0 0 40 40" fill="none" xmlns="http://www.w3.org/2000/svg">
<path d="M27.5 6.25C27.4998 4.78358 28.0153 3.36379 28.9562 2.23903C29.8971 1.11427 31.2035 0.356158 32.6469 0.097342C34.0903 -0.161474 35.5787 0.0954827 36.8518 0.823255C38.1249 1.55103 39.1015 2.70327 39.6109 4.07839C40.1202 5.45352 40.1298 6.96395 39.638 8.34543C39.1462 9.72691 38.1842 10.8915 36.9205 11.6354C35.6568 12.3792 34.1717 12.6551 32.7251 12.4146C31.2786 12.1742 29.9626 11.4327 29.0075 10.32L12.2125 18.12C12.5984 19.3436 12.5984 20.6564 12.2125 21.88L29.0075 29.68C30.0171 28.5058 31.4267 27.7483 32.963 27.5541C34.4993 27.36 36.053 27.7431 37.3229 28.6292C38.5929 29.5154 39.4887 30.8414 39.8367 32.3503C40.1846 33.8592 39.9601 35.4436 39.2065 36.7964C38.4529 38.1492 37.2239 39.1741 35.7577 39.6724C34.2915 40.1707 32.6926 40.107 31.2707 39.4935C29.8488 38.8801 28.7053 37.7607 28.0618 36.3522C27.4182 34.9437 27.3205 33.3464 27.7875 31.87L10.9925 24.07C10.1611 25.0389 9.05287 25.73 7.81694 26.0502C6.58101 26.3704 5.27665 26.3045 4.07934 25.8612C2.88202 25.4179 1.84918 24.6186 1.11976 23.5707C0.390339 22.5229 -0.000671387 21.2767 -0.000671387 20C-0.000671387 18.7233 0.390339 17.4771 1.11976 16.4293C1.84918 15.3814 2.88202 14.5821 4.07934 14.1388C5.27665 13.6955 6.58101 13.6296 7.81694 13.9498C9.05287 14.27 10.1611 14.9611 10.9925 15.93L27.7875 8.13C27.5963 7.52167 27.4994 6.88766 27.5 6.25Z" fill="white"/>
</svg>
