<svg width="40" height="40" viewBox="0 0 40 40" fill="none" xmlns="http://www.w3.org/2000/svg">
<g clip-path="url(#clip0_116_293)">
<path d="M20 37.5C15.3587 37.5 10.9075 35.6563 7.62563 32.3744C4.34374 29.0925 2.5 24.6413 2.5 20C2.5 15.3587 4.34374 10.9075 7.62563 7.62563C10.9075 4.34374 15.3587 2.5 20 2.5C24.6413 2.5 29.0925 4.34374 32.3744 7.62563C35.6563 10.9075 37.5 15.3587 37.5 20C37.5 24.6413 35.6563 29.0925 32.3744 32.3744C29.0925 35.6563 24.6413 37.5 20 37.5ZM20 40C25.3043 40 30.3914 37.8929 34.1421 34.1421C37.8929 30.3914 40 25.3043 40 20C40 14.6957 37.8929 9.60859 34.1421 5.85786C30.3914 2.10714 25.3043 0 20 0C14.6957 0 9.60859 2.10714 5.85786 5.85786C2.10714 9.60859 0 14.6957 0 20C0 25.3043 2.10714 30.3914 5.85786 34.1421C9.60859 37.8929 14.6957 40 20 40Z" fill="white"/>
<path d="M22.325 16.47L16.6 17.1875L16.395 18.1375L17.52 18.345C18.255 18.52 18.4 18.785 18.24 19.5175L16.395 28.1875C15.91 30.43 16.6575 31.485 18.415 31.485C19.7775 31.485 21.36 30.855 22.0775 29.99L22.2975 28.95C21.7975 29.39 21.0675 29.565 20.5825 29.565C19.895 29.565 19.645 29.0825 19.8225 28.2325L22.325 16.47ZM22.5 11.25C22.5 11.913 22.2366 12.5489 21.7678 13.0178C21.2989 13.4866 20.663 13.75 20 13.75C19.337 13.75 18.7011 13.4866 18.2322 13.0178C17.7634 12.5489 17.5 11.913 17.5 11.25C17.5 10.587 17.7634 9.95107 18.2322 9.48223C18.7011 9.01339 19.337 8.75 20 8.75C20.663 8.75 21.2989 9.01339 21.7678 9.48223C22.2366 9.95107 22.5 10.587 22.5 11.25Z" fill="white"/>
</g>
<defs>
<clipPath id="clip0_116_293">
<rect width="40" height="40" fill="white"/>
</clipPath>
</defs>
</svg>
