<svg width="40" height="40" viewBox="0 0 40 40" fill="none" xmlns="http://www.w3.org/2000/svg">
<path d="M11.25 12.5C11.5815 12.5 11.8995 12.3683 12.1339 12.1339C12.3683 11.8995 12.5 11.5815 12.5 11.25C12.5 10.9185 12.3683 10.6005 12.1339 10.3661C11.8995 10.1317 11.5815 10 11.25 10C10.9185 10 10.6005 10.1317 10.3661 10.3661C10.1317 10.6005 10 10.9185 10 11.25C10 11.5815 10.1317 11.8995 10.3661 12.1339C10.6005 12.3683 10.9185 12.5 11.25 12.5ZM7.5 11.25C7.5 11.5815 7.3683 11.8995 7.13388 12.1339C6.89946 12.3683 6.58152 12.5 6.25 12.5C5.91848 12.5 5.60054 12.3683 5.36612 12.1339C5.1317 11.8995 5 11.5815 5 11.25C5 10.9185 5.1317 10.6005 5.36612 10.3661C5.60054 10.1317 5.91848 10 6.25 10C6.58152 10 6.89946 10.1317 7.13388 10.3661C7.3683 10.6005 7.5 10.9185 7.5 11.25Z" fill="white"/>
<path d="M0 10C0 8.67392 0.526784 7.40215 1.46447 6.46447C2.40215 5.52678 3.67392 5 5 5H35C36.3261 5 37.5979 5.52678 38.5355 6.46447C39.4732 7.40215 40 8.67392 40 10V12.5C40 13.8261 39.4732 15.0979 38.5355 16.0355C37.5979 16.9732 36.3261 17.5 35 17.5H21.25V25C22.2446 25 23.1984 25.3951 23.9017 26.0983C24.6049 26.8016 25 27.7554 25 28.75H38.75C39.0815 28.75 39.3995 28.8817 39.6339 29.1161C39.8683 29.3505 40 29.6685 40 30C40 30.3315 39.8683 30.6495 39.6339 30.8839C39.3995 31.1183 39.0815 31.25 38.75 31.25H25C25 32.2446 24.6049 33.1984 23.9017 33.9017C23.1984 34.6049 22.2446 35 21.25 35H18.75C17.7554 35 16.8016 34.6049 16.0983 33.9017C15.3951 33.1984 15 32.2446 15 31.25H1.25C0.918479 31.25 0.600537 31.1183 0.366117 30.8839C0.131696 30.6495 0 30.3315 0 30C0 29.6685 0.131696 29.3505 0.366117 29.1161C0.600537 28.8817 0.918479 28.75 1.25 28.75H15C15 27.7554 15.3951 26.8016 16.0983 26.0983C16.8016 25.3951 17.7554 25 18.75 25V17.5H5C3.67392 17.5 2.40215 16.9732 1.46447 16.0355C0.526784 15.0979 0 13.8261 0 12.5V10ZM2.5 10V12.5C2.5 13.163 2.76339 13.7989 3.23223 14.2678C3.70107 14.7366 4.33696 15 5 15H35C35.663 15 36.2989 14.7366 36.7678 14.2678C37.2366 13.7989 37.5 13.163 37.5 12.5V10C37.5 9.33696 37.2366 8.70107 36.7678 8.23223C36.2989 7.76339 35.663 7.5 35 7.5H5C4.33696 7.5 3.70107 7.76339 3.23223 8.23223C2.76339 8.70107 2.5 9.33696 2.5 10ZM17.5 28.75V31.25C17.5 31.5815 17.6317 31.8995 17.8661 32.1339C18.1005 32.3683 18.4185 32.5 18.75 32.5H21.25C21.5815 32.5 21.8995 32.3683 22.1339 32.1339C22.3683 31.8995 22.5 31.5815 22.5 31.25V28.75C22.5 28.4185 22.3683 28.1005 22.1339 27.8661C21.8995 27.6317 21.5815 27.5 21.25 27.5H18.75C18.4185 27.5 18.1005 27.6317 17.8661 27.8661C17.6317 28.1005 17.5 28.4185 17.5 28.75Z" fill="white"/>
</svg>
