<svg width="40" height="40" viewBox="0 0 40 40" fill="none" xmlns="http://www.w3.org/2000/svg">
<g clip-path="url(#clip0_116_315)">
<path d="M20 17.5C20.3315 17.5 20.6495 17.6317 20.8839 17.8661C21.1183 18.1005 21.25 18.4185 21.25 18.75V22.5H25C25.3315 22.5 25.6495 22.6317 25.8839 22.8661C26.1183 23.1005 26.25 23.4185 26.25 23.75C26.25 24.0815 26.1183 24.3995 25.8839 24.6339C25.6495 24.8683 25.3315 25 25 25H21.25V28.75C21.25 29.0815 21.1183 29.3995 20.8839 29.6339C20.6495 29.8683 20.3315 30 20 30C19.6685 30 19.3505 29.8683 19.1161 29.6339C18.8817 29.3995 18.75 29.0815 18.75 28.75V25H15C14.6685 25 14.3505 24.8683 14.1161 24.6339C13.8817 24.3995 13.75 24.0815 13.75 23.75C13.75 23.4185 13.8817 23.1005 14.1161 22.8661C14.3505 22.6317 14.6685 22.5 15 22.5H18.75V18.75C18.75 18.4185 18.8817 18.1005 19.1161 17.8661C19.3505 17.6317 19.6685 17.5 20 17.5Z" fill="white"/>
<path d="M8.75 0C9.08152 0 9.39946 0.131696 9.63388 0.366117C9.8683 0.600537 10 0.918479 10 1.25V2.5H30V1.25C30 0.918479 30.1317 0.600537 30.3661 0.366117C30.6005 0.131696 30.9185 0 31.25 0C31.5815 0 31.8995 0.131696 32.1339 0.366117C32.3683 0.600537 32.5 0.918479 32.5 1.25V2.5H35C36.3261 2.5 37.5979 3.02678 38.5355 3.96447C39.4732 4.90215 40 6.17392 40 7.5V35C40 36.3261 39.4732 37.5979 38.5355 38.5355C37.5979 39.4732 36.3261 40 35 40H5C3.67392 40 2.40215 39.4732 1.46447 38.5355C0.526784 37.5979 0 36.3261 0 35V7.5C0 6.17392 0.526784 4.90215 1.46447 3.96447C2.40215 3.02678 3.67392 2.5 5 2.5H7.5V1.25C7.5 0.918479 7.6317 0.600537 7.86612 0.366117C8.10054 0.131696 8.41848 0 8.75 0ZM2.5 10V35C2.5 35.663 2.76339 36.2989 3.23223 36.7678C3.70107 37.2366 4.33696 37.5 5 37.5H35C35.663 37.5 36.2989 37.2366 36.7678 36.7678C37.2366 36.2989 37.5 35.663 37.5 35V10H2.5Z" fill="white"/>
</g>
<defs>
<clipPath id="clip0_116_315">
<rect width="40" height="40" fill="white"/>
</clipPath>
</defs>
</svg>
