<svg width="40" height="40" viewBox="0 0 40 40" fill="none" xmlns="http://www.w3.org/2000/svg">
<g clip-path="url(#clip0_116_300)">
<path d="M20 40C21.3261 40 22.5979 39.4732 23.5355 38.5355C24.4732 37.5979 25 36.3261 25 35H15C15 36.3261 15.5268 37.5979 16.4645 38.5355C17.4021 39.4732 18.6739 40 20 40ZM20 4.79501L18.0075 5.19751C15.747 5.65713 13.7149 6.88415 12.2555 8.67064C10.7961 10.4571 9.9993 12.6932 10 15C10 16.57 9.665 20.4925 8.8525 24.355C8.4525 26.2725 7.9125 28.27 7.195 30H32.805C32.0875 28.27 31.55 26.275 31.1475 24.355C30.335 20.4925 30 16.57 30 15C30.0001 12.6936 29.203 10.4581 27.7437 8.67217C26.2844 6.8862 24.2526 5.65955 21.9925 5.20001L20 4.79501ZM35.55 30C36.1075 31.1175 36.7525 32.0025 37.5 32.5H2.5C3.2475 32.0025 3.8925 31.1175 4.45 30C6.7 25.5 7.5 17.2 7.5 15C7.5 8.95001 11.8 3.90001 17.5125 2.74751C17.4776 2.39989 17.516 2.04882 17.6251 1.71694C17.7342 1.38506 17.9117 1.07973 18.1461 0.820651C18.3804 0.561571 18.6665 0.354492 18.9858 0.212767C19.3052 0.0710417 19.6506 -0.00218201 20 -0.00218201C20.3494 -0.00218201 20.6948 0.0710417 21.0142 0.212767C21.3335 0.354492 21.6196 0.561571 21.8539 0.820651C22.0883 1.07973 22.2658 1.38506 22.3749 1.71694C22.484 2.04882 22.5224 2.39989 22.4875 2.74751C25.3136 3.32138 27.8544 4.85479 29.6792 7.08784C31.504 9.32088 32.5006 12.1162 32.5 15C32.5 17.2 33.3 25.5 35.55 30Z" fill="white"/>
</g>
<defs>
<clipPath id="clip0_116_300">
<rect width="40" height="40" fill="white"/>
</clipPath>
</defs>
</svg>
