<svg width="106" height="167" viewBox="0 0 106 167" fill="none" xmlns="http://www.w3.org/2000/svg">
<path d="M105 166L9 70V13" stroke="white" stroke-linecap="round"/>
<path d="M18 9C18 13.9706 13.9706 18 9 18C4.02944 18 0 13.9706 0 9C0 4.02944 4.02944 0 9 0C13.9706 0 18 4.02944 18 9ZM0.900001 9C0.900001 13.4735 4.52649 17.1 9 17.1C13.4735 17.1 17.1 13.4735 17.1 9C17.1 4.52649 13.4735 0.900001 9 0.900001C4.52649 0.900001 0.900001 4.52649 0.900001 9Z" fill="white"/>
<path d="M18 9C18 13.9706 13.9706 18 9 18C4.02944 18 0 13.9706 0 9C0 4.02944 4.02944 0 9 0C13.9706 0 18 4.02944 18 9ZM0.900001 9C0.900001 13.4735 4.52649 17.1 9 17.1C13.4735 17.1 17.1 13.4735 17.1 9C17.1 4.52649 13.4735 0.900001 9 0.900001C4.52649 0.900001 0.900001 4.52649 0.900001 9Z" fill="white"/>
<circle cx="9" cy="9" r="4" fill="white"/>
<circle cx="9" cy="9" r="4" fill="white"/>
</svg>
