<svg width="31" height="96" viewBox="0 0 31 96" fill="none" xmlns="http://www.w3.org/2000/svg">
<path d="M30.5 1L9 22.5V87" stroke="white" stroke-linecap="round"/>
<path d="M0 87C0 82.0294 4.02944 78 9 78C13.9706 78 18 82.0294 18 87C18 91.9706 13.9706 96 9 96C4.02944 96 0 91.9706 0 87ZM17.1 87C17.1 82.5265 13.4735 78.9 9 78.9C4.52649 78.9 0.900002 82.5265 0.900002 87C0.900002 91.4735 4.52649 95.1 9 95.1C13.4735 95.1 17.1 91.4735 17.1 87Z" fill="white"/>
<path d="M0 87C0 82.0294 4.02944 78 9 78C13.9706 78 18 82.0294 18 87C18 91.9706 13.9706 96 9 96C4.02944 96 0 91.9706 0 87ZM17.1 87C17.1 82.5265 13.4735 78.9 9 78.9C4.52649 78.9 0.900002 82.5265 0.900002 87C0.900002 91.4735 4.52649 95.1 9 95.1C13.4735 95.1 17.1 91.4735 17.1 87Z" fill="white"/>
<circle cx="9" cy="87" r="4" transform="rotate(180 9 87)" fill="white"/>
<circle cx="9" cy="87" r="4" transform="rotate(180 9 87)" fill="white"/>
</svg>
