<svg viewBox="0 0 33 39" fill="none" xmlns="http://www.w3.org/2000/svg">
<path fill-rule="evenodd" clip-rule="evenodd" d="M14.9208 4.8575C18.2438 1.52055 22.7554 0.104429 27.0872 0.609274C23.7434 0.900812 20.4798 2.33134 17.9208 4.90099L3.28675 19.5959L17.9208 34.2907C20.3706 36.7508 23.4666 38.1669 26.6601 38.539C22.4606 38.9052 18.1348 37.4746 14.9208 34.2472L0.286621 19.5524L14.9208 4.8575ZM20.9165 6.15131C24.2184 2.83559 28.6938 1.41635 33.0002 1.89358C29.6276 2.16865 26.3311 3.60155 23.751 6.19243L10.5002 19.4982L23.751 32.8039C26.2219 35.2852 29.3502 36.7045 32.5729 37.0616C28.3993 37.4019 24.1092 35.969 20.9165 32.7628L7.66566 19.4571L20.9165 6.15131Z" fill="#6F584F"/>
</svg>
