<svg viewBox="0 0 17 17" fill="none" xmlns="http://www.w3.org/2000/svg">
<path d="M8.5 0C10.8095 0 11.0976 0.00849995 12.0037 0.051C12.9089 0.0935 13.5252 0.23545 14.0675 0.44625C14.6285 0.66215 15.1011 0.95455 15.5737 1.4263C16.0059 1.85121 16.3404 2.3652 16.5538 2.9325C16.7637 3.47395 16.9065 4.09105 16.949 4.9963C16.989 5.9024 17 6.19055 17 8.5C17 10.8095 16.9915 11.0976 16.949 12.0037C16.9065 12.9089 16.7637 13.5252 16.5538 14.0675C16.341 14.6351 16.0065 15.1492 15.5737 15.5737C15.1487 16.0058 14.6347 16.3402 14.0675 16.5538C13.526 16.7637 12.9089 16.9065 12.0037 16.949C11.0976 16.989 10.8095 17 8.5 17C6.19055 17 5.9024 16.9915 4.9963 16.949C4.09105 16.9065 3.4748 16.7637 2.9325 16.5538C2.36498 16.3408 1.8509 16.0063 1.4263 15.5737C0.993995 15.1489 0.659542 14.6348 0.44625 14.0675C0.23545 13.526 0.0935 12.9089 0.051 12.0037C0.01105 11.0976 0 10.8095 0 8.5C0 6.19055 0.00849995 5.9024 0.051 4.9963C0.0935 4.0902 0.23545 3.4748 0.44625 2.9325C0.658951 2.36485 0.993483 1.85072 1.4263 1.4263C1.85102 0.993846 2.36506 0.65937 2.9325 0.44625C3.4748 0.23545 4.0902 0.0935 4.9963 0.051C5.9024 0.01105 6.19055 0 8.5 0ZM8.5 4.25C7.37283 4.25 6.29183 4.69777 5.4948 5.4948C4.69777 6.29183 4.25 7.37283 4.25 8.5C4.25 9.62717 4.69777 10.7082 5.4948 11.5052C6.29183 12.3022 7.37283 12.75 8.5 12.75C9.62717 12.75 10.7082 12.3022 11.5052 11.5052C12.3022 10.7082 12.75 9.62717 12.75 8.5C12.75 7.37283 12.3022 6.29183 11.5052 5.4948C10.7082 4.69777 9.62717 4.25 8.5 4.25ZM14.025 4.0375C14.025 3.75571 13.9131 3.48546 13.7138 3.2862C13.5145 3.08694 13.2443 2.975 12.9625 2.975C12.6807 2.975 12.4105 3.08694 12.2112 3.2862C12.0119 3.48546 11.9 3.75571 11.9 4.0375C11.9 4.31929 12.0119 4.58954 12.2112 4.7888C12.4105 4.98806 12.6807 5.1 12.9625 5.1C13.2443 5.1 13.5145 4.98806 13.7138 4.7888C13.9131 4.58954 14.025 4.31929 14.025 4.0375ZM8.5 5.95C9.1763 5.95 9.82491 6.21866 10.3031 6.69688C10.7813 7.1751 11.05 7.8237 11.05 8.5C11.05 9.1763 10.7813 9.82491 10.3031 10.3031C9.82491 10.7813 9.1763 11.05 8.5 11.05C7.8237 11.05 7.1751 10.7813 6.69688 10.3031C6.21866 9.82491 5.95 9.1763 5.95 8.5C5.95 7.8237 6.21866 7.1751 6.69688 6.69688C7.1751 6.21866 7.8237 5.95 8.5 5.95Z" fill="currentColor"/>
</svg>
