<svg width="52" height="46" viewBox="0 0 52 46" fill="none" xmlns="http://www.w3.org/2000/svg">
<g opacity="0.4" clip-path="url(#clip0_189_6261)">
<path d="M0.34668 32.5867C0.34668 28.5422 2.02223 23.5155 5.37335 17.5067C8.72449 11.3822 13.2889 5.54666 19.0667 0C20.9155 0 22.1289 0.866666 22.7067 2.59999C16.6978 11.2667 13.6933 18.2 13.6933 23.4C17.5067 26.52 20.5689 30.6222 22.88 35.7067C18.6045 40.56 14.1555 43.8533 9.53335 45.5867C7.45335 43.8533 5.4889 41.7155 3.64001 39.1733C1.90668 36.5155 0.808902 34.32 0.34668 32.5867ZM29.12 32.5867C29.12 28.5422 30.7955 23.5155 34.1467 17.5067C37.4978 11.3822 42.0622 5.54666 47.84 0C49.8045 0 51.0755 0.866666 51.6533 2.59999C45.6445 11.0355 42.64 17.9689 42.64 23.4C46.4533 26.52 49.5155 30.6222 51.8267 35.7067C47.5511 40.56 43.1022 43.8533 38.48 45.5867C36.4 43.8533 34.4355 41.7155 32.5867 39.1733C30.8533 36.5155 29.6978 34.32 29.12 32.5867Z" fill="#6F584F"/>
</g>
<defs>
<clipPath id="clip0_189_6261">
<rect width="52" height="45.9333" fill="white"/>
</clipPath>
</defs>
</svg>
