<svg width="1920" height="643" viewBox="0 0 1920 643" fill="none" xmlns="http://www.w3.org/2000/svg">
<mask id="mask0_1660_4022" style="mask-type:alpha" maskUnits="userSpaceOnUse" x="0" y="0" width="1920" height="643">
<rect y="0.271118" width="1920" height="642" fill="#D9D9D9"/>
</mask>
<g mask="url(#mask0_1660_4022)">
<rect opacity="0.05" x="-171.437" y="320.458" width="2142.19" height="395.834" transform="rotate(-10.4262 -171.437 320.458)" fill="url(#paint0_linear_1660_4022)"/>
<path opacity="0.1" d="M-402.575 521.899L-405.614 567.513C197.436 -293.303 924.885 899.557 1551.77 544.078C921.452 863.876 199.46 -305.478 -402.575 521.899Z" fill="url(#paint1_linear_1660_4022)"/>
<rect opacity="0.1" x="821.952" y="337.576" width="1139.6" height="366.732" transform="rotate(-10.1091 821.952 337.576)" fill="url(#paint2_linear_1660_4022)"/>
<path opacity="0.1" d="M1916.53 304.506L1920 258.922C1285.93 1115.55 543.562 -90.6435 -111.675 258.362C546.326 -54.5273 1283.78 1127.56 1916.53 304.506Z" fill="url(#paint3_linear_1660_4022)"/>
</g>
<defs>
<linearGradient id="paint0_linear_1660_4022" x1="1751.35" y1="388.507" x2="-272.382" y2="756.802" gradientUnits="userSpaceOnUse">
<stop stop-color="#5A4499"/>
<stop offset="1" stop-color="#8996FF"/>
</linearGradient>
<linearGradient id="paint1_linear_1660_4022" x1="-474.105" y1="476.177" x2="1632.73" y2="478.941" gradientUnits="userSpaceOnUse">
<stop stop-color="#1F7AFF"/>
<stop offset="1" stop-color="#1F37FF" stop-opacity="0.15"/>
</linearGradient>
<linearGradient id="paint2_linear_1660_4022" x1="1722.63" y1="355.64" x2="793.292" y2="474.103" gradientUnits="userSpaceOnUse">
<stop stop-color="#4581F7" stop-opacity="0.61"/>
<stop offset="0.862691" stop-color="#4581F7" stop-opacity="0"/>
</linearGradient>
<linearGradient id="paint3_linear_1660_4022" x1="1990.46" y1="351.111" x2="-196.239" y2="333.159" gradientUnits="userSpaceOnUse">
<stop stop-color="#1F7AFF"/>
<stop offset="1" stop-color="#1F37FF" stop-opacity="0.15"/>
</linearGradient>
</defs>
</svg>
