<?xml version="1.0" encoding="utf-8"?><svg viewBox="0 0 782 782" xmlns="http://www.w3.org/2000/svg" xmlns:xlink="http://www.w3.org/1999/xlink"><style>:root>svg{display:none}:root>svg:target{display:block}</style><svg viewBox="0 0 512 512" id="arrow-left" xmlns="http://www.w3.org/2000/svg"><path fill="currentColor" d="M9.4 233.4c-12.5 12.5-12.5 32.8 0 45.3l128 128c12.5 12.5 32.8 12.5 45.3 0s12.5-32.8 0-45.3L109.3 288H480c17.7 0 32-14.3 32-32s-14.3-32-32-32H109.3l73.4-73.4c12.5-12.5 12.5-32.8 0-45.3s-32.8-12.5-45.3 0l-128 128z"/></svg><svg viewBox="0 0 512 512" id="email" xmlns="http://www.w3.org/2000/svg"><path fill="currentColor" d="M48 64C21.5 64 0 85.5 0 112c0 15.1 7.1 29.3 19.2 38.4l217.6 163.2c11.4 8.5 27 8.5 38.4 0l217.6-163.2c12.1-9.1 19.2-23.3 19.2-38.4 0-26.5-21.5-48-48-48H48zM0 176v208c0 35.3 28.7 64 64 64h384c35.3 0 64-28.7 64-64V176L294.4 339.2a63.9 63.9 0 01-76.8 0L0 176z"/></svg><svg fill="none" viewBox="0 0 782 782" id="email-circle" xmlns="http://www.w3.org/2000/svg"><circle cx="391" cy="391" r="381" stroke="currentColor" stroke-width="20"/><path fill="currentColor" d="M206.5 221c-23.464 0-42.5 19.036-42.5 42.5 0 13.37 6.286 25.943 17 34L373.667 442a28.422 28.422 0 0034 0l192.666-144.5c10.714-8.057 17-20.63 17-34 0-23.464-19.036-42.5-42.5-42.5H206.5zM164 320.167v184.166C164 535.589 189.411 561 220.667 561h340c31.255 0 56.666-25.411 56.666-56.667V320.167l-192.666 144.5a56.58 56.58 0 01-68 0L164 320.167z"/></svg><svg viewBox="0 0 512 512" id="globe" xmlns="http://www.w3.org/2000/svg"><path fill="currentColor" d="M352 256c0 22.2-1.2 43.6-3.3 64H163.3c-2.2-20.4-3.3-41.8-3.3-64s1.2-43.6 3.3-64h185.4c2.2 20.4 3.3 41.8 3.3 64zm28.8-64h123.1c5.3 20.5 8.1 41.9 8.1 64s-2.8 43.5-8.1 64H380.8c2.1-20.6 3.2-42 3.2-64s-1.1-43.4-3.2-64zm112.6-32H376.7c-10-63.9-29.8-117.4-55.3-151.6 78.3 20.7 142 77.5 171.9 151.6zm-149.1 0H167.7c6.1-36.4 15.5-68.6 27-94.7 10.5-23.6 22.2-40.7 33.5-51.5C239.4 3.2 248.7 0 256 0s16.6 3.2 27.8 13.8c11.3 10.8 23 27.9 33.5 51.5 11.6 26 21 58.2 27 94.7zm-209 0H18.6c30-74.1 93.6-130.9 172-151.6-25.5 34.2-45.3 87.7-55.3 151.6zM8.1 192h123.1c-2.1 20.6-3.2 42-3.2 64s1.1 43.4 3.2 64H8.1C2.8 299.5 0 278.1 0 256s2.8-43.5 8.1-64zm186.6 254.6c-11.6-26-20.9-58.2-27-94.6h176.6c-6.1 36.4-15.5 68.6-27 94.6-10.5 23.6-22.2 40.7-33.5 51.5-11.2 10.7-20.5 13.9-27.8 13.9s-16.6-3.2-27.8-13.8c-11.3-10.8-23-27.9-33.5-51.5zM135.3 352c10 63.9 29.8 117.4 55.3 151.6-78.4-20.7-142-77.5-172-151.6h116.7zm358.1 0c-30 74.1-93.6 130.9-171.9 151.6 25.5-34.2 45.2-87.7 55.3-151.6h116.6z"/></svg><svg style="margin:auto;background:0 0" viewBox="0 0 100 100" preserveAspectRatio="xMidYMid" display="block" id="loading" xmlns="http://www.w3.org/2000/svg"><rect x="47" y="24" rx="3" ry="6" width="6" height="12" fill="#131313"><animate attributeName="opacity" values="1;0" keyTimes="0;1" dur="1s" begin="-0.9166666666666666s" repeatCount="indefinite"/></rect><rect x="47" y="24" rx="3" ry="6" width="6" height="12" fill="#131313" transform="rotate(30 50 50)"><animate attributeName="opacity" values="1;0" keyTimes="0;1" dur="1s" begin="-0.8333333333333334s" repeatCount="indefinite"/></rect><rect x="47" y="24" rx="3" ry="6" width="6" height="12" fill="#131313" transform="rotate(60 50 50)"><animate attributeName="opacity" values="1;0" keyTimes="0;1" dur="1s" begin="-0.75s" repeatCount="indefinite"/></rect><rect x="47" y="24" rx="3" ry="6" width="6" height="12" fill="#131313" transform="rotate(90 50 50)"><animate attributeName="opacity" values="1;0" keyTimes="0;1" dur="1s" begin="-0.6666666666666666s" repeatCount="indefinite"/></rect><rect x="47" y="24" rx="3" ry="6" width="6" height="12" fill="#131313" transform="rotate(120 50 50)"><animate attributeName="opacity" values="1;0" keyTimes="0;1" dur="1s" begin="-0.5833333333333334s" repeatCount="indefinite"/></rect><rect x="47" y="24" rx="3" ry="6" width="6" height="12" fill="#131313" transform="rotate(150 50 50)"><animate attributeName="opacity" values="1;0" keyTimes="0;1" dur="1s" begin="-0.5s" repeatCount="indefinite"/></rect><rect x="47" y="24" rx="3" ry="6" width="6" height="12" fill="#131313" transform="rotate(180 50 50)"><animate attributeName="opacity" values="1;0" keyTimes="0;1" dur="1s" begin="-0.4166666666666667s" repeatCount="indefinite"/></rect><rect x="47" y="24" rx="3" ry="6" width="6" height="12" fill="#131313" transform="rotate(210 50 50)"><animate attributeName="opacity" values="1;0" keyTimes="0;1" dur="1s" begin="-0.3333333333333333s" repeatCount="indefinite"/></rect><rect x="47" y="24" rx="3" ry="6" width="6" height="12" fill="#131313" transform="rotate(240 50 50)"><animate attributeName="opacity" values="1;0" keyTimes="0;1" dur="1s" begin="-0.25s" repeatCount="indefinite"/></rect><rect x="47" y="24" rx="3" ry="6" width="6" height="12" fill="#131313" transform="rotate(270 50 50)"><animate attributeName="opacity" values="1;0" keyTimes="0;1" dur="1s" begin="-0.16666666666666666s" repeatCount="indefinite"/></rect><rect x="47" y="24" rx="3" ry="6" width="6" height="12" fill="#131313" transform="rotate(300 50 50)"><animate attributeName="opacity" values="1;0" keyTimes="0;1" dur="1s" begin="-0.08333333333333333s" repeatCount="indefinite"/></rect><rect x="47" y="24" rx="3" ry="6" width="6" height="12" fill="#131313" transform="rotate(330 50 50)"><animate attributeName="opacity" values="1;0" keyTimes="0;1" dur="1s" begin="0s" repeatCount="indefinite"/></rect></svg><svg viewBox="0 0 384 512" id="moon" xmlns="http://www.w3.org/2000/svg"><path fill="currentColor" d="M223.5 32C100 32 0 132.3 0 256s100 224 223.5 224c60.6 0 115.5-24.2 155.8-63.4 5-4.9 6.3-12.5 3.1-18.7s-10.1-9.7-17-8.5c-9.8 1.7-19.8 2.6-30.1 2.6-96.9 0-175.5-78.8-175.5-176 0-65.8 36-123.1 89.3-153.3 6.1-3.5 9.2-10.5 7.7-17.3s-7.3-11.9-14.3-12.5c-6.3-.5-12.6-.8-19-.8z"/></svg><svg viewBox="0 0 512 512" id="sun" xmlns="http://www.w3.org/2000/svg"><path fill="currentColor" d="M361.5 1.2c5 2.1 8.6 6.6 9.6 11.9L391 121l107.9 19.8c5.3 1 9.8 4.6 11.9 9.6s1.5 10.7-1.6 15.2L446.9 256l62.3 90.3c3.1 4.5 3.7 10.2 1.6 15.2s-6.6 8.6-11.9 9.6L391 391l-19.9 107.9c-1 5.3-4.6 9.8-9.6 11.9s-10.7 1.5-15.2-1.6L256 446.9l-90.3 62.3c-4.5 3.1-10.2 3.7-15.2 1.6s-8.6-6.6-9.6-11.9L121 391 13.1 371.1c-5.3-1-9.8-4.6-11.9-9.6s-1.5-10.7 1.6-15.2L65.1 256 2.8 165.7c-3.1-4.5-3.7-10.2-1.6-15.2s6.6-8.6 11.9-9.6L121 121l19.9-107.9c1-5.3 4.6-9.8 9.6-11.9s10.7-1.5 15.2 1.6L256 65.1l90.3-62.3c4.5-3.1 10.2-3.7 15.2-1.6zM160 256a96 96 0 11192 0 96 96 0 11-192 0zm224 0a128 128 0 10-256 0 128 128 0 10256 0z"/></svg><svg viewBox="0 0 448 512" id="telegram" xmlns="http://www.w3.org/2000/svg"><path fill="currentColor" d="M446.7 98.6l-67.6 318.8c-5.1 22.5-18.4 28.1-37.3 17.5l-103-75.9-49.7 47.8c-5.5 5.5-10.1 10.1-20.7 10.1l7.4-104.9 190.9-172.5c8.3-7.4-1.8-11.5-12.9-4.1L117.8 284 16.2 252.2c-22.1-6.9-22.5-22.1 4.6-32.7L418.2 66.4c18.4-6.9 34.5 4.1 28.5 32.2z"/></svg><svg fill="none" viewBox="0 0 782 782" id="telegram-circle" xmlns="http://www.w3.org/2000/svg"><circle cx="391" cy="391" r="381" stroke="currentColor" stroke-width="20"/><path fill="currentColor" d="M579.152 247.863l-62.979 297.009c-4.752 20.963-17.143 26.18-34.751 16.304l-95.96-70.712-46.302 44.533c-5.125 5.124-9.41 9.41-19.286 9.41l6.895-97.73 177.851-160.71c7.733-6.894-1.677-10.714-12.018-3.819L272.733 420.591l-94.656-29.627c-20.589-6.428-20.962-20.589 4.286-30.465L552.6 217.864c17.143-6.429 32.142 3.82 26.552 29.999z"/></svg></svg>