<svg viewBox="0 0 16 16" fill="none" xmlns="http://www.w3.org/2000/svg">
<path d="M8 10.25C8.625 10.25 9.15625 10.0313 9.59375 9.59375C10.0313 9.15625 10.25 8.625 10.25 8C10.25 7.375 10.0313 6.84375 9.59375 6.40625C9.15625 5.96875 8.625 5.75 8 5.75C7.375 5.75 6.84375 5.96875 6.40625 6.40625C5.96875 6.84375 5.75 7.375 5.75 8C5.75 8.625 5.96875 9.15625 6.40625 9.59375C6.84375 10.0313 7.375 10.25 8 10.25ZM8 15.5C6.9625 15.5 5.9875 15.3031 5.075 14.9094C4.1625 14.5156 3.36875 13.9813 2.69375 13.3063C2.01875 12.6313 1.48438 11.8375 1.09063 10.925C0.696875 10.0125 0.5 9.0375 0.5 8C0.5 6.9625 0.696875 5.9875 1.09063 5.075C1.48438 4.1625 2.01875 3.36875 2.69375 2.69375C3.36875 2.01875 4.1625 1.48438 5.075 1.09063C5.9875 0.696875 6.9625 0.5 8 0.5C9.0375 0.5 10.0125 0.696875 10.925 1.09063C11.8375 1.48438 12.6313 2.01875 13.3063 2.69375C13.9813 3.36875 14.5156 4.1625 14.9094 5.075C15.3031 5.9875 15.5 6.9625 15.5 8C15.5 9.0375 15.3031 10.0125 14.9094 10.925C14.5156 11.8375 13.9813 12.6313 13.3063 13.3063C12.6313 13.9813 11.8375 14.5156 10.925 14.9094C10.0125 15.3031 9.0375 15.5 8 15.5ZM8 14C9.675 14 11.0938 13.4188 12.2563 12.2563C13.4188 11.0938 14 9.675 14 8C14 6.325 13.4188 4.90625 12.2563 3.74375C11.0938 2.58125 9.675 2 8 2C6.325 2 4.90625 2.58125 3.74375 3.74375C2.58125 4.90625 2 6.325 2 8C2 9.675 2.58125 11.0938 3.74375 12.2563C4.90625 13.4188 6.325 14 8 14Z" fill="#64BDA5"/>
</svg>
