<svg viewBox="0 0 24 27" fill="none" xmlns="http://www.w3.org/2000/svg">
<path d="M23.6029 6.36487V10.897C22.8109 10.8196 21.7817 10.6397 20.6432 10.2226C19.1566 9.67777 18.05 8.93278 17.3252 8.35596V17.516L17.3067 17.4874C17.3185 17.6691 17.3252 17.8541 17.3252 18.0407C17.3252 22.5897 13.6239 26.2927 9.07326 26.2927C4.52265 26.2927 0.821289 22.5897 0.821289 18.0407C0.821289 13.4918 4.52265 9.78707 9.07326 9.78707C9.5189 9.78707 9.95614 9.82238 10.3833 9.89133V14.3579C9.97296 14.2116 9.53236 14.1325 9.07326 14.1325C6.91904 14.1325 5.16505 15.8848 5.16505 18.0407C5.16505 20.1966 6.91904 21.9489 9.07326 21.9489C11.2275 21.9489 12.9815 20.1949 12.9815 18.0407C12.9815 17.96 12.9798 17.8793 12.9747 17.7986V-0.00195312H17.5035C17.5203 0.381468 17.5354 0.768261 17.5523 1.15168C17.5825 1.90675 17.8516 2.63155 18.3208 3.22518C18.8707 3.92307 19.6829 4.73364 20.8231 5.38108C21.891 5.98481 22.8933 6.24546 23.6029 6.36823V6.36487Z" fill="currentColor"/>
</svg>
