<svg xmlns="http://www.w3.org/2000/svg" xmlns:xlink="http://www.w3.org/1999/xlink" viewBox="0, 0, 400,400">
<path d="M87.779 26.228 C -8.513 42.403,-32.421 171.167,51.383 222.255 C 54.337 224.056,56.412 225.891,56.613 226.878 C 56.795 227.779,59.274 252.709,62.122 282.278 C 68.500 348.502,68.672 349.222,81.044 361.504 C 92.354 372.731,99.986 375.000,126.437 375.000 C 151.688 375.000,158.059 373.149,167.829 362.975 C 180.548 349.729,180.705 347.717,174.217 281.411 C 171.640 255.074,169.531 233.092,169.531 232.563 C 169.531 231.902,174.613 230.910,185.742 229.399 C 224.538 224.130,288.864 212.610,294.011 210.009 C 300.375 206.793,300.052 211.256,299.817 129.800 C 299.585 49.617,300.052 56.348,294.436 52.155 C 291.197 49.736,235.879 39.669,190.625 33.262 C 136.572 25.610,104.510 23.417,87.779 26.228 M130.068 50.444 C 162.448 53.430,210.117 60.202,251.092 67.637 C 263.938 69.968,274.749 71.875,275.115 71.875 C 275.481 71.875,275.781 98.379,275.781 130.773 L 275.781 189.671 262.695 192.182 C 198.140 204.567,116.604 214.651,98.047 212.544 C 42.709 206.262,9.224 149.982,30.465 98.958 C 40.906 73.877,66.004 54.364,93.750 49.756 C 98.555 48.958,117.931 49.325,130.068 50.444 M369.922 65.976 C 367.344 66.583,362.092 68.159,358.252 69.477 C 350.044 72.296,348.240 72.402,344.141 70.313 C 330.830 63.526,319.291 80.485,330.620 90.183 C 339.054 97.402,349.656 98.071,366.616 92.454 L 377.606 88.814 380.829 90.524 C 391.067 95.955,400.420 90.718,399.811 79.896 C 399.217 69.332,384.596 62.522,369.922 65.976 M94.141 76.107 C 50.579 86.183,34.961 139.122,66.341 170.339 C 102.015 205.829,161.441 181.122,161.297 130.859 C 161.194 94.842,128.474 68.166,94.141 76.107 M115.006 100.767 C 142.382 109.223,145.387 146.475,119.716 159.162 C 99.562 169.123,75.678 155.238,74.379 132.806 C 73.111 110.898,94.132 94.320,115.006 100.767 M359.815 119.214 L 348.927 122.739 344.483 120.744 C 335.505 116.715,327.464 120.408,326.151 129.163 C 323.975 143.672,343.572 150.660,365.285 143.118 C 375.888 139.435,378.539 139.166,382.208 141.403 C 395.527 149.524,407.223 129.313,394.335 120.446 C 385.432 114.321,375.975 113.984,359.815 119.214 M368.359 166.695 C 366.211 167.258,361.349 168.830,357.555 170.188 C 349.400 173.106,348.292 173.177,344.776 171.004 C 336.995 166.195,325.781 172.244,325.781 181.250 C 325.781 194.826,344.889 200.392,366.168 193.015 C 376.631 189.387,377.830 189.264,381.827 191.406 C 390.632 196.125,400.000 190.688,400.000 180.858 C 400.000 169.929,383.751 162.656,368.359 166.695 M89.691 236.016 C 96.812 237.208,118.108 237.019,132.807 235.634 C 139.464 235.007,144.992 234.575,145.091 234.675 C 145.496 235.079,154.687 331.166,154.687 334.992 C 154.689 347.666,148.928 350.781,125.484 350.781 L 108.730 350.781 103.803 348.231 C 92.306 342.279,92.397 342.615,86.712 284.902 C 81.397 230.941,81.611 234.047,83.246 234.674 C 83.914 234.930,86.814 235.534,89.691 236.016 " stroke="none" fill="white" fill-rule="evenodd"></path>
</svg>