<svg width="44" height="44" viewBox="0 0 44 44" fill="none" xmlns="http://www.w3.org/2000/svg">
<g clip-path="url(#clip0_131_2006)">
<path d="M18.3333 27.5H18.3516" stroke="white" stroke-width="2.75" stroke-linecap="round" stroke-linejoin="round"/>
<path d="M16.5 11H30.1748C31.4768 11.0001 32.7364 11.462 33.7298 12.3036C34.7231 13.1452 35.3857 14.3119 35.5997 15.5962L36.6575 21.9468L38.1425 30.866C38.1861 31.1284 38.1721 31.3971 38.1015 31.6535C38.0309 31.9099 37.9053 32.1479 37.7335 32.351C37.5617 32.554 37.3477 32.7172 37.1065 32.8293C36.8653 32.9414 36.6026 32.9996 36.3367 33H5.5C5.5 29.5964 6.85208 26.3322 9.2588 23.9255C11.6655 21.5187 14.9297 20.1667 18.3333 20.1667H36.3" stroke="white" stroke-width="2.75" stroke-linecap="round" stroke-linejoin="round"/>
<path d="M25.6667 27.5H25.685" stroke="white" stroke-width="2.75" stroke-linecap="round" stroke-linejoin="round"/>
</g>
<defs>
<clipPath id="clip0_131_2006">
<rect width="44" height="44" fill="white"/>
</clipPath>
</defs>
</svg>
