<svg version="1.0" xmlns="http://www.w3.org/2000/svg" viewBox="0 0 512.000000 512.000000">

<g transform="translate(0.000000,512.000000) scale(0.100000,-0.100000)"
fill="white" stroke="none">
<path d="M3773 5104 c-68 -34 -230 -266 -338 -487 -126 -255 -194 -503 -217
-794 l-12 -153 -648 0 -648 0 0 100 c0 123 -18 169 -80 200 -38 19 -58 20
-550 20 -492 0 -512 -1 -550 -20 -62 -31 -80 -77 -80 -200 l0 -100 -118 0
c-187 0 -287 -36 -393 -140 -254 -252 -136 -691 210 -782 43 -11 106 -17 184
-17 l117 -1 0 -420 c0 -402 1 -423 20 -460 13 -26 34 -47 60 -60 38 -19 58
-20 550 -20 492 0 512 1 550 20 42 21 70 63 79 118 l6 33 96 -66 97 -65 -10
-43 c-6 -23 -7 -81 -4 -129 l6 -87 -946 -648 c-805 -551 -949 -654 -965 -685
-38 -74 -15 -152 56 -193 50 -30 93 -32 143 -6 20 11 453 305 962 654 l924
634 44 -28 c77 -49 137 -64 247 -63 107 0 174 19 245 68 l35 24 135 -93 c74
-50 493 -337 930 -637 437 -300 810 -552 827 -561 93 -48 213 27 213 133 0 82
27 61 -984 754 l-946 648 6 86 c3 48 2 106 -4 129 l-10 42 677 460 676 460
161 1 c89 0 185 5 215 10 189 36 342 196 372 389 22 147 -27 297 -132 401
-105 104 -206 140 -391 140 l-116 0 -12 153 c-35 440 -200 861 -466 1194 -80
100 -145 125 -223 87z m116 -454 c110 -179 200 -404 240 -606 22 -107 41 -259
41 -331 l0 -43 -330 0 -330 0 0 45 c0 198 68 495 162 710 39 89 156 295 167
295 4 0 26 -32 50 -70z m-2279 -1770 l0 -810 -330 0 -330 0 0 810 0 810 330 0
330 0 0 -810z m-960 320 l0 -170 -105 0 c-122 0 -156 11 -202 63 -72 82 -47
208 52 257 32 16 60 20 148 20 l107 0 0 -170z m4063 156 c72 -30 117 -114 103
-191 -8 -43 -59 -103 -103 -121 -27 -12 -277 -14 -1418 -14 l-1385 0 0 170 0
170 1385 0 c1141 0 1391 -2 1418 -14z m-933 -663 c-30 -20 -253 -171 -495
-336 l-440 -299 -56 31 c-146 80 -315 80 -458 0 l-54 -31 -183 124 -183 123
-1 213 0 212 962 0 963 0 -55 -37z m-1157 -857 c44 -18 95 -78 103 -121 11
-60 -4 -106 -50 -151 -72 -72 -160 -72 -232 0 -67 67 -72 154 -11 223 53 60
122 78 190 49z"/>
</g>
</svg>
