<svg width="44" height="44" viewBox="0 0 44 44" fill="none" xmlns="http://www.w3.org/2000/svg">
<g clip-path="url(#clip0_131_1980)">
<path d="M7.33334 20.1667C8.3058 20.1667 9.23843 20.553 9.92606 21.2406C10.6137 21.9283 11 22.8609 11 23.8334V25.6667H33V23.8334C33 22.8609 33.3863 21.9283 34.0739 21.2406C34.7616 20.553 35.6942 20.1667 36.6667 20.1667C37.6391 20.1667 38.5718 20.553 39.2594 21.2406C39.947 21.9283 40.3333 22.8609 40.3333 23.8334V33C40.3333 33.4863 40.1402 33.9526 39.7964 34.2964C39.4526 34.6402 38.9862 34.8334 38.5 34.8334H5.50001C5.01377 34.8334 4.54746 34.6402 4.20364 34.2964C3.85983 33.9526 3.66667 33.4863 3.66667 33V23.8334C3.66667 22.8609 4.05298 21.9283 4.74061 21.2406C5.42825 20.553 6.36088 20.1667 7.33334 20.1667Z" stroke="white" stroke-width="2.75" stroke-linecap="round" stroke-linejoin="round"/>
<path d="M7.33334 20.1667V14.6667C7.33334 13.208 7.91281 11.8091 8.94426 10.7776C9.97571 9.74615 11.3747 9.16669 12.8333 9.16669H31.1667C32.6254 9.16669 34.0243 9.74615 35.0558 10.7776C36.0872 11.8091 36.6667 13.208 36.6667 14.6667V20.1667" stroke="white" stroke-width="2.75" stroke-linecap="round" stroke-linejoin="round"/>
<path d="M22 9.16669V25.6667" stroke="white" stroke-width="2.75" stroke-linecap="round" stroke-linejoin="round"/>
</g>
<defs>
<clipPath id="clip0_131_1980">
<rect width="44" height="44" fill="white"/>
</clipPath>
</defs>
</svg>
