<svg width="44" height="44" viewBox="0 0 44 44" fill="none" xmlns="http://www.w3.org/2000/svg">
<g clip-path="url(#clip0_131_1994)">
<path d="M5.5 16.5C5.5 15.5275 5.88631 14.5949 6.57394 13.9073C7.26158 13.2196 8.19421 12.8333 9.16667 12.8333H34.8333C35.8058 12.8333 36.7384 13.2196 37.4261 13.9073C38.1137 14.5949 38.5 15.5275 38.5 16.5V33C38.5 33.9724 38.1137 34.9051 37.4261 35.5927C36.7384 36.2803 35.8058 36.6666 34.8333 36.6666H9.16667C8.19421 36.6666 7.26158 36.2803 6.57394 35.5927C5.88631 34.9051 5.5 33.9724 5.5 33V16.5Z" stroke="white" stroke-width="2.75" stroke-linecap="round" stroke-linejoin="round"/>
<path d="M29.3333 5.5L22 12.8333L14.6667 5.5" stroke="white" stroke-width="2.75" stroke-linecap="round" stroke-linejoin="round"/>
</g>
<defs>
<clipPath id="clip0_131_1994">
<rect width="44" height="44" fill="white"/>
</clipPath>
</defs>
</svg>
