<svg xmlns="http://www.w3.org/2000/svg" height="24" viewBox="0 -960 960 960" width="24"><path fill="white" d="M480-143.077q-25.846 0-43.692-17.846-17.847-17.846-17.847-43.692 0-25.847 17.847-43.693 17.846-17.846 43.692-17.846t43.693 17.846q17.846 17.846 17.846 43.693 0 25.846-17.846 43.692-17.847 17.846-43.693 17.846Zm0-355.385q70.385 0 132.5 24 62.115 24 111.731 66.769 10 8.077 10.5 20.27.5 12.192-8.269 20.961-8.539 8.539-20.847 8.27-12.307-.27-22.307-8.116-41.077-34.461-93.231-54.077Q537.923-440 480-440q-57.923 0-110.077 19.615-52.154 19.616-93.231 54.077-10 7.846-22.307 8-12.308.154-20.847-8.384-8.538-8.77-8.154-20.962.385-12.192 10.385-20.269 49.616-42.77 111.731-66.654 62.115-23.885 132.5-23.885Zm0-240q121.923 0 227.039 42.154Q812.154-654.154 894-579.154q10 8.538 10.616 21.231.615 12.692-8.154 21.461-9.308 9.308-22 7.885Q861.769-530 851-539.077q-74.308-66.692-169.192-103.808Q586.923-680 480-680q-106.923 0-201.808 37.115Q183.308-605.769 109-539.077q-10.77 9.077-23.462 10.5t-22-7.885q-8.769-8.769-8.154-21.461Q56-570.616 66-579.154q81.846-75 186.961-117.154Q358.077-738.462 480-738.462Z"/></svg>