<svg width="91" height="91" fill="none" xmlns="http://www.w3.org/2000/svg"><path d="M8.057 50.302L1 57.575a3.548 3.548 0 005.093 4.94l7.056-7.272a3.548 3.548 0 00-5.093-4.94zm16.423 2.293a3.548 3.548 0 00-3.548 3.548v31.22a3.548 3.548 0 007.096 0l-.001-31.22a3.548 3.548 0 00-3.548-3.548zm13.836-7.805a3.548 3.548 0 00-3.548 3.548v39.025a3.548 3.548 0 007.095 0V48.338a3.548 3.548 0 00-3.547-3.548zM80.357.088H69.713a3.548 3.548 0 100 7.096h9.351l-26.05 26.045c-.7.699-1.614 1.097-2.519 1.097h-.057c-.871-.017-1.761-.417-2.442-1.097l-4.17-4.171c-2.043-2.042-4.754-3.226-7.438-3.248h-.078c-2.78 0-5.555 1.215-7.629 3.341l-7.603 7.637a3.548 3.548 0 105.029 5.006l7.616-7.65.031-.032c.741-.763 1.707-1.216 2.575-1.207.827.007 1.754.444 2.48 1.17l4.17 4.17c1.996 1.996 4.598 3.123 7.327 3.174 2.839.053 5.656-1.103 7.725-3.173l25.873-25.868v8.82a3.548 3.548 0 007.096 0V10.732C91 4.863 86.225.088 80.357.088zM10.478 68.56a3.548 3.548 0 00-3.56 3.548v15.255a3.548 3.548 0 107.096 0V72.108a3.548 3.548 0 00-3.536-3.548zM80.18 30.422a3.548 3.548 0 00-3.548 3.548v53.394a3.548 3.548 0 007.096 0V33.97a3.548 3.548 0 00-3.549-3.548zM52.152 49.225a3.548 3.548 0 00-3.548 3.548v34.59a3.548 3.548 0 007.096 0v-34.59a3.548 3.548 0 00-3.548-3.548zm14.001-6.741a3.548 3.548 0 00-3.535 3.548v41.332a3.548 3.548 0 007.096 0V46.032a3.548 3.548 0 00-3.561-3.548z" fill="#FB7F01"/></svg>