<svg width="808" height="290" viewBox="0 0 808 290" fill="none" xmlns="http://www.w3.org/2000/svg">
<g filter="url(#filter0_bi_125_4)">
<path d="M0.376563 226.2V182.6L132.377 4.99998H200.377L71.1766 182.6L39.5766 173.4H259.977V226.2H0.376563ZM151.177 285V226.2L153.177 173.4V121H214.377V285H151.177ZM399.358 289.8C376.424 289.8 355.891 284.2 337.758 273C319.624 261.533 305.358 245 294.958 223.4C284.558 201.8 279.358 175.667 279.358 145C279.358 114.333 284.558 88.2 294.958 66.6C305.358 45 319.624 28.6 337.758 17.4C355.891 5.93333 376.424 0.199995 399.358 0.199995C422.558 0.199995 443.091 5.93333 460.958 17.4C479.091 28.6 493.358 45 503.758 66.6C514.158 88.2 519.358 114.333 519.358 145C519.358 175.667 514.158 201.8 503.758 223.4C493.358 245 479.091 261.533 460.958 273C443.091 284.2 422.558 289.8 399.358 289.8ZM399.358 235C410.291 235 419.758 231.933 427.758 225.8C436.024 219.667 442.424 209.933 446.958 196.6C451.758 183.267 454.158 166.067 454.158 145C454.158 123.933 451.758 106.733 446.958 93.4C442.424 80.0667 436.024 70.3333 427.758 64.2C419.758 58.0666 410.291 55 399.358 55C388.691 55 379.224 58.0666 370.958 64.2C362.958 70.3333 356.558 80.0667 351.758 93.4C347.224 106.733 344.958 123.933 344.958 145C344.958 166.067 347.224 183.267 351.758 196.6C356.558 209.933 362.958 219.667 370.958 225.8C379.224 231.933 388.691 235 399.358 235ZM547.642 226.2V182.6L679.642 4.99998H747.642L618.442 182.6L586.842 173.4H807.242V226.2H547.642ZM698.442 285V226.2L700.442 173.4V121H761.642V285H698.442Z" fill="white" fill-opacity="0.2"/>
</g>
<defs>
<filter id="filter0_bi_125_4" x="-21.623" y="-21.8" width="850.865" height="333.6" filterUnits="userSpaceOnUse" color-interpolation-filters="sRGB">
<feFlood flood-opacity="0" result="BackgroundImageFix"/>
<feGaussianBlur in="BackgroundImageFix" stdDeviation="11"/>
<feComposite in2="SourceAlpha" operator="in" result="effect1_backgroundBlur_125_4"/>
<feBlend mode="normal" in="SourceGraphic" in2="effect1_backgroundBlur_125_4" result="shape"/>
<feColorMatrix in="SourceAlpha" type="matrix" values="0 0 0 0 0 0 0 0 0 0 0 0 0 0 0 0 0 0 127 0" result="hardAlpha"/>
<feOffset dx="15" dy="15"/>
<feGaussianBlur stdDeviation="7.5"/>
<feComposite in2="hardAlpha" operator="arithmetic" k2="-1" k3="1"/>
<feColorMatrix type="matrix" values="0 0 0 0 0 0 0 0 0 0 0 0 0 0 0 0 0 0 0.25 0"/>
<feBlend mode="normal" in2="shape" result="effect2_innerShadow_125_4"/>
</filter>
</defs>
</svg>
