<svg width="113" height="110" viewBox="0 0 113 110" fill="none" xmlns="http://www.w3.org/2000/svg">
<path d="M101.142 74.7179C100.849 75.5927 100.6 76.4285 100.291 77.2414C99.8295 78.4537 99.3523 79.6625 98.831 80.85C98.3927 81.8502 97.9121 82.8363 97.3961 83.7994C96.3517 85.7451 95.1889 87.6201 93.8582 89.3872C93.639 89.6788 93.4482 89.9934 93.2096 90.2655C93.0682 90.4263 93.0718 90.5288 93.1495 90.7197C94.1674 93.2414 95.173 95.7703 96.1802 98.2973C96.364 98.7568 96.5443 99.218 96.7422 99.7181H96.334C93.0258 99.7181 89.7177 99.7022 86.4095 99.734C85.8882 99.7393 85.5913 99.545 85.3333 99.1579C85.2132 98.9777 85.07 98.8133 84.9746 98.6914C83.6863 99.5927 82.4281 100.503 81.1398 101.365C79.2401 102.639 77.2185 103.701 75.1526 104.675C73.2618 105.566 71.3196 106.342 69.3121 106.919C67.5184 107.435 65.7036 107.882 63.8816 108.287C62.8478 108.517 61.784 108.623 60.729 108.745C59.7411 108.86 58.7497 108.962 57.7566 108.996C56.129 109.051 54.4979 109.082 52.8703 109.056C51.8348 109.038 50.7974 108.937 49.7707 108.805C48.0071 108.577 46.254 108.292 44.5187 107.886C42.7267 107.465 40.9578 106.978 39.2366 106.334C37.9041 105.838 36.5823 105.309 35.2799 104.739C32.774 103.639 30.406 102.289 28.1529 100.736C27.7411 100.453 27.3453 100.148 26.9264 99.8772C26.7868 99.7871 26.6013 99.7252 26.4369 99.7234C23.4257 99.7146 20.4144 99.7164 17.4031 99.7164C17.2865 99.7164 17.1716 99.7164 17.0108 99.7164C17.214 99.1915 17.4031 98.6896 17.6028 98.1913C18.2496 96.5726 18.9035 94.9538 19.5467 93.3333C19.5732 93.268 19.5573 93.1513 19.5131 93.1001C17.8361 91.1668 16.2827 89.1398 14.9238 86.9715C14.3389 86.0384 13.7893 85.0806 13.252 84.1175C12.8262 83.3523 12.4056 82.5783 12.0504 81.7795C11.3347 80.1696 10.6631 78.5385 9.98807 76.9534C6.71526 79.2348 3.38944 81.5551 0.0618508 83.8754C0.0406447 83.8577 0.0194389 83.8418 0 83.8242C0.164347 83.4584 0.321626 83.0908 0.493042 82.7285C1.15927 81.3254 1.83079 79.9258 2.49878 78.5226C3.21802 77.0082 3.9355 75.4919 4.6512 73.9757C5.37574 72.44 6.10029 70.9044 6.82306 69.3687C7.11995 68.7378 7.42037 68.1069 7.70488 67.4707C7.75083 67.37 7.74022 67.2357 7.72785 67.1208C7.68721 66.7055 7.63066 66.2903 7.58648 65.875C7.35851 63.6978 7.36205 61.5118 7.40623 59.3276C7.42567 58.3132 7.537 57.2989 7.6554 56.2898C7.79854 55.0581 7.93285 53.8211 8.17672 52.6088C8.49658 51.0236 8.85885 49.442 9.31478 47.8922C9.79898 46.2417 10.3539 44.6053 10.9883 43.006C11.7552 41.0691 12.6583 39.1871 13.7469 37.404C14.4573 36.2412 15.1553 35.0696 15.9293 33.9492C16.6751 32.8712 17.4862 31.8339 18.3168 30.8178C19.0148 29.9642 19.7517 29.1407 20.5257 28.3543C21.5207 27.3417 22.5509 26.3627 23.5971 25.4031C25.3006 23.841 27.1597 22.4785 29.1036 21.2326C30.0755 20.6106 31.0722 20.0239 32.0813 19.4637C33.0373 18.9335 34.004 18.4122 35.0024 17.9722C36.4462 17.336 37.9006 16.7086 39.3921 16.2015C41.0992 15.6201 42.8398 15.1306 44.5858 14.6817C45.7398 14.3848 46.9273 14.2063 48.1078 14.0225C49.1593 13.8582 50.2196 13.7628 51.2763 13.6267C51.347 13.6178 51.4425 13.5383 51.469 13.4694C52.5399 10.7886 53.6037 8.10603 54.6693 5.42346C55.3744 3.64745 56.0813 1.87321 56.7882 0.0989617C56.7988 0.0724541 56.8341 0.0565496 56.8995 0C57.0515 0.378175 57.1981 0.738679 57.3431 1.09918C58.0464 2.86459 58.748 4.63 59.4513 6.39541C60.319 8.57433 61.1902 10.7533 62.0596 12.9322C62.1833 13.2414 62.3229 13.5436 62.4343 13.8564C62.5368 14.1498 62.8089 14.0296 62.975 14.0561C65.2052 14.4113 67.3894 14.9485 69.5436 15.6218C71.5794 16.258 73.5516 17.055 75.4866 17.951C78.0473 19.135 80.4595 20.5734 82.7639 22.1851C84.0097 23.0563 85.2079 24.0088 86.3565 25.0091C87.6201 26.11 88.8465 27.2622 90.0093 28.4692C91.3665 29.8759 92.6247 31.378 93.738 32.9896C94.6198 34.2638 95.5299 35.5273 96.3004 36.8686C97.2229 38.4732 98.0322 40.1449 98.8487 41.8096C99.658 43.4637 100.3 45.192 100.814 46.9574C101.284 48.569 101.696 50.2001 102.063 51.8383C102.335 53.0541 102.526 54.2911 102.698 55.5264C102.816 56.3764 102.858 57.2388 102.897 58.0976C102.957 59.4566 103.009 60.8173 103.021 62.178C103.028 62.9008 102.94 63.6236 102.908 64.3481C102.903 64.4877 102.931 64.645 102.993 64.7705C103.88 66.5783 104.776 68.3826 105.668 70.1886C106.372 71.6112 107.071 73.0356 107.771 74.4581C108.473 75.8807 109.174 77.3033 109.874 78.7259C110.57 80.1396 111.267 81.5533 111.959 82.9689C112.141 83.3417 112.307 83.7217 112.451 84.1476C112.173 83.9638 111.89 83.7871 111.618 83.5944C110.491 82.7921 109.367 81.9828 108.239 81.1787C106.416 79.8816 104.606 78.5651 102.756 77.3086C102.22 76.9446 101.97 76.4621 101.734 75.9161C101.567 75.5237 101.356 75.1491 101.141 74.7179H101.142ZM84.9304 66.877C85.9059 66.2956 86.7365 65.6028 87.3055 64.6273C88.0265 63.3886 88.258 62.0561 87.9682 60.6689C87.6872 59.3258 86.9856 58.2037 85.9165 57.3218C84.964 56.5355 83.8524 56.1113 82.6455 56.0919C79.7402 56.0442 76.835 56.1078 73.9298 56.0672C71.0316 56.0283 68.1317 56.2121 65.2317 55.9647C64.3322 55.8869 63.4168 56.0071 62.5085 56.0106C59.8577 56.0194 57.207 56.0141 54.5562 56.0141H54.1692C54.1692 56.3428 54.1568 56.6273 54.1763 56.9119C54.1816 56.9914 54.2593 57.1027 54.3336 57.1363C55.1836 57.5286 56.0406 57.905 56.8907 58.2938C58.5094 59.0342 60.1263 59.7765 61.7415 60.524C63.2436 61.2185 64.744 61.9218 66.2461 62.6181C66.444 62.71 66.6508 62.7842 66.8805 62.8778C66.4723 61.7433 66.08 60.6494 65.6753 59.5238H69.1654V65.3802C69.0753 65.3519 69.0064 65.336 68.9428 65.3095C68.5151 65.1204 68.0875 64.9295 67.6616 64.7351C66.0446 63.9929 64.4259 63.2507 62.8107 62.505C61.2043 61.7645 59.5962 61.0241 57.9916 60.2801C56.4789 59.5803 54.9786 58.8558 53.4517 58.1913C52.9534 57.9739 52.8262 57.6382 52.8226 57.1716C52.8226 56.7581 52.8226 56.3446 52.8226 55.9311C52.8226 55.1023 53.252 54.6693 54.0755 54.6693C57.0656 54.6693 60.0557 54.6693 63.0457 54.6693H63.4416C63.4204 54.3901 63.4186 54.1409 63.3797 53.8971C63.2383 53.0029 63.2949 52.1087 63.461 51.2322C63.8091 49.3978 64.9543 48.1573 66.5942 47.3886C67.4142 47.0051 68.3137 46.7877 69.1761 46.4908C69.3846 46.4184 69.4977 46.4767 69.5807 46.687C70.0985 48 70.6304 49.3095 71.1535 50.6207C71.6731 51.9231 72.1856 53.2273 72.7122 54.5262C72.7493 54.6163 72.8871 54.7223 72.979 54.7241C74.7055 54.7365 76.4321 54.7329 78.201 54.7329C71.0369 36.7961 63.8834 18.8893 56.6998 0.90656C56.4294 1.57455 56.1909 2.15949 55.9541 2.74619C55.2118 4.59642 54.4661 6.44665 53.7274 8.29865C52.8774 10.4299 52.0362 12.5646 51.1844 14.6958C50.4034 16.6539 49.6117 18.6083 48.8288 20.5646C47.9576 22.7435 47.0934 24.9242 46.2222 27.1032C45.4394 29.0612 44.6477 31.0139 43.8683 32.9719C42.9759 35.2092 42.0976 37.4517 41.2034 39.6872C40.2527 42.0694 39.2896 44.4462 38.3371 46.8266C36.9039 50.4122 35.476 54.0013 34.0411 57.5869C33.9616 57.7848 33.9545 57.9351 34.0941 58.1224C34.2991 58.3963 34.4758 58.6949 34.6331 58.9989C35.423 60.5081 35.7199 62.1392 35.7764 63.8215C35.7906 64.2509 35.757 64.6839 35.7128 65.1133C35.6527 65.693 35.5891 66.2761 35.4778 66.8469C35.3647 67.4212 35.188 67.9814 35.0395 68.5487C35.0484 68.5522 35.059 68.5558 35.0678 68.5593C42.269 50.5359 49.4703 32.5107 56.6927 14.4325C60.9074 24.9826 65.1062 35.4884 69.3174 46.0296H68.8597C63.8551 46.0296 58.8505 46.0261 53.8458 46.0349C53.3881 46.0349 52.9269 46.0932 52.471 46.1586C50.7055 46.4095 49.3572 47.3638 48.2739 48.721C47.362 49.8626 46.6693 51.1367 46.3035 52.5522C46.0596 53.4959 45.8706 54.4661 45.7893 55.4345C45.7133 56.3552 45.7698 57.2936 45.8458 58.2196C45.9006 58.8982 46.0349 59.5803 46.2116 60.2395C46.6463 61.867 47.5405 63.2295 48.7634 64.3693C49.1416 64.7228 49.5533 65.078 50.0146 65.2953C51.0201 65.7654 52.068 66.14 53.0948 66.5677C54.5721 67.1827 56.0495 67.7959 57.5162 68.4374C58.7462 68.9746 59.9726 69.526 61.1761 70.1162C63.2896 71.1535 65.4349 72.1414 67.3294 73.5675C67.9302 74.0199 68.3543 74.5606 68.3013 75.393C68.2518 76.1635 68.2624 76.941 68.2978 77.7133C68.3437 78.7506 67.4813 79.4964 66.497 79.4946C59.1279 79.4893 51.7588 79.4946 44.3897 79.484C43.9938 79.484 43.757 79.666 43.5379 79.9523C42.8593 80.8376 42.2196 81.7601 41.4738 82.5871C40.1484 84.0557 38.6622 85.3581 36.9463 86.3618C36.121 86.8443 35.2604 87.2666 34.4122 87.7084C33.7018 88.0795 32.9843 88.4383 32.2704 88.8023L32.3128 88.9225C32.8571 88.8924 33.4014 88.85 33.9457 88.8341C34.9494 88.8041 35.9514 88.7899 36.9552 88.767C37.8847 88.7457 38.8125 88.7245 39.742 88.7033C40.7351 88.6821 41.7265 88.6609 42.7197 88.6397C43.681 88.6185 44.6406 88.5973 45.6019 88.5761C46.5845 88.5549 47.5653 88.5337 48.5478 88.5125C49.4986 88.4913 50.4475 88.4701 51.3983 88.4489C52.3596 88.4277 53.321 88.4065 54.2805 88.3852C55.2313 88.364 56.182 88.3428 57.131 88.3216C58.1135 88.3004 59.0943 88.2792 60.0769 88.258C61.0382 88.2368 61.9996 88.2138 62.9591 88.1944C64.0583 88.1714 65.1575 88.1608 66.2549 88.1272C67.1279 88.1007 68.0009 88.0619 68.8703 88C69.7734 87.9364 70.6269 87.6536 71.438 87.2772C72.6379 86.7223 73.6735 85.9412 74.5288 84.9163C75.211 84.0998 75.7482 83.2021 76.1564 82.2284C76.7979 80.6963 76.9799 79.0669 77.047 77.427C77.0789 76.6388 77.0046 75.8454 76.9958 75.0537C76.9817 74.0022 76.8085 72.9772 76.5469 71.9629C76.061 70.0808 75.1756 68.4657 73.4367 67.4531C73.2123 67.3223 73.1716 67.1862 73.1716 66.9618C73.1769 64.5973 73.1752 62.2328 73.1752 59.8683V59.5238H77.7027V59.9196C77.7027 62.2523 77.7027 64.5849 77.7062 66.9176C77.7062 67.082 77.7274 67.2551 77.7787 67.4089C77.9218 67.8312 78.0861 68.2465 78.2434 68.6653C78.9538 70.5598 79.6642 72.4559 80.3746 74.3503C80.569 74.8664 80.7652 75.3824 80.9613 75.8984C80.9949 75.8949 81.0303 75.8896 81.0638 75.886C81.0638 74.9777 81.0568 74.0711 81.0656 73.1628C81.0797 71.8304 81.1027 70.4979 81.1292 69.1672C81.1434 68.3808 81.1699 67.5962 81.1911 66.8098C81.2953 66.8964 81.3519 66.9901 81.3961 67.0908C81.8785 68.1741 82.3609 69.2573 82.8363 70.3424C83.188 71.1412 83.552 71.9364 83.8648 72.751C83.9867 73.0691 84.1511 73.1328 84.4603 73.1239C85.2238 73.101 85.9872 73.1169 86.7506 73.1169H88.6432C87.3868 71.0086 86.1586 68.9481 84.9251 66.8787L84.9304 66.877ZM46.6958 25.4031C46.0773 25.5834 45.533 25.7389 44.9905 25.8979C42.679 26.5765 40.4648 27.4884 38.3336 28.6123C36.7007 29.4747 35.1279 30.4325 33.6558 31.5423C32.5213 32.3976 31.408 33.29 30.3654 34.2531C28.7113 35.7818 27.1897 37.4429 25.8432 39.256C24.6927 40.8058 23.6324 42.4122 22.7506 44.1264C22.1515 45.2927 21.579 46.4785 21.1018 47.6978C20.5681 49.0568 20.1051 50.4511 19.704 51.8542C19.3735 53.0099 19.1456 54.1975 18.9317 55.3815C18.7586 56.3446 18.6702 57.3236 18.5465 58.2956C18.4988 58.6684 18.444 59.0413 18.4263 59.4159C18.414 59.674 18.4087 59.9532 18.4917 60.1917C18.626 60.5841 18.8292 60.9534 19.013 61.3263C19.9814 63.2931 20.9534 65.2565 21.9271 67.2216C21.966 67.2993 22.019 67.3682 22.1162 67.522V54.6623C22.2558 54.6623 22.3707 54.6623 22.4855 54.6623C24.3693 54.6835 26.2514 54.6958 28.1352 54.7329C28.5487 54.7418 28.9693 54.8036 29.3722 54.8991C31.1571 55.3179 32.5973 56.2951 33.7919 57.6983C38.0897 46.945 42.3786 36.2112 46.6976 25.4014L46.6958 25.4031ZM28.5858 98.9653C37.0117 105.016 46.3689 108.144 56.7387 108.029C67.112 107.916 76.3914 104.585 84.6883 98.2885C83.8348 97.3201 83.059 96.3676 82.2054 95.4911C81.3307 94.5951 80.387 93.7645 79.4575 92.9251C79.0722 92.5752 78.6499 92.266 78.2293 91.9549C78.1621 91.9055 77.9996 91.9072 77.9236 91.9549C77.6161 92.1511 77.3333 92.3808 77.0311 92.584C75.3135 93.7274 73.5498 94.7824 71.6713 95.6483C69.8953 96.4683 68.0786 97.1663 66.2001 97.7159C64.0477 98.345 61.8546 98.7515 59.6315 99.0095C58.7055 99.1173 57.7689 99.1933 56.8376 99.1968C55.5423 99.2021 54.2434 99.1668 52.9499 99.0696C51.7022 98.9777 50.4564 98.8293 49.2229 98.6243C48.0477 98.4281 46.8814 98.1613 45.7256 97.8644C43.4955 97.2918 41.3607 96.4524 39.2878 95.4557C37.6249 94.6569 36.0415 93.7133 34.5041 92.6954C34.4299 92.6459 34.2584 92.6424 34.1966 92.6936C33.7036 93.1001 33.1928 93.4924 32.751 93.9518C32.0318 94.7011 31.3373 95.4769 30.6764 96.2774C29.9589 97.1434 29.2927 98.0517 28.584 98.9653H28.5858ZM67.3665 26.1966C71.1924 35.7676 74.983 45.2485 78.7983 54.793C80.1096 54.793 81.4296 54.793 82.7515 54.793C83.5662 54.793 84.3349 54.9945 85.0877 55.2949C86.7877 55.9753 87.9664 57.214 88.7457 58.8239C89.2971 59.9638 89.5145 61.1849 89.3643 62.4749C89.2335 63.5936 88.9295 64.6433 88.2845 65.5587C87.8427 66.186 87.2949 66.7391 86.77 67.3541C87.3567 68.3349 87.977 69.3704 88.6203 70.4467C88.8465 69.9678 89.055 69.5277 89.2618 69.0895C90.0004 67.5255 90.7356 65.9616 91.476 64.3976C91.9496 63.3992 92.4303 62.4042 92.9021 61.4058C92.9622 61.2768 93.0276 61.1283 93.0223 60.9923C92.9958 60.3437 92.9516 59.6952 92.9021 59.0466C92.8438 58.2956 92.8208 57.5357 92.6989 56.7952C92.4815 55.4628 92.2394 54.1321 91.9408 52.8156C91.393 50.4087 90.5589 48.0919 89.5109 45.86C88.6291 43.9814 87.5989 42.186 86.4166 40.4754C85.4111 39.021 84.3154 37.6355 83.1138 36.342C82.3662 35.5361 81.5639 34.7798 80.751 34.0411C79.9841 33.3448 79.1836 32.6857 78.376 32.0389C76.6123 30.6304 74.702 29.4411 72.6945 28.4215C71.4345 27.7818 70.118 27.2569 68.8173 26.7002C68.3738 26.5112 67.9055 26.3822 67.3665 26.1966ZM102.759 64.3269C102.795 64.3181 102.83 64.311 102.865 64.3022C103.507 52.2006 100.155 41.3501 92.4904 31.9187C84.8315 22.4926 74.9317 16.8871 62.8884 14.9167C62.9468 15.0917 62.975 15.1871 63.0121 15.279C63.6713 16.9384 64.3252 18.5995 65.0002 20.2518C65.055 20.3861 65.2264 20.5187 65.3696 20.5628C66.7974 20.9993 68.2412 21.3828 69.6585 21.8476C71.567 22.4732 73.3978 23.2914 75.1774 24.2297C76.7449 25.055 78.2523 25.9722 79.7155 26.9724C81.2971 28.0539 82.7851 29.252 84.1935 30.5421C85.1601 31.4257 86.0667 32.3799 86.945 33.3537C87.8056 34.3079 88.6185 35.3082 89.4102 36.3207C90.8045 38.1038 92.0079 40.0159 93.0347 42.0305C93.6868 43.3082 94.3017 44.6123 94.8284 45.9465C95.3832 47.3532 95.8197 48.8058 96.2916 50.2443C96.4559 50.7462 96.6026 51.2569 96.7051 51.7747C96.8005 52.2554 96.9596 52.6795 97.2264 53.1036C97.5958 53.6903 97.8484 54.353 98.1577 54.9786C99.1226 56.9348 100.093 58.8876 101.058 60.8438C101.628 62.0031 102.192 63.1659 102.759 64.3287V64.3269ZM34.5518 92.3755C40.5195 96.4471 47.0758 98.6631 54.2328 98.9229C62.9079 99.2392 70.7789 96.7793 77.8246 91.6775C77.784 91.6316 77.7592 91.5944 77.7256 91.5697C76.1034 90.3786 74.4051 89.3095 72.5955 88.4259C72.463 88.3623 72.258 88.3835 72.1078 88.433C71.4893 88.6379 70.8849 88.8942 70.2629 89.0868C69.0983 89.4473 67.8807 89.3943 66.6826 89.4668C65.7354 89.5233 64.7829 89.5162 63.8321 89.5374C62.8708 89.5586 61.9112 89.5799 60.9499 89.6011C59.9779 89.6223 59.0077 89.6435 58.0358 89.6647C57.0744 89.6859 56.1149 89.7071 55.1535 89.7283C54.1922 89.7495 53.2326 89.7707 52.2713 89.7919C51.2993 89.8131 50.3291 89.8343 49.3572 89.8555C48.3958 89.8767 47.4363 89.8979 46.4749 89.9192C45.503 89.9404 44.5328 89.9651 43.5609 89.981C42.1012 90.0057 40.6432 90.0252 39.1836 90.0446C38.9185 90.0482 38.6534 90.0376 38.3883 90.0482C38.2063 90.0552 38.0261 90.087 37.8458 90.1065C37.8688 90.1383 37.89 90.1683 37.913 90.2001C37.8387 90.2761 37.7804 90.3839 37.6903 90.4263C36.5823 90.9459 35.5485 91.5838 34.5518 92.3738V92.3755ZM9.40844 63.6572C9.43848 63.666 9.46852 63.6748 9.4968 63.6837C9.72476 63.1959 9.94919 62.7082 10.1789 62.2222C10.9353 60.6212 11.6881 59.0183 12.448 57.4173C12.9675 56.3252 13.4959 55.2383 14.0172 54.1462C14.1286 53.9112 14.2611 53.6797 14.3265 53.4323C14.7524 51.8083 15.1111 50.163 15.5971 48.5567C15.9594 47.3567 16.4648 46.201 16.9295 45.0347C17.7089 43.0855 18.7073 41.2476 19.8065 39.4628C21.0665 37.4164 22.4961 35.4919 24.0901 33.6947C24.7528 32.949 25.4544 32.235 26.1754 31.5458C27.0572 30.7029 27.9479 29.867 28.8898 29.093C29.8776 28.2801 30.9026 27.5025 31.9611 26.7833C33.0532 26.0429 34.1807 25.3448 35.3382 24.7139C36.6353 24.0071 37.9501 23.3143 39.3179 22.763C40.9896 22.0879 42.7055 21.5118 44.4338 20.9976C45.7027 20.6194 47.0245 20.4162 48.3181 20.1122C48.5337 20.061 48.8182 20.1546 48.9454 19.8189C49.3413 18.7709 49.7689 17.7336 50.1825 16.691C50.4299 16.0689 50.6737 15.4451 50.9441 14.7559C38.6852 16.3128 28.5098 21.6673 20.5823 31.0705C12.6618 40.4648 9.00022 51.3841 9.40844 63.6572ZM38.1816 83.7517C38.2081 83.7712 38.2328 83.7924 38.2593 83.8118C38.6516 83.469 39.0599 83.142 39.4327 82.7798C39.894 82.3309 40.3428 81.8679 40.7652 81.3819C41.1416 80.9507 41.4703 80.4789 41.8255 80.0283C42.1842 79.5741 42.5324 79.1093 42.9158 78.6764C43.3134 78.2275 43.8259 78.1233 44.4338 78.125C51.7605 78.1462 59.0855 78.1392 66.4122 78.1392C66.8487 78.1392 67.0113 77.9766 67.0113 77.5348C67.0113 76.8244 66.9989 76.114 67.0183 75.4036C67.0254 75.1297 66.9264 74.9317 66.725 74.778C66.4352 74.5571 66.1524 74.3221 65.8396 74.1401C64.7705 73.5145 63.7084 72.8748 62.6092 72.3057C61.3881 71.6731 60.1387 71.0952 58.8876 70.5244C57.4031 69.8476 55.9081 69.1884 54.4078 68.5469C53.1195 67.9956 51.8295 67.4389 50.5147 66.96C49.359 66.5377 48.3587 65.9192 47.5405 65.0055C47.0952 64.5072 46.6552 64.0053 46.2152 63.507C43.5467 70.2346 40.8659 76.994 38.1851 83.7535L38.1816 83.7517ZM88.5213 94.0702C88.5036 94.0968 88.486 94.125 88.4683 94.1515C88.357 94.1003 88.2156 94.0791 88.1414 93.996C87.4575 93.2291 86.816 92.4215 86.1003 91.6863C85.2026 90.7639 84.2536 89.8909 83.3099 89.0161C82.8982 88.6344 82.4475 88.2916 82.0022 87.9452C81.3766 87.4592 80.7599 86.9574 80.106 86.5138C78.9715 85.7451 77.8087 85.017 76.6388 84.2589C75.6846 85.8476 74.4528 87.0705 72.9772 87.9929C74.0358 88.6273 75.1049 89.1964 76.0981 89.8785C77.3404 90.7356 78.5368 91.6616 79.7208 92.6C80.8429 93.4906 81.8873 94.4714 82.8204 95.5653C83.7517 96.6556 84.6759 97.7513 85.5949 98.8522C85.7681 99.059 85.9465 99.1456 86.2258 99.1438C89.3324 99.1314 92.4374 99.1367 95.5441 99.1367H95.947C92.6477 90.877 89.3696 82.6684 86.0932 74.4634H83.8312C83.1526 74.4634 83.1632 74.4599 82.9141 73.8273C82.7621 73.442 82.573 73.0709 82.3998 72.6945C82.3645 72.6998 82.3309 72.7051 82.2956 72.7104C82.2956 73.5021 82.3044 74.292 82.2938 75.0837C82.2814 75.9814 82.239 76.8774 82.2408 77.7751C82.2408 78.0809 82.2779 78.4078 82.3857 78.6905C82.8451 79.8922 83.3417 81.0815 83.8189 82.2761C84.6918 84.4639 85.5613 86.6552 86.4343 88.8429C87.1305 90.5871 87.8303 92.3296 88.5266 94.072L88.5213 94.0702ZM18.1506 59.5379C18.262 58.4988 18.3521 57.5215 18.474 56.5496C18.5659 55.8162 18.6702 55.0828 18.8204 54.3601C19.0148 53.427 19.2481 52.501 19.4884 51.5768C20.0009 49.6134 20.7078 47.7155 21.5648 45.8794C22.5845 43.6952 23.7879 41.617 25.2034 39.6589C26.156 38.3424 27.1668 37.0753 28.2995 35.9161C29.3298 34.8611 30.4113 33.852 31.5246 32.8836C32.3799 32.1396 33.29 31.4522 34.2231 30.8072C35.2145 30.1215 36.2324 29.4659 37.2909 28.8915C38.6251 28.167 39.9876 27.4831 41.3819 26.8823C43.0501 26.1648 44.7767 25.594 46.5544 25.1946C46.7365 25.154 46.8443 25.0532 46.9132 24.8571C47.1252 24.2615 47.3727 23.6766 47.6095 23.0899C47.9487 22.2434 48.2898 21.397 48.6521 20.4975C48.493 20.531 48.3852 20.5505 48.2792 20.5752C46.7453 20.9375 45.199 21.2591 43.6793 21.6726C41.9244 22.1498 40.2174 22.7895 38.5792 23.5794C37.0983 24.2934 35.6174 25.025 34.2107 25.875C32.8058 26.7232 31.4539 27.6704 30.1568 28.6759C28.8509 29.6885 27.5997 30.7842 26.4016 31.924C25.4579 32.82 24.5991 33.8114 23.7614 34.808C22.9503 35.7729 22.1851 36.7784 21.4535 37.8052C20.1228 39.6748 18.9459 41.6399 18.0075 43.7358C17.4137 45.063 16.8147 46.3936 16.3358 47.7632C15.8162 49.2494 15.4274 50.7815 14.998 52.2995C14.9344 52.5257 14.8884 52.8067 14.9662 53.0135C15.1747 53.556 15.4522 54.0738 15.7066 54.5986C16.1626 55.537 16.6203 56.4754 17.0815 57.4102C17.4261 58.11 17.7813 58.8063 18.1489 59.5414L18.1506 59.5379ZM34.6402 69.6479C33.0939 72.5973 30.8319 74.4405 27.3276 74.4016C24.0353 82.649 20.7484 90.8787 17.4597 99.1138C17.4986 99.1226 17.5092 99.1279 17.5198 99.1279C20.8067 99.1314 24.0919 99.135 27.3788 99.1297C27.4778 99.1297 27.6033 99.066 27.6722 98.9918C27.8966 98.7444 28.0998 98.4776 28.3154 98.2213C29.0665 97.3236 29.7787 96.387 30.5827 95.5388C31.4893 94.5827 32.4542 93.6744 33.442 92.8032C34.269 92.0733 35.1668 91.4195 36.038 90.7391C36.2995 90.5341 36.5752 90.3486 36.8456 90.1542C36.167 90.1171 35.5131 90.163 34.8611 90.1754C33.0833 90.2054 31.3073 90.216 29.5295 90.2461C29.2308 90.2514 28.8403 90.2125 28.653 90.3768C27.962 90.983 27.3241 91.6528 26.6932 92.3243C26.186 92.8668 25.7212 93.45 25.2282 94.0049C25.161 94.0791 25.032 94.0968 24.9313 94.1409L24.8747 94.0649C28.1299 85.9253 31.385 77.7875 34.6384 69.6479H34.6402ZM65.3271 21.0152C65.3519 21.1142 65.3607 21.1867 65.3872 21.252C65.9669 22.687 66.5571 24.1166 67.1173 25.5569C67.2145 25.8061 67.3506 25.8944 67.5803 25.9845C68.9923 26.5341 70.4184 27.0554 71.7968 27.6828C73.7919 28.5894 75.6846 29.6921 77.4376 31.0086C78.7382 31.9859 80.0318 32.9879 81.2335 34.0817C82.7798 35.4919 84.1847 37.0453 85.4641 38.7135C86.7223 40.3552 87.8498 42.0764 88.8253 43.8949C90.0216 46.1268 90.9954 48.4577 91.7058 50.8929C92.2094 52.6194 92.63 54.3654 92.8456 56.1537C92.9728 57.2123 93.0629 58.2744 93.1654 59.3364C93.2043 59.7446 93.2291 60.1546 93.2644 60.6C93.3068 60.5222 93.3333 60.478 93.3545 60.4321C93.8193 59.4425 94.2805 58.4528 94.7488 57.465C95.2542 56.4011 95.7809 55.3479 96.2668 54.2735C96.4135 53.9465 96.698 53.6426 96.5902 53.2326C96.2226 51.8277 95.9081 50.4069 95.4681 49.025C95.0439 47.6925 94.5474 46.3742 93.9783 45.0965C93.3086 43.598 92.5893 42.1118 91.7711 40.691C91.0007 39.3497 90.1188 38.0667 89.2034 36.8191C88.3446 35.651 87.4045 34.5394 86.4502 33.4456C85.8211 32.7245 85.1195 32.0654 84.4215 31.408C83.6262 30.6605 82.8381 29.8935 81.9739 29.2308C80.6874 28.243 79.3603 27.3046 78.0119 26.4016C76.1122 25.1292 74.0729 24.1113 71.9717 23.2101C69.8299 22.2911 67.6227 21.586 65.3271 21.0152ZM3.32582 79.8745L3.38944 79.9169C3.41595 79.9028 3.44422 79.8922 3.46896 79.8763C5.15838 78.6976 6.84603 77.5171 8.53722 76.3419C8.75105 76.1935 8.9207 76.0398 9.0391 75.7835C10.0004 73.693 10.9883 71.6148 11.9602 69.5277C12.0451 69.3457 12.144 69.2927 12.3384 69.2927C14.0349 69.3015 15.7296 69.3015 17.4261 69.2927C17.6223 69.2927 17.7177 69.3492 17.8043 69.5277C18.338 70.6375 18.8911 71.7367 19.4265 72.8465C19.5025 73.0038 19.5821 73.0568 19.7535 73.055C20.7184 73.0462 21.6832 73.0515 22.6481 73.0515C22.8513 73.0515 23.0563 73.0515 23.3143 73.0515C20.4497 67.2322 17.6134 61.4712 14.77 55.6978C14.7312 55.7614 14.7011 55.8021 14.6782 55.848C13.9801 57.3271 13.2856 58.8063 12.5876 60.2854C12.0539 61.4164 11.5184 62.5439 10.9848 63.6748C10.0411 65.6717 9.10095 67.6687 8.15728 69.6673C7.65893 70.7223 7.16059 71.7773 6.66225 72.8306C5.91827 74.4034 5.17429 75.9744 4.43031 77.5472C4.06273 78.323 3.69516 79.1005 3.32759 79.8763L3.32582 79.8745ZM88.8535 73.1133C90.0906 73.1133 91.2852 73.1151 92.4815 73.108C92.5522 73.108 92.6547 73.0373 92.6865 72.9719C93.2096 71.8604 93.7292 70.7471 94.2328 69.6267C94.3265 69.4182 94.4413 69.3545 94.6622 69.3563C96.3375 69.3651 98.0128 69.3651 99.6881 69.3563C99.9107 69.3563 100.017 69.427 100.114 69.6285C101.081 71.6077 102.063 73.5781 103.033 75.5556C103.205 75.9037 103.443 76.1599 103.765 76.3808C104.751 77.0594 105.716 77.7698 106.693 78.4608C107.446 78.9927 108.204 79.5158 108.96 80.0442C108.976 80.0336 108.992 80.023 109.008 80.0124C105.032 71.9346 101.056 63.8586 97.0656 55.7526C97.0108 55.8569 96.9649 55.9364 96.926 56.0194C96.2492 57.4509 95.5723 58.8805 94.8973 60.3119C94.3671 61.4323 93.8387 62.5545 93.3103 63.6748C92.5717 65.2388 91.8365 66.8027 91.0961 68.3667C90.6048 69.4023 90.1047 70.4343 89.6134 71.4716C89.3607 72.0053 89.1204 72.5461 88.8606 73.1133H88.8535ZM23.3868 73.0497H23.7597C25.1593 73.0497 26.5571 73.0568 27.9567 73.0479C28.7608 73.0426 29.5277 72.8376 30.2364 72.4736C31.5017 71.8233 32.4153 70.8089 33.0956 69.5754C33.8767 68.1599 34.3132 66.6296 34.4157 65.0285C34.4776 64.0689 34.444 63.0793 34.285 62.1339C33.9563 60.1829 33.0939 58.5041 31.4416 57.3059C30.3389 56.5072 29.1177 56.0495 27.7588 56.0194C26.414 55.9912 25.0674 56.0124 23.7208 56.0124H23.3833V73.0515L23.3868 73.0497ZM92.941 90.1789C93.8052 88.9331 94.6304 87.7738 95.4239 86.5916C96.8465 84.478 98.064 82.2461 99.0448 79.8975C99.7393 78.2311 100.326 76.5204 100.948 74.8257C100.999 74.6861 101.019 74.4882 100.96 74.3627C100.4 73.1858 99.8224 72.0159 99.2375 70.8513C99.1897 70.7559 99.0431 70.6569 98.9388 70.6534C98.3344 70.634 97.7301 70.6463 97.1257 70.6428C96.9684 70.6428 96.8924 70.6764 96.85 70.8584C96.7033 71.5052 96.5231 72.1449 96.357 72.7864C95.7332 75.1968 94.8478 77.5136 93.791 79.7632C92.9781 81.4897 92.0185 83.1367 90.9971 84.7484C90.9247 84.8633 90.9035 85.0683 90.9512 85.1955C91.34 86.224 91.7499 87.2472 92.1582 88.2686C92.4003 88.8748 92.653 89.4756 92.9428 90.1789H92.941ZM20.3225 91.3382C20.3914 91.2092 20.425 91.1579 20.448 91.0996C20.9675 89.8096 21.4888 88.5195 22.0013 87.2277C22.0296 87.1553 22.0137 87.0369 21.9713 86.9697C21.8122 86.7259 21.6214 86.5032 21.4641 86.2576C20.5487 84.8315 19.5927 83.4283 18.7427 81.9651C18.1118 80.8783 17.5816 79.7261 17.078 78.5721C16.5514 77.3651 16.0548 76.1387 15.6466 74.8876C15.2101 73.548 14.892 72.1696 14.5262 70.8072C14.4873 70.6622 14.4431 70.5668 14.2593 70.5739C13.8776 70.588 13.4959 70.5668 13.1142 70.5863C13.0258 70.5898 12.9021 70.6764 12.8633 70.7577C12.372 71.7809 11.9019 72.8147 11.4089 73.8361C11.2746 74.1153 11.2569 74.3751 11.3576 74.6631C11.5768 75.2905 11.7552 75.932 11.9991 76.5487C12.6212 78.1339 13.2114 79.7349 13.9236 81.2794C14.9662 83.5432 16.1926 85.7115 17.6541 87.7367C18.52 88.9366 19.4159 90.1153 20.3207 91.3364L20.3225 91.3382ZM22.2523 86.5916C22.8425 85.1177 23.4257 83.6757 23.9947 82.2266C24.0406 82.1082 24.0495 81.9262 23.9894 81.822C23.666 81.2529 23.2896 80.7122 22.9821 80.1361C22.4749 79.1906 21.9819 78.2364 21.5277 77.2644C21.0912 76.3278 20.7131 75.3629 20.3031 74.3963C19.8878 74.3963 19.4531 74.3857 19.0201 74.4016C18.801 74.4104 18.6879 74.3397 18.5889 74.133C18.0535 73.0126 17.5003 71.901 16.9472 70.7895C16.9066 70.7082 16.8235 70.5916 16.7563 70.5898C16.1484 70.5739 15.5405 70.581 14.922 70.581C16.2262 76.4603 18.6737 81.7689 22.2523 86.5933V86.5916ZM95.2295 70.6499C94.7011 71.795 94.1727 72.9278 93.6567 74.0641C93.5365 74.3309 93.4146 74.5129 93.0629 74.4687C92.7077 74.4228 92.3437 74.4581 91.9832 74.4599C91.6757 74.4599 91.3028 74.3609 91.0819 74.5006C90.8752 74.6296 90.8328 75.0166 90.7179 75.2905C90.7055 75.3188 90.6949 75.3488 90.6808 75.3771C90.057 76.7272 89.4279 78.0773 88.8129 79.431C88.7617 79.5441 88.7563 79.7137 88.8005 79.8304C89.1027 80.6256 89.4208 81.4155 89.7389 82.2054C90.0322 82.937 90.3309 83.6669 90.6437 84.4374C93.4093 80.1661 95.3567 75.598 96.4453 70.6534H95.2313L95.2295 70.6499ZM20.63 74.4016C21.5754 76.9605 22.7471 79.3621 24.2191 81.6505C25.1946 79.2101 26.1524 76.8173 27.1173 74.4016H20.63ZM59.6598 44.7237C58.679 42.2567 57.7089 39.8144 56.7016 37.2803C55.6943 39.8109 54.7206 42.2602 53.7398 44.7237H59.658H59.6598ZM88.5743 79.2684C89.4667 77.6514 90.6596 74.907 90.6684 74.4705H86.6711C87.3037 76.068 87.9293 77.6426 88.5743 79.2684Z" fill="white"/>
<path d="M29.2305 102.092H15.959C16.194 101.544 16.3955 101.049 16.6234 100.567C16.6535 100.503 16.8143 100.473 16.915 100.473C18.0071 100.466 19.0975 100.469 20.1896 100.469C22.2254 100.469 24.2594 100.473 26.2952 100.466C26.6097 100.466 26.8695 100.522 27.1399 100.715C27.8061 101.192 28.5077 101.622 29.2322 102.092H29.2305Z" fill="white"/>
<path d="M97.6358 101.842H83.3994C83.7122 101.62 83.9861 101.425 84.2583 101.231C84.3095 101.194 84.3608 101.158 84.4085 101.118C85.0411 100.561 85.7763 100.444 86.6086 100.453C89.9344 100.492 93.262 100.473 96.5896 100.464C96.8335 100.464 96.966 100.526 97.0685 100.759C97.2205 101.109 97.4202 101.438 97.6358 101.844V101.842Z" fill="white"/>
<path d="M97.9722 103.18C97.905 103.233 97.8449 103.298 97.7707 103.337C97.7301 103.36 97.6665 103.343 97.6134 103.343C92.4833 103.343 87.3532 103.343 82.2213 103.339C82.0817 103.339 81.8396 103.434 81.9174 103.097H97.8962C97.9209 103.125 97.9474 103.152 97.9722 103.18Z" fill="white"/>
<path d="M30.1546 103.18C30.0875 103.233 30.0274 103.297 29.9532 103.337C29.9125 103.36 29.8489 103.343 29.7959 103.343C25.1747 103.343 20.5518 103.343 15.9306 103.343H15.639C15.579 103.161 15.6037 103.063 15.8052 103.078C15.837 103.079 15.8688 103.078 15.9006 103.078C20.5536 103.078 25.2083 103.078 29.8613 103.078C29.9337 103.078 30.0062 103.078 30.0786 103.078C30.1034 103.111 30.1299 103.146 30.1546 103.18Z" fill="white"/>
<path d="M81.2158 59.499C81.958 59.5114 82.6755 59.446 83.3665 59.7447C83.9921 60.015 84.5576 60.8226 84.5823 61.4959C84.607 62.1321 84.5204 62.7153 84.0892 63.226C83.7676 63.6077 83.3718 63.8763 82.8964 63.9488C82.3503 64.0318 81.7919 64.023 81.2158 64.0548V59.5008V59.499Z" fill="white"/>
<path d="M31.1339 47.7916C30.9678 47.2297 30.8034 46.6677 30.6285 46.0757C30.0559 46.3037 29.5134 46.521 28.9691 46.7366C28.9514 46.7207 28.932 46.7066 28.9143 46.6907C29.1918 46.1817 29.4692 45.6728 29.7696 45.1197C29.2077 44.8723 28.6705 44.6337 28.0537 44.3615C28.7164 44.1689 29.2854 44.0028 29.858 43.8367C29.63 43.2624 29.4144 42.7181 29.2006 42.1756L29.2607 42.1314C29.7732 42.4141 30.2857 42.6951 30.8158 42.9867C31.0632 42.4247 31.3 41.8893 31.5368 41.3521C31.5616 41.3609 31.5881 41.3697 31.6128 41.3786C31.7754 41.9423 31.938 42.506 32.0988 43.0644C32.6625 42.8435 33.2086 42.6297 33.7546 42.4177C33.7688 42.4406 33.7847 42.4618 33.7988 42.4848C33.516 42.9973 33.2351 43.5098 32.9488 44.0293C33.4842 44.2608 34.0179 44.4923 34.5498 44.7221C34.5516 44.7503 34.5551 44.7804 34.5569 44.8086C33.9985 44.9748 33.4401 45.1409 32.871 45.3105C33.0919 45.8689 33.3022 46.4026 33.5125 46.9346C33.4895 46.9558 33.4683 46.977 33.4454 46.9982C32.9399 46.7225 32.4345 46.4486 31.9079 46.1605C31.6747 46.6995 31.4414 47.2367 31.2081 47.7757C31.1834 47.781 31.1586 47.7881 31.1357 47.7934L31.1339 47.7916Z" fill="white"/>
<path d="M38.3705 33.8945C38.6161 34.5378 39.0544 34.923 39.6747 35.174C39.0721 35.4249 38.625 35.8084 38.3811 36.4463C38.116 35.842 37.7078 35.4161 37.084 35.174C37.706 34.9213 38.1355 34.5289 38.3723 33.8945H38.3705Z" fill="white"/>
<path d="M41.5863 100.508C41.9397 100.886 42.0104 101.318 41.7648 101.77C41.5527 102.161 40.9059 102.415 40.4571 102.309C39.3314 102.046 38.3347 101.473 37.3026 100.987C37.0923 100.888 37.1878 100.75 37.2532 100.623C37.7639 99.6193 38.2781 98.6173 38.7906 97.6136C38.9868 97.2301 38.9815 97.2336 39.3667 97.4192C40.0895 97.7638 40.8211 98.0925 41.5386 98.4495C41.9044 98.6315 42.2348 98.87 42.3409 99.3118C42.4734 99.8667 42.2808 100.227 41.7365 100.427C41.6888 100.445 41.6446 100.476 41.588 100.508H41.5863ZM38.5573 100.734C39.1105 100.968 39.6353 101.215 40.1778 101.408C40.4217 101.494 40.6285 101.325 40.7274 101.097C40.8176 100.892 40.7274 100.708 40.5383 100.607C40.0312 100.337 39.5134 100.084 38.9762 99.8119C38.8348 100.123 38.7111 100.395 38.5573 100.733V100.734ZM39.3155 99.1652C39.7749 99.3684 40.2026 99.5857 40.6514 99.743C40.8635 99.8172 41.1604 99.865 41.2558 99.5363C41.3353 99.2694 41.1215 99.1493 40.9289 99.0521C40.5048 98.8382 40.0718 98.6385 39.6282 98.4265C39.524 98.6721 39.4303 98.8913 39.3137 99.1652H39.3155Z" fill="white"/>
<path d="M76.2923 100.89C75.6632 101.996 74.7266 102.395 73.5709 102.39C72.6431 102.385 71.8108 101.623 71.7171 100.69C71.6076 99.5944 72.0635 98.7868 73.0496 98.2743C73.5744 98.0022 74.1134 97.7936 74.7107 97.8007C75.2303 97.806 75.6968 97.9598 76.0573 98.4298C75.7109 98.6083 75.3752 98.7797 75.0429 98.9511C74.481 98.4546 73.8148 98.649 73.2934 99.0819C72.6237 99.635 72.7138 100.252 73.0301 100.828C73.4189 101.537 73.8978 101.62 74.6312 101.395C75.3345 101.18 75.7127 100.649 75.6243 100.079C75.3451 100.213 75.0748 100.342 74.8044 100.473C74.6365 100.554 74.5216 100.6 74.4368 100.338C74.2813 99.8612 74.2601 99.8789 74.7213 99.6633C75.1649 99.4566 75.6031 99.2321 76.0379 99.0077C76.2358 98.9052 76.3436 98.9299 76.4443 99.1491C76.6705 99.6421 76.9144 100.128 77.1759 100.603C77.3085 100.846 77.2537 100.971 77.0133 101.052C77.0027 101.056 76.9904 101.054 76.9833 101.059C76.7165 101.236 76.4567 101.367 76.2941 100.891L76.2923 100.89Z" fill="white"/>
<path d="M67.5763 104.489C67.2105 104.578 66.85 104.664 66.4612 104.76C66.1749 103.424 65.8904 102.109 65.6006 100.759C65.9629 100.665 66.3163 100.52 66.675 100.505C66.8411 100.497 67.0249 100.734 67.1928 100.872C67.8802 101.434 68.5624 101.998 69.3081 102.523C69.1915 102.123 69.0784 101.722 68.96 101.324C68.8487 100.946 68.7179 100.573 68.626 100.192C68.6065 100.114 68.702 99.9867 68.7762 99.916C68.8274 99.8666 68.9335 99.8754 69.0112 99.8507C69.3835 99.7329 69.6315 99.8654 69.7552 100.248C70.1104 101.344 70.4656 102.44 70.835 103.576C70.4815 103.689 70.1281 103.839 69.7587 103.899C69.6121 103.924 69.4177 103.77 69.2728 103.659C68.5624 103.111 67.8608 102.551 67.1557 101.998C67.1045 101.957 67.0355 101.938 66.9507 101.899C67.1592 102.763 67.3589 103.597 67.5745 104.491L67.5763 104.489Z" fill="white"/>
<path d="M48.6363 102.319C48.6893 103.336 47.9683 104.092 47.2455 104.327C46.2506 104.649 44.2714 104.048 43.8084 103.1C43.5115 102.493 43.5203 101.43 43.9921 100.816C44.5735 100.057 45.3493 99.8471 46.27 100.013C46.9151 100.13 47.5212 100.308 48.0125 100.771C48.4507 101.183 48.6575 101.685 48.6381 102.321L48.6363 102.319ZM46.0279 100.798C45.1885 100.814 44.745 101.505 44.7167 102.273C44.6866 103.072 45.3405 103.553 46.2471 103.571C47.0653 103.586 47.477 103.009 47.5053 102.097C47.53 101.319 46.9398 100.831 46.0279 100.796V100.798Z" fill="white"/>
<path d="M52.7531 105.569C52.2619 105.612 51.7246 105.504 51.221 105.246C50.2508 104.749 49.9168 103.855 50.1766 102.827C50.5071 101.517 51.7512 101.098 52.8627 101.273C53.361 101.351 53.8435 101.431 54.2676 101.731C54.8172 102.122 55.1088 102.639 55.1229 103.314C55.1318 103.756 55.1159 104.184 54.8791 104.587C54.5062 105.219 53.9442 105.506 53.2409 105.564C53.1048 105.576 52.9652 105.564 52.7531 105.564V105.569ZM53.9672 103.396C53.9672 102.588 53.4635 102.093 52.6789 102.063C51.6681 102.024 51.2775 102.678 51.2475 103.525C51.2228 104.265 51.836 104.776 52.7107 104.797C53.3292 104.811 54.0449 104.281 53.9672 103.396Z" fill="white"/>
<path d="M61.7888 105.477C61.2622 105.534 60.8169 105.592 60.3698 105.622C60.2761 105.628 60.1595 105.546 60.0817 105.474C59.5551 104.988 59.0373 104.491 58.5319 104.014C57.9593 104.247 57.9823 104.696 58.1025 105.191C58.1378 105.338 58.1078 105.502 58.1078 105.677H56.9326V101.614C57.2648 101.614 57.56 101.591 57.848 101.63C57.9275 101.641 58.0318 101.835 58.0389 101.95C58.0618 102.348 58.0477 102.747 58.0477 103.201C58.2774 103.007 58.4718 102.853 58.6521 102.687C59.0232 102.344 59.3802 101.984 59.7636 101.655C59.8679 101.565 60.0464 101.547 60.1948 101.528C60.5306 101.485 60.8699 101.462 61.2074 101.432C61.2251 101.459 61.2428 101.485 61.2604 101.514C60.6366 102.095 60.0128 102.675 59.3377 103.302C60.1436 104.018 60.9423 104.728 61.787 105.479L61.7888 105.477Z" fill="white"/>
<path d="M62.7148 101.257C63.116 101.194 63.4518 101.141 63.8034 101.084C64.0279 102.436 64.2487 103.753 64.4749 105.115C64.0809 105.182 63.6886 105.248 63.2768 105.317C63.0895 103.959 62.9039 102.623 62.7148 101.257Z" fill="white"/>
<path d="M83.6732 44.5222C83.9842 45.0824 84.327 45.5648 84.972 45.7804C84.3959 46.072 83.9418 46.4484 83.6979 47.0758C83.4452 46.4767 83.0723 46.0455 82.4326 45.8246C82.9804 45.5136 83.4982 45.2043 83.6732 44.524V44.5222Z" fill="white"/>
<path d="M76.8558 39.8392C76.9971 39.9806 77.1367 40.122 77.2781 40.2633C77.3099 40.228 77.3435 40.1926 77.3753 40.1573C77.2198 40.3004 77.0643 40.4418 76.9636 40.5355C76.8063 40.3923 76.6437 40.2421 76.5059 40.1167C76.626 40.0018 76.778 39.8569 76.93 39.7102C76.9052 39.7526 76.8805 39.795 76.8575 39.8392H76.8558Z" fill="white"/>
<path d="M56.6463 94.6375C55.3422 94.4307 54.0557 94.2293 52.7692 94.026C52.7692 94.0013 52.7674 93.9748 52.7656 93.95C54.0557 93.7486 55.3439 93.5471 56.6569 93.3439C56.3848 92.7802 56.1321 92.2571 55.8794 91.7358C55.8935 91.7163 55.9094 91.6951 55.9236 91.6757C56.4608 91.9319 56.9998 92.1882 57.5547 92.4532C57.7544 91.8913 57.9523 91.3311 58.1873 90.6702C58.4224 91.3187 58.6256 91.8771 58.8341 92.4532C59.3696 92.1952 59.8944 91.9425 60.4193 91.6898L60.4882 91.7305C60.2514 92.25 60.0146 92.7713 59.753 93.3457C61.0554 93.5507 62.3455 93.7539 63.6337 93.9571C63.6337 93.9818 63.6355 94.0066 63.6373 94.0296C62.3526 94.2293 61.0678 94.4289 59.7513 94.6339C60.004 95.1888 60.2461 95.7154 60.4882 96.2438C60.467 96.258 60.444 96.2703 60.4228 96.2845C59.8979 96.0388 59.3713 95.7932 58.8341 95.5423C58.6291 96.106 58.4241 96.6662 58.1909 97.3059C57.9629 96.6697 57.7614 96.1095 57.5564 95.537C57.0192 95.7914 56.4767 96.0459 55.8458 96.3446C56.1356 95.7243 56.383 95.1941 56.6428 94.6392L56.6463 94.6375Z" fill="white"/>
<path d="M14.8172 63.5C15.2502 64.3712 15.6407 65.1558 16.0525 65.9846H13.665C14.045 65.1647 14.4126 64.373 14.8172 63.5Z" fill="white"/>
<path d="M95.9607 66.034C96.3389 65.2229 96.7083 64.4294 97.1147 63.5547C97.5371 64.4135 97.9276 65.207 98.3341 66.034H95.959H95.9607Z" fill="white"/>
<path d="M26.3145 59.4531C27.1132 59.5026 27.9067 59.4637 28.6577 59.621C29.7251 59.8454 30.4443 60.6071 31.0222 61.503C31.7468 62.627 31.9623 63.8799 31.8263 65.1717C31.6354 66.976 30.8243 68.4286 29.1472 69.2822C28.6895 69.5136 28.1912 69.6303 27.6699 69.6268C27.2263 69.6232 26.7828 69.6268 26.318 69.6268V59.4531H26.3145ZM27.654 68.2431C28.2354 68.4339 29.2515 67.7924 29.6562 67.2128C30.3418 66.2338 30.6864 65.1664 30.4974 63.9488C30.3259 62.8549 29.9018 61.9148 29.0023 61.238C28.6118 60.9446 28.1629 60.775 27.654 60.7909V68.2413V68.2431Z" fill="white"/>
</svg>
