<svg width="116" height="98" viewBox="0 0 116 98" fill="none" xmlns="http://www.w3.org/2000/svg">
<path fill-rule="evenodd" clip-rule="evenodd" d="M35.2236 0.989391C32.9881 2.3444 26.4824 6.93714 24.4679 8.5824C22.2435 10.3988 18.3382 14.3211 16.5317 16.553C10.1022 24.4961 5.11054 35.5719 2.39089 47.9284C0.487658 56.5766 -0.465204 68.0295 0.223604 73.9817C1.58127 85.7125 10.2767 95.0275 22.2013 97.5253C24.875 98.0854 30.4142 98.0847 33.0731 97.5244C38.6958 96.339 43.1677 93.9696 47.1401 90.0706C52.4175 84.891 55.1054 78.5938 55.1435 71.3209C55.1623 67.7397 54.8865 65.8475 53.906 62.8326C50.3051 51.7613 39.7919 44.1698 27.9917 44.1206C25.0207 44.1082 22.5814 44.4004 20.2784 45.0445C18.4982 45.5428 18.5621 45.7962 19.4656 41.8305C21.7913 31.622 26.0896 21.2136 32.7426 9.67931C38.5729 -0.42881 38.7842 -1.16895 35.2236 0.989391ZM97.1171 0.380514C95.4414 1.23529 88.9729 5.65198 86.005 7.96798C82.2962 10.8618 77.8561 15.5645 74.968 19.6573C66.2007 32.0823 60.94 50.4313 60.8874 68.771C60.8736 73.5591 60.9305 74.4691 61.3664 76.443C64.2567 89.5312 76.0301 98.5552 89.4563 97.9734C96.5137 97.6676 102.534 95.1687 107.549 90.4629C112.058 86.2316 114.775 81.0317 115.697 74.8687C116.509 69.4371 115.691 64.3162 113.214 59.3359C109.359 51.5861 102.408 46.3148 93.768 44.5902C89.807 43.7997 83.8717 44.0543 80.6931 45.1514C80.1476 45.3399 79.6602 45.4536 79.6099 45.4044C79.4887 45.2858 80.0984 42.1724 80.6902 39.8893C83.3221 29.7343 87.2163 20.634 93.9366 8.93495C97.5896 2.57522 98.3578 1.11312 98.3578 0.518432C98.3578 -0.053416 98.0375 -0.0888936 97.1171 0.380514Z" fill="#B0C97E" fill-opacity="0.5"/>
</svg>
