<svg width="25" height="24" viewBox="0 0 25 24" fill="none" xmlns="http://www.w3.org/2000/svg">
<path d="M11.0598 22.71C9.97977 22.71 8.88977 22.4 8.04977 21.77L3.76978 18.57C2.63978 17.73 1.75977 15.96 1.75977 14.54V7.12998C1.75977 5.59998 2.87978 3.96997 4.31978 3.42997L9.29977 1.55997C10.2898 1.18997 11.8398 1.18997 12.8298 1.55997L17.7998 3.42997C18.9698 3.86997 19.9598 5.03997 20.2798 6.33997C20.3298 6.55997 20.2798 6.79998 20.1398 6.97998C19.9998 7.15998 19.7798 7.26996 19.5498 7.26996L11.6398 7.27997C10.3698 7.35997 10.0598 7.56999 10.0598 9.41999V14.85C10.0598 16.76 10.3098 17 12.2498 17H18.1698C18.4798 17 18.7598 17.19 18.8698 17.48C18.9798 17.77 18.8998 18.1 18.6698 18.31C18.5598 18.4 18.4698 18.49 18.3598 18.57L14.0798 21.78C13.2198 22.4 12.1398 22.71 11.0598 22.71ZM11.0598 2.78998C10.6098 2.78998 10.1498 2.84998 9.81978 2.97998L4.83977 4.84998C3.99977 5.16998 3.24977 6.23997 3.24977 7.14997V14.56C3.24977 15.5 3.90977 16.82 4.65977 17.38L8.93977 20.58C10.0898 21.43 12.0198 21.43 13.1698 20.58L15.9398 18.51H12.2398C9.47978 18.51 8.54977 17.59 8.54977 14.86V9.42997C8.54977 7.29997 9.05977 5.94998 11.5898 5.78998L12.2398 5.77997H18.3898C18.0898 5.34997 17.6898 5.00998 17.2698 4.84998L12.2998 2.97998C11.9598 2.84998 11.5098 2.78998 11.0598 2.78998Z" fill="currentColor"/>
<path d="M22.4998 11.97H9.2998C8.8898 11.97 8.5498 11.63 8.5498 11.22C8.5498 10.81 8.8898 10.47 9.2998 10.47H22.4998C22.9098 10.47 23.2498 10.81 23.2498 11.22C23.2498 11.63 22.9098 11.97 22.4998 11.97Z" fill="currentColor"/>
<path d="M19.5598 18.5H12.2398C9.47981 18.5 8.5498 17.58 8.5498 14.85V9.41998C8.5498 7.28998 9.0598 5.93997 11.5898 5.77997L12.2398 5.76996H19.5598C22.3198 5.76996 23.2498 6.68998 23.2498 9.41998V14.97C23.2298 17.61 22.2998 18.5 19.5598 18.5ZM12.2398 7.26996L11.6298 7.27997C10.3598 7.35997 10.0498 7.56998 10.0498 9.41998V14.85C10.0498 16.76 10.2998 17 12.2398 17H19.5598C21.4698 17 21.7298 16.75 21.7498 14.97V9.42996C21.7498 7.51996 21.4998 7.27997 19.5598 7.27997H12.2398V7.26996Z" fill="currentColor"/>
<path d="M13.1501 16.01H11.8101C11.4001 16.01 11.0601 15.67 11.0601 15.26C11.0601 14.85 11.4001 14.51 11.8101 14.51H13.1501C13.5601 14.51 13.9001 14.85 13.9001 15.26C13.9001 15.67 13.5701 16.01 13.1501 16.01Z" fill="currentColor"/>
<path d="M18.52 16.01H15.25C14.84 16.01 14.5 15.67 14.5 15.26C14.5 14.85 14.84 14.51 15.25 14.51H18.52C18.93 14.51 19.27 14.85 19.27 15.26C19.27 15.67 18.94 16.01 18.52 16.01Z" fill="currentColor"/>
</svg>
