<svg xmlns="http://www.w3.org/2000/svg" xmlns:xlink="http://www.w3.org/1999/xlink" viewBox="0, 0, 400,485.3080568720379">
<path d="M127.488 1.769 C 105.357 8.129,90.579 27.152,88.548 51.896 L 87.907 59.716 68.361 59.732 C 29.115 59.765,9.495 71.146,1.503 98.513 C -0.650 105.888,-0.787 439.521,1.361 446.597 C 6.812 464.558,21.903 479.306,39.529 483.897 C 47.958 486.092,262.887 486.008,271.427 483.806 C 293.817 478.034,309.319 458.665,311.382 433.886 L 312.073 425.592 331.629 425.576 C 370.886 425.543,390.504 414.165,398.497 386.795 C 400.650 379.420,400.787 45.787,398.639 38.711 C 393.188 20.750,378.097 6.002,360.471 1.411 C 351.633 -0.891,135.590 -0.559,127.488 1.769 M356.554 38.401 C 358.956 40.071,361.549 43.009,362.796 45.474 L 364.929 49.691 364.913 212.760 L 364.898 375.829 362.781 379.531 C 361.616 381.566,359.026 384.552,357.024 386.166 L 353.384 389.100 332.616 389.388 L 311.848 389.676 311.830 251.473 C 311.807 84.890,312.518 92.613,295.647 75.742 C 280.020 60.115,280.878 60.251,195.972 59.924 L 124.171 59.648 124.171 54.768 C 124.171 46.226,129.660 38.296,137.142 36.027 C 138.610 35.582,187.653 35.291,246.127 35.381 L 352.444 35.545 356.554 38.401 M265.204 97.538 C 269.650 99.818,272.495 102.860,274.362 107.328 C 275.667 110.451,275.829 128.807,275.829 273.280 L 275.829 435.721 273.624 439.898 C 272.411 442.196,269.602 445.355,267.381 446.919 L 263.344 449.763 155.450 449.763 L 47.557 449.763 43.447 446.907 C 41.044 445.237,38.451 442.299,37.204 439.834 L 35.071 435.617 35.071 272.747 C 35.071 91.979,34.573 106.662,40.903 100.774 C 46.636 95.440,39.677 95.747,155.251 95.740 C 258.014 95.735,261.808 95.797,265.204 97.538 " stroke="none" fill="currentColor" fill-rule="evenodd"></path>
</svg>