<svg width="83" height="76" viewBox="0 0 83 76" fill="none" xmlns="http://www.w3.org/2000/svg">
<path d="M43.2394 27.3401L49.7294 28.92C50.0794 29.01 50.3294 29.3 50.3294 29.64V74.3C50.3294 74.71 49.9794 75.0601 49.5694 75.0601C49.4794 75.0601 49.3794 75.0301 49.3194 75.0001L17.5394 67.2501C17.1994 67.1901 16.9395 66.87 16.9395 66.53V43.2501C16.9395 42.8401 17.2894 42.49 17.6994 42.49C17.7894 42.49 17.8894 42.52 17.9494 42.55C18.6794 42.71 19.4595 42.8301 20.2495 42.9301C21.0095 43.0301 21.8194 43.0901 22.6394 43.0901C27.2994 43.0901 31.6194 41.4801 35.0494 38.8401C38.5494 36.1301 41.1594 32.2901 42.2894 27.8801C42.3794 27.4701 42.7894 27.2201 43.1994 27.3101L43.2294 27.3401H43.2394ZM48.8194 30.24L43.5594 28.98C42.2394 33.42 39.5595 37.2601 35.9695 40.0301C32.2795 42.9001 27.6594 44.6001 22.6494 44.6001C21.7694 44.6001 20.9194 44.5401 20.0694 44.4401C19.5394 44.3801 18.9994 44.2801 18.4594 44.1901V65.92L48.8194 73.3201V30.23V30.24Z" fill="#5A4499" stroke="#5A4499"/>
<path d="M80.6603 22.83L50.3303 30.2299V73.32L80.6603 65.92V22.83ZM49.3903 28.91L81.2003 21.16C81.2603 21.13 81.3603 21.1 81.4203 21.1C81.8603 21.1 82.1803 21.45 82.1803 21.89V66.52C82.1803 66.87 81.9603 67.18 81.6103 67.24L49.8003 74.99C49.7403 75.02 49.6403 75.05 49.5803 75.05C49.1403 75.05 48.8203 74.6999 48.8203 74.2899V29.63C48.8203 29.28 49.0403 29 49.3903 28.91Z" fill="#5A4499" stroke="#5A4499"/>
<path d="M78.2293 21.89L49.1293 14.77L43.4293 16.19C43.7493 17.1 43.9693 18.05 44.1193 19.02C44.3393 20.25 44.4693 21.51 44.4693 22.77C44.4693 23.68 44.4093 24.6 44.2793 25.54C44.1893 26.2 44.0893 26.83 43.9293 27.49L49.5693 28.88L78.2293 21.89ZM49.3193 13.23L81.5993 21.14C81.8493 21.2 82.0693 21.42 82.1693 21.71C82.2593 22.12 82.0093 22.53 81.5993 22.62L49.7293 30.4C49.6393 30.43 49.5093 30.43 49.3793 30.4L42.8293 28.79C42.4193 28.7 42.1993 28.29 42.2893 27.88C42.5093 27.06 42.6693 26.21 42.7593 25.36C42.8893 24.51 42.9193 23.66 42.9193 22.78C42.9193 21.58 42.8293 20.42 42.6393 19.28C42.4493 18.11 42.1393 17.01 41.7593 15.91L41.7293 15.85C41.6393 15.44 41.8893 15.03 42.2693 14.94L48.9493 13.24C49.0793 13.24 49.1993 13.21 49.3293 13.24L49.3193 13.23Z" fill="#5A4499" stroke="#5A4499"/>
<path d="M75.8703 61.45C75.8703 61.89 75.5203 62.24 75.0803 62.24C74.6703 62.24 74.3203 61.89 74.3203 61.45V29.07C74.3203 28.63 74.6703 28.28 75.0803 28.28C75.5203 28.28 75.8703 28.63 75.8703 29.07V61.45Z" fill="#5A4499" stroke="#5A4499"/>
<path d="M69.5695 56.2799C69.5695 56.6899 69.2195 57.0399 68.7795 57.0399C68.3695 57.0399 68.0195 56.6899 68.0195 56.2799V34.2299C68.0195 33.8199 68.3695 33.47 68.7795 33.47C69.2195 33.47 69.5695 33.8199 69.5695 34.2299V56.2799Z" fill="#5A4499" stroke="#5A4499"/>
<path d="M22.6403 0.939941C28.6603 0.939941 34.1003 3.35993 38.0403 7.32993C42.0103 11.2699 44.4603 16.7499 44.4603 22.7599C44.4603 28.7699 42.0003 34.2199 38.0703 38.1899C34.1003 42.1299 28.6503 44.5799 22.6403 44.5799C16.6303 44.5799 11.1403 42.1199 7.21031 38.1899L7.15031 38.1299C3.24031 34.1899 0.820312 28.7399 0.820312 22.7599C0.820312 16.7799 3.24031 11.2599 7.18031 7.32993C11.1503 3.35993 16.6003 0.939941 22.6403 0.939941ZM37.0003 8.39993C33.3203 4.71993 28.2403 2.44992 22.6403 2.44992C17.0403 2.44992 11.9303 4.71993 8.2803 8.39993C4.6003 12.0799 2.33031 17.1599 2.33031 22.7599C2.33031 28.3599 4.57031 33.4099 8.22031 37.0899L8.2803 37.1199C11.9303 40.7699 17.0403 43.0699 22.6403 43.0699C28.2403 43.0699 33.3203 40.7699 36.9703 37.1199C40.6503 33.4299 42.9203 28.3599 42.9203 22.7599C42.9203 17.1599 40.6503 12.0499 37.0003 8.39993Z" fill="#5A4499" stroke="#5A4499"/>
<path d="M21.8594 1.72992C21.8594 1.28992 22.2094 0.939941 22.6494 0.939941C23.0594 0.939941 23.4094 1.28992 23.4094 1.72992V8.74994C23.4094 9.15994 23.0594 9.50995 22.6494 9.50995C22.2094 9.50995 21.8594 9.15994 21.8594 8.74994V1.72992Z" fill="#5A4499" stroke="#5A4499"/>
<path d="M43.6804 22.01C44.0904 22.01 44.4404 22.36 44.4404 22.77C44.4404 23.18 44.0904 23.53 43.6804 23.53H36.6604C36.2204 23.53 35.9004 23.18 35.9004 22.77C35.9004 22.36 36.2204 22.01 36.6604 22.01H43.6804Z" fill="#5A4499" stroke="#5A4499"/>
<path d="M23.3996 43.81C23.3996 44.22 23.0496 44.57 22.6396 44.57C22.1996 44.57 21.8496 44.22 21.8496 43.81V36.79C21.8496 36.38 22.1996 36.04 22.6396 36.04C23.0496 36.04 23.3996 36.39 23.3996 36.79V43.81Z" fill="#5A4499" stroke="#5A4499"/>
<path d="M1.57054 23.53C1.16054 23.53 0.810547 23.18 0.810547 22.77C0.810547 22.36 1.16054 22.01 1.57054 22.01H8.59055C9.03055 22.01 9.35054 22.36 9.35054 22.77C9.35054 23.18 9.04055 23.53 8.59055 23.53H1.57054Z" fill="#5A4499" stroke="#5A4499"/>
<path d="M15.4311 10.49C15.2111 10.14 15.3311 9.66996 15.6811 9.44996C16.0311 9.22996 16.5011 9.35996 16.7211 9.69996L24.3111 22.36C24.4411 22.61 24.4711 22.86 24.3411 23.08L18.9211 34.7C18.7311 35.08 18.2911 35.24 17.9111 35.05C17.5311 34.89 17.3411 34.42 17.5311 34.04L22.7911 22.8L15.4211 10.49H15.4311Z" fill="#5A4499" stroke="#5A4499"/>
</svg>
