<svg width="69" height="90" viewBox="0 0 69 90" fill="none" xmlns="http://www.w3.org/2000/svg">
<path d="M34.8069 1.61845C38.8669 8.13845 43.5669 12.8285 48.9169 16.1985C54.3069 19.5685 60.3769 21.6485 67.1869 22.9085C67.5369 22.9685 67.7869 23.2885 67.7869 23.6685V45.0584C67.7869 71.5184 60.1669 74.6284 50.3069 78.6684C45.4269 80.6484 39.9769 82.8585 34.7169 88.4985C34.4369 88.8185 33.9569 88.8185 33.6469 88.5285L33.6169 88.4985C28.3569 82.8585 22.9369 80.6584 18.0569 78.6684C8.19687 74.6384 0.546875 71.5184 0.546875 45.0584V23.6685C0.546875 23.2585 0.856877 22.9485 1.23688 22.9085C8.00688 21.6185 14.0569 19.5385 19.4369 16.1985C24.7869 12.8285 29.4869 8.13845 33.5169 1.61845C33.7369 1.26845 34.2069 1.14845 34.5869 1.36845C34.6769 1.42845 34.7469 1.52845 34.8069 1.61845ZM48.0969 17.4584C42.8369 14.1484 38.2069 9.61845 34.1769 3.43845C30.1469 9.60845 25.5169 14.1484 20.2269 17.4584C14.8369 20.8584 8.79687 22.9685 2.05687 24.2885V45.0385C2.05687 70.4885 9.29688 73.4184 18.6269 77.2284C23.4769 79.2084 28.8669 81.4184 34.1869 86.8684C39.4769 81.4184 44.8969 79.2184 49.7469 77.2284C59.0669 73.4184 66.2869 70.4885 66.2869 45.0385V24.2885C59.5469 22.9685 53.4969 20.8584 48.1169 17.4584H48.0969Z" fill="#5A4499" stroke="#5A4499"/>
<path d="M34.1765 24.9584C39.6865 24.9584 44.6965 27.2284 48.3165 30.8484C51.9365 34.4684 54.2065 39.4784 54.2065 44.9884C54.2065 50.4984 51.9365 55.5385 48.3165 59.1585C44.6965 62.7785 39.6865 65.0185 34.1765 65.0185C28.6665 65.0185 23.6265 62.7785 20.0065 59.1585C16.3865 55.5385 14.1465 50.5284 14.1465 44.9884C14.1465 39.4484 16.3865 34.4684 20.0065 30.8484C23.6265 27.2284 28.6365 24.9584 34.1765 24.9584ZM47.2465 31.9185C43.9065 28.5485 39.2765 26.4984 34.1765 26.4984C29.0765 26.4984 24.4465 28.5485 21.0765 31.9185C17.7365 35.2585 15.6565 39.8884 15.6565 44.9884C15.6565 50.0884 17.7365 54.7184 21.0765 58.0884C24.4465 61.4284 29.0765 63.5085 34.1765 63.5085C39.2765 63.5085 43.9065 61.4284 47.2465 58.0884C50.6165 54.7184 52.6665 50.0884 52.6665 44.9884C52.6665 39.8884 50.6165 35.2585 47.2465 31.9185Z" fill="#5A4499" stroke="#5A4499"/>
<path d="M20.9161 47.3485C20.7261 46.9685 20.8861 46.5285 21.2661 46.3385C21.6461 46.1485 22.0861 46.3085 22.2761 46.6885L25.4261 53.2385L46.2761 34.9685C46.5861 34.6885 47.0661 34.7185 47.3161 35.0285C47.5961 35.3485 47.5661 35.8185 47.2561 36.0985L25.7461 54.9985C25.6861 55.0285 25.6161 55.0885 25.5261 55.1285C25.1461 55.3185 24.7061 55.1585 24.5161 54.7785L20.9261 47.3485H20.9161Z" fill="#5A4499" stroke="#5A4499"/>
<path d="M62.3965 28.7384C62.3965 28.2984 62.7465 27.9484 63.1865 27.9484C63.5965 27.9484 63.9465 28.2984 63.9465 28.7384V55.6984C63.9465 56.1084 63.5965 56.4584 63.1865 56.4584C62.7465 56.4584 62.3965 56.1084 62.3965 55.6984V28.7384Z" fill="#5A4499" stroke="#5A4499"/>
<path d="M57.5156 39.0085C57.5156 38.5985 57.8656 38.2485 58.2756 38.2485C58.6856 38.2485 59.0356 38.5985 59.0356 39.0085V55.6985C59.0356 56.1085 58.6856 56.4585 58.2756 56.4585C57.8656 56.4585 57.5156 56.1085 57.5156 55.6985V39.0085Z" fill="#5A4499" stroke="#5A4499"/>
</svg>
