<svg width="80" height="52" viewBox="0 0 80 52" fill="none" xmlns="http://www.w3.org/2000/svg">
<path d="M5.0296 1.10501H74.6396C75.7096 1.10501 76.6896 1.54501 77.4096 2.26501C78.1296 2.99501 78.5696 3.96501 78.5696 5.03501V46.955C78.5696 48.025 78.1296 49.005 77.4096 49.725C76.6896 50.445 75.7096 50.895 74.6396 50.895H5.0296C3.9596 50.895 2.97961 50.455 2.25961 49.725C1.53961 49.005 1.09961 48.025 1.09961 46.955V5.03501C1.09961 3.96501 1.53961 2.98501 2.25961 2.26501C2.98961 1.54501 3.9596 1.10501 5.0296 1.10501ZM74.6396 2.61501H5.0296C4.3696 2.61501 3.76959 2.89501 3.32959 3.34501C2.88959 3.78501 2.60959 4.38501 2.60959 5.04501V46.965C2.60959 47.625 2.88959 48.225 3.32959 48.665C3.76959 49.105 4.3696 49.385 5.0296 49.385H74.6396C75.2996 49.385 75.8996 49.105 76.3396 48.665C76.7796 48.225 77.0596 47.625 77.0596 46.965V5.04501C77.0596 4.38501 76.7796 3.78501 76.3396 3.34501C75.8996 2.90501 75.2996 2.61501 74.6396 2.61501Z" fill="#5A4499" stroke="#5A4499"/>
<path d="M30.3795 39.685H9.27954C8.83954 39.685 8.51953 39.335 8.51953 38.935V38.905C8.51953 33.045 11.4495 29.265 15.1995 27.595C16.6495 26.935 18.2195 26.615 19.8295 26.615C21.4395 26.615 22.9796 26.925 24.4296 27.595L24.5195 27.625C28.2395 29.295 31.1295 33.075 31.1295 38.935C31.1295 39.345 30.7796 39.685 30.3696 39.685H30.3795ZM10.0295 38.175H29.5895C29.3395 33.455 26.9395 30.395 23.8895 29.005L23.8295 28.975C22.5695 28.405 21.1795 28.125 19.8295 28.125C18.4795 28.125 17.0595 28.405 15.7995 28.975C12.7095 30.325 10.2896 33.415 10.0396 38.175H10.0295ZM19.8195 12.315C21.6795 12.315 23.4095 13.075 24.6395 14.295C25.8695 15.555 26.6196 17.255 26.6196 19.145C26.6196 21.035 25.8595 22.705 24.6395 23.965C23.3795 25.195 21.6795 25.945 19.8195 25.945C17.9595 25.945 16.2295 25.185 14.9695 23.965C13.7395 22.705 12.9895 21.005 12.9895 19.145C12.9895 17.285 13.7495 15.555 14.9695 14.295C16.2295 13.065 17.9295 12.315 19.8195 12.315ZM23.5695 15.375C22.5895 14.425 21.2695 13.835 19.8195 13.835C18.3695 13.835 17.0196 14.435 16.0396 15.375C15.0896 16.355 14.4995 17.675 14.4995 19.155C14.4995 20.635 15.0996 21.925 16.0396 22.905C17.0196 23.855 18.3396 24.445 19.8195 24.445C21.2995 24.445 22.5895 23.845 23.5695 22.905C24.5195 21.925 25.1096 20.605 25.1096 19.155C25.1096 17.705 24.5095 16.355 23.5695 15.375Z" fill="#5A4499" stroke="#5A4499"/>
<path d="M38.5393 18.145C38.1293 18.145 37.7793 17.795 37.7793 17.395C37.7793 16.955 38.1293 16.605 38.5393 16.605H70.4093C70.8193 16.605 71.1693 16.955 71.1693 17.395C71.1693 17.805 70.8193 18.145 70.4093 18.145H38.5393Z" fill="#5A4499" stroke="#5A4499"/>
<path d="M38.5393 27.785C38.1293 27.785 37.7793 27.435 37.7793 27.025C37.7793 26.585 38.1293 26.265 38.5393 26.265H61.1493C61.5593 26.265 61.9093 26.585 61.9093 27.025C61.9093 27.435 61.5593 27.785 61.1493 27.785H38.5393Z" fill="#5A4499" stroke="#5A4499"/>
<path d="M38.5393 35.375C38.1293 35.375 37.7793 35.065 37.7793 34.615C37.7793 34.205 38.1293 33.855 38.5393 33.855H52.2693C52.6793 33.855 53.0193 34.205 53.0193 34.615C53.0193 35.055 52.6693 35.375 52.2693 35.375H38.5393Z" fill="#5A4499" stroke="#5A4499"/>
</svg>
