<svg width="47" height="58" viewBox="0 0 47 58" fill="none" xmlns="http://www.w3.org/2000/svg">
<path d="M46 14.4167V57H1V1H32.2M46 14.4167L32.2 1M46 14.4167H32.2V1" stroke="#222222"/>
<rect x="16" y="41" width="30" height="16" fill="#222222"/>
<path d="M19.6284 52.2319C19.6284 52.0636 19.6517 51.9222 19.6982 51.8076C19.7484 51.6895 19.8164 51.5946 19.9023 51.5229C19.9883 51.4513 20.0885 51.3994 20.2031 51.3672C20.3177 51.335 20.4412 51.3188 20.5737 51.3188C20.6991 51.3188 20.8172 51.335 20.9282 51.3672C21.0428 51.3994 21.1431 51.4513 21.229 51.5229C21.3149 51.5946 21.383 51.6895 21.4331 51.8076C21.4832 51.9222 21.5083 52.0636 21.5083 52.2319C21.5083 52.3931 21.4832 52.5309 21.4331 52.6455C21.383 52.7601 21.3149 52.855 21.229 52.9302C21.1431 53.0054 21.0428 53.0591 20.9282 53.0913C20.8172 53.1271 20.6991 53.145 20.5737 53.145C20.4412 53.145 20.3177 53.1271 20.2031 53.0913C20.0885 53.0591 19.9883 53.0054 19.9023 52.9302C19.8164 52.855 19.7484 52.7601 19.6982 52.6455C19.6517 52.5309 19.6284 52.3931 19.6284 52.2319ZM24.79 48.8428H25.3379C25.8499 48.8428 26.2331 48.7425 26.4873 48.542C26.7415 48.3379 26.8687 48.0425 26.8687 47.6558C26.8687 47.2655 26.7612 46.9772 26.5464 46.791C26.3351 46.6048 26.0021 46.5117 25.5474 46.5117H24.79V48.8428ZM28.5498 47.5967C28.5498 48.4417 28.2848 49.0881 27.7549 49.5356C27.2285 49.9832 26.4784 50.207 25.5044 50.207H24.79V53H23.125V45.1475H25.6333C26.5858 45.1475 27.3091 45.3534 27.8032 45.7651C28.3009 46.1733 28.5498 46.7839 28.5498 47.5967ZM36.5474 48.9985C36.5474 50.2912 36.1785 51.2812 35.4409 51.9688C34.7069 52.6562 33.6452 53 32.2559 53H30.0322V45.1475H32.4976C33.7795 45.1475 34.7749 45.4858 35.4839 46.1626C36.1929 46.8394 36.5474 47.7847 36.5474 48.9985ZM34.8179 49.0415C34.8179 47.355 34.0731 46.5117 32.5835 46.5117H31.6973V51.625H32.4116C34.0158 51.625 34.8179 50.7638 34.8179 49.0415ZM39.813 53H38.1748V45.1475H42.6758V46.5117H39.813V48.5366H42.4771V49.8955H39.813V53Z" fill="#C0A378"/>
</svg>
