<svg width="47" height="58" viewBox="0 0 47 58" fill="none" xmlns="http://www.w3.org/2000/svg">
<path d="M46 14.4167V57H1V1H32.2M46 14.4167L32.2 1M46 14.4167H32.2V1" stroke="#222222"/>
<rect x="16" y="41" width="30" height="16" fill="#222222"/>
<path d="M19.6284 52.2319C19.6284 52.0636 19.6517 51.9222 19.6982 51.8076C19.7484 51.6895 19.8164 51.5946 19.9023 51.5229C19.9883 51.4513 20.0885 51.3994 20.2031 51.3672C20.3177 51.335 20.4412 51.3188 20.5737 51.3188C20.6991 51.3188 20.8172 51.335 20.9282 51.3672C21.0428 51.3994 21.1431 51.4513 21.229 51.5229C21.3149 51.5946 21.383 51.6895 21.4331 51.8076C21.4832 51.9222 21.5083 52.0636 21.5083 52.2319C21.5083 52.3931 21.4832 52.5309 21.4331 52.6455C21.383 52.7601 21.3149 52.855 21.229 52.9302C21.1431 53.0054 21.0428 53.0591 20.9282 53.0913C20.8172 53.1271 20.6991 53.145 20.5737 53.145C20.4412 53.145 20.3177 53.1271 20.2031 53.0913C20.0885 53.0591 19.9883 53.0054 19.9023 52.9302C19.8164 52.855 19.7484 52.7601 19.6982 52.6455C19.6517 52.5309 19.6284 52.3931 19.6284 52.2319ZM26.1543 53H24.4893V46.5332H22.3569V45.1475H28.2866V46.5332H26.1543V53ZM35.8438 53H33.9424L32.1162 50.0298L30.29 53H28.5068L31.1118 48.9502L28.6733 45.1475H30.5103L32.2021 47.9727L33.8618 45.1475H35.6558L33.1904 49.0415L35.8438 53ZM39.8613 53H38.1963V46.5332H36.064V45.1475H41.9937V46.5332H39.8613V53Z" fill="#C0A378"/>
</svg>
