<?xml version="1.0" encoding="utf-8"?><svg viewBox="0 0 26 28" xmlns="http://www.w3.org/2000/svg" xmlns:xlink="http://www.w3.org/1999/xlink"><style>:root>svg{display:none}:root>svg:target{display:block}</style><svg fill="none" viewBox="0 0 22 22" id="arrow" xmlns="http://www.w3.org/2000/svg"><path fill-rule="evenodd" clip-rule="evenodd" d="M7.753.595h12.08c.74 0 1.341.601 1.341 1.342v12.08a1.342 1.342 0 1 1-2.684 0v-8.84L2.887 20.782a1.342 1.342 0 0 1-1.899-1.898L16.592 3.28H7.753a1.342 1.342 0 1 1 0-2.685Z" fill="currentColor"/></svg><svg fill="none" viewBox="0 0 13 12" id="arrow-down" xmlns="http://www.w3.org/2000/svg"><path d="M8.13 10.677c-.724 1.254-2.536 1.254-3.26 0L.387 2.912C-.338 1.657.568.088 2.017.088h8.966c1.449 0 2.355 1.569 1.63 2.824L8.13 10.677Z" fill="currentColor"/></svg><svg fill="none" viewBox="0 0 13 12" id="arrow-down-white" xmlns="http://www.w3.org/2000/svg"><path d="M8.13 10.677c-.724 1.254-2.536 1.254-3.26 0L.387 2.912C-.338 1.657.568.088 2.017.088h8.966c1.449 0 2.355 1.569 1.63 2.824L8.13 10.677Z" fill="#FFF"/></svg><svg fill="none" viewBox="0 0 16 16" id="burger" xmlns="http://www.w3.org/2000/svg"><path d="M2.667 0h2a2.667 2.667 0 0 1 2.666 2.667v2a2.667 2.667 0 0 1-2.666 2.666h-2A2.667 2.667 0 0 1 0 4.667v-2A2.667 2.667 0 0 1 2.667 0ZM11.333 0h2a2.667 2.667 0 0 1 2.666 2.667v2a2.667 2.667 0 0 1-2.666 2.666h-2a2.667 2.667 0 0 1-2.667-2.666v-2A2.667 2.667 0 0 1 11.333 0ZM2.667 8.667h2a2.667 2.667 0 0 1 2.666 2.666v2A2.667 2.667 0 0 1 4.667 16h-2A2.667 2.667 0 0 1 0 13.333v-2a2.667 2.667 0 0 1 2.667-2.666ZM11.333 8.667h2a2.667 2.667 0 0 1 2.666 2.666v2A2.667 2.667 0 0 1 13.333 16h-2a2.667 2.667 0 0 1-2.667-2.667v-2a2.667 2.667 0 0 1 2.667-2.666Z" fill="currentColor"/></svg><svg fill="none" viewBox="0 0 16 16" id="close" xmlns="http://www.w3.org/2000/svg"><path d="M14.73 3.837 10.566 8l4.164 4.163a1.814 1.814 0 0 1-1.284 3.1 1.81 1.81 0 0 1-1.284-.533L8 10.567 3.836 14.73a1.81 1.81 0 0 1-2.567 0 1.814 1.814 0 0 1 0-2.567L5.432 8 1.269 3.837a1.814 1.814 0 0 1 0-2.568c.71-.71 1.857-.71 2.567 0l4.163 4.164 4.163-4.164c.71-.71 1.858-.71 2.568 0s.71 1.858 0 2.568Z" fill="currentColor"/></svg><svg fill="none" viewBox="0 0 26 20" id="email" xmlns="http://www.w3.org/2000/svg"><path d="M23 0H3C1.3 0 0 1.3 0 3v14c0 1.7 1.3 3 3 3h20c1.7 0 3-1.3 3-3V3c0-1.7-1.3-3-3-3Zm-1.3 14.2c.4.4.5 1 .1 1.4-.2.3-.5.4-.8.4-.2 0-.5-.1-.7-.2l-5.1-4.4-1.6 1.4c-.1.1-.4.2-.6.2-.2 0-.5-.1-.7-.2l-1.6-1.4-5.1 4.4c-.1.1-.4.2-.6.2-.3 0-.6-.1-.8-.3-.4-.4-.3-1 .1-1.4l4.9-4.2-4.9-4.2c-.4-.4-.5-1-.1-1.4.4-.4 1-.5 1.4-.1l7.3 6.4 7.3-6.4c.4-.4 1-.3 1.4.1.4.4.3 1-.1 1.4L16.8 10l4.9 4.2Z" fill="currentColor"/></svg><svg fill="none" viewBox="0 0 24 24" id="facebook" xmlns="http://www.w3.org/2000/svg"><g clip-path="url(#ga)"><path d="M17.25 0H6.75C3 0 0 3 0 6.75v10.5C0 21 3 24 6.75 24H12v-9H9c-.45 0-.75-.3-.75-.75V12c0-.45.3-.75.75-.75h3V9c0-2.475 1.275-4.5 3.75-4.5h3c.45 0 .75.3.75.75V7.5c0 .45-.3.75-.75.75H15.9a.161.161 0 0 0-.15.15v2.85h3.75c.225 0 .45.15.6.3.15.15.15.45.075.675l-1.5 2.25C18.6 14.85 18.3 15 18 15h-2.25v9h1.5C21 24 24 21 24 17.25V6.75C24 3 21 0 17.25 0Z" fill="currentColor"/></g><defs><clipPath id="ga"><path fill="#fff" d="M0 0h24v24H0z"/></clipPath></defs></svg><svg fill="none" viewBox="0 0 24 24" id="instagram" xmlns="http://www.w3.org/2000/svg"><g clip-path="url(#ha)" fill="currentColor"><path d="M23.923 7.084a8.675 8.675 0 0 0-.559-2.949A6.133 6.133 0 0 0 19.855.632a8.817 8.817 0 0 0-2.913-.559C15.66.016 15.253 0 11.999 0 8.744 0 8.327 0 7.054.073c-.995.02-1.98.21-2.912.559A6.14 6.14 0 0 0 .633 4.135c-.35.93-.54 1.914-.558 2.907C.017 8.324 0 8.73 0 11.98c0 3.249 0 3.664.075 4.936.02.995.208 1.977.558 2.91a6.132 6.132 0 0 0 3.51 3.502c.93.363 1.915.566 2.913.598C8.339 23.983 8.746 24 12 24c3.255 0 3.672 0 4.945-.075a8.796 8.796 0 0 0 2.913-.557 6.152 6.152 0 0 0 3.509-3.503 8.75 8.75 0 0 0 .558-2.91c.058-1.28.075-1.686.075-4.936-.003-3.25-.003-3.662-.077-4.935ZM11.99 18.124a6.155 6.155 0 0 1-6.162-6.152 6.155 6.155 0 0 1 6.162-6.15c1.634-.001 3.2.647 4.356 1.8a6.146 6.146 0 0 1 0 8.7 6.166 6.166 0 0 1-4.356 1.801Zm6.406-11.096a1.437 1.437 0 0 1-1.436-1.434 1.43 1.43 0 0 1 .886-1.325 1.439 1.439 0 0 1 1.876.776 1.434 1.434 0 0 1-1.326 1.983Z"/><path d="M11.99 15.968a3.999 3.999 0 0 0 4.003-3.996 3.999 3.999 0 0 0-4.002-3.995 3.999 3.999 0 0 0-4.003 3.995 3.999 3.999 0 0 0 4.003 3.996Z"/></g><defs><clipPath id="ha"><path fill="#fff" d="M0 0h24v24H0z"/></clipPath></defs></svg><svg fill="none" viewBox="0 0 24 28" id="marker" xmlns="http://www.w3.org/2000/svg"><path fill-rule="evenodd" clip-rule="evenodd" d="M12.682 27.168C15.225 25.878 24 20.817 24 12.405 24 5.922 18.627.667 12 .667S0 5.922 0 12.405c0 8.412 8.775 13.473 11.318 14.763.433.22.93.22 1.364 0ZM12 17.436c2.84 0 5.143-2.253 5.143-5.031 0-2.778-2.303-5.03-5.143-5.03s-5.143 2.252-5.143 5.03c0 2.778 2.303 5.03 5.143 5.03Z" fill="currentColor"/></svg><svg fill="none" viewBox="0 0 20 20" id="phone" xmlns="http://www.w3.org/2000/svg"><path d="M.006 2.542C-.095 1.112 1.116 0 2.546 0h3.06c.734 0 1.396.442 1.678 1.121L8.564 4.2c.312.75.09 1.616-.542 2.124l-.798.64a.953.953 0 0 0-.266 1.182 13.72 13.72 0 0 0 4.638 5.122c.412.27.956.162 1.263-.223l.831-1.041a1.816 1.816 0 0 1 2.12-.544l3.071 1.283A1.822 1.822 0 0 1 20 14.424V17.5c0 1.433-1.151 2.596-2.577 2.494C8.303 19.345.653 11.702.006 2.542Z" fill="currentColor"/></svg><svg fill="none" viewBox="0 0 21 24" id="play" xmlns="http://www.w3.org/2000/svg"><path d="M19.058 9.147c2.196 1.268 2.196 4.438 0 5.706L5.47 22.698C3.274 23.966.529 22.381.529 19.845V4.155c0-2.536 2.745-4.12 4.94-2.853l13.589 7.845Z" fill="#FFF"/></svg><svg fill="none" viewBox="0 0 24 24" id="star" xmlns="http://www.w3.org/2000/svg"><path fill-rule="evenodd" clip-rule="evenodd" d="M24 12h-.029l-.016.002h-.02l-.023.002-.027.002-.03.003-.034.003-.037.004-.041.005-.044.005-.048.007-.05.007-.055.009-.058.01-.06.01-.064.012-.067.013-.07.015-.074.016-.076.017-.08.02-.082.02-.085.022-.088.024-.09.025-.093.027-.096.03-.099.03-.1.034-.104.034-.105.037-.108.039-.11.04-.112.043-.114.045-.116.047-.118.05-.12.051-.122.053-.123.056-.125.058-.126.06-.128.063-.129.065-.13.067-.131.069-.133.071-.133.074-.134.076-.135.078-.136.08-.137.084-.137.085-.137.087-.138.089-.138.091-.139.094-.138.096-.139.098-.138.1-.139.102-.138.104-.138.106-.137.108-.137.11-.137.11-.136.114-.135.115-.135.117-.134.119-.133.12-.131.121-.131.124-.13.124-.129.126-.127.127-.126.129-.124.13-.124.13-.122.132-.12.133-.118.134-.117.134-.116.135-.113.136-.112.137-.11.137-.108.137-.106.138-.104.138-.102.139-.1.138-.098.139-.096.138-.094.139-.092.138-.09.138-.087.137-.085.137-.083.137-.08.136-.079.135-.076.134-.074.134-.072.132-.069.132-.067.13-.065.13-.063.127-.06.126-.058.125-.056.123-.054.122-.051.12-.05.118-.047.117-.045.114-.043.112-.041.11-.039.108-.037.106-.035.104-.033.1-.03.1-.03.095-.028.094-.025.09-.024.088-.023.086-.02.082-.02.08-.017.076-.016.074-.015.07-.013.067-.012.065-.011.06-.01.059-.008.054-.008.051-.006.048-.006.045-.005.04-.004.038-.003.034-.003.031-.002.027-.001.024-.002.02v.039l-.001.005V23.972l-.002-.016v-.019l-.002-.023-.002-.027-.002-.03-.004-.033-.004-.037-.004-.04-.006-.045-.006-.047-.007-.05-.009-.055-.01-.057-.01-.06-.012-.064-.013-.067-.014-.07-.016-.073-.018-.076-.019-.08-.02-.081-.022-.085-.024-.087-.025-.09-.027-.094-.03-.095-.03-.099-.033-.1-.034-.103-.037-.106-.039-.107-.04-.11-.043-.112-.045-.114-.047-.116-.049-.118-.05-.12-.054-.121-.056-.123-.058-.125-.06-.126-.062-.127-.065-.13-.066-.13-.07-.13-.07-.133-.074-.133-.076-.134-.078-.136-.08-.135-.083-.137-.085-.137-.087-.137-.089-.138-.091-.138-.094-.139-.095-.138-.098-.139-.1-.138-.102-.139-.103-.138-.106-.138-.108-.137-.11-.137-.111-.137-.113-.136-.115-.136-.117-.134-.118-.134-.12-.133-.122-.132-.123-.13-.124-.13-.126-.13-.127-.127-.129-.126-.13-.125-.13-.123-.132-.122-.132-.12-.134-.119-.134-.117-.135-.116-.136-.113L6.38 15l-.137-.11-.137-.108-.138-.106-.138-.105-.139-.102-.138-.1-.139-.099-.138-.096-.139-.094L5 13.99l-.138-.09-.138-.088-.137-.085-.136-.083-.136-.081-.135-.079-.135-.076-.133-.074-.133-.072-.131-.07-.13-.067-.13-.065-.128-.063-.126-.06-.125-.059-.124-.056-.122-.054-.12-.051-.118-.05-.116-.047-.115-.046-.112-.043-.11-.04-.109-.04-.106-.037-.103-.035-.102-.033-.098-.031-.097-.03-.093-.027-.091-.026-.088-.024-.086-.023-.083-.02-.08-.02-.076-.018-.074-.016-.07-.015-.068-.013-.065-.012-.061-.011-.058-.01-.055-.009-.051-.007-.048-.007-.045-.006-.042-.005-.037-.004-.035-.003-.03-.002-.028-.003-.024-.001-.02-.001L.03 12H.008L.002 12H0 .026l.016-.001.02-.001.022-.002.026-.002.03-.002.033-.003.037-.004.04-.005.044-.005.047-.007.05-.007.054-.008.057-.01.06-.01.064-.012.066-.013.07-.014.073-.016.076-.017.079-.02.081-.02.085-.021.087-.024.09-.025.093-.027.096-.029.098-.03.1-.033.103-.035.105-.036.108-.039.11-.04.111-.042.114-.045.116-.047.117-.049.12-.05.121-.054.123-.055.125-.058.126-.06.127-.062.129-.064.13-.067.131-.069.132-.07.134-.074.134-.076.135-.078.135-.08.137-.082.137-.085.137-.087.138-.089.138-.09.138-.094.139-.096.139-.097.138-.1.139-.101.138-.104.138-.106.137-.107.138-.11.136-.111.136-.113.136-.115.134-.117.134-.118.133-.12.132-.121.131-.123.13-.124.129-.126.128-.127.126-.128.125-.13.123-.13.122-.132.12-.133.12-.133.117-.135.115-.135.114-.136.112-.136.11-.137.109-.137.106-.138.104-.138.103-.139.1-.138.099-.139.096-.138.094-.139.092-.138.09-.138.088-.138.085-.137.084-.136.08-.136.08-.136.076-.134.074-.134.072-.132.07-.132.068-.13.065-.13.063-.128.06-.126.059-.125.056-.124.054-.122.052-.12.05-.119.047-.116.046-.115.043-.113.042-.11.039-.108.037-.107.035-.103.034-.102.031-.099.03-.096.027-.094.026-.091.025-.089.022-.085.021-.083.02-.08.017-.077.017-.074.014-.071.014-.068.012-.065.011-.061.01-.059.009-.055.008-.051.006-.049.006-.045.005-.041.004-.039.004-.034.002-.031.002-.028.002-.024.001-.02L12 .031V.01L12 .003V0 .025l.001.016.001.019.002.022.002.026.002.03.003.032.004.037.004.04.006.043.006.047.007.05.008.054.01.056.01.06.012.064.013.066.014.07.016.072.017.076.018.078.02.082.022.084.024.087.025.09.027.093.029.095.03.098.033.1.034.103.036.105.038.107.04.11.043.111.044.114.047.115.049.118.05.12.054.12.055.123.057.125.06.126.062.127.064.129.066.13.07.13.07.133.073.133.076.134.077.135.08.136.083.136.084.137.087.137.088.138.091.138.094.138.095.139.097.138.1.139.101.138.104.139.105.138.108.137.109.138.111.136.113.136.115.136.116.135.118.134.12.133.121.132.123.13.124.131.126.129.127.127.128.127.13.125.13.123.131.122.133.121.133.12.135.116.135.116.136.114.136.112.137.11.137.109.138.107.138.104.139.103.138.1.139.099.138.096.139.095.138.092.138.09.138.088.137.085.136.084.137.081.135.08.134.076.134.074.133.073.131.07.131.067.13.066.128.063.126.06.125.06.124.056.122.054.12.052.12.05.116.048.115.045.113.044.11.041.109.04.106.037.104.036.102.033.099.032.096.03.095.027.09.026.09.025.085.022.084.021.08.02.077.018.074.016.072.015.068.014.065.012.061.012.06.01.054.008.052.008.049.007.045.006.042.005.038.004.035.003.032.003.028.002.024.002.021.001.017.001h.031L24 12Z" fill="currentColor"/></svg></svg>