<svg width="35" height="35" fill="none" xmlns="http://www.w3.org/2000/svg"><path d="M10.467 12.734c0-.496-.405-.9-.902-.9H5.33a.902.902 0 00-.903.9V15.7c0 .497.405.9.903.9h4.234a.902.902 0 00.902-.9v-2.966zM9.09 15.222H5.807v-2.01h3.282v2.01zm4.122 1.378h4.237a.9.9 0 00.9-.9v-2.966c0-.496-.404-.9-.9-.9h-4.237c-.496 0-.9.404-.9.9V15.7a.9.9 0 00.9.9zm.479-3.387h3.28v2.01h-3.28v-2.01z" fill="#66A182"/><path d="M30.924 18.683V6.088c0-1.094-.89-1.984-1.985-1.984h-2.816V2.945a.69.69 0 00-.69-.69h-5.216a.69.69 0 00-.69.69v1.159h-7.99V2.945a.69.69 0 00-.69-.69H5.63a.69.69 0 00-.69.69v1.159H1.99c-1.095 0-1.985.89-1.985 1.984v3.336a.706.706 0 000 .145v20.516c0 1.094.89 1.984 1.985 1.984h9.25a.69.69 0 000-1.379H1.99a.607.607 0 01-.606-.605V10.186h28.163v7.962a7.435 7.435 0 00-1.986-.27c-4.102 0-7.44 3.335-7.44 7.433a7.41 7.41 0 002.31 5.38h-5.576a.69.69 0 000 1.378h7.61a7.402 7.402 0 003.096.675c4.102 0 7.44-3.334 7.44-7.432 0-2.89-1.66-5.4-4.076-6.629zM20.906 3.635h3.838v2.319h-3.838v-2.32zm-14.588 0h3.84v2.319h-3.84v-2.32zM1.383 8.808v-2.72c0-.334.272-.606.606-.606h2.95v1.16c0 .382.31.69.69.69h5.218a.69.69 0 00.69-.69v-1.16h7.99v1.16c0 .382.309.69.69.69h5.216a.69.69 0 00.69-.69v-1.16h2.816c.335 0 .607.272.607.606v2.72H1.383zm26.866 22.518v-.417a.69.69 0 00-1.378 0v.417a6.07 6.07 0 01-5.333-5.325h.418a.69.69 0 100-1.379h-.418a6.069 6.069 0 015.333-5.325v.417a.69.69 0 001.378 0v-.417a6.069 6.069 0 015.333 5.325h-.418a.69.69 0 000 1.379h.418a6.069 6.069 0 01-5.333 5.325z" fill="#66A182"/><path d="M10.467 18.789c0-.497-.405-.9-.902-.9H5.33a.902.902 0 00-.903.9v2.966c0 .497.405.9.903.9h4.234a.902.902 0 00.902-.9v-2.966zM9.09 21.276H5.807v-2.009h3.282v2.01zm3.222.477c0 .497.404.902.9.902h4.237c.496 0 .9-.405.9-.902v-2.964a.902.902 0 00-.9-.902h-4.237c-.496 0-.9.404-.9.902v2.964zm1.379-2.488h3.28v2.012h-3.28v-2.012zm-4.126 4.676H5.33a.903.903 0 00-.903.902v2.965c0 .497.405.902.903.902h4.234a.903.903 0 00.902-.902v-2.965a.903.903 0 00-.902-.902zm-.476 3.39H5.807V25.32h3.282v2.011zm9.261.477V24.84c0-.496-.405-.9-.901-.9h-4.237c-.496 0-.9.404-.9.9v2.967c0 .496.404.9.9.9h4.237c.496 0 .9-.404.9-.9zm-1.38-.479h-3.28v-2.01h3.28v2.01zM20.986 16.6h4.236a.9.9 0 00.9-.9v-2.966a.9.9 0 00-.9-.9h-4.236a.9.9 0 00-.9.9V15.7a.9.9 0 00.9.9zm.478-3.387h3.28v2.01h-3.28v-2.01zm6.096 8.954a.69.69 0 00-.69.69v2.647l-1.054 1.054a.69.69 0 10.974.975l1.257-1.256a.689.689 0 00.202-.488v-2.933a.69.69 0 00-.689-.69zM14.138 30.69h-.013a.69.69 0 100 1.379h.013a.69.69 0 000-1.379z" fill="#66A182"/></svg>