<svg width="35" height="35" fill="none" xmlns="http://www.w3.org/2000/svg"><path d="M11.843 10.643a3.752 3.752 0 00-3.75 3.745 3.752 3.752 0 003.75 3.746c2.068 0 3.75-1.68 3.75-3.746a3.752 3.752 0 00-3.75-3.745zm0 6.197a2.457 2.457 0 01-2.456-2.452 2.458 2.458 0 014.913 0 2.457 2.457 0 01-2.457 2.452z" fill="#66A182"/><path d="M33.245 1.077H17.562a.646.646 0 00-.647.646v4.813c-1.551-.955-3.313-1.472-5.072-1.472-2.539 0-5.081 1.085-6.975 2.977-1.894 1.891-2.98 4.43-2.98 6.967 0 1.608.723 3.393 1.33 4.606.966 1.938 2.45 3.774 3.719 5.515-3.618.767-5.826 2.315-5.826 4.134 0 1.347 1.2 2.56 3.378 3.416 1.987.78 4.615 1.21 7.401 1.21 2.786 0 5.414-.43 7.401-1.21 2.178-.856 3.378-2.069 3.378-3.416 0-1.837-2.235-3.39-5.901-4.15 1.264-1.738 2.737-3.566 3.7-5.499.607-1.213 1.331-2.998 1.331-4.606 0-.345-.02-.693-.06-1.039l1.251-1.608h10.255c.357 0 .646-.29.646-.646V1.723a.647.647 0 00-.646-.646zM19.928 27.575c.934.534 1.448 1.133 1.448 1.688 0 .756-.956 1.583-2.558 2.212-1.84.723-4.3 1.121-6.928 1.121s-5.089-.398-6.929-1.12c-1.601-.63-2.557-1.456-2.557-2.213 0-.546.5-1.138 1.408-1.666.987-.573 2.36-1.027 3.983-1.318 2.425 3.16 3.412 3.63 4.048 3.63.642 0 1.635-.472 4.066-3.644 1.633.286 3.018.737 4.02 1.31zm-.603-8.566c-.165.264-1.597 2.54-3.222 4.815-3.159 4.423-4.123 4.766-4.26 4.792-.136-.028-1.097-.376-4.255-4.793a107.605 107.605 0 01-3.227-4.815c-.761-1.529-1.18-2.949-1.18-4 0-4.608 4.047-8.65 8.662-8.65 1.78 0 3.57.616 5.072 1.74v3.617c0 .357.29.646.647.646h1.58c.437.645.831 1.369 1.334 1.964.02.228.03.456.03.683 0 1.052-.42 2.471-1.18 4 .76-1.529-.166.265 0 0zm13.273-7.94h-9.924c-.2 0-.388.091-.51.249l-1.158 1.49-.985-1.456a.646.646 0 00-.535-.284h-1.278V2.37h14.39v8.698z" fill="#66A182"/><path d="M20.702 5.955h9.438c.83 0 .831-1.293 0-1.293h-9.438c-.83 0-.832 1.293 0 1.293zm0 2.637h5.128c.83 0 .831-1.293 0-1.293h-5.128c-.83 0-.832 1.293 0 1.293zm7.736-1.293a.658.658 0 00-.646.635.656.656 0 00.647.656.656.656 0 00.644-.635.66.66 0 00-.645-.656z" fill="#66A182"/></svg>