<svg height="908" viewBox="-87 -21 681 681.336" width="908" xmlns="http://www.w3.org/2000/svg"><path fill="#E31E24" d="M320.883 517.957l-83.82-80.355c-19.82-19.004-50.028-21.051-71.817-4.856-.008.004-.11.074-.113.082l-.371.277c-.446.336-.864.34-1.145.293a1.078 1.078 0 01-.765-.527c-19.364-30.742-32.457-64.531-38.93-100.433-6.465-35.91-5.98-72.165 1.457-107.75a.962.962 0 01.476-.672c.313-.184.657-.223 1.036-.11l.578.168c26.136 7.649 53.828-4.844 65.824-29.691l54.86-113.594a41.49 41.49 0 00-8.231-47.601c-4.484-4.54-9.59-8.81-15.18-12.7-50.066-34.773-118.398-24.281-155.566 23.89-2.309 3.017-4.453 6.173-6.52 9.36l-.023.035C55.195 64.785 51.503 71.66 45.93 82.047l-1.188 2.207c-1.34 2.473-32.949 60.992-40.738 102.191C-8.07 250.352-7 316.438 7.114 377.551c14.91 64.554 43.257 121.992 84.245 170.71 10.403 12.364 29.672-3.82 19.258-16.202-38.406-45.641-64.98-99.536-78.98-160.172-13.332-57.75-14.34-120.254-2.903-180.77 7.051-37.316 37.809-94.285 38.145-94.898l1.219-2.27c4.863-9.054 9.976-17.773 15.586-26.383l.086-.136a109.665 109.665 0 015.398-7.766c28.98-37.473 82.2-45.601 121.21-18.508 4.345 3.016 8.274 6.305 11.688 9.766.047.05.098.101.149.152a16.327 16.327 0 013.273 18.77l-54.855 113.594c-6.633 13.726-21.817 20.66-36.082 16.492l-.477-.145c-7.086-2.113-14.777-1.164-21.101 2.61a26.247 26.247 0 00-12.227 17.144c-8.105 38.766-8.637 78.25-1.59 117.363 7.043 39.094 21.305 75.891 42.399 109.38a26.38 26.38 0 0017.5 11.863c7.28 1.34 14.867-.45 20.855-4.946l.344-.254c11.898-8.84 28.465-7.656 39.39 2.82l83.82 80.356c10.227 9.809 10.423 26.352 3.72 38.113-11.762 20.489-36.137 34.223-58.836 38.075-23.114 3.914-46.457-1.29-65.723-14.672-13.27-9.215-27.645 11.437-14.355 20.668 19.343 13.433 41.886 20.449 64.988 20.449 6.406 0 12.863-.543 19.293-1.633 30.136-5.113 60.953-23.355 76.457-50.355l.289-.504c12.305-21.438 9.808-50.832-8.414-68.305zm0 0"/><path fill="#E31E24" d="M366.438 114.402c-74.657 0-135.387 60.735-135.387 135.395 0 6.523.472 13.094 1.414 19.582l-22.445 72.914c-2.364 7.668 3.468 15.852 11.363 16.266l69.578 3.644c22.351 15.05 48.367 22.985 75.476 22.985 74.657 0 135.395-60.739 135.395-135.391 0-74.66-60.738-135.395-135.394-135.395zm0 245.618c-23.094 0-45.208-7.067-63.946-20.438a12.548 12.548 0 00-6.644-2.32l-57.032-2.992 18.555-60.262c2.18-7.078-1.152-16.852-1.152-24.211 0-60.781 49.441-110.223 110.218-110.223S476.66 189.016 476.66 249.797c0 60.773-49.445 110.223-110.223 110.223zm0 0"/><path fill="#E31E24" d="M320.746 240.762c-6.844 0-12.586 5.742-12.586 12.582 0 6.844 5.746 12.59 12.586 12.59 6.64 0 12.266-5.418 12.559-12.04.308-7.046-5.492-13.132-12.559-13.132zM134.426 565.2c-6.844 0-12.586 5.745-12.586 12.581 0 6.84 5.746 12.586 12.586 12.586 6.64 0 12.265-5.41 12.558-12.035.309-7.035-5.504-13.133-12.558-13.133zm235.82-324.438c-6.855 0-12.582 5.726-12.582 12.582 0 6.851 5.738 12.59 12.582 12.59 6.649-.008 12.258-5.41 12.547-12.04.309-7.046-5.469-13.132-12.547-13.132zm49.488 0c-6.84 0-12.582 5.742-12.582 12.582.004 6.844 5.75 12.59 12.582 12.59 6.649 0 12.266-5.418 12.559-12.04.316-7.046-5.484-13.132-12.559-13.132zm0 0"/></svg>