<svg width="194" height="19" viewBox="0 0 194 19" fill="none" xmlns="http://www.w3.org/2000/svg">
<path fill-rule="evenodd" clip-rule="evenodd" d="M38.2874 0.544274C35.8315 1.44973 35.1214 2.44282 35.0302 5.88941C34.9846 7.77336 34.8804 13.3667 35.1605 14.9367C36.0008 19.4202 43.4467 19.5736 47.1859 18.3322C49.5896 17.529 50.0587 16.3898 50.1043 13.0674C50.1499 10.6139 50.1043 8.41593 50.1499 6.56851C50.1499 2.91746 49.4138 0.675711 45.8635 0.230283C43.6291 -0.0691032 40.2677 -0.178635 38.2809 0.544274H38.2874ZM47.2249 13.8341V5.59733C47.2836 3.28256 44.2088 3.58195 42.665 3.58195C40.9713 3.58195 38.0137 3.38479 38.0137 5.59733V13.8341C38.0137 14.9879 39.3166 15.4187 40.7953 15.5355C42.1515 15.5884 43.5092 15.5445 44.8603 15.404C46.2413 15.2872 47.1403 14.8564 47.1989 13.8195L47.2249 13.8341Z" fill="#EC2327"/>
<path fill-rule="evenodd" clip-rule="evenodd" d="M19.7466 0.0747793C23.3425 0.0747793 27.3856 -0.200577 29.6075 0.305484C31.8296 0.811546 32.9932 2.37438 32.9932 5.51494C32.9932 10.7244 31.5206 12.2128 28.2533 12.5924C28.1592 12.6005 28.0647 12.6005 27.9706 12.5924C26.0379 12.7784 23.4872 12.5924 20.2593 12.5924V17.2585C20.2593 17.7204 20.0973 18.1633 19.8088 18.49C19.5203 18.8165 19.129 19 18.7211 19C18.3131 19 17.9218 18.8165 17.6333 18.49C17.3448 18.1633 17.1827 17.7204 17.1827 17.2585V14.2817C17.1236 12.0937 17.1827 9.50388 17.1827 7.33825C17.1827 5.57448 17.2419 3.68419 17.1827 1.92041C17.1557 1.7171 17.1644 1.50974 17.2082 1.31022C17.2521 1.11071 17.3304 0.922962 17.4385 0.757729C17.5466 0.5925 17.6824 0.453039 17.8382 0.34734C17.9939 0.24164 18.1667 0.171779 18.3464 0.141758C18.8078 0.0668669 19.2746 0.0444288 19.74 0.0747793H19.7466ZM28.0364 3.58744H20.2659V9.15412H27.1028C29.0751 9.15412 30.0875 9.00526 30.1729 6.46009C30.2584 3.91489 29.5944 3.63954 28.0364 3.58744Z" fill="#EC2327"/>
<path d="M15.1767 17.2499V9.9256V6.67191C15.1897 2.96303 14.4234 0.686968 10.8711 0.231755C8.64367 -0.0592835 5.26671 -0.193609 3.27303 0.552642C0.831245 1.46307 0.116894 2.47051 0.0259764 5.9779C0.0259764 7.32861 -0.0324705 10.5524 0.0259764 12.8956V17.2313C0.0268274 17.4607 0.0669767 17.6876 0.144132 17.8991C0.221287 18.1106 0.333937 18.3025 0.47565 18.464C0.617363 18.6255 0.785364 18.7532 0.97006 18.8401C1.15476 18.9269 1.35253 18.9711 1.55209 18.9701C1.9546 18.9702 2.34082 18.7874 2.62665 18.4618C2.91248 18.1361 3.07478 17.6939 3.07821 17.2313V10.1942V10.0599V5.67939C3.07821 3.43318 6.046 3.63466 7.74746 3.63466C9.26059 3.63466 12.2544 3.33616 12.1959 5.67939V15.9925V17.2613C12.1968 17.4906 12.2369 17.7174 12.3141 17.9289C12.3912 18.1404 12.5039 18.3324 12.6456 18.4938C12.7873 18.6553 12.9553 18.7831 13.14 18.8699C13.3247 18.9568 13.5225 19.001 13.7221 19C14.1234 19 14.5082 18.8168 14.792 18.4907C15.0757 18.1647 15.1767 17.7111 15.1767 17.2499Z" fill="#EC2327"/>
<path fill-rule="evenodd" clip-rule="evenodd" d="M52.1295 17.2565C52.1312 16.7906 52.294 16.3445 52.5824 16.0151C52.8707 15.6857 53.2613 15.4999 53.6691 15.4979H54.6911L61.3541 0.950801C61.4981 0.638577 61.7201 0.382263 61.9919 0.214393C62.2636 0.0465218 62.573 -0.0253378 62.8805 0.00793378C63.1854 -0.0237542 63.4915 0.0490172 63.7599 0.216957C64.0283 0.384896 64.2468 0.640383 64.3874 0.950801L71.0503 15.4979H71.7055C72.1133 15.4999 72.5039 15.6857 72.7923 16.0151C73.0806 16.3445 73.2434 16.7906 73.2451 17.2565C73.2442 17.4864 73.2038 17.7139 73.1259 17.9259C73.0481 18.1381 72.9345 18.3305 72.7915 18.4925C72.6485 18.6543 72.479 18.7825 72.2927 18.8696C72.1064 18.9566 71.9068 19.001 71.7055 19H53.6691C53.4677 19.001 53.2682 18.9566 53.0819 18.8696C52.8956 18.7825 52.7261 18.6543 52.5831 18.4925C52.4401 18.3305 52.3265 18.1381 52.2487 17.9259C52.1709 17.7139 52.1303 17.4864 52.1295 17.2565ZM62.8805 5.20119L58.1569 15.4979H67.5846L62.8805 5.20119Z" fill="#117DC1"/>
<path fill-rule="evenodd" clip-rule="evenodd" d="M94.0795 0.066294C94.3011 0.0672685 94.5213 0.113247 94.7257 0.201606C94.9309 0.289964 95.1167 0.418971 95.2726 0.581261C95.4293 0.743551 95.5532 0.935948 95.6375 1.14746C95.7211 1.35897 95.7643 1.58547 95.7629 1.814V6.94556L104.876 0.319154C105.244 0.0545791 105.698 -0.0515159 106.141 0.0235175C106.584 0.0985513 106.981 0.348768 107.247 0.720754C107.375 0.908621 107.467 1.12084 107.516 1.34524C107.566 1.56964 107.571 1.80181 107.533 2.02844C107.495 2.25507 107.413 2.47169 107.293 2.66588C107.174 2.86008 107.018 3.02803 106.835 3.1601L98.1625 9.49645L106.835 15.8329C107.203 16.1008 107.453 16.5079 107.53 16.965C107.607 17.4222 107.505 17.8921 107.247 18.2722C106.981 18.6449 106.586 18.8969 106.143 18.9746C105.701 19.0524 105.246 18.9498 104.876 18.6886L95.7629 12.0548V17.2608C95.7629 17.4879 95.7196 17.713 95.6345 17.9228C95.5502 18.1325 95.4256 18.3231 95.2696 18.4834C95.113 18.6437 94.9272 18.7707 94.7235 18.8569C94.519 18.9432 94.3004 18.9871 94.0795 18.9861C93.6326 18.9862 93.2035 18.8051 92.8857 18.4821C92.5678 18.1592 92.3865 17.7204 92.3813 17.2608V1.814C92.385 1.35168 92.5648 0.909398 92.8827 0.58248C93.2006 0.25556 93.6303 0.0701791 94.0795 0.066294Z" fill="#117DC1"/>
<path fill-rule="evenodd" clip-rule="evenodd" d="M118.764 3.50078V17.2646C118.76 17.7249 118.587 18.1652 118.282 18.49C117.977 18.8148 117.564 18.998 117.133 19C116.919 19.001 116.707 18.9568 116.509 18.8701C116.311 18.7832 116.131 18.6556 115.98 18.4944C115.828 18.3331 115.708 18.1414 115.626 17.9304C115.544 17.7194 115.502 17.4931 115.502 17.2646V3.50078H111.183C110.749 3.5008 110.332 3.31766 110.024 2.99122C109.716 2.66478 109.541 2.22149 109.538 1.75787C109.541 1.29287 109.715 0.848011 110.023 0.519188C110.331 0.190367 110.747 0.00390784 111.183 0H123.083C123.298 0.000980235 123.511 0.0472266 123.709 0.136099C123.908 0.224972 124.088 0.354729 124.239 0.517963C124.391 0.681197 124.511 0.87471 124.592 1.08745C124.674 1.30019 124.715 1.528 124.714 1.75787C124.714 2.22013 124.543 2.66344 124.237 2.99029C123.931 3.31716 123.516 3.50078 123.083 3.50078H118.764Z" fill="#117DC1"/>
<path fill-rule="evenodd" clip-rule="evenodd" d="M182.112 7.62985H188.326C190.52 7.62985 191.353 7.71198 191.353 5.63654C191.353 4.14341 190.85 3.50884 188.326 3.50884H182.112V7.62985ZM182.112 15.5061H189.948C191.08 15.2373 191.353 14.6102 191.353 13.5127C191.353 11.4373 190.52 11.5269 188.326 11.5269H182.112V15.521V15.5061ZM190.094 19C186.844 19 183.568 19 180.318 19C179.925 19.002 179.546 18.8208 179.266 18.4963C178.986 18.1716 178.827 17.73 178.823 17.2679V1.75442C178.825 1.29101 178.982 0.84702 179.26 0.51864C179.54 0.190258 179.917 0.00392315 180.312 0C183.072 0 185.959 0 188.675 0C191.391 0 193.993 1.23183 193.993 4.94224C194.036 6.15356 193.896 7.36433 193.579 8.51828C193.512 8.71852 193.428 8.911 193.331 9.09315C193.255 9.25961 193.222 9.44829 193.236 9.63639C193.249 9.82457 193.309 10.004 193.408 10.1533C193.489 10.3448 193.561 10.5417 193.623 10.743C193.904 11.8541 194.029 13.0115 193.993 14.1697C193.971 15.3989 193.558 16.5742 192.835 17.4641C192.113 18.3539 191.133 18.8939 190.087 18.9776L190.094 19Z" fill="#117DC1"/>
<path fill-rule="evenodd" clip-rule="evenodd" d="M78.5386 0.544274C76.083 1.44973 75.3727 2.44282 75.2817 5.88941C75.2362 7.77336 75.1317 13.3667 75.4123 14.9367C76.2524 19.4202 83.705 19.5736 87.444 18.3322C89.8414 17.529 90.31 16.3898 90.3555 13.0674C90.4017 10.6139 90.3555 8.41593 90.4017 6.56851C90.4017 2.91746 89.6653 0.675711 86.1151 0.230283C83.8804 -0.0691032 80.5189 -0.178635 78.5327 0.544274H78.5386ZM87.4768 13.8341V5.59733C87.535 3.28256 84.4601 3.58195 82.9163 3.58195C81.2226 3.58195 78.2655 3.38479 78.2655 5.59733V13.8341C78.2655 14.9879 79.5683 15.4187 81.0472 15.5355C82.403 15.5881 83.761 15.5442 85.1115 15.404C86.4926 15.2872 87.3918 14.8564 87.4507 13.8195L87.4768 13.8341Z" fill="#117DC1"/>
<path fill-rule="evenodd" clip-rule="evenodd" d="M130.011 0.544274C127.562 1.44973 126.838 2.44282 126.747 5.88941C126.701 7.77336 126.603 13.3667 126.897 14.9367C127.719 19.4202 135.199 19.5736 138.932 18.3322C141.334 17.529 141.811 16.3898 141.87 13.0674C141.87 10.6139 141.87 8.41593 141.87 6.56851C141.902 2.91746 141.132 0.675711 137.582 0.230283C135.349 -0.0691032 131.988 -0.178635 129.984 0.544274H130.011ZM138.953 13.8341V5.59733C139.011 3.28256 135.924 3.58195 134.383 3.58195C132.693 3.58195 129.723 3.38479 129.723 5.59733V13.8341C129.723 14.9879 131.028 15.4187 132.53 15.5355C133.882 15.5882 135.236 15.5443 136.583 15.404C137.974 15.2872 138.867 14.8564 138.932 13.8195L138.953 13.8341Z" fill="#117DC1"/>
<path fill-rule="evenodd" clip-rule="evenodd" d="M164.977 0.544274C162.514 1.44973 161.809 2.44282 161.718 5.88941C161.68 7.77336 161.575 13.3667 161.856 14.9367C162.696 19.4202 170.145 19.5736 173.885 18.3322C176.29 17.529 176.759 16.3898 176.805 13.0674C176.844 10.6139 176.805 8.41593 176.844 6.56851C176.844 2.91746 176.107 0.675711 172.562 0.230283C170.321 -0.0691032 166.965 -0.178635 164.977 0.544274ZM173.944 13.8341V5.59733C174.002 3.28256 170.92 3.58195 169.382 3.58195C167.688 3.58195 164.722 3.38479 164.722 5.59733V13.8341C164.722 14.9879 166.026 15.4187 167.512 15.5355C168.867 15.5884 170.222 15.5446 171.572 15.404C172.96 15.2872 173.859 14.8564 173.918 13.8195L173.944 13.8341Z" fill="#117DC1"/>
<path fill-rule="evenodd" clip-rule="evenodd" d="M146.644 0.0560206C150.249 0.0560206 154.066 -0.182277 156.285 0.324087C158.505 0.830449 159.687 2.39422 159.687 5.53667C159.687 10.7492 158.216 12.2386 154.952 12.6257C154.858 12.6334 154.763 12.6334 154.669 12.6257C152.7 12.8119 150.171 12.663 146.966 12.663V17.2575C146.966 17.7196 146.804 18.1628 146.516 18.4896C146.228 18.8164 145.837 19 145.43 19C145.022 19 144.631 18.8164 144.343 18.4896C144.055 18.1628 143.893 17.7196 143.893 17.2575V14.2789C143.821 12.0896 143.854 9.49818 143.893 7.32383C143.893 5.559 143.939 3.67503 143.893 1.9102C143.838 1.49846 143.93 1.07898 144.148 0.743885C144.366 0.408792 144.693 0.18549 145.055 0.123031C145.512 0.0521111 145.974 0.0296642 146.434 0.0560016L146.644 0.0560206ZM154.683 3.60057H146.96V9.17056H153.776C155.747 9.17056 156.771 9.02161 156.863 6.48237C156.955 3.9431 156.279 3.65269 154.676 3.60057H154.683Z" fill="#117DC1"/>
</svg>
