<svg width="16" height="16" viewBox="0 0 16 16" fill="none" xmlns="http://www.w3.org/2000/svg">
<rect width="16" height="16" fill="#0F0F0F"/>
<path d="M2.52637 10V5.09863H4.09863V10H2.52637ZM6.37363 5.09863V6.78027L7.74766 5.09863H9.49082L7.80918 7.12891L9.63096 10H7.88096L6.79404 8.28418L6.37363 8.81055V10H4.80137V5.09863H6.37363Z" fill="#FAFAFA"/>
<path d="M11.342 6.70508C11.1096 6.93294 10.9934 7.21549 10.9934 7.55273C10.9934 7.8877 11.1096 8.16911 11.342 8.39697C11.5767 8.62484 11.8695 8.73877 12.2204 8.73877C12.3549 8.73877 12.4882 8.72054 12.6203 8.68408C12.7548 8.64762 12.8675 8.60091 12.9587 8.54395C13.0498 8.48698 13.1296 8.43115 13.1979 8.37646C13.2686 8.3195 13.3233 8.27279 13.362 8.23633L13.4099 8.18164L14.3327 9.15918C14.3145 9.18652 14.286 9.22298 14.2473 9.26855C14.2108 9.31185 14.1254 9.39046 13.9909 9.50439C13.8565 9.61605 13.7129 9.71517 13.5603 9.80176C13.4099 9.88835 13.2093 9.96582 12.9587 10.0342C12.708 10.1048 12.4506 10.1401 12.1862 10.1401C11.4069 10.1401 10.7507 9.88607 10.2175 9.37793C9.68656 8.86751 9.42109 8.25798 9.42109 7.54932C9.42109 6.84066 9.68656 6.23226 10.2175 5.72412C10.7507 5.2137 11.4069 4.9585 12.1862 4.9585C12.4528 4.9585 12.708 4.99268 12.9519 5.06104C13.1957 5.12939 13.3973 5.21143 13.5568 5.30713C13.7163 5.40283 13.8565 5.49854 13.9772 5.59424C14.098 5.68994 14.1869 5.77197 14.2438 5.84033L14.319 5.93945L13.3757 6.92041C13.362 6.90674 13.3426 6.88737 13.3176 6.8623C13.2948 6.83496 13.2447 6.78939 13.1672 6.72559C13.092 6.65951 13.0122 6.60254 12.9279 6.55469C12.8436 6.50456 12.7365 6.46012 12.6066 6.42139C12.479 6.38037 12.3503 6.35986 12.2204 6.35986C11.8695 6.35986 11.5767 6.47493 11.342 6.70508Z" fill="#EEEA1F"/>
</svg>
