<svg width="187" height="48" viewBox="0 0 187 48" fill="none" xmlns="http://www.w3.org/2000/svg">
<mask id="mask0_539_30" style="mask-type:luminance" maskUnits="userSpaceOnUse" x="0" y="0" width="187" height="48">
<path d="M186.444 0H0V47.9428H186.444V0Z" fill="white"/>
</mask>
<g mask="url(#mask0_539_30)">
<path d="M40.4348 17.2443C40.1044 16.6476 37.7388 15.9058 37.7388 15.9058C37.7388 15.379 37.4556 14.9221 37.0359 14.6802C37.0727 14.8038 37.0884 14.9328 37.0884 15.0619V15.0834C37.0831 15.3306 37.0727 15.7177 37.0569 16.2068C37.0464 16.61 37.0307 17.083 37.015 17.599C37.015 17.599 37.015 17.6044 37.015 17.6098C37.0045 17.9162 36.994 18.2333 36.9835 18.5612C36.9835 18.572 36.9835 18.5881 36.9835 18.5988C36.9835 18.6418 36.9835 18.6849 36.9835 18.7225C36.9835 18.744 36.9835 18.7655 36.9835 18.787C36.9835 18.83 36.9835 18.873 36.9835 18.9214C36.9835 18.9267 36.9835 18.9321 36.9835 18.9429C36.9835 18.9966 36.9835 19.045 36.9835 19.0988V19.1095C36.9835 19.2009 36.9782 19.2976 36.973 19.3944C36.973 19.4213 36.973 19.4428 36.973 19.4643C36.973 19.5019 36.973 19.5395 36.973 19.5772C36.973 19.604 36.973 19.6255 36.973 19.6524C36.973 19.69 36.973 19.7223 36.973 19.7599C36.973 19.7922 36.973 19.8244 36.973 19.8567C36.973 19.8889 36.973 19.9212 36.973 19.9534C36.973 19.9857 36.973 20.0179 36.973 20.0556C36.973 20.0878 36.973 20.1201 36.973 20.1577C36.973 20.1899 36.973 20.2168 36.973 20.2491C36.973 20.3082 36.973 20.3673 36.9678 20.4265C36.9678 20.4641 36.9678 20.5017 36.9678 20.534C36.9678 20.5662 36.9678 20.5985 36.9678 20.6254C36.9678 20.663 36.9678 20.7006 36.9678 20.7329C36.9678 20.7651 36.9678 20.7974 36.9678 20.8242C36.9678 20.8619 36.9678 20.8941 36.9678 20.9317C36.9678 20.964 36.9678 20.9963 36.9678 21.0231C36.9678 21.0608 36.9678 21.1038 36.9678 21.1414C36.9678 21.1683 36.9678 21.1951 36.9678 21.222C36.9678 21.2758 36.9678 21.3242 36.9625 21.3779C36.9625 21.394 36.9625 21.4048 36.9625 21.4209C36.9625 21.4854 36.9573 21.5499 36.952 21.6144C36.952 21.6359 36.952 21.6574 36.952 21.6735C36.952 21.7166 36.952 21.7649 36.9468 21.8079C36.9468 21.8348 36.9468 21.8617 36.9468 21.8886C36.9468 21.9262 36.9468 21.9692 36.9468 22.0068C36.9468 22.0337 36.9468 22.0606 36.9468 22.0821C36.9468 22.1251 36.9468 22.1681 36.9415 22.2057C36.9415 22.2272 36.9415 22.2487 36.9415 22.2702C36.9415 22.3186 36.9415 22.3616 36.9363 22.41C36.9363 22.4315 36.9363 22.453 36.9363 22.4691C36.9363 22.5336 36.931 22.5981 36.9258 22.6626C36.9258 22.6734 36.9258 22.6787 36.9258 22.6895C36.9258 22.7379 36.9258 22.7916 36.9205 22.8454C36.9205 22.8723 36.9205 22.8938 36.9205 22.9153C36.9205 22.9583 36.9205 22.9959 36.9153 23.0389C36.9153 23.0604 36.9153 23.0819 36.9153 23.1088C36.9153 23.1464 36.9153 23.1894 36.9101 23.227C36.9101 23.2485 36.9101 23.2754 36.9101 23.2969C36.9101 23.3399 36.9101 23.3829 36.9048 23.4259C36.9048 23.442 36.9048 23.4635 36.9048 23.4797C36.8996 23.5979 36.8943 23.7162 36.8838 23.8344C36.8838 23.8559 36.8838 23.8774 36.8838 23.8936C36.8838 23.9312 36.8838 23.9742 36.8786 24.0118C36.8786 24.0333 36.8786 24.0495 36.8786 24.071C36.8786 24.1086 36.8786 24.1462 36.8733 24.1838C36.8733 24.2053 36.8733 24.2268 36.8733 24.2483C36.8733 24.286 36.8733 24.3236 36.8681 24.3559C36.8681 24.3774 36.8681 24.3935 36.8681 24.4096C36.8681 24.4526 36.8681 24.4956 36.8628 24.5332C36.8628 24.544 36.8628 24.5601 36.8628 24.5709C36.8628 24.6246 36.8576 24.673 36.8524 24.7268C36.8524 24.7429 36.8524 24.7536 36.8524 24.7698C36.8524 24.8074 36.8524 24.845 36.8471 24.8773C36.8471 24.8934 36.8471 24.9149 36.8471 24.931C36.8471 24.9633 36.8471 24.9955 36.8419 25.0224C36.8419 25.0439 36.8419 25.06 36.8419 25.0762C36.8419 25.1084 36.8419 25.1407 36.8366 25.1729C36.8366 25.189 36.8366 25.2052 36.8366 25.2213C36.8366 25.2589 36.8366 25.2912 36.8314 25.3234C36.8314 25.3342 36.8314 25.3449 36.8314 25.361C36.8314 25.404 36.8261 25.447 36.8209 25.4901C36.8209 25.5008 36.8209 25.5062 36.8209 25.5169C36.8209 25.5546 36.8209 25.5868 36.8104 25.6191C36.8104 25.6352 36.8104 25.6459 36.8104 25.6621C36.8104 25.6889 36.8104 25.7158 36.8052 25.7427C36.8052 25.7588 36.8052 25.7749 36.8052 25.7857C36.8052 25.8126 36.8052 25.8341 36.7999 25.8556C36.7999 25.8717 36.7999 25.8825 36.7999 25.8986C36.7999 25.9255 36.7999 25.947 36.7947 25.9738C36.7947 25.9846 36.7947 25.9953 36.7947 26.0061C36.7947 26.0437 36.7894 26.076 36.7842 26.1082C36.7842 26.1136 36.7842 26.119 36.7842 26.1243C40.5135 25.9953 41.2111 22.6142 41.2111 22.6142C41.2111 22.6142 40.9646 17.8302 40.6289 17.2389" fill="#F3F1F9"/>
<path d="M12.0166 17.2443C12.3471 16.6476 14.7127 15.9058 14.7127 15.9058C14.7127 15.379 14.9959 14.9221 15.4155 14.6802C15.3788 14.8038 15.3631 14.9328 15.3631 15.0619V15.0834C15.3683 15.3306 15.3788 15.7177 15.3945 16.2068C15.405 16.61 15.4207 17.083 15.4365 17.599C15.4365 17.599 15.4365 17.6044 15.4365 17.6098C15.447 17.9162 15.4575 18.2333 15.468 18.5612C15.468 18.572 15.468 18.5881 15.468 18.5988C15.468 18.6418 15.468 18.6849 15.468 18.7225C15.468 18.744 15.468 18.7655 15.468 18.787C15.468 18.83 15.468 18.873 15.468 18.9214C15.468 18.9267 15.468 18.9321 15.468 18.9429C15.468 18.9966 15.468 19.045 15.468 19.0988C15.468 19.0988 15.468 19.1041 15.468 19.1095C15.468 19.2009 15.4732 19.2976 15.4784 19.3944C15.4784 19.4213 15.4784 19.4428 15.4784 19.4643C15.4784 19.5019 15.4784 19.5395 15.4784 19.5772C15.4784 19.604 15.4784 19.6255 15.4784 19.6524C15.4784 19.69 15.4784 19.7223 15.4784 19.7599C15.4784 19.7922 15.4784 19.8244 15.4784 19.8567C15.4784 19.8889 15.4784 19.9212 15.4784 19.9534C15.4784 19.9857 15.4784 20.0179 15.4784 20.0556C15.4784 20.0878 15.4784 20.1201 15.4784 20.1577C15.4784 20.1899 15.4784 20.2168 15.4784 20.2491C15.4784 20.3082 15.4784 20.3673 15.4837 20.4265C15.4837 20.4641 15.4837 20.5017 15.4837 20.534C15.4837 20.5662 15.4837 20.5985 15.4837 20.6254C15.4837 20.663 15.4837 20.7006 15.4837 20.7329C15.4837 20.7651 15.4837 20.7974 15.4837 20.8242C15.4837 20.8619 15.4837 20.8941 15.4837 20.9317C15.4837 20.964 15.4837 20.9963 15.4837 21.0231C15.4837 21.0608 15.4837 21.1038 15.4837 21.1414C15.4837 21.1683 15.4837 21.1951 15.4837 21.222C15.4837 21.2758 15.4837 21.3242 15.4889 21.3779C15.4889 21.394 15.4889 21.4048 15.4889 21.4209C15.4889 21.4854 15.4889 21.5499 15.4942 21.6144C15.4942 21.6359 15.4942 21.6574 15.4942 21.6735C15.4942 21.7166 15.4942 21.7649 15.4994 21.8079C15.4994 21.8348 15.4994 21.8617 15.4994 21.8886C15.4994 21.9262 15.4994 21.9692 15.4994 22.0068C15.4994 22.0337 15.4994 22.0606 15.4994 22.0821C15.4994 22.1251 15.4994 22.1681 15.5047 22.2057C15.5047 22.2272 15.5047 22.2487 15.5047 22.2702C15.5047 22.3186 15.5047 22.3616 15.5099 22.41C15.5099 22.4315 15.5099 22.453 15.5099 22.4691C15.5099 22.5336 15.5152 22.5981 15.5204 22.6626C15.5204 22.6734 15.5204 22.6787 15.5204 22.6895C15.5204 22.7379 15.5204 22.7916 15.5257 22.8454C15.5257 22.8723 15.5257 22.8938 15.5257 22.9153C15.5257 22.9583 15.5257 22.9959 15.5309 23.0389C15.5309 23.0604 15.5309 23.0819 15.5309 23.1088C15.5309 23.1464 15.5309 23.1894 15.5361 23.227C15.5361 23.2485 15.5361 23.2754 15.5361 23.2969C15.5361 23.3399 15.5361 23.3829 15.5414 23.4259C15.5414 23.442 15.5414 23.4635 15.5414 23.4797C15.5466 23.5979 15.5519 23.7162 15.5624 23.8344C15.5624 23.8559 15.5624 23.8774 15.5624 23.8936C15.5624 23.9312 15.5624 23.9742 15.5676 24.0118C15.5676 24.0333 15.5676 24.0495 15.5676 24.071C15.5676 24.1086 15.5676 24.1462 15.5729 24.1838C15.5729 24.2053 15.5729 24.2268 15.5729 24.2483C15.5729 24.286 15.5729 24.3236 15.5781 24.3559C15.5781 24.3774 15.5781 24.3935 15.5781 24.4096C15.5781 24.4526 15.5781 24.4956 15.5833 24.5332C15.5833 24.544 15.5833 24.5601 15.5833 24.5709C15.5833 24.6246 15.5886 24.673 15.5938 24.7268C15.5938 24.7429 15.5938 24.7536 15.5938 24.7698C15.5938 24.8074 15.5938 24.845 15.5991 24.8773C15.5991 24.8934 15.5991 24.9149 15.5991 24.931C15.5991 24.9633 15.5991 24.9955 15.6043 25.0224C15.6043 25.0439 15.6043 25.06 15.6043 25.0762C15.6043 25.1084 15.6043 25.1407 15.6096 25.1729C15.6096 25.189 15.6096 25.2052 15.6096 25.2213C15.6096 25.2589 15.6096 25.2912 15.6148 25.3234V25.361C15.6201 25.404 15.6253 25.447 15.6306 25.4901C15.6306 25.5008 15.6306 25.5062 15.6306 25.5169C15.6306 25.5546 15.6306 25.5868 15.641 25.6191C15.641 25.6352 15.641 25.6459 15.641 25.6621C15.641 25.6889 15.641 25.7158 15.6463 25.7427C15.6463 25.7588 15.6463 25.7749 15.6463 25.7857C15.6463 25.8126 15.6463 25.8341 15.6515 25.8556C15.6515 25.8717 15.6515 25.8825 15.6515 25.8986C15.6515 25.9255 15.6515 25.947 15.6568 25.9738C15.6568 25.9846 15.6568 25.9953 15.6568 26.0061C15.6568 26.0437 15.662 26.076 15.6673 26.1082C15.6673 26.1136 15.6673 26.119 15.6673 26.1243C11.938 25.9953 11.2456 22.6142 11.2456 22.6142C11.2456 22.6142 11.4921 17.8302 11.8226 17.2389" fill="#F3F1F9"/>
<path d="M26.2258 13.2554C21.2534 13.2554 17.2251 14.2768 17.2251 15.5292C17.2251 15.5292 17.5031 25.8445 17.7863 26.9519C18.0643 28.0592 20.9439 32.0584 22.6748 32.6766C23.535 33.1604 24.8043 33.4668 26.2258 33.4722C27.6472 33.4722 28.9165 33.1604 29.7768 32.6766C31.5077 32.0584 34.3872 28.0592 34.6652 26.9519C34.9432 25.8445 35.2265 15.5292 35.2265 15.5292C35.2265 14.2714 31.1982 13.2554 26.2258 13.2554Z" fill="#F3F1F9"/>
<path d="M10.8522 42.3418V42.3203C12.6251 41.3044 14.9015 40.4551 16.9209 39.81L19.3336 40.7131C21.5996 41.4226 23.6819 41.8096 26.2258 41.8096C28.3081 41.8096 30.3222 41.5462 32.2367 41.0625L35.4835 39.8315C35.4835 39.8315 35.5202 39.8154 35.5412 39.81C35.5412 39.81 35.5412 39.81 35.5464 39.81C37.5606 40.4551 39.8317 41.3044 41.6098 42.3203C44.2639 43.8469 46.598 45.7498 48.5229 47.9429H52.4463C50.2853 43.1374 46.4721 39.0682 41.6098 36.2838C39.8317 35.2678 37.5606 34.4185 35.5464 33.7681C35.5464 33.7681 35.5464 33.7681 35.5412 33.7681C35.5202 33.7789 35.5045 33.7842 35.4835 33.7896L32.2367 35.0206C30.3275 35.5043 28.3134 35.7677 26.2258 35.7677C23.6766 35.7677 21.5996 35.3807 19.3336 34.6712L16.9209 33.7681C14.9015 34.4131 12.6251 35.2625 10.8522 36.2784V36.2999C5.98997 39.0843 2.16625 43.1481 0 47.9429H3.93911C5.86933 45.7552 8.20342 43.8577 10.8522 42.3418Z" fill="#F3F1F9"/>
<path d="M35.8402 46.1528H16.6167V47.9428H35.8402V46.1528Z" fill="#F3F1F9"/>
<path d="M113.815 20.0015C112.11 18.5179 109.98 17.6847 107.641 17.6847C104.174 17.6847 101.389 20.5928 101.389 24.2265C101.389 27.8603 104.174 30.7684 107.641 30.7684C109.98 30.7684 112.11 29.9352 113.815 28.4516L113.946 28.586V32.1391C112.236 33.4023 110.138 34.0527 107.641 34.0527C102.254 34.0527 97.9219 29.6073 97.9219 24.2265C97.9219 18.8458 102.254 14.4004 107.641 14.4004C110.138 14.4004 112.241 15.0454 113.946 16.314V19.8671L113.815 20.0015Z" fill="#F3F1F9"/>
<path d="M133.935 14.8037L134.066 14.9381V33.5207L133.935 33.6551H131.124L130.993 33.5207V17.9537H122.191V33.5207L122.06 33.6551H119.275L119.144 33.5207V14.9381L119.275 14.8037H133.935Z" fill="#F3F1F9"/>
<path d="M151.443 14.8037L151.575 14.9381V17.8193L151.443 17.9537H142.773V21.9422H149.209L149.34 22.0766V24.9578L149.209 25.0922H142.773V30.5052H151.994L152.125 30.6395V33.5207L151.994 33.6551H139.857L139.726 33.5207V14.9381L139.857 14.8037H151.443Z" fill="#F3F1F9"/>
<path d="M159.689 23.4742H162.29C164.158 23.4742 165.364 22.3991 165.364 20.7005C165.364 19.0019 164.158 17.9537 162.29 17.9537H159.689V23.4742ZM162.422 14.8037C166.308 14.8037 168.831 17.4699 168.831 20.7005C168.831 23.9311 166.308 26.5973 162.422 26.5973H159.689V33.5154L159.558 33.6497H156.772L156.641 33.5154V14.9381L156.746 14.8037H162.422Z" fill="#F3F1F9"/>
<path d="M171.863 14.8037L171.732 14.9381V17.8193L171.863 17.9537H177.564V33.5207L177.695 33.6551H180.481L180.612 33.5207V17.9537H186.313L186.444 17.8193V14.9381L186.313 14.8037H171.863Z" fill="#F3F1F9"/>
<path d="M84.1378 21.7272V14.9381L84.0066 14.8037H81.2214L81.0903 14.9381V33.5207L81.2214 33.6551H84.0066L84.1378 33.5207V24.8503V21.7272Z" fill="#F3F1F9"/>
<path d="M96.8254 14.9381L96.6942 14.8037H93.3059L93.0436 14.9381L89.1202 20.1415C89.1202 20.1415 89.0888 20.1845 89.0311 20.2597L86.975 22.985C86.4505 23.6785 86.0361 24.2321 86.0361 24.2321L88.58 27.6025L93.0436 33.5207L93.3059 33.6551H96.6942L96.8254 33.5207L89.97 24.2321L96.8254 14.9435V14.9381Z" fill="#F3F1F9"/>
<path d="M75.3938 18.2279C73.0859 12.8526 67.7883 9.0791 61.6357 9.0791C60.6129 9.0791 59.6163 9.18123 58.6512 9.38012V12.8526C59.6059 12.5838 60.6077 12.4387 61.6357 12.4387C67.3634 12.4387 72.1156 16.8303 72.9023 22.5497H58.7037C58.667 23.1034 58.646 23.6624 58.646 24.2322C58.646 24.802 58.667 25.361 58.7037 25.9147H72.9023C72.1156 31.6341 67.3634 36.0258 61.6357 36.0258C60.6024 36.0258 59.6006 35.8806 58.6512 35.6118V39.0843C59.6163 39.2832 60.6182 39.3853 61.6357 39.3853C68.0506 39.3853 73.537 35.2786 75.6718 29.5377C76.2855 27.8821 76.6264 26.0975 76.6264 24.2268C76.6264 22.0928 76.1858 20.0663 75.3938 18.2226V18.2279Z" fill="#F3F1F9"/>
<path d="M37.3142 9.61652C36.9313 9.3155 36.3281 7.93403 35.6987 6.69232C35.5046 6.3053 35.3053 5.9344 35.106 5.6065C34.9696 5.38611 34.8385 5.18185 34.7074 5.02059C34.5553 4.83245 34.3612 4.62281 34.1409 4.40779C34.0885 4.35942 34.036 4.30566 33.9836 4.25728C33.9049 4.18203 33.8314 4.11215 33.7475 4.03689C33.6898 3.98314 33.6321 3.92939 33.5744 3.87563C33.5849 3.88638 33.5954 3.89713 33.6059 3.90789C33.5902 3.89176 33.5692 3.87563 33.5535 3.85951C33.5325 3.83801 33.5115 3.82188 33.4905 3.80038C33.501 3.81113 33.5167 3.82188 33.5272 3.83263C33.2492 3.58536 32.9555 3.3381 32.6723 3.10696C32.6723 3.10696 32.667 3.10158 32.6618 3.09621C32.6146 3.05858 32.5674 3.01558 32.5149 2.97795C32.5097 2.97795 32.5044 2.9672 32.4992 2.96182C32.452 2.9242 32.4048 2.88657 32.3628 2.85432C32.3576 2.85432 32.3471 2.84356 32.3418 2.83819C32.2946 2.80056 32.2527 2.76831 32.2107 2.73068C32.2054 2.72531 32.2002 2.71993 32.1897 2.71456C32.1478 2.6823 32.1005 2.64468 32.0586 2.61242C32.0586 2.61242 32.0481 2.60705 32.0481 2.60167C32.0271 2.58555 32.0114 2.5748 31.9956 2.55867V4.76257C31.9956 5.15497 31.6547 5.47212 31.2351 5.47212H29.6615C29.2419 5.47212 28.901 5.15497 28.901 4.76257V0.145135C28.581 0.0860057 28.2086 0.0376275 27.7838 0V6.73532C27.7838 7.12773 27.4428 7.44487 27.0285 7.44487H25.4549C25.0353 7.44487 24.6944 7.12773 24.6944 6.73532V0C24.2695 0.0376275 23.8971 0.0860057 23.5772 0.145135V4.75719C23.5772 5.14959 23.2362 5.46674 22.8166 5.46674H21.2431C20.8235 5.46674 20.4825 5.14959 20.4825 4.75719V2.5533C20.4825 2.5533 20.4458 2.58017 20.4301 2.5963C20.4301 2.5963 20.4196 2.60167 20.4143 2.60705C20.3724 2.6393 20.3252 2.67693 20.2832 2.70918C20.278 2.71456 20.2675 2.71993 20.2622 2.72531C20.2203 2.75756 20.1731 2.79519 20.1311 2.83281C20.1259 2.83819 20.1206 2.84356 20.1101 2.84894C20.0629 2.88657 20.021 2.9242 19.9737 2.95645C19.9685 2.95645 19.9633 2.9672 19.958 2.97257C19.9108 3.0102 19.8636 3.0532 19.8111 3.09083C19.8111 3.09083 19.8059 3.09621 19.8007 3.10158C19.5174 3.33272 19.2237 3.57999 18.9457 3.82726C18.9352 3.83801 18.9247 3.84338 18.9195 3.85413C18.9037 3.87026 18.8828 3.88638 18.867 3.90251C18.8775 3.89176 18.888 3.88101 18.8985 3.87026C18.8408 3.92401 18.7778 3.97777 18.7202 4.03152C18.6415 4.10677 18.5628 4.18203 18.4841 4.25191C18.4317 4.30566 18.3792 4.35404 18.3268 4.40242C18.1065 4.61743 17.9124 4.82707 17.7603 5.01521C17.6292 5.18185 17.498 5.38073 17.3617 5.60112C17.1676 5.92365 16.9683 6.29992 16.769 6.68695C16.1395 7.93403 15.5363 9.31012 15.1534 9.61114C14.1254 10.4174 14.0992 13.3094 14.1097 14.0888C14.8755 12.7073 20.0105 11.6377 26.2365 11.6323C32.4625 11.6323 37.5975 12.7073 38.3633 14.0888C38.3738 13.3094 38.3475 10.4174 37.3195 9.61114L37.3142 9.61652Z" fill="#F3F1F9"/>
</g>
</svg>
