<?xml version="1.0" encoding="utf-8"?><svg viewBox="0 0 52 46" xmlns="http://www.w3.org/2000/svg" xmlns:xlink="http://www.w3.org/1999/xlink"><style>:root>svg{display:none}:root>svg:target{display:block}</style><svg viewBox="0 0 33 39" fill="none" id="arrow" xmlns="http://www.w3.org/2000/svg"><path fill-rule="evenodd" clip-rule="evenodd" d="M14.92 4.857A14.718 14.718 0 0 1 27.088.61a14.697 14.697 0 0 0-9.166 4.292L3.287 19.596 17.92 34.29a14.695 14.695 0 0 0 8.74 4.248 14.716 14.716 0 0 1-11.74-4.292L.287 19.552 14.92 4.858Zm5.996 1.294A14.718 14.718 0 0 1 33 1.894a14.698 14.698 0 0 0-9.249 4.298l-13.25 13.306 13.25 13.306c2.47 2.481 5.6 3.9 8.822 4.258a14.714 14.714 0 0 1-11.657-4.3L7.666 19.458l13.25-13.306Z" fill="currentColor"/></svg><svg viewBox="0 0 33 39" fill="none" id="arrow-brown" xmlns="http://www.w3.org/2000/svg"><path fill-rule="evenodd" clip-rule="evenodd" d="M14.92 4.857A14.718 14.718 0 0 1 27.088.61a14.697 14.697 0 0 0-9.166 4.292L3.287 19.596 17.92 34.29a14.695 14.695 0 0 0 8.74 4.248 14.716 14.716 0 0 1-11.74-4.292L.287 19.552 14.92 4.858Zm5.996 1.294A14.718 14.718 0 0 1 33 1.894a14.698 14.698 0 0 0-9.249 4.298l-13.25 13.306 13.25 13.306c2.47 2.481 5.6 3.9 8.822 4.258a14.714 14.714 0 0 1-11.657-4.3L7.666 19.458l13.25-13.306Z" fill="#6F584F"/></svg><svg viewBox="0 0 13 17" fill="none" id="facebook" xmlns="http://www.w3.org/2000/svg"><path fill-rule="evenodd" clip-rule="evenodd" d="M8.348 4.32c.396-.367 1.008-.327 1.053-.325h2.562l.056-3.697-.387-.095C11.385.142 10.627 0 8.955 0 5.98 0 3.98 2.083 3.98 5.18v.833H.984v3.995H3.98V17h3.996v-6.992h3.158l.55-3.995H7.975V5.4c0-.487.125-.851.372-1.081Z" fill="currentColor"/></svg><svg viewBox="0 0 17 17" fill="none" id="instagram" xmlns="http://www.w3.org/2000/svg"><path d="M8.5 0c2.31 0 2.598.008 3.504.051.905.043 1.521.184 2.064.395a4.144 4.144 0 0 1 1.506.98c.432.425.766.94.98 1.507.21.541.353 1.158.395 2.063.04.906.051 1.195.051 3.504 0 2.31-.009 2.598-.051 3.504-.043.905-.185 1.521-.395 2.064a4.15 4.15 0 0 1-.98 1.506 4.178 4.178 0 0 1-1.506.98c-.542.21-1.16.353-2.064.395-.906.04-1.194.051-3.504.051s-2.598-.009-3.504-.051c-.905-.043-1.521-.185-2.064-.395a4.157 4.157 0 0 1-1.506-.98 4.168 4.168 0 0 1-.98-1.506c-.21-.542-.352-1.16-.395-2.064C.011 11.098 0 10.81 0 8.5s.008-2.598.051-3.504c.043-.906.184-1.521.395-2.064a4.148 4.148 0 0 1 .98-1.506 4.162 4.162 0 0 1 1.507-.98C3.474.236 4.09.094 4.995.051 5.902.011 6.191 0 8.5 0Zm0 4.25a4.25 4.25 0 1 0 0 8.5 4.25 4.25 0 0 0 0-8.5Zm5.525-.213a1.062 1.062 0 1 0-2.125 0 1.062 1.062 0 0 0 2.125 0ZM8.5 5.95a2.55 2.55 0 1 1 0 5.1 2.55 2.55 0 0 1 0-5.1Z" fill="currentColor"/></svg><svg fill="none" viewBox="0 0 52 46" id="quote" xmlns="http://www.w3.org/2000/svg"><g opacity=".4" clip-path="url(#ea)"><path d="M.347 32.587c0-4.045 1.675-9.072 5.026-15.08C8.724 11.382 13.29 5.547 19.067 0c1.849 0 3.062.867 3.64 2.6-6.01 8.667-9.014 15.6-9.014 20.8 3.814 3.12 6.876 7.222 9.187 12.307-4.275 4.853-8.724 8.146-13.347 9.88-2.08-1.734-4.044-3.872-5.893-6.414C1.907 36.516.809 34.32.347 32.587Zm28.773 0c0-4.045 1.675-9.072 5.027-15.08C37.497 11.382 42.062 5.547 47.84 0c1.964 0 3.235.867 3.813 2.6-6.008 8.436-9.013 15.369-9.013 20.8 3.813 3.12 6.876 7.222 9.187 12.307-4.276 4.853-8.725 8.146-13.347 9.88-2.08-1.734-4.044-3.872-5.893-6.414-1.734-2.657-2.89-4.853-3.467-6.586Z" fill="#6F584F"/></g><defs><clipPath id="ea"><path fill="#fff" d="M0 0h52v45.933H0z"/></clipPath></defs></svg><svg viewBox="0 0 17 15" fill="none" id="telegram" xmlns="http://www.w3.org/2000/svg"><path d="m16.952 1.296-2.566 12.087c-.194.853-.698 1.066-1.415.664L9.06 11.17l-1.885 1.813c-.21.209-.384.383-.786.383l.28-3.977 7.245-6.54c.316-.28-.068-.437-.489-.156L4.47 8.327.614 7.12c-.839-.262-.854-.838.175-1.24L15.87.076c.698-.262 1.31.154 1.082 1.22Z" fill="currentColor"/></svg></svg>