<svg width="782" height="782" viewBox="0 0 782 782" fill="none" xmlns="http://www.w3.org/2000/svg">
  <circle cx="391" cy="391" r="381" fill="none" stroke="currentColor" stroke-width="20"/>
  <path fill="currentColor" d="M206.5 221C183.036 221 164 240.036 164 263.5C164 276.87 170.286 289.443 181 297.5L373.667 442C383.76 449.526 397.573 449.526 407.667 442L600.333 297.5C611.047 289.443 617.333 276.87 617.333 263.5C617.333 240.036 598.297 221 574.833 221H206.5ZM164 320.167V504.333C164 535.589 189.411 561 220.667 561H560.667C591.922 561 617.333 535.589 617.333 504.333V320.167L424.667 464.667C404.479 479.807 376.854 479.807 356.667 464.667L164 320.167Z"/>
</svg>
