<svg width="50" height="50" viewBox="0 0 50 50" fill="none" xmlns="http://www.w3.org/2000/svg">
<g clip-path="url(#clip0)">
<path d="M12.2817 15.0296C5.52192 15.0296 0.0223999 20.5291 0.0223999 27.2889C0.0223999 31.4859 2.01889 35.9984 5.95649 40.7011C6.54155 41.3999 7.12456 42.0473 7.68404 42.6381C5.14165 43.332 3.61518 44.5788 3.61518 46.034C3.61518 48.61 8.08023 50.0001 12.2813 50.0001C16.4825 50.0001 20.9474 48.6099 20.9474 46.034C20.9474 44.58 19.4215 43.3329 16.8807 42.6386C17.8958 41.5671 18.988 40.3063 20.0243 38.9001C20.2645 38.574 20.195 38.1151 19.869 37.8749C19.5432 37.6349 19.0841 37.7043 18.8438 38.0302C17.5926 39.7282 16.2383 41.2204 15.0566 42.4056C14.9212 42.4748 14.8079 42.5845 14.7369 42.7229C13.6783 43.7632 12.7875 44.535 12.282 44.9567C11.7821 44.5391 10.9048 43.7778 9.85982 42.751C9.78482 42.5867 9.65308 42.4578 9.49234 42.3859C6.17134 39.0456 1.48871 33.2745 1.48871 27.2891C1.48871 21.3379 6.33042 16.4962 12.2816 16.4962C18.2328 16.4962 23.0745 21.3379 23.0745 27.2891C23.0745 29.888 22.1889 32.6947 20.4425 35.6311C20.2355 35.9793 20.3498 36.4292 20.6978 36.6361C21.0459 36.843 21.4959 36.7288 21.7028 36.3807C23.586 33.2143 24.5409 30.1555 24.5409 27.2891C24.541 20.5291 19.0415 15.0296 12.2817 15.0296ZM11.833 46.4817C11.965 46.584 12.1234 46.635 12.2817 46.635C12.44 46.635 12.5983 46.584 12.7304 46.4817C12.8204 46.4121 14.0456 45.4566 15.6787 43.8598C18.1515 44.3641 19.4812 45.3351 19.4812 46.0341C19.4812 46.556 18.7658 47.1718 17.6141 47.6411C16.2016 48.2168 14.3078 48.5339 12.2814 48.5339C7.88628 48.5339 5.08159 47.0532 5.08159 46.0341C5.08159 45.3342 6.41167 44.3636 8.88589 43.8593C10.5281 45.4656 11.755 46.4214 11.833 46.4817Z" fill="#C0A378"/>
<path d="M12.282 21.9584C11.1224 21.9584 10.0196 22.3245 9.09306 23.0172C8.76884 23.2597 8.70243 23.7192 8.94482 24.0435C9.18739 24.3677 9.64687 24.434 9.97109 24.1917C10.6421 23.6901 11.4412 23.4248 12.2819 23.4248C14.4125 23.4248 16.1458 25.1581 16.1458 27.2888C16.1458 29.4194 14.4125 31.1527 12.2819 31.1527C10.1514 31.1527 8.41806 29.4193 8.41806 27.2888C8.41806 26.9252 8.46835 26.5658 8.56747 26.2207C8.67919 25.8315 8.45429 25.4254 8.06513 25.3136C7.67606 25.2023 7.26991 25.4269 7.15809 25.8161C7.02128 26.2929 6.95184 26.7883 6.95184 27.2888C6.95184 30.2279 9.34296 32.6191 12.2821 32.6191C15.2212 32.6191 17.6124 30.228 17.6124 27.2888C17.6123 24.3497 15.2211 21.9584 12.282 21.9584Z" fill="#C0A378"/>
<path d="M44.2343 21.3009C44.6073 20.9006 44.9916 20.4694 45.3769 20.009C48.4295 16.3632 49.9772 12.8584 49.9772 9.59172C49.9772 4.30294 45.6744 0 40.3855 0C36.5219 0 33.0529 2.29942 31.5479 5.85802C31.3901 6.23097 31.5646 6.66124 31.9375 6.81886C32.3103 6.97648 32.7407 6.80216 32.8983 6.42931C34.1735 3.41446 37.1124 1.46631 40.3855 1.46631C44.8659 1.46631 48.5109 5.11144 48.5109 9.59182C48.5109 15.6507 42.1498 21.4555 40.3852 22.9488C39.9964 22.6202 39.3842 22.0823 38.6666 21.3788C38.595 21.2369 38.4794 21.1244 38.3405 21.0547C35.8089 18.5058 32.2601 14.1242 32.2601 9.59182C32.2601 9.18683 31.932 8.85861 31.5269 8.85861C31.122 8.85861 30.7937 9.18683 30.7937 9.59182C30.7937 12.8584 32.3415 16.3632 35.3941 20.0091C35.7794 20.4692 36.1633 20.9002 36.5362 21.3004C34.6462 21.8683 33.555 22.8349 33.555 23.9989C33.555 24.9805 34.3513 25.8457 35.7974 26.4348C37.0347 26.939 38.6641 27.2168 40.3854 27.2168C42.1066 27.2168 43.736 26.939 44.9734 26.4348C46.4192 25.8456 47.2155 24.9804 47.2155 23.9988C47.2154 22.837 46.1235 21.8695 44.2343 21.3009ZM40.3853 25.7502C36.9147 25.7502 35.0214 24.5932 35.0214 23.9987C35.0214 23.6114 35.8827 22.9026 37.7217 22.5116C38.9591 23.7156 39.8776 24.431 39.9369 24.477C40.069 24.5792 40.2273 24.6303 40.3856 24.6303C40.5439 24.6303 40.7021 24.5792 40.8343 24.477C40.8936 24.4312 41.8119 23.7157 43.0493 22.5118C43.8686 22.6865 44.5784 22.9424 45.0751 23.2448C45.4972 23.502 45.7493 23.7838 45.7493 23.9987C45.7491 24.5932 43.8558 25.7502 40.3853 25.7502Z" fill="#C0A378"/>
<path d="M40.3856 5.32526C38.0331 5.32526 36.1191 7.23913 36.1191 9.59177C36.1191 11.9442 38.033 13.8581 40.3856 13.8581C42.7381 13.8581 44.652 11.9443 44.652 9.59177C44.652 7.23923 42.7381 5.32526 40.3856 5.32526ZM40.3857 12.3917C38.8415 12.3917 37.5855 11.1356 37.5855 9.59167C37.5855 8.04772 38.8416 6.79157 40.3857 6.79157C41.9296 6.79157 43.1858 8.04763 43.1858 9.59167C43.1857 11.1356 41.9296 12.3917 40.3857 12.3917Z" fill="#C0A378"/>
<path d="M30.8747 23.2657H30.54C30.2962 23.2657 30.0513 23.2819 29.8117 23.3138C29.4104 23.3672 29.1283 23.7358 29.1816 24.1373C29.2307 24.506 29.5455 24.774 29.9075 24.774C29.9397 24.774 29.9723 24.7719 30.0051 24.7675C30.1808 24.7442 30.3608 24.7324 30.5401 24.7324H30.8747V24.7323C31.2797 24.7323 31.608 24.4041 31.608 23.9991C31.608 23.594 31.2797 23.2657 30.8747 23.2657Z" fill="#C0A378"/>
<path d="M28.4508 45.2633C28.4496 45.2633 28.4486 45.2633 28.4474 45.2633L27.479 45.2677C27.0742 45.2696 26.7474 45.5993 26.7492 46.0042C26.7509 46.408 27.0789 46.7341 27.4823 46.7341C27.4834 46.7341 27.4845 46.7341 27.4857 46.7341L28.454 46.7297C28.8589 46.7279 29.1857 46.3981 29.1839 45.9932C29.1822 45.5893 28.8542 45.2633 28.4508 45.2633Z" fill="#C0A378"/>
<path d="M31.7448 32.7625H30.7765C30.3715 32.7625 30.0433 33.0908 30.0433 33.4957C30.0433 33.9007 30.3714 34.2289 30.7765 34.2289H31.7448C32.1498 34.2289 32.478 33.9008 32.478 33.4957C32.478 33.0908 32.1499 32.7625 31.7448 32.7625Z" fill="#C0A378"/>
<path d="M27.8598 24.7596C27.5853 24.4621 27.1216 24.4434 26.8238 24.7178C26.5504 24.9698 26.3018 25.2508 26.0848 25.5529C25.8486 25.882 25.9238 26.3401 26.2527 26.5763C26.3821 26.6693 26.5317 26.714 26.6798 26.714C26.9079 26.714 27.1327 26.6078 27.2759 26.4084C27.4351 26.1868 27.6175 25.9806 27.818 25.7956C28.1157 25.5211 28.1343 25.0572 27.8598 24.7596Z" fill="#C0A378"/>
<path d="M32.3245 45.2456C32.3233 45.2456 32.3222 45.2456 32.3211 45.2456L31.3528 45.25C30.9479 45.2518 30.6212 45.5816 30.6229 45.9865C30.6247 46.3903 30.9527 46.7164 31.356 46.7164C31.3572 46.7164 31.3583 46.7164 31.3595 46.7164L32.3277 46.712C32.7326 46.7103 33.0594 46.3804 33.0576 45.9755C33.0557 45.5717 32.7278 45.2456 32.3245 45.2456Z" fill="#C0A378"/>
<path d="M24.5773 45.281C24.5761 45.281 24.575 45.281 24.5739 45.281L23.6055 45.2854C23.2006 45.2873 22.8739 45.617 22.8756 46.0219C22.8775 46.4257 23.2052 46.7518 23.6087 46.7518C23.6099 46.7518 23.611 46.7518 23.6121 46.7518L24.5805 46.7474C24.9854 46.7456 25.3122 46.4158 25.3104 46.0109C25.3087 45.607 24.9807 45.281 24.5773 45.281Z" fill="#C0A378"/>
<path d="M28.4014 32.1462C28.171 32.0009 27.9543 31.8311 27.7575 31.642C27.4656 31.3612 27.0013 31.3705 26.7208 31.6621C26.44 31.9539 26.4491 32.418 26.7409 32.6987C27.0093 32.9568 27.3047 33.1882 27.6189 33.3864C27.7404 33.4631 27.8757 33.4996 28.0095 33.4996C28.2528 33.4996 28.4908 33.3786 28.6304 33.1574C28.8465 32.815 28.7438 32.3622 28.4014 32.1462Z" fill="#C0A378"/>
<path d="M26.599 29.5204C26.5498 29.2676 26.5248 29.0077 26.5248 28.7475L26.525 28.7068C26.5297 28.3019 26.2053 27.9699 25.8003 27.9652C25.7975 27.9651 25.7946 27.9651 25.7917 27.9651C25.3907 27.9651 25.0633 28.2877 25.0586 28.6898L25.0583 28.7476C25.0583 29.1017 25.0924 29.4561 25.1596 29.8009C25.2278 30.151 25.5346 30.3939 25.8785 30.3939C25.9249 30.3939 25.9721 30.3895 26.0194 30.3802C26.417 30.3028 26.6763 29.9178 26.599 29.5204Z" fill="#C0A378"/>
<path d="M35.6186 32.7625H34.6502C34.2452 32.7625 33.917 33.0908 33.917 33.4957C33.917 33.9007 34.2452 34.2289 34.6502 34.2289H35.6186C36.0235 34.2289 36.3518 33.9008 36.3518 33.4957C36.3518 33.0908 36.0235 32.7625 35.6186 32.7625Z" fill="#C0A378"/>
<path d="M47.3901 34.2555C47.1076 34.0326 46.8056 33.83 46.4924 33.6538C46.14 33.4549 45.6926 33.5798 45.4938 33.9327C45.2951 34.2854 45.4199 34.7327 45.7727 34.9313C46.0198 35.0707 46.2583 35.2304 46.4812 35.4065C46.616 35.5128 46.7759 35.5643 46.9351 35.5643C47.1517 35.5643 47.3664 35.4686 47.5111 35.2854C47.7621 34.9675 47.708 34.5064 47.3901 34.2555Z" fill="#C0A378"/>
<path d="M44.6685 45.7711C44.6128 45.37 44.2421 45.0892 43.8419 45.1451C43.6017 45.1783 43.3558 45.1958 43.1106 45.1967L42.9734 45.1974C42.5684 45.1995 42.2418 45.5294 42.2437 45.9341C42.2458 46.3379 42.5736 46.6638 42.9768 46.6638C42.9781 46.6638 42.9793 46.6638 42.9804 46.6638L43.1173 46.6631C43.427 46.6618 43.7383 46.6398 44.0425 46.5977C44.4438 46.5422 44.724 46.172 44.6685 45.7711Z" fill="#C0A378"/>
<path d="M47.9044 43.7091C47.625 43.4157 47.1609 43.4045 46.8679 43.6839C46.6621 43.8799 46.4395 44.0614 46.206 44.2233C45.8733 44.4539 45.7905 44.9108 46.0211 45.2437C46.1636 45.4491 46.392 45.5592 46.6243 45.5592C46.7685 45.5592 46.914 45.5168 47.0414 45.4285C47.3369 45.2236 47.6189 44.9939 47.8793 44.7457C48.1726 44.4663 48.1837 44.0022 47.9044 43.7091Z" fill="#C0A378"/>
<path d="M49.3313 40.1485C48.934 40.0736 48.5502 40.3353 48.4752 40.7332C48.4226 41.0122 48.3478 41.2891 48.2525 41.5563C48.1166 41.9376 48.3155 42.3571 48.697 42.4931C48.7783 42.5221 48.8615 42.5359 48.9433 42.5359C49.2444 42.5359 49.5268 42.3488 49.6339 42.0488C49.7547 41.7099 49.8497 41.3586 49.9164 41.0046C49.9911 40.6067 49.7292 40.2233 49.3313 40.1485Z" fill="#C0A378"/>
<path d="M49.7669 37.7915C49.6675 37.4453 49.5399 37.1043 49.3874 36.7774C49.2161 36.4104 48.7802 36.2519 48.4129 36.4229C48.046 36.5942 47.8873 37.0305 48.0585 37.3975C48.1786 37.6548 48.2792 37.9235 48.3574 38.196C48.4497 38.5176 48.7431 38.7272 49.0618 38.7272C49.1289 38.7272 49.1969 38.7179 49.2645 38.6985C49.6536 38.5867 49.8785 38.1807 49.7669 37.7915Z" fill="#C0A378"/>
<path d="M39.4922 32.7625H38.5239C38.1189 32.7625 37.7906 33.0908 37.7906 33.4957C37.7906 33.9007 38.1188 34.2289 38.5239 34.2289H39.4922C39.8972 34.2289 40.2254 33.9008 40.2254 33.4957C40.2254 33.0908 39.8972 32.7625 39.4922 32.7625Z" fill="#C0A378"/>
<path d="M36.1981 45.2281C36.197 45.2281 36.1959 45.2281 36.1947 45.2281L35.2263 45.2325C34.8215 45.2343 34.4947 45.5642 34.4965 45.9691C34.4983 46.3729 34.8263 46.699 35.2296 46.699C35.2307 46.699 35.2318 46.699 35.233 46.699L36.2013 46.6946C36.6062 46.6927 36.933 46.3629 36.9312 45.958C36.9295 45.5542 36.6014 45.2281 36.1981 45.2281Z" fill="#C0A378"/>
<path d="M43.398 32.7695C43.2943 32.7648 43.1892 32.7626 43.0859 32.7626H42.3973C41.9923 32.7626 41.6641 33.0909 41.6641 33.4958C41.6641 33.9008 41.9922 34.229 42.3973 34.229H43.0859V34.2289C43.1688 34.2289 43.2512 34.2307 43.3332 34.2344C43.3442 34.2349 43.3552 34.2351 43.3662 34.2351C43.7561 34.2351 44.0807 33.9279 44.098 33.5345C44.1159 33.1298 43.8025 32.7874 43.398 32.7695Z" fill="#C0A378"/>
<path d="M40.0717 45.2104C40.0705 45.2104 40.0694 45.2104 40.0682 45.2104L39.0999 45.2148C38.695 45.2166 38.3682 45.5465 38.37 45.9514C38.3719 46.3552 38.6998 46.6813 39.1031 46.6813C39.1043 46.6813 39.1055 46.6813 39.1065 46.6813L40.0749 46.6769C40.4798 46.675 40.8065 46.3452 40.8048 45.9403C40.803 45.5364 40.4751 45.2104 40.0717 45.2104Z" fill="#C0A378"/>
<path fill-rule="evenodd" clip-rule="evenodd" d="M12.6624 46.4581C13.4304 47.4601 14.9029 47.4601 15.6709 46.4581C18.6467 42.5751 25 33.7485 25 29.1666C25 23.1836 20.1497 18.3333 14.1666 18.3333C8.18356 18.3333 3.33331 23.1836 3.33331 29.1666C3.33331 33.7485 9.68661 42.5751 12.6624 46.4581ZM14.0967 33.8524C16.7233 33.8524 18.8526 31.7231 18.8526 29.0965C18.8526 26.4699 16.7233 24.3406 14.0967 24.3406C11.4701 24.3406 9.34078 26.4699 9.34078 29.0965C9.34078 31.7231 11.4701 33.8524 14.0967 33.8524Z" fill="#C0A378" fill-opacity="0.3"/>
<path fill-rule="evenodd" clip-rule="evenodd" d="M39.9507 23.9788C40.7102 25.0281 42.2347 25.0281 42.9943 23.9788C45.3501 20.7244 49.6116 14.369 49.6116 10.9801C49.6116 6.29669 45.9676 2.5 41.4725 2.5C36.9773 2.5 33.3333 6.29669 33.3333 10.9801C33.3333 14.369 37.5948 20.7244 39.9507 23.9788ZM41.4199 14.6481C43.3933 14.6481 44.9931 12.9814 44.9931 10.9253C44.9931 8.86921 43.3933 7.20243 41.4199 7.20243C39.4465 7.20243 37.8468 8.86921 37.8468 10.9253C37.8468 12.9814 39.4465 14.6481 41.4199 14.6481Z" fill="#C0A378" fill-opacity="0.3"/>
</g>
<defs>
<clipPath id="clip0">
<rect width="50" height="50" fill="white"/>
</clipPath>
</defs>
</svg>
