<svg width="50" height="50" viewBox="0 0 50 50" fill="none" xmlns="http://www.w3.org/2000/svg">
<g clip-path="url(#clip0)">
<path d="M49.2676 17.1875C49.6723 17.1875 50 16.8594 50 16.4551V13.6776C50 13.2729 49.6723 12.9452 49.2676 12.9452H47.76L44.0865 6.287C43.6302 5.45959 42.3477 6.16722 42.804 6.99425L46.0804 12.933H12.793C11.8668 12.933 11.8683 14.41 12.793 14.41H48.5352V15.7227H1.46484V14.41H7.61719C8.5434 14.41 8.54187 12.933 7.61719 12.933H3.92456L10.1677 1.46484H39.7533L40.8642 3.47862C41.3208 4.30603 42.6033 3.5984 42.1471 2.77138L40.8272 0.378799C40.6982 0.144958 40.4526 0 40.1859 0H9.73244C9.46426 0 9.21745 0.146484 9.08928 0.382233L2.24991 12.9452H0.732422C0.327683 12.9452 0 13.2729 0 13.6776V16.4551C0 16.8594 0.327683 17.1875 0.732422 17.1875H2.09885V41.6397C0.847626 42.3447 0 43.6852 0 45.2206V49.2676C0 49.6719 0.327683 50 0.732422 50H49.2676C49.6723 50 50 49.6719 50 49.2676V45.2206C50 43.6852 49.1524 42.3447 47.9012 41.6397V17.1875H49.2676ZM1.46484 45.2206C1.46484 43.7637 2.65045 42.5781 4.10728 42.5781H8.29506C9.75189 42.5781 10.9375 43.7637 10.9375 45.2206V48.5352H1.46484V45.2206ZM16.6992 48.5352V41.1133H19.8242V48.5352H16.6992ZM30.2246 48.5352V41.1133H33.3496V48.5352H30.2246ZM48.5352 48.5352H39.0625V45.2206C39.0625 43.7637 40.2481 42.5781 41.7049 42.5781H45.8927C47.3499 42.5781 48.5352 43.7637 48.5352 45.2206V48.5352ZM46.4363 41.1503C46.2582 41.1266 46.077 41.1133 45.8927 41.1133H41.7049C39.4402 41.1133 37.5977 42.9558 37.5977 45.2206V48.5352H34.8145V40.3809C34.8145 39.9765 34.4868 39.6484 34.082 39.6484H29.4922C29.0874 39.6484 28.7598 39.9765 28.7598 40.3809V48.5352H25.7324V44.6289C25.7324 43.684 24.2676 43.684 24.2676 44.6289V48.5352H21.2891V40.3809C21.2891 39.9765 20.9614 39.6484 20.5566 39.6484H15.9668C15.5621 39.6484 15.2344 39.9765 15.2344 40.3809V48.5352H12.4023V45.2206C12.4023 42.9558 10.5598 41.1133 8.29506 41.1133H4.10728C3.92303 41.1133 3.74184 41.1266 3.56369 41.1503V17.1875H24.2676V40.0391C24.2676 40.984 25.7324 40.984 25.7324 40.0391V17.1875H46.4363V41.1503Z" fill="#C0A378"/>
<path d="M31.9664 2.95642C30.3017 2.95642 28.9471 4.30911 28.944 5.97308L28.8895 9.73895H28.0548C27.1103 9.73895 27.1103 11.2038 28.0548 11.2038H35.8124C36.7573 11.2038 36.7573 9.73895 35.8124 9.73895H34.9884V5.97881C34.9884 4.31216 33.6327 2.95642 31.9664 2.95642ZM30.4089 5.98949C30.4089 5.98605 30.4089 5.98224 30.4089 5.97881C30.4089 5.12012 31.1077 4.42165 31.9664 4.42165C32.8251 4.42165 33.5236 5.12012 33.5236 5.97881V9.73895H30.3543L30.4089 5.98949Z" fill="#C0A378"/>
<path d="M17.6109 2.95642C15.9462 2.95642 14.5916 4.30911 14.5886 5.97308L14.534 9.73895H13.6994C12.7548 9.73895 12.7548 11.2038 13.6994 11.2038H21.4569C22.4018 11.2038 22.4018 9.73895 21.4569 9.73895H20.6329V5.97881C20.6329 4.31216 19.2772 2.95642 17.6109 2.95642ZM16.0534 5.98949C16.0534 5.98605 16.0534 5.98224 16.0534 5.97881C16.0534 5.12012 16.7523 4.42165 17.6109 4.42165C18.4696 4.42165 19.1681 5.12012 19.1681 5.97881V9.73895H15.9989L16.0534 5.98949Z" fill="#C0A378"/>
<path d="M20.5078 19.7266H15.918C15.5132 19.7266 15.1855 20.0546 15.1855 20.459V26.416C15.1855 26.8204 15.5132 27.1484 15.918 27.1484H20.5078C20.9126 27.1484 21.2402 26.8204 21.2402 26.416V20.459C21.2402 20.0546 20.9126 19.7266 20.5078 19.7266ZM19.7754 25.6836H16.6504V21.1914H19.7754V25.6836Z" fill="#C0A378"/>
<path d="M12.0117 19.7266H7.42188C7.01714 19.7266 6.68945 20.0546 6.68945 20.459V26.416C6.68945 26.8204 7.01714 27.1484 7.42188 27.1484H12.0117C12.4165 27.1484 12.7441 26.8204 12.7441 26.416V20.459C12.7441 20.0546 12.4165 19.7266 12.0117 19.7266ZM11.2793 25.6836H8.1543V21.1914H11.2793V25.6836Z" fill="#C0A378"/>
<path d="M20.5078 29.6875H15.918C15.5132 29.6875 15.1855 30.0156 15.1855 30.4199V36.377C15.1855 36.7813 15.5132 37.1094 15.918 37.1094H20.5078C20.9126 37.1094 21.2402 36.7813 21.2402 36.377V30.4199C21.2402 30.0156 20.9126 29.6875 20.5078 29.6875ZM19.7754 35.6445H16.6504V31.1523H19.7754V35.6445Z" fill="#C0A378"/>
<path d="M12.0117 29.6875H7.42188C7.01714 29.6875 6.68945 30.0156 6.68945 30.4199V36.377C6.68945 36.7813 7.01714 37.1094 7.42188 37.1094H12.0117C12.4165 37.1094 12.7441 36.7813 12.7441 36.377V30.4199C12.7441 30.0156 12.4165 29.6875 12.0117 29.6875ZM11.2793 35.6445H8.1543V31.1523H11.2793V35.6445Z" fill="#C0A378"/>
<path d="M37.9883 27.1484H42.5781C42.9829 27.1484 43.3105 26.8204 43.3105 26.416V20.459C43.3105 20.0546 42.9829 19.7266 42.5781 19.7266H37.9883C37.5835 19.7266 37.2559 20.0546 37.2559 20.459V26.416C37.2559 26.8204 37.5835 27.1484 37.9883 27.1484ZM38.7207 21.1914H41.8457V25.6836H38.7207V21.1914Z" fill="#C0A378"/>
<path d="M29.4922 27.1484H34.082C34.4868 27.1484 34.8145 26.8204 34.8145 26.416V20.459C34.8145 20.0546 34.4868 19.7266 34.082 19.7266H29.4922C29.0874 19.7266 28.7598 20.0546 28.7598 20.459V26.416C28.7598 26.8204 29.0874 27.1484 29.4922 27.1484ZM30.2246 21.1914H33.3496V25.6836H30.2246V21.1914Z" fill="#C0A378"/>
<path d="M37.9883 37.1094H42.5781C42.9829 37.1094 43.3105 36.7813 43.3105 36.377V30.4199C43.3105 30.0156 42.9829 29.6875 42.5781 29.6875H37.9883C37.5835 29.6875 37.2559 30.0156 37.2559 30.4199V36.377C37.2559 36.7813 37.5835 37.1094 37.9883 37.1094ZM38.7207 31.1523H41.8457V35.6445H38.7207V31.1523Z" fill="#C0A378"/>
<path d="M29.4922 37.1094H34.082C34.4868 37.1094 34.8145 36.7813 34.8145 36.377V30.4199C34.8145 30.0156 34.4868 29.6875 34.082 29.6875H29.4922C29.0874 29.6875 28.7598 30.0156 28.7598 30.4199V36.377C28.7598 36.7813 29.0874 37.1094 29.4922 37.1094ZM30.2246 31.1523H33.3496V35.6445H30.2246V31.1523Z" fill="#C0A378"/>
<rect x="30" y="22.5" width="5.83333" height="5.83333" rx="2" fill="#C0A378" fill-opacity="0.3"/>
<rect x="8.33331" y="22.5" width="5.83333" height="5.83333" rx="2" fill="#C0A378" fill-opacity="0.3"/>
<rect x="30" y="33.3333" width="5.83333" height="5.83333" rx="2" fill="#C0A378" fill-opacity="0.3"/>
<rect x="8.33331" y="33.3333" width="5.83333" height="5.83333" rx="2" fill="#C0A378" fill-opacity="0.3"/>
<rect x="38.3333" y="22.5" width="5.83334" height="5.83333" rx="2" fill="#C0A378" fill-opacity="0.3"/>
<rect x="16.6667" y="22.5" width="5.83333" height="5.83333" rx="2" fill="#C0A378" fill-opacity="0.3"/>
<rect x="38.3333" y="33.3333" width="5.83334" height="5.83333" rx="2" fill="#C0A378" fill-opacity="0.3"/>
<rect x="16.6667" y="33.3333" width="5.83333" height="5.83333" rx="2" fill="#C0A378" fill-opacity="0.3"/>
<rect x="16.6667" y="43.3333" width="5.83333" height="5.83334" rx="2" fill="#C0A378" fill-opacity="0.3"/>
<rect x="30" y="43.3333" width="5.83333" height="5.83334" rx="2" fill="#C0A378" fill-opacity="0.3"/>
</g>
<defs>
<clipPath id="clip0">
<rect width="50" height="50" fill="white"/>
</clipPath>
</defs>
</svg>
