<svg width="50" height="50" viewBox="0 0 50 50" fill="none" xmlns="http://www.w3.org/2000/svg">
<g clip-path="url(#clip0)">
<ellipse cx="12.5" cy="29.1667" rx="10" ry="10" fill="#C0A378" fill-opacity="0.3"/>
<path d="M49.2676 48.5353H42.749V45.488H45.0766C45.4812 45.488 45.809 45.1602 45.809 44.7556V43.0383C45.809 41.7737 44.7801 40.7448 43.5154 40.7448H40.6592V38.898H44.1929C45.0841 38.898 45.8091 38.1729 45.8091 37.2817V33.3803C45.8091 32.4891 45.0841 31.7641 44.1929 31.7641H22.8238C21.9327 31.7641 21.2076 32.4891 21.2076 33.3803V37.2817C21.2076 38.1729 21.9326 38.898 22.8238 38.898H26.3575V40.7448H23.5012C22.2365 40.7448 21.2076 41.7737 21.2076 43.0383V44.7556C21.2076 45.1602 21.5355 45.488 21.94 45.488H24.2676V48.5353H10.7119V36.4289C15.8739 36.0526 19.959 31.7327 19.959 26.4763C19.959 20.9736 15.4822 16.4968 9.97949 16.4968C8.43857 16.4968 6.96006 16.8393 5.58496 17.5149C5.22187 17.6932 5.07217 18.1321 5.25049 18.4952C5.42881 18.8583 5.86777 19.0078 6.23076 18.8296C7.40322 18.2538 8.66445 17.9617 9.97949 17.9617C14.6745 17.9617 18.4941 21.7813 18.4941 26.4763C18.4941 30.9246 15.0652 34.5865 10.7119 34.9591V33.756L12.9682 31.889C13.2798 31.6311 13.3234 31.1695 13.0655 30.8578C12.8077 30.5461 12.346 30.5025 12.0343 30.7604L10.7118 31.8547V31.3248C10.7118 30.9202 10.3839 30.5923 9.97939 30.5923C9.5749 30.5923 9.24697 30.9202 9.24697 31.3248V33.4125V33.4132V34.9592C4.89375 34.5865 1.46484 30.9246 1.46484 26.4763C1.46484 24.1801 2.36563 22.0272 4.00117 20.4141C4.28916 20.13 4.29238 19.6664 4.0083 19.3784C3.72422 19.0904 3.26045 19.0872 2.97256 19.3712C1.05576 21.2617 0 23.785 0 26.4763C0 31.7327 4.08506 36.0526 9.24707 36.4289V48.5353H0.732422C0.32793 48.5353 0 48.8631 0 49.2677C0 49.6723 0.32793 50.0001 0.732422 50.0001H49.2676C49.6722 50.0001 50 49.6723 50 49.2677C50 48.8631 49.6722 48.5353 49.2676 48.5353ZM22.6726 37.2817V33.3803C22.6726 33.2969 22.7404 33.229 22.8239 33.229H44.1929C44.2763 33.229 44.3442 33.2968 44.3442 33.3803V37.2817C44.3442 37.3652 44.2764 37.4332 44.1929 37.4332H22.8238C22.7404 37.4332 22.6726 37.3653 22.6726 37.2817ZM27.8224 38.898H39.1943V40.7448H27.8224V38.898ZM25.7325 45.488H28.0981C28.5027 45.488 28.8306 45.1602 28.8306 44.7556C28.8306 44.351 28.5027 44.0232 28.0981 44.0232H22.6726V43.0383C22.6726 42.5813 23.0443 42.2096 23.5013 42.2096H43.5154C43.9725 42.2096 44.3441 42.5814 44.3441 43.0383V44.0232H31.0266C30.622 44.0232 30.2941 44.351 30.2941 44.7556C30.2941 45.1602 30.622 45.488 31.0266 45.488H41.2842V48.5353H25.7325V45.488Z" fill="#C0A378"/>
<path d="M12.0558 8.94972C12.3962 8.73126 12.4952 8.27823 12.2767 7.93771C12.0779 7.62794 11.9729 7.26925 11.9729 6.9006C11.9729 5.83917 12.8365 4.9756 13.8979 4.9756C14.7083 4.9756 15.4366 5.4879 15.7101 6.2504C15.8196 6.55548 16.1171 6.75187 16.4401 6.73439C16.7636 6.71642 17.037 6.488 17.1121 6.17277C17.4489 4.75763 18.7011 3.76935 20.1574 3.76935C21.884 3.76935 23.2887 5.17404 23.2887 6.9007C23.2887 7.30031 23.2136 7.69093 23.0655 8.06154C22.9154 8.43722 23.0982 8.86329 23.4738 9.01349C23.5629 9.04913 23.6548 9.06603 23.7454 9.06603C24.0362 9.06603 24.3112 8.89171 24.4257 8.60519C24.6433 8.06085 24.7536 7.48741 24.7536 6.9007C24.7536 4.36632 22.6917 2.3045 20.1574 2.3045C18.5291 2.3045 17.0745 3.14659 16.2551 4.46642C15.6353 3.86769 14.7952 3.51085 13.8979 3.51085C12.0287 3.51085 10.5081 5.03156 10.5081 6.9007C10.5081 7.5504 10.6933 8.18253 11.0438 8.72892C11.2623 9.06915 11.7153 9.16798 12.0558 8.94972Z" fill="#C0A378"/>
<path d="M28.7325 13.3097C29.073 13.0912 29.1718 12.6381 28.9533 12.2976C28.8476 12.1327 28.7916 11.9417 28.7916 11.7454C28.7916 11.1798 29.2518 10.7196 29.8174 10.7196C30.2492 10.7196 30.6373 10.9926 30.7831 11.399C30.8926 11.7041 31.1901 11.9007 31.5131 11.8829C31.8366 11.8649 32.11 11.6365 32.1851 11.3213C32.3813 10.4972 33.1107 9.92157 33.9588 9.92157C34.9646 9.92157 35.7827 10.7397 35.7827 11.7455C35.7827 11.9782 35.739 12.2056 35.6528 12.4217C35.5028 12.7973 35.6856 13.2234 36.0613 13.3735C36.1504 13.4092 36.2423 13.426 36.3327 13.426C36.6236 13.426 36.8987 13.2515 37.0131 12.965C37.1688 12.5755 37.2476 12.1652 37.2476 11.7455C37.2476 9.93212 35.7723 8.45673 33.9588 8.45673C32.8943 8.45673 31.9335 8.95975 31.3283 9.76698C30.9032 9.44256 30.3753 9.25487 29.8174 9.25487C28.4441 9.25487 27.3268 10.3722 27.3268 11.7455C27.3268 12.2229 27.463 12.6875 27.7206 13.0889C27.9391 13.4294 28.392 13.5281 28.7325 13.3097Z" fill="#C0A378"/>
<path d="M44.0534 7.94287C44.4191 8.11523 44.8558 7.95869 45.0282 7.59287C45.2009 7.22695 45.044 6.79053 44.6782 6.61797C43.7346 6.17295 43.1249 5.21211 43.1249 4.17002C43.125 2.67832 44.3384 1.46484 45.8301 1.46484C47.3218 1.46484 48.5352 2.67832 48.5352 4.17002C48.5352 5.21211 47.9255 6.17295 46.9818 6.61797C46.616 6.79053 46.4592 7.22695 46.6318 7.59287C46.7567 7.85781 47.0201 8.01309 47.2947 8.01309C47.3994 8.01309 47.5057 7.99053 47.6066 7.94297C49.0605 7.25723 50 5.77627 50 4.17002C50 1.87061 48.1294 0 45.8301 0C43.5308 0 41.6602 1.87061 41.6602 4.17002C41.6602 5.77627 42.5996 7.25723 44.0534 7.94287Z" fill="#C0A378"/>
</g>
<defs>
<clipPath id="clip0">
<rect width="50" height="50" fill="white"/>
</clipPath>
</defs>
</svg>
