<svg width="51" height="50" viewBox="0 0 51 50" fill="none" xmlns="http://www.w3.org/2000/svg">
<g clip-path="url(#clip0)">
<path d="M15.4167 29.5833C11.5717 29.5833 9.80566 31.6046 9.11945 33.4613C8.73653 34.4974 9.64543 35.4166 10.75 35.4166H19.8044C20.8537 35.4166 21.7486 34.5856 21.4693 33.5741C20.9482 31.6875 19.3397 29.5833 15.4167 29.5833Z" fill="#C0A378" fill-opacity="0.3"/>
<path d="M36.25 36.6667C31.8484 36.6667 29.8434 39.851 29.1025 42.5095C28.7949 43.6133 29.7124 44.5834 30.8582 44.5834H46.7499C47.8545 44.5834 48.8013 43.6504 48.3778 42.6303C47.2176 39.8358 43.6277 38.936 41.6667 39.1667C40.8333 38.3334 38.5833 36.6667 36.25 36.6667Z" fill="#C0A378" fill-opacity="0.3"/>
<path d="M12.6591 26.8112C9.45599 26.8112 6.8079 29.1881 6.4383 32.2429H6.39758C5.9861 32.2429 5.65295 32.5706 5.65295 32.9753C5.65295 33.3797 5.9861 33.7077 6.39758 33.7077H20.6634C21.0745 33.7077 21.4081 33.3797 21.4081 32.9753C21.4081 32.5706 21.0745 32.2429 20.6634 32.2429H18.8802C18.5106 29.1881 15.8625 26.8112 12.6591 26.8112ZM12.6591 28.276C15.0403 28.276 17.0198 29.9983 17.3781 32.2429H7.93997C8.29871 29.9983 10.2782 28.276 12.6591 28.276Z" fill="#C0A378"/>
<path d="M29.3376 36.3582C29.0234 36.0969 28.5538 36.1358 28.2881 36.4448C27.1735 37.7422 26.4968 39.3485 26.3439 41.032H25.806C25.3949 41.032 25.0614 41.36 25.0614 41.7644C25.0614 42.1687 25.3949 42.4968 25.806 42.4968H46.0467C46.4582 42.4968 46.7914 42.1687 46.7914 41.7644C46.7914 41.36 46.4582 41.032 46.0467 41.032H45.7477C45.4185 38.998 43.7403 37.4019 41.6465 37.1589C40.0831 34.8743 37.5068 33.5193 34.6931 33.5193C33.5983 33.5193 32.5329 33.7241 31.5273 34.1277C31.1464 34.2807 30.9637 34.7079 31.1193 35.0826C31.2748 35.4572 31.7092 35.6368 32.09 35.4839C32.9161 35.1524 33.7922 34.9841 34.6931 34.9841C36.7059 34.9841 38.5714 35.8279 39.8694 37.2844C38.0932 37.7536 36.7284 39.2192 36.4344 41.032H27.8417C27.9899 39.6953 28.5383 38.4235 29.4256 37.3904C29.6913 37.0815 29.6517 36.6191 29.3376 36.3582ZM41.0911 38.5905C42.6141 38.5905 43.8931 39.6339 44.2302 41.032H37.952C38.2894 39.6339 39.5685 38.5905 41.0911 38.5905Z" fill="#C0A378"/>
<path d="M50.0887 45.3463H0.744629C0.333532 45.3463 0 45.6743 0 46.0787C0 46.4834 0.333532 46.8111 0.744629 46.8111H50.0887C50.4998 46.8111 50.8333 46.4834 50.8333 46.0787C50.8333 45.6743 50.4998 45.3463 50.0887 45.3463Z" fill="#C0A378"/>
<path d="M0.744629 14.494H50.0887C50.4998 14.494 50.8333 14.1663 50.8333 13.7616C50.8333 13.3572 50.4998 13.0292 50.0887 13.0292H0.744629C0.333532 13.0292 0 13.3572 0 13.7616C0 14.1663 0.333532 14.494 0.744629 14.494Z" fill="#C0A378"/>
<path d="M0.744629 18.8622H11.4909C11.9024 18.8622 12.2356 18.5346 12.2356 18.1298C12.2356 17.7255 11.9024 17.3974 11.4909 17.3974H0.744629C0.333532 17.3974 0 17.7255 0 18.1298C0 18.5346 0.333532 18.8622 0.744629 18.8622Z" fill="#C0A378"/>
<path d="M0.745061 10.0998C0.847835 10.0998 0.952161 10.0789 1.05183 10.0346L9.02751 6.48237C12.8143 4.79589 16.9784 4.2851 21.0699 5.00493L33.8667 7.25675C34.2708 7.32847 34.6583 7.06296 34.7308 6.66471C34.8029 6.26645 34.5338 5.88613 34.1285 5.81479L21.3325 3.56298C16.9427 2.7905 12.4757 3.33867 8.41358 5.14798L0.437513 8.69985C0.0632597 8.86693 -0.103118 9.30105 0.0663623 9.66916C0.191243 9.94001 0.461947 10.0998 0.745061 10.0998Z" fill="#C0A378"/>
<path d="M37.2566 7.8534L49.9576 10.088C50.0018 10.0961 50.046 10.0999 50.0894 10.0999C50.4431 10.0999 50.7573 9.85077 50.8217 9.49639C50.8942 9.09813 50.6246 8.71743 50.2198 8.64609L37.5188 6.41144C37.1143 6.3401 36.7269 6.60523 36.6547 7.00348C36.5822 7.40174 36.8518 7.78206 37.2566 7.8534Z" fill="#C0A378"/>
<path d="M50.0887 17.3974H14.9186C14.5075 17.3974 14.174 17.7255 14.174 18.1298C14.174 18.5346 14.5075 18.8622 14.9186 18.8622H50.0887C50.4998 18.8622 50.8333 18.5346 50.8333 18.1298C50.8333 17.7255 50.4998 17.3974 50.0887 17.3974Z" fill="#C0A378"/>
<path d="M10.073 9.09516C9.69529 9.25576 9.52193 9.6872 9.68521 10.0584L9.88184 10.5051C10.0036 10.7816 10.2774 10.9468 10.5656 10.9468C10.6645 10.9468 10.7645 10.9274 10.8607 10.8865C11.2385 10.7259 11.4118 10.2949 11.2485 9.92371L11.0519 9.47663C10.8886 9.10546 10.4504 8.93456 10.073 9.09516Z" fill="#C0A378"/>
<path d="M12.2833 9.46803L12.0828 9.91588C11.9168 10.2859 12.0874 10.7181 12.464 10.8814C12.5614 10.9237 12.6634 10.9439 12.7638 10.9439C13.0496 10.9439 13.3227 10.7807 13.4456 10.5064L13.6461 10.0589C13.8121 9.6889 13.6415 9.2567 13.2653 9.09343C12.8891 8.93054 12.4493 9.09801 12.2833 9.46803Z" fill="#C0A378"/>
<path d="M20.5944 8.47181C20.2167 8.6324 20.0433 9.06385 20.2066 9.43501L20.4032 9.88172C20.525 10.1583 20.7988 10.3235 21.0869 10.3235C21.1854 10.3235 21.2859 10.304 21.3821 10.2632C21.7598 10.1026 21.9332 9.67153 21.7699 9.30036L21.5733 8.85327C21.41 8.4821 20.9718 8.31121 20.5944 8.47181Z" fill="#C0A378"/>
<path d="M22.8047 8.84491L22.6041 9.29275C22.4382 9.66278 22.6088 10.095 22.9854 10.2583C23.0831 10.3006 23.1847 10.3204 23.2852 10.3204C23.5714 10.3204 23.844 10.1575 23.967 9.88327L24.1675 9.4358C24.3335 9.06578 24.1628 8.63357 23.7866 8.4703C23.4101 8.30703 22.9706 8.47488 22.8047 8.84491Z" fill="#C0A378"/>
<path d="M45.2408 24.6437C44.5594 24.6426 43.9021 24.4457 43.3393 24.0734C41.9839 23.1766 40.2262 23.1781 38.8618 24.0769C38.2991 24.4476 37.6421 24.6437 36.9615 24.6437C36.2809 24.6437 35.6239 24.4476 35.0611 24.0769C33.6995 23.18 31.9399 23.18 30.5782 24.0769C30.0155 24.4476 29.3581 24.6437 28.6779 24.6437C27.9972 24.6437 27.3399 24.4476 26.7775 24.0769C25.4128 23.1781 23.6555 23.1766 22.3001 24.0734C21.7373 24.4457 21.0796 24.6426 20.3982 24.6437C19.9871 24.6441 19.6539 24.9722 19.6543 25.3769C19.6551 25.7809 19.9882 26.1082 20.3989 26.1082H20.4001C21.3782 26.107 22.3222 25.824 23.1308 25.2888C23.9825 24.7254 25.0885 24.7273 25.9484 25.2941C26.757 25.8267 27.7006 26.1082 28.6775 26.1082C29.654 26.1082 30.598 25.8267 31.4066 25.2941C32.2649 24.7288 33.3741 24.7288 34.232 25.2941C35.041 25.8267 35.9846 26.1082 36.9611 26.1082C37.938 26.1082 38.8816 25.8267 39.6903 25.2941C40.5501 24.7276 41.6561 24.7257 42.5078 25.2888C43.3164 25.824 44.2608 26.107 45.2385 26.1082H45.2397C45.6504 26.1082 45.9839 25.7809 45.9843 25.3769C45.9851 24.9726 45.6519 24.6441 45.2408 24.6437Z" fill="#C0A378"/>
<path d="M31.972 31.6112C32.949 31.6112 33.8926 31.3297 34.7012 30.7968C35.5595 30.2318 36.6682 30.2318 37.5265 30.7968C38.3351 31.3297 39.2787 31.6112 40.2557 31.6112C40.6668 31.6112 41.0003 31.2831 41.0003 30.8788C41.0003 30.4744 40.6668 30.1464 40.2557 30.1464C39.575 30.1464 38.918 29.9503 38.3553 29.5799C36.9936 28.6827 35.2337 28.683 33.8724 29.5799C33.3097 29.9503 32.6527 30.1464 31.972 30.1464C31.5606 30.1464 31.2274 30.474 31.2274 30.8788C31.2274 31.2831 31.5609 31.6112 31.972 31.6112Z" fill="#C0A378"/>
<path d="M19.0396 37.704C17.6842 36.8075 15.9265 36.809 14.5622 37.7078C13.9994 38.0782 13.3424 38.2743 12.6618 38.2743C11.9812 38.2743 11.3238 38.0786 10.7614 37.7078C9.39979 36.8105 7.63982 36.8105 6.27855 37.7078C5.71581 38.0786 5.05844 38.2743 4.37781 38.2743C3.96671 38.2743 3.63318 38.6023 3.63318 39.0067C3.63318 39.411 3.96671 39.7391 4.37781 39.7391C5.35475 39.7391 6.29833 39.4576 7.10695 38.925C7.96521 38.3597 9.0744 38.3597 9.93266 38.925C10.7413 39.4576 11.6849 39.7391 12.6614 39.7391C13.6384 39.7391 14.5819 39.4576 15.3906 38.9247C16.2508 38.3582 17.3568 38.3563 18.2085 38.9197C19.0171 39.4545 19.9615 39.738 20.9392 39.7391H20.94C21.3511 39.7391 21.6842 39.4118 21.6846 39.0074C21.6854 38.6031 21.3522 38.2746 20.9411 38.2743C20.2597 38.2735 19.6024 38.0763 19.0396 37.704Z" fill="#C0A378"/>
<path d="M1.66663 12.9128V13.8333C1.66663 14.9379 2.56206 15.8333 3.66663 15.8333H48.8333C49.9379 15.8333 50.8333 14.9379 50.8333 13.8333V13.3227C50.8333 12.362 50.1568 11.5381 49.2127 11.36C38.5151 9.34172 19.317 5.83331 16.8263 5.83331C14.43 5.83331 7.06085 9.08102 2.78626 11.1245C2.09807 11.4535 1.66663 12.15 1.66663 12.9128Z" fill="#C0A378" fill-opacity="0.3"/>
</g>
<defs>
<clipPath id="clip0">
<rect width="50.8333" height="50" fill="white"/>
</clipPath>
</defs>
</svg>
